<svg id="Capa_1" data-name="Capa 1" xmlns="http://www.w3.org/2000/svg" viewBox="0 0 468.6 523.14"><defs><style>.cls-1{fill:#fff;}</style></defs><title>vector de mafalda</title><path class="cls-1" d="M212.65,147.8l-22-8L183.84,131l6.48-33.52L160,73.9S201.3,35.7,270.72,60.68l16.86-15.21s22.74,6.65,26.06,12.36,24.47.9,24.47.9S441.55,37.92,458.26,73.9l-36.94,27.32s2.8,10.75,1.92,29.29l-20.26,33s-22.32,29.15-22.43,44.73,11.25,26.89,8.39,24.78,39.68-18.88,41.61,46.94S365,351.88,365,351.88s42.18,14.81,47.47,15.75,19.4,4.28,25.5,24.5-7.46,44.05-7.46,44.05l19.33,22c-44,14.36-61.57,23.13-61.57,23.13.78,28,8.57,21.08,8.57,21.08-9.62,9.05.59,15.15.59,15.15,10.28,2.66,11.58,26.09,11.58,26.09-15.78,11.34-128.39,0-128.39,0C262.73,560.77,160,552.55,160,552.55c-23.21-19.75,13.13-40.19,13.13-40.19s-6.73,5.17-5.78-11.74,4-11.23,4-11.23l12.19-2.25,7.91-29L128,439.43l20.81-7.11c-15.24-24.05-7.58-31.72-7.58-31.72,14.87-40.07,85.38-59.47,85.38-59.47l-8.77-7.23c-41.19-33-31.54-37.32-40.9-65s54.12-60.15,49.17-64.38-12.74-51.48-12.74-51.48" transform="translate(-58.17 -45.46)"/><path d="M154.65,568.6h-9.74l-4.75-2.4.53-1.91h18.12a6.14,6.14,0,0,0-2.6-3.08c-3.88-2.15-5.36-5.45-4.67-9.71a62.41,62.41,0,0,1,1.57-6.12c1.15-4.21.28-5.73-4-6.49A7.53,7.53,0,0,1,143,534c-1.57-4,.33-10.76,4.16-14s8-5.44,13.32-2.74c1.69.85,5.51,1,5.9.19a10.28,10.28,0,0,0,.48-6.89c-.44-1.57-2.41-2.92-4-3.91-2-1.28-3-2.8-.91-4.32,3.25-2.33,3.2-5.88,3.57-9,.69-5.71.36-5.75,5.84-4,4.63,1.45,8-.24,8.78-4.65,1.07-5.89,2.18-11.79,2.77-17.73.16-1.7-1-4.64-2.33-5.19A106.54,106.54,0,0,0,164,456.36c-6.28-1.5-12.74-2.19-19.1-3.38-8-1.49-15.69-6.33-24.28-2.22-.71.34-2.09-.71-3.16-1.11.53-1.18.72-2.78,1.62-3.48q9.95-7.68,20.14-15.05c2.28-1.67,3.34-3.16,1.91-6.2a41.66,41.66,0,0,1-3.69-11.26c-2.14-14.45,2.43-26.6,13.1-36.62a80.69,80.69,0,0,0,10-11.11c3-4.17,6.9-5.78,11.78-6a13,13,0,0,0,4.9-1.24c2.65-1.31,5.13-3,7.69-4.46l5.47-3.17c-10.38-6.46-22.08-4.2-32-9a5.92,5.92,0,0,0,2.51,3.64c3.29,1.76,6.81,3.08,10.08,4.85.76.42.9,2,1.33,3-1.06.33-2.22,1.09-3.17.89-1.54-.33-2.9-1.4-4.41-1.95-3.67-1.33-6.71-5.18-11.35-2.86a1.72,1.72,0,0,1-1.53-.68c-2.2-5.67-7.76-6-12.34-7.91a135,135,0,0,1-31.35-18.65c-3.37-2.66-6.8-5.26-10.38-7.62a28.77,28.77,0,0,0-5.82-2.5c-3.19-1.22-5.1-3.23-5.29-6.88a53.05,53.05,0,0,0-1.36-7.73c-.4-2-1.44-2.41-3.22-1.33-3.56,2.15-4.06,2-5.08-2a20.53,20.53,0,0,1-.69-4.8c-.22-13.46-.37-26.92-.56-40.39,0-.89-.19-1.79-.29-2.68-2.82,7.71-5.49,15.3-3.64,23.58a30,30,0,0,1,.48,6.71c0,3.82-1.86,5.7-6.57,6.59a18.55,18.55,0,0,1-.23-4.3c1.41-7.84,2.88-15.66,4.48-23.45,1.2-5.86,2.72-11.65,3.87-17.51.38-2,.06-4,.06-6.07h-1c-.82,3-1.66,5.92-2.44,8.9-1.8,6.85-3.41,13.77-5.45,20.55-.5,1.63-2.37,2.85-3.61,4.27l-1.61-1c3.65-12.25,5-25.07,11.07-36.76,5.88-11.4,11-23.2,16.46-34.85-.3.12-.76.16-1,.41-5.42,7.21-11.19,14.2-16.07,21.76C67,220.47,65,226.47,62.17,232c-.38.74-2.07.81-3.15,1.19-.29-.83-1.06-1.9-.79-2.47,1.73-3.65,3.68-7.2,5.58-10.77.46-.86,1.1-1.62,1.53-2.49,1.15-2.31,1.9-4.9,3.4-7q8.7-11.92,17.82-23.55c5.94-7.52,12.18-14.81,18.21-22.27a16.27,16.27,0,0,0,1.66-3.52,6.75,6.75,0,0,0-4.38,1.22c-6.54,5.37-13.14,10.67-19.44,16.31C77,183.74,71.5,189.08,68.45,196.31c-.27.67-.79,1.57-1.36,1.71a31.47,31.47,0,0,1-4.49.48c.19-1.12,0-2.55.62-3.31,5.08-6.28,10.31-12.43,15.49-18.62.81-1,1.58-1.94,2.18-2.68-1.52-.87-3.12-1.27-3.5-2.18-.3-.73.64-2.36,1.47-3.09a59.74,59.74,0,0,1,7.9-6.14c14.81-9.13,29.9-17.84,44.5-27.3,5.57-3.61,11-7.22,17.23-9.5,2.34-.85,4.4-2.48,6.59-3.76-7.47,0-13,6.29-20.83,4.18a19.78,19.78,0,0,1,6.08-3.6c11.38-4.34,22.8-8.55,34.16-12.91,1-.4,1.81-1.53,3.35-2.9a16.89,16.89,0,0,0-2.47-.23c-14.57,2-27.65,8-40.43,14.84-1.56.82-2.4,2.93-3.71,4.31-1.06,1.12-2.19,2.51-3.55,3a66.58,66.58,0,0,1-9.12,1.94c-.82.14-1.74-.24-3.35-.5a14.61,14.61,0,0,1,2.24-2.31c14.26-8.14,28.15-17,44.4-21,6.5-1.6,12.77-4.12,19.24-5.86,2.36-.63,4.87-.51,5.23-3.64s-1.7-5.14-4.92-6a87.08,87.08,0,0,1-9-3.31c-3.1-1.22-6.08-3-9.29-3.64s-6.25-1.46-7.47-4.68.44-6.09,2.85-8.32a17.73,17.73,0,0,1,4.19-3c2.32-1.14,4.83-1.86,7.22-2.87,3.63-1.53,7.18-3.29,10.86-4.7,2.66-1,5.79-1.09,8.16-2.5,10.77-6.4,23.06-5.53,34.69-7.71,9.08-1.69,17.43,1.7,26,3.93,6.63,1.73,13.93,1.12,19.64,6.16.76.66,3.81-.1,4.84-1.14,3.21-3.28,5.86-7.09,8.93-10.51,1.28-1.43,3.21-3.51,4.62-3.35,5.13.58,10.78.92,15,3.42,3.54,2.08,6.31,2.85,9.92,1.78,9.2-2.72,16.26.24,21.5,8.07,1.39,2.08,2.7.85,4.09,0s2.86-2.17,4.45-2.47c8.92-1.71,17.83-3.84,26.85-4.56,13.63-1.08,27.34-1.15,41-1.52,1.37,0,2.77.89,4.17,1.33a57.32,57.32,0,0,0,7.94,2.39c4.26.7,9,0,12.81,1.57,10.16,4.25,20,9.35,29.81,14.34.88.45,1.51,2.75,1.21,3.91-1.29,4.86-4.78,7.86-9.09,10.32C448.66,89,440.2,94.18,431.74,99.39c-.88.55-1.93,2.08-1.72,2.82s1.71,1.57,2.79,1.93c6.56,2.19,13.21,4.14,19.74,6.41,5.5,1.92,10.89,4.14,16.31,6.27,2.61,1,5.22,2.06,7.76,3.26a88.56,88.56,0,0,1,8.13,4.27c.93.55,1.47,1.77,2.19,2.68-1,.62-2.29,2-3,1.75-4.11-1.34-9.08-2.07-11.92-4.86-6.68-6.57-15.11-8.38-23.42-10.8-1.66-.48-3.58-.07-5.37-.07l-.33,1.57c3.43,1.88,6.73,4,10.31,5.58,5.73,2.44,12.54,2.48,16.94,7.87.48.6,1.59.65,2.33,1.09,2.92,1.75,6.12,3.2,8.62,5.42,4,3.54,7.08,8.11,12.47,9.89a3.84,3.84,0,0,1,1.7,1.43c3.82,5.36,8.54,8.5,15.52,7.07,2.11-.44,3.6,1.1,3,3.11-.4,1.32-2,2.53-3.3,3.21-.72.37-2.27-.22-3.1-.84-4.5-3.31-11.05-3.53-13.94-9.32-.38-.77-1.64-1.07-2.44-1.66-4.69-3.49-7.79-8.95-13.65-11-.47-.17-.64-1.05-1.05-1.51-3.08-3.48-7.3-4.29-11.63-5a22.56,22.56,0,0,0,3.8,4.09c10.08,9.28,20.09,18.65,30.25,27.84,6.16,5.57,12.56,10.88,18.85,16.31.57.49,1.44.85,1.67,1.45a25.58,25.58,0,0,1,.87,3.92c-1.44,0-3.18.54-4.26-.07-1.67-1-2.88-2.7-4.33-4.07-.72-.69-1.53-1.3-2.29-1.95l-.89.55a16.71,16.71,0,0,0,1.06,4.06c3,5.32,6.15,10.51,9.12,15.83a60.84,60.84,0,0,1,4.1,8.73c.36,1-.56,2.45-.89,3.7a19.16,19.16,0,0,1-3.33-1.86,10.83,10.83,0,0,1-1.7-2.57l-1,.3c.5,2.7.84,5.44,1.53,8.09,1.58,6.14,2.41,12.71,5.28,18.2a32.93,32.93,0,0,1,4.2,15.52c.07,8.2.2,16.41,0,24.6,0,1.81-1.27,3.58-2,5.37l-1.32-.36c-3.38-9.65-.32-20.09-3.08-30.55-3.33,4.19-2.38,8.32-2.18,12.32.41,8.43,1.59,16.82-.44,25.29-1.05,4.35-.52,9.07-1.27,13.52-.22,1.31-2.37,2.28-3.64,3.41-.74-.86-2.15-1.77-2.1-2.58a46,46,0,0,1,1.44-7.56c.57-2.38,1.86-4.7,1.91-7.06.21-10.84.11-21.68.06-32.52a24.15,24.15,0,0,0-.61-3.84,4.09,4.09,0,0,0-1.54,3.05c-.15,9.82-.22,19.65-.33,29.48,0,1.87.4,3.9-.2,5.57-2.28,6.42-3.07,13.45-5.38,19.52-3.22,8.48-4,18.38-11.16,25.24-.67.64-.8,1.81-1.31,2.65q-5.58,9.31-11.21,18.59c-.13.21-.32.49-.51.53-1.72.33-3.44.62-5.16.92a34.76,34.76,0,0,1,.76-4.47c.23-.78,1.06-1.36,1.55-2.08,4.14-6.06,8.28-12.12,12.34-18.22a9.33,9.33,0,0,0,.77-2.61c-10.61,12.46-21,24.65-34.35,34.17-2.11-5.45-2.12-5.48-7.09-3.63-5.81,2.17-11.56,4.53-17.41,6.58-4.29,1.5-4.84,1-4.61-4.44l-12.92,2.41-.07,1.57c6.92.49,9.3,8.61,16.26,9.05a1.26,1.26,0,0,1,.82.72c1.76,4.2,3.68,8.27,7.89,10.67a1.76,1.76,0,0,1,.57.95c.9,3,2,5.91,2.62,8.94,1.88,8.91.35,17.57-2.47,26.05-1.74,5.24-1.84,11.08-5.83,15.57-.61.69-.15,3,.57,4.08,4.28,6.14,8.67,12.17,16.63,14.15,1.31.33,3.37,2.44,3.16,3.19-.51,1.83-1.82,4.28-3.39,4.83-7.2,2.52-15.19,2.74-21.67,7.5-.62.46-1.7.25-2.54.45-3.73.85-7.53,1.53-11.18,2.67-6.28,2-12.38,4.6-18.74,6.24-6.51,1.67-7.34,2-8.24,8.67a35.23,35.23,0,0,0-.32,4.47c-.08,5.65,1.4,7.22,6.94,7.38,2.74.07,5.52-.24,8.22.12,1.94.25,3.78,1.33,5.66,2-1.35,1.43-2.5,3.19-4.1,4.23-2.5,1.62-5.41,2.58-7.94,4.14-1.26.78-2.07,2.29-3.08,3.46l.81.8c5.75-1.69,11.48-2.68,15.87,2.63,4.68,5.66,1.16,10.64-2.64,16.11,2.55.42,4.31,1,6,.93,5.6-.26,11.19-.85,16.79-1.14a42.27,42.27,0,0,1,5.8.48c0,.4-.07.81-.1,1.21a25.81,25.81,0,0,1-3.15.3c-5.24-.08-10.47-.32-15.71-.26-1.15,0-2.28,1-3.43,1.56a18.49,18.49,0,0,0,1.65,3c3,3.82,7.18,3.8,11.57,3.38,3.18-.31,6.41-.06,9.62-.06l0,1.1h-4.35c-5.11-.06-10.22-.21-15.33-.13-.9,0-1.78,1-2.67,1.51a11.75,11.75,0,0,0,2.48,2.32,12.79,12.79,0,0,0,3.5.68,55.07,55.07,0,0,1-12.31,2.73c-3.21.39-6.34.58-4.38,5.93-13.34.73-26,1.39-38.61,2.18a19.9,19.9,0,0,0-4.38,1.3l.18,1.29,16.81,2.23-.11,1.28c-1.28,0-2.56.06-3.83,0-5.09-.24-10.19-.52-15.28-.8s-10.5-.28-15.67-1c-2.51-.34-4.85-2-7.27-3-2.69-.73-5.83-.3-8.81-.82-6.85-1.2-13.83-2-20.23-5.14a4.35,4.35,0,0,0-1.85-.14c-10.94.24-21.89.39-32.83.81-2.29.08-5,.56-6.74,1.87-4.61,3.49-9.72,4.84-15.31,5.18-3,.19-5.23,1.37-4.15,5.48-2.11,0-3.84,0-5.56,0-25.32-.23-50.64-.51-76-.66C162,565.56,157.87,565.59,154.65,568.6Zm210.89-498-9.24-2.53-.23,1.64,9.57.77a11.79,11.79,0,0,0,2.26,2.16,38.13,38.13,0,0,0,5.7,2.52c4.72,1.6,9.48,3.07,14.23,4.59l.48-1.53C380.74,75.63,373.93,71,365.54,70.59ZM253.75,146.18l-.78-1.37c-3.44.73-6.89,1.41-10.31,2.2a59.34,59.34,0,0,0-21.49,10c-4,2.85-4.37,5.48-2.27,10.13,1.85,4.07,4.14,8,5.59,12.19,2.08,6.07,3.75,12.29,5.26,18.53.86,3.57,2.11,7.56,1.3,10.91a23,23,0,0,1-12.79,16.1,32.39,32.39,0,0,0-8,5.34c-5,4.64-9.85,9.48-14.46,14.52-16.35,17.86-17.5,40.07-5.24,60.17,5.05,8.26,12.66,14,19.38,20.62,10.22,10.09,22.88,13.52,36.69,14.13a68.17,68.17,0,0,1,9,.55c11.46,2.11,22.63,6,34.52,5.37a4.33,4.33,0,0,1,1.1.2c4.79.94,9.51,1.69,14.34-.19,1.76-.69,4.26-1,5.85-.28,4.85,2.26,9.43,1,14.23.15,2.43-.43,5.93-.58,7.42.8a9,9,0,0,0,7.81,2.38c6.14-.77,12.27-1.7,18.32-3,7-1.48,13.63-4.39,21.07-4.5a21.48,21.48,0,0,0,11.46-3.95c7.75-5.57,14.93-11.93,22.33-18a8.74,8.74,0,0,0,1.2-1.43c6.27-7.9,7.86-17.44,8.55-27,.79-10.89-1.39-21.57-5.31-31.75-3.56-9.27-9.23-16.84-19.11-20.21-8.87-3-15.05-9-19.14-17.23-4.83-9.7-6.19-19.35.47-28.95,1.23-1.78,1.8-4,2.6-6.09a71.55,71.55,0,0,1,2.68-7.18c2.21-4.31,5-8.34,7-12.7,1.85-3.91.67-6.56-3.09-8.78-2.68-1.58-5.33-3.22-8.08-4.67-1.69-.9-3.53-1.51-5.3-2.25a39.67,39.67,0,0,1,.13,6c-.22,1.9-.87,5.31-1.5,5.35-2.89.17-2.77-2.43-2.88-4.56-.34-6.26-5.18-10.18-7.95-15.17-.29-.51-1.3-.62-2-.93-3.6-1.66-7.32-3.12-10.79-5-6.22-3.42-12.89-5.71-19.86-5.67-13.18.08-26.36,1-39.55,1.5-7.53.27-14.85,1.14-21.32,5.54a7.28,7.28,0,0,1-4.21,1.4c-5.72-.41-7.89,3.41-9.46,7.75a57.28,57.28,0,0,0-1.75,7.88c-.2,1-.06,2.17-.6,2.86a10.66,10.66,0,0,1-2.85,1.93c-.55-.87-1.58-1.76-1.55-2.61a24.59,24.59,0,0,1,1.09-6.12A37.49,37.49,0,0,1,253.75,146.18Zm18,243.53c-3,1.94-5.87,3.93-8.86,5.65-10.27,5.91-20.57,11.93-33.2,7.9-8.61-2.75-16.16-6.78-18.69-16.48-.07-.28-.52-.46-1.48-1.26-3.43,4.26-6.75,8.52-10.23,12.66-2.11,2.51-4.08,5.4-6.76,7.13-10.12,6.56-20.51,12.71-30.8,19-5.61,3.45-11.18,7-16.84,10.32-2.24,1.32-4.76,2.16-7,3.48-1.78,1.05-2,2.89-.12,3.85,4.66,2.35,9.35,5.64,14.28,6.14,5.68.57,10.86,2.16,16.2,3.67s10.93,2.38,16.19,4.16c12.16,4.13,24.52,6.93,37.41,7.18a20.24,20.24,0,0,1,6.6,1c6.56,2.43,13.11,4.44,20.25,4.36,3.63-.05,7.27.89,10.91,1.4.74.1,1.46.3,2.2.45,8.43,1.74,16.88,3.45,25.31,5.24a40.36,40.36,0,0,0,10.14.62c8.15-.31,16.36.48,24.52,1,6.41.44,12.79,1.26,19.19,1.8a30.4,30.4,0,0,0,5.56-.13c5.3-.54,10.57-1.33,15.88-1.75,8.53-.68,17.08-1.12,25.61-1.68a6.26,6.26,0,0,0,1.83-.36c6.45-2.47,12.55-6.27,19.94-5.22.54.08,1.16-.39,1.75-.58,5.57-1.71,11.24-3.11,16.67-5.19s10.71-4.87,16.64-7.61c-2.45-2.19-4.75-3.33-5.59-5.14-4.23-9.14-13.13-14-19.22-21.45-3.49-4.27-8.44-7.32-12.51-11.14-5.53-5.2-10.86-10.61-16.25-16-1.75-1.74-2.83-1.48-3.88.79-.59,1.24-1.66,2.76-2.83,3.12-5.63,1.75-11,4.85-17.26,3.84-4.63-.74-9.29-1.29-14-1.81-9.89-1.11-18.52-5.45-26.94-10.35-.9-.53-1.84-1-3.14-1.64a25.45,25.45,0,0,0-.74,3.37c-.57,8.3-1.19,16.6-1.58,24.91-.28,6.12-1.26,7-7.28,7.31-13.22.61-26.3-.68-39.39-2.16-5.84-.65-7.61-2.32-7.28-8.08.26-4.65,1.32-9.25,2-13.87C269.94,402.29,270.82,396.31,271.79,389.71Zm31.88-19.19c3.28,3,5.89,5,8,7.43,4.94,5.84,9.16,11.95,16.84,15.24,6.69,2.87,12.65,7.42,19.53,10.37,8.47,3.63,17,3,25.64,2.52,2.06-.1,4.21-1.49,6-2.72,6.73-4.52,6-11.46,4.75-17.92-1.81-9.68-5.81-18.67-10.79-27.17-1.92-3.27-3.6-7.09-8.59-6.39-.53.08-1.11-.55-1.7-.64-2.24-.35-4.79-1.43-6.68-.74-3.88,1.41-7.38,3.85-11.1,5.74-4.37,2.21-8.64,4.86-13.27,6.27-6.14,1.87-12.63,2.52-18.88,4.08C310.27,367.37,307.35,369,303.67,370.52ZM207.8,512.35l-.11-.94c-4.26.65-8.58,1-12.75,2a126.52,126.52,0,0,0-13,4.09,54.83,54.83,0,0,0-6.35,3,51.86,51.86,0,0,0-6.81,3.69c-1.33.95-3,2.57-3.05,4-.24,3.28-1.28,5.58-4.06,7.47-2.55,1.73-2.14,4.33.76,5.37a47.7,47.7,0,0,0,7.94,2c6.35,1.12,12.68,2.46,19.08,3a123.07,123.07,0,0,0,19.76.36c6.39-.47,12.68-2.77,19.05-3,10.14-.35,20.14-1.18,29.87-4,5.24-1.51,10.34-3.5,15.44-5.43,1.91-.73,3.11-2.59,1.08-4a114.58,114.58,0,0,0-15.56-9.2c-5.13-2.37-11-3.17-16.09-5.62a35.51,35.51,0,0,0-16.91-3.67C220,511.73,213.89,512.07,207.8,512.35ZM141.58,407.08c-1,6.33.62,11.76,5.33,16,1,.93,3,1.8,4.12,1.44a33,33,0,0,0,7.22-3.73c4.4-2.77,8.82-5.53,13-8.61,7.37-5.45,16.42-8.59,22.3-16.1,2.82-3.59,5.47-7.33,8.52-10.72,3.92-4.37,6.86-9.19,8-15,.76-3.76.91-7.66,1.87-11.36,1.5-5.75.93-6.57-5.14-5.79a20.74,20.74,0,0,0-2.54.59c-5.37,1.48-10.79,2.82-16.09,4.51-6.22,2-12.93,3.35-18.37,6.69-10.13,6.23-18.52,14.54-23.74,25.62C143.58,395.93,140.07,400.85,141.58,407.08Zm232.07,89.38v1c-9,.68-18.06,1.49-27.1,2-15.27.85-30.66-1.39-45.86,1.73-4.85,1-10,1.22-13.48,5.44a7.75,7.75,0,0,0,.22,9.91c3.74,4.29,5.2,4.52,8.79,2.77,5-2.42,10-5,15.32-6.43,13.22-3.58,26.67-6.35,40.46-5.91a125.67,125.67,0,0,1,21.39,2.32c4.78,1,9.22,3.63,13.78,5.61,2.72,1.18,3.75-.13,4.64-2.52A16.39,16.39,0,0,1,395,507.2c1.36-1.5,3.58-2.93,1.93-4.84-.83-1-3.5-.41-5.33-.37-1.3,0-2.82.9-3.85.46-3.12-1.31-6.05-3.07-8.72-4.48-.53.36-.35.16-.14.11a10.61,10.61,0,0,1,1.47-.29c4.64-.6,5.13-1.43,4.35-6-.49-2.87-.26-5.87-.83-8.72-.25-1.23-1.65-3.09-2.62-3.15a39.37,39.37,0,0,0-8.84.7c-3.8.62-7.53,2.13-11.32,2.24-14.45.44-28.91.48-43.37.64a4.34,4.34,0,0,1-1.82-.35c-8.35-3.63-17.17-3.7-26-3.19a5.27,5.27,0,0,0-3.81,2.34c-2.09,4.1-2.4,8.3.54,12.34s6.76,5.45,11.74,4.58c7.12-1.23,14.22-3.75,21.58-1.14a8.25,8.25,0,0,0,2.6-.11q4.47-.11,8.94-.17c5.85-.09,12,.94,17.48-.49C357.33,495.18,365.43,496.64,373.65,496.46Zm47-361,1.24.1a29.73,29.73,0,0,0,1.33-5.06c.21-2.6-.09-5.24.05-7.85.22-4.1-.34-7.84-2.94-11.28-1.86-2.46-1.41-7.88,1-10.16A83.85,83.85,0,0,1,432.46,92c7.53-5,15.51-9.36,23-14.47,4.21-2.88,3.63-4.07-1.17-6.32-3.67-1.72-7.65-3.44-10.46-6.2a15.63,15.63,0,0,0-8.95-4.8c-3.93-.57-7.94-.57-11.91-1-9-.88-18-2.27-27-2.67-10.31-.46-20.68-.46-31,.08-5.78.3-11.49,2.08-17.24,3.19,0,.45.07.9.11,1.35,3.66.86,7.3,1.82,11,2.54,4.49.88,9.14,1.12,13.49,2.39,8.69,2.54,17.22,5.61,25.83,8.44,2.28.74,2.66,2.37,1.46,4.05-1,1.37-2.59,2.29-4.07,3.54,4.54,3,9.27,5.9,13.6,9.27,1.12.87,1.32,3.33,1.32,5.06,0,.88-1.4,2.54-2.08,2.5a8,8,0,0,1-4.44-1.74c-1.28-1.09-1.88-2.93-3-4.26-5.92-7.1-13.84-9.3-22.79-9.13a17.54,17.54,0,0,0,5.42,4.93c9.76,4.8,19,10.08,26.45,18.43,4.09,4.59,6.69,9.19,6,15.36C415.52,127.66,417.79,131.68,420.67,135.47ZM334.32,543.6c10.15-1,20.33-1.69,30.43-3,10.34-1.33,20.6-3.18,30.89-4.88a43.13,43.13,0,0,0,6.11-1.57c2.52-.81,3.09-2.67,1.54-4.62a33,33,0,0,0-5.12-4.75c-2.27-1.87-4.65-3.63-7-5.39a19.12,19.12,0,0,0-3.38-2.22c-10.72-4.92-22.3-6.19-33.79-6.53a104,104,0,0,0-33,4.61c-10.07,3-19.23,7.32-26.59,15-3.19,3.34-3.19,4.29.92,6.07C307.72,541.74,320.82,543.44,334.32,543.6Zm-51.8-55.85c0-.63,0-1.25,0-1.87-.08-6.43-.65-7.25-7.1-8.08-5.91-.75-11.88-1-17.79-1.69-4.81-.57-9.83-.82-14.29-2.46-11.73-4.31-23.89-5.46-36.16-6.51a52.86,52.86,0,0,1-12.28-2.63c-5.51-1.88-8.33-.65-9.24,5.24s-1.28,11.61-2.11,17.39c-.54,3.76,1.27,4.78,4.59,5.06a96.46,96.46,0,0,1,10.24,1.62c6.81,1.32,13.56,3.66,20.39,3.9,10.53.37,21.11-.8,31.67-1.09,7.71-.21,15.43,0,23.14-.07C282.57,496.52,282.57,496.51,282.52,487.75ZM215.72,375.2c.31,17.84,10.05,24.53,22.38,25.2,6.67.35,13.37-2,19.27-6,10.32-6.85,19.08-16,30.87-20.73,2.15-.86,2.46-3.13-.05-4.17-3.29-1.36-6.83-2.12-10.23-3.26-6.31-2.12-13-3.61-18.8-6.68-7.1-3.74-13.52-8.77-20.16-13.37-3.23-2.24-6.15-1.87-8.7.78a32.28,32.28,0,0,0-3.79,5.47c-1.37,2.21-2.18,4.95-4,6.68C217.48,364,216.2,370.16,215.72,375.2ZM220.4,96.67l-.82-.62c-2.61,2-6.33,3.57-7.57,6.25-2.1,4.52-6.61,5.89-9.51,9.2a3.87,3.87,0,0,1-3.81.29c-.85-.68-1.15-2.61-1-3.87a5.53,5.53,0,0,1,2.19-2.91c3.24-2.51,6.66-4.78,9.86-7.33.77-.61,1.62-2.38,1.3-2.89-2.64-4.14-.29-6.73,2.74-8.78a101.84,101.84,0,0,1,31.24-13.87c-6.27.42-12.49,1.56-18.76,1.92a58.6,58.6,0,0,0-23.15,6.35c-1.78.9-4,2-5.21-.46s.49-4.46,2.68-5.34a98.47,98.47,0,0,1,11.94-4,85.94,85.94,0,0,1,11-1.88c9.34-1.15,18.7-2.23,28.06-3.18,2.84-.29,5.74,0,8.6-.15a13,13,0,0,0,2.92-.78l.25-1.22c-2.06-1.18-4-3-6.22-3.43-7.65-1.44-15.4-2.4-23.11-3.53-2.84-.41-5.66-.89-8.51-1.18a58.76,58.76,0,0,0-10-.62,70.38,70.38,0,0,0-12.48,2.07A40.62,40.62,0,0,0,194,60.45c-2.5,1.35-4.46,4-7.06,4.84-5.54,1.79-10.82,3.55-14.24,8.75-.68,1-2.25,1.45-3.3,2.3s-2.46,1.93-2.29,2.49a4.69,4.69,0,0,0,2.59,2.77c3.87,1.32,7.86,2.28,11.8,3.38,6.13,1.71,11.17,4,8.83,12.46-1.11,4-.33,8.54-.65,12.82-.36,4.69,0,9.79-1.77,13.92-2.76,6.38,1.43,10.37,2.71,15.61.94-.44,1.37-.51,1.57-.76,3.95-5,7.93-9.95,11.73-15a12.7,12.7,0,0,0,2.07-4.76,26.81,26.81,0,0,1,6.49-12.41C215.35,103.65,217.77,100.07,220.4,96.67Zm217.1,315c0-2.52.14-4.1,0-5.65-.35-3.07-1.34-6.14-1.23-9.19.18-5-1.57-9.14-3.86-13.39-2.62-4.89-7.29-7.32-11.31-10.55s-8.13-6.15-13.85-6.18c-3.35,0-6.67-1.71-10-2.55-5.25-1.3-10.52-2.51-16.65-4,.88,2.45,1.51,4.13,2.1,5.83,2.21,6.42,4.23,12.92,6.65,19.26,1.8,4.71,3.3,9.88,6.36,13.69a51.36,51.36,0,0,0,21,15.65c2.65,1.07,4.9,1.3,7.43-.12C428.08,412.25,431.79,409,437.5,411.65ZM279.64,510.16c.87-2,2.53-4,2.41-5.94-.33-5.11-2.61-6.09-8-4.4-1.85.58-4,1.37-5.73,1-13-2.74-26-1.31-39.06-.45a74.72,74.72,0,0,1-16.31-.57c-8.19-1.3-16.2-3.75-24.39-5.08a104,104,0,0,0-17.12-1c-3.52,0-4.86,2.74-4.1,6.88.56,3,2.46,3.93,5.74,3.47a37.62,37.62,0,0,1,7.72.08c1.85.12,3.67.75,5.51.81,22.28.76,44.57,1.26,66.83,2.31,5.77.28,11.47,2.25,17.2,3.44l-.16,1c-6.11.4-12.19-4-19.38-.55,2.05,1.21,3.23,2.44,4.53,2.58,5.31.58,8.88,4.18,13,6.93,3.4,2.29,6.9,4.43,10.37,6.6,1.86,1.16,4.23,2.45,5.63.17,1.23-2,2.3-5.16,1.56-7.09C284.36,516.54,281.58,513.22,279.64,510.16Zm62.12-156.35c-5.32-1.73-9.24-3.06-13.2-4.26a7.91,7.91,0,0,0-2.55.11c-3.58.21-7.33,1.18-10.71.46-6-1.28-11.79-.79-17.74-.13-10.76,1.2-21.32-.23-31.81-2.73a123.63,123.63,0,0,0-14.38-2.11,3.62,3.62,0,0,0-2.7,1.3c-.27.33.39,1.95,1,2.41,4.27,3,8.37,6.54,13.07,8.73,6.77,3.16,14.86,3.12,20.92,8.34.8.69,2.38.51,3.61.65,16.19,1.85,31.14-3.91,46.36-7.81C336.4,358.07,338.73,355.72,341.76,353.81ZM279,385.46c-.54.57-.93.79-1,1.08-2.37,10.35-4.76,20.71-7,31.09-.69,3.18.12,5.68,3.8,6.44,4.35.9,8.65,2.43,13,2.67,8.07.43,16.19.2,24.27,0,1.12,0,3-1.37,3.17-2.32a127.07,127.07,0,0,0,2-17.57c.1-4.72-.81-9.5-1.64-14.18-.34-1.9-1.66-3.61-2.54-5.41a29.18,29.18,0,0,0-3.54,3.39,18,18,0,0,1-21.95,5.89C282.83,394.44,280.12,390.7,279,385.46Zm5.46-327.89h19.73C297.12,50.8,287,50.66,284.44,57.57ZM183.84,507.68c-3.33-2-10-1.74-12.11.24a3.5,3.5,0,0,0-1.11,2.79,3.32,3.32,0,0,0,2.48,1.65C177.37,512.82,180.56,510.65,183.84,507.68ZM198.3,342.19c3.55,3.46,11.36,4.41,15.06,1.84C210,341.16,202,340.18,198.3,342.19Zm232.25,16.4c6.91.64,13.45-1.29,14.92-4.39C440.05,353.45,435.86,356.15,430.55,358.59ZM81.1,278.06c-3.32,4.4-2.15,10.61,2,11.59Zm3.13-106,10-7.55-.76-1C89,164.61,85.47,166.91,84.23,172.05Zm352,247.57a8,8,0,0,0-4.95,10.23ZM313.64,57.83h9.84C320.25,54.24,317,55.25,313.64,57.83Zm-217.93,248c-.86,1.33-1.73,2.31-1.59,2.5,1.14,1.47,2.48,2.78,3.76,4.15.52-.51,1.57-1.33,1.49-1.46C98.39,309.46,97.24,308,95.71,305.87Zm121,38.58c1.67,3,6.7,3.19,9.42.8Zm239.72,5.66c-.12-.4-.24-.8-.35-1.2-2.7-1.1-4.78-.54-6.17,1.88l.52,1.44Zm6-.69,1.06,1.35,5.65-4.54-1-1.31Z" transform="translate(-58.17 -45.46)"/><path d="M307.72,307.82c-6.22-.38-14.84-.83-23.5-3.67-10.78-3.53-20.24-8.95-29.79-14.78-8.11-5-17-8.82-25.8-12.44-8.5-3.48-10.81-10.37-11.88-18.32a4.15,4.15,0,0,1,.65-2.85,36.05,36.05,0,0,1,3.75-3.66c.62,1.45,1.72,2.9,1.75,4.37.09,4.22.5,8.25,3.56,11.47a11.08,11.08,0,0,0,3.14,2.55c13.7,6.5,28.18,8.29,43.23,7.77,14.33-.5,28.68-.19,43-.13,15.34.07,30.68.51,46,.31,7.6-.09,13.91-3.87,18.57-9.83,1.43-1.83,1.81-4.52,2.5-6.87.38-1.29.12-2.81.64-4,.42-1,1.56-1.64,2.38-2.45.76.85,1.91,1.59,2.22,2.58,2.18,7-.3,13.57-7.39,17.83q-24,14.44-48.28,28.34C325.7,307.9,318,308,307.72,307.82Z" transform="translate(-58.17 -45.46)"/><path d="M305.47,243.26c-7.79.45-13.39-3.65-18.33-8.49a10,10,0,0,1-2.58-7.37,69.06,69.06,0,0,1,3.52-14c.46-1.38,2.28-2.37,3.59-3.39.87-.67,2.17-.87,2.9-1.63,4.05-4.21,9.15-4.07,14.28-3.54a12,12,0,0,1,4.49,1.61c3.38,1.94,6.66,4.07,10,6.14a5.28,5.28,0,0,1,1.13,1c8.63,9.52,5.13,23.2-7.07,27C313.5,241.82,309.44,242.39,305.47,243.26Zm1-4.29.34,1c4.08-1.62,8.41-2.82,12.19-5,4.84-2.74,6.38-9.69,4.05-14.52C320,214,306.37,209.45,301,211a16.1,16.1,0,0,0-11.41,13.78c-.55,5.72.25,6.92,5.67,9a5.47,5.47,0,0,1,2.36,1.73C299.84,238.61,302.92,239.39,306.52,239Z" transform="translate(-58.17 -45.46)"/><path d="M280.66,194.05c.63-4,1-7.81,1.94-11.53.28-1.17,1.79-2.78,2.82-2.84a5,5,0,0,1,3.84,2c2.92,5.1,2.95,10.68,1.79,16.29a33.53,33.53,0,0,1-1.9,6.74c-.57,1.32-2.09,3.3-2.93,3.18a5.12,5.12,0,0,1-3.54-3A102.52,102.52,0,0,1,280.66,194.05Z" transform="translate(-58.17 -45.46)"/><path d="M336.91,195c-.5,4.7-1.79,8.76-5.23,11.88-2.79,2.53-5.68,1.56-6.06-2.19-.71-6.85-.52-13.7,2.1-20.19a5.34,5.34,0,0,1,3.35-2.92c.82-.15,2.53,1.55,2.94,2.74C335.22,187.77,336,191.41,336.91,195Z" transform="translate(-58.17 -45.46)"/><path d="M281.81,411.36c-.32-4.06-.58-8.37,4-10.25,4.89-2,10.07-3,15-.24a6.58,6.58,0,0,1,3,3.58c2.38,9.47-.94,17.7-10.65,21.42-5,1.92-10.51-2.68-11.44-9.28A39.65,39.65,0,0,1,281.81,411.36Z" transform="translate(-58.17 -45.46)"/></svg>