<svg id="Capa_1" data-name="Capa 1" xmlns="http://www.w3.org/2000/svg" viewBox="0 0 478.24 451.29"><defs><style>.cls-1{fill:#fff;}</style></defs><title>vector de clemente</title><path class="cls-1" d="M96.87,330.26S84.51,495.9,154.44,447.06c0,0,28-21.84,0-62.69l69.94,25.81v-71.3S250,350,256.52,344.56s15-5.68,15-5.68l23.72,40-9.5,40.56-14.22,35.93s-36.51,31-31.63,38.94c0,0,14.77,9,119.71-38.94,0,0,30.41-18.09,32.33-21.09s1.62-57.4-51.63-24.8L295,442.94l19-62.12-33.67-50.56-3.51-7.13s3.92,3.82,13.32-97.62l.06-11.12s89.13,121.25,129.92,97.25L306,209.53s-3-36.33,15.62-35.91l85.2,81.15s76,51.44,115.67,0c0,0,66.63-92.86-102.33-99.79h-9.43s7.11-14-4.77-13.21,17-37.91-45.34-63.25c-18.95-7.71-62.47-7.6-56.94,17.33,0,0-48.11,9.86-54.13,60.44,0,0-4.64,8.57,15.37,39.37l11.94,4.57-2.28,11.19-2.65,25.81s-31.87,64.16-74.51,32.88c0,0-42.64,18.46,8,60.15,0,0,11.32,30.87,2.11,52.25,0,0-17.2,11-70.45-37.95C137,344.56,113.51,273.49,96.87,330.26Z" transform="translate(-60.07 -73.9)"/><path d="M290.18,225.51c-1.06,9.91-2.49,19.79-3.1,29.73-1,17.19-1.46,34.41-2.41,51.6a24.46,24.46,0,0,1-2.54,10.08c-3.05,5.58-1.54,10.23,1.64,14.79,8.91,12.79,17.69,25.68,27,38.18,3.91,5.24,5.31,10.15,3.27,16.47-3.89,12.1-7.33,24.36-11,36.55-.57,1.92-1.08,3.85-2.11,7.55,4.63-3.17,7.8-5.51,11.13-7.59,12.5-7.81,24.77-16.05,37.68-23.12a37.42,37.42,0,0,1,28.68-3.36c19.37,5.5,25.78,22.07,13.42,37.87a55.62,55.62,0,0,1-20.56,15.92c-39.58,17.49-79.55,34.09-119.44,50.89a15.94,15.94,0,0,1-7.17,1.12c-9.16-.73-12.93-7.07-8.25-15a40.08,40.08,0,0,1,11.39-12.68c22.69-15.32,32.62-37.68,36.57-63.63.8-5.27,1.2-10.7,2.77-15.75,3.27-10.49,1.07-19.48-5.32-28.14-4.86-6.59-8.87-13.8-13.52-20.55-.95-1.38-3.49-3.12-4.59-2.72-11,4-21.89,1.91-32.77-.45a13.34,13.34,0,0,0-2.51.1c.8,8.81,1.9,17.49,2.31,26.21.47,10.24.93,20.54.3,30.74-.75,12-3.2,13.51-14.31,9.32-13.81-5.21-27.31-11.25-41-16.86-3.9-1.59-7.9-2.92-12.85-4.74,2.11,5,4.25,8.78,5.26,12.82,4.23,17,1.78,33.18-8.24,47.61-13,18.77-36.72,19.32-50.92.23-6.53-8.78-11.17-19.75-13.9-30.43-8.08-31.61-6.52-63.5.9-95.11a47.7,47.7,0,0,1,5-12.5c4.49-7.86,12.7-8.82,18.9-2.13a31.46,31.46,0,0,1,6.83,10.82c6.92,20.31,20.25,34.83,38.85,45,11.7,6.39,23.26,13,34.92,19.47a67.91,67.91,0,0,0,6.27,2.68c2.57-14.33,2.7-27.94,1.85-41.65-.42-6.69-2.47-11.17-8.87-15.17C187.47,322,180.63,309.7,179,295c-1.73-15.17,10.59-27.22,25.83-25.36a88.16,88.16,0,0,1,10.2,2.27c17.65,4.37,34.45-2.64,43.76-18.37,8.47-14.32,10.86-30.41,13.05-46.48.28-2-1.2-4.74-2.65-6.49-5-6-10.24-11.75-15.44-17.56-11.86-13.23-13.61-28.21-6.79-44.11,9.42-22,25.59-37.27,47.71-46.36,2.16-.89,4.91-2,5.88-3.81,5.42-10.09,14.83-13.12,25-14.55a40.18,40.18,0,0,1,14.86,1.08c-2.6.27-5.22.87-7.8.76-14.66-.65-23.26,7.52-28.89,19.81-4.11,9-5.81,18.48-4.1,28.22,2.84,16.11,15.47,26.22,35,28.18a116.77,116.77,0,0,0,59.46-9.68c4.16-1.82,6-4.27,6.37-9.16,1.52-21.78-8-37.06-26.6-47.38-3.86-2.14-7.8-4.13-11.5-6.56,13.23,2.82,24.48,8.93,32.81,19.83s9.65,23.6,8.55,36.72c10.41.1,13.45,2.8,13.31,13-.07,5.09,2,6.36,6.38,6.6,16.8.93,33.6,1.9,50.39,3.07,18.94,1.32,36.58,6,49.25,21.54,15.39,18.9,19.69,40,10.4,62.8-9.76,24-28.89,35.88-54,39-23.12,2.9-43.7-4.05-63.14-16-15.46-9.5-27.44-22.69-39.59-35.79-16.26-17.55-34.86-32.36-54.45-46-7.25-5-10.6-3.36-12.26,5.6-1.05,5.68-2.3,11.32-4,19.65,4.23,4,10.08,10.64,16.93,16,23.45,18.28,47.28,36.09,70.92,54.14,7.49,5.73,14.92,11.55,22.22,17.54,2.34,1.92,5.27,4.22,5.94,6.85,1,4.07,1.64,9.21-.07,12.67-1.11,2.27-6.81,3.66-10.11,3.17A62.49,62.49,0,0,1,395,314.44c-27.1-12.62-49.08-31.78-68.65-54.07-9.34-10.63-19.21-20.79-28.9-31.1a59.94,59.94,0,0,0-5-4.3Zm3.41-125c-19.95,11.72-36.32,25-42.39,47.52-3.78,14.07-.57,26.36,10,36.61,5.16,5,10.34,10,15.29,15.17,20.2,21.25,40,42.85,60.55,63.82,17.58,18,37.11,33.6,59.84,44.75a37,37,0,0,0,11.71,3.23,6.61,6.61,0,0,0,5.43-2.83c.72-1.43-.08-4.47-1.29-5.86a55.9,55.9,0,0,0-9.51-8.67c-19.53-13.93-40.46-26.21-58.5-41.84-26.15-22.66-50.29-47.65-75.15-71.79-3-3-6.12-6.5-7.54-10.37a66.59,66.59,0,0,1-3.62-17.69c-.36-4.72,2.57-7.12,7.82-7.08,13.68.1,26,4.16,36.45,12.77,30.37,25,62.11,48.33,88.65,77.82,25.59,28.43,58.28,40.14,96.35,36.16,33.47-3.5,54.09-33.22,44.74-64.12-10.22-33.79-57.85-55.62-90.46-41.52-1.78.77-4,1.74-5.69,1.26a181.87,181.87,0,0,1-20.9-7.15c-3.93-1.7-6.53-.69-10.12.9a152.85,152.85,0,0,1-23.64,8.16c-2.09.55-5-2.22-7.6-3.47,1.77-1.71,3.25-4.11,5.36-5,6.2-2.68,12.76-4.54,19-7.16a54.5,54.5,0,0,0,11.14-6.34c1.17-.87,1-3.52,1.49-5.36-1.68-.26-3.66-1.21-5-.65-5.66,2.38-11.21,5-16.64,7.92-7,3.68-14,6.24-22.14,6.56A29.14,29.14,0,0,0,353,160.89a25.49,25.49,0,0,1-18.62,4.24,47.21,47.21,0,0,1-40.77-48C293.67,112.11,293.59,107.05,293.59,100.52ZM214.24,395.91c-36.28-12.09-65.79-32.23-93.39-57.33l8.05-3.11c-3.75-6.57-6.82-13-10.83-18.69-5.42-7.76-10.44-7.26-13.15,1.89a180.14,180.14,0,0,0-6.84,33.57c-2.43,25.08-1.82,50.22,7.75,73.95,3.18,7.89,8.37,15.89,14.77,21.35,15.45,13.21,37.33,5.21,41.5-14.62a68.2,68.2,0,0,0,.94-20.76c-1.39-13.25-5.83-25-18.67-32-5.51-3-10.51-7.15-15.29-11.29-3.3-2.84-5.85-6.57-3.68-12.37a302.8,302.8,0,0,0,97.76,49.41c.54-3.26,1.26-5.46,1.21-7.66-.35-16.78-.5-33.58-1.45-50.33-.57-10.16-.66-20.71-6.71-29.66-5.7-8.41-7.11-17.75-6.81-27.57a94.81,94.81,0,0,0,.09-11c-.1-1.21-1.76-2.62-3-3.2-.51-.24-2.33,1.28-2.84,2.35a22.9,22.9,0,0,0-2.32,7c-1.75,14.94-4.47,30.13,8.86,41.93A6.13,6.13,0,0,1,211.5,331C215.31,352.14,214.21,373.43,214.24,395.91ZM388.18,422.6c.08-14.16-7-21.31-19.82-20.74-4.25.19-8.87.59-12.58,2.39-12.84,6.26-26.09,12.1-37.77,20.15-11.32,7.81-24.18,15.56-25.6,31.86a2.81,2.81,0,0,1-1.34,1.94c-1,.51-2.43,1.05-3.3.68-.68-.29-1.11-1.93-1.09-3a16.29,16.29,0,0,1,.94-4.18c6-19.61,11.6-39.34,18.1-58.77,3-8.94,2.91-16.74-3-24.19-6.11-7.66-12.15-15.38-18.42-22.92-.79-.94-2.78-.89-4.21-1.3-.32,1.5-1.13,3.1-.84,4.47a21.06,21.06,0,0,0,2.6,6.2c3.66,6.16,7.83,12,11.14,18.4,1.81,3.48,3.58,7.82,3.13,11.5A248.59,248.59,0,0,1,275,460c-1,2.06-3.43,3.88-5.63,4.82-11.07,4.71-18.95,12.8-24.75,23-2.61,4.58-.7,7.15,4.66,6.32a57,57,0,0,0,12.34-3.59c29-11.81,58.08-23.59,87-35.76a227.22,227.22,0,0,0,29-14.45C384.29,436.32,388.38,429.69,388.18,422.6ZM230.85,280.75c-10.3-2.34-11.38-1.86-9.62,7.86a278.4,278.4,0,0,0,8.38,33.25c1.55,4.91,4.87,9.43,8,13.64,2.81,3.75,7,4.19,11.9,2.25C239,319.94,229.67,302.21,230.85,280.75Zm15.55-5.61c-5.72,1.11-7.15,4.27-6.35,9.08a89.38,89.38,0,0,0,16.43,39.23c6.92,9.34,9,9.1,14.91-.91.18-.31.07-.78.11-1.43C257.46,309.2,249.66,293.62,246.4,275.14ZM278,306.22l1.82-.39c0-3.51,1.35-7.87-.23-10.38-6.56-10.41-14-20.25-22.05-31.59-.34,3.85-1.55,7.37-.76,10.37C260.21,287.27,268.37,297.3,278,306.22Zm3.81-26.54c-.37-5.31.86-10.64-1.24-13-4.53-5-10.77-8.5-15.43-12C263.59,258,270,270.6,281.82,279.68Zm-89.5-2.74c-9.43,5.83-11.57,24.08-4,31.22C189.62,298.1,191,287.48,192.32,276.94Zm79.87-39.71c-2.35,8.22,1.18,14.27,9.52,17.46C284,245.67,275.36,243.57,272.19,237.23Zm12.74-10.77c3.41-8.79-5.47-10.11-7.61-15C275.48,218.47,279.44,222.43,284.93,226.46ZM283,240c3.21-8.32-5.6-10.1-7.47-16.25C272.94,230.06,275.63,235.41,283,240Z" transform="translate(-60.07 -73.9)"/><path d="M279.25,505.43c45.48-1.34,91-2.88,136.45-3.83,7.86-.17,15.82,1.9,23.63,3.47,2,.41,4.86,2.82,4.95,4.44s-2.37,4.58-4.26,5.15c-8.38,2.55-16.86,5.08-25.5,6.47-28.7,4.64-57.22,1.92-85.68-2.82a71.38,71.38,0,0,0-34.54,3c-15.87,5.19-32.52,4.21-48.84,2.83-32.3-2.72-64.52-6-97-3.24a57.18,57.18,0,0,1-17.08-1.39c-2.58-.57-4.59-3.76-6.86-5.76,2.24-1.74,4.35-4.75,6.75-5,8.74-.89,17.62-1.65,26.35-1C198.2,510.55,238.75,510.31,279.25,505.43Z" transform="translate(-60.07 -73.9)"/><path d="M86,459c-10.72-7.16-21-35.49-17.56-49.34C74.41,426.41,80.21,442.68,86,459Z" transform="translate(-60.07 -73.9)"/><path d="M425.1,427c0-6.72.92-13.29-.25-19.47-1.27-6.76-6.47-10.64-14.12-10.73,1.41-4.36,3.8-5.86,7.55-4.28,9.75,4.1,15,25.28,8.34,33.57A5.33,5.33,0,0,1,425.1,427Z" transform="translate(-60.07 -73.9)"/><path d="M397.87,124c-.79.78-2.21,3.35-4.15,3.83-2.93.71-8.44-7.49-8.23-12.31.06-1.32,2-3.5,3.29-3.64C393.12,111.38,397.9,117.17,397.87,124Z" transform="translate(-60.07 -73.9)"/><path d="M385.32,128.3c-.82.71-2.28,2.94-4.16,3.37-3.36.78-9.15-7.68-8.52-12.48.17-1.28,1.9-3.22,3.09-3.35C380,115.37,385.5,121.88,385.32,128.3Z" transform="translate(-60.07 -73.9)"/><path d="M73.81,463.64c-11.05-3.09-15.67-9.26-13-16.58Z" transform="translate(-60.07 -73.9)"/><path d="M447.71,410.18l-4.78-14C448.84,396.63,451.53,404.11,447.71,410.18Z" transform="translate(-60.07 -73.9)"/></svg>