<svg id="Capa_1" data-name="Capa 1" xmlns="http://www.w3.org/2000/svg" viewBox="0 0 226.99 518"><defs><style>.cls-1{fill:#fff;stroke:#000;stroke-miterlimit:10;stroke-width:0.08px;}</style></defs><title>vector de eternauta</title><path class="cls-1" d="M233.67,218.59l.72,31.72,13.33,104.52,12,60.3L264,490.58l1.25,40.32L258.11,556l24.7,7.29,20.28-4.67-1.65-5.12L298.87,527l-1.2-23.91-5.62-23.62,2.19-93.16-.49-49.48,4.39,81.57s5.34,32.69,2.27,36.44,3.25,16,3.25,16l-3.89,11.59,2.71,16.11-3,9.17L302.55,527l6.2,13.08,20.06.51,4.29-6,3.78-9.89s3.32-6.09.79-21.61c0,0,.15-16.81,0-20.88s.37-11.36.37-11.36l3.13-4.19-1-13.24,0-8.39s2.41-7.17,1.93-9.58-3.39-7.65-3.39-7.65a7.72,7.72,0,0,0,1.6-6.06,32.19,32.19,0,0,1-.17-8.36l1.11-5.32,1.62-.47s.18-5.52-.13-11.07a66.07,66.07,0,0,0-1.48-10.37l1.81-17.83s5-16.16,6.07-17.73-1.57-3.13-2.38-7.5,1.5-8,.79-11.25-4.38-11.3-4.38-11.3l.39-4.79s-2.21-6.06-1.26-8.18-3.64-9.94-2.77-11.93-.85-5.17,0-7.82,2.33-12.44-4.48-16.72a79.69,79.69,0,0,1,2.5-13.9c1.78-5.64-4.4-8.39-3.12-13.62s5-12.56,5-12.56.64-12.76,1.18-17,5-8,5-8,9.07,12.06,8.25,17.1a5.31,5.31,0,0,0,3.46,6.29s.47-.43,0,7,4.3,14.79,4.78,18.87-5.57,1.45,0,10.74,7.94,9.92,8.8,15.53,1.12,5.5,0,9.3.12,8.24,1.19,12.48-4.15-.93-2.05,8-1.79,12.34,0,15.23,1.82,6.5,3.75,7.59.76,5.26,3.64.64-4.53-6.54-.78-8,4.06-5,6.16-4.88,3.93,5.35,3.75,8.52-5.49,9-4.06,9.35.78,2.81,4.42,4.2,3.25,3.42,6.66,1.33,4-4.21,7-9.19l3-5s.59-4.25,1.49-7.91,1-4.06-6-22.31c0,0-7.44-25-6.55-30.49s.06-10.84,2-13.17-.25-11-.25-11l-4.14-7.86s3.33-8.43,2.5-10.12-7.13-7.57-6.56-9.21,1.25-3.58.9-5.33,0-4.62-1-6.34-5.06-5.22-6.22-8.75-6.57-11.44-6.29-14.94-1.85-7.08-1.85-7.08a18.79,18.79,0,0,0-1.51-4.55c-1.41-3.36-4-1.91-3.78-6.51s.25-9.32-1.55-10.55-7.5-14.74-7.5-14.74l-7.74-7.83s-4.59-5.57-11.68-5a61.11,61.11,0,0,1-21.78-1.63l-7.56-2.43s-.27-2.88-.21-5.84a17.32,17.32,0,0,1,1.38-7.62c1.4-3.89,3.39-6,4.35-11.14s4.56-5,5.55-10.93S315.21,68,312.35,61.7s-3.2-9.88-7.3-10-2.95-2.05-8.53-2.87-7.06-1.15-7.06-1.15S272.82,55,270.77,57.13s-13.33,23.65-13.4,27.55,8.25,22.53,9.25,24.87,3.82,13.42,1.71,17.07-2.45,3.07-6.69,2.9a58.54,58.54,0,0,0-10.56,1l-.42-4.6,4.23-22.74s-2.41-6.65-3.87-.11-7.33,27.45-7.33,27.45-18.74,7.12-22.06,17.31c0,0-12.89,38-15.3,48.23,0,0-5.92,22-6.84,24.79s1.28,3.32-2.27,12.78-3.46,13.94-3.46,13.94-3.11,3.38-3,5.49,6.2,17.69,4.26,21.3-3.14,58.25-3.57,61.56,4.42,10.38,12.86,16.32c0,0-1.11,17.17,4.25,17.19s6.41,6,9-11.82,5.46-11.14,5.18-25.1-2.47-35.09,1.73-40.95S233.67,218.59,233.67,218.59Z" transform="translate(-189.96 -47.65)"/><path d="M271.77,256.29c.61-.35,1.43-1.15,1.82-1,3.92,1.73,7.79,3.61,11.63,5.51.35.17.46.83.68,1.27-.46.18-1,.59-1.38.51-1.35-.26-2.64-.79-4-1.06a31.31,31.31,0,0,0-3.89-.48,14.7,14.7,0,0,0-2.08.17c.57.64,1,1.55,1.73,1.85a14.22,14.22,0,0,0,3,.36c1,.18,2.55.23,2.83.82,1.33,2.82,3.12,1.58,5,.93,2.46-.87,4.41-2.27,4.33-5.11-.08-2.67,1.44-4.12,3.38-5.38,6.8-4.42,13.54-8.93,20.46-13.14a14.57,14.57,0,0,1,6.36-1.72,3.8,3.8,0,0,1,3.07,2,4.36,4.36,0,0,1-1.11,3.6,11.59,11.59,0,0,1-4,2.31c-.49.21-1.24-.18-1.88-.3a5.46,5.46,0,0,1,1-1.44,28.9,28.9,0,0,0,2.6-1.57,7.31,7.31,0,0,0,1.13-2.15c-.83-.17-1.79-.71-2.44-.46a37.81,37.81,0,0,0-6.45,3.08c-5,3.12-9.63,6.76-14.77,9.55-4.62,2.51-5.3,6.86-6.57,11.07-.05.17.88.93,1.16.84,2.94-1,5.82-2.12,8.77-3.08.67-.21,2.11-.06,2.2.22,1.26,4.29,2.2.94,3.31-.05a67.54,67.54,0,0,1,6.3-5.31,6.45,6.45,0,0,1,3.85-.81c.83.05,1.61,1,2.41,1.58a9.37,9.37,0,0,0-2.4.47c-2.59,1.24-5.15,2.57-7.67,4-.34.18-.4.87-.59,1.32a3.4,3.4,0,0,0,1.32,0c3.77-1.68,7.8-3,11.21-5.23a28.4,28.4,0,0,1,12-4.26c3.29-.47,3.6-1.27,2.11-4.33a25.94,25.94,0,0,1-2.13-5.74,8.13,8.13,0,0,1,1.6-6.74c2.76-4,4.53-8.41,2.78-13.58-.64-1.88-.26-4.11-.34-6.18,0-1.4-.91-1.85-2.06-1.49-4.93,1.5-9.83,3.07-14.73,4.66-.82.27-1.55,1-2.35,1-1.47.11-4.11.21-4.24-.26-.61-2.15,1.82-2,3-2.66s2.6-.73,3.92-1.05c.34.25.67.52,1,.75.06,0,.24-.11.36-.18l-1.51-.42c2.51-2.51,5.71-3.63,9-4.65,2.77-.85,5.43-2,8.17-3a7.39,7.39,0,0,0,4.72-5.12,49.43,49.43,0,0,0,1.84-11.1c.06-1.66-.22-2.92,1.37-3.89a3.39,3.39,0,0,0,1.45-1.43,8.52,8.52,0,0,0,.19-2.44c-.94,0-2.42-.41-2.73,0-2.16,3.07-5.78,3.64-8.7,5.38-.28.17-.88-.19-1.33-.31a2.86,2.86,0,0,1,.52-.83,10.52,10.52,0,0,1,1.75-1.07,22,22,0,0,0,2.39-.94c3.27-2,6.5-4.08,9.73-6.17a3.94,3.94,0,0,0,1.48-1.34c3-6.54,6.71-12.86,7.38-20.24a33.51,33.51,0,0,0-.38-5.63c-.13-1.54-.3-3.08-.39-4.62,0-.29.28-.59.43-.89a4.23,4.23,0,0,1,1.16.9,3.19,3.19,0,0,1,.38,1.48c.37,6.73.78,13.47-2.33,19.79-1.6,3.25-3.12,6.54-4.85,9.72-1.21,2.23-3.16,4.11-2.36,7,.13.47-.39,1.27-.82,1.71-2.82,2.88-2.6,6.53-2.7,10.11a4.59,4.59,0,0,0,.45,1.42c.51-.33,1-.62,1.51-1,.66-.52,1.27-1.09,1.9-1.64l-.11-.13c-.13.66,0,1.48-.4,1.95-2.05,2.62-.87,5.24-.12,7.84a1.63,1.63,0,0,0,2.38,1.22c.63-.26,1.2-.68,1.84-.92a4.56,4.56,0,0,1,1.29-.12,6.22,6.22,0,0,1-.75,1.58,2.76,2.76,0,0,1-1.33.76c-1.94.56-1.95,1.65-.89,3,2.15,2.8,3.74,5.77,3.2,9.49a2.29,2.29,0,0,0,.33,1.47c.37.54.9,1.23,1.45,1.31s1.26-.52,1.49-1c.49-1.07.65-2.29,1.06-3.4.15-.4.64-.68,1-1,.3.34.86.68.86,1,0,1.93.82,2.75,2.82,2.75,3.11,0,4.47,2.18,5.34,4.76.12.36-.27.88-.42,1.33a5.09,5.09,0,0,1-1.19-.74,27,27,0,0,0-2.9-3.37,3.08,3.08,0,0,0-2.77-.46c-.6.38-.57,1.77-.82,2.72l.14-.12c-.83,1.08-.86-2.92-2.31-.22-2.89,5.39-4.55,10.43.38,15.58,1,1,1.42,2.64,2.11,4a18.88,18.88,0,0,1,2.45-3.46,36.38,36.38,0,0,1,3.89-2.43c1.93-1.33,3.23-.5,4.28,1.15.22.34.08.92.1,1.38-.43-.12-1-.12-1.27-.4-1.31-1.22-2-1.08-2.36.77a1.5,1.5,0,0,1-1.32.68,1.71,1.71,0,0,0-2.56,1.62c-.11,2.28-2.46,3-3,4.56-.58,1.79.44,4.09-.09,5.92-1.57,5.54,1.43,9.24,5.07,12.2,1.49,1.21,1.26,1.29.43,2.33-.29.35-.27.94-.4,1.42.63.16,1.36.61,1.88.44,5.39-1.74,10.82-3.37,16-5.5,1.5-.61,2.39-2.73,3.53-4.18a3.56,3.56,0,0,0,.37-.87c-.45,0-1.05-.2-1.33,0-2.31,1.74-4,1.49-6.13-.73-1.41-1.5-3.82-2.05-5.77-3.06a4.9,4.9,0,0,1-.86-.73,5.06,5.06,0,0,1,1-.32c2.64-.31,4.59,1.06,6.54,2.6a5.05,5.05,0,0,0,6.08,0c1.78-1.22.45-2.36-.16-3.52a1,1,0,0,1,0-.87c2.53-2.42,1.05-4.61-.29-6.87-.19-.31.05-.88.09-1.34.59.14,1.41.08,1.72.45a5.73,5.73,0,0,1,1,2.31c.43,1.84.73,3.7,1.09,5.56.07.34.17.67.25,1a4.73,4.73,0,0,0,.66-.76c2-3.65.38-11.57-3-14.37-1.11-.91-1.86-.58-2.26.74s-.76,2.64-1.2,3.94c-.05.14-.56.18-.85.18-.11,0-.29-.22-.33-.37-.6-2,.39-6.42,2-6.93,2.14-.69,2.57-1.77,2.35-3.78a8.92,8.92,0,0,1,.54-3.51c1.4-4.51.81-8.42-2.81-11.81a6.53,6.53,0,0,1-1.79-4c-.08-1.15,1.26-2.35,1.36-3.58s-1.25-2.89-.8-3.5c1.48-2,.59-2.3-1.15-2.94-.8-.3-1.3-1.53-1.85-2.39-1.11-1.75-2.2-3.51-3.21-5.31s-2.08-3-4.09-1.67c-1.39.9-1.71-.13-2.34-.91-2.12-2.61-1.72-5.86-2-8.83-.43-4.41-.22-8.87-.34-13.31A5,5,0,0,0,371,175a10.88,10.88,0,0,0-.33,1.48c-.23,2.85-.07,5.81-2.27,8.11l.12.09a53.84,53.84,0,0,0,.22-5.67c-.14-2.2,0-4.72-1-6.48-2.37-4.06-2.71-8.49-3.38-12.88-.82-5.36-2.35-10.26-5.95-14.56-2.75-3.28-4.81-7.13-7.2-10.7a11.57,11.57,0,0,0-1.65-2c-.28-.25-.84-.2-1.26-.29a2.34,2.34,0,0,0,0,.92c1.22,2.85,2.52,5.66,3.69,8.53a4.94,4.94,0,0,1,0,1.87c-.58-.38-1.43-.64-1.69-1.18-1.11-2.32-2.13-4.71-3.05-7.12-1.44-3.76-3.66-6.11-8.12-5.5a26.49,26.49,0,0,1-5.69-.17c-.34,0-.64-.6-1-.92.37-.29.71-.8,1.11-.84,8.32-1,15.91,0,20.85,8,3.08,5,6.35,9.84,9.32,14.87a22,22,0,0,1,2.81,10.37c.21,4.35,1.46,8.5,5.22,11.38a5,5,0,0,1,1.94,4.57,19.46,19.46,0,0,0,2.53,11.43c1.17,2,1.28,4.67,2.38,6.77,1.9,3.64,4.15,7.1,6.38,10.56a6.94,6.94,0,0,0,2.57,2.45c1.54.77,1.47,1.7,1.54,3.26.11,2.66.35,5.1-1.18,7.53-.35.55.7,2.07,1.24,3.07,1.14,2.11,2.71,4.06,3.45,6.29.63,1.88,1,4.3.35,6.06a13.32,13.32,0,0,0,1.29,11.92c3.92,6.56,2.14,12.54-.87,18.64-.58,1.17-1.34,2.57-1.16,3.73,1.05,7,2.16,13.93,3.61,20.81A84.66,84.66,0,0,0,406,315c3.22,5.42,2.36,9.23-2.37,13.05.44-1.64.53-3.51,1.4-4.89a5.43,5.43,0,0,0,.14-6.14c-.51-.89-.76-1.92-1.25-2.82-2.7-5-5.42-9.9-8.2-14.81-.2-.35-.91-.41-1.38-.6l.13.16L396,296c-1.06-.33-2.12-.67-3.19-1-.14,0-.45.15-.48.1-.28-.4-.81-.95-.7-1.24.45-1.21,1.69-2.41,1.58-3.49-.43-3.92-1.26-7.81-2-11.69-.27-1.4-1-1.55-2.18-.73-4.93,3.47-9.59,7.47-15.83,8.48-1.32.22-2.06.85-1,2,1.32,1.44,1.48,2.6.79,4.57-.59,1.72,0,4,.44,5.89a2.9,2.9,0,0,0,2.07,1.8c1.55,0,3.87,1.13,4.22-2,.05-.43,2-.65,3.13-.91,0,0,.22.61.34.94-2.84-.22-.58,4.39-3.73,4-.26,0-.61.57-.92.88.33.08.67.14,1,.24.9.26,1.79.54,2.69.82a19.17,19.17,0,0,1-3,.52,26.78,26.78,0,0,1-3.05-.39c-.71-.07-1.43,0-2.14,0,.53.4,1,1,1.6,1.15,1.84.43,3.73.6,5.56,1a17.6,17.6,0,0,1,3.24,1.21c.22.1.46.75.37.85a1.64,1.64,0,0,1-1,.53c-.68,0-1.37-.24-2-.18-1,.1-2,.38-3,.57a27.87,27.87,0,0,0,2.79,2.1c.31.19,1.05-.37,1.39-.2,1.58.8,3.09,1.73,4.62,2.63a.76.76,0,0,1,.2.44c-.27.15-.65.45-.82.36-.6-.31-1.08-1-1.7-1.1a3.53,3.53,0,0,0-2.23.2c-.29.15-.31,1.18-.19,1.76.32,1.67.74,3.33,1.21,5,.1.35.57.59.86.88a3.74,3.74,0,0,0,.62-1.25c.08-1.28,0-2.57,0-3.86.89.78,1.74,1.62,2.69,2.32,3.06,2.25,2.21,5,1,7.77v.95c-.19,2.08,2,4.26-.32,6.29-.22.19,0,1.44.38,1.69,1.83,1.24,2,3,2.11,5,0,.43,1.25,1.22,1.73,1.09a4.9,4.9,0,0,0,2.5-1.63c.22-.28-.74-1.33-.88-2.08-.27-1.5-.35-3-.51-4.56-.17-1.68,0-3.48-.61-5a5.61,5.61,0,0,1,1-5.77,8,8,0,0,0,1.13-2.51,12,12,0,0,0,.23-2.17,10.71,10.71,0,0,1,1.06,1.73c.58,1.52.84,2.93-.85,4.12a3,3,0,0,0-.62,2.32c.3,3.24.61,6.5,1.21,9.7.19,1,1.22,2.47,2,2.59,1.49.21,1.76-1.34,1.69-2.57-.1-2.06-.36-4.12-.5-6.18-.15-2.22-.29-4.45-.31-6.67a4.32,4.32,0,0,1,.72-1.9c.11-.19.54-.23.84-.26.08,0,.28.28.27.41-.11,1.19-.37,2.37-.37,3.55,0,1.67.47,3.07,2.6,2.89a65,65,0,0,0-.36,6.67,6.42,6.42,0,0,1-2.51,5.93,72.42,72.42,0,0,1-7.34,4.75c-.77.44-2,.14-3,.06-1.52-.12-3-.48-4.56-.49-2.09,0-3.74-.64-4.69-2.57-.83-1.67-.16-3.95,1.55-5.63.12-.12.24-.29.39-.34,4.86-1.48,3.48-5.12,2.85-8.43a6,6,0,0,0-1.13-2.27c-.86-1.19-2-2-3.54-1.29a2.91,2.91,0,0,0-1.6,3.47,33.57,33.57,0,0,1,.88,5.05,4.59,4.59,0,0,1-3.29,4.75c-2.33.86-4.77.15-5.63-2.15-1.7-4.61-4.26-9-2.55-14.4a12.77,12.77,0,0,0-.06-7.17,11.85,11.85,0,0,1,1.05-9,7.82,7.82,0,0,0,.45-5.45,76.39,76.39,0,0,1-1.78-16.32,8.15,8.15,0,0,0-2.25-6c-1.84-2-2.62-5-3.82-7.52a55.65,55.65,0,0,1-2.27-5.2,4.67,4.67,0,0,1-.3-3c1.32-3.1.34-6,0-9.09s-1-6-3.34-8.42c-3-3.18-2.4-7-.83-10.67.69-1.61,1.4-2.79-1.12-3.35-1.85-.41-2.23-2-2-3.7.54-3.52-1-6.31-2.77-9.17-1.54-2.46-2.58-5.22-3.93-7.8-.62-1.19-1.05-1.11-2.1,0a10.33,10.33,0,0,0-2.89,8.44c.2,2.23-.11,4.51.06,6.74.46,5.86-.39,11.27-3.82,16.28-2.24,3.28-.85,6.59,1.14,9.6,2.59,3.91,2.34,6.21-.31,10.2a10.08,10.08,0,0,0,0,11.19c2.12,3.25,2.27,6.33,2.12,9.81s-.07,7.22-.15,10.82a13.84,13.84,0,0,0,2.28,8.29,7,7,0,0,1,.68,4.92,6.73,6.73,0,0,0,.71,4.76,20.82,20.82,0,0,1,1.45,6.45c.26,2.39.14,4.82.2,7.24-1.11-.62-2.25-1-3,.4-.43.8-1.05,2.16-.71,2.6,2.53,3.28,3.41,7,3.63,11a2.63,2.63,0,0,0,.4.83,3.38,3.38,0,0,0,.68-.74,11.53,11.53,0,0,0,.2-9.4c-.59-1.57-.92-3.24-1.36-4.86,5.25,4.72,4.06,10.44,2.38,16.15-.52,1.79-1.44,3.31-.72,5.4a6.4,6.4,0,0,0,3.06,3.74,2.39,2.39,0,0,1,.07,4.27c-3.47,1.9-2.87,6.1-5.39,8.44a2.33,2.33,0,0,0-.16,2c1.73,4.93.4,9.79,0,14.72-.34,4.31-.63,8.48-2.3,12.56-.63,1.56,0,3.71.32,5.55.36,2.36,1.13,4.66,1.34,7,.18,2,.19,4.33-2.83,4.52a14.82,14.82,0,0,0-.07-11.56c-.74-1.89-1.43-3.81-2-5.76-.13-.43.21-1.06.44-1.54.52-1,1.16-2,1.66-3.05,1.66-3.43,1-7.11,1.15-10.71a47.13,47.13,0,0,1,.66-7.12c.72-3.82-.59-6.4-4.42-8.11a6,6,0,0,1-1.29-1.14c.52-.37,1-1,1.56-1.06,2.55-.13,2.57-1.44,2.18-3.51a18.83,18.83,0,0,1-.16-6,46.68,46.68,0,0,1,1.78-7.52c1.45-4.66,1-8.89-2.56-12.44-1.56-1.58-3.41-2.87-5.06-4.37a6,6,0,0,1-.91-1.66,7.6,7.6,0,0,1,2.25-.6c.63,0,1.23.6,1.85.89,2.53,1.14,4.66.42,4.88-2.22.27-3.15,1.2-6.57-1.25-9.46a5.31,5.31,0,0,1-1-5.78,4.16,4.16,0,0,0-.27-3,18.93,18.93,0,0,0-2.43-3.13c-.91,1.38-1.87,2.72-2.66,4.16-.14.24.67.9.62,1.32s-.93,1-1,1c-4.29-3.19-8.76-2.16-13.32-.76a15.9,15.9,0,0,1-4.1.33c-.29,0-.6-.28-.9-.43.16-.27.26-.67.5-.78a10.27,10.27,0,0,1,2.88-1.07c3.76-.42,7.54-.77,11.31-1,2.48-.15,3.2-.48,3.33-2.86a6.46,6.46,0,0,0-.93-3.75c-2-3.05-2-4.11.48-6.48.86-.82,2.32-1.51,2.49-2.45a79.37,79.37,0,0,0,1-10.21,1.89,1.89,0,0,0-2.31-2.12c-.43.07-.76.79-1.14,1.22,2.17,1.21-.2,3.67,1.39,5.09.17.15-.16.87-.25,1.33-.45-.21-1.15-.31-1.31-.65a24.25,24.25,0,0,1-1.7-4.7c-.17-.81-.21-1.27-1.1-1.17-4.87.57-9.48,1.89-13.31,5.11a3.7,3.7,0,0,0-1.3,2.55c.15,3.36-2.1,4.86-4.51,6.21-.64.36-2.11.5-2.32.17-.91-1.4.67-1.46,1.39-2,.42-.3,1-.49,1.25-.89.5-.78,1.36-1.93,1.1-2.47-.55-1.14-1.76-1.36-3.1-.75-2.35,1.08-4.78,2-7.18,2.95-1.19.49-.93,1-.09,1.68.25.21.14.87.19,1.32-.6-.06-1.61.07-1.75-.21-1.62-3.35-4.21-2.2-6.64-1.46a27.73,27.73,0,0,0-2.71,1.39c-.93.4-2.06,1.13-2.86.9-3.67-1.05-5,1.09-5.84,3.95-.55,1.81-1.06,3.63-1.59,5.44-.82,2.76-2.3,3.68-5.05,2.88-1.48-.44-2.82-1.33-4.29-1.79-2.33-.74-3.16-.07-2.79,2.45.19,1.29.54,2.68-.77,3.13-1.14.4-2.58,0-3.87-.17-.43-.06-.86-.57-1.17-1-2.81-3.56-6.66-4-10.78-3.71-3.3.25-4.64,1.31-4.35,4.41a98.88,98.88,0,0,0,2.09,12.17c.22,1,1.48,2.64,2.13,2.58,3.66-.33,3.31,2.72,3.71,4.52.59,2.64,0,5.57,2.59,7.54.12.09,0,.66-.13.83s-.76.44-.9.33c-.89-.71-2.08-1.37-2.45-2.32a19.61,19.61,0,0,1-1.16-5.53c-.14-2-.74-3.3-2.8-3.76a15.43,15.43,0,0,1-2.38-.93c-.74-4.39-1.47-8.77-2.23-13.15a5.21,5.21,0,0,0-.67-1.94,6.69,6.69,0,0,0-1.43-1.25c-.31.38-.78.72-.9,1.15-1.18,4.08-2,8.07,2,11.31a31.27,31.27,0,0,1,3.4,3.76c.26.81.51,1.62.79,2.42.67,1.94,1.41,3.86,2,5.83.1.34-.43.87-.67,1.31-.42-.29-1.09-.5-1.22-.89-1-2.95-1.78-6-4.19-8.17a7.53,7.53,0,0,0-1.63-.89,4.16,4.16,0,0,0-.19,1.49c2.22,8,.62,17,6.06,24.23.69.92.72,2.3,1.2,3.39,3,6.67,1.51,13.95,2.85,20.84a1,1,0,0,1-.46.8,1,1,0,0,1-.86-.44,9.44,9.44,0,0,1-.76-3.42c.56-5.28-.88-10.25-2.27-15.21a39.25,39.25,0,0,0-2.42-5.64,5.26,5.26,0,0,0-1-1.15,7.11,7.11,0,0,0-.2,1.51c.2,2.73.8,5.49.58,8.19a5.71,5.71,0,0,0,.95,4.3,12,12,0,0,1,2.38,8.26,8.2,8.2,0,0,0,1.93,6.25c1.52,1.69,1.17,3.34.31,5.24-1.58,3.51-1.39,4.34,1.66,6.41,1.52,1,2.78,1.92,2.68,4-.1,1.8.68,1.7,2.24,1.24,2.17-.63,3.49.19,3.5,2.37,0,2.36,1.25,3.75,2.39,5.48a22,22,0,0,1,3,6.47c.55,2.12.28,4.45.37,6.68l5.44-4.46c.93-.76,1.9-1.48,2.78-2.3a12.06,12.06,0,0,0,1.25-1.58c-.64-.13-1.28-.28-1.93-.37-1.08-.15-2.35-.37-1.33-1.77.62-.85,1.65-.88-.19-1.6a37.86,37.86,0,0,1-7.13-4c-.68-.44-.82-1.67-1.21-2.55a12.85,12.85,0,0,1,2.57.72c2.29,1.15,4.44,2.59,6.79,3.58,1.34.56,2.8.22,2.87-1.8,2.44,0,3.31-2.2,4.82-3.49.17-.15.09-.58.13-.89-.27,0-.66-.07-.8.08-1.36,1.45-2.69,3-4,4.43-2.59-1.36-2.84-1.91-1.52-3.53a9.57,9.57,0,0,1,1.51-1.4c1.18-.94,1.9-1.67.6-3.31-1.56-2-1-4.31.3-6.28a19.28,19.28,0,0,1,3.66-4.32c5.72-4.63,7.65-10.86,7.66-17.85,0-1.88,1.21-4.08-.84-5.71-1.63,1.18-3.27,2.35-4.88,3.56-.26.2-.36.59-.58.85-2.42,2.91-4.81,5.85-7.31,8.69-.47.54-1.41.67-2.13,1a6,6,0,0,1,.51-2.05,49.77,49.77,0,0,1,3.27-4c2.49-2.85,4.92-5.78,7.57-8.49,1.89-1.93,1.32-4,.32-5.7-1.1-1.91-2,.82-3.19.61l-1.45-.24a5.24,5.24,0,0,1,.53-1.26,9.65,9.65,0,0,1,1.26-1.21,8.85,8.85,0,0,0-1.53-.09c-.85.12-1.68.41-2.53.52-2.4.31-4.77.45-6.42-1.86l-.1.12c4.27-.41,8.54-.77,12.8-1.31a2.39,2.39,0,0,0,1.62-1.52,41,41,0,0,0,.49-5c-1.62.29-3.24.56-4.85.89a10.29,10.29,0,0,0-1.42.61c-6.36,2.43-12.07,0-14.75-6.2-.75-1.72-1.8-3.32-2.69-5-1.71-3.19-3.42-6.37-5.09-9.58a6.49,6.49,0,0,1-.61-1.93,1,1,0,0,1,.39-.87c.18-.11.68.06.86.26a9.58,9.58,0,0,1,1.57,2c2.7,5.32,5.26,10.71,8.07,16a8.79,8.79,0,0,0,3.35,3.16c1.06.6,2.51.51,3.79.72-.47-1-.94-2.08-1.42-3.12-.07-.15-.23-.27-.27-.43-.4-1.34-2.58-2.09-1.34-4a39,39,0,0,1,3.37,3c.66.76.89,1.88,1.49,2.7.37.5,1.1,1.1,1.62,1.06,3.25-.28,6.64-.57,8.8-3.45a60.55,60.55,0,0,0,6-9,41.54,41.54,0,0,1,11.9-14.11c1.2-.94,2.36-2,3.61-2.82a1.43,1.43,0,0,1,1.32.28,1.3,1.3,0,0,1,0,1.28c-.86.82-1.89,1.46-2.81,2.22-5.45,4.53-10.47,9.41-12.89,16.34l-1,2.16c-1.21,1.34-2.94,2.47-3.52,4-1.77,4.77-3.13,9.69-2.65,14.9.28,3.06.26,3.06,4.07,3.73l.22,1.39.48-.33-.82-.95c-1.68-4.69-.56-9.37.15-14,.46-3,1.27-5.93,1.93-8.89l1-2.17c1.4-.3,3.1-.66,2,1.68a23.82,23.82,0,0,0-1.9,11.94,4.05,4.05,0,0,0-.78,1.17c-.08.35.2.79.32,1.19a6.49,6.49,0,0,0,.26-1c.06-.5.05-1,.06-1.51,1-1.52,2-3.07,3.05-4.53.23-.31.88-.31,1.34-.45a3.58,3.58,0,0,1,.25,1.32c-.39,1.63-.88,3.24-1.34,4.85a1.79,1.79,0,0,0-.41.13c-.07.05-.09.18-.13.28l.41-.54c.27.19.79.41.77.58-.35,3.78.3,7.68-1.38,11.32a24.82,24.82,0,0,0-1.49,4.35c-.33,1.29-.42,2.65-.62,4,.63-1.28,1.27-2.57,1.88-3.86.23-.47.35-1,.61-1.43a8,8,0,0,1,.93-1,4.17,4.17,0,0,1,.38,1.44c-.47,4.49-2.59,8.68-2.42,13.29,0,.19-.51.4-.78.6l-.21-1.39-.49.26.84,1a11.19,11.19,0,0,0,.53,1.95,9.94,9.94,0,0,0,1.14,1.57,12.62,12.62,0,0,0,1.36-1.48c1.14-1.69,1.69-3.37-.45-4.77,1.47-2.44,1.3-5.82,4.06-7.49.9-.55,2.75-1.15,3.07-.78,1.51,1.74-.82,1.55-1.44,2.26a19.68,19.68,0,0,0-1.42,1.48,4.15,4.15,0,0,0-.38,1.35,6,6,0,0,0,1.14-.46c1-.68,1.63-2.41,3.21-1.21a23,23,0,0,1-1.63,2.72c-.19.29-.42.54-.62.82-2.78,4-5.13,8-2.47,13,.36.69.11,1.7.15,2.55a2.24,2.24,0,0,0-.39.14c-.06,0-.06.17-.09.26l.34-.53c2.14-2.8,4.26-5.62,6.48-8.37.26-.32,1.09-.2,1.65-.29-.09.61,0,1.37-.32,1.79-1.05,1.34-2.32,2.51-3.39,3.83-.34.42-.31,1.14-.46,1.72a7.83,7.83,0,0,1,1.44-.11,12.07,12.07,0,0,1,1.67.44c-.4.47-.7,1.16-1.2,1.37a11.4,11.4,0,0,0-6.87,7.17c-.13.39-.71.63-1.09.93-.06-1.19,0-3.38-.22-3.42-2.75-.44-1.84-2.05-1.43-3.61a8.66,8.66,0,0,0,.28-2.53c0-.45-.5-1.25-.72-1.23a2.17,2.17,0,0,0-1.57.76c-2.53,4.93-1.68,10-.66,15.13,0,.24.48.41.74.61.18-.29.36-.58.55-.87l3.21-5c.44,2.49-2.05,4.79-.28,7.47.69,1.06.72,2.19,2.44,1.49.62-.25,1.53.23,2.31.38-.42.54-.82,1.1-1.27,1.62a19.49,19.49,0,0,0-1.41,1.47,4.48,4.48,0,0,0-.39,1.36,5.53,5.53,0,0,0,1.24-.34,27.91,27.91,0,0,1,3.11-1.81c1.86-.73,2.43.42,2.51,2-3.72-.33-4,2.36-4.33,5-.19,1.5-.33,3-.49,4.51.64-1.23,1.29-2.45,1.9-3.7.95-2,1.87-3.93,2.8-5.9,2.9.39,2.85.37,1.94,2.23a49.49,49.49,0,0,0-3.21,7A40,40,0,0,0,307.5,420a3.74,3.74,0,0,0,1.25,3c1.37.77,2.1-.7,2.6-1.76a41,41,0,0,0,1.91-4.78c.79-2.46,1.35-5,2.22-7.42.3-.84,1.37-2.16,1.82-2.05,1.61.36.52,1.7.33,2.5-.75,3.17-1.83,6.28-2.52,9.46a24,24,0,0,0-.31,5.62c0,.48.86.94,1.32,1.41.44-.47,1.17-.87,1.28-1.41.79-3.87,1.45-7.77,2.16-11.65a40.23,40.23,0,0,1,1-5.05c.19-.62,1.15-1,1.76-1.5a6.72,6.72,0,0,1,.45,1.9c0,.66-.54,1.29-.61,2-.49,4.62-1,9.24-1.33,13.87-.05.66.65,1.38,1,2.07a17.13,17.13,0,0,0,1.86-2.05c.25-.37.12-1,.15-1.52.25-4.3.46-8.6.77-12.9.12-1.59-.91-3.6,1.11-4.62,1.2-.6,1.43,1.5,1,5.36a117,117,0,0,0-.67,11.85c0,.86.77,1.74,1.19,2.61a13.6,13.6,0,0,0,2-2,7.64,7.64,0,0,0,.84-2.42c1-4.53,2.14-9,2.83-13.62.34-2.22,1.11-4.71-1.17-6.75-.88-.79.26-1.58,1.13-1.49s1.95.88,2.93.9c2.66.05,3.76,1.36,3.69,3.88a5.23,5.23,0,0,0,2.06,4.52c-.34,4.61-.44,9.25-1.1,13.82a16.76,16.76,0,0,0,.48,8.27,25.32,25.32,0,0,1,.95,14.74,19.68,19.68,0,0,0-.27,4.62,16.19,16.19,0,0,1,.14,2.58c-1,4.88-1.71,9.7-.5,14.71a5.53,5.53,0,0,1-1.43,4.23c-4,4.44-2,8.91-.38,13.38.29.79,1.16,1.45.08,2-1.74.94-1.65,2.33-1.52,4a11.46,11.46,0,0,1-.31,4.09c-1.3,4.46-.22,8.58,1.72,12.49a14.17,14.17,0,0,1,1.39,10c-1.08,4.64-1.43,9.51-4.8,13.32a2.27,2.27,0,0,0-.49,1.42c.14,4.74-3.25,6.91-6.62,9a49.92,49.92,0,0,1-5.1,2.46,2.45,2.45,0,0,0-.25-.93,5.59,5.59,0,0,0-1-.89l-.56.66a8.44,8.44,0,0,0,1,.81,3.21,3.21,0,0,0,.95.19c.08,1.23,1.94,3.32-1.62,2.63-2-.39-3.95.24-5.81-1.67-1.27-1.29-3.75-1.6-5.76-1.92-4-.64-6.74-2.43-7.5-6.62-.28-1.54-.59-3.07-2.34-3.69l-1-2.16c0-.82,0-1.64-.07-2.45a6.48,6.48,0,0,0-.44-1.33c-.17.45-.57,1-.46,1.33A14.14,14.14,0,0,0,300,529.3c.33.72.66,1.44,1,2.16-.16,1.87.14,3.93-.56,5.56-1.21,2.78-.5,4.89.87,7.29,1.44,2.55,2.62,4.69,6.24,3.67,1.45-.41,3.24.33,4.87.61.29.06.8.53.76.63-.79,1.94.43,3.26,1.27,4.76.23.39,0,1.48-.28,1.62a11.12,11.12,0,0,1-2.84.68c-.05,0-.33-.64-.24-.72,1.19-1.15,1.39-2,0-3.36a3.87,3.87,0,0,0-4.25-1c-1.32.56-2.33,1.93-3.37,3a1.35,1.35,0,0,0,.24,1.26c3.34,1.78,1.72,2.1-.58,3.13-1.94.87-3.57,2.65-5.06,4.28-1.17,1.29-2.2,1.94-4,1.53a6.41,6.41,0,0,0-3.49.31c-2.58,1-6,.44-7.72-1.45-1.62-1.73-2.8-1.64-3,.54-.14,1.89-.77,1.84-2.13,1.77a6.62,6.62,0,0,1-5-2c-1-1-3.51-.51-3.17-3.13,0-.15-.59-.59-.72-.53a3,3,0,0,0-1.06.92,1.49,1.49,0,0,0-.2,1c.18,1.13.44,2.25.68,3.37-1.47-.59-3.44-.77-4.29-1.84-1.73-2.17-2.05-1.36-3.42.34-.73.93-3.12.57-4.77.69a2.55,2.55,0,0,1-.42-1.14c2.87-1.67.5-2.53-.53-3.6-.25-.24-.43-.58-.72-.74-2.27-1.26-2.93-2.81-1.08-5,1.45-1.7-.38-1.93-1.25-2.41-1.12-.63-2.44-.86-2.92.74-.38,1.29-.26,2.72-.58,4a6.41,6.41,0,0,1-1.21,1.85c-.7-.6-2-1.26-2-1.8.2-2.29-.72-5,1.82-6.66.63-.42,1.49-1.09,0-1.81-.58-.28-.94-1-1.41-1.57.66-.14,1.32-.32,2-.4a2.43,2.43,0,0,1,1,.23c2.23.85,4.62,2.59,6.87,1,3.38-2.33,6.71-4.94,8.25-9a4.05,4.05,0,0,0,0-2.91c-3.05-6.39-2.21-12.84-.21-19.2,1.14-3.65,1-6.56-2.18-9.17-3.8-3.12-4.38-7.75-4.7-12.23-.39-5.3-.3-10.64-.45-16a3.82,3.82,0,0,0-.33-2c-3.27-4.46-2.46-9.52-2.2-14.49.13-2.58.4-5.16.68-7.73a7.05,7.05,0,0,1,.65-2.95c1.87-2.85,1.56-6,1.37-9.06-.32-5.14-1.46-10.23-.59-15.46.18-1.07-.79-2.74-1.74-3.51-3.68-3-3.75-6.32-1.57-10.1a5,5,0,0,0,.37-4.42c-1.92-5.68-3.61-11.44-5.38-17.17a4.31,4.31,0,0,1-.45-2c1.54-6.46-2.42-11.65-4-17.33a77.53,77.53,0,0,1-3.17-24.54c.17-4.49.12-9,0-13.48a20.13,20.13,0,0,0-.79-4c-.07-.31-.39-.55-.6-.82a6.17,6.17,0,0,0-.65,1c-1.42,3.7-2.77,7.43-4.23,11.11a6.48,6.48,0,0,1-1.62,2.59,3.51,3.51,0,0,1-2.68.89,3,3,0,0,1-1.8-2.18c0-3.61-.19-7.32.54-10.82a107.43,107.43,0,0,0,1.55-13.82c.92-11.53,2.05-23.05,3.12-34.57a3.58,3.58,0,0,1,.32-1.51c2.45-4.2,2.64-8.83,3-13.52.15-2,.2-3.56-1-5.31-2.37-3.6-2.12-5.43.63-8.75.44-.53,1.07-1,1.28-1.59a2.11,2.11,0,0,0-.19-1.8,4.67,4.67,0,0,0-2.18-1.19c-.19-.05-.87.91-1,1.47-1.06,6.46-2.15,12.92-3,19.41s-1.51,13-2.32,19.54q-1.41,11.29-2.93,22.58c-.66,5-1.28,9.93-2.12,14.86a14.91,14.91,0,0,0,.33,7.62c1.33,3.82,1.25,7.32-1.73,10.58-1.06,1.15-1.43,3.12-1.67,4.78-.89,6.32-1.6,12.66-2.39,19s-4.16,8.25-10.1,5.51c-3.93-1.81-4.21-2.44-3.76-6.79.32-3.09.38-6.2.67-9.3a5.16,5.16,0,0,0-2.48-5.29,1.91,1.91,0,0,0-.44-.28c-2.76-1-2-4.33-3.77-5.89s-4-2.28-5.18-4a11,11,0,0,1-1.6-6.32c.34-6.71-.8-13.48.86-20.15a12.49,12.49,0,0,0,.1-5.67c-.7-3,0-5.82.42-8.67a68.5,68.5,0,0,0,.19-20.86,9.08,9.08,0,0,1,.62-4.45,13.93,13.93,0,0,0,.31-8.59c-1-4.69-1.7-9.46-2.53-14.2l-.11.08c.16,0,.44.08.47.17,1.9,6.71,4.4,13.3,3.74,20.49a14.25,14.25,0,0,0,.65,3.7c1.12-1.22,2.59-2.28,3.24-3.71.51-1.12,0-2.71-.06-4.08a89.7,89.7,0,0,1-.58-9.24,45.9,45.9,0,0,1,1.41-8.08,1.31,1.31,0,0,1,2.57.45,14.42,14.42,0,0,1-.85,4.5c-1.56,3.66-1.1,7.46-.94,11.21,0,1,1,2,1.63,3,.69,1.15,1.21,1.15,2.31.14,1.68-1.56,3.75-1.26,5.61,0,.71.47,1.24,1.2,1.93,1.71,3.94,2.87,6.87,1.6,7.72-3.33.06-.34,0-.69.07-1q.59-7.44,1.19-14.9l1-2.17c.29-.27.58-.54.85-.83,0,0-.23-.25-.35-.38l-.35,1.34-1,2.17c-.71-.41-2.07-.9-2-1.2.43-3.15-2.33-5.34-2-8.84a14.3,14.3,0,0,0-4.41-11.19,1.44,1.44,0,0,1-.26-1.33,1.5,1.5,0,0,1,1.33-.5,7.14,7.14,0,0,1,2.85,1.74,62,62,0,0,1,3.44,5.59c0,2.55,0,5.11,0,7.66a3.17,3.17,0,0,0,.3,1c.19-.16.52-.3.56-.49a59.85,59.85,0,0,0,1.14-6.46c.12-1.24-.9-1.71-2.11-1.54,0-1.21.08-2.42,0-3.63-.14-3.33-.16-3.33-3.29-4.15-6.37-1.68-6.25-1.65-7.92,5-.94,3.69-1,8-5.53,9.8-.33.13-.37.92-.63,1.36a15.13,15.13,0,0,1-1,1.34c-.3-.61-.87-1.23-.83-1.81.12-1.69,0-3.84,2-4.43a4.4,4.4,0,0,0,3.27-4.09,21.31,21.31,0,0,0,.11-6.12c-.31-1.84-1.75-1-2.84-.49.08-1.41.19-3,2.16-2.55,1.66.35,2.14-.14,2.05-1.72s-.32-3.34,2.28-2.6c.19.06.71-.3.7-.43-.21-1.9.54-4.19-2-5.21,1.53-5.34,2.56-10.74,2.05-16.34,0-.39.78-.86,1.2-1.29l-.13-.11a4.3,4.3,0,0,0,4.84,2.09c3.61-.71,4.43,1,5.5,4,.68,1.94.92,4,1.53,6a6.49,6.49,0,0,0,1.41,1.87c.63-.57,1.52-1,1.86-1.73,1.41-2.94,2.72-5.94,4-9a18.77,18.77,0,0,0,1.71-5.32c.51-6.87.91-13.76,1.05-20.65.08-3.9-.22-3.9-4.12-3.46-1.44.16-3.59,1-3.91-1.11-.25-1.68,1.9-1.48,3.15-1.89a2.53,2.53,0,0,0,1-4.35c-.6-.56-1.65-.64-2.23-1.21-.82-.8-2.13-2.48-2-2.69,1.33-1.58,1.65.72,2.63.92.33.07.67.48.92.41a3.33,3.33,0,0,0,1.28-.72,25,25,0,0,0-2.21-5.11,2.78,2.78,0,0,0-3.71-.83c-.22.1-.74-.42-1.12-.66.3-.39.53-1,.91-1.14,1.74-.5,3.45-.45,4.8,1,.91,1,1.73,2,2.59,3a6.18,6.18,0,0,0,0,1.42,3.26,3.26,0,0,0,.55,1,3.55,3.55,0,0,0,.21-1.33c-.1-.37-.54-.65-.83-1,1.42-7.51,1.21-15.09.79-22.67,0-.17,0-.43-.14-.49-.64-.34-1.38-1-1.93-.88-2.95.66-4.71,2.84-5.83,5.44-3.47,8.06-6.89,16.15-10.13,24.3a9.72,9.72,0,0,0-.29,5.11c.15.76,1.85,1.11,2.56,1.92a15.26,15.26,0,0,1,1.7,3c.18.34.31.72.46,1.08.13-.32.27-.63.37-1,1.05-3.56,3-6.92,2.2-10.9a4.57,4.57,0,0,1,1-2.74,15.1,15.1,0,0,1,2-2.16c1.15,1.23-.33,2-.52,3-.15.8-.19,1.62-.28,2.43a28.23,28.23,0,0,1-.68,5.48c-.8,2.46-1.75,4.8-1.51,7.5.08.86-.49,2.37-1.12,2.59-2.86,1-3,3.47-3.6,5.78-.5,2-1,4-1.58,6-.1.34-.77.83-1,.75-.41-.18-1-.74-1-1a31.76,31.76,0,0,1,1.29-5.47,23.64,23.64,0,0,0,1.55-10.14,6.5,6.5,0,0,0-1.06-2.1c-.57.54-1.55,1-1.66,1.63-1.23,7.18-6.46,13-6.83,20.48-3.62,7.09-2.73,15.13-4.7,22.57a2.5,2.5,0,0,0,.14,1,8.68,8.68,0,0,0,.91-.8c.22-.25.28-.67.53-.88,1-.86.26-3.31,2.62-3-.26,1.26-.56,2.5-.77,3.76a3.1,3.1,0,0,0,.24,1.13l1.39-.61a6,6,0,0,1-.51,1.95c-1.28,1.87-2.15,4.7-5.47,2.62-.26-.17-1.82.92-2,1.66-.9,2.76-1.53,5.61-2.19,8.45a4.17,4.17,0,0,0,.24,1.48,5.45,5.45,0,0,0,1.18-.93c1.55-2,2.71-4.47,5.67-4.81a8.54,8.54,0,0,1-.89,1.82c-3.25,3.89-6.75,7.6-8.71,12.41-.08.2-.59.23-.9.33l.1.08a56.72,56.72,0,0,0,1-9.58c.19-3.83,1.8-7.7,3.31-11.34a49.83,49.83,0,0,0,4.1-17,24,24,0,0,1,1.3-6.06c2.15-6.72,4.66-13.34,6.55-20.13,1.47-5.28,2.21-10.76,3.3-16.15,1.74-8.54,5.63-16.28,9.14-24.14a12.22,12.22,0,0,1,4.09-4.53c4.32-3.12,8.65-6.31,14.19-7.09a3.28,3.28,0,0,0,3-3.06c1-5.57,2.32-11.08,3.47-16.63.59-2.87,1-5.77,1.64-8.64s2.19-4.29,4.94-4.16c2.59.11,4.29,1.78,4.12,4.92a72.7,72.7,0,0,1-1.53,9.68q-1.42,7.36-3,14.7c-.31,1.45.43,2.14,1.55,1.87a12.36,12.36,0,0,0,4.57-2c1.85-1.45,3.48-2.89,6-1.63,1.29.64,2-.13,2.36-1.17a14.71,14.71,0,0,0,.95-4c.17-3.33-2.16-6.59-.33-10-1.81-3.86-3-8.18-5.57-11.5-5.73-7.54-6.58-16.35-1.81-24.52,2.77-4.75,5.1-9.76,7.61-14.66a11.89,11.89,0,0,1,.86-1.88,24.75,24.75,0,0,1,2-2.19,24.88,24.88,0,0,1,2,2.74,8.14,8.14,0,0,1,.32,2c.37,1.64,1.29,2.36,3,1.71a31.6,31.6,0,0,1,4.4-1.48c1.75-.37,3.41-.65,3.93-2.74.05-.19.48-.28.73-.42,1,3.73,4,1.36,6.06,1.84.58.13,1.35-.58,2-.9a11.79,11.79,0,0,0-2-2c-.53-.31-1.36-.06-2-.15s-1.48-.33-2.23-.5a12.67,12.67,0,0,1,2-.32c2.55,0,5.39-.63,6,3.15.07.42,1,.79,1.63,1,2.93,1,5.88,1.92,8.85,2.77.26.07.73-.61,1.11-.93-1-.75,1.24-2.91-1.32-3.09-.19,0-.6-1.21-.41-1.43,1.9-2.24.54-4.57.3-6.85l-.1.12c3.6,1.75,5.52,4.66,6.79,8.47a125.09,125.09,0,0,0,7,17.14c3.58,7.1,3.63,14.73-2,21.3a13.19,13.19,0,0,0-3.33,8.43c-.1,2.38-.38,4.57-2.06,6.71-2.06,2.62-1.24,5.92-.1,8.86a2.4,2.4,0,0,0,2,1.17c2.29-.52,3.95.73,5.86,1.48a29.1,29.1,0,0,0,5.94,1.44c1.35.23,2.76,0,4.12.2.56.08,1,.74,1.54,1.13a8.06,8.06,0,0,1-1.64.75c-2.55.56-5.49-1.55-7.76,1.1L320,128.34a13.81,13.81,0,0,1-.17,2c-.38,1.83-.84,3.63-1.27,5.45l.13-.11c-.34-.48-1.07-1.21-.95-1.4,1.45-2.23.23-4.3-.2-6.44s-2.05-2.52-3.9-2.27c-2.54.33-4.31,1.74-4.24,3.59a32.54,32.54,0,0,0,.84,7.12c.48,1.77-2.06,3.44.31,5.37.95.78.52,3.25.72,4.95,0,.33.26.74.13,1-.88,1.82-1.82,3.61-2.8,5.38a1.61,1.61,0,0,1-.84-.17c0-1.93-.06-3.86,0-5.78a12.17,12.17,0,0,1,.4-2l.86-1-.48-.35-.24,1.49c-1.4,1.88-2.77,3.78-4.23,5.62-.2.24-.87.14-1.32.11a1.25,1.25,0,0,1-.08-.84c1.16-2.28,2.41-4.52,3.56-6.81a13.11,13.11,0,0,0,1-10.48c-.25-.71-.78-1.83-1.23-1.86-1.08-.06-2.68.06-3.2.75a21.2,21.2,0,0,0-2.81,5.48,4.23,4.23,0,0,1-3.22,3c-5,1.27-9.91,2.59-15.21,1.27-2.44-.6-5.12-.23-7.7-.25-.21,0-.58.41-.59.65a1,1,0,0,0,.47.77c7,1.88,14,3.5,21.29,1.47,3-.84,4.76-3.26,6.57-5.56.44-.57.56-2,1.65-.88a2.39,2.39,0,0,1,.23,2.23,11.11,11.11,0,0,1-2.5,2.58c-4.13,3.5-8.74,5.12-14.27,4.15-4.22-.73-8.53-.94-12.8-1.38l-1.07-.82-.25.49,1.45.18c5.54,4.18,11.62,4.88,18.15,2.89a12,12,0,0,1,2.27-.25l-1.54,2.25a2.53,2.53,0,0,0-.19.48l-3.18,1-9.08-1.18c-1.31-.17-2.61-.37-3.92-.55,1.21.71,2.33,1.74,3.64,2.08,3.08.81,6.24,1.08,9.24-.49,1.15,0,2.55.69,3.18-1,.55.31,2.44.34,1.25,1.14-4.46,3-9.33,5-14.81,2.49-1.72-.8-3.42-1.65-5.13-2.47a2.26,2.26,0,0,0-.26-.42c-.06-.06-.19-.06-.29-.08l.69.35c-.13,1.06-.17,2.11-1.81,1.45a8.38,8.38,0,0,0-2.53-.24l-1-1.09-.6-.47.72.34,1,1.09c2.22,2.29,5.17,4,6.08,7.35.11.42-.17.94-.26,1.41-.46-.1-1.06,0-1.34-.33-3.31-3.23-6.59-6.48-9.81-9.79-.55-.57-1.21-1.56-1.07-2.19,1.1-5.08.11-10.62,3.32-15.22-.63,4.39-1.29,8.77-1.83,13.17a6.37,6.37,0,0,0,.65,2.24c.8-.44,1.93-.69,2.34-1.37,1.1-1.83,1.39-4,2.43-6,1.87-3.57.35-6-3.76-7.92a13.34,13.34,0,0,0,0-1.55c-.07-.65-.22-1.29-.34-1.94-.21.44-.45.86-.63,1.31-1,2.56-2,5.13-3,7.67a8.23,8.23,0,0,1-1.3,2.17c-.25.28-.89.24-1.35.35-.08-.45-.37-1-.22-1.34.9-2,1.92-4,2.85-6a14.35,14.35,0,0,0,1.07-2.89,9.32,9.32,0,0,0-.07-2.29,5.59,5.59,0,0,0-1.91.31c-3.32,1.86-6.36,3.84-7.29,8.08-.61,2.81-2.07,5.44-3.28,8.09-.24.52-1,.77-1.6,1.14-.11-.63-.48-1.34-.29-1.87,1-2.93,2.18-5.79,3.19-8.71a14.69,14.69,0,0,0,.43-2.92,13.71,13.71,0,0,0-4-.27,2.74,2.74,0,0,0-1.44,2.23c.09,1.74.92,3.61-2.1,3.25-.08,0-.26.57-.34.88-1.15,4.83-2.23,9.68-3.44,14.49-1.31,5.16-2.43,10.39-4.23,15.37-1,2.81.24,5,.49,7.5a3,3,0,0,0,.32.77,4,4,0,0,0,.54-.86c.67-2.13,1.26-4.27,1.95-6.39q3.32-10.29,6.71-20.56c.14-.42.7-.71,1.07-1.06a4.44,4.44,0,0,1,.27,1.34c-.21,1.53-.5,3-.77,4.55l.15-.19L247,156.61c-.26.36-.53.71-.76,1.08,0,.05.14.24.23.36l.38-1.6,1.22.18-.13-.12c.13.49.11,1.13.42,1.42,1.12,1,2.85,1.73-.12,2.89-1.32.52-2.2,2.31-3.12,3.64-.15.21.56,1,.87,1.54l-.13-.13,3.25,1.15-.14-.13-2,2.22a2.81,2.81,0,0,0-.19-.39c0-.07-.13-.11-.21-.17l.54.43c-.19.27-.42.8-.55.78-3.65-.6-4.22,1.85-4.76,4.56a29.79,29.79,0,0,1-1.63,5.38,21.55,21.55,0,0,0-1.43,9.05c0,.84.17,1.67.26,2.51a8.23,8.23,0,0,1,1.56-1.79c3.47-2.17,6.93-4.37,10.53-6.31,1.31-.7.95.86,1.19,1.51-3.84.82-6.69,3.23-9.38,5.88a2.92,2.92,0,0,0-.42.78c.3,0,.71.2.89.06,2.94-2.26,5.86-4.57,8.78-6.86a32.42,32.42,0,0,0,3-1.45c1.34-.82,2.45-.87,3.37.56a2.34,2.34,0,0,0-.4.1.9.9,0,0,0-.2.19l.46-.43c1.25-.85,2.48-1.73,3.76-2.52.17-.1.78.17.88.4s.27,1.14.09,1.25c-3.49,2.17-7.05,4.25-10.55,6.42-1.17.71-2-1.61-3.47,0-2.62,2.94-5.77,5.4-8.62,8.13-.21.2.13,1.38.16,1.38,1.77-.16,3.76,0,5.24-.72,1.84-1,2.77-.09,4.19.63a38.15,38.15,0,0,0,5.62,1.71,3.94,3.94,0,0,1,1,.79c-.33.35-.79,1.06-1,1-2.9-1.06-4.28,1.51-6.3,2.52a7.46,7.46,0,0,1-1.8.36,11.23,11.23,0,0,1,.77-1.73,25.17,25.17,0,0,1,1.6-2,3.62,3.62,0,0,0,.4-.19.58.58,0,0,0,.16-.21l-.42.54c-1.29.7-2.63,1.32-3.86,2.11s-2.4,1.85-3.67,2.67c-.27.17-.86-.14-1.3-.23a3,3,0,0,1,.31-.91c1-1.3,2.09-2.57,3.15-3.85l2.13-1,.46-.6-.31.75-2.16,1c-4.77,2-5.61,3-5,7.62a59.38,59.38,0,0,0,2.78,10.4c1.28,3.82,1.29,4.05-2.4,5.88-.51.26-1.32.87-1.25,1.15a2.15,2.15,0,0,0,1.2,1.46c3.46,1,7,1.74,10.44,2.64a19.75,19.75,0,0,1,4.33,1.48c.87.47,2.63,1,1.59,2.58-.87,1.28-1.74-.1-2.61-.43-.55-.21-1.57-.34-1.81,0-1.95,2.46-3.91,1.28-6,.24a14.88,14.88,0,0,0-2.43-.74,1.65,1.65,0,0,0-.21-.42c-.05-.07-.19-.07-.3-.09l.64.37a13.48,13.48,0,0,1-2.61,1.23,7.41,7.41,0,0,1-2.29-.1c0,.84,0,1.69.08,2.53a6.33,6.33,0,0,0,.32,1c.39,1.73.77,3.47,1.15,5.2,2.17-.82,3,1.23,4.35,2.06,1.93,1.14,3.23.71,5.24-1.16.61-.57,1.91-1.17,2.49-.9a24.49,24.49,0,0,1,6.15,3.7c3.16,2.89,6,6.16,9,9.27l1.08,1.08,1,1.1c.37.24.74.49,1.13.71.05,0,.21-.15.32-.24l-1.6-.33-1-1.1-1.1-1.08c.5-.27,1-.8,1.49-.77a15.72,15.72,0,0,1,2.83.61Zm27.1,294.87a2.74,2.74,0,0,0,.21.42c.05.06.19,0,.29.08l-.64-.35a1.7,1.7,0,0,0-.09-.39c0-.07-.16-.1-.24-.15Zm87.26-274-1.05,1-.46.61L385,278l1-1c1.18-.27.55-.62,0-1,.47-1.68,1.75-2.16,3.31-2.21-.21.58-.43,1.15-.64,1.73l.91-.07-.45-1.52a6.65,6.65,0,0,1,.1-1c.28-1.12.58-2.23.87-3.35-.93.49-1.85,1-2.79,1.45-.77.37-1.56.68-2.35,1-4.73,1.83-9.46,3.63-14.17,5.51a1.46,1.46,0,0,0-.72,1.17,1.5,1.5,0,0,0,1,1,14.66,14.66,0,0,0,4.5-.2c3.57-1.06,7.06-2.4,10.58-3.63ZM289.54,548l-.13.14-1-1-.34-.29.48.15Zm-6.33-134,1.05-1,1-1,1.06-1c1.5-1.54,3-3.07,4.52-4.61-.13-.09-.34-.27-.38-.24-1.75,1.33-3.85,2.38-4,5l-1.05,1-1,1-1.05,1-1.06,1.06c-1.41,1.18-2.84,2.33-4.2,3.55-.26.24-.25.77-.37,1.17.44-.13,1.07-.13,1.3-.42,1.1-1.43,2.1-2.94,3.13-4.43C282.5,414.76,282.86,414.41,283.21,414.05Zm-12.44,0,1.05-1,1-1,1-1.06,1-1.05c.34-.35.67-.71,1-1.06l1.06-1,1-1,1.07-1,1.06-1,.28-.3-.13.45-1.08,1-1.06,1-1,1.05-1.06,1-1,1.07-1,1-1,1.06-1.05,1-1.05,1-.57.58Zm5.19-1,1-1c1.57-1.5,3.15-3,4.69-4.52.18-.18.13-.6.19-.91-.26,0-.67-.16-.75-.05-1.37,1.84-3.81,2.93-4,5.6l-1,1.05-1.08,1c-.5.06-1.12,0-1.47.22a5.14,5.14,0,0,0-1,1.46,5,5,0,0,0,1.65-.49c.36-.25.47-.86.68-1.31ZM255.3,185.77l-.38.13a.18.18,0,0,0,0,.06l.22-.34a3.11,3.11,0,0,0,.4-.22.89.89,0,0,0,.16-.22Zm32,213.71,1.06-1a1.3,1.3,0,0,0,.46-.11c.08-.05.09-.22.13-.33l-.44.58-1.07,1-1.1,1.07-1.78,2.14.65.27,1-2.55Zm2.22,99.72a1.94,1.94,0,0,0,.12.43c0,.07.17.1.26.15l-.53-.43-1-1.06c-1.14-.72-2.29-1.42-3.39-2.18-.25-.17-.56-.62-.49-.81a2,2,0,0,1,.87-1.1c1.09-.42,2.8-.32,3.25-1.05.83-1.34.92-3.12,1.32-4.72a27.78,27.78,0,0,0-3.88.79c-3.4,1.22-6.65,2.83-10.46,1.09-1.48-.68-5.41,1.64-5.89,3.28-.41,1.41-.87,3.23-.32,4.41,1.26,2.71,9.93,4.73,11.73,2.38,2.25-2.95,4.79-2,7.4-2.22Zm-31.17-27,.33.33-.47-.2-.58-.48Zm8.33-10.42,1.08,1.08c-.24,1.38.14,2.25,1.74,2.1a3.88,3.88,0,0,0,.45-.14l-1.9-1.6a2.86,2.86,0,0,0-.43-.21l-1.09-1.09a2.27,2.27,0,0,0-.19-.34s-.14-.06-.21-.1Zm46.63,73.79,2.09-1a78.87,78.87,0,0,1,8.5-1.8c1.1-.12,3.24.86,3.31,1.52.15,1.4-1.52,1.35-2.71,1.58-3,.58-6,1.29-9,2-.34.09-.56.7-.83,1.06a7.11,7.11,0,0,0,1.38,0c2.89-.46,5.53-1.34,8.74-.34s6.16-1.41,8.24-4.07c1-1.23.53-2.68-.73-2.86-2.49-.35-5.13-1.16-7.47-.67-3.23.68-6.24,2.38-9.34,3.65l-2.08,1-1.48.47c.13.06.31.21.37.17C312.71,536.12,313,535.84,313.35,535.58ZM266.73,81.89l-.47,1.24.31-1.39.42-.68Zm42.46-6.28-1-1.06,0-2.19,6.4,4.14c-1.16,2.47.62,3.76,2.06,5.2.05,1,.07,2,.14,3.07,0,.5.15,1,.23,1.49.13-.42.43-.86.36-1.24-.21-1.08-.56-2.14-.86-3.21,0-2-.41-3.85-2.06-5.2-1.43-5.3-5.7-7-10.36-8.28a5.7,5.7,0,0,0-5.44-1.84c-.08,0-.14.18-.21.27l5.76,1.44,1.06,2.28a11.68,11.68,0,0,0-2-.07c-.21,0-.37.49-.56.76l1.76.86.62-1.71,3.2,2.17-1.79.57,1.78,1.4,1.07,1,.27,1.41.57-.37Zm-38.36,73.63.68.34-.81-.2c0-.5,0-1,0-1.51a4.3,4.3,0,0,0-.31-1c-.15.4-.46.85-.38,1.21S270.54,148.87,270.83,149.24Zm62.33,66.59-3.12,1-3.06,1-1.58.49c.14.07.33.23.4.19.36-.25.7-.55,1.05-.83l3.07-1,3.11-1,1.49-.24-.34-.51ZM263.45,78.57l2.08-3.11,5.2-5.15.49-.58-.37.7a6.47,6.47,0,0,0-5.18,5.16L263.6,78.7c-.24.17-.66.31-.69.51a3.4,3.4,0,0,0,.17,1.16,6.88,6.88,0,0,0,.3-.87A7.14,7.14,0,0,0,263.45,78.57Zm41.62,2.15a2.67,2.67,0,0,0,.74.58,1,1,0,0,0,.83-.15c.13-.12,0-.51,0-.78-.26.09-.52.19-.79.27l-.92.23c0-1.69-.88-2-2.28-1.33a5.08,5.08,0,0,0-1,.87,3.16,3.16,0,0,0,.92.35C303.41,80.8,304.24,80.74,305.07,80.72ZM286.33,415.11c.79-.57,1.61-1.11,2.36-1.73.19-.15.2-.53.29-.81-.41.05-1.05-.06-1.21.17a22,22,0,0,0-1.31,2.5c-.31,0-.71-.07-.92.09a3,3,0,0,0-.83,1c0,.07.5.59.54.56a3.35,3.35,0,0,0,1-.87C286.37,415.81,286.3,415.43,286.33,415.11Zm1.08,58.16a12,12,0,0,0,2.55-.15c.51-.14.9-.73,1.34-1.12a4.7,4.7,0,0,0-1.8,0,10.51,10.51,0,0,0-2,1.39,6.25,6.25,0,0,0-1,0c-.56.11-1.1.28-1.65.43a12.35,12.35,0,0,0,1.82,0C287,473.88,287.18,473.5,287.41,473.27Zm20.82,28.17-3.62,2.33.32.32c1.07-.92,2.12-1.85,3.17-2.78a2.22,2.22,0,0,0,.45-.07c.09,0,.13-.17.2-.25ZM261.53,407a8.39,8.39,0,0,0-2.17.89c-.39.3-.42,1-.61,1.6.5-.15,1.18-.16,1.47-.5a11.24,11.24,0,0,0,1.17-2.13,1.74,1.74,0,0,0,.47-.16c.07-.05.06-.22.09-.33Zm11.3,96.58-.64-.42.78.27c2.39,1.78,4.79,1.58,7.19,0,2.08.7,4.15,1.43,6.23,2.08,1.85.58,3.38,2.44,5.63,1.47a41.87,41.87,0,0,1-4.52-3.09c-2.4-2.11-4.73-2.1-7.22-.32ZM199.15,338.36c-.21-.28-.41-.56-.64-.82a8.27,8.27,0,0,0-.74-.71,1.22,1.22,0,0,0-.27.23,3.59,3.59,0,0,0,.78,1c.23.17.66.08,1,.1a30.34,30.34,0,0,0,1.88,3.35c.37.51,1.18.7,1.79,1a7.71,7.71,0,0,0-1-2.09A22.32,22.32,0,0,0,199.15,338.36Zm72.74-75.93.63.5-.77-.36c-1.29-2.64-3.39-1.34-5.25-1-.45.08-.84.61-1.26.93.58.29,1.18.86,1.73.81C268.62,263.13,270.25,262.73,271.89,262.43Zm33.17,208.88a12.05,12.05,0,0,0-1-.72c-.06,0-.23.13-.36.2l1.53.37c2.38,3.76,6.62,2.73,10,3.88.12,0,.35-.24.52-.37a4.41,4.41,0,0,0-.87-.53C311.6,473.18,308.33,472.25,305.06,471.31ZM275,439a1.35,1.35,0,0,0,.07.41c0,.07.16.1.25.15l-.47-.42c-1.92-2.89-1.92-2.89-4.69-1.19-.44.27-.93.45-1.36.74s-1,.73-1.43,1.1a10.07,10.07,0,0,0,2,.12C271.32,439.61,273.18,439.26,275,439Zm14.51-37.22a9.57,9.57,0,0,0-2,1.39c-2.92,3.3-5.86,6.59-8.58,10.06a33.46,33.46,0,0,0-2.81,5.22l-1.56.38c.11.08.28.25.33.22.38-.23.73-.5,1.1-.76,4-4.3,8.13-8.55,12-13,.81-.91.94-2.43,1.38-3.67l.45-.65Zm-7.29-115.4a1.35,1.35,0,0,0,.16.41c.05.07.2.05.3.07l-.58-.35c-.09-4.31-.1-8.61-.35-12.91-.05-.71-1.17-2-1.73-1.93-1.38.07-1.82,1.22-1.68,2.65.35,3.58.66,7.18.84,10.77C279.36,287.78,280.73,287.14,282.26,286.33ZM280.1,120.14c3.51-1.11,6.41-3.84,10.51-3.57.81.05,1.81-2.21,2.63-3.46.08-.12-.46-.89-.82-1-1-.31-2.17-.86-2.94-.53-4.11,1.75-8.15,3.69-9.26,8.68a1.37,1.37,0,0,0-.42.12c-.07,0-.05.2-.08.32ZM321.65,487.8c1.37.52,4,.25,1.87,3-1,1.29-.52,2.32.72,2.92s1.74-.36,2.25-1.35c1.45-2.82,1.8-2.93,4.53-1.76.78.34,1.48.88,2.28,1.15.4.14,1.31-.05,1.35-.23a18.81,18.81,0,0,0,.49-3.95c0-1.31-1.17-1.23-2.17-1.56-4.14-1.37-7.61.53-11.21,1.93a11,11,0,0,0-2.39.79c-3.43,2.11-7,3.58-11.17,3.31a2.61,2.61,0,0,0-1.49.3,8.09,8.09,0,0,0-1.3,1.37c.36.34.72.95,1.1,1,3.72.18,7.31,1.59,11.17.63,2.26-.56,3.3-1.14,2.85-3.71C320.32,490.43,321.24,489.07,321.65,487.8ZM280.23,88.07c-2.54,0-5.09.67-7.57-.62a2.32,2.32,0,0,0-2.12.75,2.44,2.44,0,0,0,.14,2.22,5.62,5.62,0,0,0,2.16,1.81c1,.53,2.61.47,3.21,1.24s.1,2.19.15,3.33c0,.32.27.62.34,1s.07.87.11,1.3c.62-.16,1.55-.12,1.83-.52,1.24-1.81,2.3-3.75,3.43-5.64.6-1,1.22-2,1.83-3.06-1.13-.48-2.27-1-3.39-1.46-.13-.05-.18-.28-.27-.42,1.24.19,2.26-.53,2.06-1.56a3.49,3.49,0,0,0-2.07-2.32,18.9,18.9,0,0,0-4.88-.1c-.27,0-.78.34-.77.47.06.43.19,1,.49,1.2C276.65,86.51,278.45,87.27,280.23,88.07ZM330,469.24a24,24,0,0,0,3.05-.37c6.78-1.71,7.5-3.08,5.19-9.64-.11-.32-.11-.8-.32-.93-.7-.4-1.87-1.15-2.15-.92-2.63,2.23-6.76,2.75-7.87,6.73l.12-.17-2.06,2.13c-.5.33-1.19.67,0,1-3.25,2.36-6.9,1.67-10.34,1s-7.22-.95-10.23-3.32a1.89,1.89,0,0,0-1.66.45c-.16.71-.09,2,.27,2.18a27.48,27.48,0,0,0,5.38,1.67A108,108,0,0,0,320,470.8c1.93.19,3.94-.4,5.91-.64l-.13.13,4.28-1.19Zm5.33-39.44c-1.13-.95-2.79-2.94-3.29-2.68-1.78.92,0,2.63-.14,4s-.49,3-.6,4.57a5.31,5.31,0,0,0,.24,3c.71,1.08,2.37,1.64,2.86,2.76s-.63,3,0,3.75c1.07,1.36.81,2.43.5,3.78a20.2,20.2,0,0,0-.58,4c0,.77.33,2.17.67,2.22a3.72,3.72,0,0,0,2.79-.6,6.17,6.17,0,0,0,1.5-3.07c.48-2.15.72-4.37,1-6.56,1.26-8.82,1.22-8.93-4.08-14.34a15.2,15.2,0,0,0,2,.38c.39,0,1.09-.13,1.16-.35a3.21,3.21,0,0,0-3.58-4.17c-1.3.14-1.1.9-.74,1.78A8.12,8.12,0,0,1,335.28,429.8ZM300.93,99.37c.34.59.68.92,1,0,1.93-3.31,1.93-3.31-.75-5.41-.13-.11-.35-.15-.42-.28-.2-.4-.58-.92-.47-1.23a1.68,1.68,0,0,1,1.09-1,41.78,41.78,0,0,0,5-.38A2.74,2.74,0,0,0,308,89a22.35,22.35,0,0,0-.79-4.82,1.12,1.12,0,0,0-.94-.14c-1.31,1.16-2.34,1.6-3-.63-.11-.38-1-.77-1.48-.76-1.54,0-3.08.22-4.62.35s-.94,1.06-.45,1.65A21.54,21.54,0,0,0,299,86.71c-1.16-.07-2.32-.17-3.48-.2-.49,0-1,.22-1.49.18a3.44,3.44,0,0,1-3.51-3.54c-.09-1,0-2.06,0-3.09-.06-2,.38-1.85,1.63-.57.6.61,9.42-1.15,10-1.81.38-.45.86-1.39.67-1.65a4.9,4.9,0,0,0-2.08-1.63,8.87,8.87,0,0,0-2.32-.12c-.06-2.64-1.87-1.53-3.16-1.54-.79,0-1.58-.27-2.36-.2-3.74.31-7.51.5-11.19,1.15C280,74,279,76,276.81,76c-1.66,0-2.22,1.24,0,1.78,1.55.37-.79,3,1.75,2.73,1.49-.18,3-.2,4.5-.26,1.24,0,3.07,3.1,3.61-.68.17,0,.5.07.51.13a16.64,16.64,0,0,1,.43,3.87c-.12,1.14-1,2.2-1.19,3.35a68.9,68.9,0,0,0-.78,8.11A2.39,2.39,0,0,0,287,96.85a6.29,6.29,0,0,0,3.44-.17,4,4,0,0,1,4.3.76l-.12-.1c-.62.71-1.24,1.41-1.85,2.12-.29.34-.56.7-.85,1.05.4.23.84.7,1.18.63,1.44-.3,3.69-.36,4.13-1.25C298.47,97.42,299.74,99.47,300.93,99.37Zm32.16,425.82c1.35.36,3.11,1.93,3.79-.5,1.83-6.49,2.54-13.06,0-19.58-.17-.44-.65-.76-1-1.14-.3.33-.75.62-.88,1-.81,2.47-2.8,3.28-5.06,3.76a1.19,1.19,0,0,0-.13-.44c-.05-.08-.22-.06-.34-.09l.59.4.65,2.34a4.86,4.86,0,0,1-1.87-.22c-2.34-1.42-4.59-1-6.9.06a11.77,11.77,0,0,1-2.94,1,5.17,5.17,0,0,1-1.85-.43c.4-.3.78-.62,1.19-.92.76-.56,1.53-1.1,2.3-1.65-1.74-2.36.37-2.06,1.56-2.14,2.24-.15,4.5-.12,6.75-.19a13.37,13.37,0,0,0,1.52-.25,8,8,0,0,0-1.18-.92c-1-.54-3-1.15-3-1.49.45-3.17-2.71-3-3.86-4.62s-2.22-2.21-3.91-1.6a19.9,19.9,0,0,0-4,2,51,51,0,0,0-4.38,3.41c-1,.84-2,1.78-2.93,2.68-1.48.39-3,.77-4.43,1.21-.15.05-.22.49-.24.76,0,.1.24.3.37.31,1.9.09,3.9.32,4.18-2.4a41.33,41.33,0,0,1,5.49-.74c.5,0,1.43,1.15,1.45,1.79,0,1.19-.93,1.08-1.85.77a3.49,3.49,0,0,0-1.94-.24c-4.28,1.33-6.57,4.77-6.34,9.38.13,2.48.45,2.71,2.68,1.49,2.61-1.43,5.28-2.56,8.33-2.15a3.62,3.62,0,0,1,1.19.66,4.91,4.91,0,0,1-1.17.85c-1.78.61-3.61,1.09-5.38,1.73-.37.14-.58.74-.87,1.12.38.26.79.77,1.15.74,1.36-.1,2.7-.45,4.06-.58,1.67-.15,2.05.58,1.66,3-2,.17-4.13,0-6,.65-1.12.39-1.81,2-2.69,3.09,1.08-.4,2.19-.72,3.22-1.2,1.8-.85,3.54-1.79,5.31-2.7,3.94-.32,7.88-.77,11.83-.91,2.46-.09,4.83.5,6,3.15-4.24-1.47-8.47-2.69-13-1-4.77,1.8-10.06,2.54-13.61,6.79-.28.34-.53.7-.8,1.06.49.06,1.06.31,1.46.15,3.48-1.47,6.88-3.13,10.41-4.47a16.08,16.08,0,0,1,4.53-.53c.29,0,.6.27.9.42a3.1,3.1,0,0,1-.82.51c-.49.14-1.05.09-1.52.26-3.06,1.15-6.1,2.32-9.12,3.54-.35.14-.52.7-.78,1.06a5.07,5.07,0,0,0,1.49.09,17.32,17.32,0,0,0,1.9-.79c5.81-2.18,11.56-4.77,17.95-2.21a1,1,0,0,0,1-.17,2.34,2.34,0,0,0,.59-1.32c0-.26-.49-.72-.82-.78-1.63-.28-3.29-.45-4.94-.68-.83-.11-1.66-.28-2.49-.42l2.8-.48C330,526.11,331.88,527,333.09,525.19ZM213.62,293.62c3.79-.59,4.27-1.41,2.39-4-.22-.31-.55-.93-.47-1,2.17-1.95.39-2.77-1.09-3.16-5.95-1.56-11.89-1.94-17.63.9a3.37,3.37,0,0,0-1.71,4.23c.88,1.74,2,.18,3.09.05l1-.15c-2.58,2.48-5.35,4.84-4.35,9.09.31,1.31-.71,5.61-1.1,7-.27.91-.59,2.22-.16,2.86,1.44,2.14.71,4.26.52,6.45-.09,1.05,0,2.7.57,3.1.77.5,1.78.71.89,1.57-2.68,2.6-1.25,5.89-1.68,8.84-.25,1.71-.76,3.85,1.24,5.18,1.23-1.35,2.49-2.65,3.65-4.05.28-.35.2-1,.29-1.51a1.9,1.9,0,0,0,.43-.26c.06-.06,0-.21,0-.33l-.31.73c-.64-1-2-2.1-1.79-2.93a94.8,94.8,0,0,1,2.67-9.84c.09-.32.77-.48,1.17-.71a4.5,4.5,0,0,1,.64,1.63c-.11,3.24-.63,6.5-.39,9.7.14,1.85,1.24,3.55-.48,5.24-.17.17.34,1.52.84,1.81a8.66,8.66,0,0,1,4.7,7.51,11.46,11.46,0,0,0,1,2.89c.61,1.81,1.35,2.94,3.17,1a4.1,4.1,0,0,1,1.75-.85c2.34-.8,2.71-1.55,1.17-3.29a33.77,33.77,0,0,1-4.12-5.72c-.78-1.38-.47-1.78.43-2.25,2.1-1.09,1.33-1.95,0-2.94a11,11,0,0,1-1.4-1.41l-.13.15c.6-.33,2.05.05,1.37-1.35-.58-1.23-1.6-2.25-2.19-3.47-.23-.47.17-1.26.29-1.9a5.8,5.8,0,0,1,.86,1.16c.8,2,1.75,2.72,3.7,1,.83-.72,2.22-.83,3.38-1.14a.91.91,0,0,1,.79.41,1.05,1.05,0,0,1-.15.92c-.32.39-.81.63-1.15,1a13.47,13.47,0,0,0-.93,1.31c.63.19,1.36.68,1.86.51,1.57-.56,3.12-1,3.57-3.2s1.69-4.23-.52-6.11c.74-3.44-1.93-5.71-3-8.52a3.58,3.58,0,0,0-3.67-2.38,12.16,12.16,0,0,1-3.07-.29c-.35-.08-.56-.72-.84-1.11a7.46,7.46,0,0,1,1.18-.77,2.67,2.67,0,0,1,1,0l4.35.11a41.26,41.26,0,0,0-.25-4.59C214.69,298.26,214.11,296,213.62,293.62ZM325.75,271.4c-.5-3-1-6.21-1.53-9.38-2.38,1-4.75,2-7.15,2.92-2.72,1-5.47,2-8.24,2.94a22.72,22.72,0,0,1-4,.87c-3.23.46-6.48.72-9.7,1.26-4.22.7-4.19.77-3.6,5,.38,2.72.86,5.44,1,8.18.13,2.06,1.16,2.21,2.73,1.8,4.65-1.21,9.26-2.55,13.95-3.6,5.79-1.29,11.14-3.29,15.05-8C326.15,273.82,325.67,272.46,325.75,271.4ZM268,277.13l.16,0c0-.32.21-.68.11-.94-.88-2.35.58-2.36,2.06-1.9,3.05.93,3.83,2.95,2.68,6.42a6.25,6.25,0,0,0-.17,1.15,3.49,3.49,0,0,0,1,.07c2.65-.57,3-1.25,2.69-3.88s-.54-5.46-.65-8.19c-.06-1.49-.54-2.22-2.12-2.13-3.6.2-7.22.21-10.81.55s-7.21.74-10.64-.74c-1.49-.65-2.12-.16-2.62,1.16-.58,1.54-1.48,2.77-1,4.8.56,2.47,3.28,2.26,4,4.2.28-.22.83-.5.8-.65-.4-1.78.45-1.86,1.48-.95,1.63,1.43,1.75,3.19.74,5.14-.74,1.43.07,1.74,1.4,1.62,2.73-.25,5.45-.45,8.18-.58,3-.14,2.95-.09,2.54-3.19A7.55,7.55,0,0,1,268,277.13Zm39.74,206.54v.05c1.37,0,2.75-.05,4.12,0,.3,0,.66.55.8.92.06.18-.33.74-.55.76-2,.21-4.07.35-6.11.48-1.12.07-2.59-.59-2.92,1.17s1.14,2.27,2.21,2.29c4.23.07,8.62.37,12.31-2.29,3.94-2.85,7.75-5.48,13.07-3.53,1.44.53,3.34-.17,5-.31a37.41,37.41,0,0,1-.55-4.33c0-1.89-.63-2.4-2.52-1.81-5.33,1.68-10.86,1.79-16.34,1.42a49.61,49.61,0,0,1-9-2c-1.59-.4-3.11-1.08-4.66-1.64,0,1.66,0,3.32.07,5,.09,3.65.1,3.65,3.48,3.73C306.7,483.68,307.22,483.67,307.74,483.67ZM229.2,261.61c-.4-.63-1.09-1.75-1.78-2.86-.75.47-1.52.9-2.24,1.42-.41.3-1,.69-1,1.11-.41,2.55-.7,5.12-1,7.68-1.16,8.7-2.44,17.39-3.46,26.11-.57,4.92-3.05,9.95.37,14.81.17.24,0,.68.1,1,.11.58.26,1.15.4,1.73a10.77,10.77,0,0,0,.71-1.91c.94-5.25,1.89-10.49,2.72-15.76,1.39-8.83,2.69-17.69,4.05-26.53C228.31,266.39,228.71,264.37,229.2,261.61Zm35.21,4.9,1.61-.67a10.48,10.48,0,0,0-1.67-1c-.63-.25-1.59-.11-2-.53a16.73,16.73,0,0,1-1.71-3,21.78,21.78,0,0,1,2.12-1c2.79-1,3.16-2.06,1.37-4.44a14.9,14.9,0,0,0-1.87-1.76c-1.39-1.28-3.14-2.34-4.11-3.89-1.82-2.88-4.17-2.63-6.77-1.82a30.13,30.13,0,0,0-3.29,1.48c-2.62,1.17-3.24,3.47-1.07,5.33a5.92,5.92,0,0,1,2.12,5c0,1.09,0,1.84,1.65,1.68.91-.09,1.93,1.19,2.93,1.79a13.83,13.83,0,0,0,3.54,1.9A69.39,69.39,0,0,0,264.41,266.51ZM292,560l.12-.44c.69,0,1.38,0,2.07,0a4.27,4.27,0,0,0,1-.28c-.3-.33-.54-.78-.91-1a4.63,4.63,0,0,1-2.67-3.54,4.87,4.87,0,0,0-1.67-2.38,32.86,32.86,0,0,0-5-3.71,7.54,7.54,0,0,0-4.3-1.25A81.3,81.3,0,0,0,270,549.67a8.78,8.78,0,0,0-3.5,2.14c-1.86,1.79-1.06,4.44,1.4,5.21,2.13.68,4,0,6-.78,1.56-.6,3.42-1.85,4.79-.25a4.4,4.4,0,0,0,5.14,1.25c2.57-.85,4.25-.39,5.69,1.9C289.91,559.7,291.14,559.7,292,560ZM233.7,162a15.39,15.39,0,0,0,0,2.41,3.75,3.75,0,0,0,.73,1.16,5.77,5.77,0,0,0,1-1,9.38,9.38,0,0,0,.86-1.88c2-5.88,4-11.76,5.82-17.67a39.41,39.41,0,0,0,1.47-6.54c.57-4.22-1.1-5.55-5-4.1-1,.36-1.84.94-2.77,1.39a3,3,0,0,0-1.81,3.34A104.1,104.1,0,0,1,233.7,162Zm46.44-32.2c-.07,5,1.74,7.2,6.69,8.1.67.12,1.36.18,2,.3,4.87.82,7.38-.3,9.9-4.44,2.1-3.45,1.78-6.56-1.12-10-2.2-2.62-5.24-4.5-8.45-4.06C284.23,120.33,279.72,124.24,280.14,129.76ZM379,317.11c-.22-2.58,1-5.57-2.86-6.36-.35-.07-.51-.87-.85-1.24-.63-.69-1.34-1.3-2-1.95a14,14,0,0,0-.72,2.92c-.06,1.72.24,3.45.21,5.17a13.31,13.31,0,0,1-.53,4.57c-1.22,3.07-.86,6.16-.39,9.21a13.66,13.66,0,0,0,2,4.69,2.43,2.43,0,0,0,3.64.64,3.1,3.1,0,0,0,.83-2.6c-.34-1.85-1.09-3.62-1.61-5.44-.18-.62-.42-1.73-.17-1.88C379.64,322.88,378.36,319.63,379,317.11Zm-88.73-214c-4.46-.54-8.58-.91-12.65-1.57a15,15,0,0,1-7.79-3.81c-.63-.58-.73-2-1.36-2.26-4.54-1.63-4.73-5.3-4.73-9.21a6.83,6.83,0,0,0-.92-2.52,9,9,0,0,0-.81-1.26,3.76,3.76,0,0,0-.45,1.17,52.47,52.47,0,0,0,.32,7.74,8.9,8.9,0,0,0,4.1,6.21c3.92,2.62,7.67,5.07,12.58,5.35,2.89.16,5.8,1.51,8.59,1.25s5.33,1.24,8.15.32c3.09-1,6.49-1.14,9.51-2.3,5.5-2.12,9.86-5.65,11.38-11.74a7.38,7.38,0,0,0,0-2c-.41.54-.83,1.08-1.24,1.63-1.52,2.09-3.07,4.16-4.55,6.28a11.8,11.8,0,0,1-7.63,5C298.49,102.17,294.2,102.58,290.22,103.12Zm50,310.25c-.82-3.09-1.74-6.75-2.8-10.37-.14-.48-.91-.86-1.47-1.08-.14-.06-.78.66-.88,1.09-.53,2.34-.93,4.71-1.44,7.05-.74,3.34-1.61,6.65-2.31,10-.43,2.09.79,4.17,2.41,4.47,2.56.46,5.1-.34,5.37-1.94C339.57,419.72,339.8,416.82,340.2,413.37ZM254.89,103.2c-.36-.34-.83-1.09-1.5-1.35a1.64,1.64,0,0,0-2.37,1.24c-.51,2.18-.92,4.38-1.46,6.54-1.44,5.84-3,11.66-4.36,17.51-.29,1.22-.94,3,1.18,3.31,1.62.28,3.14,0,3.63-2,.22-.83.48-1.66.65-2.5q1.26-6.59,2.48-13.17C253.71,109.73,254.26,106.68,254.89,103.2Zm44.94,369.07c.59-2.6.59-5.08-1.48-7.22-.5-.52-.49-1.59-.6-2.43-.19-1.34-.28-2.7-.42-4.06-.24,1.41-.58,2.82-.71,4.24a4.48,4.48,0,0,0,.33,2.51c1.26,2.1,1.06,4.26.8,6.52a6.32,6.32,0,0,0,.39,3.5c1,1.79.46,3.08-.27,4.79-3.11,7.27-2.79,14.75-.84,22.25a1.12,1.12,0,0,0,.64.7c.23.06.76-.14.82-.33,1.37-4.4,3.41-8.81,1.37-13.45a7.71,7.71,0,0,1-.09-6.91,6.74,6.74,0,0,0,.49-5.47C299.76,475.5,300,473.85,299.83,472.27ZM205.37,276.83c-4.22-.14-5.89,3.31-8.31,5.56-.05.06.27.71.37.7a7.26,7.26,0,0,0,3-.59c3.48-2.28,6.78-1.74,10.2.12a18.71,18.71,0,0,0,4.32,1.55,2,2,0,0,0,1.81-.52,3.14,3.14,0,0,0,.1-2.28,3.26,3.26,0,0,0-1.59-1.86C212,278.5,208.67,277.71,205.37,276.83Zm121.27,172.1.55,0q-.7-8.47-1.43-16.94a11.47,11.47,0,0,0-.35-1.49A6.74,6.74,0,0,0,325,432q-.48,12.93-.9,25.86a9.16,9.16,0,0,0,.11,2.57c.13.51.79.87,1.21,1.29.42-.47,1.06-.89,1.2-1.44a11,11,0,0,0,.07-2.57ZM279.21,518a9.7,9.7,0,0,0-2.23.31c-.57.18-1,.81-1.48,1.24.5.09,1,.19,1.5.26,1.2.18,2.58.18,1.85,2.08-.86,2.25-.84,2.38,1.31,2.13a13.93,13.93,0,0,0,3.78-1.18c.79-.34,1.27-.41,1.45.53.28,1.5.41,3.07,2.26,3.57.11-1.27.19-2.54.32-3.81a25.37,25.37,0,0,0,.34-3.55,1.71,1.71,0,0,0-1.23-1.17C284.74,518.22,282.38,518.17,279.21,518Zm36.24-63.45h.19c0,2.43,0,4.85,0,7.27a8.83,8.83,0,0,0,.3,1.48,6.13,6.13,0,0,0,.62-1.55c.71-7.19,1.35-14.39,2.07-21.59.17-1.71.74-3.38.79-5.09a34.93,34.93,0,0,0-.52-5c-2,1-1.94,3.2-2.11,4.83C316.14,441.49,315.87,448,315.45,454.58ZM212.68,211.88c-.57,1.57-.68,2.77,2,2.82,1.77,0,3.54,1.05,5.29,1.66a15.58,15.58,0,0,1,1.65.78,7.09,7.09,0,0,0-.05-2,49.58,49.58,0,0,0-1.83-5.35c-.78-1.8-3-2.64-5.25-2.29s-1.82,2.08-1.78,3.59C212.69,211.3,212.68,211.47,212.68,211.88Zm.06,12.58c-.07,1.9.24,2.49,2.13,1.17,1-.69,2.57-.68,3.9-.76,3-.19,3.52-.84,2.73-3.52a6,6,0,0,0-4.6-4.28,2.55,2.55,0,0,0-1.66.61C215.74,220.45,213,222,212.74,224.46ZM319.43,455.72l.37,0c0,1.72-.09,3.45,0,5.16a33.06,33.06,0,0,0,.71,3.78c2.17-1-.1-2.18.09-3.27.08-.5,0-1,.06-1.54.26-2.88.57-5.76.8-8.64.33-4.27.66-8.54.91-12.81.15-2.58.16-5.16.18-7.74a5.6,5.6,0,0,0-.35-1.35c-.16.48-.33.94-.47,1.42a2.84,2.84,0,0,0-.06.51Q320.58,443.5,319.43,455.72Zm-39.7,25.06.06-.28c.86,0,1.72,0,2.58,0a7,7,0,0,0,1-.18,6.07,6.07,0,0,0-.92-.53c-4.32-1.63-8.63-3.28-13-4.83a5.8,5.8,0,0,0-3-.38A9.2,9.2,0,0,0,264,476c.73.68,1.36,1.78,2.21,2C270.66,479.06,275.21,479.88,279.73,480.78ZM328,441.63h.15c0,2.77-.1,5.54,0,8.3a1.87,1.87,0,0,0,3,1.27,10.9,10.9,0,0,0,1.62-2c.9-1.23,2.53-2.83-1-2.09-.06,0-.9-1.78-.61-2.38.6-1.26,2.43-2.36-.6-2.91-.33-.06-.43-1.52-.61-2.33-.35-1.5-.66-3-1-4.51a11,11,0,0,0-.56-1.4,4.22,4.22,0,0,0-.44,1.31C328,437.14,328,439.38,328,441.63ZM260.62,289.41l0,.17c3.42-.33,6.83-.61,10.24-1,1.93-.22,4.05.78,5.77-.87-1.86-2.4-4.48-1.29-6.51-.9a49.83,49.83,0,0,1-14.37.31,7.2,7.2,0,0,0-2.49.22,1,1,0,0,0,.12,2C255.81,289.45,258.22,289.41,260.62,289.41ZM276.11,516c.63-.27,2.28-.53,2.41-1.13.69-3.14,3.15-3.09,5.45-3.55a17.43,17.43,0,0,0,2.8-1.09,29.41,29.41,0,0,1-2.46-1.66c-1.72-1.43-3.53-.83-5.32-.33-1.3.35-2.09,1-1.25,2.58.63,1.2-.25,1.93-1.37,2.17-.83.17-1.75,0-2.55.2-.57.16-1,.74-1.52,1.14.45.46.82,1.08,1.36,1.33A9.32,9.32,0,0,0,276.11,516Zm15.14,15a7.57,7.57,0,0,0-1.67-.86c-2.19-.37-5,.09-6.45-1.13-3-2.65-5.7-1.34-8.6-.46l-1,.32c.2.23.36.55.61.67,2.66,1.16,4.87,3.93,8.39,2,.93-.52,2.37-.16,3.58-.18s2.41,0,3.62,0A10,10,0,0,0,291.25,531Zm55.3-178.28.27-.05c-.48-2.68-.95-5.36-1.46-8a1.07,1.07,0,0,0-.58-.72,1,1,0,0,0-.81.4,14.4,14.4,0,0,0-1.21,9.95c.29,1.22,1.54,3.25,2.11,3.17,1.9-.26,1.46-2.26,1.68-3.69A7.08,7.08,0,0,0,346.55,352.72ZM334,269c-.44-3.37-.74-5.91-1.14-8.42a1.33,1.33,0,0,0-1-.81c-1.48-.07-3.11,1.47-2.83,2.86s.61,2.88,1.51,3.63c1.81,1.51,1.62,2.68.29,4.25-.33.39-.24,1.13-.35,1.71.78-.08,2,.12,2.25-.3A12.81,12.81,0,0,0,334,269ZM273.49,448.43v-.19c1.88,0,3.76.06,5.63,0a5.05,5.05,0,0,0,1.7-.8c-.45-.36-.85-.9-1.36-1-1.81-.47-3.72-.61-5.47-1.25a6.12,6.12,0,0,0-4.92.39,10,10,0,0,0-2.14,1.89,10.13,10.13,0,0,0,2.47,1A34.82,34.82,0,0,0,273.49,448.43Zm47.16,27.76c3.72-.42,7-.58,10.15-1.23,1.59-.33,3.06-1.49,4.47-2.44.38-.26.37-1.12.54-1.71-.47,0-1-.27-1.41-.11a51.56,51.56,0,0,1-11.22,3.61,8.09,8.09,0,0,0-2.34,1.08,3.48,3.48,0,0,0-.67.66C320.5,476.14,320.83,476.23,320.65,476.19ZM218.79,337.84c-.34,2.13-.49,3.05-.64,4l-.24,1.56c.52-.38,1.31-.66,1.5-1.16a9.35,9.35,0,0,0,.89-3.91c-.29-3-.94-6-1.47-9.05-.05-.26-.31-.49-.47-.74-.27.2-.67.34-.79.61-.78,1.76-.55,4.06-2.74,5.06.4.62.72,1.69,1.2,1.77C217.92,336.26,219.83,336.27,218.79,337.84Zm111.1,157.49a16.6,16.6,0,0,1,.65,3.89c-.16,1.82.83,2,2.17,2s2.4-.73,2.24-2.18a12.9,12.9,0,0,0-1.16-4.41,3,3,0,0,0-2.5-1.23C330.68,493.48,330.25,494.79,329.89,495.33ZM286.56,279.68c-.42-2.45-.85-5.14-1.38-7.8-.07-.32-.72-.53-1.09-.79-.25.4-.73.82-.7,1.19.24,2.54.51,5.08.93,7.59.23,1.4-.46,3.21,1.5,4C286,282.57,286.27,281.29,286.56,279.68Zm102.65,61a3.17,3.17,0,0,0-3.07-3.37c-1.91-.07-2.15,1.29-2.2,2.73-.07,1.89.72,2.56,2.88,2.53C388.09,342.57,389.25,342.38,389.21,340.7ZM300.9,120.3a8,8,0,0,0-3.44-5.93,10.32,10.32,0,0,0-1.3-.73c-.14.48-.3,1-.4,1.44-.81,3.61,2.9,4.16,4.3,6.27a.77.77,0,0,0,.65,0A4.39,4.39,0,0,0,300.9,120.3Zm-7-54.66a3.36,3.36,0,0,0-.69-.24c-5.55-.54-11-.34-16.22,1.94-.18.08-.23.46-.35.69a2.58,2.58,0,0,0,1,.21c4.75-.86,9.29-3.26,14.34-1.83.25.07.62-.27.93-.4S293.5,65.78,293.88,65.64Zm10.17,431a11.45,11.45,0,0,0-1.57,1.87,5.29,5.29,0,0,0-.3,1.95,13.07,13.07,0,0,0,2.73-.05,16.21,16.21,0,0,0,3.33-1.21,7.07,7.07,0,0,0,1.44-1.2,10.57,10.57,0,0,0-1.65-.67C306.88,497.06,305.7,496.9,304.05,496.62Zm-14.87-214.2a11.24,11.24,0,0,0-.41,2c.05.77.19,1.54.3,2.31a8.37,8.37,0,0,0,1.05-2.23,17.36,17.36,0,0,0,.17-4.07c-.25-2.88-.62-5.74-1-8.6-.06-.45-.55-.84-.84-1.26a4.84,4.84,0,0,0-.58,1.81C288.28,276.07,288.81,279.74,289.18,282.42Zm84.32-90.85c.3,1.22.77,3.22,1.33,5.19.11.37.61.62.93.93.3-.36.91-.79.85-1.08-.53-2.51-1.16-5-1.81-7.48-.08-.28-.46-.48-.7-.72a2.55,2.55,0,0,0-.44.78A22.91,22.91,0,0,0,373.5,191.57ZM329,272c-.44-3.35-.82-6.37-1.25-9.37a1,1,0,0,0-.64-.65c-.14-.05-.62.33-.6.48.31,3.19.65,6.38,1,9.56.06.43.52.82.79,1.23Zm44.21,11.55a30.27,30.27,0,0,0,3.91-1c1.9-.77,4.34-.58,5.42-2.89-1.74.47-3.47,1-5.21,1.4-1.47.38-3,.67-4.42,1.06-.28.07-.49.4-.74.61ZM328.44,455.42a9.9,9.9,0,0,1,.28,1c.09.75.17,1.49.25,2.23a11.69,11.69,0,0,0,1.71-1.66,4.55,4.55,0,0,0,.67-1.91,14.5,14.5,0,0,0,0-2.28,11.65,11.65,0,0,0-2.6,1.28C328.35,454.35,328.47,455.24,328.44,455.42Zm-45.86-20c.92-.63,1.81-1.19,2.61-1.84.13-.1,0-.89-.12-.9a13.32,13.32,0,0,0-3.21-.1c-.53.09-1,.79-1.44,1.21Zm-13.14,37.05,2.71-.52-1.61-.64c-1.88-.74-3.76-1.51-5.66-2.21a2.59,2.59,0,0,0-1.06.06c.09.32.09.85.28.94C266,471,268,471.86,269.44,472.49ZM338,292l-1.3-2c-.77.82-2.28,1.78-2.16,2.43.21,1.08,1.47,1.95,2.29,2.9ZM299,415.65c.18-1,.37-1.85.45-2.7,0-.13-.59-.5-.77-.43-1.3.55-1.84,4.15-.87,5.52.1.14.25.36.34.34.25-.05.66-.18.67-.32C298.92,417.21,299,416.34,299,415.65Zm-88.46-55.74-.67.16c.33.32.6.75,1,.93,1.07.5,2.76-.7,3.35,1.27.06.2.82.18,1.25.27-.1-.63-.06-1.75-.3-1.82A45.1,45.1,0,0,0,210.53,359.91Zm40,26.38c-.14.67-.42,1.21-.28,1.6.28.78,3.79,2,4.31,1.61.15-.12.16-.72,0-.79C253.35,387.89,252,387.14,250.57,386.29Zm41.48,93.16c-.12-.22-.32-.68-.37-.66q-2.64.87-5.24,1.84c-.18.06-.24.41-.36.63l.47.18C287.94,481.9,291.41,480.67,292.05,479.45Zm30.73,18.2c2.22.32,3.2.72,4,.49.49-.14.72-1.23,1.07-1.89-.53-.11-1.12-.43-1.57-.3A26.79,26.79,0,0,0,322.78,497.65ZM198.72,343.28c-1-1-2.07-2.11-3.12-3.15a.42.42,0,0,0-.33.07c-.1.3-.31.77-.19.9a37.86,37.86,0,0,0,2.75,2.63c.16.14.55,0,.83,0C198.7,343.69,198.7,343.43,198.72,343.28Zm64.14,69.5a4.17,4.17,0,0,0-.5-.67c-.09-.09-.42-.11-.47,0-.76,1-1.5,2-2.21,3.06-.05.08.11.29.17.44.84-.63,1.71-1.25,2.53-1.92A3,3,0,0,0,262.86,412.78Zm-18.22-130c-.66-1.15-1.14-2-1.7-2.9-.1-.16-.7-.23-.75-.14a1.2,1.2,0,0,0-.23.94,8.06,8.06,0,0,0,1.18,2.06C243.32,283,244,282.77,244.64,282.77Zm-13.16-53.12a7.44,7.44,0,0,0-2.13-.19c-.33.08-.53.69-.79,1.06a5.46,5.46,0,0,0,1.72.49C230.59,231,230.88,230.37,231.48,229.65Zm99,272.65-1.95.49a13.92,13.92,0,0,0,1.58.82,9.4,9.4,0,0,0,1.93.54c.15,0,.39-.35.52-.58,0-.07-.13-.33-.26-.39C331.67,502.87,331.06,502.6,330.43,502.3ZM212.23,364.5v-.07a7,7,0,0,0-1,0,5.44,5.44,0,0,0-.93.27,4.11,4.11,0,0,0,1.15.49,19.42,19.42,0,0,0,2.53,0,4.31,4.31,0,0,0,.95-.29,6.5,6.5,0,0,0-1.16-.37A11,11,0,0,0,212.23,364.5Zm84.54-.5-1.13-1.61c-.2.23-.61.55-.55.7.34.91.78,1.79,1.19,2.68Zm10.29,158.32c-.46-.27-.83-.55-.88-.5-.61.59-1.18,1.22-1.76,1.84.27.09.66.33.81.23C305.86,523.44,306.41,522.89,307.06,522.32Zm-9.29-170.06c.27-1.2.57-2.45.84-3.71,0-.13-.15-.29-.24-.44a13.56,13.56,0,0,0-1.16,2.19,6.21,6.21,0,0,0,0,1.93ZM271.89,81.09l-.48.87c.43.16.87.49,1.29.45a7.41,7.41,0,0,0,1.76-.58c-.16-.34-.31-1-.48-1A11.55,11.55,0,0,0,271.89,81.09Zm41.32,373.24-.18-.92a2.8,2.8,0,0,0-.36.94,16.75,16.75,0,0,0,.23,1.87Zm-56.16-46.75,1.06-1.82c-.23-.08-.59-.31-.67-.23a4.53,4.53,0,0,0-.92,1.17C256.46,406.83,256.79,407.15,257.05,407.58Zm32,108.52c-.71,0-1.17,0-1.61,0,0,0-.05.32-.07.49a3.75,3.75,0,0,0,.94.06C288.54,516.66,288.69,516.43,289.09,516.1ZM312.35,91.18l-.37-1.3c-.16.19-.45.38-.45.56a9.86,9.86,0,0,0,.23,1.41Zm-41,339.91c-.64-.11-1.11-.21-1.59-.25-.12,0-.26.19-.39.29a4.93,4.93,0,0,0,1.13.51C270.69,431.67,270.94,431.36,271.34,431.09ZM242.73,274.34l-.46-.89a3.56,3.56,0,0,0-.27.92,3.47,3.47,0,0,0,.21.93ZM250,232.7l-.43.16c.09.08.19.24.26.22a4,4,0,0,0,.62-.25ZM292.32,409l-.18-.38c-.1.08-.28.19-.26.23a3.17,3.17,0,0,0,.28.55ZM243.19,269.42l.07.94a1.71,1.71,0,0,0,.26-.42.88.88,0,0,0-.05-.48S243.29,269.43,243.19,269.42Zm51.29,87.43-.2-.4a4.65,4.65,0,0,0-.28.79c0,.11.12.26.18.39Q294.35,357.24,294.48,356.85Zm-30.19,84,.79-.29c-.1-.12-.22-.35-.29-.34a6.42,6.42,0,0,0-.8.29Zm-2.09-.71-.18-.39c-.09.07-.28.18-.27.21.08.2.2.39.3.59Zm87-89.53.18-.37-.3,0ZM337.54,214.14l.27.17,0-.27ZM293.11,84.68l.18-.37-.29,0Zm-9,11.23-.26-.3,0,.56Zm14.26,246.83-.15.31.22,0ZM286,424.06l-.21-.18-.05.27ZM275.5,560.33l.19-.3-.32,0Z" transform="translate(-189.96 -47.65)"/><path d="M294.76,196.12c-2,0-4,.16-6,0a7.77,7.77,0,0,1-2.46-1.2l1.27-.61-1.14.75c-5.47-.06-11-.46-16.19,1.77-.51.22-1.26-.12-1.9-.19.27-.75.31-1.85.84-2.19,2.44-1.58,5-3,7.55-4.37a23.46,23.46,0,0,1,3.31-1.36c2-.72,3.66-2.82,6.32-.74.82.65,3.19-.63,4.83-1.08a21.38,21.38,0,0,1,3.93-1.15c2.06-.15.62,1.29.71,2l-3.2,1c-2.37-.24-4.56.06-6.13,2.13l-3.21,1a7.88,7.88,0,0,0-1.46,0,4.29,4.29,0,0,0-1,.54,3.43,3.43,0,0,0,1.36.16c.38-.11.66-.57,1-.87l3.2-1c2.36.19,4.61.05,6.15-2.12l3.29,0c.35.3.67.76,1.07.85a3.81,3.81,0,0,0,1.4-.27,5,5,0,0,0-1.13-.43,9.28,9.28,0,0,0-1.49,0l0-1.22,4.27.16-.13-.13,1.73.94c.8.43,1.74,1.11.78,1.9-2.33,1.9-.63,2.44.89,2.94a20.35,20.35,0,0,0,3.05.41c1.41.22,3.64-1.18,3.72,1.85a7.22,7.22,0,0,0,1.91.31,34.53,34.53,0,0,1,4.09.36c.42.09.67,1,1,1.49-.41.26-.91.81-1.22.72-4.25-1.28-9,1-13.11-2.05-.91-.68-2.95,0-4.43.31s-2.71.8-3.59-.86a1.74,1.74,0,0,0,.47-.16c.08-.05.08-.21.11-.32Zm4.61-3.4a3.9,3.9,0,0,0-.44-.51,5.05,5.05,0,0,0-.51.28Zm-3.13.58-.17.2.28.05Z" transform="translate(-189.96 -47.65)"/><path d="M343.54,175.33c-1-1.49-2.05-2.94-2.9-4.5-.12-.23.65-1.07,1.15-1.44.15-.11.95.32,1.13.67a22.36,22.36,0,0,1,1.08,2.79l1.53-.73.82-1.08-.55-.26-.13,1.46L344.44,169a1.67,1.67,0,0,0,.45-.13c.07-.05.08-.2.12-.31l-.43.58-1.88-1.62c.43-.22.85-.61,1.28-.62a7.22,7.22,0,0,1,2.25.33c.23.07.35.57.48.88.49,1.09,1,2.18,1.43,3.27a31.8,31.8,0,0,0,.32-3.75,5.63,5.63,0,0,0-.67-2.92c-1.42-2-2-3.19,1.36-2.37a1,1,0,0,0,.83-.49,1.49,1.49,0,0,0-.29-1.14c-.55-.63-1.37-1-1.81-1.73-.72-1.1.08-2.06,1.54-2l1.88.07c0-1-.23-2.31,1.3-2,.32.06.52,1.9.39,2.87-.22,1.67-.22,4-1.27,4.83-2.32,1.94-1.84,4.21-1.85,6.53,0,5.08-1.18,9.78-4.39,13.84-.21.28-.39.69-.66.77a3.21,3.21,0,0,1-1.77.17,1.4,1.4,0,0,1-.46-1.27c1.49-2.42.84-5,.81-7.58l1.21,0a7,7,0,0,0,.23,1.45c.08.22.47.32.72.48.07-.38.31-.91.15-1.1a3.86,3.86,0,0,0-1.23-.69l-.43-.75Z" transform="translate(-189.96 -47.65)"/><path d="M329.1,149.19c-1.23,1.74-2.22,1.19-3-.37a15.48,15.48,0,0,1-.72-1.9c-.2.58-.41,1.16-.58,1.75a5.37,5.37,0,0,1-.42,1.47c-.24.36-.77.52-1.18.76a2.57,2.57,0,0,1-.33-1c.09-1.19.2-2.38.4-3.56.33-1.91.73-3.8,1.11-5.7.76,1.48,1.46,3,2.34,4.44a3.88,3.88,0,0,0,1.61,1.2,4,4,0,0,0,1.27.19c0-.33.15-.7,0-1a7.9,7.9,0,0,1,.43-7.36c.75-1.43,1.35-1.22,2.14-.11.67.95,1.39,1.86,2.08,2.78l1,2.11a2.42,2.42,0,0,0,.13.46c0,.08.17.12.26.17l-.54-.49c-.33-.71-.66-1.41-1-2.12-.05-2.12,1.13-1.44,2.21-1l-.16-.16,2.22,4.21a21.45,21.45,0,0,0,.05,2.54,11.49,11.49,0,0,0,.62,1.91l1.42-1.26-.12-.14v5.38l.13-.15c-.37.51-.76,1-1.09,1.54a5.31,5.31,0,0,0-.35.92,2.55,2.55,0,0,1-.6-.35c-.1-.1-.07-.33-.1-.49-.38-2-.35-4.22-1.25-5.95s-2.67-2.75-4-4.13c-.62-.63-1.17-1.33-1.75-2a11.32,11.32,0,0,0-.16,2.52c.21,1.51.7,3,.91,4.49a5.64,5.64,0,0,1-.39,1.88l-1.76-1c-.3-.17-.61-.32-.91-.48-.09-.11-.17-.24-.27-.34s-.15-.05-.23-.08Z" transform="translate(-189.96 -47.65)"/><path d="M351.9,199.22c.49-1,.75-2.32,1.54-2.95a28.19,28.19,0,0,1,5.26-3.15c3.62-1.77,7.56-3.11,8.57-7.77.07-.31.8-.46,1.22-.69l-.12-.09c-.07,1.27-.48,3.56-.15,3.68,3.89,1.32.46,2-.26,2.51-.95.64-2.24.75-3.29,1.29a90,90,0,0,0-8.08,4.4c-1.87,1.2-1.76,1.77,0,3.45.57.55,1.81.91.76,1.84-.33.3-1.58-.1-2.16-.53s-.8-1.49-1.42-1.93c-.47-.34-1.32-.14-2-.19Z" transform="translate(-189.96 -47.65)"/><path d="M323.7,199.08a18.06,18.06,0,0,1-1.25,2.07c-2.45,3-4.91,6.11-7.46,9.08-.43.5-1.35.57-2,.85a6.34,6.34,0,0,1,0-2.3,15,15,0,0,1,1.82-3.08q4.14-5.82,8.37-11.59c.24-.33.78-.44,1.19-.66,0,.46.18,1,0,1.37-.61,1.22-1.35,2.37-2.05,3.55l1.53.82Z" transform="translate(-189.96 -47.65)"/><path d="M269.14,227.28a11.83,11.83,0,0,1,8.81,5.59c1.84,2.81,2.9,6.13,4.18,9.28.12.29-.6,1.06-1.07,1.4-.17.11-.93-.33-1.17-.69a4.62,4.62,0,0,1-.73-1.88c-.82-5.64-4.35-9.11-9.14-11.61a7.19,7.19,0,0,1-1.32-.76,1.08,1.08,0,0,1-.39-.87C268.37,227.53,268.84,227.43,269.14,227.28Z" transform="translate(-189.96 -47.65)"/><path d="M340.33,143.11a13.66,13.66,0,0,0,2.3-.72c2-1,2-1.07,2.24,1.54.07.63.63,1.25.59,1.85-.12,2.21-1.38.07-2,.47l-1.06-1.06-.58-.51.71.38,1.06,1.06c.37.91.69,1.85,1.12,2.73,1.42,3,1.42,3-1.09,5.79a2.72,2.72,0,0,1-.66.46c-1.46-1.89-1.35.29-1.89.72-.24-.31-.64-.61-.67-.93a19.44,19.44,0,0,1,.07-2.53l-.13.15c1.56-1.79,1.41-3.58,0-5.38l.12.14c0-1.43,0-2.85,0-4.27Z" transform="translate(-189.96 -47.65)"/><path d="M315.54,253.25l-2.2-.17.13.15a7.53,7.53,0,0,0-1.68-1c-.94-.27-2.35-.06-2.09-1.53.11-.6,1.2-1.2,2-1.48,1.16-.43,1.52.18,1.09,1.29a36.62,36.62,0,0,0,3.76-1c1.72-.67,1.91-.33,1.84,1.53-.08,2.27-.42,4-2.82,4.62a7.11,7.11,0,0,1-1.79,0c.38-.56.77-1.12,1.14-1.69.19-.28.34-.59.5-.88a2.41,2.41,0,0,0,.43-.17c.07,0,.08-.18.12-.27Z" transform="translate(-189.96 -47.65)"/><path d="M344.72,514.89c-.13-1.43-.38-3.81-.54-6.19a1.27,1.27,0,0,1,.53-1.08,1.56,1.56,0,0,1,1.38.2,5.37,5.37,0,0,1,1.3,2.71,41,41,0,0,1-.9,7.06,2.24,2.24,0,0,1-1.82,1.27c-1.4-.27-.32-1.28-.27-2C344.42,516.53,344.5,516.2,344.72,514.89Z" transform="translate(-189.96 -47.65)"/><path d="M339,535.71c1.49.22,2.49.34,3.47.51.45.08.88.25,1.31.37-.38.32-.72.78-1.17.91a2,2,0,0,1-1.49-.11c-1.45-.87-2.61-.78-3.36.83s-1,3.32,1,4.43c.45.26.89.51,1.31.81.1.07.16.38.09.45-.19.22-.51.57-.68.52-1.64-.49-3.32-.9-3.93-2.87a5.11,5.11,0,0,1,1.07-5.25C337.12,535.71,338.44,535.82,339,535.71Z" transform="translate(-189.96 -47.65)"/><path d="M328.78,559.76c-1,.81-2,1.63-3.12,2.4a2,2,0,0,1-.7-.85,15.45,15.45,0,0,1,0-2c-.05-1.3-.8-1.78-2-1.59-.84.12-1.67.33-2.52.41s-1.63,0-2.45,0c.63-.65,1.15-1.53,1.91-1.9,2.27-1.08,6.64.32,8.57,2.61A2.84,2.84,0,0,1,328.78,559.76Z" transform="translate(-189.96 -47.65)"/><path d="M350.72,529.27a26.86,26.86,0,0,1,3.79,3.83c.57.84.37,2.24.4,3.39,0,.28-.45.73-.77.81a3.83,3.83,0,0,1-1.81.06,1.43,1.43,0,0,1-.21-1.21c1.59-1.63.62-2.71-.7-3.76s-2.38-1.27-3.47.24c-.16.22-.73.14-1.1.2.14-.43.16-1,.46-1.25C348.23,530.85,349.25,530.24,350.72,529.27Z" transform="translate(-189.96 -47.65)"/><path d="M312.34,237.53c.1.07.36.17.36.26,0,.27,0,.67-.21.78-1.3.83-2.65,1.59-4,2.4s-2.85,1.86-4.32,2.72a10.81,10.81,0,0,1-2,.68,8.19,8.19,0,0,1,.41-1.87,3.19,3.19,0,0,1,1.2-1.58c2.44-1.21,4.95-2.29,7.45-3.37A2.92,2.92,0,0,1,312.34,237.53Z" transform="translate(-189.96 -47.65)"/><path d="M359,546a12.07,12.07,0,0,1-.09,2.56c-.41,1.72-1.8,2.08-3.23,1.62s-1.73-1.48-1-2.86c.48-.88.65-1.94,1.13-2.83.16-.28.88-.26,1.34-.38,0,.42-.08.84-.08,1.26,0,2.06,1.27.8,2.07.77Z" transform="translate(-189.96 -47.65)"/><path d="M277.17,52.8c3.39-3.39,7.68-4.65,12.29-5.11a4.65,4.65,0,0,1,1.47.33,4,4,0,0,1-.78.47c-4.37,1.4-8.74,2.78-13.12,4.17Z" transform="translate(-189.96 -47.65)"/><path d="M304.1,232.44l3.09-3.1-.12-.13h1.22l-.12.12,3.2-3a38.31,38.31,0,0,1-2.27,4.53c-1.22,1.83-3.25,1.5-5.11,1.47Z" transform="translate(-189.96 -47.65)"/><path d="M326.94,204.27c-.46.48-.89,1-1.38,1.41a1.66,1.66,0,0,1-.87.34c-.25-.36-.63-1-.5-1.19,1-1.84,2.44-3.4,4.67-3.61.64-.07,1.36.65,2,1a5.23,5.23,0,0,1-1.11,1.5,6.49,6.49,0,0,1-1.92.55l.13.12-.16-1.14a2.76,2.76,0,0,0,.39-.18c.07,0,.1-.15.15-.22l-.4.54-1.18,1Z" transform="translate(-189.96 -47.65)"/><path d="M360.18,544c.11-2.81,2.33-2.3,3.65-1.79a3.59,3.59,0,0,1,2.52,4,7.3,7.3,0,0,1-.5,1.29,5.2,5.2,0,0,1-.39-.91c-.7-3.13-3.41-2.16-5.39-2.67Z" transform="translate(-189.96 -47.65)"/><path d="M318.52,135.83c2.45,2.8,2.3,6.2,2.13,9.56,0,.51-.85,1-1.3,1.45a10.78,10.78,0,0,1-.28-1.57c0-1.49,0-3,0-4.48-.08-1.69-.25-3.38-.38-5.07Z" transform="translate(-189.96 -47.65)"/><path d="M334,232c-.07.31,0,.76-.22.9-2.08,1.51-4.18,3-6.3,4.41a1,1,0,0,1-.89-.15.83.83,0,0,1,0-.82q3.24-2.43,6.57-4.76C333.28,231.45,333.7,231.8,334,232Z" transform="translate(-189.96 -47.65)"/><path d="M394.41,547l-7.34-1.07.16.17c3.34-2.58,5.14-2.31,7,1Z" transform="translate(-189.96 -47.65)"/><path d="M323.81,199.19l2.39-3.28c.36-.49,4.05-.89,4.16-.43a1.36,1.36,0,0,1-.51,1.21c-2,.86-4.09,1.61-6.15,2.39Z" transform="translate(-189.96 -47.65)"/><path d="M346.5,540.76c-.06,1,0,2.72-.21,2.77a19.9,19.9,0,0,1-4.3.06s-.12-1.05,0-1.09c1.53-.58,3.1-1.06,4.66-1.57Z" transform="translate(-189.96 -47.65)"/><path d="M190.88,255.19c-2.08-3.2-.3-5.28,2.08-7.19l-.1-.08c-.7,2.45-1.39,4.9-2.09,7.35Z" transform="translate(-189.96 -47.65)"/><path d="M301,51.59l-2.37-1.42-2.07-1.33a6.78,6.78,0,0,1,2.44-.1,33.19,33.19,0,0,1,4,1.94l.15-.14-2.25,1.19Z" transform="translate(-189.96 -47.65)"/><path d="M336.31,140a9,9,0,0,1-.05-2c.05-.29.84-.73.9-.68,1.66,1.58,3.93,2.85,3.17,5.76l.11-.11-1.12.11c-.27-1.85-1.1-3.14-3.17-3.24Z" transform="translate(-189.96 -47.65)"/><path d="M363.29,179.47c.39-1.45.71-2.92,1.2-4.34a1.32,1.32,0,0,1,1.19-.54,1.53,1.53,0,0,1,.63,1.25,3.76,3.76,0,0,1-3.11,3.53Z" transform="translate(-189.96 -47.65)"/><path d="M354.67,521.19c-.31.24-.87.7-1.44,1.14s-1.25.73-1.12-.44a25.86,25.86,0,0,1,.74-3.45,4.46,4.46,0,0,1,.63-1,5.38,5.38,0,0,1,.44.86C354.16,519.07,354.34,519.88,354.67,521.19Z" transform="translate(-189.96 -47.65)"/><path d="M345.64,558.52c.4-1.82-.34-2.95-2-3.64-.36-.14-.52-.77-.78-1.17.65-.05,1.41-.33,1.91-.09,2.26,1.11,2.32,1.74.74,4.75Z" transform="translate(-189.96 -47.65)"/><path d="M365.88,551.09a3.26,3.26,0,0,1-1.52-.29c-.48-.32-.68-1.07-1-1.63a5.28,5.28,0,0,1,1.47-.12,10.86,10.86,0,0,1,2.43.75c.4.18.66.68,1,1l-1.41.26A9,9,0,0,1,365.88,551.09Z" transform="translate(-189.96 -47.65)"/><path d="M363.2,179.37l-4.13,4.14.12.15c.84-4.1.84-4.1,4.1-4.19Z" transform="translate(-189.96 -47.65)"/><path d="M334.43,555.83l1.51,1.25a6.83,6.83,0,0,1-1.94,1.17c-.49.09-1.11-.46-1.67-.72Z" transform="translate(-189.96 -47.65)"/><path d="M380,549.23l2-1.63,2,2.82c-.37,0-1,.24-1.08.11a2.92,2.92,0,0,0-3.06-1.44Z" transform="translate(-189.96 -47.65)"/><path d="M336.17,201.19c-.69,1.13-1.33,2.29-2.1,3.36-.21.29-.79.31-1.21.45a4.17,4.17,0,0,1,.12-1.29c.65-1.4,1.42-2.71,3.32-2.4Z" transform="translate(-189.96 -47.65)"/><path d="M351.19,147l1.55-1.67c.41.43,1,.81,1.16,1.33.1.31-.45,1.19-.69,1.18A6.63,6.63,0,0,1,351.19,147Z" transform="translate(-189.96 -47.65)"/><path d="M378.72,543.88c-.61,1.08-1.41,2.14-2.72,1.3-.66-.41-.89-1.5-1.31-2.29l-.06.06,4.25,1.08Z" transform="translate(-189.96 -47.65)"/><path d="M254.25,148.31c.27-.77.34-1.73.86-2.24s1.49-.57,2.26-.83a8.22,8.22,0,0,1-1.15,1.61,14.9,14.9,0,0,1-2.09,1.34Z" transform="translate(-189.96 -47.65)"/><path d="M349.6,536.07l-.54,1.08L347,535.07c.13-.09.32-.31.38-.27C348.14,535.21,348.88,535.65,349.6,536.07Z" transform="translate(-189.96 -47.65)"/><path d="M356.69,538.49c.48.4,1.06.87,1.6,1.39.06.06-.19.44-.3.67l-2.46-1.43Z" transform="translate(-189.96 -47.65)"/><path d="M359.07,183.51l-3.36,1.76-.16-.39,3.64-1.22Z" transform="translate(-189.96 -47.65)"/><path d="M340.34,197l-3.09,3.1.13.14c.06-2,.82-3.28,3.05-3.15Z" transform="translate(-189.96 -47.65)"/><path d="M304,232.32a25.92,25.92,0,0,1-1.67,2.42c-.2.24-.77.17-1.17.23.1-.44.06-1.11.33-1.28a20.31,20.31,0,0,1,2.62-1.25Z" transform="translate(-189.96 -47.65)"/><path d="M317.51,238.83c-.91.4-1.41.8-1.65.68a5.57,5.57,0,0,1-1.24-1.19c.27-.17.59-.52.81-.46A13.94,13.94,0,0,1,317.51,238.83Z" transform="translate(-189.96 -47.65)"/><path d="M302.93,51.6l.46,1.75c-1.5.37-2-.6-2.43-1.76l-.12.14h2.23Z" transform="translate(-189.96 -47.65)"/><path d="M394.22,542.94a7.81,7.81,0,0,1-1.3.76c-.07,0-.51-.5-.46-.7a3.28,3.28,0,0,1,.64-1Z" transform="translate(-189.96 -47.65)"/><path d="M285.19,56.71c-.34-.37-.71-.66-.66-.75a14,14,0,0,1,.93-1.59c.24.23.72.57.67.7A11.59,11.59,0,0,1,285.19,56.71Z" transform="translate(-189.96 -47.65)"/><path d="M250,153.41c.27,1.7-.61,2.61-2.1,3.1l.13.12v-2.25l-.15.19,2.2-1.07Z" transform="translate(-189.96 -47.65)"/><path d="M344.49,560.55a2.55,2.55,0,0,1-.24,1,4.07,4.07,0,0,1-1,.78s-.33-.22-.32-.32c.06-.4.07-1,.32-1.14a3.45,3.45,0,0,1,1.42-.12Z" transform="translate(-189.96 -47.65)"/><path d="M248,163.9a12.87,12.87,0,0,1,1.75-1.41c.21-.12.68.22,1,.35-.18.26-.32.69-.53.73a23.62,23.62,0,0,1-2.38.2Z" transform="translate(-189.96 -47.65)"/><path d="M406.8,547.15l1.89.78-.9,1-.86-1.87Z" transform="translate(-189.96 -47.65)"/><path d="M250.08,153.5a2.58,2.58,0,0,1,2.08-3.12l-.1-.1a2.59,2.59,0,0,1-2.07,3.13Z" transform="translate(-189.96 -47.65)"/><path d="M380.86,541.88l-2.14,2,.16.15c0-1.47.52-2.3,2.14-2Z" transform="translate(-189.96 -47.65)"/><path d="M249.06,167c-.31-2.21,1-1.43,2-1.06l-.13-.15-2,1.08Z" transform="translate(-189.96 -47.65)"/><path d="M387.07,545.94a5,5,0,0,1-.73,1.3c-.18.16-.7,0-1.07-.09.15-.27.24-.7.47-.79a6.63,6.63,0,0,1,1.49-.25Z" transform="translate(-189.96 -47.65)"/><path d="M305.15,51.59h-2.22l.14.14,0-1.2-.15.14,2.11,1Z" transform="translate(-189.96 -47.65)"/><path d="M275,53.78l2.16-1-.14-.14-2.12,1Z" transform="translate(-189.96 -47.65)"/><path d="M273.86,54.74c-.33.27-.65.57-1,.82-.05,0-.23-.12-.35-.19l1.49-.5Z" transform="translate(-189.96 -47.65)"/><path d="M327.87,204.28l-.29,1.42-.64-1.43-.14.13H328Z" transform="translate(-189.96 -47.65)"/><path d="M346.66,540.93c.32-.3.63-.61,1-.88.05,0,.26.12.39.19l-1.52.52Z" transform="translate(-189.96 -47.65)"/><path d="M350.84,541.9l1-.76.22.52-1.34.1Z" transform="translate(-189.96 -47.65)"/><path d="M358.24,542.24l.12.32a2.07,2.07,0,0,1-.49.12s-.07-.22-.11-.34Z" transform="translate(-189.96 -47.65)"/><path d="M349.66,542.89c-.44.26-.88.52-1.34.75,0,0-.17-.21-.27-.32.44-.12.87-.25,1.31-.35a1.26,1.26,0,0,1,.46.07Z" transform="translate(-189.96 -47.65)"/><path d="M253.08,164.85l-2.13,1,.13.15,2.15-1Z" transform="translate(-189.96 -47.65)"/><path d="M359.22,546.17c-.14-.92-.72-2,1-2.16l-.11-.11L359,546Z" transform="translate(-189.96 -47.65)"/><path d="M404.87,545.09c.34-.34.68-.68,1-1,0,0,.21.2.33.3l-1.47.57Z" transform="translate(-189.96 -47.65)"/><path d="M313.34,253.08l-1,.91-.35-.55,1.47-.21Z" transform="translate(-189.96 -47.65)"/><path d="M379.83,549.09l-2.11,1,.12.11,0-1.15-.13.13H380Z" transform="translate(-189.96 -47.65)"/><path d="M377.72,550.13l-.26,1.41-.53-.49.91-.81Z" transform="translate(-189.96 -47.65)"/><path d="M345.47,558.37l-1,2.18.18.15c-.38-1-.17-1.82,1-2.18Z" transform="translate(-189.96 -47.65)"/><path d="M305.59,563.12c-.13.07-.33.23-.38.2a2.32,2.32,0,0,1-.33-.47,1.18,1.18,0,0,1,.45,0C305.44,562.85,305.51,563,305.59,563.12Z" transform="translate(-189.96 -47.65)"/><path d="M307.19,229.34c.32-1.06.65-.74,1,0l.12-.12h-1.22Z" transform="translate(-189.96 -47.65)"/><path d="M274,54.87l1-1.09-.1-.09-1.05,1.05Z" transform="translate(-189.96 -47.65)"/><path d="M336.3,201.31l1.08-1.05-.13-.14-1.08,1.07Z" transform="translate(-189.96 -47.65)"/><path d="M350.82,200.25l1.08-1-.15-.13-1,1Z" transform="translate(-189.96 -47.65)"/><path d="M341.35,196l-1,1.05.09.09,1-1Z" transform="translate(-189.96 -47.65)"/><path d="M342.38,194.94c-.34.34-.69.68-1,1l.11.11,1.05-1Z" transform="translate(-189.96 -47.65)"/><path d="M342.51,195.07l.48-.54c-.06.1-.08.23-.16.28a2.32,2.32,0,0,1-.45.13Z" transform="translate(-189.96 -47.65)"/><path d="M254.13,148.19l-1,1.06.1.1,1-1Z" transform="translate(-189.96 -47.65)"/><path d="M252.16,150.38l1.05-1-.1-.1-1.05,1Z" transform="translate(-189.96 -47.65)"/><path d="M350.69,541.75l-1,1.14.16.15,1-1.14Z" transform="translate(-189.96 -47.65)"/><path d="M299.94,187.8l.48-.56c0,.11-.06.27-.14.31a1.8,1.8,0,0,1-.47.12Z" transform="translate(-189.96 -47.65)"/><path d="M404.76,545l-.4.72-.27-.5.78-.09Z" transform="translate(-189.96 -47.65)"/><polygon points="223.94 497.97 223.58 498.13 223.62 497.74 223.94 497.97"/><path d="M245.94,166l1-1-.13-.13-1,1Z" transform="translate(-189.96 -47.65)"/><path d="M406.93,547l-.83-.44.7.56Z" transform="translate(-189.96 -47.65)"/><path d="M253.23,165l.37-.63c0,.1,0,.24-.09.29a2.46,2.46,0,0,1-.43.21Z" transform="translate(-189.96 -47.65)"/><path d="M247,165,248,163.9l-.12-.13-1.07,1.06Z" transform="translate(-189.96 -47.65)"/><path d="M394.28,547.14l.42.16-.29-.29Z" transform="translate(-189.96 -47.65)"/><polygon points="226.85 499.64 226.99 500.01 226.64 499.97 226.85 499.64"/><polygon points="181.23 501.09 180.83 501.21 180.89 500.86 181.23 501.09"/><path d="M377.86,549.09l-.5-.36c.1,0,.24,0,.27.1a1.24,1.24,0,0,1,.1.39Z" transform="translate(-189.96 -47.65)"/><path d="M331.89,282.86c-.29.52-.41,1.11-.76,1.33q-8.49,5.46-17,10.82a23.75,23.75,0,0,0-8,7.82c-1.85,3-3.88,5.89-5.57,9a16.24,16.24,0,0,1-4.08,4.24,3.83,3.83,0,0,1-2.42.35c-.36,0-.76-.58-1-1-.09-.14.2-.61.43-.8a55.42,55.42,0,0,0,8.47-9.85,62.68,62.68,0,0,1,10.78-11.06c4.36-3.58,9.27-6.5,14-9.65a19.65,19.65,0,0,1,3.68-1.81C330.73,282.17,331.29,282.62,331.89,282.86Z" transform="translate(-189.96 -47.65)"/><path d="M273.88,323.44c0,.16,0,.42-.09.47-.24.14-.62.34-.8.25a4.19,4.19,0,0,1-1.19-1c-1.77-2.07-3.45-4.23-5.3-6.22-1-1.11-1.32-1.95,0-2.91s1.23.33,1.91.86c1.94,1.5,3.29,3,3.6,5.55C272.18,321.53,273.24,322.46,273.88,323.44Z" transform="translate(-189.96 -47.65)"/><path d="M338.28,362.27a3.11,3.11,0,0,1,.61,4.49c-1.91,2.21-1.36,4.19-.66,6.5a11.78,11.78,0,0,1,0,3.51l.15-.12c-1-2.44-2.24-4.84-3.1-7.34-.41-1.2-.67-2.62,1.38-3.2,1.86-.53,1.42-2.53,1.73-4Z" transform="translate(-189.96 -47.65)"/><path d="M274,343.44a17.17,17.17,0,0,1-3.41-.68c-3.31-1.41-6.56-2.95-9.79-4.52-.47-.23-.73-.9-1.08-1.37a6.69,6.69,0,0,1,1.82-.15,7.41,7.41,0,0,1,2.42.84c3.33,2,6.63,4,9.94,6Z" transform="translate(-189.96 -47.65)"/><path d="M326.27,293.79c-1.41.35-3.32.87-5.25,1.28-.39.08-.87-.22-1.3-.35.22-.38.36-1,.69-1.11,1.4-.6,2.89-1,4.27-1.61,1.55-.69,2.61.11,3.63,1,.28.23.27.82.31,1.25a1.59,1.59,0,0,1-.82.2A8.25,8.25,0,0,1,326.27,293.79Z" transform="translate(-189.96 -47.65)"/><path d="M259.65,383.37a13.72,13.72,0,0,1-2.48-1,7,7,0,0,1-1.32-1.56c.58-.28,1.19-.85,1.74-.79a8.84,8.84,0,0,1,2.81,1c.34.17.74.95.62,1.16A5.7,5.7,0,0,1,259.65,383.37Z" transform="translate(-189.96 -47.65)"/><path d="M307,322.14c-.25.44-.34.83-.59,1-1.51,1.14-3,2.26-4.62,3.29-.32.21-.9,0-1.35,0,.09-.29.09-.7.29-.85,1.6-1.27,3.22-2.53,4.9-3.69C305.86,321.71,306.47,322,307,322.14Z" transform="translate(-189.96 -47.65)"/><path d="M255.05,302.24c1.18,1.79,2,3,2.75,4.23,0,.06-.11.34-.23.39-.28.11-.76.31-.87.2a23.26,23.26,0,0,1-2.35-2.72C254.2,304.12,254.6,303.52,255.05,302.24Z" transform="translate(-189.96 -47.65)"/><path d="M276,369.42c-1.1,1.74-1.77,2.82-2.48,3.86a2,2,0,0,1-.8-.34,36.09,36.09,0,0,1,.77-3.69,1,1,0,0,1,.83-.45A7.86,7.86,0,0,1,276,369.42Z" transform="translate(-189.96 -47.65)"/><path d="M336.13,391.1l-5.07,2.22c-.16-.38-.46-1.08-.44-1.09,1.46-.69,2.94-1.34,4.44-1.93C335.19,390.25,335.49,390.61,336.13,391.1Z" transform="translate(-189.96 -47.65)"/><path d="M259,374.47c-1.1.62-1.66,1.19-2.13,1.13s-1-.71-1.45-1.1c.46-.36.89-1,1.38-1S257.87,373.93,259,374.47Z" transform="translate(-189.96 -47.65)"/><path d="M337.45,316c.68.77,1.34,1.22,1.28,1.52a5.29,5.29,0,0,1-1,1.64c-.44-.45-1.07-.84-1.25-1.38C336.39,317.4,337,316.84,337.45,316Z" transform="translate(-189.96 -47.65)"/><path d="M266,312.53c-.85.33-1.36.73-1.64.6A6.23,6.23,0,0,1,263,312c.48-.23,1-.71,1.44-.64S265.29,312,266,312.53Z" transform="translate(-189.96 -47.65)"/><path d="M290.27,294.81c.71,1.16,1.14,1.56,1.08,1.84s-.61.55-.94.82c-.26-.34-.69-.66-.73-1S290,295.61,290.27,294.81Z" transform="translate(-189.96 -47.65)"/><path d="M294.93,294.34c-.42.51-.66,1.08-1,1.13s-.7-.44-1.05-.7c.25-.35.44-.88.77-1S294.39,294.09,294.93,294.34Z" transform="translate(-189.96 -47.65)"/><path d="M338.25,376.77a5.78,5.78,0,0,1,1,1.51c.1.31-.31.78-.5,1.18-.15-.28-.41-.56-.42-.84a16.27,16.27,0,0,1,.06-2Z" transform="translate(-189.96 -47.65)"/><path d="M298.45,292.08c-.2-.16-.52-.31-.54-.5s.19-.49.31-.74c.19.16.53.3.54.47S298.56,291.82,298.45,292.08Z" transform="translate(-189.96 -47.65)"/><path d="M338.41,362.13l-.74-.29.61.43Z" transform="translate(-189.96 -47.65)"/><path d="M379.79,235.61c-.65.3-1.12.73-1.44.64-1.59-.46-3.15-1.09-3,1.64a2.47,2.47,0,0,1-1.49.33,9.18,9.18,0,0,1-2.86-1.05c-1.29-.81-3.62.06-3.88-2.38,1.44.26,2.86.63,4.31.76a10.79,10.79,0,0,0,2.76-.28c1.46-.22,2.9-.56,4.37-.71C378.87,234.53,379.25,235.13,379.79,235.61Z" transform="translate(-189.96 -47.65)"/><path d="M371.59,205.33c-2.31-.3-4.63-.57-6.94-.93-.41-.06-.77-.49-1.16-.75.43-.45.8-1.2,1.3-1.3,2.93-.58,5.26.33,6.72,3.08Z" transform="translate(-189.96 -47.65)"/><path d="M371.51,205.43a14.52,14.52,0,0,0,2.08-1.81c.37-.49.18-1.43.57-1.86a2.21,2.21,0,0,1,1.73-.26,1.39,1.39,0,0,1,.43,1.24,15.09,15.09,0,0,1-2.42,3.86c-1.56,1.5-2.31.59-2.31-1.27Z" transform="translate(-189.96 -47.65)"/><path d="M378.67,225.79c-.86.6-1.51,1.19-1.62,1.1a28.71,28.71,0,0,1-2.34-2.21c.27-.16.62-.5.8-.43C376.48,224.66,377.41,225.16,378.67,225.79Z" transform="translate(-189.96 -47.65)"/><path d="M378.58,203.48c.48,1.51.83,2.61,1.16,3.72a.64.64,0,0,1-.2.43c-.24,0-.61-.1-.68-.26a29.47,29.47,0,0,1-1-2.87C377.83,204.34,378.16,204.07,378.58,203.48Z" transform="translate(-189.96 -47.65)"/><path d="M362.15,230.33c.6,1.2,1.19,2.39,1.77,3.6,0,0-.27.21-.32.18-1.5-.94-1.6-2.36-1.31-3.9Z" transform="translate(-189.96 -47.65)"/><path d="M376.33,247.43c-.28.14-.75.44-.8.38a5.9,5.9,0,0,1-.58-1.05c.28,0,.63-.21.82-.1S376.15,247.16,376.33,247.43Z" transform="translate(-189.96 -47.65)"/><path d="M371.77,271c.11.11.23.21.35.31a4.12,4.12,0,0,1-.83.3c-.09,0-.23-.19-.34-.29Z" transform="translate(-189.96 -47.65)"/><path d="M382,268.77l.39-.5a.58.58,0,0,1-.16.21,2.39,2.39,0,0,1-.37.15Z" transform="translate(-189.96 -47.65)"/><path d="M381.88,268.63l-.47.57a.65.65,0,0,1,.17-.25,2.89,2.89,0,0,1,.44-.18Z" transform="translate(-189.96 -47.65)"/><path d="M211.67,203.36c-.19-.64-.72-1.44-.5-1.88a21.65,21.65,0,0,1,2.16-3.14c.24.22.73.5.7.64a25.4,25.4,0,0,1-1.16,3.65c-.15.33-.87.42-1.33.62Z" transform="translate(-189.96 -47.65)"/><path d="M218.19,165.86a7.28,7.28,0,0,1,.62,2c0,.3-.65.56-1,.84a5.37,5.37,0,0,1-.82-1.57C217,166.92,217.55,166.54,218.19,165.86Z" transform="translate(-189.96 -47.65)"/><path d="M208.59,220.87l-2.26,2.26C206.28,221.58,207,220.78,208.59,220.87Z" transform="translate(-189.96 -47.65)"/><path d="M219.27,171.37c-1,.43-1.43.74-1.55.65a4.84,4.84,0,0,1-.79-1c.26-.13.55-.41.77-.36A9.72,9.72,0,0,1,219.27,171.37Z" transform="translate(-189.96 -47.65)"/><path d="M394.35,298.79c-.63,1.25-1.24,2.45-3,1.21a9.56,9.56,0,0,0-2.12-1c-.77-.31-1.56-.57-2.35-.85.9-.41,1.78-.87,2.7-1.22,2.22-.84,3.22,1.37,4.85,2Z" transform="translate(-189.96 -47.65)"/><path d="M385.4,294.77l-1-.58a9.17,9.17,0,0,1,1-1c.05,0,.63.39.6.51A4.33,4.33,0,0,1,385.4,294.77Z" transform="translate(-189.96 -47.65)"/><path d="M389.13,328v-1.18c.16,0,.36,0,.47,0,.55.37,1.07.78,1.6,1.17Z" transform="translate(-189.96 -47.65)"/><path d="M399.92,316.38a4.79,4.79,0,0,1,.64,1c0,.13-.37.4-.57.6l-1-1Z" transform="translate(-189.96 -47.65)"/><path d="M382.45,289.93l-.25-.41.56-.31a1.21,1.21,0,0,1,0,.49C382.76,289.8,382.57,289.85,382.45,289.93Z" transform="translate(-189.96 -47.65)"/><path d="M197.9,249.75a36.37,36.37,0,0,1-.9,3.57,1.31,1.31,0,0,1-1.13.61,1.39,1.39,0,0,1-.74-1.1,16.39,16.39,0,0,1,.48-3.42c.07-.24.89-.44,1.33-.38S197.64,249.54,197.9,249.75Z" transform="translate(-189.96 -47.65)"/><path d="M198.16,301c1.8-5.08,6.67-6.86,10.83-3.93.22.16.25.57.38.87-.28.1-.56.31-.82.29a2.39,2.39,0,0,1-1-.38c-2.65-1.58-4.76-1.14-6.62,1.42-.59.82-1.93,1.09-2.93,1.61Z" transform="translate(-189.96 -47.65)"/><path d="M199.05,290.62c.39-1.67,1.7-2,3.12-2.15a34.29,34.29,0,0,0,5.11-.5c2.87-.74,2.13,1.29,2.31,2.67C206.08,288.33,202.57,289.81,199.05,290.62Z" transform="translate(-189.96 -47.65)"/><path d="M201.33,302.76a9.89,9.89,0,0,1-.52,1.52c-.44.79-1,1.53-1.45,2.29-.31-.37-1-.87-.87-1.1a34.47,34.47,0,0,1,1.58-3.38Z" transform="translate(-189.96 -47.65)"/><path d="M205.75,303.32a12.3,12.3,0,0,1-2.37-.33,1.14,1.14,0,0,1-.31-1.06c.86-1.19,3.26-1.07,3.78.22C207,302.38,206,303,205.75,303.32Z" transform="translate(-189.96 -47.65)"/><path d="M210.32,315.63l1,.39a6.5,6.5,0,0,1-.55,1.16c0,.05-.79-.22-.78-.32A5.27,5.27,0,0,1,210.32,315.63Z" transform="translate(-189.96 -47.65)"/><path d="M198.34,316.77c-.55.32-1,.74-1.26.68s-.79-.69-.72-.91a1.36,1.36,0,0,1,1-.8C197.61,315.73,197.91,316.3,198.34,316.77Z" transform="translate(-189.96 -47.65)"/><path d="M209.45,290.48l3.29,2.2C211.18,292.64,209.9,292.18,209.45,290.48Z" transform="translate(-189.96 -47.65)"/><path d="M208.57,328.9a4.2,4.2,0,0,1-.94,0,3.33,3.33,0,0,1-.77-.4c.26-.13.64-.43.76-.35a4.57,4.57,0,0,1,.82.92Z" transform="translate(-189.96 -47.65)"/><path d="M211.52,342.67l-.49.69c-.13-.25-.39-.51-.38-.75s.29-.47.45-.71Z" transform="translate(-189.96 -47.65)"/><path d="M198,300.85l-.45.61c0-.11,0-.28.1-.33a1.74,1.74,0,0,1,.47-.16Z" transform="translate(-189.96 -47.65)"/><path d="M212.56,292.54l1.22,1.22Z" transform="translate(-189.96 -47.65)"/><path d="M294.78,97.44a12.2,12.2,0,0,0-1.41-2.71c-.39-.46-2.32.6-1.45-1.29.59-1.27,1.72-.92,2.62-.29,1.87,1.29,1.87,2.4.12,4.19Z" transform="translate(-189.96 -47.65)"/><path d="M291.3,88.31a1.62,1.62,0,0,1-.31.09,3.26,3.26,0,0,1-.15-.44l.5-.12Z" transform="translate(-189.96 -47.65)"/><path d="M291.06,91.3l.36.4-.71,0Z" transform="translate(-189.96 -47.65)"/><path d="M302.06,99.52h-1.24l.42-.75Z" transform="translate(-189.96 -47.65)"/><path d="M289.55,135.23c-3.86,0-6.44-2.28-6.49-5.71a6.15,6.15,0,0,1,6.22-6.15c3.62-.14,6.54,2.4,6.57,5.71A6.61,6.61,0,0,1,289.55,135.23Z" transform="translate(-189.96 -47.65)"/><path d="M335.11,429.62l1.21,1.22Z" transform="translate(-189.96 -47.65)"/><path d="M327.85,464.11c2.39-1.57,5.5-2,7.27-4.6.08-.12.52,0,.77,0,.07,0,.11.3.09.45-.23,3-4.36,6.27-7.39,5.73-.31-.06-.42-1.17-.62-1.79Z" transform="translate(-189.96 -47.65)"/><path d="M332,467c-.67.36-1.35.71-2,1.06l.15.15,2-1.06Z" transform="translate(-189.96 -47.65)"/><path d="M330.08,469.1l-1.77-.42,1.79-.45-.15-.15v1.16Z" transform="translate(-189.96 -47.65)"/><path d="M332.12,467.17l.92-.85.3.49L332,467Z" transform="translate(-189.96 -47.65)"/><path d="M325.78,467.19V466C326.74,466.35,326.77,466.77,325.78,467.19Z" transform="translate(-189.96 -47.65)"/><path d="M325.93,470.16l-.61-.43c.12,0,.29,0,.34.1a1.45,1.45,0,0,1,.14.46Z" transform="translate(-189.96 -47.65)"/><path d="M338.23,144.19l1.22-1.24Z" transform="translate(-189.96 -47.65)"/></svg>