<svg id="Capa_1" data-name="Capa 1" xmlns="http://www.w3.org/2000/svg" viewBox="0 0 334.52 511.35"><defs><style>.cls-1{fill:#fff;}.cls-2{fill:none;stroke:#000;stroke-miterlimit:10;stroke-width:2.91px;}</style></defs><title>vector de hijitus</title><path class="cls-1" d="M298.27,518.33s-40.94-6.73-22.12,18.36c0,0,25.48,39,47.56-2.41,0,0,35.13-53.18,26.08-103.71,0,0,43.34-3.94,40.76,49.27l.44,5.71s33.57-46.62,20.57-74c0,0-9.55-18.88-44.92-29,0,0-22.57-18.29-34.3-40.23,0,0,76.42,24.59,102.31-48.46,0,0,48-72.9-38.82-140.36,0,0-86.62-60.38-117.13-52.41,0,0-91.2,20.56-110.79,106.6,0,0,4.56,23.69,12,36.42,0,0-49.83,23.81-44.12,52.41,0,0,11.27.55,17.69,9.77,0,0,11.82,16.32,20.9-7.54,0,0,22.11-3.34,20.52-19.35,0,0,19.18,6.62,18.43,14.46,0,0-14.27-1.82-10.71,21.89,0,0-8.09,13.68-7.17,17.29,0,0-18.38,16-14.45,33.44s8.46,24.59,8.46,24.59,4-29.13,9.08-40.13c0,0,14.07,5.05,28.79,31.59,0,0-45.87-4.15-14.81,46.35,0,0-27.28,18.6,8.31,48.91,0,0,55.46,36.47,36.12-31.07,0,0,21,.76,36.31,23.89A108.88,108.88,0,0,1,298.27,518.33Z" transform="translate(-133.04 -42.93)"/><path d="M183.18,349c1-1.86,10.66-16.71,12-19.2a33.4,33.4,0,0,1,4.65-18.38c1.7-3,.12-5.28-.51-7.74-1.18-4.68.51-8.75,5-10.4,1.82-.68,3.77-1,6-1.57-3-6.11-8.25-9.35-15.36-12.29,1.33,3.69,1.54,6.33.35,9.09-2.16,5-5.23,8.41-11,9.17-3.5.46-6.6,1.32-8.11,5.75a12.73,12.73,0,0,1-9.16,8.48c-5.46,1.35-12-.5-15.29-5.05-.63-.87-1.14-1.83-1.8-2.68-.89-1.15-1.87-2.23-2.58-3.06-6.87-.69-12.25-2.73-14.29-9.6v-6.2c4.63-10.44,11.9-19,21-26.13a62,62,0,0,0,4.49-4.53,43.92,43.92,0,0,1,20.1-11c-2-4.64-3.86-9.09-5.81-13.5A59.34,59.34,0,0,1,168,202.7c.33-6.51,2.32-12.72,4.85-18.65,3.39-8,7.18-15.76,12.42-22.72a119.84,119.84,0,0,1,20.1-21.27c3.37-2.73,6.59-5.65,9.89-8.48a243.72,243.72,0,0,1,33.42-23.94c6.27-3.75,13.51-5.55,20.84-6.91,8.52-1.58,17-1.2,25.5-.77s16.55,3,24.4,6.23c4.65,1.9,9.35,3.67,14.13,5.54l37.49-15,28.53,18.49c.44,11.35-1.65,23.32-2.22,35.57,2.53,2.11,5.05,4.13,7.5,6.26,8.55,7.44,15.19,16.55,21.84,25.58a194,194,0,0,1,13.81,21.32,72.73,72.73,0,0,1,8.33,22.66,55.53,55.53,0,0,1,.08,19.33c-.64,3.7-.48,7.5-1.15,11.28a160.11,160.11,0,0,1-9.95,35.12,137.15,137.15,0,0,1-14,25.57C414.32,331.32,402.08,341,386,345.17a50,50,0,0,1-12.84,1.47c-10.51-.07-21-.6-31.52-.93-1.77,0-3.54,0-6.26,0,2.11,3.65,3.4,6.85,5.52,9.37,6.51,7.73,12.8,15.74,21.74,21a52.46,52.46,0,0,0,7.58,4.1c12.9,4.9,24.3,12.37,35.23,20.55,3.11,2.33,5.28,5.89,8,9,.43,3.42,1.09,7,1.27,10.53.57,11.1-1.85,21.68-5.32,32.18a140.74,140.74,0,0,1-18.21,36.84c-.79-17.81-3.6-34.3-12.43-49.1-5.2-2.53-10.25-4.55-16-5.09-3.29-.31-6.44-2.08-9.65-3.21-1-.34-1.94-.72-3.35-1.25.93,5.13,1.93,9.78,2.57,14.48a32.45,32.45,0,0,1,0,7.63c-.51,5-1.47,9.95-1.91,14.95a151.69,151.69,0,0,1-8.81,38.17c-3.19,8.84-6.5,17.65-12.05,25.3-4.54,6.26-9,12.72-14.89,17.81-4.92,4.25-10.57,6.67-17.36,4.65-1.87-.56-4.05-.16-5.84-.86-5.66-2.2-11.46-4.32-14.77-10a2.46,2.46,0,0,0-1.17-1.11c-3.74-1.36-4.29-5.1-6.06-7.93-1.58-2.53-1-5.26-1-8.22a53.16,53.16,0,0,1,4.5-4.51,14.82,14.82,0,0,1,9.31-3.71c5.37-.06,10.74-.53,16-.82,1.37-8.14-1.42-32.75-5-45.76-7.44-6.37-14.84-12.75-22.32-19a12.51,12.51,0,0,0-3.78-2c-2.51-.91-5.09-1.62-8.32-2.63l2.35,22.93,1.63,2.29c.19,9.56-5.37,15.14-14.79,15.59a51.79,51.79,0,0,1-24.5-5.14c-6.36-2.93-10.91-8.19-15.24-13.59-6.6-8.21-7.18-17.89-6.34-27.64.52-6,3.89-10.74,10.57-12.48-2-3.11-3.9-5.85-5.53-8.73-4-7.15-6.68-14.61-6.53-23.08.13-7.52,6.93-14.46,14.87-15.3,1.94-.2,3.91-.16,5.92-.23-2.36-11.29-13.87-26.64-22.27-27.07-1.61,5.69-3.5,11.42-4.82,17.27-1.48,6.55-1.22,13.28-1.23,20,0,1.73.63,3.74-1.42,5-3.36-1.79-4.57-5.12-6.19-8.3A65.8,65.8,0,0,1,179.75,374c-2.18-8.9-.72-17.08,3.43-25,1.24-2.36,2.25-4.85,3.62-7.12a18.18,18.18,0,0,1,3-3.06c-.08,1.63.64.46-.29,1.95C185.09,347.81,181,358,181,366.48A44.17,44.17,0,0,0,186.42,387a36.6,36.6,0,0,0,3,4.1c.91-6.3,1.75-11.7,2.47-17.12a77.18,77.18,0,0,1,6.61-23c1.44-3,2.84-6.09,4.06-8.7l-7.15-9.2C194.35,333.94,184.43,348,183.18,349ZM332,340.31c8,.65,16.23,1.67,24.46,1.89a135.57,135.57,0,0,0,21.67-.68,101,101,0,0,0,14.25-2.59c5.37-1.52,10.66-3.69,14-8.55a122.41,122.41,0,0,0,9.31-15.15c4.22-8.64,7.92-17.54,11.65-26.41a89.46,89.46,0,0,0,7-27.42,71.3,71.3,0,0,0-2.18-25.75,22.75,22.75,0,0,0-3.1-6.24c-3.65-5.42-8.64-9.64-13.76-13.5a269.31,269.31,0,0,0-32.42-21.27c-11.67-6.43-23.44-12.52-36.06-16.87-12.09-4.18-24.26-7.74-37.32-7a40.24,40.24,0,0,0-16.91,4.92,85.39,85.39,0,0,0-16.09,11.76A172,172,0,0,0,252.42,214c-7.34,10-14,20.37-18.94,31.87-4.56,10.74-4.72,21.21.34,31.78a73.1,73.1,0,0,0,13.8,19.25c4.79,4.94,10,9.44,15.12,14.08,6.43,5.87,13.9,10.13,21.23,14.08l11.68-3.94a30,30,0,0,1-2.28-2.46c-2.4-3.23-4-7-3.71-10.88A23.37,23.37,0,0,1,298,291.38c3.44-2.9,6.87-5.81,11.09-9.39l-7.68,1.06-1.14-1.3c2.14-3.09,6-.75,8.07-2.87,4.42,2.45,10.41-.45,13.77,4.9l-6.53-.49a17,17,0,0,0-2.36,11.1,37,37,0,0,0,2.22,4.5c2.84,4.25,6.67,6.93,12,6.81,3.25-.07,6.49-.34,9.73-.47.27,0,.55.33,1,.63l-2.79,2.66c-1,0-1.87,0-2.77,0a20.91,20.91,0,0,0-15.9,6.74c-2,2.05-4.27,3.84-6.65,5.95C320.34,324,326.77,331.07,332,340.31Zm61.44,139.53c1.51-3.26,2.55-5.48,3.56-7.72,1.93-4.24,3.9-8.47,5.73-12.75,1.41-3.29,2.46-6.73,4-10a53.58,53.58,0,0,0,4.7-18.56c.52-6.31.12-12.7.12-19.33-2.37-2.64-4.54-5.59-7.22-8-8.18-7.21-17.84-12.17-27.82-16.22A75.34,75.34,0,0,1,351.42,371a137.94,137.94,0,0,1-14.68-17.95c-5.62-7.86-10.77-15.94-18.07-22.56a24.73,24.73,0,0,0-13.05-6.57,32.35,32.35,0,0,0-20.91,3.72c-1.47.82-2.93,1.67-4.83,2.75,1.05.59,1.46,1,1.9,1,3.58.26,7.14.57,10.72,1,8.81,1,16.18,4.33,22.13,10.87,5.21,5.71,10.39,11.38,14.21,18.27,3.54,6.4,7.81,12.42,11.9,18.51,2.79,4.17,5.78,8.21,8.76,12.25,3.3,4.48,6.83,8.79,10,13.34,4.74,6.75,9.41,13.55,13.85,20.5,7.57,11.85,13.52,24.42,16.38,38.32C390.73,469.24,392,474,393.47,479.84Zm-132.65-7.29a44.81,44.81,0,0,0-9.95-13.9,53.1,53.1,0,0,1-4.13-4.36A97.35,97.35,0,0,0,226,434.64a14.34,14.34,0,0,0-8-2.49c-4.1,0-8.34,1-10.69,5.07A23,23,0,0,0,203.93,449a30.62,30.62,0,0,0,5,16.78,40.53,40.53,0,0,0,22.3,16.91c4.72,1.47,9.76,1.94,14.65,2.83a5,5,0,0,0,1.64,0c1.93-.31,3.84-.73,5.78-1a8.67,8.67,0,0,0,7.52-8C260.9,475.22,260.82,473.94,260.82,472.55ZM156.22,306.46c10.29,5.35,20.59-1.79,17.7-12-1.25,1.19-2.37,2.38-3.63,3.39-.54.43-1.39.49-2.9,1,2.25-4.93,5.93-6.78,9.61-8.57,1.79-.87,3.62-2.3,6.11-.58l-2.9,1.72c-.92.54-1.89,1-2.76,1.64-.38.28-.55.86-1,1.55.8.73,1.55,1.4,2.22,2,5.82-1.48,10.92-3.51,14.24-8.63v-3.82c-1.32-1.65-2.33-3.84-4.05-4.9a29.68,29.68,0,0,1-10.53-11.17c-4.07-7.43-10.61-9.72-18.36-9.69-10.91,7.62-19.07,17.11-22.59,29.53.44,2.24.54,4.09,1.21,5.69.43,1,.53,2.95,2.69,2.73-.7-2.24-1.32-4.24-2-6.34l2.11-3.41,1.19-.11c0,5.12.21,10.1,5.42,13.06.53-4.54-.82-9.16,3.19-13.92.44,5.27,0,9.4.34,13.9Zm60,35.86c1.46-4.33,2.56-8.49,4.27-12.39,1.78-4.06,5-7,8.92-9.19a11,11,0,0,1,10-.37c.64-2.86.82-5.45,1.8-7.69,1.82-4.13.74-7.32-2.33-10.2L236.27,300c-5.46-.32-5.46-.32-8.29,2.33-.59,2.25,4,3.31,1.08,6.43-5.12-4.44-9.52-9.92-16.75-12.21h-6.72l-2.65,2.89A24,24,0,0,0,207.56,316c.83,1.13,1.21,2.19-.33,3.52l-4.62-3.76c-2.83,4.9-3.17,9.81-3.07,14.85a8.82,8.82,0,0,0,4,7.3C207.38,340.72,211.91,341.45,216.22,342.32ZM320.78,535l-7.63-.45c-2.63-1.79-5.89-4-9.14-6.24-3.48-2.4-3.53-6.91-5.74-10-5,.37-9.72.8-14.43,1-6.22.3-8.63,2-10.54,7.68-.16.5-.34,1-.46,1.33,3.11,14.74,17.71,23.78,34.64,21.5,2.46-1.62,6-3.1,8.26-5.7C317.87,541.72,320.82,539.19,320.78,535ZM375.44,434.3c-3.89-6-7.26-11.49-10.95-16.77-4.59-6.59-9.46-13-14.2-19.47-2.2-3-4.5-6-6.53-9.08-2.45-3.74-4.61-7.66-7-11.44a17.51,17.51,0,0,0-2.56-2.52,13.08,13.08,0,0,0-.16,2.59c.23,1.4.7,2.76.94,4.16A162.78,162.78,0,0,0,347,422.28a11.18,11.18,0,0,0,2.69,3.87C357,432.25,365.85,433.28,375.44,434.3ZM234.66,363.63c-1.91-1.64-3.89-3.21-5.74-4.93-2.79-2.59-5.79-5-8.14-8-2.05-2.6-3.84-5.36-7.25-6-3.09-.63-6.27-.81-9.51-1.2l-3.12,6.05c11.52,7,14,7.92,26.42,33,1.63.47,3.37.9,5.06,1.48s3.21,1.75,5.11.51C233.91,378,234.32,370.91,234.66,363.63Zm86-54.81c-3-3.27-5.89-6.36-8.67-9.56-3.11-3.58-1.43-8.25-2.39-12.95L299,294.8c-.29,5.62,2.41,9.11,5.72,12.36,3.14,3.07,6.37,5.83,10.92,5.71Zm-47.65,89a25.87,25.87,0,0,0-11.71-7.78c-3-.95-5-.55-7.13,1.29,2.55,4.9,6.66,7.36,11.29,8.74A6.59,6.59,0,0,0,273,397.85ZM249.89,316.5,245,312.29c-.76,4.09-3.26,7-2.54,11.14l6,2.1C248.91,322.41,249.35,319.77,249.89,316.5Zm25.85,77.75c1.46-4.16-1.39-7.47-2.47-11.53l-5.72-1.15v5.33Zm-22.13-8.44c-1.25-3.81-2.4-7.31-3.63-11.08l-3.07-1.39c-.49,6.26.24,8.81,3.94,13.79Z" transform="translate(-133.04 -42.93)"/><path d="M400.21,111.44c-4.24-.22-4.88-.6-26.8-15.6,8.43-3.78,16.44-8.07,25.11-10.44,3.91,2.73,3.22,6.53,3.08,10-.18,4.84-.66,9.67-1,14.51A9.23,9.23,0,0,1,400.21,111.44Z" transform="translate(-133.04 -42.93)"/><path d="M338.17,241.47c1.78,9.4-7.78,22.41-16,26.09s-22,.65-24.8-9.23a5.54,5.54,0,0,0-.51-1c-1-8.68,3.41-14.94,9.55-20.08a33,33,0,0,1,12.29-6.53,15.11,15.11,0,0,1,17.5,6.89C336.93,238.91,337.54,240.22,338.17,241.47ZM306,252.63c3.77-6.69,3.78-7,.34-9.79a5,5,0,0,0-3.72,3v6.83Z" transform="translate(-133.04 -42.93)"/><path d="M391.82,259.05c4.36,3.37,7.49,6.6,8.28,11.34.37,2.27.74,4.76.17,6.9a73.09,73.09,0,0,1-4.19,11c-2.78,6.14-8.19,9-14.38,10.27-7.19,1.45-14.82-5.2-15.05-12.65-.37-12.2,6.87-22.45,18.5-25.9A43.18,43.18,0,0,1,391.82,259.05Zm-19.74,23.69,3.2-1.83v-6.83c-2.28-1.13-3.29,0-4.13,1.58C370,277.84,369.23,280,372.08,282.74Z" transform="translate(-133.04 -42.93)"/><path d="M361.24,285.63c-.53,1-1.23,2.4-2.1,3.73a16.56,16.56,0,0,1-4.17,4.5,7.57,7.57,0,0,1,.28-2.61c.89-1.72,2-3.31,3.06-4.91l-2.45-5.12c-3.52-3.74-7.93-4.28-12-5.29-3.69-.91-7.41.67-11.05,1.51a8.62,8.62,0,0,1-5.9-.26c1.16-1,1.87-2.16,2.82-2.45,7.09-2.11,14.23-3,21.53-.8C356.9,275.64,360.48,279.05,361.24,285.63Z" transform="translate(-133.04 -42.93)"/><path d="M319.89,211.79c8.61-10,19.86-10.45,31.93-9.18a14.79,14.79,0,0,1,4.16,4.31c-1.47,1.49-2.79,1.16-4.2.76-4-1.11-8-2.33-12.16-1.79-6.59.86-13.24,1.72-18.09,7.39Z" transform="translate(-133.04 -42.93)"/><path d="M403.35,227.65c4.17-.08,6.32,3.3,7.87,6.11,4.07,7.34,4.8,15.17.88,23.56-1.07-2.7-.55-5-.46-7.23.25-7.05-1.83-13.11-7.05-18C403.41,231,402.07,229.9,403.35,227.65Z" transform="translate(-133.04 -42.93)"/><path d="M276.94,257.34l2.22,2.3v6l-4.84,2.84-5.48-3.56c-1-3.41.37-5.44,2-7.6Z" transform="translate(-133.04 -42.93)"/><path d="M372.65,317.3l3.41-2,3.64,2.21v5.38l-4,1.12C372.92,322.33,371.44,320.54,372.65,317.3Z" transform="translate(-133.04 -42.93)"/><ellipse class="cls-2" cx="395.83" cy="88.71" rx="21.86" ry="80.14" transform="translate(-11.95 344.23) rotate(-60)"/></svg>