<svg id="Capa_1" data-name="Capa 1" xmlns="http://www.w3.org/2000/svg" viewBox="0 0 477.96 532.95"><defs><style>.cls-1{fill:#fff;}</style></defs><title>vector de inodoro</title><path class="cls-1" d="M388.82,576.88l35.31-1.22-2-45.14,11.48-.21s3.5-11.85,3.4-18,1.15-17.94,1.15-17.94,3.77,24.52,8.69,10,3.87-25.72,3.87-25.72l16.69,15.54-4.18-17.62,4.51-22.22,65.74-39.5s7.85-42.13-30.23-40.16l-37.38,19.23s-39.68-10.12-38,20.31c0,0-11.76,15.44-19.85,18s-21.18,28.9,5.53,28.59c0,0,17.71,5.8,17.4,18.24s-35.33,30.72-35.33,30.72l-.7,6.66,7.37.63s-21.66-1.58-18.54,11S369.3,558.66,388.82,576.88Z" transform="translate(-61.02 -44.48)"/><path class="cls-1" d="M173.79,570.23s-19.15-47.09-17.75-55a45.23,45.23,0,0,1,20.2-30.17l3.46-21.88,1.55-39.55s-5.45-23.12,33.38-55.26c4.1-3.39,21.26-1.15,21.26-1.15l-3.22-9.59-10.76-2.92s-3-10.92,2.05-13.45c2.15-1.07,8.28-4.87,8.28-4.87l-.76-9.52-14.78.22L184.94,343.6s2,9.73,3,12.9C193.41,374.85,200.1,377,200.1,377l-11,12.91s-12.11-2-22.8-31.76c-2.17-6.05-3-.9-3-.9s2.54-19.17,27.9-33.57c0,0,26.89-13.44,28.67-17.76s-2.23-16.37-2.19-17.36,5.3-9.67,5.3-9.67l-23.1-22.6,13.55-3.47,22.55,22.48,10.43,1,19.63,1,12.32,6.15,10.42,4.84,8.9-.87s3.37-8.93,8.87-10.22,16.17-1.85,16.17-1.85l8.93,5.81,4.19,4.53s-.54,5.1,3.05,5.4,4,5.5,3.94,7.36,2.41,9.83,2.41,9.83c5.82,4,5.7,6.22,7.56,8.85s-6,12.52-9.78,15.09,3.36,11.77-1.48,15.24,1.88,8.09,4.72,11.78,11.66,9.94,5.68,19.55-5.61,7.42-13.3,7.92-10-5.25-9.31,2.06,6.35.14,3.71,13-7.48,16.07-5.37,29.3-2.13,26.49-2.13,37.75.18,2.87,4.29,12.7,5.35,28.51-1,30.38-15.07-1.48-12.78.74-1.5,31.41-.24,36.87.43,1.94,10.59-.83,9.91-6,14.46,2.53.57-.67,8.73,3.8,7,.36,11.55,7.45,12,5.6,0,9.87-11.76-3.51-17.33-2c-5.22,1.39-23.86,11.5-29.06.37-1.56-3.33-9.66-4.33-18.29-2.75s-20.47-14-20.47-14-10.18-2.45-10.22,6.66,7.09,12,7.09,12-27,1-52.52-5.44c0,0,4,10.05-6.24,5.16s-15.4-7.07-15.4-7.07-3.71,7.36-6.83,7.34S173.79,570.23,173.79,570.23Z" transform="translate(-61.02 -44.48)"/><path class="cls-1" d="M266.23,105.63c77.43,1.25,84,47.12,84,47.12C367.07,198.92,292.72,213,292.72,213c-38.41,19.27-7,35.39-94.74,44.54-6.72.71-4.25-46-12.22-50.85-105.53-64.36-3.49-82-3.49-82,15-28.46,13.21-42.21,13.21-42.21-2.85-15.33,30-2.19,30-2.19l28.76,25.12Z" transform="translate(-61.02 -44.48)"/><path d="M400.54,513.56c.88.93,1.92,2.38,1.75,3.42s-1.71,1.94-2.85,2.43c-2.89,1.23-6,1.93-8.83,3.32-4.27,2.12-4.22,2.44-1.89,6.56,2.77,4.89,2.39,7.71-1.85,11.36-.86.73-2.37.69-3.57,1l1.11-3.5c.49-1.52,1.48-3.1,1.34-4.56-.19-1.9-1.26-3.73-2-5.57-1-2.58.16-4.2,2.23-5.57,2.9-1.92,5.76-3.92,8.94-6.1-1-.81-1.52-1.26-2.07-1.63-4.54-3-4.63-6.12.25-8.47,6.07-2.93,12.49-5.14,18.63-7.94a26,26,0,0,0,7.44-4.83c2-2,3.27-4.79,4.8-7.27,2.58-4.15,2.65-11.5.27-14.33-5.2-6.19-12.94-8.18-19.87-11C398,458.26,394,453.7,395.94,447c1.17-4.13,2.47-8.25,4-12.26.44-1.17,1.75-2.1,2.83-2.9,4.2-3.13,8.42-6.23,12.74-9.2.85-.58,2.14-.54,3.22-.79-.27,1.13-.23,2.51-.88,3.35-2.7,3.49-3.15,5.07-.28,8.31A36.35,36.35,0,0,1,426,449.19c.91,3.75,2.9,7.24,4.5,10.8,1.94,4.3,4,8.56,6,12.83a1.42,1.42,0,0,0,.75.7c.74.21,1.69.61,2.2.32a2.29,2.29,0,0,0,.71-2,115.54,115.54,0,0,0-3.78-12.5c-2-5-4.61-9.8-6.88-14.72-1.41-3.05-2.8-6.12-4-9.27-.33-.88.12-2.06.22-3.11,1,.49,2.32.75,3.06,1.53s.95,2.1,1.42,3.17c1.42,3.16,2.9,6.3,4.26,9.49,2,4.65,4.09,9.27,5.78,14,1.91,5.37,3.33,10.91,5.14,16.31,1.16,3.48,2.1,3.49,5.35,1.84,6.4-3.25,10-9.12,14.16-14.48.41-.52.37-1.39.78-3.06-1.46,1.1-2.13,1.64-2.83,2.14-3.47,2.53-6.89,5.16-10.49,7.5-.8.51-2.26,0-3.42,0a27.84,27.84,0,0,1,1.14-3,4.07,4.07,0,0,1,1.27-1.2c5.46-4.07,10.85-8.24,16.41-12.17,5.36-3.78,10.84-7.4,16.39-10.9,1.81-1.14,4.23-1.34,6-2.53,10.19-6.8,20.37-13.63,30.33-20.76,4.06-2.91,8.43-5.41,11.25-10.1,3.68-6.1,3.73-11.51-1.29-16.4-1.82-1.78-3.79-3.42-5.68-5.13-3.56-3.22-4.9-3.39-9.3-1.09-.83.43-1.59,1.21-2.44,1.3a3.4,3.4,0,0,1-2.39-.91c-.26-.25,0-1.56.46-2,1.12-1.15,2.53-2,3.67-3.13.69-.69,1.57-1.73,1.48-2.52s-1.24-1.5-2.09-1.93a8.34,8.34,0,0,0-2.72-.55c-4.89-.57-8.87,1.52-13.18,3.6-9,4.35-18.07,8.56-26.63,13.87-4.16,2.57-6.55,5.41-7.32,10.22-.75,4.62-8.23,9.8-13.47,9.76-.3-1.95.28-3.06,2.26-4,2.16-1,4.53-2.31,5.85-4.16,1.43-2,2.74-5,2.3-7.24-.55-2.82-3.44-4.18-6.63-4.83-5.81-1.18-11.08,0-16.29,2.32-3,1.35-5.23.61-6.45-2.3a6.49,6.49,0,0,1,.06-2.55,9.47,9.47,0,0,1,2.27.14c1,.28,2,1.29,2.76,1.12,3.06-.65,6-1.66,9.06-2.5,5.69-1.58,10.9-.49,15.89,2.59a4.74,4.74,0,0,0,4,.16c7.24-3.94,14.26-8.3,21.55-12.13,5.11-2.69,10.55-4.74,15.83-7.1A14.62,14.62,0,0,1,520,378.13c2.45,2.66,5.28,5,7.83,7.52,2.77,2.78,6,5.35,8,8.63,1.59,2.63,4.18,5.49,2.87,9.2-.68,1.95-1.52,3.86-2.35,5.75s-1.31,4.3-2.75,5.54a150.6,150.6,0,0,1-14.58,11.1c-6,3.95-12.71,6.57-18,11.78-3.3,3.25-7.88,5.22-12,7.63-2.57,1.51-5.4,2.61-7.92,4.2-2.05,1.29-3.62,3.37-5.72,4.51-2.53,1.37-5.3,2.1-3.77,6a3.11,3.11,0,0,1-.6,2.3c-2.33,3.61-4.83,7.11-7.08,10.77a4.55,4.55,0,0,0-.6,3.47c1.35,3.3,3,6.48,4.66,9.63,1.76,3.36,1.71,6.51-.48,8-3.29,2.22-5.23-.49-7.07-2.38s-3.41-4.43-5.18-6.59c-1.63-2-3.22-1.8-3.88.66a7.28,7.28,0,0,0,.5,3.95c1.06,3.06,2.49,6,3.48,9.07a5.89,5.89,0,0,1-3,7.19c-1.21.63-3.75-.78-5.44-1.72-1.85-1-3.52-3.72-5.08-3.57s-2.8,2.94-4.19,4.56c-.23.27-.67.52-.68.78-.06,2.09-.83,4.69.11,6.2,3.71,6,2.63,14.57-3.4,18-3.27,1.88-2.58,3.93-1.93,6.41.32,1.23,1.21,2.37,1.31,3.59.84,10.81,1.61,21.62,2.22,32.44.05.9-1.18,1.86-1.82,2.8a12.7,12.7,0,0,1-2.63-2.41c-.42-.7-.12-1.83-.15-2.76-.28-7.92-.46-15.85-.88-23.76a78,78,0,0,0-1.34-10c-.58-3.17-3.08-4.53-6.26-6.15a22.35,22.35,0,0,0,0,2.94c.71,4.35,1.73,8.66,2.17,13,.77,7.64,1.37,15.3,1.67,23,.09,2.11-.48,5.18-1.9,6.2-2,1.42-5,1.76-7.63,1.77-9.23,0-18.46-.22-27.68-.55-1.3,0-3.33-.83-3.7-1.79-1.68-4.3-3.44-8.7-4.09-13.22-.74-5.24-.49-10.64-.3-16,0-.8,2.07-1.52,3.18-2.27a21.2,21.2,0,0,1,0,3.65c-.38,2.23-1.63,4.5-1.36,6.6a70.27,70.27,0,0,0,3.07,13.2c.65,1.93,2.49,4.54,4.15,4.85,4.66.87,9.51.73,14.29.93,4.54.19,9.12,0,13.62.55a5,5,0,0,0,5.47-5.52c-1-7.14-1.64-14.34-2.68-21.48-.64-4.46-1.86-8.83-2.57-13.27-.18-1.12.28-3.11,1-3.47a34.05,34.05,0,0,1,9.15-3.26c4.68-.72,6.94-2.73,6.52-7.63-.25-2.95-2.1-6-1.58-8.73a69.87,69.87,0,0,1,5.17-15.75c1-2.12,1.62-3.71.79-5.78-1.76-4.41-3.53-8.81-5.41-13.17A24.7,24.7,0,0,0,431,471.8c0,3.18.3,5.24-.06,7.17-1.38,7.49-6.81,12.83-10.53,19.08a8,8,0,0,1-3.92,2.81c-4.43,1.74-9,3.09-13.44,4.84a76.68,76.68,0,0,0-7.44,4A44.42,44.42,0,0,1,400.54,513.56Zm27.55-51.3c-2.7-6.61-5.43-13.23-8.61-19.62a53.41,53.41,0,0,0-7-10.23c-.69-.83-3.51-1-4.46-.27a27.07,27.07,0,0,0-6.27,6.59c-1.43,2.19-1.92,5-2.87,7.48-1.19,3.11.37,7.73,3.45,9.3,3.67,1.87,7.49,3.47,11.22,5.22,4.7,2.2,9.62,4,13.27,8a17.9,17.9,0,0,0,2.42,1.87l1-.4A63.49,63.49,0,0,0,428.09,462.26ZM440.89,480c-.46,7,4.4,18.21,8.93,20.11C450.9,494.92,445.3,482.54,440.89,480Z" transform="translate(-61.02 -44.48)"/><path d="M437.85,420a31.86,31.86,0,0,0,5.38-1.09c1.2-.46,2.14-1.62,3.2-2.46a32,32,0,0,0-4-1c-2.94-.34-5.92-.38-8.86-.8s-3.54-2.61-3.41-5.19a6.91,6.91,0,0,0-.07-2.73,3.12,3.12,0,0,0-1.8-1.4c-.34-.13-1.36.45-1.35.66.18,2.74-.31,5.95,1,8.1C429.9,417.58,432.86,420.79,437.85,420Z" transform="translate(-61.02 -44.48)"/><path d="M452.23,404.72c1.25-1.42,2.55-2.3,2.43-2.87-.63-2.83-3.06-3.15-5.41-3-.83.05-1.61,1-2.41,1.51Z" transform="translate(-61.02 -44.48)"/><path d="M275.1,227.71c.15,4.3.13,4.15-4,3.5-1.11-.17-2.83,1-3.67,2.06-1.29,1.61-1.85,3.78-3.06,5.47-6.88,9.57-17.52,13-28,16.39-4,1.28-8.53.73-12.81,1.12a11.86,11.86,0,0,0-2.78,1,17,17,0,0,0,1.08,2.81,6.5,6.5,0,0,0,1.54,1.4c5.18,4.31,10.46,8.51,15.5,13a7.47,7.47,0,0,0,7.36,1.86,21.27,21.27,0,0,1,5.84-.58c3.48.13,7,.53,10.41.88a10,10,0,0,1,3.38.73,2.73,2.73,0,0,1,1.2,2.06c0,.38-1.16,1.18-1.77,1.16-3.72-.13-7.68.3-11.08-.88-4.57-1.58-8.66.3-12.93.46a66.51,66.51,0,0,0-15.16,2.1c-3.12.88-5.75,3.5-8.57,5.39-.17.11-.2.75,0,1,2.66,4,2.4,9.9,7.94,12.1,2.2.88,2.55,2.57.33,3.83-3.59,2-7.43,3.6-11,5.66-4.4,2.54-8.77,5.19-12.9,8.14-2.76,2-4.91,4.79-7.65,6.81-4.72,3.49-9.77,6.54-14.52,10-1.85,1.35-3.25,3.3-4.85,5-4.85,5.09-6.94,11.53-8.69,18.08a5.91,5.91,0,0,0,.7,4.07c2.46,4.2,5.17,8.25,7.83,12.34a9.38,9.38,0,0,0,2.34,3c1,.61,3.15,1.07,3.46.64a88,88,0,0,0,5.77-9.43,2.42,2.42,0,0,0-.72-2.29,2.82,2.82,0,0,0-2.48.58c-1.25,1.21-2.13,2.78-3.33,4-.45.49-1.36.56-2.06.82-.1-.82-.61-1.94-.25-2.41a43.49,43.49,0,0,1,5.9-6.9c3.73-3.22,3.89-3.12,1.52-7.25-3.74-6.53-3.71-7.71,0-11.77,6.48-7.07,14.81-11.49,23-16,5.79-3.15,12.1-5.38,17.77-8.71,3.47-2,6-2,8.64.69a16.3,16.3,0,0,1,1.54,2.11c-.8.54-1.6,1.52-2.42,1.54-3,.07-3.07,1.57-2,3.65a20.46,20.46,0,0,0,2.42,3.81c2.13,2.6,1.39,4.46-1.66,5.71a30.9,30.9,0,0,0-8.28,4.87c-2.38,2-3.8,5.5-2.15,8.2.95,1.57,4.34,1.66,6.64,2.39.2.07.46,0,.69-.06,3.13-.24,6.59-1.11,7,3.75,0,.28.39.61.68.76,3.09,1.6,3.16,3.68.45,6.37,1.5.65,3.08,1.84,3.63,1.48a27.17,27.17,0,0,0,4.21-4.23c2,3.23.5,5.53-2,8.05-3.69,3.64-7.58,4.48-12.29,3.82-2.89-.4-4.86-4-3.53-6.32a36.82,36.82,0,0,0,5.37,2.36c1,.27,2.17-.38,3.26-.61-.34-1.15-.32-2.82-1.1-3.36-2.36-1.66-2.34-3.88-2.12-6.23s-.6-2.64-2.85-2.39a24,24,0,0,1-7.91-.53c-3.54-.82-5.81-4.75-4.35-7.77,2.29-4.71,2.94-10.77,9.5-12.46,1-.25,2.33-2.91,2-3.76-2.18-4.9-7.52-6.3-12.32-3.63a26.65,26.65,0,0,1-4.66,2.39c-7.84,2.5-14.21,7.2-20.46,12.42-4.34,3.62-7.35,6.79-4,12.5a5,5,0,0,1,.32,2.07c.75,8.8,6.67,14.57,12.18,20.52a3.75,3.75,0,0,0,3.37.84c3.29-1.4,6.32-3.47,9.65-4.77,2.23-.87,4.17-3.47,7.62-1.85-1,1.12-1.55,2.27-2.47,2.76-3.39,1.79-6.88,3.39-10.36,5-5,2.34-10,4.6-12.23,10.26a8.15,8.15,0,0,1-2.4,2.94c-3.81,3.23-7.08,6.8-8.19,11.87-1.25,5.71-2.51,11.41-3.72,17.13a9,9,0,0,0-.12,2.44c.56,10.55,1.26,21.1,1.67,31.66.16,4.05-.36,8.13-.51,12.19-.08,2.2.2,4.42-.07,6.59-.57,4.56-.1,5.44,4.32,6.81,2.13.67,4.23,1.41,3.93,4.84-3.21-.73-6.44-.93-9.13-2.24s-3.87-.15-5.22,1.58c-2,2.54-3.59,5.49-6,7.59-5.32,4.72-9.85,9.65-11.61,16.93-.93,3.85-1.61,7.22-.23,11.13,1.52,4.33,2.21,9,3.26,13.44l-1.48.5c-.69-1.09-1.8-2.12-2-3.3-1-6.32-2.29-12.68-2.34-19,0-4.72.85-9.65,4.5-13.53,4.46-4.73,8.69-9.68,12.94-14.61,3.8-4.42,6.64-9.29,6.51-15.39,0-1.87-.16-3.74-.16-5.61,0-14.46-.34-28.92,0-43.37.15-5.93,1.76-11.82,2.72-17.73a2,2,0,0,1,.33-.61c1.61-3.08,3.15-6.19,4.84-9.22,1.1-2,.72-3.31-1.31-4.21a31.24,31.24,0,0,1-14.07-12c-2.14-3.39-5.08-6.32-6.91-9.84-1.38-2.67-2.67-6.17-2.12-8.93,2.75-13.95,11-24,23.32-31,3.61-2,7.66-3.9,10.33-6.9,4.44-5,9.32-9,15.55-11.34,7.08-2.63,8-4.67,4.88-11.62-2.8-6.3-2.1-10.56,2.44-15.11,1.55-1.56,1.77-3-.57-4.1a6.75,6.75,0,0,1-1.72-1.18c-6.51-6.14-13-12.27-19.46-18.48a9.22,9.22,0,0,1-1.79-2.92c-1.38-3.07-2.68-6.18-4.13-9.55l2.67-1.9a10.77,10.77,0,0,0-1.4-1.75c-3.64-2.76-3.66-3.23-.09-5.86,2.22-1.65,2.17-3-.18-4.48-3.36-2.17-5.49-1.16-6.92,2.81-.39,1.07-2,1.7-3.07,2.52-.46-1.4-1.36-2.83-1.26-4.19.11-1.63,1.07-3.2,1.67-4.79a39.59,39.59,0,0,0-5,1.81c-3.57,1.85-5.36,1-5.34-3a21,21,0,0,1,1.42-6.31c.53-1.65,1.69-3.09,2.17-4.74a4.79,4.79,0,0,0-.25-3.55c-.44-.69-2-.91-3.08-.89-2.2,0-4.39.37-6.59.57-3,.27-6.1.28-9.07.84-7.74,1.44-15.41,3.29-23.16,4.62a73.52,73.52,0,0,1-12.58.89c-4.3,0-6.17-3.08-4.8-7.15.38-1.1.57-2.28,1-3.35,2.4-5.94,2.33-12.85,7.39-17.78,1.76-1.72.67-3.45-1.76-4.38-4.74-1.82-10.16.68-14.66-2.42-.15-.1-.46,0-.69,0-9.91-.09-19.83-.15-29.75-.27a9.39,9.39,0,0,0-7.55,2.87A17.71,17.71,0,0,1,65.05,189c-2.83,1.14-4.28-.08-4-3a32.33,32.33,0,0,1,1.11-7.26c2.45-7.25,5.14-14.41,7.86-21.56a4.28,4.28,0,0,1,2.33-2.41c6.51-1.73,13.07-3.3,19.64-4.79,4.32-1,8.71-1.64,13-2.65,2.19-.51,3.43-4.17,1.67-5.31a50.93,50.93,0,0,0-10.47-5c-2.33-.83-5-.54-7.48-1.09-3.46-.77-6.83-2-10.29-2.76-3.19-.72-5.42-2.91-5.21-5.57.33-4.15,1.33-5,5.87-5,10.59.1,21.2,0,31.77.51,3.42.17,6.76,2,10.13,3,1.07.34,2.3,1.28,3.15,1,3.84-1.27,7.62-2.76,11.32-4.4,1.39-.62,3-2.32.73-3.31a16.78,16.78,0,0,0-8.39-1.61c-5.92.74-6.52,1-9-4.31a7.83,7.83,0,0,1,.5-6.21c1.18-2.13,3.57-2.89,6.39-2.5,8.84,1.21,17.7,2.28,26.58,3,5.1.44,10.29,0,15.41.29,8.63.57,13.6,4.72,15.72,13a4.47,4.47,0,0,1-1.14,3.69,75.09,75.09,0,0,1-7,5.17c-3.77,2.68-8.65,4.59-11.08,8.17-5.13,7.57-9.11,15.93-13.31,24.1-2.43,4.72,1,11.33,6.2,11.86a84.77,84.77,0,0,0,14.33.49c12.63-.85,25.14-1,37.13,3.87,1.1.45,1.89,1.67,2.83,2.53-1.08.7-2.15,1.42-3.25,2.09-1.59,1-4,1.58-4.59,3-.5,1.14.82,3.36,1.77,4.82,2.23,3.45,5.75,6.22,5.14,11-.06.47.83,1.56,1.14,1.51,2.57-.42,6.25-.17,7.44-1.75,3.46-4.57,7.24-8.52,12.22-11.34.29-.17.45-.56.74-.74,3.51-2.31,5.62-6.88,10.67-6.7a16.91,16.91,0,0,1,2.5.47c-.54.77-.91,1.82-1.64,2.25-1.8,1.05-4,1.53-5.61,2.76-3.88,2.89-7.58,6-11.24,9.18-.85.74-1.91,2.09-1.73,2.92a3.8,3.8,0,0,0,2.66,2.19c2.52.41,5.12.24,7.68.45,5.14.42,10.41-1,15.38,1.92,2.74,1.6,6.07,2.19,9.11,3.27,2.71,1,5.34,2.54,8.11,2.86a25.41,25.41,0,0,0,12.77-1.38c5-2,10.89-1.9,16.41-2,9.06-.15,16.81-3.39,24-8.57,2.82-2,5.88-3.72,8.7-5.76,3.9-2.83,8.13-5.41,11.36-8.89,2.81-3,4.35-7.21,6.6-10.8,4.12-6.59,2.71-13.85,2.54-20.93a12.92,12.92,0,0,0-1.52-6.41c-4.7-7.37-7.5-15.74-14.55-21.89a49.17,49.17,0,0,0-21-10.83c-7.84-1.85-15.25-4.52-22.83-7a61.28,61.28,0,0,0-14.6-2.65c-3.11-.21-6.31,1.12-9.49,1.62a7.28,7.28,0,0,1-2.48-.49c.36-.9.5-2,1.14-2.61a6,6,0,0,1,2.85-1q5.42-1,10.85-1.84a4.83,4.83,0,0,1,2.36.2c4.83,1.83,9.56,4,14.46,5.58,9.46,3.08,19.52,4.26,28.49,8.95a19.52,19.52,0,0,0,4.67,2.11c4.93,1.05,8,4.79,10.94,8.13a51.22,51.22,0,0,1,10.64,17.63c2,5.93,4,11.66,3.43,18-.28,3.24.3,6.73-.72,9.69a57.25,57.25,0,0,1-11.25,19.1c-1.55,1.77-3.76,3-5.77,4.34-3.28,2.18-6.91,3.9-9.91,6.4-7.37,6.14-16.37,8.58-25.08,11.64-1.6.57-3.67-.35-5.48-.16a3.54,3.54,0,0,0-2.65,1.74c-.22.72.79,2,1.49,2.76,1.8,2.09,3.85,4,5.53,6.13a3.08,3.08,0,0,1-.28,2.88c-2.5,2.95-5.58,2-8.69,1.05-2.32-.68-4.75-1-7.13-1.51l-.77,1.23A46.09,46.09,0,0,1,286.1,231c.44,1,.1,2.32.1,3.5-1-.51-2.18-.8-2.83-1.58-2.2-2.63-3.74-5.95-8-6.89A11.55,11.55,0,0,0,275.1,227.71Zm-29.4,1.52a3.7,3.7,0,0,1-1.83,1.83,1.92,1.92,0,0,1-1.62-.9c-.88-3.71-1.61-7.45-2.51-11.84-2.89,2.09-6.23,3.68-8.36,6.27s-3,6.16-4.78,9.92a17.91,17.91,0,0,1-1.58-4.14c-.41-3.19-1.92-5.25-5.13-5.71s-5.7,1.21-6.83,4.63c-.18.56-.14,1.25-.47,1.68a18.4,18.4,0,0,1-2,2c-.56-.76-1.68-1.62-1.57-2.27.62-3.74-1.92-3.69-4.28-3.75-4.46-.11-7.22,2.37-7.11,6.69A80.82,80.82,0,0,0,198.8,242c.2,1.5.67,3.08.39,4.5a9.1,9.1,0,0,0,2.73,8.59q6,6.18,12.05,12.35c2.93,3,6,5.83,8.82,8.93,2.66,2.94,5.81,2.19,8.7,1.2,2.16-.74,1.38-2.71.14-4-3.51-3.65-7-7.34-10.77-10.75-1.4-1.27-3.52-1.71-5.25-2.65-2.49-1.33-5-2.72-7.35-4.21-.49-.3-.64-1.13-1.32-2.4,2.42-.29,4.41-.68,6.4-.75,6.37-.25,12.93.54,19-.79a89.68,89.68,0,0,0,21.15-7.76c4-2,7.61-5.69,8.31-10.66.33-2.4-.67-5-.88-7.46-.15-1.78.1-3.58,0-5.37a11.33,11.33,0,0,0-.64-2.43,6.34,6.34,0,0,0-2,1,4.09,4.09,0,0,0-1.2,2.45c.14,3.85-3.06,5.67-5.06,8-1.65,1.93-3-.14-3.75-1.81a19.67,19.67,0,0,1-.82-3l-1.25.21A19.69,19.69,0,0,1,245.7,229.23ZM186.82,381.85c1.49-2.35,3-4.72,4.2-7.2.3-.62-.22-1.65-.37-2.5-.89.27-2.2.26-2.62.86a58.12,58.12,0,0,0-4.46,7.48c-.35.71.27,1.89.56,3.56C185.63,382.85,186.42,382.47,186.82,381.85Zm6-.29-1-.51c-1.41,1.46-4.38,2.14-1.68,5.67Z" transform="translate(-61.02 -44.48)"/><path d="M324.46,351.09c2.19-.51,5.41-.31,6.34-1.67,1.9-2.8,4.33-3.52,7.16-4.37,1.21-.36,2.84-1.76,3-2.83.29-2.54.82-5.39-1.8-7.42-1.65-1.28-1.13-2.85.32-3.78,3.17-2,6.69-3.55,9.67-5.79a7,7,0,0,0,2.29-4.92c0-1-1.92-2.56-3.23-2.91a141.09,141.09,0,0,0-14.67-3.1,8.11,8.11,0,0,0-9.07,9.22c.15,1,1.17,1.92,1.94,2.72.46.47,1.47.46,1.82,1a15.29,15.29,0,0,1,1.28,2.92c-1,.19-2,.43-3,.54a1.62,1.62,0,0,1-.93-.45c-3.9-3-7.83-5.93-11.63-9-.45-.37-.4-1.73-.16-2.5,1.22-3.86,4.57-5.17,8-5.79,7.46-1.34,15-2.13,22.53-.27.77.19,1.9-1.08,2.86-1.67-.65-.91-1.09-2.19-2-2.65a63,63,0,0,0-8.2-3.61,31.91,31.91,0,0,0-8.38-2.23c-2.62-.17-5.34.62-6.23,3.93-1.18,4.34-3.39,5.19-7.4,3.18a12.67,12.67,0,0,0-3.19-.71c-.11,1-.21,2.07-.33,3.11-.1.76,0,1.94-.38,2.18a2.87,2.87,0,0,1-2.55.17c-1-.81-2.39-2.2-2.25-3.16.5-3.71-1.43-4.37-4.44-4.64-4-.37-5.65-2.49-5.35-6.48.25-3.24-.28-6.18-3.39-7.85-2.61-1.41-5.4-2.48-8.06-3.79a7.61,7.61,0,0,1-1.61-1.46c.76-.36,1.54-1.07,2.26-1,2.09.19,4.14.94,6.22,1,1.18,0,3.19-.68,3.45-1.5,1.75-5.47,7.18-6.59,11.14-8.2,4.84-2,10.72-1.42,16.17-1.85,4.4-.34,7.33,1.72,8.93,5.81,1.13,2.89,3,4.87,6.31,5.41a6.21,6.21,0,0,1,3.19,2.31,9.63,9.63,0,0,1,1.68,9.57c-.88,2.76-.57,4.6,2.71,6,2.95,1.29,6.51,3.09,5.52,7.79-.17.84.79,2.12,1.52,2.92,2.38,2.59,3.42,5.38,1.19,8.44a51.27,51.27,0,0,1-5.7,6.45c-1.87,1.82-3.78,3.39-3.49,6.44.25,2.76.09,5.56.18,8.35.19,6.31.62,12.45,4.34,18.06,3.12,4.72,3.27,10.25,2.84,15.87a11.42,11.42,0,0,1-6,9.6,6.89,6.89,0,0,1-4.42.59c-2.6-.49-5.09-1.59-7.68-2.21-.88-.21-1.94.28-2.91.45a10.44,10.44,0,0,0,.57,3c3.8,7.21,4.23,14.33-.2,21.46a6,6,0,0,0-.92,2.93c-.09,4.2.07,8.4,0,12.6-.18,6.77-.24,13.56-.83,20.29-.39,4.46-1.62,8.85-2.48,13.27a77.24,77.24,0,0,0-1.52,8.06c-.19,2.1-.49,4.75.55,6.29,4.46,6.56,7.26,13.75,9.45,21.28,1.83,6.25-3.71,15.86-10.06,17.11-2.44.48-5.86-.07-7.14,1.36-1.48,1.65-1.08,5-1.5,7.58a5.39,5.39,0,0,0-.12.68c0,8.16-.06,16.32,0,24.48,0,2.46,1.4,3.84,3.88,3.1a44.21,44.21,0,0,0,8.47-3.24c6.21-3.36,8.69-2.73,11.8,3.75,1.4,2.93,3.12,4.79,6.77,3.84,3.09-.82,5.51.17,7.64,2.85,1.12,1.42,3.51,1.84,5.34,2.68.93.42,2.21.5,2.78,1.18,1.83,2.22,3.95,4.42,2.32,7.79s-5.86,6.73-8.59,6.29c-1-.16-1.86-1.13-2.83-1.77,2.71-1.47,5.1-2.38,7-3.9,1.72-1.4,2-3.55-.09-5.07s-5.64-.44-7.15,1.9a29.73,29.73,0,0,1-4,4.83c-.48.48-1.59.33-2.41.47a8.81,8.81,0,0,1,.64-2.33c1.35-2.29,3-4.42,4.17-6.8.42-.86-.11-3.2-.5-3.27a18.29,18.29,0,0,0-6.55-.19c-.87.16-1.86,1.9-2.05,3-.61,3.7-1.08,4.07-4.37,2.43-.63-.31-1.31-.91-1.89-.83-1,.16-2.51.48-2.87,1.2s.34,2.21,1.05,2.83a12,12,0,0,0,3.7,1.85c1.77.69,2,1.62,1,3.21a7.83,7.83,0,0,1-7.79,3.73c-4.57-.44-9.12-1.13-13.65-1.88a4.68,4.68,0,0,1-2.62-1.63,10.17,10.17,0,0,1-1.15-3c1,0,2.35-.36,3.06.13,4.5,3.13,9.33,4,15.36,2.44a46.64,46.64,0,0,1-3.66-3.8c-.9-1.17-2.22-2.68-2.05-3.86a5.8,5.8,0,0,1,2.83-3.79c1.9-1,4.29-.9,6.35-1.61,1.15-.39,3-1.67,2.91-2.2-.66-3.12-.84-7.05-4.32-8.21-1.89-.62-4.54.56-6.69,1.35-3,1.13-5.83,2.95-8.9,3.93-3.86,1.22-6.07-.83-5.86-4.84.16-3,.32-6,.34-9,0-7.32,0-14.63,0-21.95,0-3.49-5-9.1-8.51-8.68-2.94.36-3.25-1-2.53-2.9,1.69-4.37,3.66-8.62,5.65-12.86,1.77-3.79,3.8-7.46,5.54-11.27a3.39,3.39,0,0,0-.26-2.78c-.23-.36-1.89-.27-2.49.16-1.56,1.13-3.44,2.31-4.23,3.94-3,6.16-5.61,12.54-8.5,18.77a18.32,18.32,0,0,1-2.77,3.45l-1-.62c-.53-3.15,1.44-5.69,2.62-8.4s2.66-5.37,3.71-8.16c.32-.82-.39-2-.62-3.07-.87.44-2,.65-2.54,1.35a54.44,54.44,0,0,0-5.54,8.43c-1.33,2.78-3.41,5.66-1,9.15,1.14,1.66.34,3.3-1.3,4.86-3.42,3.28-6.52,6.91-9.67,10.47-2.53,2.85-5,5.78-7.39,8.73-1.82,2.2-3.95,4.29-5.19,6.79-1,2.08-1.16,4.68-1.25,7.07,0,.78,1.33,1.62,2,2.43a13.93,13.93,0,0,0,2.09-2c.59-.85.72-2,1.35-2.82,5.86-7.24,11.74-14.45,17.71-21.6a32,32,0,0,1,5-4.76c.74-.56,2.09-.32,3.16-.44-.43,1.07-.59,2.4-1.34,3.15-3.18,3.18-6.9,5.89-9.75,9.33-4.89,5.9-9.45,12.09-13.8,18.4-1.75,2.54-2.57,5.71-3.81,8.6l1.08.75c.8-.52,1.59-1,2.4-1.55,4.53-2.82,6.17-2.61,9.26,1.82s6.32,8.33,12,10c3.46,1,5.58.5,7.72-1.87.62-.69,1-1.75,1.68-2.2a11.14,11.14,0,0,1,3.06-.84c-.13,1.15.08,2.5-.47,3.4a25.21,25.21,0,0,1-3.71,4.43,3.5,3.5,0,0,1-2.16.95,36.91,36.91,0,0,1-6.57-.17c-2.46-.37-3.91,0-3.82,2.87,0,1.93-.55,4-2.75,3.62A39.49,39.49,0,0,1,276,571.86c-2.84-1.46-2-5.24,1-6.53a31.07,31.07,0,0,0,3.92-1.48c.71-.42,1.59-1.67,1.41-2.23-.86-2.66-2.51-5-5.48-5.29-2.7-.28-4.4,1.42-5.68,3.84-.9,1.69-2.49,3-4.27,5.07,1.63,2,3.87,4.61,5.91,7.36a9.94,9.94,0,0,1,1,3.08c-1.15.34-2.5,1.25-3.41.92-7.57-2.73-15.43-1.22-23.14-1.69s-15.65.78-22.72-3.84c-.92-.6-2.82-.41-4,.11-7.58,3.56-11,2.74-16.78-3.75a8,8,0,0,0-5.15-2.18c-.72,0-2,2.35-2.27,3.79-.56,2.67-1.74,3.81-4.56,3.55a62.14,62.14,0,0,0-6.95.13c-1.77,0-3.61.38-5.28,0a24.13,24.13,0,0,1-5.76-2.47,9.76,9.76,0,0,1-2.1-2.19c.17-.44.34-.88.5-1.33,5.76,3.58,11.85,2.77,17.95,2.42,3.22-.19,4.6-1.22,4.92-4.42.29-2.78.41-5.7,1.41-8.25,1.23-3.15.8-5.86-.37-8.78-1.81-4.52-3.52-9.09-5.17-13.67a8.36,8.36,0,0,1,0-2.65l1.58-.44c1.1,2.27,2.79,4.45,3.21,6.85,1.65,9.35,5.66,17.8,10,26,3.85,7.39,7.22,7.73,14.61,3.36,1-.57,2.79-.17,4,.29,3.34,1.24,6.42,3.56,10.75,2.32a19,19,0,0,1-1.44-2c-.69-1.38-1.31-2.79-2-4.19a24.12,24.12,0,0,1,4.36-1.82,102,102,0,0,1,11.62-2c5.93-.61,12.31-3.1,17.08,3.08.1.14.63,0,1.17-.09a16.78,16.78,0,0,0-.18-2.08c-.62-2.93-1.48-5.82-1.86-8.78s-.18-6.29-.55-9.4c-.48-4-1.77-8.06-1.79-12.1s-1.73-5.67-5.28-6.48a9.31,9.31,0,0,0-8.45,2.15,12,12,0,0,1-4.79,2.48c-1.16.24-2.58-.74-3.88-1.17,1-.89,2-1.84,3.07-2.65.44-.33,1.27-.2,1.62-.57a28.21,28.21,0,0,0,2.16-2.89,12.65,12.65,0,0,0-2.73-1.65c-2.78-.86-5.69-1.31-8.38-2.36-.88-.34-1.24-2-1.83-3.08a14,14,0,0,1,3,0,28.28,28.28,0,0,1,3.29,1.11c6.88,2.18,13.91,4,20.61,6.63,5.28,2.08,11.92-1,12.54-6.77a18.53,18.53,0,0,0-4.85-14.82c-3.25-3.7-2.1-6.08,2.62-7.58s9.07-3.33,13.62-5c1.08-.4,2.23-.61,3.35-.91,3.48-.91,7.11-1.47,10.4-2.83,4.28-1.76,8.24-4.27,12.43-6.25,7.34-3.47,14.48-7,13.53-17a12.79,12.79,0,0,1,.6-2.73c1.31-8.94,4.26-17.63,3.48-26.89a148.46,148.46,0,0,1-.19-15.07,18.37,18.37,0,0,1,1-4.34c1.36-5.1,4-10,1.5-15.57-.92-2.06-2.12-2.54-3.74-1.27a48.63,48.63,0,0,0-6.71,6c-5.34,6.13-10.44,12.48-15.74,18.66-.53.62-1.75.66-2.65,1-.16-1-.81-2.38-.39-3.08a32,32,0,0,1,4.24-5.48c6.47-6.84,13-13.58,19.49-20.44.61-.65.6-1.89.87-2.85l-1-.67c-10.07,8-17.75,18.94-29.46,25.14a26,26,0,0,1,4.36-5.92c4.71-4.64,9.55-9.14,14.33-13.7l-.47-1.31c-2.45,0-5.56-1-7.2.19-4.14,2.89-7.69,6.67-11.33,10.23-2.73,2.67-5.2,5.6-7.89,8.3-.44.44-1.46.31-2.22.44l-.68-1.14c5.28-5.44,10.6-10.84,15.8-16.35a4.16,4.16,0,0,0,1-3c-.07-.45-1.91-1.19-2.63-.92a15,15,0,0,0-5.37,2.95c-4.35,4.34-8.41,9-12.62,13.45a11.5,11.5,0,0,1-2.13,1.47c.14-8,9.41-10,10.8-17.77-9.78.4-13,9.84-19.9,14.07-1.37-2.4-.15-3.67,1.17-5.12,2.47-2.74,5.55-5.32,6.85-8.58,1.11-2.81,2.51-4,5-4.39,2.19-.32,4.43-.2,6.62-.48.64-.08,1.18-.83,1.77-1.28-.33-.41-.64-1.16-1-1.18-3.3-.22-6.69-.81-9.89-.29-2.94.47-3.32,0-2.77-2.73.59-2.92-.64-4.23-3.46-3.26-2.42.83-4.44,2.77-6.68,4.15-1.1.67-2.3,1.19-3.46,1.78,0-1.22,0-2.43,0-3.65s.35-2.59-.22-3.21-2.17-.41-3.11,0a10.56,10.56,0,0,0-3,2.27c-1,1-2,2.08-2.93,3.12l-1-.34V368.7L250,367l.22-1.38c1.81-.1,3.69-.57,5.41-.23,3.83.77,7.57,1.44,11.33-.75a10,10,0,0,0-4.72-1.38,60.79,60.79,0,0,0-7,.66c-2.32.29-2.87-1.09-2.1-2.74a42.79,42.79,0,0,1,4.8-8.44c1.67-2.14,4.12-3.68,6.22-5.48l1,.84a11.45,11.45,0,0,1-1.33,2.82c-1.71,1.9-3.65,3.6-5.4,5.47a7.71,7.71,0,0,0-1,2.06,5.8,5.8,0,0,0,2.1.73c1.23-.09,2.81-.13,3.58-.88a65.07,65.07,0,0,0,7.42-8.25c1.77-2.42,4.63-4.26,6.86-2.62,3.19,2.35,6.76,2.8,10.31,3.71,2.24.58,4.42,1.4,6.65,2a98.56,98.56,0,0,0,10,2.48c.83.13,2.09-1.16,2.87-2,4-4.5,7.82-9.13,11.88-13.55.63-.69,2.17-.53,3.29-.77l.48,1.18c-3.79,3.87-7.71,7.62-11.29,11.66a7.53,7.53,0,0,0-1.67,4.95c.13,1.87,1.85,2.71,3.66,1.53,3.73-2.45,7.37-5,11.05-7.54Zm8,145.5c-2-4.11-3.46-8.5-5.19-12.76a21.9,21.9,0,0,0-1.77-3.76c-1.88-2.9-3.4-2.79-5.12.26-4.3,7.58-8.63,15.14-12.88,22.75-2,3.59-1.57,4.83,2.49,5.49,4.8.78,9.7.95,14.55,1.38C329.55,510.12,334.62,501.09,332.41,496.59ZM309,305.14a6.42,6.42,0,0,0,1.06-.66c1.7-1.33,3.08-1.87,4.59.47.5.76,2.28.69,3.48,1-.49-.87-1-1.71-1.45-2.61s-1-1.74-.84-2.4,1.38-1.17,2.13-1.17c6.23,0,12.48-1.78,18.75.35.9.31,3.16-1.32,3.71-2.54,1-2.27,1.08-5.06-1.58-6.47-4.49-2.37-9.18-4.24-14.22-1.28a2.85,2.85,0,0,1-1.31.47c-4.82.17-7.44,2.37-8.17,7.38-.48,3.3-4.87,4.29-8.3,2.15-2.18-1.36-4-1.87-5.46.92Zm13.18-18.29a20.5,20.5,0,0,0,5-1.36c1-.48,2.2-1.83,2.14-2.69a4,4,0,0,0-2.32-2.69c-3.64-1.26-7.21-3-11.34-1-1.88.9-4.33.64-6.53.84s-3.24,1.2-3.14,3.61c.12,3.19,0,6.45-4.37,7-.44.06-1.2,1.42-1,1.75a4,4,0,0,0,2,1.59c1.34.58,2.78.92,4.17,1.39,1.23.41,2.45.87,3.67,1.32-.22-1.24-.39-2.48-.67-3.69a5.23,5.23,0,0,0-.82-1.34C312.79,288.39,317.52,287.81,322.13,286.85ZM275.56,523c2.84-3.65,5.38-7.54,8.33-11.08,2.62-3.15,3.65-6.18,1-9.47-1.79,2.38-3.85,4.77-5.49,7.42-1.5,2.41-2.19,5.36-3.86,7.62a31.79,31.79,0,0,1-7.23,7.49c-3.24,2.24-4.09,4-1.34,8.44C270.07,529.65,272.9,526.36,275.56,523ZM310.72,378.5a63.31,63.31,0,0,0,5.71-4c3.67-2.65,7.39-5.23,10.92-8,.81-.64.94-2.11,1.39-3.2-1-.15-2.37-.79-3.05-.37-6.29,3.88-13.55,6.54-17.45,13.5-.22.4-.38.83-1,2.16C308.76,378.57,310,378.93,310.72,378.5Zm24.42-11.56c-2.44,1.78-5,3.36-7.57,5-.39.26-1.07.41-1.16.73-1.38,5-5.8,7.88-8.39,12a10.44,10.44,0,0,0-.39,2.43c9.63-7.36,17.72-14.79,23.82-24.2l-.64-.73C338.93,363.8,337.12,365.49,335.14,366.94Zm-4.21,12.58.29,1.22c1.34,0,3.18.57,3.94-.09a127.07,127.07,0,0,0,10.15-9.95c.78-.84.6-2.56.86-3.88l-1.09-.8C339.88,370,336.89,376.39,330.93,379.52ZM265.64,569.73a80.23,80.23,0,0,0-8-7.13c-.54-.43-2.3.13-3,.76-.39.35,0,1.95.4,2.77,1.86,3.58,5.16,5.15,9.82,6.19C265.14,571.48,266,570.05,265.64,569.73ZM271,360.35a67.58,67.58,0,0,0,7.62-6.34c.38-.36.11-1.84-.32-2.5a2.19,2.19,0,0,0-2.1-.47c-2.74,2.12-5.35,4.4-8,6.67-.21.19-.18.65-.48,1.83C268.84,359.85,270.37,360.77,271,360.35Zm44.79,1.14a1.86,1.86,0,0,0,.37,1.54,1.67,1.67,0,0,0,1.57.19c4-2.39,7.9-4.87,12-7.45C325.12,353.66,316.74,357.28,315.76,361.49ZM275.4,503.66a2.22,2.22,0,0,0,.84,2,2.67,2.67,0,0,0,2.16-.46c3.18-2.15,3.32-5.24,2.55-9.14C277.24,497.73,276.2,500.65,275.4,503.66Zm10.19-145.34c.27-.15,0-2.31-.54-2.56-1-.46-2.72-.72-3.34-.17-1.38,1.25-2.27,3.05-3.36,4.62.26.42.53.83.79,1.24C281.31,360.44,283.53,359.52,285.59,358.32Zm-12.66,11.36a1.7,1.7,0,0,0,1.43.65c.78-.34,1.9-.91,2-1.55.47-2.28.57-4.62.85-7.28C274.86,362.53,272.07,368.46,272.93,369.68Zm16.73,4.87a16.82,16.82,0,0,0,4.1-3.4c.46-.55,0-1.87,0-2.84a8,8,0,0,0-2.54,1c-1.36,1.17-2.51,2.59-4.23,4.42C288.22,374.12,289.23,374.81,289.66,374.55Zm12-7.4c1,0,1.91-1.61,2.86-2.5-1.21-.69-2.37-1.81-3.64-1.93-1-.11-2.2,1-3.3,1.54l0,1.15C299,366.05,300.34,367.19,301.67,367.15Zm1.13,10.7a25.12,25.12,0,0,0-4.18-3c-.23-.12-1.74,1.51-1.69,1.57,1.05,1.33,2.23,2.55,3.85,4.28A33.3,33.3,0,0,0,302.8,377.85ZM286.31,500.52c2-2.9,3.58-5.3,5.2-7.69l-1.1-.77C287.44,492.88,285.65,496.11,286.31,500.52Zm-45.22,65.21c-.63-.34-1.69.12-2.56.22.13.83,0,1.85.42,2.45,1.56,2.18,3.22,2.44,6.48.51A36.59,36.59,0,0,0,241.09,565.73Zm10,4.56c.37-4-1.64-5.95-5.81-5.73ZM344,377.71c-1.3,1.34-2.55,2.73-3.82,4.1.39.33,1.08,1,1.11,1,1.5-1.44,2.94-2.94,4.39-4.43l-.74-.72C344.62,377.65,344.17,377.54,344,377.71Z" transform="translate(-61.02 -44.48)"/><path d="M193.66,63.14c-8.27-.49-16.54-1.11-24.82-1.41-4.9-.18-4.91.05-3.4,4.9.69,2.25-.48,3.49-3,3.13-1.26-.18-2.65-.84-3.72-.49-1.24.41-2.18,1.7-3.25,2.61,1,.89,2,2.35,3.15,2.57,3.4.65,6.92.7,10.36,1.18,4.26.59,8.51,1.27,12.73,2.13a8.89,8.89,0,0,1,4.06,1.95,11.27,11.27,0,0,0,9.71,2.8c6.07-.79,12.1-1.85,18.17-2.57,1.53-.18,3.16.48,4.74.78,6,1.15,11.16-1.39,16.27-3.94,3.11-1.56,6.38-3,9.05-5.15A7.87,7.87,0,0,0,246.13,66c0-1.34-2-2.9-3.41-3.86-.95-.64-2.5-.31-3.76-.54-3.84-.69-7-1.77-9.3-5.76-2.35-4.15-5.65-8.14-11.4-8.12-2.45,0-3.7.74-3.36,3.53.48,4-.28,5-4.16,4s-7.38-3.1-10.89-5c-3.06-1.66-5.72-4.14-8.89-5.45a6.74,6.74,0,0,0-5.85.92c-2.11,1.88-.25,3.76,1.54,5.11,3.7,2.78,7.47,5.49,11.12,8.35a10.74,10.74,0,0,1,1.76,2.59,11.06,11.06,0,0,1-2.74,1.47,11.44,11.44,0,0,1-3.13-.12Z" transform="translate(-61.02 -44.48)"/><path d="M234.37,86.43c.86,0,1.87-.29,2.55,0a59.67,59.67,0,0,1,9,5.08c2.29,1.72,3.69,4.64,6,6.27,3,2.13,3.53,5.22,2.31,7.61-1.39,2.73-4.17,6.29-6.72,6.62a306.28,306.28,0,0,1-31,2.18c-6.29.19-12.24-1.49-16.79-6.36-1.74-1.86-3.51-3.69-5.25-5.54-.61-.65-1.19-1.32-1.78-2a9.86,9.86,0,0,1,2.27-1.86,8.94,8.94,0,0,1,3.4-.65q14.66-.2,29.31-.26c4.4,0,8.8.26,13.2.22a39.35,39.35,0,0,0,5.56-.78,34.9,34.9,0,0,0-4.13-4.67c-1.31-1.06-3.18-1.41-4.69-2.27A37.19,37.19,0,0,1,234,87.47Zm9.43,16.24c-4.59.93-8.76.12-13.31-.9-5.47-1.22-11.06-3.66-17.08-1.82-3,.9-6.24.69-9.34,1.19-1,.16-2.5.75-2.79,1.51a3.6,3.6,0,0,0,.95,3.07,15.21,15.21,0,0,0,9.43,4.69c5.82.61,11.54,2.13,17.46,1.34,1.69-.22,3.4-.34,5.09-.61.8-.12,1.54-.6,2.34-.72,4.17-.6,8.36-1.13,12.51-1.69C251,103.49,249.17,101.59,243.8,102.67Z" transform="translate(-61.02 -44.48)"/><path d="M275.16,284c-2.75.26-4.56.7-6.32.55-3.95-.34-4.41-.28-7.23,3a17.7,17.7,0,0,0,12.13,5.18c.93,0,2.5-.38,2.69-.94.91-2.72,2.23-5.68,1.84-8.32-.25-1.72-3.18-3-4.91-4.55-.29.71-.94,1.54-.76,2.12C272.82,281.8,273.69,282.38,275.16,284Z" transform="translate(-61.02 -44.48)"/><path d="M202.26,423.41c-1-1.26-1.7-2.71-2.85-3.53-2.5-1.75-3.18-3.49-1.13-6q4.13-5.14,8-10.5c.57-.79.55-2,.81-3-1,.24-2.55.14-3,.79-3.66,5.19-7.22,10.46-10.52,15.88-.45.73.31,2.94,1.17,3.58,2.65,2,3.22,4.28,2.38,7.33-.25.92.36,2.08.58,3.12.77-.68,1.8-1.23,2.27-2.09A53.62,53.62,0,0,0,202.26,423.41Z" transform="translate(-61.02 -44.48)"/><path d="M289.24,469.37c-2.44,1.06-4.49,1.64-6.22,2.74-5.14,3.27-10.14,6.76-15.23,10.11-1.91,1.26-4,2.26-5.86,3.59a9.23,9.23,0,0,0-1.73,2.47c1.06.22,2.31.92,3.13.58a44,44,0,0,0,5.38-3.19c6.36-3.83,12.74-7.62,19.07-11.51a5.94,5.94,0,0,0,2.28-2.44C290.31,471.16,289.55,470.16,289.24,469.37Z" transform="translate(-61.02 -44.48)"/><path d="M281.44,546.63c5.4-5.07,10.51-9.9,15.66-14.68,1-1,2.35-1.6,3.2-2.66.53-.65.42-1.82.6-2.76-.94,0-2.11-.34-2.77.09a35.41,35.41,0,0,0-4.54,3.78c-3.33,3.09-6.7,6.13-9.86,9.37C282,541.6,279.88,543.6,281.44,546.63Z" transform="translate(-61.02 -44.48)"/><path d="M270.66,112.19a59.94,59.94,0,0,0-6.29.07c-.95.11-1.82,1-2.72,1.47,1,.62,1.83,1.6,2.86,1.77,1.45.26,3-.19,4.51-.14,3.32.11,6.64.32,10,.52,2.42.15,4.85.5,7.27.43.81,0,1.6-1,2.4-1.6-.77-.53-1.51-1.46-2.33-1.55-5.2-.55-10.41-.92-15.62-1.35Z" transform="translate(-61.02 -44.48)"/><path d="M317.08,156l3.74,2.19c2.25,1.31,4.49,2.65,6.76,3.93a8.89,8.89,0,0,1,4.56,5.85c.27,1.06,2.09,1.73,3.21,2.57.13-1.45.9-3.34.27-4.29-2.69-4-5.54-8-10.56-9.66-1-.3-1.72-1.28-2.68-1.53a42.59,42.59,0,0,0-4.94-.72Z" transform="translate(-61.02 -44.48)"/><path d="M167.29,153.17c-3.8.18-5.24,2.34-6.14,5.18s.72,4.45,3,5.35a57.36,57.36,0,0,0,8.54,2.65c.74.16,1.79-1.07,2.71-1.66a18.46,18.46,0,0,0-2.43-1.92c-.56-.32-1.37-.18-2-.35-6.13-1.53-6.24-1.76-4-7.5A10.54,10.54,0,0,0,167.29,153.17Z" transform="translate(-61.02 -44.48)"/><path d="M301.48,352.12c1.14-.45,2.62-.6,3.36-1.41,3.31-3.66,6.51-7.45,9.53-11.35.75-1,.69-2.54,1-3.84-1.33.49-3.16.59-3.93,1.54-3.67,4.53-7.06,9.29-10.54,14Z" transform="translate(-61.02 -44.48)"/><path d="M295.9,348.18c3.36-3.86,6.79-7.66,10-11.65.44-.55-.22-2-.37-3-.86.38-2,.54-2.53,1.17-2.67,3-5.29,6-7.73,9.19-.69.9-.71,2.31-1,3.49Z" transform="translate(-61.02 -44.48)"/><path d="M269.7,388.78a10.19,10.19,0,0,0-1.68.94c-2.56,2.85-5.15,5.67-7.62,8.6-.4.48-.23,1.44-.32,2.18.74,0,1.77.22,2.17-.17,2.73-2.67,5.43-5.39,7.9-8.29C270.58,391.53,269.91,390.07,269.7,388.78Z" transform="translate(-61.02 -44.48)"/><path d="M161,537c-1.57,5.91,5.05,19.77,8.45,19C166.68,549.91,164,543.81,161,537Z" transform="translate(-61.02 -44.48)"/><path d="M326.25,403.69c-3.26.72-10.51,8.68-10.47,11.49C319.87,415,327.07,407.14,326.25,403.69Z" transform="translate(-61.02 -44.48)"/><path d="M302.16,436.76c-3.52,2.68-6.47,4.83-9.27,7.17-.49.4-.29,1.62-.41,2.47a7.59,7.59,0,0,0,2.37-.37c1.85-.95,3.6-2.09,5.4-3.13C302.32,441.69,303,440,302.16,436.76Z" transform="translate(-61.02 -44.48)"/><path d="M301.57,466.06c2.89.34,11.09-3.33,11.95-5.18a2,2,0,0,0,.11-1.59,1.58,1.58,0,0,0-1.44-.56C308.5,460.71,304,461.55,301.57,466.06Z" transform="translate(-61.02 -44.48)"/><path d="M304.25,456.91c4-.66,9.76-5.12,10.09-7.83C310.55,448.7,304.69,453.25,304.25,456.91Z" transform="translate(-61.02 -44.48)"/><path d="M300.14,538c-3.25-.87-5.35,1.44-7.38,3.4-.72.69-.6,2.25-.87,3.42l1,.3,7.92-5.89Z" transform="translate(-61.02 -44.48)"/><path d="M286.22,341.24c3-2.55,5.54-4.88,5.28-9A7,7,0,0,0,286.22,341.24Z" transform="translate(-61.02 -44.48)"/><path d="M300.13,454.75c-4.5-1.71-8.35.92-9.19,6.17Z" transform="translate(-61.02 -44.48)"/><path d="M324.46,351.09c.9-1.13,1.85-2.23,2.68-3.41a30.55,30.55,0,0,0,1.52-2.75c-1.11.06-2.22.05-3.32.2a2.41,2.41,0,0,0-1.16.74c-.94.93-1.83,1.91-2.74,2.88l3.12,2.25Z" transform="translate(-61.02 -44.48)"/><path d="M189.86,166.29c1.21-1,1.89-1.59,2.57-2.17a35.45,35.45,0,0,0-4.64-2.26c-.49-.17-1.34.77-2,1.2Z" transform="translate(-61.02 -44.48)"/><path d="M307.64,443.57c2.81,1,6.09-.67,6.28-2.76a2,2,0,0,0-.73-1.7,2.07,2.07,0,0,0-1.86.31C310.09,440.6,309,442,307.64,443.57Z" transform="translate(-61.02 -44.48)"/><path d="M250.5,396.18c1.46-1.44,3-2.83,4.34-4.37.27-.3,0-1.64-.26-1.73-.62-.22-1.77-.23-2.07.16a56.46,56.46,0,0,0-3.07,4.93Z" transform="translate(-61.02 -44.48)"/><path d="M192.22,453.05A42.86,42.86,0,0,0,194,448c.12-.52-.74-1.26-1.15-1.9-.56.44-1.51.81-1.6,1.33-.3,1.81-.31,3.67-.43,5.52Z" transform="translate(-61.02 -44.48)"/><path d="M330,170.93c-.17,2.27-.34,4.54-.56,7.32C332.4,176.45,332.56,174.66,330,170.93Z" transform="translate(-61.02 -44.48)"/><path d="M335.75,339.07l-6.3,2.86C333.82,344.05,334.62,343.69,335.75,339.07Z" transform="translate(-61.02 -44.48)"/><path d="M251.63,347.47l2.63-3.45a9.42,9.42,0,0,0-1.44-.93c-.95,1-1.79,2.17-2.65,3.28Z" transform="translate(-61.02 -44.48)"/><path class="cls-1" d="M316.09,501c.24.37,1.47.62,1.66.41a50.72,50.72,0,0,0,4.56-5.71c.33-.49-.31-1.61-.47-2.28C319.43,493.35,315.17,499.57,316.09,501Z" transform="translate(-61.02 -44.48)"/><path d="M321.84,493.41c-2.41-.06-6.67,6.16-5.75,7.58.24.37,1.47.62,1.66.41a50.72,50.72,0,0,0,4.56-5.71C322.64,495.2,322,494.08,321.84,493.41Z" transform="translate(-61.02 -44.48)"/></svg>