<svg id="Capa_1" data-name="Capa 1" xmlns="http://www.w3.org/2000/svg" viewBox="0 0 220.07 558.57"><defs><style>.cls-1{fill:#fff;}</style></defs><title>vector de Patoruzu</title><path class="cls-1" d="M264.8,522.29s-46.28,8.75-42.47,50.44c0,0,88.06,39.44,82.36-24.57,0,0,90.89,15.48,89.32-19.13,0,0-2-7.25-10.8-9.31,0,0-2.61-8.73-6.6-10.56,0,0,2.29-6.17.91-7,0,0-7.16.29-6.73,5.6,0,0-6,.6-11.36,7l-31.5-1.26,3.43-15.2s16.71-3.26,13.07-23.19c0,0,10.28-13.28,0-24L352.36,417s22.28-21.52,21.43-48.31c0,0,15-7.73,10.79-17.06a23.87,23.87,0,0,0-4.89-1.91s4.34-2.67-2.93-18.74c0,0,26.17-24.79,28.95-45.18,0,0,14.7-6,5.7-9.53l-6.21-.36s-1.41-5.78-5.27-7.39c0,0,3.64-14.47-10.72-14.26l-6.52-3.5s-27.33-36-39.76-43l-11.08-15s27.29,10,8.9-45.58c0,0-10.16-36.92-20.91-37.13l-3-1.5s11.1-81.16-2.19-77.54-24.5,18.61-22.32,38.11c0,0-1.12,23.25,8.89,35s3.1,7.66,3.1,7.66-28,12.15-26.1,38.43c0,0-11.61-2.43-6.77,11.72,0,0,14.7,6.85,17.7,4.93l1.72,38.78s-11.92,8.89-15.65,8.79c0,0-27.21,48.87-31.71,54.11s-13.61,9.29-13.93,12.74-2.18,8.49-1.92,10.77-8.21,3.95-5.2,9.16,5.73,7,5.73,7,6.32,62.24,31,85.81l1.52,1.5s-28,19.19-29.41,18.86-1.46-2.82-6.82-1.74-3.54,19.21,5.36,10.07l4.5-5.67,30.21-18.74,6.43,6.86s-6.33,15.44-9,16.5-8.93.43-6.41,6.86,13.16,6.85,10.2-2.79l10.61-17.57,5.91,4.48s-6.85,42.88-7.92,43.74-10.45.87-12.81,7.6c0,0-6,7.61-.89,14.47,0,0-21.56,5.06,7.5,28.5l2.77.9S268.52,520.37,264.8,522.29Z" transform="translate(-194.27 -30.84)"/><path d="M266,462.06c-7.1,3.25-6.52,2.05-5.78,1.08a19.57,19.57,0,0,1,9-6.85,11.11,11.11,0,0,1,2-.44,2.89,2.89,0,0,0,2.39-2.26c.38-1.55.47-3.16.77-4.74.14-.76.57-1.47.68-2.23.3-1.93.54-3.88.72-5.83.07-.72.56-1.37.61-1.88.18-1.61,1.07-3,.94-4.73a15,15,0,0,1,.75-5.43,26.88,26.88,0,0,0,1.37-7.37,20.48,20.48,0,0,1,.68-3.31c.19-1-.09-1.95.59-3a2.51,2.51,0,0,0-1.11-3.37c-.78-.47-1.5-1-2.26-1.52-1.18-.8-2.34-.64-2.94.6-.72,1.51-.8,3.32-2.21,4.49.11,2.29-1.61,3.73-2.73,5.35a12,12,0,0,0-2.37,7.35c.08,4.24,1.09,8.4.83,12.68a17.75,17.75,0,0,1-2.92,9.27c-2.68,3.94-3.58,5.1-7.34,6.63a16.75,16.75,0,0,1-11,.94,17.22,17.22,0,0,1-9.89-5.74,15.14,15.14,0,0,1-3.6-7.54,20.23,20.23,0,0,1-.59-5.12,23.14,23.14,0,0,1,1-6.09,21.54,21.54,0,0,1,3.82-6.67c3.13-3.45,7.08-5.8,12-5.77a14.77,14.77,0,0,1,5.51.58c2.33.88,4.77-.41,6.88-1.43a6.52,6.52,0,0,0,2.53-3.21,56,56,0,0,1,5.63-9.94,2.1,2.1,0,0,0-.22-1.82c-1.65-.44-2.29-2-3.5-2.9s-2.18-1.61-3.21-2.37c-3.88,2.81-7.53,5.56-11.22,8.24-3.23,2.34-6.68,4.35-10,6.63a30.85,30.85,0,0,1-7.11,3.6,3.2,3.2,0,0,0-1.89,2.12,16.56,16.56,0,0,0-.93,4.3,26.62,26.62,0,0,1-1.43,5.53,24.6,24.6,0,0,1-5,8.4c-2,2.11-6.25,5.09-9,5.25-1.31.08-2.48.77-3.66.73-4.63-.17-9.07-1.14-12.51-4.54A30.53,30.53,0,0,1,197,436c-3.15-4.23-2.69-9-2.73-13.68,1.29-1.4,1-3.41,2-5s1.49-3.32,2.63-4.65c1.87-2.17,4.5-3.37,7.11-4.52,2.12-.93,4.35-.58,6.55-.72a15.6,15.6,0,0,1,11.31,3.22,3,3,0,0,0,1.62.38c1.2.06,2.4,0,3.78,0l2.32,2.31c4.63-3.09,9.79-4.89,13.58-8.8,5-2.16,8.54-6.38,13.38-8.77a6.67,6.67,0,0,0-2-3.67,69.17,69.17,0,0,1-8.18-11.75c-.92-1.66-2-3.23-3-4.88s-.88-3.85-2.64-5.05c-1.1-4.33-3.65-8.11-4.59-12.55a30.89,30.89,0,0,0-2-5.65,25,25,0,0,1-1.47-5.51c-.17-.9-.53-1.78-.66-2.59-.62-3.82-1.81-7.49-2.42-11.32-.54-3.43-.33-7.08-2-10.32-.15-.28,0-.71,0-1.07a15.13,15.13,0,0,0-.64-5.14c-.53-1.45.16-3.17-.72-4.76-.46-.83-.08-2.12-.08-3.48-.82-.54-1.73-1.23-2.73-1.77-3-1.61-4.92-3.8-4.5-7.46a17.26,17.26,0,0,0,0-2.16c1.43-1,2.25-2.73,4.07-3.34,1.06-.35,1.05-1.45,1-2.44a21.06,21.06,0,0,1,1.43-9.15,11.32,11.32,0,0,1,5.14-6.24c2-1.1,4-2.47,6.34-3a2.69,2.69,0,0,0,1.48-1.27c.9-1.66,1.64-3.41,2.48-5.1a138.59,138.59,0,0,1,10.26-16.65c3.26-4.76,6.21-9.71,9.28-14.58a16.28,16.28,0,0,0,2.44-5.44c.34-1.82,1.71-3.08,1.88-5.06.15-1.73,1.6-3.38,2.56-5s1.91-3.05,2.86-4.57c-2.11-2-4.25-4-6.34-6a8.9,8.9,0,0,1-3.07-6.68c0-.6-.56-1.2-.88-1.86a29.34,29.34,0,0,1-5.37,2.19c-1.84.37-3.8.09-6.28.09,2.36-2.61,5.11-4,7.41-5.91a60.33,60.33,0,0,0,6.76-6.21c2-2.24,3.76-4.7,6-7.55-3.06.56-3.6,3.54-5.93,3.93-1.23,2-3.58,2.43-5.32,3.75a11.28,11.28,0,0,1-5.4,2.47c-2.12.18-3.72,2.76-6.29,1.12,1.14-1.57,3-1.8,4.53-2.29a35.61,35.61,0,0,0,4.53-2.16,46.49,46.49,0,0,0,4.7-2.57,50.25,50.25,0,0,0,4.38-3.35,44,44,0,0,0,3.94-3.52c1.21-1.28,2.24-2.74,3.42-4.22-.51-.1-.82-.26-.94-.17a20.69,20.69,0,0,0-3.81,2.95c-2.29,2.75-5.79,3.74-8.32,6.08-3.1.55-5.71,2.8-9.07,2.52-1.79-.14-3.61.05-5.4-.06a3,3,0,0,1-2.1-1.28c.91,0,1.82-.12,2.73-.12a31.67,31.67,0,0,0,15.88-4.33c.18-.1.48,0,.65-.16,1.19-.91,2.41-1.8,3.52-2.8,2.93-2.65,6.35-4.79,8.41-8.34.53-.9,1.59-1.48,2.23-2.34a6.64,6.64,0,0,0,.64-2c-4.46-.78-6.59-3.62-7.33-7.64-.26-1.37-1.67-2.7-.35-4.21-.13-2.74,2-4.08,3.72-5.89l3.81.91c-.35-1.63.73-3.23-.67-4.74-.3-.33-.05-1.16-.05-1.76,0-2.64,0-5.29,0-7.93s1.54-10.86,2.93-13.2c2.53-4.22,4.92-8.76,9.54-11.08,2.45-1.22,5.07-2.46,8-2.44,1.54,0,3.08,0,4.61,0,.82-2.82-2.67-3.22-2.45-5.69,1.07-3.16,3.95-5.45,6.18-8.2,1.83-2.25,3.07-4.28,1.51-7.12-.15-.27,0-.69,0-1.3h-7.14c.46-1.65,1.68-1.59,2.78-1.5-.13-1-2.28-.47-1.15-2.07l3.82.9a50,50,0,0,0-3.1-3.94c-3.2-3.26-6.27-6.68-10.35-8.94-.73-.41-.75-1.11-.74-1.86a53.75,53.75,0,0,1,.09-6.84,24.84,24.84,0,0,1,1.28-5.94c.49-1.19-.31-3,.85-3.94s-.07-2.92,1.39-3.78c-.6-1.86,2.07-2.58,1.53-4.41,1.86-1.91,2.5-4.78,4.85-6.28,1.37-.87,1.93-2.42,3.19-3.43A12.48,12.48,0,0,1,313,31c1.19.08,2.38,0,3.5,0,1.5,1.57,3.35,2.77,3.64,5.08.28,2.15,1.26,4.22,1,6.42s.85,4.27-.67,6.21c-.18.22,0,.71,0,1.06-.23,2.07-.38,4.15-.74,6.19a31.77,31.77,0,0,1-1.49,5.87c-.41,1-.11,1.79.2,3.14l-1.46-.8c-1.71.39-2,2.09-2.93,3.19s-1.89,2.4-3,3.44-2.92.75-3.58,2.87a28.81,28.81,0,0,1-.09,6c-.41,2,1.31,2.89,1.63,4.43,0,.13.48.33.57.27,1.27-.93,2.12.28,3.16.49s2.08-.45,3.28-.76V81.5l-2.57.75-.26-.51L318.31,78c-.3,1.78-.49,2.91-.69,4s-.46,2.42-.73,3.78a33.68,33.68,0,0,1-4.4,0c-1.27-.17-2.47-.65-3.53.47-.24.76,1.33,1.52,0,2.29L310.27,90l-1.36,1,2.31,3.85c-1.32.91-1.61-.28-2.23-.67-1-.67-1.24-.54-2.22.69-1.3,1.65-2.72,3.2-4,4.82a6.9,6.9,0,0,0-1.48,2.26,3.26,3.26,0,0,0,.21,2.6,54.65,54.65,0,0,0,5.53,4.88c.88.7,2.18,0,3.26.87s2.47.9,4,1.4c1.66-.6,2.17-2.1,1.94-4.08a27.51,27.51,0,0,1,0-3c1.28.9.37,2,.74,2.83s.14,2.08,1.77,1a2.54,2.54,0,0,1,3.17.75c1.34,1.44,3.1,2.48,4.48,3.89a26.46,26.46,0,0,1,6.73,10.91,8.77,8.77,0,0,1,.4,2.34c.06,1.44,0,2.88,0,4.32-.24-.2-.57-.34-.71-.58-.9-1.66-1.76-3.34-2.63-5,1.46-.76,1.46-.76.45-2.35-.38-2.49-2.18-4.38-2.91-6.73-.07-.22-.58-.27-.78-.49-2.15-2.31-5.38-.67-7.79-2.12-.44-.26-1.48-.29-1.73,0-1.1,1.32-2.16-1-3,0s-1.73.7-2.63.64c-3-.19-5.5,1.08-8.15,2.12a33.39,33.39,0,0,0-14,10.37,30.42,30.42,0,0,0-5.2,9.38,3.47,3.47,0,0,1-.69,1.5,2.3,2.3,0,0,0-.75,2.24,3.58,3.58,0,0,1-.65,2.27,6.62,6.62,0,0,0-.76,3.26c-.09,3.84-.08,7.69,0,11.53a10.14,10.14,0,0,0,.91,2.54c1-1.88,2.34-3.29,2.54-4.84.28-2.16,1.56-3.73,2.35-5.55a65.59,65.59,0,0,1,5.22-9.37,25.52,25.52,0,0,1,6.75-7.1v3.54c-1.65-1-1.65.79-2.37,1.11-1.39.63-2.79,1.65-3,2.72-.4,1.89-2.64,2.75-2.31,4.84-1.82,1.29-1.16,3.61-2.17,5.23-.87,1.39-.55,2.91-.74,4.39-.32,2.43,1.95,4.15,1.65,6.54,1.31,1-.19,2.14.16,2.94.76,1.77.14,3.52.38,5.25s.52,3.4.71,5.11c.28,2.42.13,5,.82,7.25,1.19,4,1.94,8.09,2.8,12.16,1.29,1.18.23,3,1.07,4.24a6.71,6.71,0,0,1,1.11,4.6c0,.14.24.3.45.55l.52-2.24c.37,0,.58,0,.6,0,1.33,2.56,3.73,3.81,6.15,5.05s5.09.66,7.63.63a5.16,5.16,0,0,0,3-1.4c2.34-2,4.25-4.35,4-7.67-.14-1.72.91-2.2,2.24-2.72-.07-.77.16-1.86-.28-2.33-1.81-1.94-2.29-4.58-4-7a10.43,10.43,0,0,0-.79,2.4c-.09,2.16-.1,4.33,0,6.48.13,3.2-.54,6-3.36,7.95h-6.42c-.7-.7-1.4-1.35-2.05-2.06-1.73-1.87-3.69-3.6-3.38-6.55,0-.35-.57-.73-.65-1.15a17.39,17.39,0,0,1-.81-3.29c-.12-3.75.73-7.57-.66-11.24.44-3-1.12-5.47-1.78-8.17-1.65.31-1.65.31-3.81,3.15a8.8,8.8,0,0,1-.85-2.27,3.08,3.08,0,0,1,.64-1.86c1-1.4,2.19-2.7,3.28-4.06.71-.88,1.52-1,2.65-.3-.28.93-.57,1.88-.85,2.83a6.6,6.6,0,0,0,4.22,1.11c1.39-.08,2.79.1,4-.74,2.19.63,3.42-1.74,5.4-1.75,1.37-1.76,3.23-3,4.47-5,1.53-2.45,3.1-5.12,6.13-6.08,2.69,1,3.29,3.56,4.61,5.6a9.13,9.13,0,0,1,1.08,7.66c-.51-.64-.93-1-1.07-1.37-1.14-3.28-1.51-7-4.78-9.1-1.63,1.69-1.46,1.76-2.51,4.31-.79,1.93-.75,4-1.37,5.92a11.94,11.94,0,0,0-.7,3.3c-.06,3-.28,6.1.67,9.08.89,2.75,1.4,5.57,2.81,8.22,2.3,4.35,8.19,4.73,11,2.47,3.07-2.45,4-6.23,5.64-9.55-.26-3.27.39-6.54-.66-9.82a36,36,0,0,0-4.49-10q-2.56-3.61-5-7.31a13.66,13.66,0,0,1-2-3.12c-.9-3-2.82-5.8-2.22-9.18-1.35-2.81-.49-5.81-.71-8.71a4.64,4.64,0,0,1,2.45-4.33c1.38-.84,2.83.21,4.11,1,.58.35,1.19.65,1.74,1s.91,1.17,1.79,1.34v-1.36h1.08c0,1.45,1.6,2.52.91,4.16-.3.73-.2.77.51,1.6l.77-1.58c.14.44.4.8.31,1-1,2.38,0,4.45.63,6.73.75,2.52.7,5.27,1,8l1.26.72c-.23.32-.38.83-.69,1-2.39.9-4.82,1.72-7.49,2.66,1.7,2.79,3.58,5.47,5,8.36s3,5.77,3.37,9.13h1.69c1.63-5.36.81-10.83.95-16.23.05-1.84-1.15-3.55-.73-5.48.05-.22-.32-.61-.58-.81-1.15-.9-.86-2.05-.62-3.87.59,1.1.89,1.72,1.24,2.32,1.39,2.42,1.5,5.39,3.3,7.66a10.8,10.8,0,0,1,.8,2.18c2.26,4.91,5.29,9.37,8.15,13.94A87.62,87.62,0,0,1,361,184.43a66.62,66.62,0,0,1,2.94,7.81,24.81,24.81,0,0,1,1.26,8.58c-.89-.91-2-1.5-2-2.15-.05-1-.8-1.74-.78-2.58.09-3.3-1.71-6.06-2.48-9.1a26.65,26.65,0,0,0-4-8.79,14.5,14.5,0,0,1-.78-2.19c-.15-.32-.58-.51-.88-.75-.18.37-.59.82-.5,1.11.53,1.57,1.12,3.14,1.79,4.66,1.4,3.18,1.53,6.77,3.22,9.85-.24,2.12.5,4.13.66,6.19.25,3.23,0,6.49.1,9.73,0,1.26-.77,2.07-1.23,3.07,0,.07-.44,0-.66-.05s-.26-.18-.25-.26c.23-5.09-1.26-10.08-.79-15.19.16-1.74-1.18-3.29-.75-5.09-1.28-1-.36-2.47-.78-3.68-.73-.39-1.64-.38-1.28.64a17.42,17.42,0,0,1,.56,7.64c-.12,1.16,1.61,1.81.43,3.19-.55.65-.35,2-.31,3.08s-.67,2.32-.63,3.3a11.22,11.22,0,0,1-2.43,7l-2-.85c0-1.55.26-3.36-1.32-4.83l-3.62,1.74c-.58,1.65.63,2.57,1.65,3.19a34.63,34.63,0,0,1,6.77,5.4c3.46,3.5,7,6.93,10.43,10.47,3.13,3.24,6.33,6.44,9.12,9.95,1.7,2.14,3.61,4,5.42,6,1,1.11,1.88,2.34,2.82,3.51s2.16,2,2.89,3.49,2.4,2.23,3.52,3.5c.73.84,2.35.33,3.51,1,.93.54,2.18.49,3.24.86a16.81,16.81,0,0,1,7.54,5.46c-.32,2.18.57,4.59-.71,6.82a1.34,1.34,0,0,0,.29,1.26c2.58,1.94,3.41,5.27,5.83,7.3,1.11,0,2.2-.06,3.28,0a4.56,4.56,0,0,1,3.92,6.44c-1.1,2.42-2.81,4.23-5.68,4.35a1.82,1.82,0,0,0-1.91,1.64c-.47,2.2-1.5,4.29-1.44,6.61,0,.24.1.6,0,.7-1.91,1.71-1.64,4.41-2.9,6.38s-2.15,3.95-3.3,5.87c-2.18,3.68-5,6.84-7.44,10.26-2,2.73-4.48,4.86-6.69,7.31-1.72,1.92-3.35,3.93-5.13,5.79a1.66,1.66,0,0,0-.42,1.93c.44.63.39,1.42.71,1.87,1.71,2.41,1.38,5.09,1.38,7.74,0,1.44.07,2.89,0,4.33-.07,1.12-.33,2.22-.53,3.44a5.72,5.72,0,0,0,1.5.89c1.21.31,2.67.17,2.66,2,0,1.14,1.7,2.21.14,3.43-.14.11,0,.46-.15.65-.41.86.91,2.27-.75,2.69-1.46.36-.06,2-1.33,2.59-.81.39-1.1,1.73-1.85,2.39-1.67,1.47-2.77,3.6-5,4.41a37.31,37.31,0,0,0-1.81,4.61c-.29,1.13.37,2.65-.16,3.54-.77,1.28-.34,2.52-.66,3.71s-1.27,2-1.32,3a12.33,12.33,0,0,1-.9,4.34,12.06,12.06,0,0,0-1.27,3.78c-.1,1.79-1.94,2.92-1.55,4.79-1.55,4-6.9,12.51-9.69,15.46-1.71,1.83-2.64,4.44-5.31,5.31-.52,1.47-1.13,2.92-1.54,4.41a57.15,57.15,0,0,0-1.87,7.84c-.38,3-1.86,5.61-1.87,8.69,0,2.29-1,4.58-1.6,6.87-.39,1.52-.85,3-1.13,4.57a2.34,2.34,0,0,0,.6,1.53c1,1.29,2.13,2.46,3,3.81,2.19,3.34,2.45,7.08,1.92,10.93-1.24.86.24,2.69-1.24,3.45-.39,2.26-2.17,3.5-3.64,5,.28,2-.5,4.19.73,6.17.25.41-1,5.06-1.27,5.94-1.32,4.88-5.3,7.44-8.93,10.29a4.91,4.91,0,0,1-2.19.77c-1.84.29-2.35,1.86-2.66,3.17-.54,2.3-.86,4.59-2,6.74-.67,1.21-.52,2.87-.76,4.46.47.42.79,1.57,2.07.67a3.72,3.72,0,0,1,2-.36c2.76,0,5.59-.4,8.27.08,3.64.65,7.33.17,10.88.77a64.52,64.52,0,0,0,7.13.58c1.88-1.58,3.6-3.14,5.45-4.53a5.88,5.88,0,0,1,3.08-1.3c1.39-.11,2.86-.31,2.9-2.46,0-.85,1-1.73,1.71-2.49a2,2,0,0,1,1.46-.71c1.06.2,1.75-.72,2.6-.71a9.72,9.72,0,0,1,2.81,1c-.27,1.9.56,4.13-.89,6.43,1.31.59,1.78,2,2.85,3a8.47,8.47,0,0,1,2.3,4.73,2.45,2.45,0,0,0,1.81,2.16,23.27,23.27,0,0,1,4.59,2.83A10.45,10.45,0,0,1,394,529c.14,1.32.81,2.51.24,4.15s-.57,3.56-2,5a2.12,2.12,0,0,0-.32,1.29,20.74,20.74,0,0,0,0,3.25,4.68,4.68,0,0,1-1.27,3.44c-3.1,3.85-7.31,5.67-12.12,6.42a25,25,0,0,0-5.62,1.21,6.78,6.78,0,0,1-2.44.18c-2.77,0-5.64-.48-8.28.11a42.32,42.32,0,0,1-14.13.46c-6.78-.76-13.52-.25-20.27-.6-1.59-.08-3.07-.85-4.76-.73s-3.29.43-4.75-.67c-.08,0-.23,0-.35,0a31.62,31.62,0,0,1-7.3-.63c-2.43-.65-3,.22-3.16,2.8a55.35,55.35,0,0,1-1.86,9.65A66.21,66.21,0,0,1,303.1,572c-.93,2.37-2.64,4.43-4,6.64-1.68,2.76-4.09,4.88-6.4,7.07-1.75,1.66-4.13,2.17-6.36,2.88a18.92,18.92,0,0,1-3.67.72c-1.19.12-2.4,0-3.6,0-3.49,0-7-.2-10.45.05-4.29.31-8.49-.44-12.68-.91a45.66,45.66,0,0,1-8.07-1.29c-2.57-.77-5.21-1.34-7.75-2.2a36.91,36.91,0,0,1-17.26-11.43c-2.18-2.66-3.33-9.12-1.78-12.63.62-1.38.1-3,1.33-4.14-.33-2.56,1.51-4.45,2.05-6.72s2-3.58,3.21-5.13c2.82-3.72,5.68-7.49,9.79-10,1.27-.78,2.27-2,3.48-2.87a80.85,80.85,0,0,1,16-9.31c1.71-.77,3.54-1.38,5.27-2.07,1.4-.56,3.74-.19,4.1-2.22.29-1.6,1.52-2.7,1.62-4.43a42.93,42.93,0,0,1,1.47-6.68,29.62,29.62,0,0,1-8.44-4.39,16.42,16.42,0,0,1-3.83-3.52c-.76-1.06-2-1.76-2.37-3.27-.33-1.35-1.15-2.61-1.58-4a13.08,13.08,0,0,1,1.51-10.51c1-1.52,2.64-2.4,3.8-3.82-.24-2,.17-4.08-.64-6.2-.6-1.59-.07-3.53,8.17-9.51,4.91-4.56,2.27-3.78,1-2.91-1,.74-2,1.6-3,2.27-1.53,1-2.41,2.43-3.51,3.81-1.39,1.74-1.33,3.49-1.33,5.4,0,.6,0,1.2,0,1.8a4.66,4.66,0,0,0,.92,2.89c.79,1.15.85,2.8,1.16,4-.86,0-1.6-.29-2,0a21.45,21.45,0,0,0-2.08,2,6.22,6.22,0,0,0-2.34,5.53,20.15,20.15,0,0,1,0,4,3.74,3.74,0,0,0,.78,2.57,26.41,26.41,0,0,0,2.8,3.88c3.73,4,4.8,4.56,11.15,7a1.2,1.2,0,0,1,.53.44c.6.92,1.68.71,2.44,1.08,1.53.76,3.31.13,4.62,1,1.7,1.13,3.49,1.08,5.34,1.08,3.84,0,7.69-.09,11.53,0a14.49,14.49,0,0,0,4.74-.77c3.95-1.16,7.95-2.09,11.59-4.23,1.62-.95,2.83-2.27,4.3-3.32a4.7,4.7,0,0,0,1.49-2.24,18.34,18.34,0,0,0,1.05-4.64,34.75,34.75,0,0,0-.53-5.18c-2,2.15-4,3.7-6.89,3.52a27.71,27.71,0,0,0,6.63-5.37c2.16-2.12,4.13-4.41,5-7.29.82-2.65,2.36-5.11,2.26-8,1.18,3.07-.43,6-.29,9l-5,7.49c-.39,3.15.65,6.62-.73,9.94,1.42.34,2.83.71,4.26,1,2.61.58,5-.94,7.63-.76a7.33,7.33,0,0,0,2.58-.68,18.86,18.86,0,0,0,9.29-6.2,11.66,11.66,0,0,0,2.85-6c.21-2.6.05-5.23.05-7.73-2.08-1.17-3.85,1.47-5.73.11,1-.62,1.89-1.26,2.86-1.82,2.64-1.51,3.91-4.28,6-6.33.84-.83.11-1.93.55-2.65,1.35-2.25.89-4.74.52-6.91s-.88-4.8-3.54-5.78a1.88,1.88,0,0,0-1.34,2.23,3.84,3.84,0,0,1-.88,3.22c-2.27,2.69-4.84,5.05-8.83,4.7a49.83,49.83,0,0,0-5,0,3.64,3.64,0,0,1-2.27-.66,4.75,4.75,0,0,0-4.55-.53l-.25,3.34c-1.61-.88-1.41-3.11-3.44-3.35,0,.72.26,1.57,0,2.11a12.48,12.48,0,0,0-1.45,6.64,2.47,2.47,0,0,1-1,1.71c-1.68,1.23-10.06,4.37-12.2,4.4-4.84.06-9.72.48-14.47-.73-1.92-.49-3.78-1.3-5.67-1.95a13.71,13.71,0,0,1-3.41-1.31c-2.75-1.92-5.75-3.57-7.94-6.64,0-2.31,0-4.94,0-7.57C272.21,458.18,272.61,457.86,266,462.06Zm10.39-63c-1.06,1.56-2.26,2.74-2.73,4.15-1.17,3.44-3.48,6.23-5,9.45s-3.92,5.82-5.71,8.83c-.67,1.13-1.63,2.57-.36,4.12,1.88-.65,2.45-2.29,3.1-3.87a9.87,9.87,0,0,1,.64-1.53c1.33-2.1,3.06-4,3.95-6.3.72-1.8,2.21-3.17,2.59-5.05a15,15,0,0,1,2.21-4.48c.92-1.57,1.6-3,1.16-4.51.8-.4,1.55-.54,1.66-.88a35,35,0,0,1,3.38-7.52,13.77,13.77,0,0,0,1-3.32A49.91,49.91,0,0,0,276.42,399.09Zm18.12-175.58v-3.17c0-1.09.07-2.17,0-3.25s.44-2.31-.7-3.32c-.58-.53-.75-1.53-1.45-3.07,0,2.63.54,4.66-.14,6.13s.28,3.62-1.79,4.5c-2-3.63-.31-7.65-1.14-11.34-3.52,1.2-5.81,4.28-9.28,5.53a6.39,6.39,0,0,1-2.53.86c-.95,0-1.9,0-2.78,0-.74,1.24-1.17,3-2.17,3.42-1.57.7-.12,3.11-2.19,3.1-.51,1.23-1,2.46-1.53,3.69a9.1,9.1,0,0,0-.93,2.49c-.17,2.59-1.74,4.64-2.78,6.79a56.16,56.16,0,0,1-4.51,8.22c-1,1.39-1.32,3.35-3.21,4-.5,2.83-3.19,4.35-4.11,6.95a7.3,7.3,0,0,1-1.51,2.25A36.82,36.82,0,0,0,245.15,269a3.08,3.08,0,0,1-.3.55c1.7.65,2.74-.75,4.07-1.13,4.76-1.39,9.06-3.7,13.48-5.8a4.65,4.65,0,0,1,1.76,0v2.11c-.56,0-1.35-.24-1.66,0-1,.95-2.13,1.95-3.47,2.05s-1.55,2.37-3.24,1.67a6.07,6.07,0,0,1-3.49,2,5.51,5.51,0,0,0-3.22,1.79c-.87.93-3.06-.54-3.18,1.75-1.88-.7-2.88,1.24-4.43,1.48-2.25.33-4,2.07-6.32,2.17-1.12,1.56-3.75,1.56-4.09,3.94-2.27,2.27-2.22,5.35-2.88,8.18-.17.72-.35,1.43-.53,2.18,2.35.69,2.81-1.65,4.14-2.35,0-.58,0-.94,0-1.3,0-3.3.16-3.4,3.73-4.21.37-.08.59-.82,1-1.39,3.1,0,6.33,0,9.56,0,.55,0,1.32.06,1.6.41.78,1,1.76,1,2.85,1a2.22,2.22,0,0,1,1.56.49c.68.9,1.58.82,2.49,1a8.2,8.2,0,0,1,2.72,1.25c2.43,1.67,5.19,2.84,7.32,5,1.41,1.44,3.34,2.36,5,3.63s3.37,2.9,5.08,4.31c.7.57,1.06,1.67,2.24,1.54,0,1.3,1.28,1.39,2,2,2.31,1.91,4.67,3.76,7,5.63-.17,2,1.78.68,2.58,1.66,2.86,3.52,7.2,5,11,7.27a15.44,15.44,0,0,0,4,1.61c2.24.56,4.22,2.08,6.66,2.15,1,1.7,2.63,1.28,4.13,1.36a3.7,3.7,0,0,1,1.26.43c3.16,1.47,6.86,1.24,9.88,3.14.17.11.48,0,.71,0,2.25.3,4.55.38,6.36,2.12.29.28,1.08,0,2,0-.35-.75-.52-1.14-.71-1.51a77.21,77.21,0,0,1-4.23-8c-.52-1.28-1.53-2.3-1.77-3.58s-2.1-1.91-1.86-3.51c-1.43-.78-.88-2.54-1.8-3.59a15.49,15.49,0,0,1-2-3.85c-.29-.6-.15-1.53-.57-1.9-1.56-1.4-.75-3.88-2.49-5.13.34-1.75-.95-3-1.44-4.45a32.92,32.92,0,0,0-1.49-4.43,11.13,11.13,0,0,1-1.42-4.83,2.61,2.61,0,0,0-.54-1.56c-1.56-1.81-.53-4.56-2.3-6.28-.07-.07.1-.41.19-.62.29-.74.58-1.49.9-2.29l.37.37c1.32,1.07.34,2.84,1.33,4.16.84,1.09,1.69,2.84,1.37,4-.53,2,1.88,2.15,1.63,3.72a2.07,2.07,0,0,0,.49,1.55c1.13,1.14,1.14,2.68,1.62,4,.15.42-.08,1.17.17,1.34,1.77,1.24,1.82,3.37,2.66,5.06s1.52,3.22,2.19,4.86c1.84,4.54,4.48,8.7,6.08,13.35,2,1.39.93,4.59,3.34,5.76,1.09,4,3.23,7.56,5.11,11.14-.56.47-1.48.94-1.43,1.24.34,2.09-1.25,3.46-2,5a31,31,0,0,1-5.25,6.83c-1.88,2-3.5,4.27-5.78,5.86a1.6,1.6,0,0,0-.26.26c-.7.8-.59,2.27-2.24,2.31-1.26,0-.58,2.39-2.26,2.19-.16,1.52-2.09,1.4-2.54,2.86a5.07,5.07,0,0,1-2.13,3c-1.52.7-1.14,2.27-2.11,3.12a4,4,0,0,0-1.58,2.62c-.1.79-1.67,1.23-1.36,2.61.08.33-.29.9-.62,1.14a2.24,2.24,0,0,0-.78,2.22c0,.72,0,1.44,0,2.16a58.48,58.48,0,0,0,.06,6.49,34.08,34.08,0,0,0,1.37,4.82c.18.66.24,1.94.32,1.94,1.4,0,1,1,1.18,1.71a12,12,0,0,0,1.36,3c.74,1.16,1.74,2.15,2.49,3.31.42.63.44,2,.81,2.09,1.59.28,1.35,2,2.46,2.66a17.51,17.51,0,0,1,2.84,2.75c.93.93,1.82,1.92,2.81,2.79s2.55,1.36,2.88,2.35c.59,1.72,2.13,1.44,3.14,2.15a7.54,7.54,0,0,1,1.78,1.74c.45.57,2.12-.47,2.4.64.49,1.91,1.92.28,2.6.92,2.17,2,4.84,1.34,7.35,1.39,3.95.08,5.3-.41,8.48-2.87,3.84-3,5.77-7.37,8.33-11.31-.13-1.85,1.77-2.87,1.88-4.63,2.16-1.18.75-4.44,3.17-5.47-.49-2.57,1.32-4.51,1.86-6.8.27-1.11.06-2.43.6-3.35.81-1.36.87-2.78,1.26-4.19a21.71,21.71,0,0,0,.63-4.42,6.06,6.06,0,0,1,.6-1.91,8.77,8.77,0,0,0,.85-4.35c-.1-1.36-.31-2.8.68-4a4.76,4.76,0,0,0,.76-2.94c.15-3.27-.61-6.61.69-9.79-.27-5,.33-9.91.7-14.85.15-2-.16-4.11.09-6.12.16-1.19-1.05-2.25-.13-3.4-1.28-.75-.16-2.35-1-3.31-1.81,1.65-.53,4.08-2.09,5.85-1.18,1.33-.62,3.7-1.87,5.32s-1.19,3.82-3.19,4.83c-1.25-1.71-.1-3.05.53-4.27s.72-2.77,1.55-3.65c1.17-1.25.64-2.73,1.18-3.87a9.62,9.62,0,0,0,.63-3.72c0-.43.13-1,.42-1.24,1.07-.74,1-1.77,1-2.85.06-1.59-.58-3.39,1.23-4.55.19-.13.17-.64.19-1,.24-4.35.58-8.69.7-13.05.12-4.56-.12-9.13.06-13.69.2-5-1.3-9.86-.78-14.85a1.57,1.57,0,0,0-.41-1.24c-1.23-.83-.93-2.05-1-3.21-.09-.9.51-2-.49-2.66-1.16-.74-.91-1.82-.93-2.87a7,7,0,0,0-.12-2.48c-1.1-2.56-1.65-5.31-2.68-7.9-.33-.83-.75-1.68-1-2.46-.48-1.65-1.94-2.77-2.08-4.6-.05-.65-.55-1.4-.7-2.21-.11-.61-.88-1.1-1.31-1.59l1-1c.13.18.26.35.38.53l2.68,3.93c.89,1.3,1.06,2.89,1.93,4.28a18.91,18.91,0,0,1,2.37,5.11c.4,1.53,1,3,1.4,4.45.43,1.78,1.28,3.35,1.71,5.09a13.42,13.42,0,0,1,.68,3.66,4.86,4.86,0,0,0,1.46,3.76c.24.26,0,.93,0,1.41v2.26h2.9V264.25c.88-.56,1.81-.16,2.66-1,1.4-1.39,2.35-1,3.83.83-1.14,2-2.34,3.93-.8,6.33.27.43-.26,1.38-.45,2.21,2.42.25,4.3-2.57,7.11-1.05a18.92,18.92,0,0,1-1.55,6c-.14.28-.26.7-.49.79-1.68.59-3.38,1.12-5.1,1.68a35.56,35.56,0,0,0-1,7.88,5.51,5.51,0,0,1-1.14,3.43c-.63.77-1.95,1-2.94,1.47-.34.17-.84.48-.86.75-.09,1.38-1,2.54-.82,4a44.77,44.77,0,0,1,0,6.13,14.24,14.24,0,0,1-.31,2c-.11.71-.24,1.42-.49,2.93,1.11-1.42,2.23-2.21,2.15-2.87-.17-1.44,1.47-1.43,1.45-1.87-.06-1.31.69-1.93,1.4-2.72a6.54,6.54,0,0,0,.86-1.44,49.11,49.11,0,0,1,2.78-5.69c1-1.52,1.12-3.62,3-4.54-.32-1.88,2-2.7,1.94-4.2,0-1.82,1.1-2.95,1.68-4.4.77-2,2.15-3.69,2.24-5.92,1.86-1.73,1.74-4.11,2.09-6.35.06-.43.18-1,.48-1.21,1.14-.74.94-1.83.94-2.88,0-1.8,0-3.59,0-5.48-.36-.08-.88,0-1-.23-1.26-2.23-3.75-2.47-5.7-3.56-.31-.17-.84.09-1.22.14l.81,1.6a1.89,1.89,0,0,1-2.68-.29c-.47-.46-.16-1.17-1.06-1.59-1.09-.5-1.65-2.26-2.74-2.67-1.63-.61-2.17-2.15-3.27-3.12a24.09,24.09,0,0,1-3.93-4.28c-1.31-1.9-3.18-3.39-4.57-5.32s-3.42-3.36-4.92-5.2c-1.31-1.62-2.82-3-4.14-4.62s-3-3.09-4.56-4.62a41.58,41.58,0,0,0-4.52-4.58,44.83,44.83,0,0,1-3.35-3.27,28.17,28.17,0,0,1-3.6-3.16c-.92-1.2-2.21-1.85-3.24-2.88-2.88-2.87-4.93-3.35-8.12-2.42l-.53-1.36c-1.86,0-3.77,0-5.68,0s-3.72-.07-5.5,0c.91,2.44,3.87,2.1,4.75,4.28a33.59,33.59,0,0,1,9.5,8.15c1.35,1.58,3.06,2.89,3,5.24,2.31,1.54,1.16,3.9,1.37,5.92a30.7,30.7,0,0,1,0,3.45,7.91,7.91,0,0,0-1.61.88,5.89,5.89,0,0,1-4.38,1.52c-3-.22-6.06-.71-8.62-2.62-.37-.28-.71-.85-1.07-.86-1.64,0-2.65-1.36-3.94-1.8a12.53,12.53,0,0,1-3.72-2.4,28.37,28.37,0,0,0-2.92-1.62c-1.06-.67-2.07-1.42-3.07-2.16a11.24,11.24,0,0,1-2.63-2.11c-.74-1-1.87-1.54-2.74-2.34a76.12,76.12,0,0,0-7.35-5.47c-.08-.06-.33.12-.73.27l1.57,2.17-1.85,2.37c-.32-2.16-.42-3.69-1.31-5.14s-.92-3.07-3.32-3.66c1.05,1.36-.06,2.27.05,3.4.14,1.43,0,2.88,0,4.33v3.95Zm1.44,151a7.89,7.89,0,0,0,0,2.37c.22.62,1.1,1,.85,2.05l-2.43-2v-4.6c-3.14-2.42-5.78-5.38-9.6-6.71a20.22,20.22,0,0,0-1.52,3.06,4.13,4.13,0,0,0-.06,2.64c2.48,5.7,6.34,10.12,13.24,11a9.79,9.79,0,0,1,2.16.85,5.33,5.33,0,0,0,1.57.54c1.9.06,3.79,0,5.84,0v-6.27c0-1.32-.43-2.86.1-3.91.82-1.63.43-3.21.63-4.8s.55-3.15.69-4.75-.09-3,.71-4.4c.62-1.09.57-2.43.85-3.63.5-2.19.59-4.52,1.52-6.55a4.33,4.33,0,0,0,.53-2.3c-.22-2.26.83-4.2,1.47-6.11-.78-1.64-2.39-1.8-3.69-2.49a8.89,8.89,0,0,1-3-2.3c-.84-1.09-3-.17-3-2.2-1.74-.74-3.45-1.54-5.22-2.2-1.57-.6-3.06-1.28-4.88-.19a2.24,2.24,0,0,1-3.28-1.06c-1.82-4.19-5.21-7.35-7.29-11.39a18.8,18.8,0,0,0-4.27-5.8c-2.29-5.17-6.2-9.24-9.52-13.7-.44-.58-1.24-1-1.72-1.76a8,8,0,0,0-2.26-2.3c-2.8-2-5.29-4.37-8.25-6.16s-6.3-2.2-9.23-3.83c-3.08.54-6-1.06-9.52-.65l-6.8,9.31c-.83,0-1.79,0-2.74,0a5,5,0,0,0-4.76,2.84,4.35,4.35,0,0,0-.7,2.2c.19,2.5,2.69,5.49,5.17,5.69a4.48,4.48,0,0,1,3.52,2.11c-.66,2,.41,3.69,1.35,5.45,2.72,5.11,7.31,8.56,11.15,12.68,1.82.26,2.33,2.29,3.84,2.91,1.91.78,3.44,2.13,5.18,3.17s3.78,1.51,5.35,2.68c2,1.52,4.5,1.92,6.6,3.34,1.94,1.33,4.61,1.53,6.9,2.4a27.89,27.89,0,0,1,4.78,2.35,7.68,7.68,0,0,0,2.72,1.33c2.05.42,2.4,1.29,2.3,3.62l-2.26-.92c-.6.7-1.67,1.36-1.74,2.12-.32,3.37-.32,6.79,2.38,9.41,1.07,1,2.51,1.73,3.47,2.85,2.77,3.23,6.85,4.6,10,7.32a41.17,41.17,0,0,1,6.19,6.3Zm20.68,123.91c-.78,1.29-1.18,2.69-2.1,3.32a30,30,0,0,1-7.05,3.79,4.56,4.56,0,0,0-2.85,2.24,15.72,15.72,0,0,0-1.43,3.36c-.32,1.23-.92,1.8-2.17,1.74a13.51,13.51,0,0,0-1.8,0A3.49,3.49,0,0,0,296,516a4.76,4.76,0,0,1-.75,2.19c-1.59,1.75-1.51,3.79-1.32,5.88.5.26,1.14.4,1.46.79,2.49,3.09,5.22,6,6.87,9.7A3.72,3.72,0,0,0,303,536c2,1.67,3,4,4.07,6.26a3.46,3.46,0,0,0,1.67,1.85c1,.48,2.21.72,2.64.34,1.11-1,2.26-.58,3.38-.62,3.52-.1,6.94,1.18,10.49.79.21,0,.47.38.71.58.56-.56,1.34-1,1.54-1.6a76,76,0,0,1,3.8-9.6,66.43,66.43,0,0,1,2.65-6.1A83.81,83.81,0,0,1,343,515c-1.69,0-3-.12-4.3,0-2.61.28-5.11-.37-7.62-.81-.71-.13-1.49-1-2.2-.59s-1.1,1.34-1.63,2a7.59,7.59,0,0,1-.33-7.17c.62-1.43.78-3.05,1.35-4.49a21.71,21.71,0,0,0,1.4-5.59c-.45,0-1-.18-1.34,0a6.54,6.54,0,0,1-5.79.53C320.41,498.18,318.43,498.75,316.66,498.38Zm-20.31,10.84h-2.49c-4.68,0-9.37,0-14.05,0a6.68,6.68,0,0,1-3-.58c-1.54-.73-3.48-.64-5-.86a21.4,21.4,0,0,1-1.15,3.92,3.75,3.75,0,0,0-.67,1.89c.08,2.6-1.31,4.74-2.36,6.94a3.22,3.22,0,0,1-2.84,1.78,13.77,13.77,0,0,0-4.8,1.39c-2.83,1.3-5.56,2.82-8.33,4.24a10.4,10.4,0,0,0-1.22.52c-3.36,2.36-6.74,4.68-10,7.17-.91.7-2.17,1.43-2.18,3,3.75-.68,6.84-3.35,10.76-2.7.12,0,.3.06.35,0,1.16-1.35,2.69-.61,4-.67s2.53-.89,4-.84c5,.19,10.08.07,15.13.07.71,0,1.71-.28,2.1.08,1.28,1.2,2.9.09,4,.71,1.48.82,2.94.58,4.43.65,1.06,0,2.13,0,3,0l1.19,1.84c1.27,2,3.74,2.1,5.36,3.73,2.16,2.18,4.21,3.79,5.43,6,1.34,2.41,1.78,2.9,3.56,4a2,2,0,0,0,0-.34c-.35-4.74,1-9.63-1.4-14.19-.46-.88-2.53-6-3.14-6.63-1.48-1.5-3-3-4.52-4.53a4.78,4.78,0,0,1-1.82,1.39c.27-1.38-.09-2.61.69-4,.89-1.62,1.1-3.62,1.52-5.48s2-3.4,1.5-5.54c-.07-.3.47-.73.71-1.12S295.83,510.08,296.35,509.22Zm-31.24,70.33c-.86-1.81-2-3.25-2.23-4.83-.49-2.86-1.2-5.75-.79-8.7a35.32,35.32,0,0,0,.68-4c.1-4.61,2.15-8.45,4.52-12.2a13.8,13.8,0,0,0,.75-1.62c-5.31,0-10.22,0-15.13,0a20.49,20.49,0,0,0-4.43.51,28.55,28.55,0,0,1-4.7.94c-1.83.11-3.65.43-5.47.71a1.51,1.51,0,0,0-.87.48,2.75,2.75,0,0,1-2.14,1,4.39,4.39,0,0,0-2.51.81c-2.48,2.06-5.63,3.32-7.5,6.15,0,1.77,0,3.58,0,5.38a6.67,6.67,0,0,0,.5,2.31c1.43,3.88,4.42,5.61,8.14,6.82a45.49,45.49,0,0,0,0-5.25c-.33-2.73,1-4.91,2.28-7a9.4,9.4,0,0,1,4.55-4.24c.55-.21,1.07-.51,1.61-.77a2,2,0,0,1-.42,1.78c-1.48,1.61-3.34,2.93-3.81,5.28-1.63.76-.92,2.52-1.56,3.67a5.7,5.7,0,0,0-.34,4.47c.84,2.51,1.36,5.65,5.08,5.77,2.17,1.49,4.57.33,7.2.86-.36-1.61.27-2.92-.79-4.25a4.1,4.1,0,0,1-.71-2.89,28.14,28.14,0,0,1,1.65-6.51c.68-1.61,1.18-3.59,3.4-4.46a8.17,8.17,0,0,1-.25,1.89c-.58,1.33-1.8,2.68-1.84,3.88-.11,2.94-.66,5.91,1.06,8.88,2,3.44,2.72,4.25,6.31,5.57A9.3,9.3,0,0,0,265.11,579.55Zm19.68-35a17.76,17.76,0,0,0-10.24,3,22.09,22.09,0,0,0-8.87,10.68c-.82,2-1.66,4-1.46,6.25a23.86,23.86,0,0,1,0,4.31,12.15,12.15,0,0,0,1.44,6.26c1.81,4,5.35,5.69,9.17,6.15,5.69.7,10.18-.22,15.42-4.2a14.55,14.55,0,0,0,5.36-6.6c.58-1.3.31-3,.36-4.53,0-1.29,0-2.59,0-3.88l-.78.57-1.05-2.15c.47,3.51-2.23,6.11-1.9,9.53a3.2,3.2,0,0,1-1-4.34,5,5,0,0,0,.26-4.07,6.89,6.89,0,0,1-.54-3,19.59,19.59,0,0,0-3.7-11.06A18,18,0,0,0,284.79,544.55Zm69.28-5a54.1,54.1,0,0,0,3.86,3.81c2.21,1.77,4.56,3.35,7.58,3.38A12.08,12.08,0,0,0,376,541.09a27.34,27.34,0,0,0,4.15-8,18.5,18.5,0,0,0,1-5.33c0-2.16-.11-4.33,0-6.48.21-3.65-1.48-6.64-3.53-9.31-1.46-1.88-3.82-3.29-6.34-2.68-2.89.71-5.84,1.6-8.12,3.8a20.21,20.21,0,0,0-4.9,7c-1,2.49-2,4.85-1.67,7.59a3.92,3.92,0,0,1-.18,1c-1.73,0-3-.16-3.57,2.28-.77,3.29-3.13,6.13-3.5,9.67-1.61.93-1.35,2.8-2.17,4.06a2.37,2.37,0,0,0,2.73,1.29c2.23-.32,4.71.85,6.65-.94C355.69,543.37,353.08,542.9,354.07,539.54Zm23.42-212a8.05,8.05,0,0,0,5.37-3.83c1.16-1.86,2.8-3.14,4.18-4.73.55-.64,1.41-1.1,1.73-1.81,1-2.2,2.83-3.78,4-5.91s2.75-4.12,4.09-6.22c1.77-2.78,2.8-5.85,4.35-8.69s1.95-5.91,3-8.83c.46-1.24.13-3,1.45-3.64.8-.37,2.05.22,3.12.38l2.58-2.8c0-1.65.29-3.53-1-5.24-.76,0-1.59-.07-2.41,0a4.27,4.27,0,0,1-4.75-2.6c-.75-1.43-1.43-3.54-3.83-4a36.19,36.19,0,0,1-1.45,4.77c-1.15,3.26-2.7,6.38-3.71,9.64-1.48,4.77-4.23,8.84-6.43,13.2-2.54,5-5.95,9.58-9.14,14.23a12.46,12.46,0,0,0-1.84,7.54c1.26,1.29.59,2.91.7,4.39C377.57,324.7,377.49,326,377.49,327.56ZM299.92,212a1.54,1.54,0,0,1,.78.15c4.38,3.38,8.86,6.63,13.05,10.24,2.37,2,4.91,3.87,7.35,5.81a37.71,37.71,0,0,0,6.33,3.92,27.84,27.84,0,0,0,8,2.3c1.5.24,3.09.24,4.13-1.34.17-.26.76-.24,1-.3.43-3.15.12-5.84-2-8-.06-.06,0-.24,0-.34-1.33-2.69-3.64-4.66-5.28-7.13-3.66-1.8-6.12-5.18-9.62-7.23-.51.81.12,2.36-1.54,2.65a7.51,7.51,0,0,1-.81-2.51,16,16,0,0,0-1.17-6.28c-1.78,3.15-4.75,4.13-7.71,5.14s-5.34-.82-8-1.32-4.18-2.54-6.5-4.86C298.69,206.33,299.28,209.06,299.92,212ZM293.85,318.3a14.2,14.2,0,0,0,4.92,7.27c1.15,1,2.32,2.15,2.2,3.72a3.28,3.28,0,0,0,1.9,3.15c1.43.92,2.82,1.89,4.24,2.78,1.85,1.16,3.46,2.92,5.92,3,.33-2.13.3-4.4,1.08-6.36s.43-3.82.67-5.85a14.27,14.27,0,0,0-3.25-1.39c-3.26-.45-6.21-1.78-9.2-3-1.46-.57-3.16-.77-4.37-1.53A18.36,18.36,0,0,0,293.85,318.3Zm14.66-128.89a11.46,11.46,0,0,1-.95-2.47,15.31,15.31,0,0,1,0-3.58,2.49,2.49,0,0,0-1.18-2.39c-1.06-.88-2.15-1.73-4-1.17-.2,1.2-.41,2.52-.64,3.85-.58,3.42.9,6.57,1.58,9.78a8.26,8.26,0,0,0,3.55,5.31c2.05,1.26,4.23,1.65,6.44.31.49-.29,1.18-.6,1.32-1,.4-1.29,1.05-2.81.69-3.94a16.71,16.71,0,0,1-.62-4,2.41,2.41,0,0,0-.51-1.21c-1.08-1.44-2.2-2.84-3.59-4.61C309.85,186.08,309.27,187.51,308.51,189.41Zm29.66-40.23c-1.39-1-2.13-2.15-1.8-3.71a3.57,3.57,0,0,0-.69-2.59,9.5,9.5,0,0,1-.74-2.2c-1.11-4-3-7.43-6.51-9.78-1.37-.92-2.79-.16-2.86,1.55s0,3.58,0,5.37-.41,3.79,2.49,3.57c.24,0,.49.47.77.69,3.1,2.42,3.32,6.33,1.65,9.71-.63,1.27.24,1.26.48,1.76.76-.46,1.58-1.37,2.29-1.29C335.57,152.52,336.57,150.9,338.17,149.18Zm-31.45-76c-1.9-1.2-3.78-2.41-5.69-3.58-1.14-.7-1.15-2.51-2.74-2.76-.88-1.92-2.58-3.4-3-5.56a11.18,11.18,0,0,0-.51-1.58c-.15-.42-.33-.82-.55-1.34a15.49,15.49,0,0,0-1.7,9.89,29.52,29.52,0,0,0,3.08,3,40.4,40.4,0,0,1,9.81,10.24c.22.34.72.5,1.34.91ZM279,163.67c2-1.34,2.44-3,1.15-5.07-.11-.17,0-.49,0-.7-1.07-3.36-2.64-6.33-6.2-7.76l-2.44,1.5c0,2,0,3.93,0,5.84a5,5,0,0,0,1.44,3.73C274.57,163,276.47,164.18,279,163.67Zm-5,221.56c-.41.63-.64,1.42-1.16,1.72-5,2.88-8.8,7.3-13.74,10.22-1.18.7-2,1.89-3.2,2.65a14.79,14.79,0,0,0-3.27,2.78c-.82.95-2.24,1.36-3.28,2.15-3,2.27-6.61,3.58-9.25,6.34-2.52.24-4,2.5-6.22,3.19-1.62.51-2.72,2.19-4.62,1.92-.1,0-.25.34-.5.74l1.08,1.27c1.08-.45,2-.8,2.92-1.23s2-1.55,2.94-1.41c1.55.23.76-2.2,2.23-1.59l10.69-7.19c3-2,6-4,9-6,1.14-.78,2.17-1.71,3.28-2.52s1.56-1.93,3-2.39c1.24-.4,2.22-1.59,3.3-2.45s2.36-1.4,2.73-2.4c.58-1.61,2.23-1.5,3.09-2.6a18.2,18.2,0,0,1,3.2-2.59c.1-.09.1-.32.17-.58Zm102.6,158.91.54.52c.58-.27,1.16-.58,1.76-.81,3.73-1.42,5.44-4.75,7.45-7.79,1-1.55.3-3.23.48-4.84.12-1,0-1.92,0-2.88a7.34,7.34,0,0,0-2.21-6.09c.3,4.23-1.14,8-2.31,11.76S378.59,540.78,376.61,544.14ZM316.83,164.08c-3.74,4.45-9.05,4.62-13.63,6.55,4.42,2.06,8.37,5.15,13.63,4.55Zm67.75,190.53a18.5,18.5,0,0,0-1.67-2.56,4.75,4.75,0,0,0-2-1.25,1.52,1.52,0,0,0-1.35.48c-1,1.64-2.84,2.83-2.86,5.12a21.35,21.35,0,0,1-1.36,7,8,8,0,0,0,.1,2.62c.93-.34,1.84-.39,2.13-.84,1.28-2,3.06-3.63,4.44-5.58C383.19,357.93,383.18,355.84,384.58,354.61ZM227.3,423.87l3.95-3.08a10.76,10.76,0,0,0-1.75-1c-2.29-.73-2.8-2.28-1.28-4l1.62-1.81c-3.61-2.09-4.32-2-7.33,1.12C222,419.11,222.48,422.54,227.3,423.87Zm33.48-1.17c-1.25.09-2.26-.46-3.18.47a5.94,5.94,0,0,0-2,3.82,5.27,5.27,0,0,0,1.53,4,9.37,9.37,0,0,0,4.29,1.75,3.87,3.87,0,0,0,3-1.33,4.1,4.1,0,0,0,1.11-4.36,22.69,22.69,0,0,1-3.31.6c-1.79.07-2.52-.81-2.25-2.62A14.27,14.27,0,0,1,260.78,422.7ZM386.12,541.05a9.65,9.65,0,0,0,3.53-3c.78-1.11.86-2.33,1.44-3.42a8.43,8.43,0,0,0-2.61-10.8c-.52,1,0,1.74.54,2.52a5,5,0,0,1,.62,4.68c-1.25,2.86-1.29,6.17-3.33,8.71C386.14,540,386.21,540.37,386.12,541.05Zm-8.63-206c0,2.6,0,4.84,0,7.07-.06,2.52.44,5.09-.82,7.6,1.23-.24,2.19-.62,2.26-.94a32.83,32.83,0,0,0,.7-4c.13-1.55-.06-3.12.06-4.67C379.81,338.16,379.12,336.67,377.49,335ZM280.9,543h4c.57-1.2,1.08-2.25,1.51-3.13a7.68,7.68,0,0,1-.52-1.06c-.33-1.28-1.25-1.49-2.4-1.48s-1.46.68-2,1.54C280.66,540.21,280.86,541.51,280.9,543Zm13.75-346.07-.83.09c0,3-.18,5.93.06,8.86a4.83,4.83,0,0,0,3.28,4.2c.89-2.56-1.21-4.46-1.11-6.59C296.17,201.06,293.74,199.46,294.65,196.93ZM371.52,506.4c1.65,1.43,1.65,1.43,3.57,1.37s2.33-.52,2.42-2.52a2.3,2.3,0,0,0-1-2.43,2.9,2.9,0,0,0-3.14.85A32.33,32.33,0,0,0,371.52,506.4ZM328.4,204.65,323.53,199v7.63Z" transform="translate(-194.27 -30.84)"/><path d="M301,89c-2,.3-3.95.16-5,2.41l2.69.26C297.6,93,297.6,93,295.21,92.81c.33-1.46-.79-3.52,1.52-4C298.07,88.49,299.69,87,301,89Z" transform="translate(-194.27 -30.84)"/><path d="M283.74,289.45a39.67,39.67,0,0,0-10.6-.93c-1.58-2.26-2.89-4.43-2.36-7.14.13-.68.09-2,1.75-1,1,.59,2.57.06,3.86.2a39.73,39.73,0,0,1,4,.85,26.68,26.68,0,0,0-1-2.54,9.93,9.93,0,0,1-1.44-5.17c0-.48.22-1.17,0-1.42-2-2,.25-2.81.93-3.84,1.65.45,3.14.93,4.66,1.26,1.95.42,1.71.46,2.46,2.57.53,1.48,0,3.34.83,4.28,1.27,1.49,1.25,3.42,2.42,4.83a5.29,5.29,0,0,1,.56,1.32h5.69a14.63,14.63,0,0,1,3.34.59c1.56.4,2.36.85,2.22,2.48a4.39,4.39,0,0,0,1.46,3.8,5.92,5.92,0,0,1-6.62,1.38,14,14,0,0,0-3.46-.38c1.22,2.93,1.87,5.73,3.33,8.25.58,1,.22,2.53.3,4.17-2.33-.29-4.48-.5-6.6-.86a2.21,2.21,0,0,1-1.34-1c-.82-1.45-2-2.62-2.47-4.4-.37-1.39-.09-3.29-1.83-4.35C283.38,292.12,283.74,290.57,283.74,289.45Z" transform="translate(-194.27 -30.84)"/><path d="M325.46,396.9,335.57,395a6.11,6.11,0,0,0-1.38-5.1,18.18,18.18,0,0,1-2.91-5.82c1.29-.55,2.57-1.19,3.91-1.65,1.55-.54,2.37-.15,3.34,1.43,1.34,2.19,3.36,4,3.71,6.76.13,1,2.58,1.5,4.09.8a21.42,21.42,0,0,1,4.92-2.09c.46-.09.39-1.73,1.54-1.22.82.36,2,1,2.09,1.65.21,1.16,1.32,1,1.71,1.78s.86,1.35,1.4,2.18a37.41,37.41,0,0,1-5.51,2.9,10.6,10.6,0,0,0-2.44,1.13,8.69,8.69,0,0,1-2.79.64,21.83,21.83,0,0,0,4.31,5.95c.44.41,1.05.78,1.23,1.29s.76,1.57-.57,1.95c-.51.14-.87.84-1.39,1-1.38.34-1.49,1.43-1.66,2.69-2.65-.6-3.78-2.81-5.26-4.5s-2.92-3.79-4.36-5.69c-2.48.34-4.4,2.44-7.05,2.17a3.07,3.07,0,0,1-3.61.59,7,7,0,0,1-2.56-3.15A16.47,16.47,0,0,1,325.46,396.9Z" transform="translate(-194.27 -30.84)"/><path d="M320.15,154.34c-3.49,0-3.49,0-5.24,1.44a25.89,25.89,0,0,0-9.9-2.22,31.71,31.71,0,0,1-5.39-.83c1-2.35,1.11-2.47,3.56-1.59a1.38,1.38,0,0,0,1.52-.07c1-.65.09-1.06-.05-1.61a18.37,18.37,0,0,1-.76-5.82,26.41,26.41,0,0,0,0-5c-.39-3.05,1.2-5.5,2.25-8.09.83-2,3-2.56,5.19-2.38,3.4.29,4.8,2.7,6.53,5.07s1.68,5.55,3.32,8c.39.58.09,1.64.05,2.48C321.08,147.19,321.79,150.75,320.15,154.34Zm-9.74-2.27c2.07.52,4.11,1.08,6.18,1.53a2,2,0,0,0,2.48-1.38,4.92,4.92,0,0,0,.74-2.58c-.33-2.53-.16-5.18-.87-7.58a29.53,29.53,0,0,0-1.6-5.08,22.54,22.54,0,0,0-5.16-6.43h-2.91c-.82.87-2.14,1.62-2.35,2.61-.29,1.4-1.19,2.45-1.49,3.71a21.9,21.9,0,0,0-.07,4.64,2.13,2.13,0,0,1,2.83.88c1.15,1.69,2.34,3.35,2.23,5.56C310.36,149.26,310.41,150.57,310.41,152.07Z" transform="translate(-194.27 -30.84)"/><path d="M312.68,121.08h-5.43c-2.77,2.48-4.42,5.52-6,8.65-.36-3.24,1-5.9,2.84-8.33.68-.9.66-2.68,2.51-2.41,2.22-1.52,3.84-.35,5.36,1.21C312.17,120.41,312.33,120.65,312.68,121.08Z" transform="translate(-194.27 -30.84)"/><path d="M331,122.62l-1.55,1.54L326.79,121c-2.56,1.62-2.56,1.62-3,4.58a3.67,3.67,0,0,0-3.29-1.61,6.87,6.87,0,0,1-3.56-1.23c1,0,1.93-.1,2.89-.12s2.14,0,3.21,0c.67-1.51.62-3.39,2.31-4.33a4.37,4.37,0,0,1,3.73,3.43C329.38,122.84,330,122.55,331,122.62Z" transform="translate(-194.27 -30.84)"/><path d="M312.09,524.64c-.32.5-.53,1.12-.75,1.12a45.17,45.17,0,0,1-7.89,0,11.14,11.14,0,0,1-5.07-2.35c-1.12-.91-1.27-2.71-.92-4.22a4.14,4.14,0,0,1,1.74-2.88,13,13,0,0,1,7.89-2.73c1.18,0,1.59.72,2,1.84-1.81.36-3.53.82-5.27,1-2.65.32-2.73.32-2.8,2.89,0,.36,0,.72,0,1.07C303.7,523.89,307.75,523.84,312.09,524.64Z" transform="translate(-194.27 -30.84)"/></svg>