<?xml version="1.0" encoding="utf-8"?>
<!-- Generator: Adobe Illustrator 25.2.1, SVG Export Plug-In . SVG Version: 6.00 Build 0)  -->
<svg version="1.1" id="Capa_1" xmlns="http://www.w3.org/2000/svg" xmlns:xlink="http://www.w3.org/1999/xlink" x="0px" y="0px"
	 viewBox="0 0 848.69 1080" style="enable-background:new 0 0 848.69 1080;" xml:space="preserve">
<style type="text/css">
	.st0{fill:#56ADDF;stroke:#000000;stroke-width:3;stroke-miterlimit:10;}
	.st1{fill:#8DCCF1;stroke:#000000;stroke-width:3;stroke-miterlimit:10;}
	.st2{fill:#FFFFFF;}
	.st3{fill:#020203;}
</style>
<g>
	<path class="st0" d="M648.35,846.72H214.96c-34.96,0-63.31-28.34-63.31-63.31V263.03c0-34.96,28.34-63.31,63.31-63.31h433.38
		c34.96,0,63.31,28.34,63.31,63.31v520.38C711.66,818.38,683.31,846.72,648.35,846.72z"/>
	<path class="st1" d="M614.61,812.98H181.22c-34.96,0-63.31-28.34-63.31-63.31V229.29c0-34.96,28.34-63.31,63.31-63.31h433.38
		c34.96,0,63.31,28.34,63.31,63.31v520.38C677.91,784.64,649.57,812.98,614.61,812.98z"/>
</g>
<g>
	<path class="st2" d="M195.59,520.16c0,0-12.36,165.64,57.57,116.8c0,0,28-21.84,0-62.69l69.94,25.81v-71.3
		c0,0,25.62,11.12,32.14,5.68s15-5.68,15-5.68l23.72,40l-9.5,40.56l-14.22,35.93c0,0-36.51,31-31.63,38.94c0,0,14.77,9,119.71-38.94
		c0,0,30.41-18.09,32.33-21.09s1.62-57.4-51.63-24.8l-45.3,33.46l19-62.12l-33.67-50.56l-3.51-7.13c0,0,3.92,3.82,13.32-97.62
		l0.06-11.12c0,0,89.13,121.25,129.92,97.25L404.72,399.43c0,0-3-36.33,15.62-35.91l85.2,81.15c0,0,76,51.44,115.67,0
		c0,0,66.63-92.86-102.33-99.79h-9.43c0,0,7.11-14-4.77-13.21c-11.88,0.79,17-37.91-45.34-63.25c-18.95-7.71-62.47-7.6-56.94,17.33
		c0,0-48.11,9.86-54.13,60.44c0,0-4.64,8.57,15.37,39.37l11.94,4.57l-2.28,11.19l-2.65,25.81c0,0-31.87,64.16-74.51,32.88
		c0,0-42.64,18.46,8,60.15c0,0,11.32,30.87,2.11,52.25c0,0-17.2,11-70.45-37.95C235.72,534.46,212.23,463.39,195.59,520.16z"/>
	<path class="st3" d="M388.9,415.41c-1.06,9.91-2.49,19.79-3.1,29.73c-1,17.19-1.46,34.41-2.41,51.6c-0.11,3.5-0.98,6.94-2.54,10.08
		c-3.05,5.58-1.54,10.23,1.64,14.79c8.91,12.79,17.69,25.68,27,38.18c3.91,5.24,5.31,10.15,3.27,16.47
		c-3.89,12.1-7.33,24.36-11,36.55c-0.57,1.92-1.08,3.85-2.11,7.55c4.63-3.17,7.8-5.51,11.13-7.59c12.5-7.81,24.77-16.05,37.68-23.12
		c8.73-4.91,19.06-6.12,28.68-3.36c19.37,5.5,25.78,22.07,13.42,37.87c-5.5,6.86-12.55,12.31-20.56,15.92
		c-39.58,17.49-79.55,34.09-119.44,50.89c-2.27,0.92-4.73,1.3-7.17,1.12c-9.16-0.73-12.93-7.07-8.25-15
		c2.84-4.99,6.73-9.32,11.39-12.68c22.69-15.32,32.62-37.68,36.57-63.63c0.8-5.27,1.2-10.7,2.77-15.75
		c3.27-10.49,1.07-19.48-5.32-28.14c-4.86-6.59-8.87-13.8-13.52-20.55c-0.95-1.38-3.49-3.12-4.59-2.72c-11,4-21.89,1.91-32.77-0.45
		c-0.84-0.05-1.68-0.01-2.51,0.1c0.8,8.81,1.9,17.49,2.31,26.21c0.47,10.24,0.93,20.54,0.3,30.74c-0.75,12-3.2,13.51-14.31,9.32
		c-13.81-5.21-27.31-11.25-41-16.86c-3.9-1.59-7.9-2.92-12.85-4.74c2.11,5,4.25,8.78,5.26,12.82c4.23,17,1.78,33.18-8.24,47.61
		c-13,18.77-36.72,19.32-50.92,0.23c-6.53-8.78-11.17-19.75-13.9-30.43c-8.08-31.61-6.52-63.5,0.9-95.11c1.07-4.38,2.75-8.59,5-12.5
		c4.49-7.86,12.7-8.82,18.9-2.13c2.99,3.1,5.32,6.78,6.83,10.82c6.92,20.31,20.25,34.83,38.85,45c11.7,6.39,23.26,13,34.92,19.47
		c2.04,1,4.14,1.89,6.27,2.68c2.57-14.33,2.7-27.94,1.85-41.65c-0.42-6.69-2.47-11.17-8.87-15.17
		c-12.27-7.68-19.11-19.98-20.74-34.68c-1.73-15.17,10.59-27.22,25.83-25.36c3.44,0.55,6.85,1.31,10.2,2.27
		c17.65,4.37,34.45-2.64,43.76-18.37c8.47-14.32,10.86-30.41,13.05-46.48c0.28-2-1.2-4.74-2.65-6.49c-5-6-10.24-11.75-15.44-17.56
		c-11.86-13.23-13.61-28.21-6.79-44.11c9.42-22,25.59-37.27,47.71-46.36c2.16-0.89,4.91-2,5.88-3.81
		c5.42-10.09,14.83-13.12,25-14.55c4.98-0.57,10.02-0.2,14.86,1.08c-2.6,0.27-5.22,0.87-7.8,0.76
		c-14.66-0.65-23.26,7.52-28.89,19.81c-4.11,9-5.81,18.48-4.1,28.22c2.84,16.11,15.47,26.22,35,28.18
		c20.33,2.03,40.83-1.31,59.46-9.68c4.16-1.82,6-4.27,6.37-9.16c1.52-21.78-8-37.06-26.6-47.38c-3.86-2.14-7.8-4.13-11.5-6.56
		c13.23,2.82,24.48,8.93,32.81,19.83c8.33,10.9,9.65,23.6,8.55,36.72c10.41,0.1,13.45,2.8,13.31,13c-0.07,5.09,2,6.36,6.38,6.6
		c16.8,0.93,33.6,1.9,50.39,3.07c18.94,1.32,36.58,6,49.25,21.54c15.39,18.9,19.69,40,10.4,62.8c-9.76,24-28.89,35.88-54,39
		c-23.12,2.9-43.7-4.05-63.14-16c-15.46-9.5-27.44-22.69-39.59-35.79c-16.26-17.55-34.86-32.36-54.45-46
		c-7.25-5-10.6-3.36-12.26,5.6c-1.05,5.68-2.3,11.32-4,19.65c4.23,4,10.08,10.64,16.93,16c23.45,18.28,47.28,36.09,70.92,54.14
		c7.49,5.73,14.92,11.55,22.22,17.54c2.34,1.92,5.27,4.22,5.94,6.85c1,4.07,1.64,9.21-0.07,12.67c-1.11,2.27-6.81,3.66-10.11,3.17
		c-5.84-0.99-11.5-2.81-16.83-5.4c-27.1-12.62-49.08-31.78-68.65-54.07c-9.34-10.63-19.21-20.79-28.9-31.1
		c-1.59-1.52-3.26-2.96-5-4.3L388.9,415.41z M392.31,290.41c-19.95,11.72-36.32,25-42.39,47.52c-3.78,14.07-0.57,26.36,10,36.61
		c5.16,5,10.34,10,15.29,15.17c20.2,21.25,40,42.85,60.55,63.82c17.58,18,37.11,33.6,59.84,44.75c3.7,1.71,7.66,2.81,11.71,3.23
		c2.16,0,4.19-1.05,5.43-2.83c0.72-1.43-0.08-4.47-1.29-5.86c-2.83-3.25-6.02-6.16-9.51-8.67c-19.53-13.93-40.46-26.21-58.5-41.84
		c-26.15-22.66-50.29-47.65-75.15-71.79c-3-3-6.12-6.5-7.54-10.37c-2-5.7-3.22-11.66-3.62-17.69c-0.36-4.72,2.57-7.12,7.82-7.08
		c13.68,0.1,26,4.16,36.45,12.77c30.37,25,62.11,48.33,88.65,77.82c25.59,28.43,58.28,40.14,96.35,36.16
		c33.47-3.5,54.09-33.22,44.74-64.12c-10.22-33.79-57.85-55.62-90.46-41.52c-1.78,0.77-4,1.74-5.69,1.26
		c-7.11-1.96-14.08-4.35-20.9-7.15c-3.93-1.7-6.53-0.69-10.12,0.9c-7.64,3.36-15.55,6.09-23.64,8.16c-2.09,0.55-5-2.22-7.6-3.47
		c1.77-1.71,3.25-4.11,5.36-5c6.2-2.68,12.76-4.54,19-7.16c3.95-1.67,7.69-3.8,11.14-6.34c1.17-0.87,1-3.52,1.49-5.36
		c-1.68-0.26-3.66-1.21-5-0.65c-5.66,2.38-11.21,5-16.64,7.92c-7,3.68-14,6.24-22.14,6.56c-5.06,0.28-9.96,1.88-14.22,4.63
		c-5.42,3.77-12.1,5.29-18.62,4.24c-23.84-3.27-41.4-23.95-40.77-48c0.06-5.02-0.02-10.08-0.02-16.61V290.41z M312.96,585.81
		c-36.28-12.09-65.79-32.23-93.39-57.33l8.05-3.11c-3.75-6.57-6.82-13-10.83-18.69c-5.42-7.76-10.44-7.26-13.15,1.89
		c-3.34,10.95-5.63,22.19-6.84,33.57c-2.43,25.08-1.82,50.22,7.75,73.95c3.18,7.89,8.37,15.89,14.77,21.35
		c15.45,13.21,37.33,5.21,41.5-14.62c1.37-6.83,1.69-13.83,0.94-20.76c-1.39-13.25-5.83-25-18.67-32c-5.51-3-10.51-7.15-15.29-11.29
		c-3.3-2.84-5.85-6.57-3.68-12.37c29.31,22.28,62.44,39.02,97.76,49.41c0.54-3.26,1.26-5.46,1.21-7.66
		c-0.35-16.78-0.5-33.58-1.45-50.33c-0.57-10.16-0.66-20.71-6.71-29.66c-5.7-8.41-7.11-17.75-6.81-27.57
		c0.24-3.66,0.27-7.33,0.09-11c-0.1-1.21-1.76-2.62-3-3.2c-0.51-0.24-2.33,1.28-2.84,2.35c-1.15,2.19-1.93,4.56-2.32,7
		c-1.75,14.94-4.47,30.13,8.86,41.93c0.74,0.93,1.2,2.05,1.31,3.23C314.03,542.04,312.93,563.33,312.96,585.81z M486.9,612.5
		c0.08-14.16-7-21.31-19.82-20.74c-4.25,0.19-8.87,0.59-12.58,2.39c-12.84,6.26-26.09,12.1-37.77,20.15
		c-11.32,7.81-24.18,15.56-25.6,31.86c-0.14,0.81-0.63,1.52-1.34,1.94c-1,0.51-2.43,1.05-3.3,0.68c-0.68-0.29-1.11-1.93-1.09-3
		c0.13-1.43,0.44-2.83,0.94-4.18c6-19.61,11.6-39.34,18.1-58.77c3-8.94,2.91-16.74-3-24.19c-6.11-7.66-12.15-15.38-18.42-22.92
		c-0.79-0.94-2.78-0.89-4.21-1.3c-0.32,1.5-1.13,3.1-0.84,4.47c0.53,2.19,1.41,4.29,2.6,6.2c3.66,6.16,7.83,12,11.14,18.4
		c1.81,3.48,3.58,7.82,3.13,11.5c-3.06,25.92-10.19,51.2-21.12,74.91c-1,2.06-3.43,3.88-5.63,4.82c-11.07,4.71-18.95,12.8-24.75,23
		c-2.61,4.58-0.7,7.15,4.66,6.32c4.24-0.73,8.38-1.93,12.34-3.59c29-11.81,58.08-23.59,87-35.76c10-4.12,19.69-8.95,29-14.45
		C483.01,626.22,487.1,619.59,486.9,612.5z M329.57,470.65c-10.3-2.34-11.38-1.86-9.62,7.86c2.11,11.24,4.91,22.35,8.38,33.25
		c1.55,4.91,4.87,9.43,8,13.64c2.81,3.75,7,4.19,11.9,2.25C337.72,509.84,328.39,492.11,329.57,470.65z M345.12,465.04
		c-5.72,1.11-7.15,4.27-6.35,9.08c2.24,14.21,7.88,27.67,16.43,39.23c6.92,9.34,9,9.1,14.91-0.91c0.18-0.31,0.07-0.78,0.11-1.43
		C356.18,499.1,348.38,483.52,345.12,465.04L345.12,465.04z M376.72,496.12l1.82-0.39c0-3.51,1.35-7.87-0.23-10.38
		c-6.56-10.41-14-20.25-22.05-31.59c-0.34,3.85-1.55,7.37-0.76,10.37C358.93,477.17,367.09,487.2,376.72,496.12z M380.53,469.58
		c-0.37-5.31,0.86-10.64-1.24-13c-4.53-5-10.77-8.5-15.43-12c-1.55,3.32,4.86,15.92,16.68,25H380.53z M291.03,466.84
		c-9.43,5.83-11.57,24.08-4,31.22c1.31-10.06,2.69-20.68,4.01-31.22H291.03z M370.9,427.13c-2.35,8.22,1.18,14.27,9.52,17.46
		c2.3-9.02-6.34-11.12-9.51-17.46L370.9,427.13z M383.64,416.36c3.41-8.79-5.47-10.11-7.61-15c-1.83,7.01,2.13,10.97,7.62,15H383.64
		z M381.72,429.9c3.21-8.32-5.6-10.1-7.47-16.25C371.66,419.96,374.35,425.31,381.72,429.9z"/>
	<path class="st3" d="M377.97,695.33c45.48-1.34,91-2.88,136.45-3.83c7.86-0.17,15.82,1.9,23.63,3.47c2,0.41,4.86,2.82,4.95,4.44
		s-2.37,4.58-4.26,5.15c-8.38,2.55-16.86,5.08-25.5,6.47c-28.7,4.64-57.22,1.92-85.68-2.82c-11.58-1.85-23.45-0.82-34.54,3
		c-15.87,5.19-32.52,4.21-48.84,2.83c-32.3-2.72-64.52-6-97-3.24c-5.73,0.4-11.49-0.07-17.08-1.39c-2.58-0.57-4.59-3.76-6.86-5.76
		c2.24-1.74,4.35-4.75,6.75-5c8.74-0.89,17.62-1.65,26.35-1C296.92,700.45,337.47,700.21,377.97,695.33z"/>
	<path class="st3" d="M184.72,648.9c-10.72-7.16-21-35.49-17.56-49.34C173.13,616.31,178.93,632.58,184.72,648.9z"/>
	<path class="st3" d="M523.82,616.9c0-6.72,0.92-13.29-0.25-19.47c-1.27-6.76-6.47-10.64-14.12-10.73c1.41-4.36,3.8-5.86,7.55-4.28
		c9.75,4.1,15,25.28,8.34,33.57C524.89,616.38,524.38,616.69,523.82,616.9z"/>
	<path class="st3" d="M496.59,313.9c-0.79,0.78-2.21,3.35-4.15,3.83c-2.93,0.71-8.44-7.49-8.23-12.31c0.06-1.32,2-3.5,3.29-3.64
		C491.84,301.28,496.62,307.07,496.59,313.9z"/>
	<path class="st3" d="M484.04,318.2c-0.82,0.71-2.28,2.94-4.16,3.37c-3.36,0.78-9.15-7.68-8.52-12.48c0.17-1.28,1.9-3.22,3.09-3.35
		C478.72,305.27,484.22,311.78,484.04,318.2z"/>
	<path class="st3" d="M172.53,653.54c-11.05-3.09-15.67-9.26-13-16.58L172.53,653.54z"/>
	<path class="st3" d="M546.43,600.08l-4.78-14C547.56,586.53,550.25,594.01,546.43,600.08z"/>
</g>
</svg>
