<?xml version="1.0" encoding="utf-8"?>
<!-- Generator: Adobe Illustrator 25.2.1, SVG Export Plug-In . SVG Version: 6.00 Build 0)  -->
<svg version="1.1" id="Capa_1" xmlns="http://www.w3.org/2000/svg" xmlns:xlink="http://www.w3.org/1999/xlink" x="0px" y="0px"
	 viewBox="0 0 848.69 1080" style="enable-background:new 0 0 848.69 1080;" xml:space="preserve">
<style type="text/css">
	.st0{fill:#56ADDF;stroke:#000000;stroke-width:3;stroke-miterlimit:10;}
	.st1{fill:#8DCCF1;stroke:#000000;stroke-width:3;stroke-miterlimit:10;}
	.st2{fill:#FFFFFF;stroke:#020203;stroke-width:0.08;stroke-miterlimit:10;}
	.st3{fill:#020203;}
</style>
<g>
	<path class="st0" d="M648.35,846.72H214.96c-34.96,0-63.31-28.34-63.31-63.31V263.03c0-34.96,28.34-63.31,63.31-63.31h433.38
		c34.96,0,63.31,28.34,63.31,63.31v520.38C711.66,818.38,683.31,846.72,648.35,846.72z"/>
	<path class="st1" d="M614.61,812.98H181.22c-34.96,0-63.31-28.34-63.31-63.31V229.29c0-34.96,28.34-63.31,63.31-63.31h433.38
		c34.96,0,63.31,28.34,63.31,63.31v520.38C677.91,784.64,649.57,812.98,614.61,812.98z"/>
</g>
<g>
	<path class="st2" d="M336.07,382.49l0.72,31.72l13.33,104.52l12,60.3l4.28,75.45l1.25,40.32l-7.14,25.1l24.7,7.29l20.28-4.67
		l-1.65-5.12l-2.57-26.5l-1.2-23.91l-5.62-23.62l2.19-93.16l-0.49-49.48l4.39,81.57c0,0,5.34,32.69,2.27,36.44s3.25,16,3.25,16
		l-3.89,11.59l2.71,16.11l-3,9.17l3.07,19.29l6.2,13.08l20.06,0.51l4.29-6l3.78-9.89c0,0,3.32-6.09,0.79-21.61
		c0,0,0.15-16.81,0-20.88s0.37-11.36,0.37-11.36l3.13-4.19l-1-13.24v-8.39c0,0,2.41-7.17,1.93-9.58s-3.39-7.65-3.39-7.65
		c1.37-1.7,1.95-3.9,1.6-6.06c-0.42-2.77-0.48-5.58-0.17-8.36l1.11-5.32l1.62-0.47c0,0,0.18-5.52-0.13-11.07
		c-0.22-3.49-0.71-6.96-1.48-10.37l1.81-17.83c0,0,5-16.16,6.07-17.73s-1.57-3.13-2.38-7.5s1.5-8,0.79-11.25s-4.38-11.3-4.38-11.3
		l0.39-4.79c0,0-2.21-6.06-1.26-8.18s-3.64-9.94-2.77-11.93s-0.85-5.17,0-7.82s2.33-12.44-4.48-16.72c0.42-4.7,1.26-9.35,2.5-13.9
		c1.78-5.64-4.4-8.39-3.12-13.62c1.28-5.23,5-12.56,5-12.56s0.64-12.76,1.18-17c0.54-4.24,5-8,5-8s9.07,12.06,8.25,17.1
		c-0.65,2.68,0.85,5.41,3.46,6.29c0,0,0.47-0.43,0,7s4.3,14.79,4.78,18.87c0.48,4.08-5.57,1.45,0,10.74s7.94,9.92,8.8,15.53
		s1.12,5.5,0,9.3s0.12,8.24,1.19,12.48s-4.15-0.93-2.05,8s-1.79,12.34,0,15.23s1.82,6.5,3.75,7.59s0.76,5.26,3.64,0.64
		s-4.53-6.54-0.78-8s4.06-5,6.16-4.88s3.93,5.35,3.75,8.52s-5.49,9-4.06,9.35s0.78,2.81,4.42,4.2s3.25,3.42,6.66,1.33s4-4.21,7-9.19
		l3-5c0,0,0.59-4.25,1.49-7.91s1-4.06-6-22.31c0,0-7.44-25-6.55-30.49s0.06-10.84,2-13.17s-0.25-11-0.25-11l-4.14-7.86
		c0,0,3.33-8.43,2.5-10.12c-0.83-1.69-7.13-7.57-6.56-9.21c0.57-1.64,1.25-3.58,0.9-5.33s0-4.62-1-6.34s-5.06-5.22-6.22-8.75
		s-6.57-11.44-6.29-14.94s-1.85-7.08-1.85-7.08c-0.31-1.57-0.81-3.1-1.51-4.55c-1.41-3.36-4-1.91-3.78-6.51
		c0.22-4.6,0.25-9.32-1.55-10.55c-1.8-1.23-7.5-14.74-7.5-14.74l-7.74-7.83c0,0-4.59-5.57-11.68-5c-7.3,0.77-14.68,0.22-21.78-1.63
		l-7.56-2.43c0,0-0.27-2.88-0.21-5.84c-0.12-2.61,0.35-5.22,1.38-7.62c1.4-3.89,3.39-6,4.35-11.14c0.96-5.14,4.56-5,5.55-10.93
		c0.99-5.93-4.37-19.84-7.23-26.14s-3.2-9.88-7.3-10s-2.95-2.05-8.53-2.87c-5.58-0.82-7.06-1.15-7.06-1.15s-16.64,7.32-18.69,9.45
		c-2.05,2.13-13.33,23.65-13.4,27.55c-0.07,3.9,8.25,22.53,9.25,24.87s3.82,13.42,1.71,17.07c-2.11,3.65-2.45,3.07-6.69,2.9
		c-3.54,0.01-7.08,0.35-10.56,1l-0.42-4.6l4.23-22.74c0,0-2.41-6.65-3.87-0.11c-1.46,6.54-7.33,27.45-7.33,27.45
		s-18.74,7.12-22.06,17.31c0,0-12.89,38-15.3,48.23c0,0-5.92,22-6.84,24.79c-0.92,2.79,1.28,3.32-2.27,12.78
		c-3.55,9.46-3.46,13.94-3.46,13.94s-3.11,3.38-3,5.49c0.11,2.11,6.2,17.69,4.26,21.3s-3.14,58.25-3.57,61.56
		c-0.43,3.31,4.42,10.38,12.86,16.32c0,0-1.11,17.17,4.25,17.19c5.36,0.02,6.41,6,9-11.82c2.59-17.82,5.46-11.14,5.18-25.1
		c-0.28-13.96-2.47-35.09,1.73-40.95C331.07,449.6,336.07,382.49,336.07,382.49z"/>
	<path class="st3" d="M374.17,420.19c0.61-0.35,1.43-1.15,1.82-1c3.92,1.73,7.79,3.61,11.63,5.51c0.35,0.17,0.46,0.83,0.68,1.27
		c-0.46,0.18-1,0.59-1.38,0.51c-1.35-0.26-2.64-0.79-4-1.06c-1.29-0.24-2.58-0.4-3.89-0.48c-0.7,0.01-1.39,0.06-2.08,0.17
		c0.57,0.64,1,1.55,1.73,1.85c0.98,0.23,1.99,0.35,3,0.36c1,0.18,2.55,0.23,2.83,0.82c1.33,2.82,3.12,1.58,5,0.93
		c2.46-0.87,4.41-2.27,4.33-5.11c-0.08-2.67,1.44-4.12,3.38-5.38c6.8-4.42,13.54-8.93,20.46-13.14c1.96-1.05,4.14-1.64,6.36-1.72
		c1.3,0.1,2.46,0.85,3.07,2c0.19,1.31-0.21,2.63-1.11,3.6c-1.16,1.03-2.53,1.82-4,2.31c-0.49,0.21-1.24-0.18-1.88-0.3
		c0.25-0.53,0.59-1.02,1-1.44c0.89-0.48,1.76-1,2.6-1.57c0.49-0.65,0.88-1.38,1.13-2.15c-0.83-0.17-1.79-0.71-2.44-0.46
		c-2.24,0.82-4.4,1.85-6.45,3.08c-5,3.12-9.63,6.76-14.77,9.55c-4.62,2.51-5.3,6.86-6.57,11.07c-0.05,0.17,0.88,0.93,1.16,0.84
		c2.94-1,5.82-2.12,8.77-3.08c0.67-0.21,2.11-0.06,2.2,0.22c1.26,4.29,2.2,0.94,3.31-0.05c1.99-1.9,4.09-3.67,6.3-5.31
		c1.17-0.66,2.51-0.95,3.85-0.81c0.83,0.05,1.61,1,2.41,1.58c-0.82,0.05-1.62,0.21-2.4,0.47c-2.59,1.24-5.15,2.57-7.67,4
		c-0.34,0.18-0.4,0.87-0.59,1.32c0.44,0.09,0.88,0.09,1.32,0c3.77-1.68,7.8-3,11.21-5.23c3.63-2.31,7.73-3.77,12-4.26
		c3.29-0.47,3.6-1.27,2.11-4.33c-0.93-1.82-1.65-3.75-2.13-5.74c-0.5-2.37,0.09-4.84,1.6-6.74c2.76-4,4.53-8.41,2.78-13.58
		c-0.64-1.88-0.26-4.11-0.34-6.18c0-1.4-0.91-1.85-2.06-1.49c-4.93,1.5-9.83,3.07-14.73,4.66c-0.82,0.27-1.55,1-2.35,1
		c-1.47,0.11-4.11,0.21-4.24-0.26c-0.61-2.15,1.82-2,3-2.66s2.6-0.73,3.92-1.05c0.34,0.25,0.67,0.52,1,0.75
		c0.06,0,0.24-0.11,0.36-0.18l-1.51-0.42c2.51-2.51,5.71-3.63,9-4.65c2.77-0.85,5.43-2,8.17-3c2.33-0.81,4.1-2.73,4.72-5.12
		c1.03-3.62,1.65-7.34,1.84-11.1c0.06-1.66-0.22-2.92,1.37-3.89c0.62-0.32,1.12-0.82,1.45-1.43c0.18-0.8,0.24-1.62,0.19-2.44
		c-0.94,0-2.42-0.41-2.73,0c-2.16,3.07-5.78,3.64-8.7,5.38c-0.28,0.17-0.88-0.19-1.33-0.31c0.12-0.3,0.3-0.59,0.52-0.83
		c0.55-0.41,1.13-0.77,1.75-1.07c0.81-0.27,1.61-0.58,2.39-0.94c3.27-2,6.5-4.08,9.73-6.17c0.6-0.31,1.11-0.77,1.48-1.34
		c3-6.54,6.71-12.86,7.38-20.24c0.03-1.88-0.1-3.77-0.38-5.63c-0.13-1.54-0.3-3.08-0.39-4.62c0-0.29,0.28-0.59,0.43-0.89
		c0.44,0.23,0.83,0.53,1.16,0.9c0.24,0.46,0.38,0.96,0.38,1.48c0.37,6.73,0.78,13.47-2.33,19.79c-1.6,3.25-3.12,6.54-4.85,9.72
		c-1.21,2.23-3.16,4.11-2.36,7c0.13,0.47-0.39,1.27-0.82,1.71c-2.82,2.88-2.6,6.53-2.7,10.11c0.07,0.49,0.22,0.97,0.45,1.42
		c0.51-0.33,1-0.62,1.51-1c0.66-0.52,1.27-1.09,1.9-1.64l-0.11-0.13c-0.13,0.66,0,1.48-0.4,1.95c-2.05,2.62-0.87,5.24-0.12,7.84
		c0.12,0.89,0.94,1.52,1.83,1.4c0.19-0.03,0.38-0.09,0.55-0.18c0.63-0.26,1.2-0.68,1.84-0.92c0.42-0.1,0.86-0.14,1.29-0.12
		c-0.17,0.56-0.43,1.09-0.75,1.58c-0.36,0.37-0.82,0.64-1.33,0.76c-1.94,0.56-1.95,1.65-0.89,3c2.15,2.8,3.74,5.77,3.2,9.49
		c-0.06,0.51,0.06,1.03,0.33,1.47c0.37,0.54,0.9,1.23,1.45,1.31c0.55,0.08,1.26-0.52,1.49-1c0.49-1.07,0.65-2.29,1.06-3.4
		c0.15-0.4,0.64-0.68,1-1c0.3,0.34,0.86,0.68,0.86,1c0,1.93,0.82,2.75,2.82,2.75c3.11,0,4.47,2.18,5.34,4.76
		c0.12,0.36-0.27,0.88-0.42,1.33c-0.43-0.19-0.83-0.44-1.19-0.74c-0.87-1.2-1.84-2.33-2.9-3.37c-0.8-0.59-1.83-0.76-2.77-0.46
		c-0.6,0.38-0.57,1.77-0.82,2.72l0.14-0.12c-0.83,1.08-0.86-2.92-2.31-0.22c-2.89,5.39-4.55,10.43,0.38,15.58c1,1,1.42,2.64,2.11,4
		c0.68-1.24,1.51-2.4,2.45-3.46c1.24-0.89,2.54-1.7,3.89-2.43c1.93-1.33,3.23-0.5,4.28,1.15c0.22,0.34,0.08,0.92,0.1,1.38
		c-0.43-0.12-1-0.12-1.27-0.4c-1.31-1.22-2-1.08-2.36,0.77c-0.29,0.44-0.79,0.7-1.32,0.68c-0.82-0.47-1.86-0.19-2.34,0.62
		c-0.17,0.3-0.25,0.65-0.22,1c-0.11,2.28-2.46,3-3,4.56c-0.58,1.79,0.44,4.09-0.09,5.92c-1.57,5.54,1.43,9.24,5.07,12.2
		c1.49,1.21,1.26,1.29,0.43,2.33c-0.29,0.35-0.27,0.94-0.4,1.42c0.63,0.16,1.36,0.61,1.88,0.44c5.39-1.74,10.82-3.37,16-5.5
		c1.5-0.61,2.39-2.73,3.53-4.18c0.16-0.27,0.29-0.56,0.37-0.87c-0.45,0-1.05-0.2-1.33,0c-2.31,1.74-4,1.49-6.13-0.73
		c-1.41-1.5-3.82-2.05-5.77-3.06c-0.31-0.21-0.6-0.45-0.86-0.73c0.32-0.14,0.66-0.25,1-0.32c2.64-0.31,4.59,1.06,6.54,2.6
		c1.8,1.36,4.28,1.36,6.08,0c1.78-1.22,0.45-2.36-0.16-3.52c-0.13-0.27-0.13-0.6,0-0.87c2.53-2.42,1.05-4.61-0.29-6.87
		c-0.19-0.31,0.05-0.88,0.09-1.34c0.59,0.14,1.41,0.08,1.72,0.45c0.5,0.69,0.84,1.48,1,2.31c0.43,1.84,0.73,3.7,1.09,5.56
		c0.07,0.34,0.17,0.67,0.25,1c0.25-0.23,0.47-0.48,0.66-0.76c2-3.65,0.38-11.57-3-14.37c-1.11-0.91-1.86-0.58-2.26,0.74
		s-0.76,2.64-1.2,3.94c-0.05,0.14-0.56,0.18-0.85,0.18c-0.11,0-0.29-0.22-0.33-0.37c-0.6-2,0.39-6.42,2-6.93
		c2.14-0.69,2.57-1.77,2.35-3.78c-0.06-1.19,0.13-2.39,0.54-3.51c1.4-4.51,0.81-8.42-2.81-11.81c-1.04-1.09-1.67-2.5-1.79-4
		c-0.08-1.15,1.26-2.35,1.36-3.58c0.1-1.23-1.25-2.89-0.8-3.5c1.48-2,0.59-2.3-1.15-2.94c-0.8-0.3-1.3-1.53-1.85-2.39
		c-1.11-1.75-2.2-3.51-3.21-5.31c-1.01-1.8-2.08-3-4.09-1.67c-1.39,0.9-1.71-0.13-2.34-0.91c-2.12-2.61-1.72-5.86-2-8.83
		c-0.43-4.41-0.22-8.87-0.34-13.31c-0.1-0.51-0.28-1-0.53-1.46c-0.14,0.49-0.25,0.98-0.33,1.48c-0.23,2.85-0.07,5.81-2.27,8.11
		l0.12,0.09c0.17-1.88,0.25-3.78,0.22-5.67c-0.14-2.2,0-4.72-1-6.48c-2.37-4.06-2.71-8.49-3.38-12.88
		c-0.82-5.36-2.35-10.26-5.95-14.56c-2.75-3.28-4.81-7.13-7.2-10.7c-0.47-0.73-1.03-1.4-1.65-2c-0.28-0.25-0.84-0.2-1.26-0.29
		c-0.06,0.3-0.06,0.62,0,0.92c1.22,2.85,2.52,5.66,3.69,8.53c0.12,0.62,0.12,1.25,0,1.87c-0.58-0.38-1.43-0.64-1.69-1.18
		c-1.11-2.32-2.13-4.71-3.05-7.12c-1.44-3.76-3.66-6.11-8.12-5.5c-1.9,0.15-3.8,0.09-5.69-0.17c-0.34,0-0.64-0.6-1-0.92
		c0.37-0.29,0.71-0.8,1.11-0.84c8.32-1,15.91,0,20.85,8c3.08,5,6.35,9.84,9.32,14.87c1.78,3.17,2.74,6.73,2.81,10.37
		c0.21,4.35,1.46,8.5,5.22,11.38c1.41,1.07,2.15,2.81,1.94,4.57c-0.35,3.98,0.53,7.97,2.53,11.43c1.17,2,1.28,4.67,2.38,6.77
		c1.9,3.64,4.15,7.1,6.38,10.56c0.63,1.03,1.52,1.87,2.57,2.45c1.54,0.77,1.47,1.7,1.54,3.26c0.11,2.66,0.35,5.1-1.18,7.53
		c-0.35,0.55,0.7,2.07,1.24,3.07c1.14,2.11,2.71,4.06,3.45,6.29c0.63,1.88,1,4.3,0.35,6.06c-1.48,3.95-1.01,8.38,1.29,11.92
		c3.92,6.56,2.14,12.54-0.87,18.64c-0.58,1.17-1.34,2.57-1.16,3.73c1.05,7,2.16,13.93,3.61,20.81c1.97,9.03,5.41,17.68,10.18,25.6
		c3.22,5.42,2.36,9.23-2.37,13.05c0.44-1.64,0.53-3.51,1.4-4.89c1.31-1.82,1.37-4.26,0.14-6.14c-0.51-0.89-0.76-1.92-1.25-2.82
		c-2.7-5-5.42-9.9-8.2-14.81c-0.2-0.35-0.91-0.41-1.38-0.6l0.13,0.16l1.53-2.95c-1.06-0.33-2.12-0.67-3.19-1
		c-0.14,0-0.45,0.15-0.48,0.1c-0.28-0.4-0.81-0.95-0.7-1.24c0.45-1.21,1.69-2.41,1.58-3.49c-0.43-3.92-1.26-7.81-2-11.69
		c-0.27-1.4-1-1.55-2.18-0.73c-4.93,3.47-9.59,7.47-15.83,8.48c-1.32,0.22-2.06,0.85-1,2c1.32,1.44,1.48,2.6,0.79,4.57
		c-0.59,1.72,0,4,0.44,5.89c0.34,0.91,1.12,1.58,2.07,1.8c1.55,0,3.87,1.13,4.22-2c0.05-0.43,2-0.65,3.13-0.91
		c0,0,0.22,0.61,0.34,0.94c-2.84-0.22-0.58,4.39-3.73,4c-0.26,0-0.61,0.57-0.92,0.88c0.33,0.08,0.67,0.14,1,0.24
		c0.9,0.26,1.79,0.54,2.69,0.82c-0.98,0.25-1.99,0.43-3,0.52c-1.02-0.07-2.04-0.2-3.05-0.39c-0.71-0.07-1.43,0-2.14,0
		c0.53,0.4,1,1,1.6,1.15c1.84,0.43,3.73,0.6,5.56,1c1.12,0.3,2.2,0.7,3.24,1.21c0.22,0.1,0.46,0.75,0.37,0.85
		c-0.26,0.29-0.61,0.48-1,0.53c-0.68,0-1.37-0.24-2-0.18c-1,0.1-2,0.38-3,0.57c0.89,0.76,1.82,1.46,2.79,2.1
		c0.31,0.19,1.05-0.37,1.39-0.2c1.58,0.8,3.09,1.73,4.62,2.63c0.11,0.12,0.18,0.28,0.2,0.44c-0.27,0.15-0.65,0.45-0.82,0.36
		c-0.6-0.31-1.08-1-1.7-1.1c-0.75-0.18-1.53-0.11-2.23,0.2c-0.29,0.15-0.31,1.18-0.19,1.76c0.32,1.67,0.74,3.33,1.21,5
		c0.1,0.35,0.57,0.59,0.86,0.88c0.28-0.37,0.49-0.8,0.62-1.25c0.08-1.28,0-2.57,0-3.86c0.89,0.78,1.74,1.62,2.69,2.32
		c3.06,2.25,2.21,5,1,7.77v0.95c-0.19,2.08,2,4.26-0.32,6.29c-0.22,0.19,0,1.44,0.38,1.69c1.83,1.24,2,3,2.11,5
		c0,0.43,1.25,1.22,1.73,1.09c0.98-0.27,1.86-0.84,2.5-1.63c0.22-0.28-0.74-1.33-0.88-2.08c-0.27-1.5-0.35-3-0.51-4.56
		c-0.17-1.68,0-3.48-0.61-5c-0.78-1.96-0.39-4.19,1-5.77c0.52-0.77,0.9-1.61,1.13-2.51c0.14-0.71,0.22-1.44,0.23-2.17
		c0.41,0.54,0.76,1.12,1.06,1.73c0.58,1.52,0.84,2.93-0.85,4.12c-0.52,0.65-0.75,1.49-0.62,2.32c0.3,3.24,0.61,6.5,1.21,9.7
		c0.19,1,1.22,2.47,2,2.59c1.49,0.21,1.76-1.34,1.69-2.57c-0.1-2.06-0.36-4.12-0.5-6.18c-0.15-2.22-0.29-4.45-0.31-6.67
		c0.09-0.68,0.33-1.33,0.72-1.9c0.11-0.19,0.54-0.23,0.84-0.26c0.08,0,0.28,0.28,0.27,0.41c-0.11,1.19-0.37,2.37-0.37,3.55
		c0,1.67,0.47,3.07,2.6,2.89c-0.23,2.22-0.35,4.44-0.36,6.67c0.29,2.28-0.67,4.55-2.51,5.93c-2.35,1.73-4.8,3.32-7.34,4.75
		c-0.77,0.44-2,0.14-3,0.06c-1.52-0.12-3-0.48-4.56-0.49c-2.09,0-3.74-0.64-4.69-2.57c-0.83-1.67-0.16-3.95,1.55-5.63
		c0.12-0.12,0.24-0.29,0.39-0.34c4.86-1.48,3.48-5.12,2.85-8.43c-0.21-0.83-0.6-1.6-1.13-2.27c-0.86-1.19-2-2-3.54-1.29
		c-1.32,0.6-2.01,2.08-1.6,3.47c0.42,1.66,0.72,3.35,0.88,5.05c0.16,2.16-1.21,4.14-3.29,4.75c-2.33,0.86-4.77,0.15-5.63-2.15
		c-1.7-4.61-4.26-9-2.55-14.4c0.67-2.35,0.64-4.83-0.06-7.17c-0.86-3.02-0.48-6.26,1.05-9c0.8-1.7,0.96-3.64,0.45-5.45
		c-1.18-5.36-1.77-10.83-1.78-16.32c0.1-2.22-0.71-4.39-2.25-6c-1.84-2-2.62-5-3.82-7.52c-0.84-1.69-1.6-3.43-2.27-5.2
		c-0.43-0.94-0.53-1.99-0.3-3c1.32-3.1,0.34-6,0-9.09s-1-6-3.34-8.42c-3-3.18-2.4-7-0.83-10.67c0.69-1.61,1.4-2.79-1.12-3.35
		c-1.85-0.41-2.23-2-2-3.7c0.54-3.52-1-6.31-2.77-9.17c-1.54-2.46-2.58-5.22-3.93-7.8c-0.62-1.19-1.05-1.11-2.1,0
		c-2.19,2.23-3.25,5.33-2.89,8.44c0.2,2.23-0.11,4.51,0.06,6.74c0.46,5.86-0.39,11.27-3.82,16.28c-2.24,3.28-0.85,6.59,1.14,9.6
		c2.59,3.91,2.34,6.21-0.31,10.2c-2.26,3.39-2.26,7.8,0,11.19c2.12,3.25,2.27,6.33,2.12,9.81s-0.07,7.22-0.15,10.82
		c-0.14,2.94,0.66,5.84,2.28,8.29c0.82,1.5,1.06,3.25,0.68,4.92c-0.36,1.62-0.11,3.32,0.71,4.76c0.82,2.06,1.31,4.24,1.45,6.45
		c0.26,2.39,0.14,4.82,0.2,7.24c-1.11-0.62-2.25-1-3,0.4c-0.43,0.8-1.05,2.16-0.71,2.6c2.53,3.28,3.41,7,3.63,11
		c0.08,0.3,0.22,0.58,0.4,0.83c0.26-0.21,0.49-0.46,0.68-0.74c1.4-2.96,1.47-6.38,0.2-9.4c-0.59-1.57-0.92-3.24-1.36-4.86
		c5.25,4.72,4.06,10.44,2.38,16.15c-0.52,1.79-1.44,3.31-0.72,5.4c0.49,1.6,1.59,2.94,3.06,3.74c1.19,0.57,1.69,2,1.11,3.19
		c-0.22,0.46-0.59,0.84-1.04,1.08c-3.47,1.9-2.87,6.1-5.39,8.44c-0.35,0.61-0.41,1.34-0.16,2c1.73,4.93,0.4,9.79,0,14.72
		c-0.34,4.31-0.63,8.48-2.3,12.56c-0.63,1.56,0,3.71,0.32,5.55c0.36,2.36,1.13,4.66,1.34,7c0.18,2,0.19,4.33-2.83,4.52
		c1.54-3.7,1.52-7.88-0.07-11.56c-0.74-1.89-1.43-3.81-2-5.76c-0.13-0.43,0.21-1.06,0.44-1.54c0.52-1,1.16-2,1.66-3.05
		c1.66-3.43,1-7.11,1.15-10.71c0.04-2.39,0.26-4.77,0.66-7.12c0.72-3.82-0.59-6.4-4.42-8.11c-0.48-0.32-0.92-0.7-1.29-1.14
		c0.52-0.37,1-1,1.56-1.06c2.55-0.13,2.57-1.44,2.18-3.51c-0.37-1.98-0.43-4-0.16-6c0.38-2.55,0.98-5.07,1.78-7.52
		c1.45-4.66,1-8.89-2.56-12.44c-1.56-1.58-3.41-2.87-5.06-4.37c-0.39-0.5-0.7-1.06-0.91-1.66c0.71-0.31,1.47-0.52,2.25-0.6
		c0.63,0,1.23,0.6,1.85,0.89c2.53,1.14,4.66,0.42,4.88-2.22c0.27-3.15,1.2-6.57-1.25-9.46c-1.46-1.55-1.86-3.83-1-5.78
		c0.29-1,0.19-2.07-0.27-3c-0.7-1.13-1.51-2.17-2.43-3.13c-0.91,1.38-1.87,2.72-2.66,4.16c-0.14,0.24,0.67,0.9,0.62,1.32
		s-0.93,1-1,1c-4.29-3.19-8.76-2.16-13.32-0.76c-1.35,0.29-2.72,0.4-4.1,0.33c-0.29,0-0.6-0.28-0.9-0.43
		c0.16-0.27,0.26-0.67,0.5-0.78c0.9-0.5,1.87-0.86,2.88-1.07c3.76-0.42,7.54-0.77,11.31-1c2.48-0.15,3.2-0.48,3.33-2.86
		c0.08-1.32-0.24-2.62-0.93-3.75c-2-3.05-2-4.11,0.48-6.48c0.86-0.82,2.32-1.51,2.49-2.45c0.55-3.38,0.89-6.79,1-10.21
		c0.16-1.03-0.55-2-1.59-2.15c-0.24-0.04-0.49-0.03-0.72,0.03c-0.43,0.07-0.76,0.79-1.14,1.22c2.17,1.21-0.2,3.67,1.39,5.09
		c0.17,0.15-0.16,0.87-0.25,1.33c-0.45-0.21-1.15-0.31-1.31-0.65c-0.73-1.5-1.3-3.08-1.7-4.7c-0.17-0.81-0.21-1.27-1.1-1.17
		c-4.87,0.57-9.48,1.89-13.31,5.11c-0.76,0.64-1.23,1.56-1.3,2.55c0.15,3.36-2.1,4.86-4.51,6.21c-0.64,0.36-2.11,0.5-2.32,0.17
		c-0.91-1.4,0.67-1.46,1.39-2c0.42-0.3,1-0.49,1.25-0.89c0.5-0.78,1.36-1.93,1.1-2.47c-0.55-1.14-1.76-1.36-3.1-0.75
		c-2.35,1.08-4.78,2-7.18,2.95c-1.19,0.49-0.93,1-0.09,1.68c0.25,0.21,0.14,0.87,0.19,1.32c-0.6-0.06-1.61,0.07-1.75-0.21
		c-1.62-3.35-4.21-2.2-6.64-1.46c-0.93,0.41-1.83,0.88-2.71,1.39c-0.93,0.4-2.06,1.13-2.86,0.9c-3.67-1.05-5,1.09-5.84,3.95
		c-0.55,1.81-1.06,3.63-1.59,5.44c-0.82,2.76-2.3,3.68-5.05,2.88c-1.48-0.44-2.82-1.33-4.29-1.79c-2.33-0.74-3.16-0.07-2.79,2.45
		c0.19,1.29,0.54,2.68-0.77,3.13c-1.14,0.4-2.58,0-3.87-0.17c-0.43-0.06-0.86-0.57-1.17-1c-2.81-3.56-6.66-4-10.78-3.71
		c-3.3,0.25-4.64,1.31-4.35,4.41c0.44,4.1,1.14,8.16,2.09,12.17c0.22,1,1.48,2.64,2.13,2.58c3.66-0.33,3.31,2.72,3.71,4.52
		c0.59,2.64,0,5.57,2.59,7.54c0.12,0.09,0,0.66-0.13,0.83s-0.76,0.44-0.9,0.33c-0.89-0.71-2.08-1.37-2.45-2.32
		c-0.65-1.78-1.04-3.64-1.16-5.53c-0.14-2-0.74-3.3-2.8-3.76c-0.82-0.24-1.61-0.55-2.38-0.93c-0.74-4.39-1.47-8.77-2.23-13.15
		c-0.09-0.68-0.32-1.34-0.67-1.94c-0.41-0.48-0.9-0.9-1.43-1.25c-0.31,0.38-0.78,0.72-0.9,1.15c-1.18,4.08-2,8.07,2,11.31
		c1.23,1.16,2.37,2.42,3.4,3.76c0.26,0.81,0.51,1.62,0.79,2.42c0.67,1.94,1.41,3.86,2,5.83c0.1,0.34-0.43,0.87-0.67,1.31
		c-0.42-0.29-1.09-0.5-1.22-0.89c-1-2.95-1.78-6-4.19-8.17c-0.5-0.36-1.05-0.66-1.63-0.89c-0.15,0.48-0.22,0.99-0.19,1.49
		c2.22,8,0.62,17,6.06,24.23c0.69,0.92,0.72,2.3,1.2,3.39c3,6.67,1.51,13.95,2.85,20.84c-0.01,0.33-0.19,0.62-0.46,0.8
		c-0.34,0.01-0.67-0.16-0.86-0.44c-0.46-1.08-0.72-2.24-0.76-3.42c0.56-5.28-0.88-10.25-2.27-15.21c-0.66-1.94-1.47-3.83-2.42-5.64
		c-0.28-0.43-0.61-0.82-1-1.15c-0.12,0.49-0.19,1-0.2,1.51c0.2,2.73,0.8,5.49,0.58,8.19c-0.27,1.5,0.07,3.05,0.95,4.3
		c1.79,2.36,2.63,5.31,2.38,8.26c-0.25,2.26,0.45,4.52,1.93,6.25c1.52,1.69,1.17,3.34,0.31,5.24c-1.58,3.51-1.39,4.34,1.66,6.41
		c1.52,1,2.78,1.92,2.68,4c-0.1,1.8,0.68,1.7,2.24,1.24c2.17-0.63,3.49,0.19,3.5,2.37c0,2.36,1.25,3.75,2.39,5.48
		c1.35,1.98,2.36,4.16,3,6.47c0.55,2.12,0.28,4.45,0.37,6.68l5.44-4.46c0.93-0.76,1.9-1.48,2.78-2.3c0.46-0.49,0.88-1.02,1.25-1.58
		c-0.64-0.13-1.28-0.28-1.93-0.37c-1.08-0.15-2.35-0.37-1.33-1.77c0.62-0.85,1.65-0.88-0.19-1.6c-2.51-1.07-4.9-2.41-7.13-4
		c-0.68-0.44-0.82-1.67-1.21-2.55c0.88,0.15,1.74,0.39,2.57,0.72c2.29,1.15,4.44,2.59,6.79,3.58c1.34,0.56,2.8,0.22,2.87-1.8
		c2.44,0,3.31-2.2,4.82-3.49c0.17-0.15,0.09-0.58,0.13-0.89c-0.27,0-0.66-0.07-0.8,0.08c-1.36,1.45-2.69,3-4,4.43
		c-2.59-1.36-2.84-1.91-1.52-3.53c0.45-0.52,0.96-0.99,1.51-1.4c1.18-0.94,1.9-1.67,0.6-3.31c-1.56-2-1-4.31,0.3-6.28
		c1-1.61,2.23-3.07,3.66-4.32c5.72-4.63,7.65-10.86,7.66-17.85c0-1.88,1.21-4.08-0.84-5.71c-1.63,1.18-3.27,2.35-4.88,3.56
		c-0.26,0.2-0.36,0.59-0.58,0.85c-2.42,2.91-4.81,5.85-7.31,8.69c-0.47,0.54-1.41,0.67-2.13,1c0.05-0.71,0.22-1.4,0.51-2.05
		c1.02-1.39,2.11-2.72,3.27-4c2.49-2.85,4.92-5.78,7.57-8.49c1.89-1.93,1.32-4,0.32-5.7c-1.1-1.91-2,0.82-3.19,0.61l-1.45-0.24
		c0.12-0.44,0.3-0.86,0.53-1.26c0.38-0.44,0.8-0.85,1.26-1.21c-0.51-0.07-1.02-0.1-1.53-0.09c-0.85,0.12-1.68,0.41-2.53,0.52
		c-2.4,0.31-4.77,0.45-6.42-1.86l-0.1,0.12c4.27-0.41,8.54-0.77,12.8-1.31c0.76-0.21,1.36-0.78,1.62-1.52
		c0.27-1.66,0.43-3.32,0.49-5c-1.62,0.29-3.24,0.56-4.85,0.89c-0.49,0.17-0.96,0.37-1.42,0.61c-6.36,2.43-12.07,0-14.75-6.2
		c-0.75-1.72-1.8-3.32-2.69-5c-1.71-3.19-3.42-6.37-5.09-9.58c-0.3-0.61-0.51-1.26-0.61-1.93c-0.03-0.34,0.12-0.66,0.39-0.87
		c0.18-0.11,0.68,0.06,0.86,0.26c0.61,0.59,1.14,1.27,1.57,2c2.7,5.32,5.26,10.71,8.07,16c0.82,1.33,1.97,2.42,3.35,3.16
		c1.06,0.6,2.51,0.51,3.79,0.72c-0.47-1-0.94-2.08-1.42-3.12c-0.07-0.15-0.23-0.27-0.27-0.43c-0.4-1.34-2.58-2.09-1.34-4
		c1.18,0.93,2.31,1.94,3.37,3c0.66,0.76,0.89,1.88,1.49,2.7c0.37,0.5,1.1,1.1,1.62,1.06c3.25-0.28,6.64-0.57,8.8-3.45
		c2.26-2.82,4.27-5.83,6-9c2.86-5.54,6.93-10.36,11.9-14.11c1.2-0.94,2.36-2,3.61-2.82c0.46-0.13,0.95-0.03,1.32,0.28
		c0.22,0.4,0.22,0.88,0,1.28c-0.86,0.82-1.89,1.46-2.81,2.22c-5.45,4.53-10.47,9.41-12.89,16.34l-1,2.16
		c-1.21,1.34-2.94,2.47-3.52,4c-1.77,4.77-3.13,9.69-2.65,14.9c0.28,3.06,0.26,3.06,4.07,3.73l0.22,1.39l0.48-0.33l-0.82-0.95
		c-1.68-4.69-0.56-9.37,0.15-14c0.46-3,1.27-5.93,1.93-8.89l1-2.17c1.4-0.3,3.1-0.66,2,1.68c-1.65,3.75-2.3,7.86-1.9,11.94
		c-0.33,0.34-0.59,0.74-0.78,1.17c-0.08,0.35,0.2,0.79,0.32,1.19c0.11-0.33,0.2-0.66,0.26-1c0.06-0.5,0.05-1,0.06-1.51
		c1-1.52,2-3.07,3.05-4.53c0.23-0.31,0.88-0.31,1.34-0.45c0.17,0.42,0.25,0.87,0.25,1.32c-0.39,1.63-0.88,3.24-1.34,4.85
		c-0.14,0.03-0.28,0.07-0.41,0.13c-0.07,0.05-0.09,0.18-0.13,0.28l0.41-0.54c0.27,0.19,0.79,0.41,0.77,0.58
		c-0.35,3.78,0.3,7.68-1.38,11.32c-0.63,1.4-1.13,2.86-1.49,4.35c-0.33,1.29-0.42,2.65-0.62,4c0.63-1.28,1.27-2.57,1.88-3.86
		c0.23-0.47,0.35-1,0.61-1.43c0.28-0.36,0.59-0.69,0.93-1c0.21,0.45,0.34,0.94,0.38,1.44c-0.47,4.49-2.59,8.68-2.42,13.29
		c0,0.19-0.51,0.4-0.78,0.6l-0.21-1.39l-0.49,0.26l0.84,1c0.12,0.66,0.29,1.32,0.53,1.95c0.33,0.56,0.71,1.09,1.14,1.57
		c0.49-0.46,0.95-0.95,1.36-1.48c1.14-1.69,1.69-3.37-0.45-4.77c1.47-2.44,1.3-5.82,4.06-7.49c0.9-0.55,2.75-1.15,3.07-0.78
		c1.51,1.74-0.82,1.55-1.44,2.26c-0.5,0.47-0.97,0.96-1.42,1.48c-0.2,0.43-0.33,0.88-0.38,1.35c0.39-0.11,0.78-0.27,1.14-0.46
		c1-0.68,1.63-2.41,3.21-1.21c-0.48,0.94-1.02,1.85-1.63,2.72c-0.19,0.29-0.42,0.54-0.62,0.82c-2.78,4-5.13,8-2.47,13
		c0.36,0.69,0.11,1.7,0.15,2.55c-0.13,0.03-0.26,0.08-0.39,0.14c-0.06,0-0.06,0.17-0.09,0.26l0.34-0.53
		c2.14-2.8,4.26-5.62,6.48-8.37c0.26-0.32,1.09-0.2,1.65-0.29c-0.09,0.61,0,1.37-0.32,1.79c-1.05,1.34-2.32,2.51-3.39,3.83
		c-0.34,0.42-0.31,1.14-0.46,1.72c0.48-0.08,0.96-0.12,1.44-0.11c0.57,0.11,1.12,0.25,1.67,0.44c-0.4,0.47-0.7,1.16-1.2,1.37
		c-3.27,1.21-5.8,3.86-6.87,7.17c-0.13,0.39-0.71,0.63-1.09,0.93c-0.06-1.19,0-3.38-0.22-3.42c-2.75-0.44-1.84-2.05-1.43-3.61
		c0.22-0.82,0.31-1.68,0.28-2.53c0-0.45-0.5-1.25-0.72-1.23c-0.61,0.02-1.18,0.3-1.57,0.76c-2.53,4.93-1.68,10-0.66,15.13
		c0,0.24,0.48,0.41,0.74,0.61c0.18-0.29,0.36-0.58,0.55-0.87l3.21-5c0.44,2.49-2.05,4.79-0.28,7.47c0.69,1.06,0.72,2.19,2.44,1.49
		c0.62-0.25,1.53,0.23,2.31,0.38c-0.42,0.54-0.82,1.1-1.27,1.62c-0.5,0.47-0.97,0.96-1.41,1.47c-0.2,0.43-0.33,0.89-0.39,1.36
		c0.43-0.06,0.84-0.18,1.24-0.34c1-0.67,2.04-1.27,3.11-1.81c1.86-0.73,2.43,0.42,2.51,2c-3.72-0.33-4,2.36-4.33,5
		c-0.19,1.5-0.33,3-0.49,4.51c0.64-1.23,1.29-2.45,1.9-3.7c0.95-2,1.87-3.93,2.8-5.9c2.9,0.39,2.85,0.37,1.94,2.23
		c-1.25,2.25-2.32,4.59-3.21,7c-0.71,2.65-1.15,5.38-1.31,8.12c-0.06,1.14,0.4,2.24,1.25,3c1.37,0.77,2.1-0.7,2.6-1.76
		c0.74-1.55,1.37-3.15,1.91-4.78c0.79-2.46,1.35-5,2.22-7.42c0.3-0.84,1.37-2.16,1.82-2.05c1.61,0.36,0.52,1.7,0.33,2.5
		c-0.75,3.17-1.83,6.28-2.52,9.46c-0.32,1.85-0.43,3.74-0.31,5.62c0,0.48,0.86,0.94,1.32,1.41c0.44-0.47,1.17-0.87,1.28-1.41
		c0.79-3.87,1.45-7.77,2.16-11.65c0.23-1.7,0.56-3.39,1-5.05c0.19-0.62,1.15-1,1.76-1.5c0.24,0.61,0.39,1.25,0.45,1.9
		c0,0.66-0.54,1.29-0.61,2c-0.49,4.62-1,9.24-1.33,13.87c-0.05,0.66,0.65,1.38,1,2.07c0.67-0.63,1.3-1.32,1.86-2.05
		c0.25-0.37,0.12-1,0.15-1.52c0.25-4.3,0.46-8.6,0.77-12.9c0.12-1.59-0.91-3.6,1.11-4.62c1.2-0.6,1.43,1.5,1,5.36
		c-0.42,3.94-0.65,7.89-0.67,11.85c0,0.86,0.77,1.74,1.19,2.61c0.73-0.6,1.4-1.27,2-2c0.41-0.75,0.7-1.57,0.84-2.42
		c1-4.53,2.14-9,2.83-13.62c0.34-2.22,1.11-4.71-1.17-6.75c-0.88-0.79,0.26-1.58,1.13-1.49c0.87,0.09,1.95,0.88,2.93,0.9
		c2.66,0.05,3.76,1.36,3.69,3.88c-0.12,1.76,0.66,3.46,2.06,4.52c-0.34,4.61-0.44,9.25-1.1,13.82c-0.53,2.75-0.37,5.6,0.48,8.27
		c1.77,4.71,2.11,9.84,0.95,14.74c-0.27,1.52-0.36,3.07-0.27,4.62c0.12,0.85,0.16,1.72,0.14,2.58c-1,4.88-1.71,9.7-0.5,14.71
		c0.14,1.55-0.38,3.08-1.43,4.23c-4,4.44-2,8.91-0.38,13.38c0.29,0.79,1.16,1.45,0.08,2c-1.74,0.94-1.65,2.33-1.52,4
		c0.14,1.37,0.04,2.76-0.31,4.09c-1.3,4.46-0.22,8.58,1.72,12.49c1.68,3.05,2.17,6.61,1.39,10c-1.08,4.64-1.43,9.51-4.8,13.32
		c-0.32,0.4-0.49,0.9-0.49,1.42c0.14,4.74-3.25,6.91-6.62,9c-1.65,0.92-3.35,1.74-5.1,2.46c-0.02-0.32-0.11-0.64-0.25-0.93
		c-0.3-0.34-0.63-0.63-1-0.89l-0.56,0.66c0.31,0.3,0.65,0.57,1,0.81c0.31,0.11,0.63,0.18,0.95,0.19c0.08,1.23,1.94,3.32-1.62,2.63
		c-2-0.39-3.95,0.24-5.81-1.67c-1.27-1.29-3.75-1.6-5.76-1.92c-4-0.64-6.74-2.43-7.5-6.62c-0.28-1.54-0.59-3.07-2.34-3.69l-1-2.16
		c0-0.82,0-1.64-0.07-2.45c-0.1-0.46-0.25-0.9-0.44-1.33c-0.17,0.45-0.57,1-0.46,1.33c0.29,0.78,0.65,1.53,1.07,2.25
		c0.33,0.72,0.66,1.44,1,2.16c-0.16,1.87,0.14,3.93-0.56,5.56c-1.21,2.78-0.5,4.89,0.87,7.29c1.44,2.55,2.62,4.69,6.24,3.67
		c1.45-0.41,3.24,0.33,4.87,0.61c0.29,0.06,0.8,0.53,0.76,0.63c-0.79,1.94,0.43,3.26,1.27,4.76c0.23,0.39,0,1.48-0.28,1.62
		c-0.91,0.35-1.87,0.58-2.84,0.68c-0.05,0-0.33-0.64-0.24-0.72c1.19-1.15,1.39-2,0-3.36c-1.08-1.18-2.76-1.57-4.25-1
		c-1.32,0.56-2.33,1.93-3.37,3c-0.14,0.43-0.05,0.91,0.24,1.26c3.34,1.78,1.72,2.1-0.58,3.13c-1.94,0.87-3.57,2.65-5.06,4.28
		c-1.17,1.29-2.2,1.94-4,1.53c-1.17-0.22-2.38-0.12-3.49,0.31c-2.58,1-6,0.44-7.72-1.45c-1.62-1.73-2.8-1.64-3,0.54
		c-0.14,1.89-0.77,1.84-2.13,1.77c-1.87,0.07-3.69-0.65-5-2c-1-1-3.51-0.51-3.17-3.13c0-0.15-0.59-0.59-0.72-0.53
		c-0.42,0.22-0.78,0.53-1.06,0.92c-0.18,0.3-0.25,0.65-0.2,1c0.18,1.13,0.44,2.25,0.68,3.37c-1.47-0.59-3.44-0.77-4.29-1.84
		c-1.73-2.17-2.05-1.36-3.42,0.34c-0.73,0.93-3.12,0.57-4.77,0.69c-0.23-0.34-0.37-0.73-0.42-1.14c2.87-1.67,0.5-2.53-0.53-3.6
		c-0.25-0.24-0.43-0.58-0.72-0.74c-2.27-1.26-2.93-2.81-1.08-5c1.45-1.7-0.38-1.93-1.25-2.41c-1.12-0.63-2.44-0.86-2.92,0.74
		c-0.38,1.29-0.26,2.72-0.58,4c-0.29,0.68-0.7,1.31-1.21,1.85c-0.7-0.6-2-1.26-2-1.8c0.2-2.29-0.72-5,1.82-6.66
		c0.63-0.42,1.49-1.09,0-1.81c-0.58-0.28-0.94-1-1.41-1.57c0.66-0.14,1.32-0.32,2-0.4c0.35,0,0.69,0.08,1,0.23
		c2.23,0.85,4.62,2.59,6.87,1c3.38-2.33,6.71-4.94,8.25-9c0.36-0.94,0.36-1.97,0-2.91c-3.05-6.39-2.21-12.84-0.21-19.2
		c1.14-3.65,1-6.56-2.18-9.17c-3.8-3.12-4.38-7.75-4.7-12.23c-0.39-5.3-0.3-10.64-0.45-16c0.07-0.68-0.04-1.38-0.33-2
		c-3.27-4.46-2.46-9.52-2.2-14.49c0.13-2.58,0.4-5.16,0.68-7.73c0-1.02,0.22-2.03,0.65-2.95c1.87-2.85,1.56-6,1.37-9.06
		c-0.32-5.14-1.46-10.23-0.59-15.46c0.18-1.07-0.79-2.74-1.74-3.51c-3.68-3-3.75-6.32-1.57-10.1c0.81-1.34,0.94-2.97,0.37-4.42
		c-1.92-5.68-3.61-11.44-5.38-17.17c-0.31-0.62-0.46-1.31-0.45-2c1.54-6.46-2.42-11.65-4-17.33c-2.36-7.96-3.43-16.24-3.17-24.54
		c0.17-4.49,0.12-9,0-13.48c-0.13-1.36-0.39-2.7-0.79-4c-0.07-0.31-0.39-0.55-0.6-0.82c-0.25,0.31-0.47,0.65-0.65,1
		c-1.42,3.7-2.77,7.43-4.23,11.11c-0.33,0.98-0.88,1.87-1.62,2.59c-0.73,0.66-1.7,0.98-2.68,0.89c-0.93-0.38-1.6-1.2-1.8-2.18
		c0-3.61-0.19-7.32,0.54-10.82c0.81-4.57,1.33-9.18,1.55-13.82c0.92-11.53,2.05-23.05,3.12-34.57c0-0.52,0.1-1.04,0.32-1.51
		c2.45-4.2,2.64-8.83,3-13.52c0.15-2,0.2-3.56-1-5.31c-2.37-3.6-2.12-5.43,0.63-8.75c0.44-0.53,1.07-1,1.28-1.59
		c0.21-0.6,0.14-1.26-0.19-1.8c-0.61-0.59-1.36-1-2.18-1.19c-0.19-0.05-0.87,0.91-1,1.47c-1.06,6.46-2.15,12.92-3,19.41
		s-1.51,13-2.32,19.54c-0.94,7.53-1.92,15.05-2.93,22.58c-0.66,5-1.28,9.93-2.12,14.86c-0.55,2.53-0.44,5.15,0.33,7.62
		c1.33,3.82,1.25,7.32-1.73,10.58c-1.06,1.15-1.43,3.12-1.67,4.78c-0.89,6.32-1.6,12.66-2.39,19c-0.79,6.34-4.16,8.25-10.1,5.51
		c-3.93-1.81-4.21-2.44-3.76-6.79c0.32-3.09,0.38-6.2,0.67-9.3c0.35-2.11-0.64-4.21-2.48-5.29c-0.13-0.11-0.28-0.21-0.44-0.28
		c-2.76-1-2-4.33-3.77-5.89c-1.77-1.56-4-2.28-5.18-4c-1.16-1.9-1.72-4.1-1.6-6.32c0.34-6.71-0.8-13.48,0.86-20.15
		c0.47-1.86,0.5-3.8,0.1-5.67c-0.7-3,0-5.82,0.42-8.67c1.13-6.9,1.19-13.94,0.19-20.86c-0.17-1.51,0.04-3.04,0.62-4.45
		c1.01-2.76,1.11-5.77,0.31-8.59c-1-4.69-1.7-9.46-2.53-14.2l-0.11,0.08c0.16,0,0.44,0.08,0.47,0.17c1.9,6.71,4.4,13.3,3.74,20.49
		c0.05,1.26,0.27,2.5,0.65,3.7c1.12-1.22,2.59-2.28,3.24-3.71c0.51-1.12,0-2.71-0.06-4.08c-0.35-3.07-0.55-6.15-0.58-9.24
		c0.23-2.73,0.7-5.43,1.41-8.08c0.19-0.7,0.91-1.11,1.61-0.92c0.61,0.17,1.01,0.74,0.96,1.37c-0.04,1.54-0.33,3.05-0.85,4.5
		c-1.56,3.66-1.1,7.46-0.94,11.21c0,1,1,2,1.63,3c0.69,1.15,1.21,1.15,2.31,0.14c1.68-1.56,3.75-1.26,5.61,0
		c0.71,0.47,1.24,1.2,1.93,1.71c3.94,2.87,6.87,1.6,7.72-3.33c0.06-0.34,0-0.69,0.07-1c0.39-4.96,0.79-9.93,1.19-14.9l1-2.17
		c0.29-0.27,0.58-0.54,0.85-0.83c0,0-0.23-0.25-0.35-0.38l-0.35,1.34l-1,2.17c-0.71-0.41-2.07-0.9-2-1.2c0.43-3.15-2.33-5.34-2-8.84
		c0.25-4.2-1.37-8.29-4.41-11.19c-0.3-0.37-0.4-0.87-0.26-1.33c0.33-0.38,0.83-0.57,1.33-0.5c1.07,0.35,2.05,0.94,2.85,1.74
		c1.24,1.8,2.39,3.67,3.44,5.59c0,2.55,0,5.11,0,7.66c0.04,0.35,0.15,0.69,0.3,1c0.19-0.16,0.52-0.3,0.56-0.49
		c0.5-2.13,0.88-4.29,1.14-6.46c0.12-1.24-0.9-1.71-2.11-1.54c0-1.21,0.08-2.42,0-3.63c-0.14-3.33-0.16-3.33-3.29-4.15
		c-6.37-1.68-6.25-1.65-7.92,5c-0.94,3.69-1,8-5.53,9.8c-0.33,0.13-0.37,0.92-0.63,1.36c-0.31,0.46-0.64,0.91-1,1.34
		c-0.3-0.61-0.87-1.23-0.83-1.81c0.12-1.69,0-3.84,2-4.43c1.87-0.5,3.2-2.16,3.27-4.09c0.33-2.02,0.37-4.09,0.11-6.12
		c-0.31-1.84-1.75-1-2.84-0.49c0.08-1.41,0.19-3,2.16-2.55c1.66,0.35,2.14-0.14,2.05-1.72c-0.09-1.58-0.32-3.34,2.28-2.6
		c0.19,0.06,0.71-0.3,0.7-0.43c-0.21-1.9,0.54-4.19-2-5.21c1.53-5.34,2.56-10.74,2.05-16.34c0-0.39,0.78-0.86,1.2-1.29l-0.13-0.11
		c0.95,1.72,2.94,2.58,4.84,2.09c3.61-0.71,4.43,1,5.5,4c0.68,1.94,0.92,4,1.53,6c0.35,0.7,0.83,1.34,1.41,1.87
		c0.63-0.57,1.52-1,1.86-1.73c1.41-2.94,2.72-5.94,4-9c0.83-1.68,1.41-3.47,1.71-5.32c0.51-6.87,0.91-13.76,1.05-20.65
		c0.08-3.9-0.22-3.9-4.12-3.46c-1.44,0.16-3.59,1-3.91-1.11c-0.25-1.68,1.9-1.48,3.15-1.89c1.35-0.37,2.15-1.75,1.78-3.1
		c-0.13-0.48-0.4-0.92-0.78-1.25c-0.6-0.56-1.65-0.64-2.23-1.21c-0.82-0.8-2.13-2.48-2-2.69c1.33-1.58,1.65,0.72,2.63,0.92
		c0.33,0.07,0.67,0.48,0.92,0.41c0.47-0.14,0.91-0.39,1.28-0.72c-0.54-1.78-1.29-3.49-2.21-5.11c-0.82-1.21-2.45-1.57-3.71-0.83
		c-0.22,0.1-0.74-0.42-1.12-0.66c0.3-0.39,0.53-1,0.91-1.14c1.74-0.5,3.45-0.45,4.8,1c0.91,1,1.73,2,2.59,3
		c-0.05,0.47-0.05,0.95,0,1.42c0.12,0.36,0.31,0.7,0.55,1c0.15-0.43,0.23-0.88,0.21-1.33c-0.1-0.37-0.54-0.65-0.83-1
		c1.42-7.51,1.21-15.09,0.79-22.67c0-0.17,0-0.43-0.14-0.49c-0.64-0.34-1.38-1-1.93-0.88c-2.95,0.66-4.71,2.84-5.83,5.44
		c-3.47,8.06-6.89,16.15-10.13,24.3c-0.55,1.65-0.65,3.41-0.29,5.11c0.15,0.76,1.85,1.11,2.56,1.92c0.68,0.93,1.25,1.94,1.7,3
		c0.18,0.34,0.31,0.72,0.46,1.08c0.13-0.32,0.27-0.63,0.37-1c1.05-3.56,3-6.92,2.2-10.9c0.03-1,0.38-1.96,1-2.74
		c0.59-0.78,1.26-1.51,2-2.16c1.15,1.23-0.33,2-0.52,3c-0.15,0.8-0.19,1.62-0.28,2.43c-0.05,1.84-0.27,3.68-0.68,5.48
		c-0.8,2.46-1.75,4.8-1.51,7.5c0.08,0.86-0.49,2.37-1.12,2.59c-2.86,1-3,3.47-3.6,5.78c-0.5,2-1,4-1.58,6
		c-0.1,0.34-0.77,0.83-1,0.75c-0.41-0.18-1-0.74-1-1c0.27-1.86,0.7-3.69,1.29-5.47c1.25-3.23,1.78-6.69,1.55-10.14
		c-0.22-0.76-0.58-1.47-1.06-2.1c-0.57,0.54-1.55,1-1.66,1.63c-1.23,7.18-6.46,13-6.83,20.48c-3.62,7.09-2.73,15.13-4.7,22.57
		c-0.02,0.34,0.03,0.68,0.14,1c0.32-0.25,0.63-0.51,0.91-0.8c0.22-0.25,0.28-0.67,0.53-0.88c1-0.86,0.26-3.31,2.62-3
		c-0.26,1.26-0.56,2.5-0.77,3.76c0.01,0.39,0.09,0.77,0.24,1.13l1.39-0.61c-0.06,0.67-0.23,1.33-0.51,1.95
		c-1.28,1.87-2.15,4.7-5.47,2.62c-0.26-0.17-1.82,0.92-2,1.66c-0.9,2.76-1.53,5.61-2.19,8.45c-0.01,0.5,0.07,1.01,0.24,1.48
		c0.43-0.25,0.83-0.57,1.18-0.93c1.55-2,2.71-4.47,5.67-4.81c-0.22,0.64-0.52,1.25-0.89,1.82c-3.25,3.89-6.75,7.6-8.71,12.41
		c-0.08,0.2-0.59,0.23-0.9,0.33l0.1,0.08c0.6-3.16,0.94-6.36,1-9.58c0.19-3.83,1.8-7.7,3.31-11.34c2.36-5.38,3.75-11.14,4.1-17
		c0.17-2.07,0.61-4.1,1.3-6.06c2.15-6.72,4.66-13.34,6.55-20.13c1.47-5.28,2.21-10.76,3.3-16.15c1.74-8.54,5.63-16.28,9.14-24.14
		c0.96-1.83,2.37-3.39,4.09-4.53c4.32-3.12,8.65-6.31,14.19-7.09c1.62-0.14,2.9-1.44,3-3.06c1-5.57,2.32-11.08,3.47-16.63
		c0.59-2.87,1-5.77,1.64-8.64c0.64-2.87,2.19-4.29,4.94-4.16c2.59,0.11,4.29,1.78,4.12,4.92c-0.29,3.26-0.8,6.49-1.53,9.68
		c-0.95,4.91-1.95,9.81-3,14.7c-0.31,1.45,0.43,2.14,1.55,1.87c1.64-0.35,3.2-1.03,4.57-2c1.85-1.45,3.48-2.89,6-1.63
		c1.29,0.64,2-0.13,2.36-1.17c0.5-1.28,0.82-2.63,0.95-4c0.17-3.33-2.16-6.59-0.33-10c-1.81-3.86-3-8.18-5.57-11.5
		c-5.73-7.54-6.58-16.35-1.81-24.52c2.77-4.75,5.1-9.76,7.61-14.66c0.23-0.65,0.52-1.28,0.86-1.88c0.62-0.77,1.29-1.5,2-2.19
		c0.73,0.87,1.4,1.78,2,2.74c0.19,0.65,0.3,1.32,0.32,2c0.37,1.64,1.29,2.36,3,1.71c1.43-0.6,2.9-1.1,4.4-1.48
		c1.75-0.37,3.41-0.65,3.93-2.74c0.05-0.19,0.48-0.28,0.73-0.42c1,3.73,4,1.36,6.06,1.84c0.58,0.13,1.35-0.58,2-0.9
		c-0.58-0.74-1.26-1.42-2-2c-0.53-0.31-1.36-0.06-2-0.15s-1.48-0.33-2.23-0.5c0.66-0.16,1.33-0.27,2-0.32c2.55,0,5.39-0.63,6,3.15
		c0.07,0.42,1,0.79,1.63,1c2.93,1,5.88,1.92,8.85,2.77c0.26,0.07,0.73-0.61,1.11-0.93c-1-0.75,1.24-2.91-1.32-3.09
		c-0.19,0-0.6-1.21-0.41-1.43c1.9-2.24,0.54-4.57,0.3-6.85l-0.1,0.12c3.6,1.75,5.52,4.66,6.79,8.47c1.91,5.88,4.25,11.61,7,17.14
		c3.58,7.1,3.63,14.73-2,21.3c-2.07,2.33-3.25,5.31-3.33,8.43c-0.1,2.38-0.38,4.57-2.06,6.71c-2.06,2.62-1.24,5.92-0.1,8.86
		c0.42,0.71,1.18,1.15,2,1.17c2.29-0.52,3.95,0.73,5.86,1.48c1.92,0.69,3.91,1.17,5.94,1.44c1.35,0.23,2.76,0,4.12,0.2
		c0.56,0.08,1,0.74,1.54,1.13c-0.52,0.31-1.07,0.56-1.64,0.75c-2.55,0.56-5.49-1.55-7.76,1.1l-1.41-1.29
		c-0.01,0.67-0.06,1.34-0.17,2c-0.38,1.83-0.84,3.63-1.27,5.45l0.13-0.11c-0.34-0.48-1.07-1.21-0.95-1.4
		c1.45-2.23,0.23-4.3-0.2-6.44c-0.43-2.14-2.05-2.52-3.9-2.27c-2.54,0.33-4.31,1.74-4.24,3.59c0.02,2.4,0.3,4.78,0.84,7.12
		c0.48,1.77-2.06,3.44,0.31,5.37c0.95,0.78,0.52,3.25,0.72,4.95c0,0.33,0.26,0.74,0.13,1c-0.88,1.82-1.82,3.61-2.8,5.38
		c-0.29,0.02-0.58-0.04-0.84-0.17c0-1.93-0.06-3.86,0-5.78c0.08-0.68,0.21-1.35,0.4-2l0.86-1l-0.48-0.35l-0.24,1.49
		c-1.4,1.88-2.77,3.78-4.23,5.62c-0.2,0.24-0.87,0.14-1.32,0.11c-0.12-0.26-0.15-0.56-0.08-0.84c1.16-2.28,2.41-4.52,3.56-6.81
		c1.78-3.2,2.15-7,1-10.48c-0.25-0.71-0.78-1.83-1.23-1.86c-1.08-0.06-2.68,0.06-3.2,0.75c-1.2,1.68-2.15,3.53-2.81,5.48
		c-0.43,1.52-1.67,2.68-3.22,3c-5,1.27-9.91,2.59-15.21,1.27c-2.44-0.6-5.12-0.23-7.7-0.25c-0.21,0-0.58,0.41-0.59,0.65
		c0.03,0.32,0.2,0.6,0.47,0.77c7,1.88,14,3.5,21.29,1.47c3-0.84,4.76-3.26,6.57-5.56c0.44-0.57,0.56-2,1.65-0.88
		c0.44,0.66,0.53,1.49,0.23,2.23c-0.69,0.99-1.53,1.86-2.5,2.58c-4.13,3.5-8.74,5.12-14.27,4.15c-4.22-0.73-8.53-0.94-12.8-1.38
		l-1.07-0.82l-0.25,0.49l1.45,0.18c5.54,4.18,11.62,4.88,18.15,2.89c0.75-0.16,1.51-0.24,2.27-0.25l-1.54,2.25
		c-0.08,0.15-0.14,0.31-0.19,0.48l-3.18,1l-9.08-1.18c-1.31-0.17-2.61-0.37-3.92-0.55c1.21,0.71,2.33,1.74,3.64,2.08
		c3.08,0.81,6.24,1.08,9.24-0.49c1.15,0,2.55,0.69,3.18-1c0.55,0.31,2.44,0.34,1.25,1.14c-4.46,3-9.33,5-14.81,2.49
		c-1.72-0.8-3.42-1.65-5.13-2.47c-0.07-0.15-0.16-0.29-0.26-0.42c-0.06-0.06-0.19-0.06-0.29-0.08l0.69,0.35
		c-0.13,1.06-0.17,2.11-1.81,1.45c-0.83-0.21-1.68-0.29-2.53-0.24l-1-1.09l-0.6-0.47l0.72,0.34l1,1.09c2.22,2.29,5.17,4,6.08,7.35
		c0.11,0.42-0.17,0.94-0.26,1.41c-0.46-0.1-1.06,0-1.34-0.33c-3.31-3.23-6.59-6.48-9.81-9.79c-0.55-0.57-1.21-1.56-1.07-2.19
		c1.1-5.08,0.11-10.62,3.32-15.22c-0.63,4.39-1.29,8.77-1.83,13.17c0.08,0.78,0.3,1.54,0.65,2.24c0.8-0.44,1.93-0.69,2.34-1.37
		c1.1-1.83,1.39-4,2.43-6c1.87-3.57,0.35-6-3.76-7.92c0.03-0.52,0.03-1.03,0-1.55c-0.07-0.65-0.22-1.29-0.34-1.94
		c-0.21,0.44-0.45,0.86-0.63,1.31c-1,2.56-2,5.13-3,7.67c-0.32,0.79-0.76,1.52-1.3,2.17c-0.25,0.28-0.89,0.24-1.35,0.35
		c-0.08-0.45-0.37-1-0.22-1.34c0.9-2,1.92-4,2.85-6c0.46-0.92,0.82-1.89,1.07-2.89c0.07-0.76,0.05-1.53-0.07-2.29
		c-0.65-0.01-1.3,0.1-1.91,0.31c-3.32,1.86-6.36,3.84-7.29,8.08c-0.61,2.81-2.07,5.44-3.28,8.09c-0.24,0.52-1,0.77-1.6,1.14
		c-0.11-0.63-0.48-1.34-0.29-1.87c1-2.93,2.18-5.79,3.19-8.71c0.24-0.96,0.39-1.93,0.43-2.92c-1.31-0.29-2.66-0.38-4-0.27
		c-0.83,0.45-1.38,1.29-1.44,2.23c0.09,1.74,0.92,3.61-2.1,3.25c-0.08,0-0.26,0.57-0.34,0.88c-1.15,4.83-2.23,9.68-3.44,14.49
		c-1.31,5.16-2.43,10.39-4.23,15.37c-1,2.81,0.24,5,0.49,7.5c0.07,0.27,0.18,0.53,0.32,0.77c0.22-0.26,0.4-0.55,0.54-0.86
		c0.67-2.13,1.26-4.27,1.95-6.39c2.21-6.86,4.45-13.71,6.71-20.56c0.14-0.42,0.7-0.71,1.07-1.06c0.16,0.43,0.25,0.88,0.27,1.34
		c-0.21,1.53-0.5,3-0.77,4.55l0.15-0.19l-1.03,2.24c-0.26,0.36-0.53,0.71-0.76,1.08c0,0.05,0.14,0.24,0.23,0.36l0.38-1.6l1.22,0.18
		l-0.13-0.12c0.13,0.49,0.11,1.13,0.42,1.42c1.12,1,2.85,1.73-0.12,2.89c-1.32,0.52-2.2,2.31-3.12,3.64c-0.15,0.21,0.56,1,0.87,1.54
		l-0.13-0.13l3.25,1.15l-0.14-0.13l-2,2.22c-0.05-0.13-0.12-0.27-0.19-0.39c0-0.07-0.13-0.11-0.21-0.17l0.54,0.43
		c-0.19,0.27-0.42,0.8-0.55,0.78c-3.65-0.6-4.22,1.85-4.76,4.56c-0.37,1.84-0.92,3.64-1.63,5.38c-1.12,2.88-1.61,5.97-1.43,9.05
		c0,0.84,0.17,1.67,0.26,2.51c0.43-0.67,0.96-1.27,1.56-1.79c3.47-2.17,6.93-4.37,10.53-6.31c1.31-0.7,0.95,0.86,1.19,1.51
		c-3.84,0.82-6.69,3.23-9.38,5.88c-0.18,0.24-0.32,0.5-0.42,0.78c0.3,0,0.71,0.2,0.89,0.06c2.94-2.26,5.86-4.57,8.78-6.86
		c1.02-0.43,2.03-0.92,3-1.45c1.34-0.82,2.45-0.87,3.37,0.56c-0.14,0.02-0.27,0.05-0.4,0.1c-0.08,0.05-0.14,0.12-0.2,0.19l0.46-0.43
		c1.25-0.85,2.48-1.73,3.76-2.52c0.17-0.1,0.78,0.17,0.88,0.4c0.1,0.23,0.27,1.14,0.09,1.25c-3.49,2.17-7.05,4.25-10.55,6.42
		c-1.17,0.71-2-1.61-3.47,0c-2.62,2.94-5.77,5.4-8.62,8.13c-0.21,0.2,0.13,1.38,0.16,1.38c1.77-0.16,3.76,0,5.24-0.72
		c1.84-1,2.77-0.09,4.19,0.63c1.83,0.71,3.71,1.29,5.62,1.71c0.37,0.21,0.71,0.47,1,0.79c-0.33,0.35-0.79,1.06-1,1
		c-2.9-1.06-4.28,1.51-6.3,2.52c-0.58,0.19-1.19,0.31-1.8,0.36c0.21-0.6,0.47-1.18,0.77-1.73c0.5-0.69,1.03-1.36,1.6-2
		c0.14-0.06,0.27-0.12,0.4-0.19c0.07-0.06,0.12-0.13,0.16-0.21l-0.42,0.54c-1.29,0.7-2.63,1.32-3.86,2.11
		c-1.23,0.79-2.4,1.85-3.67,2.67c-0.27,0.17-0.86-0.14-1.3-0.23c0.05-0.32,0.16-0.63,0.31-0.91c1-1.3,2.09-2.57,3.15-3.85l2.13-1
		l0.46-0.6l-0.31,0.75l-2.16,1c-4.77,2-5.61,3-5,7.62c0.61,3.54,1.54,7.02,2.78,10.4c1.28,3.82,1.29,4.05-2.4,5.88
		c-0.51,0.26-1.32,0.87-1.25,1.15c0.15,0.65,0.6,1.18,1.2,1.46c3.46,1,7,1.74,10.44,2.64c1.5,0.32,2.95,0.82,4.33,1.48
		c0.87,0.47,2.63,1,1.59,2.58c-0.87,1.28-1.74-0.1-2.61-0.43c-0.55-0.21-1.57-0.34-1.81,0c-1.95,2.46-3.91,1.28-6,0.24
		c-0.79-0.32-1.6-0.56-2.43-0.74c-0.05-0.15-0.12-0.29-0.21-0.42c-0.05-0.07-0.19-0.07-0.3-0.09l0.64,0.37
		c-0.82,0.5-1.7,0.91-2.61,1.23c-0.76,0.09-1.54,0.05-2.29-0.1c0,0.84,0,1.69,0.08,2.53c0.08,0.34,0.19,0.68,0.32,1
		c0.39,1.73,0.77,3.47,1.15,5.2c2.17-0.82,3,1.23,4.35,2.06c1.93,1.14,3.23,0.71,5.24-1.16c0.61-0.57,1.91-1.17,2.49-0.9
		c2.22,0.92,4.29,2.17,6.15,3.7c3.16,2.89,6,6.16,9,9.27l1.08,1.08l1,1.1c0.37,0.24,0.74,0.49,1.13,0.71c0.05,0,0.21-0.15,0.32-0.24
		l-1.6-0.33l-1-1.1l-1.1-1.08c0.5-0.27,1-0.8,1.49-0.77c0.96,0.12,1.91,0.32,2.83,0.61L374.17,420.19z M401.27,715.06
		c0.06,0.15,0.13,0.29,0.21,0.42c0.05,0.06,0.19,0,0.29,0.08l-0.64-0.35c-0.01-0.13-0.04-0.26-0.09-0.39c0-0.07-0.16-0.1-0.24-0.15
		L401.27,715.06z M488.53,441.06l-1.05,1l-0.46,0.61l0.38-0.77l1-1c1.18-0.27,0.55-0.62,0-1c0.47-1.68,1.75-2.16,3.31-2.21
		c-0.21,0.58-0.43,1.15-0.64,1.73l0.91-0.07l-0.45-1.52c0.01-0.34,0.04-0.67,0.1-1c0.28-1.12,0.58-2.23,0.87-3.35
		c-0.93,0.49-1.85,1-2.79,1.45c-0.77,0.37-1.56,0.68-2.35,1c-4.73,1.83-9.46,3.63-14.17,5.51c-0.42,0.25-0.69,0.68-0.72,1.17
		c0.15,0.48,0.52,0.85,1,1c1.5,0.17,3.02,0.1,4.5-0.2c3.57-1.06,7.06-2.4,10.58-3.63L488.53,441.06z M391.94,711.9l-0.13,0.14l-1-1
		l-0.34-0.29l0.48,0.15L391.94,711.9z M385.61,577.9l1.05-1l1-1l1.06-1c1.5-1.54,3-3.07,4.52-4.61c-0.13-0.09-0.34-0.27-0.38-0.24
		c-1.75,1.33-3.85,2.38-4,5l-1.05,1l-1,1l-1.05,1l-1.06,1.06c-1.41,1.18-2.84,2.33-4.2,3.55c-0.26,0.24-0.25,0.77-0.37,1.17
		c0.44-0.13,1.07-0.13,1.3-0.42c1.1-1.43,2.1-2.94,3.13-4.43c0.34-0.32,0.7-0.67,1.05-1.03L385.61,577.9z M373.17,577.9l1.05-1l1-1
		l1-1.06l1-1.05c0.34-0.35,0.67-0.71,1-1.06l1.06-1l1-1l1.07-1l1.06-1l0.28-0.3l-0.13,0.45l-1.08,1l-1.06,1l-1,1.05l-1.06,1l-1,1.07
		l-1,1l-1,1.06l-1.05,1l-1.05,1l-0.57,0.58L373.17,577.9z M378.36,576.9l1-1c1.57-1.5,3.15-3,4.69-4.52
		c0.18-0.18,0.13-0.6,0.19-0.91c-0.26,0-0.67-0.16-0.75-0.05c-1.37,1.84-3.81,2.93-4,5.6l-1,1.05l-1.08,1
		c-0.5,0.06-1.12,0-1.47,0.22c-0.42,0.43-0.75,0.92-1,1.46c0.57-0.07,1.13-0.23,1.65-0.49c0.36-0.25,0.47-0.86,0.68-1.31
		L378.36,576.9z M357.7,349.67l-0.38,0.13c0,0.02,0,0.04,0,0.06l0.22-0.34c0.14-0.06,0.27-0.14,0.4-0.22
		c0.06-0.06,0.12-0.14,0.16-0.22L357.7,349.67z M389.7,563.38l1.06-1c0.16-0.01,0.31-0.05,0.46-0.11c0.08-0.05,0.09-0.22,0.13-0.33
		l-0.44,0.58l-1.07,1l-1.1,1.07l-1.78,2.14l0.65,0.27l1-2.55L389.7,563.38z M391.92,663.1c0.02,0.15,0.06,0.29,0.12,0.43
		c0,0.07,0.17,0.1,0.26,0.15l-0.53-0.43l-1-1.06c-1.14-0.72-2.29-1.42-3.39-2.18c-0.25-0.17-0.56-0.62-0.49-0.81
		c0.15-0.46,0.46-0.85,0.87-1.1c1.09-0.42,2.8-0.32,3.25-1.05c0.83-1.34,0.92-3.12,1.32-4.72c-1.31,0.17-2.61,0.43-3.88,0.79
		c-3.4,1.22-6.65,2.83-10.46,1.09c-1.48-0.68-5.41,1.64-5.89,3.28c-0.41,1.41-0.87,3.23-0.32,4.41c1.26,2.71,9.93,4.73,11.73,2.38
		c2.25-2.95,4.79-2,7.4-2.22L391.92,663.1z M360.75,636.1l0.33,0.33l-0.47-0.2l-0.58-0.48L360.75,636.1z M369.08,625.68l1.08,1.08
		c-0.24,1.38,0.14,2.25,1.74,2.1c0.15-0.04,0.3-0.08,0.45-0.14l-1.9-1.6c-0.14-0.08-0.28-0.15-0.43-0.21l-1.09-1.09
		c-0.05-0.12-0.12-0.23-0.19-0.34c0,0-0.14-0.06-0.21-0.1L369.08,625.68z M415.71,699.47l2.09-1c2.8-0.76,5.64-1.36,8.5-1.8
		c1.1-0.12,3.24,0.86,3.31,1.52c0.15,1.4-1.52,1.35-2.71,1.58c-3,0.58-6,1.29-9,2c-0.34,0.09-0.56,0.7-0.83,1.06
		c0.46,0.04,0.92,0.04,1.38,0c2.89-0.46,5.53-1.34,8.74-0.34s6.16-1.41,8.24-4.07c1-1.23,0.53-2.68-0.73-2.86
		c-2.49-0.35-5.13-1.16-7.47-0.67c-3.23,0.68-6.24,2.38-9.34,3.65l-2.08,1l-1.48,0.47c0.13,0.06,0.31,0.21,0.37,0.17
		c0.41-0.16,0.7-0.44,1.05-0.7L415.71,699.47z M369.13,245.79l-0.47,1.24l0.31-1.39l0.42-0.68L369.13,245.79z M411.59,239.51
		l-1-1.06v-2.19l6.4,4.14c-1.16,2.47,0.62,3.76,2.06,5.2c0.05,1,0.07,2,0.14,3.07c0,0.5,0.15,1,0.23,1.49
		c0.13-0.42,0.43-0.86,0.36-1.24c-0.21-1.08-0.56-2.14-0.86-3.21c0-2-0.41-3.85-2.06-5.2c-1.43-5.3-5.7-7-10.36-8.28
		c-1.35-1.55-3.43-2.25-5.44-1.84c-0.08,0-0.14,0.18-0.21,0.27l5.76,1.44l1.06,2.28c-0.66-0.08-1.33-0.1-2-0.07
		c-0.21,0-0.37,0.49-0.56,0.76l1.76,0.86l0.62-1.71l3.2,2.17l-1.79,0.57l1.78,1.4l1.07,1l0.27,1.41l0.57-0.37L411.59,239.51z
		 M373.23,313.14l0.68,0.34l-0.81-0.2c0-0.5,0-1,0-1.51c-0.06-0.34-0.17-0.68-0.31-1c-0.15,0.4-0.46,0.85-0.38,1.21
		C372.49,312.34,372.94,312.77,373.23,313.14L373.23,313.14z M435.56,379.73l-3.12,1l-3.06,1l-1.58,0.49
		c0.14,0.07,0.33,0.23,0.4,0.19c0.36-0.25,0.7-0.55,1.05-0.83l3.07-1l3.11-1l1.49-0.24l-0.34-0.51L435.56,379.73z M365.85,242.47
		l2.08-3.11l5.2-5.15l0.49-0.58l-0.37,0.7c-2.63,0.49-4.68,2.54-5.18,5.16L366,242.6c-0.24,0.17-0.66,0.31-0.69,0.51
		c-0.01,0.39,0.05,0.79,0.17,1.16c0.12-0.28,0.22-0.57,0.3-0.87C365.83,243.1,365.85,242.78,365.85,242.47z M407.47,244.62
		c0.21,0.24,0.46,0.43,0.74,0.58c0.29,0.07,0.59,0.02,0.83-0.15c0.13-0.12,0-0.51,0-0.78c-0.26,0.09-0.52,0.19-0.79,0.27l-0.92,0.23
		c0-1.69-0.88-2-2.28-1.33c-0.37,0.25-0.71,0.54-1,0.87c0.29,0.16,0.6,0.28,0.92,0.35C405.81,244.7,406.64,244.64,407.47,244.62z
		 M388.73,579.01c0.79-0.57,1.61-1.11,2.36-1.73c0.19-0.15,0.2-0.53,0.29-0.81c-0.41,0.05-1.05-0.06-1.21,0.17
		c-0.49,0.8-0.93,1.64-1.31,2.5c-0.31,0-0.71-0.07-0.92,0.09c-0.35,0.27-0.63,0.61-0.83,1c0,0.07,0.5,0.59,0.54,0.56
		c0.39-0.22,0.73-0.52,1-0.87C388.77,579.71,388.7,579.33,388.73,579.01z M389.81,637.17c0.85,0.04,1.71-0.01,2.55-0.15
		c0.51-0.14,0.9-0.73,1.34-1.12c-0.59-0.12-1.21-0.12-1.8,0c-0.72,0.38-1.39,0.85-2,1.39c-0.33-0.03-0.67-0.03-1,0
		c-0.56,0.11-1.1,0.28-1.65,0.43c0.61,0.04,1.21,0.04,1.82,0C389.4,637.78,389.58,637.4,389.81,637.17L389.81,637.17z
		 M410.63,665.34l-3.62,2.33l0.32,0.32c1.07-0.92,2.12-1.85,3.17-2.78c0.15-0.01,0.3-0.03,0.45-0.07c0.09,0,0.13-0.17,0.2-0.25
		L410.63,665.34z M363.93,570.9c-0.76,0.19-1.49,0.49-2.17,0.89c-0.39,0.3-0.42,1-0.61,1.6c0.5-0.15,1.18-0.16,1.47-0.5
		c0.47-0.67,0.86-1.38,1.17-2.13c0.16-0.03,0.32-0.08,0.47-0.16c0.07-0.05,0.06-0.22,0.09-0.33L363.93,570.9z M375.23,667.48
		l-0.64-0.42l0.78,0.27c2.39,1.78,4.79,1.58,7.19,0c2.08,0.7,4.15,1.43,6.23,2.08c1.85,0.58,3.38,2.44,5.63,1.47
		c-1.57-0.93-3.08-1.96-4.52-3.09c-2.4-2.11-4.73-2.1-7.22-0.32L375.23,667.48z M301.55,502.26c-0.21-0.28-0.41-0.56-0.64-0.82
		c-0.23-0.25-0.48-0.49-0.74-0.71c-0.1,0.06-0.19,0.14-0.27,0.23c0.2,0.38,0.46,0.72,0.78,1c0.23,0.17,0.66,0.08,1,0.1
		c0.56,1.16,1.18,2.27,1.88,3.35c0.37,0.51,1.18,0.7,1.79,1c-0.23-0.74-0.56-1.45-1-2.09C303.47,503.56,302.54,502.88,301.55,502.26
		z M374.29,426.33l0.63,0.5l-0.77-0.36c-1.29-2.64-3.39-1.34-5.25-1c-0.45,0.08-0.84,0.61-1.26,0.93c0.58,0.29,1.18,0.86,1.73,0.81
		C371.02,427.03,372.65,426.63,374.29,426.33L374.29,426.33z M407.46,635.21c-0.32-0.26-0.65-0.5-1-0.72c-0.06,0-0.23,0.13-0.36,0.2
		l1.53,0.37c2.38,3.76,6.62,2.73,10,3.88c0.12,0,0.35-0.24,0.52-0.37c-0.27-0.21-0.56-0.39-0.87-0.53
		C414,637.08,410.73,636.15,407.46,635.21z M377.4,602.9c0,0.14,0.03,0.28,0.07,0.41c0,0.07,0.16,0.1,0.25,0.15l-0.47-0.42
		c-1.92-2.89-1.92-2.89-4.69-1.19c-0.44,0.27-0.93,0.45-1.36,0.74s-1,0.73-1.43,1.1c0.66,0.11,1.33,0.15,2,0.12
		C373.72,603.51,375.58,603.16,377.4,602.9z M391.91,565.68c-0.72,0.38-1.4,0.84-2,1.39c-2.92,3.3-5.86,6.59-8.58,10.06
		c-1.09,1.65-2.03,3.4-2.81,5.22l-1.56,0.38c0.11,0.08,0.28,0.25,0.33,0.22c0.38-0.23,0.73-0.5,1.1-0.76c4-4.3,8.13-8.55,12-13
		c0.81-0.91,0.94-2.43,1.38-3.67l0.45-0.65L391.91,565.68z M384.62,450.28c0.03,0.14,0.08,0.28,0.16,0.41
		c0.05,0.07,0.2,0.05,0.3,0.07l-0.58-0.35c-0.09-4.31-0.1-8.61-0.35-12.91c-0.05-0.71-1.17-2-1.73-1.93
		c-1.38,0.07-1.82,1.22-1.68,2.65c0.35,3.58,0.66,7.18,0.84,10.77c0.18,2.69,1.55,2.05,3.08,1.24L384.62,450.28z M382.5,284.04
		c3.51-1.11,6.41-3.84,10.51-3.57c0.81,0.05,1.81-2.21,2.63-3.46c0.08-0.12-0.46-0.89-0.82-1c-1-0.31-2.17-0.86-2.94-0.53
		c-4.11,1.75-8.15,3.69-9.26,8.68c-0.15,0.02-0.29,0.06-0.42,0.12c-0.07,0-0.05,0.2-0.08,0.32L382.5,284.04z M424.05,651.7
		c1.37,0.52,4,0.25,1.87,3c-1,1.29-0.52,2.32,0.72,2.92c1.24,0.6,1.74-0.36,2.25-1.35c1.45-2.82,1.8-2.93,4.53-1.76
		c0.78,0.34,1.48,0.88,2.28,1.15c0.4,0.14,1.31-0.05,1.35-0.23c0.3-1.3,0.47-2.62,0.49-3.95c0-1.31-1.17-1.23-2.17-1.56
		c-4.14-1.37-7.61,0.53-11.21,1.93c-0.82,0.17-1.63,0.44-2.39,0.79c-3.43,2.11-7,3.58-11.17,3.31c-0.52-0.05-1.03,0.05-1.49,0.3
		c-0.49,0.4-0.92,0.86-1.3,1.37c0.36,0.34,0.72,0.95,1.1,1c3.72,0.18,7.31,1.59,11.17,0.63c2.26-0.56,3.3-1.14,2.85-3.71
		C422.72,654.33,423.64,652.97,424.05,651.7z M382.63,251.97c-2.54,0-5.09,0.67-7.57-0.62c-0.79-0.13-1.59,0.15-2.12,0.75
		c-0.31,0.72-0.26,1.55,0.14,2.22c0.55,0.78,1.3,1.4,2.16,1.81c1,0.53,2.61,0.47,3.21,1.24s0.1,2.19,0.15,3.33
		c0,0.32,0.27,0.62,0.34,1c0.07,0.38,0.07,0.87,0.11,1.3c0.62-0.16,1.55-0.12,1.83-0.52c1.24-1.81,2.3-3.75,3.43-5.64
		c0.6-1,1.22-2,1.83-3.06c-1.13-0.48-2.27-1-3.39-1.46c-0.13-0.05-0.18-0.28-0.27-0.42c1.24,0.19,2.26-0.53,2.06-1.56
		c-0.29-1.05-1.05-1.91-2.07-2.32c-1.62-0.24-3.26-0.28-4.88-0.1c-0.27,0-0.78,0.34-0.77,0.47c0.06,0.43,0.19,1,0.49,1.2
		C379.05,250.41,380.85,251.17,382.63,251.97z M432.4,633.14c1.02-0.06,2.04-0.18,3.05-0.37c6.78-1.71,7.5-3.08,5.19-9.64
		c-0.11-0.32-0.11-0.8-0.32-0.93c-0.7-0.4-1.87-1.15-2.15-0.92c-2.63,2.23-6.76,2.75-7.87,6.73l0.12-0.17l-2.06,2.13
		c-0.5,0.33-1.19,0.67,0,1c-3.25,2.36-6.9,1.67-10.34,1c-3.44-0.67-7.22-0.95-10.23-3.32c-0.59-0.13-1.21,0.04-1.66,0.45
		c-0.16,0.71-0.09,2,0.27,2.18c1.73,0.74,3.53,1.3,5.38,1.67c3.51,0.76,7.05,1.34,10.62,1.75c1.93,0.19,3.94-0.4,5.91-0.64
		l-0.13,0.13l4.28-1.19L432.4,633.14z M437.73,593.7c-1.13-0.95-2.79-2.94-3.29-2.68c-1.78,0.92,0,2.63-0.14,4s-0.49,3-0.6,4.57
		c-0.21,1-0.13,2.04,0.24,3c0.71,1.08,2.37,1.64,2.86,2.76s-0.63,3,0,3.75c1.07,1.36,0.81,2.43,0.5,3.78
		c-0.33,1.31-0.52,2.65-0.58,4c0,0.77,0.33,2.17,0.67,2.22c0.97,0.18,1.98-0.04,2.79-0.6c0.78-0.86,1.3-1.93,1.5-3.07
		c0.48-2.15,0.72-4.37,1-6.56c1.26-8.82,1.22-8.93-4.08-14.34c0.66,0.17,1.33,0.3,2,0.38c0.39,0,1.09-0.13,1.16-0.35
		c0.55-1.68-0.36-3.5-2.04-4.05c-0.49-0.16-1.02-0.2-1.54-0.12c-1.3,0.14-1.1,0.9-0.74,1.78c0.13,0.5,0.21,1.01,0.24,1.53H437.73z
		 M403.33,263.27c0.34,0.59,0.68,0.92,1,0c1.93-3.31,1.93-3.31-0.75-5.41c-0.13-0.11-0.35-0.15-0.42-0.28
		c-0.2-0.4-0.58-0.92-0.47-1.23c0.19-0.48,0.59-0.85,1.09-1c1.67-0.03,3.34-0.15,5-0.38c0.86-0.37,1.47-1.15,1.62-2.07
		c-0.09-1.63-0.35-3.25-0.79-4.82c-0.28-0.18-0.62-0.24-0.94-0.14c-1.31,1.16-2.34,1.6-3-0.63c-0.11-0.38-1-0.77-1.48-0.76
		c-1.54,0-3.08,0.22-4.62,0.35c-1.54,0.13-0.94,1.06-0.45,1.65c0.71,0.74,1.47,1.43,2.28,2.06c-1.16-0.07-2.32-0.17-3.48-0.2
		c-0.49,0-1,0.22-1.49,0.18c-1.9,0.04-3.47-1.47-3.51-3.37c0-0.06,0-0.11,0-0.17c-0.09-1,0-2.06,0-3.09c-0.06-2,0.38-1.85,1.63-0.57
		c0.6,0.61,9.42-1.15,10-1.81c0.38-0.45,0.86-1.39,0.67-1.65c-0.53-0.72-1.25-1.29-2.08-1.63c-0.76-0.14-1.54-0.18-2.32-0.12
		c-0.06-2.64-1.87-1.53-3.16-1.54c-0.79,0-1.58-0.27-2.36-0.2c-3.74,0.31-7.51,0.5-11.19,1.15c-1.71,0.31-2.71,2.31-4.9,2.31
		c-1.66,0-2.22,1.24,0,1.78c1.55,0.37-0.79,3,1.75,2.73c1.49-0.18,3-0.2,4.5-0.26c1.24,0,3.07,3.1,3.61-0.68
		c0.17,0,0.5,0.07,0.51,0.13c0.29,1.27,0.44,2.57,0.43,3.87c-0.12,1.14-1,2.2-1.19,3.35c-0.42,2.69-0.68,5.39-0.78,8.11
		c0.12,0.8,0.63,1.48,1.36,1.82c1.14,0.26,2.33,0.21,3.44-0.17c1.46-0.62,3.14-0.32,4.3,0.76l-0.12-0.1
		c-0.62,0.71-1.24,1.41-1.85,2.12c-0.29,0.34-0.56,0.7-0.85,1.05c0.4,0.23,0.84,0.7,1.18,0.63c1.44-0.3,3.69-0.36,4.13-1.25
		C400.87,261.32,402.14,263.37,403.33,263.27z M435.49,689.09c1.35,0.36,3.11,1.93,3.79-0.5c1.83-6.49,2.54-13.06,0-19.58
		c-0.17-0.44-0.65-0.76-1-1.14c-0.3,0.33-0.75,0.62-0.88,1c-0.81,2.47-2.8,3.28-5.06,3.76c-0.01-0.15-0.06-0.3-0.13-0.44
		c-0.05-0.08-0.22-0.06-0.34-0.09l0.59,0.4l0.65,2.34c-0.63,0.05-1.27-0.03-1.87-0.22c-2.34-1.42-4.59-1-6.9,0.06
		c-0.93,0.46-1.92,0.8-2.94,1c-0.64-0.03-1.27-0.17-1.85-0.43c0.4-0.3,0.78-0.62,1.19-0.92c0.76-0.56,1.53-1.1,2.3-1.65
		c-1.74-2.36,0.37-2.06,1.56-2.14c2.24-0.15,4.5-0.12,6.75-0.19c0.51-0.05,1.02-0.14,1.52-0.25c-0.36-0.34-0.76-0.65-1.18-0.92
		c-1-0.54-3-1.15-3-1.49c0.45-3.17-2.71-3-3.86-4.62s-2.22-2.21-3.91-1.6c-1.4,0.51-2.75,1.19-4,2c-1.52,1.06-2.98,2.19-4.38,3.41
		c-1,0.84-2,1.78-2.93,2.68c-1.48,0.39-3,0.77-4.43,1.21c-0.15,0.05-0.22,0.49-0.24,0.76c0,0.1,0.24,0.3,0.37,0.31
		c1.9,0.09,3.9,0.32,4.18-2.4c1.81-0.37,3.65-0.62,5.49-0.74c0.5,0,1.43,1.15,1.45,1.79c0,1.19-0.93,1.08-1.85,0.77
		c-0.61-0.26-1.28-0.35-1.94-0.24c-4.28,1.33-6.57,4.77-6.34,9.38c0.13,2.48,0.45,2.71,2.68,1.49c2.61-1.43,5.28-2.56,8.33-2.15
		c0.43,0.14,0.84,0.37,1.19,0.66c-0.35,0.34-0.74,0.63-1.17,0.85c-1.78,0.61-3.61,1.09-5.38,1.73c-0.37,0.14-0.58,0.74-0.87,1.12
		c0.38,0.26,0.79,0.77,1.15,0.74c1.36-0.1,2.7-0.45,4.06-0.58c1.67-0.15,2.05,0.58,1.66,3c-2,0.17-4.13,0-6,0.65
		c-1.12,0.39-1.81,2-2.69,3.09c1.08-0.4,2.19-0.72,3.22-1.2c1.8-0.85,3.54-1.79,5.31-2.7c3.94-0.32,7.88-0.77,11.83-0.91
		c2.46-0.09,4.83,0.5,6,3.15c-4.24-1.47-8.47-2.69-13-1c-4.77,1.8-10.06,2.54-13.61,6.79c-0.28,0.34-0.53,0.7-0.8,1.06
		c0.49,0.06,1.06,0.31,1.46,0.15c3.48-1.47,6.88-3.13,10.41-4.47c1.48-0.39,3-0.57,4.53-0.53c0.29,0,0.6,0.27,0.9,0.42
		c-0.25,0.21-0.52,0.38-0.82,0.51c-0.49,0.14-1.05,0.09-1.52,0.26c-3.06,1.15-6.1,2.32-9.12,3.54c-0.35,0.14-0.52,0.7-0.78,1.06
		c0.49,0.1,0.99,0.13,1.49,0.09c0.65-0.23,1.28-0.49,1.9-0.79c5.81-2.18,11.56-4.77,17.95-2.21c0.34,0.13,0.72,0.06,1-0.17
		c0.33-0.37,0.54-0.83,0.59-1.32c0-0.26-0.49-0.72-0.82-0.78c-1.63-0.28-3.29-0.45-4.94-0.68c-0.83-0.11-1.66-0.28-2.49-0.42
		l2.8-0.48C432.4,690.01,434.28,690.9,435.49,689.09z M316.02,457.52c3.79-0.59,4.27-1.41,2.39-4c-0.22-0.31-0.55-0.93-0.47-1
		c2.17-1.95,0.39-2.77-1.09-3.16c-5.95-1.56-11.89-1.94-17.63,0.9c-1.58,0.75-2.33,2.59-1.71,4.23c0.88,1.74,2,0.18,3.09,0.05
		l1-0.15c-2.58,2.48-5.35,4.84-4.35,9.09c0.31,1.31-0.71,5.61-1.1,7c-0.27,0.91-0.59,2.22-0.16,2.86c1.44,2.14,0.71,4.26,0.52,6.45
		c-0.09,1.05,0,2.7,0.57,3.1c0.77,0.5,1.78,0.71,0.89,1.57c-2.68,2.6-1.25,5.89-1.68,8.84c-0.25,1.71-0.76,3.85,1.24,5.18
		c1.23-1.35,2.49-2.65,3.65-4.05c0.28-0.35,0.2-1,0.29-1.51c0.15-0.07,0.3-0.15,0.43-0.26c0.06-0.06,0-0.21,0-0.33l-0.31,0.73
		c-0.64-1-2-2.1-1.79-2.93c0.71-3.33,1.6-6.61,2.67-9.84c0.09-0.32,0.77-0.48,1.17-0.71c0.32,0.5,0.54,1.05,0.64,1.63
		c-0.11,3.24-0.63,6.5-0.39,9.7c0.14,1.85,1.24,3.55-0.48,5.24c-0.17,0.17,0.34,1.52,0.84,1.81c2.83,1.45,4.63,4.33,4.7,7.51
		c0.2,1,0.54,1.98,1,2.89c0.61,1.81,1.35,2.94,3.17,1c0.51-0.42,1.11-0.71,1.75-0.85c2.34-0.8,2.71-1.55,1.17-3.29
		c-1.57-1.76-2.95-3.67-4.12-5.72c-0.78-1.38-0.47-1.78,0.43-2.25c2.1-1.09,1.33-1.95,0-2.94c-0.51-0.43-0.98-0.9-1.4-1.41
		l-0.13,0.15c0.6-0.33,2.05,0.05,1.37-1.35c-0.58-1.23-1.6-2.25-2.19-3.47c-0.23-0.47,0.17-1.26,0.29-1.9
		c0.33,0.35,0.62,0.74,0.86,1.16c0.8,2,1.75,2.72,3.7,1c0.83-0.72,2.22-0.83,3.38-1.14c0.32-0.01,0.62,0.15,0.79,0.41
		c0.1,0.31,0.04,0.65-0.15,0.92c-0.32,0.39-0.81,0.63-1.15,1c-0.34,0.42-0.65,0.86-0.93,1.31c0.63,0.19,1.36,0.68,1.86,0.51
		c1.57-0.56,3.12-1,3.57-3.2s1.69-4.23-0.52-6.11c0.74-3.44-1.93-5.71-3-8.52c-0.54-1.54-2.05-2.51-3.67-2.38
		c-1.03,0.03-2.06-0.06-3.07-0.29c-0.35-0.08-0.56-0.72-0.84-1.11c0.37-0.29,0.76-0.55,1.18-0.77c0.33-0.06,0.67-0.06,1,0l4.35,0.11
		c0-1.53-0.08-3.07-0.25-4.59C317.09,462.16,316.51,459.9,316.02,457.52z M428.15,435.3c-0.5-3-1-6.21-1.53-9.38
		c-2.38,1-4.75,2-7.15,2.92c-2.72,1-5.47,2-8.24,2.94c-1.3,0.41-2.64,0.7-4,0.87c-3.23,0.46-6.48,0.72-9.7,1.26
		c-4.22,0.7-4.19,0.77-3.6,5c0.38,2.72,0.86,5.44,1,8.18c0.13,2.06,1.16,2.21,2.73,1.8c4.65-1.21,9.26-2.55,13.95-3.6
		c5.79-1.29,11.14-3.29,15.05-8C428.55,437.72,428.07,436.36,428.15,435.3z M370.4,441.03h0.16c0-0.32,0.21-0.68,0.11-0.94
		c-0.88-2.35,0.58-2.36,2.06-1.9c3.05,0.93,3.83,2.95,2.68,6.42c-0.09,0.38-0.15,0.76-0.17,1.15c0.33,0.07,0.67,0.09,1,0.07
		c2.65-0.57,3-1.25,2.69-3.88s-0.54-5.46-0.65-8.19c-0.06-1.49-0.54-2.22-2.12-2.13c-3.6,0.2-7.22,0.21-10.81,0.55
		s-7.21,0.74-10.64-0.74c-1.49-0.65-2.12-0.16-2.62,1.16c-0.58,1.54-1.48,2.77-1,4.8c0.56,2.47,3.28,2.26,4,4.2
		c0.28-0.22,0.83-0.5,0.8-0.65c-0.4-1.78,0.45-1.86,1.48-0.95c1.63,1.43,1.75,3.19,0.74,5.14c-0.74,1.43,0.07,1.74,1.4,1.62
		c2.73-0.25,5.45-0.45,8.18-0.58c3-0.14,2.95-0.09,2.54-3.19C370.2,442.34,370.26,441.68,370.4,441.03z M410.14,647.57v0.05
		c1.37,0,2.75-0.05,4.12,0c0.3,0,0.66,0.55,0.8,0.92c0.06,0.18-0.33,0.74-0.55,0.76c-2,0.21-4.07,0.35-6.11,0.48
		c-1.12,0.07-2.59-0.59-2.92,1.17s1.14,2.27,2.21,2.29c4.23,0.07,8.62,0.37,12.31-2.29c3.94-2.85,7.75-5.48,13.07-3.53
		c1.44,0.53,3.34-0.17,5-0.31c-0.27-1.43-0.45-2.88-0.55-4.33c0-1.89-0.63-2.4-2.52-1.81c-5.33,1.68-10.86,1.79-16.34,1.42
		c-3.06-0.39-6.07-1.06-9-2c-1.59-0.4-3.11-1.08-4.66-1.64c0,1.66,0,3.32,0.07,5c0.09,3.65,0.1,3.65,3.48,3.73
		C409.1,647.58,409.62,647.57,410.14,647.57L410.14,647.57z M331.6,425.51c-0.4-0.63-1.09-1.75-1.78-2.86
		c-0.75,0.47-1.52,0.9-2.24,1.42c-0.41,0.3-1,0.69-1,1.11c-0.41,2.55-0.7,5.12-1,7.68c-1.16,8.7-2.44,17.39-3.46,26.11
		c-0.57,4.92-3.05,9.95,0.37,14.81c0.17,0.24,0,0.68,0.1,1c0.11,0.58,0.26,1.15,0.4,1.73c0.3-0.61,0.53-1.25,0.71-1.91
		c0.94-5.25,1.89-10.49,2.72-15.76c1.39-8.83,2.69-17.69,4.05-26.53C330.71,430.29,331.11,428.27,331.6,425.51z M366.81,430.41
		l1.61-0.67c-0.52-0.38-1.08-0.72-1.67-1c-0.63-0.25-1.59-0.11-2-0.53c-0.67-0.94-1.24-1.94-1.71-3c0.69-0.37,1.4-0.7,2.12-1
		c2.79-1,3.16-2.06,1.37-4.44c-0.57-0.64-1.2-1.23-1.87-1.76c-1.39-1.28-3.14-2.34-4.11-3.89c-1.82-2.88-4.17-2.63-6.77-1.82
		c-1.13,0.43-2.22,0.92-3.29,1.48c-2.62,1.17-3.24,3.47-1.07,5.33c1.47,1.23,2.26,3.09,2.12,5c0,1.09,0,1.84,1.65,1.68
		c0.91-0.09,1.93,1.19,2.93,1.79c1.08,0.8,2.27,1.44,3.54,1.9C362.03,429.92,364.42,430.23,366.81,430.41L366.81,430.41z
		 M394.4,723.9l0.12-0.44c0.69,0,1.38,0,2.07,0c0.34-0.05,0.68-0.15,1-0.28c-0.3-0.33-0.54-0.78-0.91-1
		c-1.43-0.65-2.44-1.98-2.67-3.54c-0.3-0.94-0.88-1.78-1.67-2.38c-1.55-1.39-3.22-2.63-5-3.71c-1.27-0.84-2.77-1.28-4.3-1.25
		c-3.59,0.52-7.15,1.28-10.64,2.27c-1.32,0.43-2.52,1.16-3.5,2.14c-1.86,1.79-1.06,4.44,1.4,5.21c2.13,0.68,4,0,6-0.78
		c1.56-0.6,3.42-1.85,4.79-0.25c1.24,1.52,3.34,2.02,5.14,1.25c2.57-0.85,4.25-0.39,5.69,1.9C392.31,723.6,393.54,723.6,394.4,723.9
		z M336.1,325.9c-0.06,0.8-0.06,1.61,0,2.41c0.17,0.43,0.42,0.82,0.73,1.16c0.37-0.29,0.71-0.63,1-1c0.36-0.59,0.64-1.22,0.86-1.88
		c2-5.88,4-11.76,5.82-17.67c0.67-2.13,1.17-4.32,1.47-6.54c0.57-4.22-1.1-5.55-5-4.1c-1,0.36-1.84,0.94-2.77,1.39
		c-1.32,0.54-2.08,1.94-1.81,3.34C337.14,310.63,337.04,318.31,336.1,325.9z M382.54,293.7c-0.07,5,1.74,7.2,6.69,8.1
		c0.67,0.12,1.36,0.18,2,0.3c4.87,0.82,7.38-0.3,9.9-4.44c2.1-3.45,1.78-6.56-1.12-10c-2.2-2.62-5.24-4.5-8.45-4.06
		c-4.93,0.63-9.44,4.54-9.02,10.06L382.54,293.7z M481.4,481.01c-0.22-2.58,1-5.57-2.86-6.36c-0.35-0.07-0.51-0.87-0.85-1.24
		c-0.63-0.69-1.34-1.3-2-1.95c-0.34,0.94-0.59,1.92-0.72,2.92c-0.06,1.72,0.24,3.45,0.21,5.17c0.09,1.54-0.09,3.09-0.53,4.57
		c-1.22,3.07-0.86,6.16-0.39,9.21c0.37,1.67,1.04,3.27,2,4.69c0.68,1.16,2.17,1.54,3.33,0.86c0.11-0.06,0.21-0.14,0.31-0.22
		c0.66-0.69,0.97-1.65,0.83-2.6c-0.34-1.85-1.09-3.62-1.61-5.44c-0.18-0.62-0.42-1.73-0.17-1.88
		C482.04,486.78,480.76,483.53,481.4,481.01z M392.67,267.01c-4.46-0.54-8.58-0.91-12.65-1.57c-2.92-0.48-5.63-1.8-7.79-3.81
		c-0.63-0.58-0.73-2-1.36-2.26c-4.54-1.63-4.73-5.3-4.73-9.21c-0.14-0.89-0.45-1.75-0.92-2.52c-0.23-0.44-0.51-0.86-0.81-1.26
		c-0.21,0.36-0.37,0.76-0.45,1.17c-0.08,2.58,0.02,5.17,0.32,7.74c0.39,2.57,1.89,4.84,4.1,6.21c3.92,2.62,7.67,5.07,12.58,5.35
		c2.89,0.16,5.8,1.51,8.59,1.25c2.79-0.26,5.33,1.24,8.15,0.32c3.09-1,6.49-1.14,9.51-2.3c5.5-2.12,9.86-5.65,11.38-11.74
		c0.09-0.66,0.09-1.34,0-2c-0.41,0.54-0.83,1.08-1.24,1.63c-1.52,2.09-3.07,4.16-4.55,6.28c-1.77,2.62-4.52,4.42-7.63,5
		c-4.28,0.78-8.57,1.19-12.55,1.73L392.67,267.01z M442.67,577.26c-0.82-3.09-1.74-6.75-2.8-10.37c-0.14-0.48-0.91-0.86-1.47-1.08
		c-0.14-0.06-0.78,0.66-0.88,1.09c-0.53,2.34-0.93,4.71-1.44,7.05c-0.74,3.34-1.61,6.65-2.31,10c-0.43,2.09,0.79,4.17,2.41,4.47
		c2.56,0.46,5.1-0.34,5.37-1.94c0.42-2.86,0.65-5.76,1.05-9.21L442.67,577.26z M357.29,267.1c-0.36-0.34-0.83-1.09-1.5-1.35
		c-0.81-0.41-1.79-0.09-2.21,0.72c-0.08,0.16-0.14,0.34-0.16,0.52c-0.51,2.18-0.92,4.38-1.46,6.54c-1.44,5.84-3,11.66-4.36,17.51
		c-0.29,1.22-0.94,3,1.18,3.31c1.62,0.28,3.14,0,3.63-2c0.22-0.83,0.48-1.66,0.65-2.5c0.84-4.39,1.67-8.78,2.48-13.17
		C356.11,273.63,356.66,270.58,357.29,267.1z M402.23,636.17c0.59-2.6,0.59-5.08-1.48-7.22c-0.5-0.52-0.49-1.59-0.6-2.43
		c-0.19-1.34-0.28-2.7-0.42-4.06c-0.24,1.41-0.58,2.82-0.71,4.24c-0.13,0.85-0.02,1.72,0.33,2.51c1.26,2.1,1.06,4.26,0.8,6.52
		c-0.2,1.18-0.07,2.39,0.39,3.5c1,1.79,0.46,3.08-0.27,4.79c-3.11,7.27-2.79,14.75-0.84,22.25c0.1,0.32,0.33,0.57,0.64,0.7
		c0.23,0.06,0.76-0.14,0.82-0.33c1.37-4.4,3.41-8.81,1.37-13.45c-1.12-2.16-1.15-4.72-0.09-6.91c0.93-1.67,1.11-3.66,0.49-5.47
		C402.16,639.4,402.4,637.75,402.23,636.17L402.23,636.17z M307.77,440.73c-4.22-0.14-5.89,3.31-8.31,5.56
		c-0.05,0.06,0.27,0.71,0.37,0.7c1.03,0.02,2.05-0.18,3-0.59c3.48-2.28,6.78-1.74,10.2,0.12c1.37,0.69,2.82,1.21,4.32,1.55
		c0.65,0.14,1.33-0.06,1.81-0.52c0.32-0.72,0.35-1.53,0.1-2.28c-0.27-0.8-0.84-1.47-1.59-1.86
		C314.4,442.4,311.07,441.61,307.77,440.73z M429.04,612.83h0.55c-0.47-5.65-0.94-11.29-1.43-16.94c-0.08-0.5-0.2-1-0.35-1.49
		c-0.19,0.48-0.33,0.99-0.41,1.5c-0.32,8.62-0.62,17.24-0.9,25.86c-0.08,0.86-0.05,1.72,0.11,2.57c0.13,0.51,0.79,0.87,1.21,1.29
		c0.42-0.47,1.06-0.89,1.2-1.44c0.12-0.85,0.15-1.71,0.07-2.57L429.04,612.83z M381.61,681.9c-0.75,0.02-1.5,0.12-2.23,0.31
		c-0.57,0.18-1,0.81-1.48,1.24c0.5,0.09,1,0.19,1.5,0.26c1.2,0.18,2.58,0.18,1.85,2.08c-0.86,2.25-0.84,2.38,1.31,2.13
		c1.31-0.21,2.58-0.61,3.78-1.18c0.79-0.34,1.27-0.41,1.45,0.53c0.28,1.5,0.41,3.07,2.26,3.57c0.11-1.27,0.19-2.54,0.32-3.81
		c0.2-1.17,0.31-2.36,0.34-3.55c-0.17-0.58-0.64-1.03-1.23-1.17C387.14,682.12,384.78,682.07,381.61,681.9z M417.85,618.45h0.19
		c0,2.43,0,4.85,0,7.27c0.06,0.5,0.16,1,0.3,1.48c0.28-0.49,0.48-1.01,0.62-1.55c0.71-7.19,1.35-14.39,2.07-21.59
		c0.17-1.71,0.74-3.38,0.79-5.09c-0.05-1.68-0.23-3.35-0.52-5c-2,1-1.94,3.2-2.11,4.83c-0.65,6.59-0.92,13.1-1.34,19.68
		L417.85,618.45z M315.08,375.78c-0.57,1.57-0.68,2.77,2,2.82c1.77,0,3.54,1.05,5.29,1.66c0.56,0.23,1.12,0.49,1.65,0.78
		c0.08-0.67,0.06-1.34-0.05-2c-0.51-1.82-1.12-3.6-1.83-5.35c-0.78-1.8-3-2.64-5.25-2.29s-1.82,2.08-1.78,3.59
		C315.09,375.2,315.08,375.37,315.08,375.78z M315.14,388.36c-0.07,1.9,0.24,2.49,2.13,1.17c1-0.69,2.57-0.68,3.9-0.76
		c3-0.19,3.52-0.84,2.73-3.52c-0.6-2.18-2.38-3.83-4.6-4.28c-0.61,0-1.2,0.22-1.66,0.61C318.14,384.35,315.4,385.9,315.14,388.36
		L315.14,388.36z M421.83,619.62h0.37c0,1.72-0.09,3.45,0,5.16c0.16,1.27,0.4,2.53,0.71,3.78c2.17-1-0.1-2.18,0.09-3.27
		c0.08-0.5,0-1,0.06-1.54c0.26-2.88,0.57-5.76,0.8-8.64c0.33-4.27,0.66-8.54,0.91-12.81c0.15-2.58,0.16-5.16,0.18-7.74
		c-0.06-0.46-0.18-0.92-0.35-1.35c-0.16,0.48-0.33,0.94-0.47,1.42c-0.04,0.17-0.06,0.34-0.06,0.51
		C423.35,603.32,422.6,611.48,421.83,619.62z M382.13,644.68l0.06-0.28c0.86,0,1.72,0,2.58,0c0.34-0.04,0.67-0.1,1-0.18
		c-0.29-0.2-0.6-0.38-0.92-0.53c-4.32-1.63-8.63-3.28-13-4.83c-0.95-0.39-1.98-0.52-3-0.38c-0.89,0.34-1.71,0.82-2.45,1.42
		c0.73,0.68,1.36,1.78,2.21,2C373.06,642.96,377.61,643.78,382.13,644.68L382.13,644.68z M430.4,605.53h0.15c0,2.77-0.1,5.54,0,8.3
		c0.12,1.03,1.04,1.76,2.07,1.65c0.34-0.04,0.66-0.17,0.93-0.38c0.62-0.6,1.16-1.27,1.62-2c0.9-1.23,2.53-2.83-1-2.09
		c-0.06,0-0.9-1.78-0.61-2.38c0.6-1.26,2.43-2.36-0.6-2.91c-0.33-0.06-0.43-1.52-0.61-2.33c-0.35-1.5-0.66-3-1-4.51
		c-0.15-0.48-0.34-0.95-0.56-1.4c-0.22,0.41-0.37,0.85-0.44,1.31C430.4,601.04,430.4,603.28,430.4,605.53z M363.02,453.31v0.17
		c3.42-0.33,6.83-0.61,10.24-1c1.93-0.22,4.05,0.78,5.77-0.87c-1.86-2.4-4.48-1.29-6.51-0.9c-4.75,0.8-9.59,0.9-14.37,0.31
		c-0.84-0.07-1.68,0-2.49,0.22c-0.55,0.03-0.97,0.51-0.94,1.06s0.51,0.97,1.06,0.94C358.21,453.35,360.62,453.31,363.02,453.31z
		 M378.51,679.9c0.63-0.27,2.28-0.53,2.41-1.13c0.69-3.14,3.15-3.09,5.45-3.55c0.96-0.28,1.9-0.65,2.8-1.09
		c-0.85-0.51-1.67-1.07-2.46-1.66c-1.72-1.43-3.53-0.83-5.32-0.33c-1.3,0.35-2.09,1-1.25,2.58c0.63,1.2-0.25,1.93-1.37,2.17
		c-0.83,0.17-1.75,0-2.55,0.2c-0.57,0.16-1,0.74-1.52,1.14c0.45,0.46,0.82,1.08,1.36,1.33C376.86,679.79,377.68,679.9,378.51,679.9z
		 M393.65,694.9c-0.52-0.35-1.08-0.64-1.67-0.86c-2.19-0.37-5,0.09-6.45-1.13c-3-2.65-5.7-1.34-8.6-0.46l-1,0.32
		c0.2,0.23,0.36,0.55,0.61,0.67c2.66,1.16,4.87,3.93,8.39,2c0.93-0.52,2.37-0.16,3.58-0.18s2.41,0,3.62,0
		C392.65,695.18,393.16,695.06,393.65,694.9z M448.95,516.62l0.27-0.05c-0.48-2.68-0.95-5.36-1.46-8c-0.07-0.32-0.29-0.58-0.58-0.72
		c-0.32,0-0.62,0.15-0.81,0.4c-1.58,3.06-2.01,6.6-1.21,9.95c0.29,1.22,1.54,3.25,2.11,3.17c1.9-0.26,1.46-2.26,1.68-3.69
		C448.98,517.33,448.98,516.98,448.95,516.62z M436.4,432.9c-0.44-3.37-0.74-5.91-1.14-8.42c-0.17-0.42-0.55-0.73-1-0.81
		c-1.48-0.07-3.11,1.47-2.83,2.86s0.61,2.88,1.51,3.63c1.81,1.51,1.62,2.68,0.29,4.25c-0.33,0.39-0.24,1.13-0.35,1.71
		c0.78-0.08,2,0.12,2.25-0.3C435.68,434.91,436.1,433.93,436.4,432.9z M375.89,612.33v-0.19c1.88,0,3.76,0.06,5.63,0
		c0.61-0.16,1.19-0.43,1.7-0.8c-0.45-0.36-0.85-0.9-1.36-1c-1.81-0.47-3.72-0.61-5.47-1.25c-1.62-0.57-3.41-0.42-4.92,0.39
		c-0.8,0.52-1.52,1.16-2.14,1.89c0.78,0.44,1.61,0.78,2.47,1C373.17,612.44,374.53,612.43,375.89,612.33z M423.05,640.09
		c3.72-0.42,7-0.58,10.15-1.23c1.59-0.33,3.06-1.49,4.47-2.44c0.38-0.26,0.37-1.12,0.54-1.71c-0.47,0-1-0.27-1.41-0.11
		c-3.59,1.63-7.35,2.84-11.22,3.61c-0.83,0.23-1.62,0.6-2.34,1.08c-0.25,0.19-0.48,0.41-0.67,0.66
		C422.9,640.04,423.23,640.13,423.05,640.09z M321.19,501.74c-0.34,2.13-0.49,3.05-0.64,4l-0.24,1.56c0.52-0.38,1.31-0.66,1.5-1.16
		c0.58-1.22,0.88-2.56,0.89-3.91c-0.29-3-0.94-6-1.47-9.05c-0.05-0.26-0.31-0.49-0.47-0.74c-0.27,0.2-0.67,0.34-0.79,0.61
		c-0.78,1.76-0.55,4.06-2.74,5.06c0.4,0.62,0.72,1.69,1.2,1.77C320.32,500.16,322.23,500.17,321.19,501.74z M432.29,659.23
		c0.37,1.27,0.59,2.57,0.65,3.89c-0.16,1.82,0.83,2,2.17,2s2.4-0.73,2.24-2.18c-0.12-1.53-0.51-3.02-1.16-4.41
		c-0.58-0.8-1.52-1.26-2.5-1.23C433.08,657.38,432.65,658.69,432.29,659.23L432.29,659.23z M388.96,443.58
		c-0.42-2.45-0.85-5.14-1.38-7.8c-0.07-0.32-0.72-0.53-1.09-0.79c-0.25,0.4-0.73,0.82-0.7,1.19c0.24,2.54,0.51,5.08,0.93,7.59
		c0.23,1.4-0.46,3.21,1.5,4C388.4,446.47,388.67,445.19,388.96,443.58z M491.61,504.58c0.11-1.75-1.22-3.25-2.96-3.36
		c-0.04,0-0.07,0-0.11-0.01c-1.91-0.07-2.15,1.29-2.2,2.73c-0.07,1.89,0.72,2.56,2.88,2.53c1.27,0,2.43-0.19,2.39-1.87V504.58z
		 M403.3,284.2c-0.2-2.39-1.46-4.57-3.44-5.93c-0.42-0.27-0.85-0.52-1.3-0.73c-0.14,0.48-0.3,1-0.4,1.44
		c-0.81,3.61,2.9,4.16,4.3,6.27c0.21,0.1,0.44,0.1,0.65,0C403.22,284.91,403.28,284.56,403.3,284.2z M396.3,229.54
		c-0.22-0.1-0.45-0.19-0.69-0.24c-5.55-0.54-11-0.34-16.22,1.94c-0.18,0.08-0.23,0.46-0.35,0.69c0.32,0.14,0.66,0.21,1,0.21
		c4.75-0.86,9.29-3.26,14.34-1.83c0.25,0.07,0.62-0.27,0.93-0.4s0.59-0.23,0.97-0.37H396.3z M406.47,660.54
		c-0.59,0.57-1.11,1.19-1.57,1.87c-0.22,0.63-0.32,1.29-0.3,1.95c0.91,0.08,1.82,0.06,2.73-0.05c1.15-0.28,2.27-0.69,3.33-1.21
		c0.53-0.33,1.02-0.74,1.44-1.2c-0.53-0.27-1.08-0.49-1.65-0.67c-1.17-0.27-2.35-0.43-4-0.71L406.47,660.54z M391.6,446.34
		c-0.2,0.65-0.33,1.32-0.41,2c0.05,0.77,0.19,1.54,0.3,2.31c0.46-0.69,0.81-1.44,1.05-2.23c0.22-1.35,0.27-2.71,0.17-4.07
		c-0.25-2.88-0.62-5.74-1-8.6c-0.06-0.45-0.55-0.84-0.84-1.26c-0.31,0.56-0.51,1.17-0.58,1.81c0.39,3.67,0.92,7.34,1.29,10.02
		L391.6,446.34z M475.92,355.49c0.3,1.22,0.77,3.22,1.33,5.19c0.11,0.37,0.61,0.62,0.93,0.93c0.3-0.36,0.91-0.79,0.85-1.08
		c-0.53-2.51-1.16-5-1.81-7.48c-0.08-0.28-0.46-0.48-0.7-0.72c-0.19,0.23-0.34,0.5-0.44,0.78c-0.1,0.78-0.16,1.57-0.18,2.36
		L475.92,355.49z M431.4,435.9c-0.44-3.35-0.82-6.37-1.25-9.37c-0.1-0.31-0.33-0.55-0.64-0.65c-0.14-0.05-0.62,0.33-0.6,0.48
		c0.31,3.19,0.65,6.38,1,9.56c0.06,0.43,0.52,0.82,0.79,1.23L431.4,435.9z M475.61,447.45c1.32-0.25,2.63-0.58,3.91-1
		c1.9-0.77,4.34-0.58,5.42-2.89c-1.74,0.47-3.47,1-5.21,1.4c-1.47,0.38-3,0.67-4.42,1.06c-0.28,0.07-0.49,0.4-0.74,0.61
		L475.61,447.45z M430.84,619.32c0.11,0.33,0.2,0.66,0.28,1c0.09,0.75,0.17,1.49,0.25,2.23c0.63-0.49,1.2-1.05,1.71-1.66
		c0.36-0.58,0.59-1.23,0.67-1.91c0.06-0.76,0.06-1.52,0-2.28c-0.92,0.32-1.79,0.75-2.6,1.28
		C430.75,618.25,430.87,619.14,430.84,619.32z M384.98,599.32c0.92-0.63,1.81-1.19,2.61-1.84c0.13-0.1,0-0.89-0.12-0.9
		c-1.06-0.16-2.14-0.2-3.21-0.1c-0.53,0.09-1,0.79-1.44,1.21L384.98,599.32z M371.84,636.37l2.71-0.52l-1.61-0.64
		c-1.88-0.74-3.76-1.51-5.66-2.21c-0.35-0.05-0.71-0.03-1.06,0.06c0.09,0.32,0.09,0.85,0.28,0.94c1.9,0.9,3.9,1.76,5.34,2.39V636.37
		z M440.4,455.9l-1.3-2c-0.77,0.82-2.28,1.78-2.16,2.43c0.21,1.08,1.47,1.95,2.29,2.9L440.4,455.9z M401.4,579.55
		c0.18-1,0.37-1.85,0.45-2.7c0-0.13-0.59-0.5-0.77-0.43c-1.3,0.55-1.84,4.15-0.87,5.52c0.1,0.14,0.25,0.36,0.34,0.34
		c0.25-0.05,0.66-0.18,0.67-0.32C401.32,581.11,401.4,580.24,401.4,579.55z M312.94,523.81l-0.67,0.16c0.33,0.32,0.6,0.75,1,0.93
		c1.07,0.5,2.76-0.7,3.35,1.27c0.06,0.2,0.82,0.18,1.25,0.27c-0.1-0.63-0.06-1.75-0.3-1.82c-1.53-0.35-3.08-0.62-4.64-0.81H312.94z
		 M352.94,550.19c-0.14,0.67-0.42,1.21-0.28,1.6c0.28,0.78,3.79,2,4.31,1.61c0.15-0.12,0.16-0.72,0-0.79
		c-1.22-0.82-2.57-1.57-4-2.42H352.94z M394.42,643.35c-0.12-0.22-0.32-0.68-0.37-0.66c-1.76,0.58-3.51,1.19-5.24,1.84
		c-0.18,0.06-0.24,0.41-0.36,0.63l0.47,0.18c1.42,0.46,4.89-0.77,5.53-1.99H394.42z M425.15,661.55c2.22,0.32,3.2,0.72,4,0.49
		c0.49-0.14,0.72-1.23,1.07-1.89c-0.53-0.11-1.12-0.43-1.57-0.3c-1.2,0.48-2.36,1.05-3.47,1.7H425.15z M301.12,507.18
		c-1-1-2.07-2.11-3.12-3.15c-0.11-0.02-0.23,0-0.33,0.07c-0.1,0.3-0.31,0.77-0.19,0.9c0.87,0.92,1.79,1.8,2.75,2.63
		c0.16,0.14,0.55,0,0.83,0C301.1,507.59,301.1,507.33,301.12,507.18z M365.26,576.68c-0.14-0.24-0.31-0.46-0.5-0.67
		c-0.09-0.09-0.42-0.11-0.47,0c-0.76,1-1.5,2-2.21,3.06c-0.05,0.08,0.11,0.29,0.17,0.44c0.84-0.63,1.71-1.25,2.53-1.92
		C364.99,577.32,365.16,577.01,365.26,576.68z M347.04,446.68c-0.66-1.15-1.14-2-1.7-2.9c-0.1-0.16-0.7-0.23-0.75-0.14
		c-0.21,0.27-0.29,0.61-0.23,0.94c0.29,0.74,0.69,1.44,1.18,2.06c0.18,0.26,0.86,0.03,1.5,0.03V446.68z M333.88,393.56
		c-0.7-0.17-1.41-0.23-2.13-0.19c-0.33,0.08-0.53,0.69-0.79,1.06c0.54,0.26,1.12,0.42,1.72,0.49c0.31-0.02,0.6-0.65,1.2-1.37V393.56
		z M432.88,666.21l-1.95,0.49c0.51,0.31,1.04,0.58,1.58,0.82c0.62,0.25,1.27,0.43,1.93,0.54c0.15,0,0.39-0.35,0.52-0.58
		c0-0.07-0.13-0.33-0.26-0.39c-0.63-0.32-1.24-0.59-1.87-0.89L432.88,666.21z M314.63,528.4v-0.07c-0.33-0.02-0.67-0.02-1,0
		c-0.32,0.06-0.63,0.15-0.93,0.27c0.36,0.22,0.74,0.39,1.15,0.49c0.84,0.05,1.69,0.05,2.53,0c0.33-0.06,0.65-0.16,0.95-0.29
		c-0.37-0.16-0.76-0.28-1.16-0.37C315.66,528.39,315.15,528.38,314.63,528.4z M399.17,527.9l-1.13-1.61
		c-0.2,0.23-0.61,0.55-0.55,0.7c0.34,0.91,0.78,1.79,1.19,2.68L399.17,527.9z M409.46,686.22c-0.46-0.27-0.83-0.55-0.88-0.5
		c-0.61,0.59-1.18,1.22-1.76,1.84c0.27,0.09,0.66,0.33,0.81,0.23C408.26,687.34,408.81,686.79,409.46,686.22z M400.17,516.16
		c0.27-1.2,0.57-2.45,0.84-3.71c0-0.13-0.15-0.29-0.24-0.44c-0.45,0.69-0.84,1.43-1.16,2.19c-0.1,0.64-0.1,1.29,0,1.93
		L400.17,516.16z M374.29,244.99l-0.48,0.87c0.43,0.16,0.87,0.49,1.29,0.45c0.61-0.12,1.2-0.31,1.76-0.58c-0.16-0.34-0.31-1-0.48-1
		C375.68,244.76,374.98,244.84,374.29,244.99z M415.61,618.23l-0.18-0.92c-0.18,0.29-0.3,0.61-0.36,0.94
		c0.04,0.63,0.12,1.25,0.23,1.87L415.61,618.23z M359.45,571.48l1.06-1.82c-0.23-0.08-0.59-0.31-0.67-0.23
		c-0.37,0.34-0.68,0.73-0.92,1.17C358.86,570.73,359.19,571.05,359.45,571.48L359.45,571.48z M391.45,680c-0.71,0-1.17,0-1.61,0
		c0,0-0.05,0.32-0.07,0.49c0.31,0.06,0.63,0.08,0.94,0.06c0.23,0.01,0.38-0.22,0.78-0.55H391.45z M414.75,255.08l-0.37-1.3
		c-0.16,0.19-0.45,0.38-0.45,0.56c0.04,0.47,0.12,0.95,0.23,1.41L414.75,255.08z M373.75,594.99c-0.64-0.11-1.11-0.21-1.59-0.25
		c-0.12,0-0.26,0.19-0.39,0.29c0.35,0.22,0.73,0.39,1.13,0.51c0.19,0.03,0.44-0.28,0.84-0.55H373.75z M345.13,438.24l-0.46-0.89
		c-0.13,0.29-0.22,0.6-0.27,0.92c0.03,0.32,0.1,0.63,0.21,0.93L345.13,438.24z M352.4,396.6l-0.43,0.16
		c0.09,0.08,0.19,0.24,0.26,0.22c0.21-0.07,0.42-0.15,0.62-0.25L352.4,396.6z M394.72,572.9l-0.18-0.38
		c-0.1,0.08-0.28,0.19-0.26,0.23c0.08,0.19,0.17,0.38,0.28,0.55L394.72,572.9z M345.59,433.32l0.07,0.94
		c0.11-0.13,0.19-0.27,0.26-0.42c0.03-0.16,0.01-0.33-0.05-0.48C345.87,433.36,345.69,433.33,345.59,433.32z M396.88,520.75
		l-0.2-0.4c-0.12,0.25-0.21,0.52-0.28,0.79c0,0.11,0.12,0.26,0.18,0.39C396.7,521.27,396.8,521.01,396.88,520.75z M366.69,604.75
		l0.79-0.29c-0.1-0.12-0.22-0.35-0.29-0.34c-0.27,0.08-0.54,0.18-0.8,0.29L366.69,604.75z M364.6,604.04l-0.18-0.39
		c-0.09,0.07-0.28,0.18-0.27,0.21c0.08,0.2,0.2,0.39,0.3,0.59L364.6,604.04z M451.6,514.51l0.18-0.37h-0.3L451.6,514.51z
		 M439.94,378.04l0.27,0.17v-0.27L439.94,378.04z M395.51,248.58l0.18-0.37h-0.29L395.51,248.58z M386.51,259.81l-0.26-0.3v0.56
		L386.51,259.81z M400.77,506.64l-0.15,0.31h0.22L400.77,506.64z M388.4,587.96l-0.21-0.18l-0.05,0.27L388.4,587.96z M377.9,724.23
		l0.19-0.3h-0.32L377.9,724.23z"/>
	<path class="st3" d="M397.16,360.02c-2,0-4,0.16-6,0c-0.88-0.25-1.72-0.66-2.46-1.2l1.27-0.61l-1.14,0.75
		c-5.47-0.06-11-0.46-16.19,1.77c-0.51,0.22-1.26-0.12-1.9-0.19c0.27-0.75,0.31-1.85,0.84-2.19c2.44-1.58,5-3,7.55-4.37
		c1.07-0.54,2.17-0.99,3.31-1.36c2-0.72,3.66-2.82,6.32-0.74c0.82,0.65,3.19-0.63,4.83-1.08c1.27-0.51,2.59-0.89,3.93-1.15
		c2.06-0.15,0.62,1.29,0.71,2l-3.2,1c-2.37-0.24-4.56,0.06-6.13,2.13l-3.21,1c-0.49-0.05-0.97-0.05-1.46,0
		c-0.36,0.13-0.69,0.32-1,0.54c0.44,0.14,0.9,0.2,1.36,0.16c0.38-0.11,0.66-0.57,1-0.87l3.2-1c2.36,0.19,4.61,0.05,6.15-2.12h3.29
		c0.35,0.3,0.67,0.76,1.07,0.85c0.48,0,0.95-0.09,1.4-0.27c-0.36-0.19-0.74-0.33-1.13-0.43c-0.5-0.04-0.99-0.04-1.49,0v-1.22
		l4.27,0.16l-0.13-0.13l1.73,0.94c0.8,0.43,1.74,1.11,0.78,1.9c-2.33,1.9-0.63,2.44,0.89,2.94c1,0.21,2.02,0.35,3.05,0.41
		c1.41,0.22,3.64-1.18,3.72,1.85c0.62,0.19,1.26,0.29,1.91,0.31c1.37,0.04,2.74,0.16,4.09,0.36c0.42,0.09,0.67,1,1,1.49
		c-0.41,0.26-0.91,0.81-1.22,0.72c-4.25-1.28-9,1-13.11-2.05c-0.91-0.68-2.95,0-4.43,0.31s-2.71,0.8-3.59-0.86
		c0.16-0.03,0.32-0.08,0.47-0.16c0.08-0.05,0.08-0.21,0.11-0.32L397.16,360.02z M401.77,356.62c-0.13-0.18-0.28-0.35-0.44-0.51
		c-0.18,0.08-0.35,0.18-0.51,0.28L401.77,356.62z M398.64,357.2l-0.17,0.2l0.28,0.05L398.64,357.2z"/>
	<path class="st3" d="M445.94,339.23c-1-1.49-2.05-2.94-2.9-4.5c-0.12-0.23,0.65-1.07,1.15-1.44c0.15-0.11,0.95,0.32,1.13,0.67
		c0.42,0.9,0.78,1.84,1.08,2.79l1.53-0.73l0.82-1.08l-0.55-0.26l-0.13,1.46l-1.23-3.24c0.16-0.02,0.31-0.07,0.45-0.13
		c0.07-0.05,0.08-0.2,0.12-0.31l-0.43,0.58l-1.88-1.62c0.43-0.22,0.85-0.61,1.28-0.62c0.76-0.01,1.52,0.1,2.25,0.33
		c0.23,0.07,0.35,0.57,0.48,0.88c0.49,1.09,1,2.18,1.43,3.27c0.18-1.24,0.29-2.49,0.32-3.75c0.04-1.02-0.19-2.03-0.67-2.92
		c-1.42-2-2-3.19,1.36-2.37c0.34-0.01,0.66-0.2,0.83-0.49c0.06-0.4-0.04-0.82-0.29-1.14c-0.55-0.63-1.37-1-1.81-1.73
		c-0.72-1.1,0.08-2.06,1.54-2l1.88,0.07c0-1-0.23-2.31,1.3-2c0.32,0.06,0.52,1.9,0.39,2.87c-0.22,1.67-0.22,4-1.27,4.83
		c-2.32,1.94-1.84,4.21-1.85,6.53c0,5.08-1.18,9.78-4.39,13.84c-0.21,0.28-0.39,0.69-0.66,0.77c-0.56,0.22-1.18,0.28-1.77,0.17
		c-0.36-0.32-0.53-0.8-0.46-1.27c1.49-2.42,0.84-5,0.81-7.58h1.21c0.03,0.49,0.1,0.98,0.23,1.45c0.08,0.22,0.47,0.32,0.72,0.48
		c0.07-0.38,0.31-0.91,0.15-1.1c-0.36-0.3-0.78-0.54-1.23-0.69l-0.43-0.75L445.94,339.23z"/>
	<path class="st3" d="M431.5,313.09c-1.23,1.74-2.22,1.19-3-0.37c-0.28-0.62-0.52-1.25-0.72-1.9c-0.2,0.58-0.41,1.16-0.58,1.75
		c-0.07,0.51-0.21,1-0.42,1.47c-0.24,0.36-0.77,0.52-1.18,0.76c-0.18-0.31-0.29-0.65-0.33-1c0.09-1.19,0.2-2.38,0.4-3.56
		c0.33-1.91,0.73-3.8,1.11-5.7c0.76,1.48,1.46,3,2.34,4.44c0.42,0.53,0.98,0.95,1.61,1.2c0.41,0.13,0.84,0.2,1.27,0.19
		c0-0.33,0.15-0.7,0-1c-1.08-2.37-0.92-5.13,0.43-7.36c0.75-1.43,1.35-1.22,2.14-0.11c0.67,0.95,1.39,1.86,2.08,2.78l1,2.11
		c0.03,0.16,0.07,0.31,0.13,0.46c0,0.08,0.17,0.12,0.26,0.17l-0.54-0.49c-0.33-0.71-0.66-1.41-1-2.12c-0.05-2.12,1.13-1.44,2.21-1
		l-0.16-0.16l2.22,4.21c-0.03,0.85-0.02,1.7,0.05,2.54c0.15,0.65,0.36,1.29,0.62,1.91l1.42-1.26l-0.12-0.14v5.38l0.13-0.15
		c-0.37,0.51-0.76,1-1.09,1.54c-0.14,0.3-0.26,0.6-0.35,0.92c-0.22-0.09-0.42-0.21-0.6-0.35c-0.1-0.1-0.07-0.33-0.1-0.49
		c-0.38-2-0.35-4.22-1.25-5.95c-0.9-1.73-2.67-2.75-4-4.13c-0.62-0.63-1.17-1.33-1.75-2c-0.15,0.83-0.2,1.68-0.16,2.52
		c0.21,1.51,0.7,3,0.91,4.49c-0.02,0.64-0.15,1.28-0.39,1.88l-1.76-1c-0.3-0.17-0.61-0.32-0.91-0.48c-0.09-0.11-0.17-0.24-0.27-0.34
		c-0.1-0.1-0.15-0.05-0.23-0.08L431.5,313.09z"/>
	<path class="st3" d="M454.3,363.12c0.49-1,0.75-2.32,1.54-2.95c1.63-1.24,3.4-2.29,5.26-3.15c3.62-1.77,7.56-3.11,8.57-7.77
		c0.07-0.31,0.8-0.46,1.22-0.69l-0.12-0.09c-0.07,1.27-0.48,3.56-0.15,3.68c3.89,1.32,0.46,2-0.26,2.51
		c-0.95,0.64-2.24,0.75-3.29,1.29c-2.77,1.33-5.46,2.8-8.08,4.4c-1.87,1.2-1.76,1.77,0,3.45c0.57,0.55,1.81,0.91,0.76,1.84
		c-0.33,0.3-1.58-0.1-2.16-0.53s-0.8-1.49-1.42-1.93c-0.47-0.34-1.32-0.14-2-0.19L454.3,363.12z"/>
	<path class="st3" d="M426.1,362.98c-0.37,0.72-0.79,1.41-1.25,2.07c-2.45,3-4.91,6.11-7.46,9.08c-0.43,0.5-1.35,0.57-2,0.85
		c-0.14-0.76-0.14-1.54,0-2.3c0.48-1.1,1.09-2.13,1.82-3.08c2.76-3.88,5.55-7.74,8.37-11.59c0.24-0.33,0.78-0.44,1.19-0.66
		c0,0.46,0.18,1,0,1.37c-0.61,1.22-1.35,2.37-2.05,3.55l1.53,0.82L426.1,362.98z"/>
	<path class="st3" d="M371.54,391.18c3.64,0.4,6.9,2.46,8.81,5.59c1.84,2.81,2.9,6.13,4.18,9.28c0.12,0.29-0.6,1.06-1.07,1.4
		c-0.17,0.11-0.93-0.33-1.17-0.69c-0.38-0.57-0.63-1.21-0.73-1.88c-0.82-5.64-4.35-9.11-9.14-11.61c-0.47-0.21-0.91-0.46-1.32-0.76
		c-0.26-0.21-0.4-0.54-0.39-0.87C370.77,391.43,371.24,391.33,371.54,391.18z"/>
	<path class="st3" d="M442.73,307.01c0.79-0.17,1.56-0.41,2.3-0.72c2-1,2-1.07,2.24,1.54c0.07,0.63,0.63,1.25,0.59,1.85
		c-0.12,2.21-1.38,0.07-2,0.47l-1.06-1.06l-0.58-0.51l0.71,0.38l1.06,1.06c0.37,0.91,0.69,1.85,1.12,2.73c1.42,3,1.42,3-1.09,5.79
		c-0.2,0.19-0.42,0.34-0.66,0.46c-1.46-1.89-1.35,0.29-1.89,0.72c-0.24-0.31-0.64-0.61-0.67-0.93c-0.03-0.84-0.01-1.69,0.07-2.53
		l-0.13,0.15c1.56-1.79,1.41-3.58,0-5.38l0.12,0.14c0-1.43,0-2.85,0-4.27L442.73,307.01z"/>
	<path class="st3" d="M417.94,417.15l-2.2-0.17l0.13,0.15c-0.51-0.4-1.08-0.74-1.68-1c-0.94-0.27-2.35-0.06-2.09-1.53
		c0.11-0.6,1.2-1.2,2-1.48c1.16-0.43,1.52,0.18,1.09,1.29c1.27-0.27,2.53-0.6,3.76-1c1.72-0.67,1.91-0.33,1.84,1.53
		c-0.08,2.27-0.42,4-2.82,4.62c-0.59,0.08-1.2,0.08-1.79,0c0.38-0.56,0.77-1.12,1.14-1.69c0.19-0.28,0.34-0.59,0.5-0.88
		c0.15-0.04,0.29-0.1,0.43-0.17c0.07,0,0.08-0.18,0.12-0.27L417.94,417.15z"/>
	<path class="st3" d="M447.12,678.79c-0.13-1.43-0.38-3.81-0.54-6.19c-0.02-0.43,0.18-0.83,0.53-1.08c0.47-0.15,0.98-0.08,1.38,0.2
		c0.68,0.76,1.13,1.7,1.3,2.71c-0.09,2.38-0.4,4.74-0.9,7.06c-0.34,0.72-1.03,1.2-1.82,1.27c-1.4-0.27-0.32-1.28-0.27-2
		C446.82,680.43,446.9,680.1,447.12,678.79z"/>
	<path class="st3" d="M441.4,699.61c1.49,0.22,2.49,0.34,3.47,0.51c0.45,0.08,0.88,0.25,1.31,0.37c-0.38,0.32-0.72,0.78-1.17,0.91
		c-0.49,0.16-1.03,0.12-1.49-0.11c-1.45-0.87-2.61-0.78-3.36,0.83s-1,3.32,1,4.43c0.45,0.26,0.89,0.51,1.31,0.81
		c0.1,0.07,0.16,0.38,0.09,0.45c-0.19,0.22-0.51,0.57-0.68,0.52c-1.64-0.49-3.32-0.9-3.93-2.87c-0.66-1.81-0.25-3.84,1.07-5.25
		C439.52,699.61,440.84,699.72,441.4,699.61z"/>
	<path class="st3" d="M431.18,723.66c-1,0.81-2,1.63-3.12,2.4c-0.31-0.21-0.55-0.51-0.7-0.85c-0.04-0.67-0.04-1.33,0-2
		c-0.05-1.3-0.8-1.78-2-1.59c-0.84,0.12-1.67,0.33-2.52,0.41s-1.63,0-2.45,0c0.63-0.65,1.15-1.53,1.91-1.9
		c2.27-1.08,6.64,0.32,8.57,2.61C431.03,723.03,431.13,723.34,431.18,723.66z"/>
	<path class="st3" d="M453.12,693.17c1.39,1.15,2.66,2.43,3.79,3.83c0.57,0.84,0.37,2.24,0.4,3.39c0,0.28-0.45,0.73-0.77,0.81
		c-0.59,0.16-1.21,0.18-1.81,0.06c-0.25-0.35-0.33-0.8-0.21-1.21c1.59-1.63,0.62-2.71-0.7-3.76s-2.38-1.27-3.47,0.24
		c-0.16,0.22-0.73,0.14-1.1,0.2c0.14-0.43,0.16-1,0.46-1.25C450.63,694.75,451.65,694.14,453.12,693.17z"/>
	<path class="st3" d="M414.74,401.43c0.1,0.07,0.36,0.17,0.36,0.26c0,0.27,0,0.67-0.21,0.78c-1.3,0.83-2.65,1.59-4,2.4
		s-2.85,1.86-4.32,2.72c-0.64,0.29-1.31,0.52-2,0.68c0.06-0.64,0.2-1.26,0.41-1.87c0.22-0.64,0.64-1.19,1.2-1.58
		c2.44-1.21,4.95-2.29,7.45-3.37C414,401.38,414.38,401.37,414.74,401.43z"/>
	<path class="st3" d="M461.4,709.9c0.06,0.85,0.03,1.71-0.09,2.56c-0.41,1.72-1.8,2.08-3.23,1.62s-1.73-1.48-1-2.86
		c0.48-0.88,0.65-1.94,1.13-2.83c0.16-0.28,0.88-0.26,1.34-0.38c0,0.42-0.08,0.84-0.08,1.26c0,2.06,1.27,0.8,2.07,0.77L461.4,709.9z
		"/>
	<path class="st3" d="M379.57,216.7c3.39-3.39,7.68-4.65,12.29-5.11c0.5,0.03,1,0.14,1.47,0.33c-0.24,0.19-0.5,0.34-0.78,0.47
		c-4.37,1.4-8.74,2.78-13.12,4.17L379.57,216.7z"/>
	<path class="st3" d="M406.5,396.34l3.09-3.1l-0.12-0.13h1.22l-0.12,0.12l3.2-3c-0.66,1.56-1.41,3.07-2.27,4.53
		c-1.22,1.83-3.25,1.5-5.11,1.47L406.5,396.34z"/>
	<path class="st3" d="M429.34,368.17c-0.46,0.48-0.89,1-1.38,1.41c-0.25,0.19-0.55,0.31-0.87,0.34c-0.25-0.36-0.63-1-0.5-1.19
		c1-1.84,2.44-3.4,4.67-3.61c0.64-0.07,1.36,0.65,2,1c-0.28,0.56-0.65,1.07-1.11,1.5c-0.61,0.28-1.26,0.47-1.92,0.55l0.13,0.12
		l-0.16-1.14c0.13-0.05,0.26-0.11,0.39-0.18c0.07,0,0.1-0.15,0.15-0.22l-0.4,0.54l-1.18,1L429.34,368.17z"/>
	<path class="st3" d="M462.58,707.9c0.11-2.81,2.33-2.3,3.65-1.79c1.72,0.51,2.8,2.22,2.52,4c-0.13,0.44-0.29,0.88-0.5,1.29
		c-0.16-0.29-0.29-0.59-0.39-0.91c-0.7-3.13-3.41-2.16-5.39-2.67L462.58,707.9z"/>
	<path class="st3" d="M420.92,299.73c2.45,2.8,2.3,6.2,2.13,9.56c0,0.51-0.85,1-1.3,1.45c-0.13-0.52-0.23-1.04-0.28-1.57
		c0-1.49,0-3,0-4.48c-0.08-1.69-0.25-3.38-0.38-5.07L420.92,299.73z"/>
	<path class="st3" d="M436.4,395.9c-0.07,0.31,0,0.76-0.22,0.9c-2.08,1.51-4.18,3-6.3,4.41c-0.3,0.09-0.63,0.04-0.89-0.15
		c-0.14-0.25-0.14-0.57,0-0.82c2.16-1.62,4.35-3.21,6.57-4.76C435.68,395.35,436.1,395.7,436.4,395.9z"/>
	<path class="st3" d="M496.81,710.9l-7.34-1.07l0.16,0.17c3.34-2.58,5.14-2.31,7,1L496.81,710.9z"/>
	<path class="st3" d="M426.21,363.09l2.39-3.28c0.36-0.49,4.05-0.89,4.16-0.43c0.05,0.46-0.14,0.92-0.51,1.21
		c-2,0.86-4.09,1.61-6.15,2.39L426.21,363.09z"/>
	<path class="st3" d="M448.9,704.66c-0.06,1,0,2.72-0.21,2.77c-1.43,0.18-2.87,0.2-4.3,0.06c0,0-0.12-1.05,0-1.09
		c1.53-0.58,3.1-1.06,4.66-1.57L448.9,704.66z"/>
	<path class="st3" d="M293.28,419.09c-2.08-3.2-0.3-5.28,2.08-7.19l-0.1-0.08c-0.7,2.45-1.39,4.9-2.09,7.35L293.28,419.09z"/>
	<path class="st3" d="M403.4,215.49l-2.37-1.42l-2.07-1.33c0.8-0.18,1.63-0.21,2.44-0.1c1.38,0.56,2.71,1.2,4,1.94l0.15-0.14
		l-2.25,1.19L403.4,215.49z"/>
	<path class="st3" d="M438.71,303.9c-0.09-0.66-0.11-1.33-0.05-2c0.05-0.29,0.84-0.73,0.9-0.68c1.66,1.58,3.93,2.85,3.17,5.76
		l0.11-0.11l-1.12,0.11c-0.27-1.85-1.1-3.14-3.17-3.24L438.71,303.9z"/>
	<path class="st3" d="M465.69,343.37c0.39-1.45,0.71-2.92,1.2-4.34c0.27-0.38,0.73-0.58,1.19-0.54c0.4,0.29,0.63,0.76,0.63,1.25
		c-0.08,1.76-1.37,3.23-3.11,3.53L465.69,343.37z"/>
	<path class="st3" d="M457.07,685.09c-0.31,0.24-0.87,0.7-1.44,1.14s-1.25,0.73-1.12-0.44c0.17-1.17,0.42-2.32,0.74-3.45
		c0.16-0.36,0.38-0.7,0.63-1c0.17,0.27,0.32,0.56,0.44,0.86C456.56,682.97,456.74,683.78,457.07,685.09z"/>
	<path class="st3" d="M448.04,722.42c0.4-1.82-0.34-2.95-2-3.64c-0.36-0.14-0.52-0.77-0.78-1.17c0.65-0.05,1.41-0.33,1.91-0.09
		c2.26,1.11,2.32,1.74,0.74,4.75L448.04,722.42z"/>
	<path class="st3" d="M468.28,714.99c-0.52,0.03-1.04-0.07-1.52-0.29c-0.48-0.32-0.68-1.07-1-1.63c0.48-0.11,0.98-0.15,1.47-0.12
		c0.84,0.15,1.65,0.41,2.43,0.75c0.4,0.18,0.66,0.68,1,1l-1.41,0.26C468.93,714.99,468.61,715,468.28,714.99z"/>
	<path class="st3" d="M465.6,343.27l-4.13,4.14l0.12,0.15c0.84-4.1,0.84-4.1,4.1-4.19L465.6,343.27z"/>
	<path class="st3" d="M436.83,719.73l1.51,1.25c-0.58,0.5-1.23,0.89-1.94,1.17c-0.49,0.09-1.11-0.46-1.67-0.72L436.83,719.73z"/>
	<path class="st3" d="M482.4,713.13l2-1.63l2,2.82c-0.37,0-1,0.24-1.08,0.11c-0.61-1.08-1.84-1.66-3.06-1.44L482.4,713.13z"/>
	<path class="st3" d="M438.57,365.09c-0.69,1.13-1.33,2.29-2.1,3.36c-0.21,0.29-0.79,0.31-1.21,0.45c-0.03-0.43,0.01-0.87,0.12-1.29
		c0.65-1.4,1.42-2.71,3.32-2.4L438.57,365.09z"/>
	<path class="st3" d="M453.59,310.9l1.55-1.67c0.41,0.43,1,0.81,1.16,1.33c0.1,0.31-0.45,1.19-0.69,1.18
		C454.9,311.58,454.22,311.29,453.59,310.9z"/>
	<path class="st3" d="M481.12,707.78c-0.61,1.08-1.41,2.14-2.72,1.3c-0.66-0.41-0.89-1.5-1.31-2.29l-0.06,0.06l4.25,1.08
		L481.12,707.78z"/>
	<path class="st3" d="M356.65,312.21c0.27-0.77,0.34-1.73,0.86-2.24c0.52-0.51,1.49-0.57,2.26-0.83c-0.32,0.58-0.7,1.12-1.15,1.61
		c-0.66,0.5-1.36,0.95-2.09,1.34L356.65,312.21z"/>
	<path class="st3" d="M452,699.97l-0.54,1.08l-2.06-2.08c0.13-0.09,0.32-0.31,0.38-0.27C450.54,699.11,451.28,699.55,452,699.97z"/>
	<path class="st3" d="M459.09,702.39c0.48,0.4,1.06,0.87,1.6,1.39c0.06,0.06-0.19,0.44-0.3,0.67l-2.46-1.43L459.09,702.39z"/>
	<path class="st3" d="M461.47,347.41l-3.36,1.76l-0.16-0.39l3.64-1.22L461.47,347.41z"/>
	<path class="st3" d="M442.74,360.9l-3.09,3.1l0.13,0.14c0.06-2,0.82-3.28,3.05-3.15L442.74,360.9z"/>
	<path class="st3" d="M406.4,396.22c-0.51,0.84-1.07,1.65-1.67,2.42c-0.2,0.24-0.77,0.17-1.17,0.23c0.1-0.44,0.06-1.11,0.33-1.28
		c0.84-0.48,1.72-0.9,2.62-1.25L406.4,396.22z"/>
	<path class="st3" d="M419.91,402.73c-0.91,0.4-1.41,0.8-1.65,0.68c-0.47-0.33-0.89-0.73-1.24-1.19c0.27-0.17,0.59-0.52,0.81-0.46
		C418.55,402.03,419.25,402.35,419.91,402.73z"/>
	<path class="st3" d="M405.33,215.5l0.46,1.75c-1.5,0.37-2-0.6-2.43-1.76l-0.12,0.14h2.23L405.33,215.5z"/>
	<path class="st3" d="M496.62,706.84c-0.41,0.29-0.84,0.55-1.3,0.76c-0.07,0-0.51-0.5-0.46-0.7c0.15-0.37,0.37-0.71,0.64-1
		L496.62,706.84z"/>
	<path class="st3" d="M387.59,220.61c-0.34-0.37-0.71-0.66-0.66-0.75c0.27-0.55,0.59-1.08,0.93-1.59c0.24,0.23,0.72,0.57,0.67,0.7
		C388.26,219.54,387.95,220.09,387.59,220.61z"/>
	<path class="st3" d="M352.4,317.31c0.27,1.7-0.61,2.61-2.1,3.1l0.13,0.12v-2.25l-0.15,0.19l2.2-1.07L352.4,317.31z"/>
	<path class="st3" d="M446.89,724.45c-0.01,0.35-0.09,0.69-0.24,1c-0.29,0.31-0.63,0.57-1,0.78c0,0-0.33-0.22-0.32-0.32
		c0.06-0.4,0.07-1,0.32-1.14c0.46-0.14,0.94-0.18,1.42-0.12L446.89,724.45z"/>
	<path class="st3" d="M350.4,327.8c0.54-0.52,1.13-0.99,1.75-1.41c0.21-0.12,0.68,0.22,1,0.35c-0.18,0.26-0.32,0.69-0.53,0.73
		c-0.79,0.11-1.58,0.17-2.38,0.2L350.4,327.8z"/>
	<path class="st3" d="M509.2,711.05l1.89,0.78l-0.9,1l-0.86-1.87L509.2,711.05z"/>
	<path class="st3" d="M352.48,317.4c-0.32-1.39,0.55-2.77,1.94-3.09c0.05-0.01,0.09-0.02,0.14-0.03l-0.1-0.1
		c0.32,1.39-0.55,2.78-1.94,3.1c-0.04,0.01-0.08,0.02-0.13,0.03L352.48,317.4z"/>
	<path class="st3" d="M483.26,705.78l-2.14,2l0.16,0.15c0-1.47,0.52-2.3,2.14-2L483.26,705.78z"/>
	<path class="st3" d="M351.46,330.9c-0.31-2.21,1-1.43,2-1.06l-0.13-0.15l-2,1.08L351.46,330.9z"/>
	<path class="st3" d="M489.47,709.84c-0.18,0.47-0.42,0.91-0.73,1.3c-0.18,0.16-0.7,0-1.07-0.09c0.15-0.27,0.24-0.7,0.47-0.79
		c0.49-0.14,0.99-0.22,1.49-0.25L489.47,709.84z"/>
	<path class="st3" d="M407.55,215.49h-2.22l0.14,0.14v-1.2l-0.15,0.14l2.11,1L407.55,215.49z"/>
	<path class="st3" d="M377.4,217.68l2.16-1l-0.14-0.14l-2.12,1L377.4,217.68z"/>
	<path class="st3" d="M376.26,218.64c-0.33,0.27-0.65,0.57-1,0.82c-0.05,0-0.23-0.12-0.35-0.19l1.49-0.5L376.26,218.64z"/>
	<path class="st3" d="M430.27,368.18l-0.29,1.42l-0.64-1.43l-0.14,0.13h1.2L430.27,368.18z"/>
	<path class="st3" d="M449.06,704.83c0.32-0.3,0.63-0.61,1-0.88c0.05,0,0.26,0.12,0.39,0.19l-1.52,0.52L449.06,704.83z"/>
	<path class="st3" d="M453.24,705.8l1-0.76l0.22,0.52l-1.34,0.1L453.24,705.8z"/>
	<path class="st3" d="M460.64,706.14l0.12,0.32c-0.16,0.06-0.32,0.1-0.49,0.12c0,0-0.07-0.22-0.11-0.34L460.64,706.14z"/>
	<path class="st3" d="M452.06,706.79c-0.44,0.26-0.88,0.52-1.34,0.75c0,0-0.17-0.21-0.27-0.32c0.44-0.12,0.87-0.25,1.31-0.35
		c0.16-0.01,0.31,0.02,0.46,0.07L452.06,706.79z"/>
	<path class="st3" d="M355.48,328.75l-2.13,1l0.13,0.15l2.15-1L355.48,328.75z"/>
	<path class="st3" d="M461.62,710.07c-0.14-0.92-0.72-2,1-2.16l-0.11-0.11l-1.11,2.1L461.62,710.07z"/>
	<path class="st3" d="M507.27,708.99c0.34-0.34,0.68-0.68,1-1c0,0,0.21,0.2,0.33,0.3l-1.47,0.57L507.27,708.99z"/>
	<path class="st3" d="M415.74,416.98l-1,0.91l-0.35-0.55l1.47-0.21L415.74,416.98z"/>
	<path class="st3" d="M482.23,712.99l-2.11,1l0.12,0.11v-1.15l-0.13,0.13h2.29L482.23,712.99z"/>
	<path class="st3" d="M480.12,714.03l-0.26,1.41l-0.53-0.49l0.91-0.81L480.12,714.03z"/>
	<path class="st3" d="M447.87,722.27l-1,2.18l0.18,0.15c-0.38-1-0.17-1.82,1-2.18L447.87,722.27z"/>
	<path class="st3" d="M407.99,727.02c-0.13,0.07-0.33,0.23-0.38,0.2c-0.13-0.14-0.24-0.3-0.33-0.47c0.15-0.03,0.3-0.03,0.45,0
		C407.84,726.75,407.91,726.9,407.99,727.02z"/>
	<path class="st3" d="M409.59,393.24c0.32-1.06,0.65-0.74,1,0l0.12-0.12h-1.22L409.59,393.24z"/>
	<path class="st3" d="M376.4,218.77l1-1.09l-0.1-0.09l-1.05,1.05L376.4,218.77z"/>
	<path class="st3" d="M438.7,365.21l1.08-1.05l-0.13-0.14l-1.08,1.07L438.7,365.21z"/>
	<path class="st3" d="M453.22,364.15l1.08-1l-0.15-0.13l-1,1L453.22,364.15z"/>
	<path class="st3" d="M443.75,359.9l-1,1.05l0.09,0.09l1-1L443.75,359.9z"/>
	<path class="st3" d="M444.78,358.84c-0.34,0.34-0.69,0.68-1,1l0.11,0.11l1.05-1L444.78,358.84z"/>
	<path class="st3" d="M444.91,358.97l0.48-0.54c-0.06,0.1-0.08,0.23-0.16,0.28c-0.15,0.06-0.3,0.1-0.45,0.13L444.91,358.97z"/>
	<path class="st3" d="M356.53,312.09l-1,1.06l0.1,0.1l1-1L356.53,312.09z"/>
	<path class="st3" d="M354.56,314.28l1.05-1l-0.1-0.1l-1.05,1L354.56,314.28z"/>
	<path class="st3" d="M453.09,705.65l-1,1.14l0.16,0.15l1-1.14L453.09,705.65z"/>
	<path class="st3" d="M402.34,351.7l0.48-0.56c0,0.11-0.06,0.27-0.14,0.31c-0.15,0.06-0.31,0.1-0.47,0.12L402.34,351.7z"/>
	<path class="st3" d="M507.16,708.9l-0.4,0.72l-0.27-0.5l0.78-0.09L507.16,708.9z"/>
	<polygon class="st3" points="516.3,709.52 515.94,709.68 515.98,709.29 	"/>
	<path class="st3" d="M348.34,329.9l1-1l-0.13-0.13l-1,1L348.34,329.9z"/>
	<path class="st3" d="M509.33,710.9l-0.83-0.44l0.7,0.56L509.33,710.9z"/>
	<path class="st3" d="M355.63,328.9l0.37-0.63c0,0.1,0,0.24-0.09,0.29c-0.14,0.08-0.28,0.15-0.43,0.21L355.63,328.9z"/>
	<path class="st3" d="M349.4,328.9l1-1.1l-0.12-0.13l-1.07,1.06L349.4,328.9z"/>
	<path class="st3" d="M496.68,711.04l0.42,0.16l-0.29-0.29L496.68,711.04z"/>
	<polygon class="st3" points="519.21,711.19 519.35,711.56 519,711.52 	"/>
	<polygon class="st3" points="473.59,712.64 473.19,712.76 473.25,712.41 	"/>
	<path class="st3" d="M480.26,712.99l-0.5-0.36c0.1,0,0.24,0,0.27,0.1c0.05,0.12,0.09,0.26,0.1,0.39L480.26,712.99z"/>
	<path class="st3" d="M434.29,446.76c-0.29,0.52-0.41,1.11-0.76,1.33c-5.66,3.64-11.33,7.25-17,10.82c-3.25,1.93-5.99,4.61-8,7.82
		c-1.85,3-3.88,5.89-5.57,9c-1.09,1.65-2.47,3.09-4.08,4.24c-0.75,0.38-1.6,0.5-2.42,0.35c-0.36,0-0.76-0.58-1-1
		c-0.09-0.14,0.2-0.61,0.43-0.8c3.2-2.94,6.04-6.25,8.47-9.85c3.12-4.12,6.74-7.83,10.78-11.06c4.36-3.58,9.27-6.5,14-9.65
		c1.16-0.73,2.39-1.34,3.68-1.81C433.13,446.07,433.69,446.52,434.29,446.76z"/>
	<path class="st3" d="M376.28,487.34c0,0.16,0,0.42-0.09,0.47c-0.24,0.14-0.62,0.34-0.8,0.25c-0.46-0.26-0.86-0.6-1.19-1
		c-1.77-2.07-3.45-4.23-5.3-6.22c-1-1.11-1.32-1.95,0-2.91s1.23,0.33,1.91,0.86c1.94,1.5,3.29,3,3.6,5.55
		C374.58,485.43,375.64,486.36,376.28,487.34z"/>
	<path class="st3" d="M440.68,526.17c1.4,1,1.72,2.94,0.73,4.34c-0.04,0.05-0.08,0.1-0.12,0.15c-1.91,2.21-1.36,4.19-0.66,6.5
		c0.18,1.16,0.18,2.35,0,3.51l0.15-0.12c-1-2.44-2.24-4.84-3.1-7.34c-0.41-1.2-0.67-2.62,1.38-3.2c1.86-0.53,1.42-2.53,1.73-4
		L440.68,526.17z"/>
	<path class="st3" d="M376.4,507.34c-1.16-0.11-2.3-0.34-3.41-0.68c-3.31-1.41-6.56-2.95-9.79-4.52c-0.47-0.23-0.73-0.9-1.08-1.37
		c0.6-0.13,1.21-0.18,1.82-0.15c0.85,0.14,1.67,0.42,2.42,0.84c3.33,2,6.63,4,9.94,6L376.4,507.34z"/>
	<path class="st3" d="M428.67,457.69c-1.41,0.35-3.32,0.87-5.25,1.28c-0.39,0.08-0.87-0.22-1.3-0.35c0.22-0.38,0.36-1,0.69-1.11
		c1.4-0.6,2.89-1,4.27-1.61c1.55-0.69,2.61,0.11,3.63,1c0.28,0.23,0.27,0.82,0.31,1.25c-0.25,0.14-0.53,0.21-0.82,0.2
		C429.67,458.19,429.16,457.96,428.67,457.69z"/>
	<path class="st3" d="M362.05,547.27c-0.86-0.25-1.69-0.59-2.48-1c-0.51-0.45-0.96-0.98-1.32-1.56c0.58-0.28,1.19-0.85,1.74-0.79
		c0.99,0.17,1.94,0.51,2.81,1c0.34,0.17,0.74,0.95,0.62,1.16C363.03,546.55,362.57,546.95,362.05,547.27z"/>
	<path class="st3" d="M409.4,486.04c-0.25,0.44-0.34,0.83-0.59,1c-1.51,1.14-3,2.26-4.62,3.29c-0.32,0.21-0.9,0-1.35,0
		c0.09-0.29,0.09-0.7,0.29-0.85c1.6-1.27,3.22-2.53,4.9-3.69C408.26,485.61,408.87,485.9,409.4,486.04z"/>
	<path class="st3" d="M357.45,466.14c1.18,1.79,2,3,2.75,4.23c0,0.06-0.11,0.34-0.23,0.39c-0.28,0.11-0.76,0.31-0.87,0.2
		c-0.85-0.84-1.64-1.75-2.35-2.72C356.6,468.02,357,467.42,357.45,466.14z"/>
	<path class="st3" d="M378.4,533.32c-1.1,1.74-1.77,2.82-2.48,3.86c-0.29-0.05-0.56-0.17-0.8-0.34c0.19-1.24,0.45-2.47,0.77-3.69
		c0.18-0.28,0.5-0.45,0.83-0.45C377.3,532.85,377.87,533.05,378.4,533.32z"/>
	<path class="st3" d="M438.53,555l-5.07,2.22c-0.16-0.38-0.46-1.08-0.44-1.09c1.46-0.69,2.94-1.34,4.44-1.93
		C437.59,554.15,437.89,554.51,438.53,555z"/>
	<path class="st3" d="M361.4,538.37c-1.1,0.62-1.66,1.19-2.13,1.13s-1-0.71-1.45-1.1c0.46-0.36,0.89-1,1.38-1
		S360.27,537.83,361.4,538.37z"/>
	<path class="st3" d="M439.85,479.9c0.68,0.77,1.34,1.22,1.28,1.52c-0.23,0.6-0.57,1.16-1,1.64c-0.44-0.45-1.07-0.84-1.25-1.38
		C438.79,481.3,439.4,480.74,439.85,479.9z"/>
	<path class="st3" d="M368.4,476.43c-0.85,0.33-1.36,0.73-1.64,0.6c-0.5-0.31-0.96-0.69-1.36-1.13c0.48-0.23,1-0.71,1.44-0.64
		S367.69,475.9,368.4,476.43z"/>
	<path class="st3" d="M392.67,458.71c0.71,1.16,1.14,1.56,1.08,1.84s-0.61,0.55-0.94,0.82c-0.26-0.34-0.69-0.66-0.73-1
		S392.4,459.51,392.67,458.71z"/>
	<path class="st3" d="M397.33,458.24c-0.42,0.51-0.66,1.08-1,1.13s-0.7-0.44-1.05-0.7c0.25-0.35,0.44-0.88,0.77-1
		S396.79,457.99,397.33,458.24z"/>
	<path class="st3" d="M440.65,540.67c0.41,0.45,0.75,0.96,1,1.51c0.1,0.31-0.31,0.78-0.5,1.18c-0.15-0.28-0.41-0.56-0.42-0.84
		c-0.02-0.67,0-1.34,0.06-2L440.65,540.67z"/>
	<path class="st3" d="M400.85,455.98c-0.2-0.16-0.52-0.31-0.54-0.5s0.19-0.49,0.31-0.74c0.19,0.16,0.53,0.3,0.54,0.47
		S400.96,455.72,400.85,455.98z"/>
	<path class="st3" d="M440.81,526.03l-0.74-0.29l0.61,0.43L440.81,526.03z"/>
	<path class="st3" d="M482.19,399.51c-0.65,0.3-1.12,0.73-1.44,0.64c-1.59-0.46-3.15-1.09-3,1.64c-0.45,0.26-0.97,0.38-1.49,0.33
		c-1.01-0.19-1.97-0.54-2.86-1.05c-1.29-0.81-3.62,0.06-3.88-2.38c1.44,0.26,2.86,0.63,4.31,0.76c0.93,0.03,1.86-0.07,2.76-0.28
		c1.46-0.22,2.9-0.56,4.37-0.71C481.27,398.43,481.65,399.03,482.19,399.51z"/>
	<path class="st3" d="M473.99,369.23c-2.31-0.3-4.63-0.57-6.94-0.93c-0.41-0.06-0.77-0.49-1.16-0.75c0.43-0.45,0.8-1.2,1.3-1.3
		c2.93-0.58,5.26,0.33,6.72,3.08L473.99,369.23z"/>
	<path class="st3" d="M473.91,369.33c0.75-0.54,1.45-1.14,2.08-1.81c0.37-0.49,0.18-1.43,0.57-1.86c0.52-0.32,1.14-0.41,1.73-0.26
		c0.34,0.32,0.5,0.78,0.43,1.24c-0.61,1.4-1.42,2.7-2.42,3.86c-1.56,1.5-2.31,0.59-2.31-1.27L473.91,369.33z"/>
	<path class="st3" d="M481.07,389.69c-0.86,0.6-1.51,1.19-1.62,1.1c-0.82-0.69-1.6-1.43-2.34-2.21c0.27-0.16,0.62-0.5,0.8-0.43
		C478.88,388.56,479.81,389.06,481.07,389.69z"/>
	<path class="st3" d="M480.98,367.38c0.48,1.51,0.83,2.61,1.16,3.72c-0.01,0.16-0.08,0.32-0.2,0.43c-0.24,0-0.61-0.1-0.68-0.26
		c-0.38-0.94-0.72-1.9-1-2.87C480.23,368.24,480.56,367.97,480.98,367.38z"/>
	<path class="st3" d="M464.55,394.23c0.6,1.2,1.19,2.39,1.77,3.6c0,0-0.27,0.21-0.32,0.18c-1.5-0.94-1.6-2.36-1.31-3.9
		L464.55,394.23z"/>
	<path class="st3" d="M478.73,411.33c-0.28,0.14-0.75,0.44-0.8,0.38c-0.23-0.33-0.42-0.68-0.58-1.05c0.28,0,0.63-0.21,0.82-0.1
		C478.36,410.67,478.55,411.06,478.73,411.33z"/>
	<path class="st3" d="M474.17,434.9c0.11,0.11,0.23,0.21,0.35,0.31c-0.27,0.13-0.54,0.23-0.83,0.3c-0.09,0-0.23-0.19-0.34-0.29
		L474.17,434.9z"/>
	<path class="st3" d="M484.4,432.67l0.39-0.5c-0.04,0.08-0.09,0.15-0.16,0.21c-0.12,0.06-0.24,0.11-0.37,0.15L484.4,432.67z"/>
	<path class="st3" d="M484.28,432.53l-0.47,0.57c0.04-0.1,0.09-0.18,0.17-0.25c0.14-0.07,0.29-0.13,0.44-0.18L484.28,432.53z"/>
	<path class="st3" d="M314.07,367.26c-0.19-0.64-0.72-1.44-0.5-1.88c0.63-1.11,1.35-2.16,2.16-3.14c0.24,0.22,0.73,0.5,0.7,0.64
		c-0.29,1.24-0.68,2.46-1.16,3.65c-0.15,0.33-0.87,0.42-1.33,0.62L314.07,367.26z"/>
	<path class="st3" d="M320.59,329.76c0.3,0.63,0.51,1.31,0.62,2c0,0.3-0.65,0.56-1,0.84c-0.36-0.47-0.64-1-0.82-1.57
		C319.4,330.82,319.95,330.44,320.59,329.76z"/>
	<path class="st3" d="M310.99,384.77l-2.26,2.26C308.68,385.48,309.4,384.68,310.99,384.77z"/>
	<path class="st3" d="M321.67,335.27c-1,0.43-1.43,0.74-1.55,0.65c-0.31-0.3-0.57-0.63-0.79-1c0.26-0.13,0.55-0.41,0.77-0.36
		C320.65,334.75,321.17,334.99,321.67,335.27z"/>
	<path class="st3" d="M496.75,462.69c-0.63,1.25-1.24,2.45-3,1.21c-0.66-0.42-1.38-0.75-2.12-1c-0.77-0.31-1.56-0.57-2.35-0.85
		c0.9-0.41,1.78-0.87,2.7-1.22c2.22-0.84,3.22,1.37,4.85,2L496.75,462.69z"/>
	<path class="st3" d="M487.8,458.67l-1-0.58c0.31-0.36,0.64-0.69,1-1c0.05,0,0.63,0.39,0.6,0.51
		C488.25,457.99,488.05,458.35,487.8,458.67z"/>
	<path class="st3" d="M491.53,491.9v-1.18c0.16,0,0.36,0,0.47,0c0.55,0.37,1.07,0.78,1.6,1.17L491.53,491.9z"/>
	<path class="st3" d="M502.32,480.28c0.25,0.31,0.47,0.64,0.64,1c0,0.13-0.37,0.4-0.57,0.6l-1-1L502.32,480.28z"/>
	<path class="st3" d="M484.85,453.83l-0.25-0.41l0.56-0.31c0.03,0.16,0.03,0.33,0,0.49C485.16,453.7,484.97,453.75,484.85,453.83z"
		/>
	<path class="st3" d="M300.3,413.65c-0.24,1.2-0.54,2.4-0.9,3.57c-0.24,0.39-0.67,0.62-1.13,0.61c-0.42-0.22-0.7-0.63-0.74-1.1
		c0.04-1.15,0.2-2.3,0.48-3.42c0.07-0.24,0.89-0.44,1.33-0.38S300.04,413.44,300.3,413.65z"/>
	<path class="st3" d="M300.56,464.9c1.8-5.08,6.67-6.86,10.83-3.93c0.22,0.16,0.25,0.57,0.38,0.87c-0.28,0.1-0.56,0.31-0.82,0.29
		c-0.36-0.05-0.7-0.18-1-0.38c-2.65-1.58-4.76-1.14-6.62,1.42c-0.59,0.82-1.93,1.09-2.93,1.61L300.56,464.9z"/>
	<path class="st3" d="M301.45,454.52c0.39-1.67,1.7-2,3.12-2.15c1.71-0.04,3.42-0.21,5.11-0.5c2.87-0.74,2.13,1.29,2.31,2.67
		C308.48,452.23,304.97,453.71,301.45,454.52z"/>
	<path class="st3" d="M303.73,466.66c-0.13,0.52-0.31,1.03-0.52,1.52c-0.44,0.79-1,1.53-1.45,2.29c-0.31-0.37-1-0.87-0.87-1.1
		c0.47-1.15,0.99-2.28,1.58-3.38L303.73,466.66z"/>
	<path class="st3" d="M308.15,467.22c-0.8-0.03-1.59-0.14-2.37-0.33c-0.28-0.28-0.4-0.68-0.31-1.06c0.86-1.19,3.26-1.07,3.78,0.22
		C309.4,466.28,308.4,466.9,308.15,467.22z"/>
	<path class="st3" d="M312.72,479.53l1,0.39c-0.14,0.4-0.33,0.79-0.55,1.16c0,0.05-0.79-0.22-0.78-0.32
		C312.45,480.34,312.56,479.93,312.72,479.53z"/>
	<path class="st3" d="M300.74,480.67c-0.55,0.32-1,0.74-1.26,0.68c-0.26-0.06-0.79-0.69-0.72-0.91c0.18-0.42,0.55-0.72,1-0.8
		C300.01,479.63,300.31,480.2,300.74,480.67z"/>
	<path class="st3" d="M311.85,454.38l3.29,2.2C313.58,456.54,312.3,456.08,311.85,454.38z"/>
	<path class="st3" d="M310.97,492.8c-0.31,0.04-0.63,0.04-0.94,0c-0.27-0.1-0.53-0.23-0.77-0.4c0.26-0.13,0.64-0.43,0.76-0.35
		c0.31,0.27,0.59,0.58,0.82,0.92L310.97,492.8z"/>
	<path class="st3" d="M313.92,506.57l-0.49,0.69c-0.13-0.25-0.39-0.51-0.38-0.75c0.01-0.24,0.29-0.47,0.45-0.71L313.92,506.57z"/>
	<path class="st3" d="M300.4,464.75l-0.45,0.61c0-0.11,0-0.28,0.1-0.33c0.15-0.08,0.31-0.13,0.47-0.16L300.4,464.75z"/>
	<path class="st3" d="M314.96,456.44l1.22,1.22L314.96,456.44z"/>
	<path class="st3" d="M397.18,261.34c-0.35-0.96-0.83-1.87-1.41-2.71c-0.39-0.46-2.32,0.6-1.45-1.29c0.59-1.27,1.72-0.92,2.62-0.29
		c1.87,1.29,1.87,2.4,0.12,4.19L397.18,261.34z"/>
	<path class="st3" d="M393.7,252.21c-0.1,0.04-0.2,0.07-0.31,0.09c-0.06-0.14-0.11-0.29-0.15-0.44l0.5-0.12L393.7,252.21z"/>
	<path class="st3" d="M393.46,255.2l0.36,0.4h-0.71L393.46,255.2z"/>
	<path class="st3" d="M404.46,263.42h-1.24l0.42-0.75L404.46,263.42z"/>
	<path class="st3" d="M391.95,299.13c-3.86,0-6.44-2.28-6.49-5.71c0-3.4,2.75-6.15,6.15-6.15c0.02,0,0.05,0,0.07,0
		c3.62-0.14,6.54,2.4,6.57,5.71C398.02,296.34,395.31,298.98,391.95,299.13z"/>
	<path class="st3" d="M437.51,593.52l1.21,1.22L437.51,593.52z"/>
	<path class="st3" d="M430.25,628.01c2.39-1.57,5.5-2,7.27-4.6c0.08-0.12,0.52,0,0.77,0c0.07,0,0.11,0.3,0.09,0.45
		c-0.23,3-4.36,6.27-7.39,5.73c-0.31-0.06-0.42-1.17-0.62-1.79L430.25,628.01z"/>
	<path class="st3" d="M434.4,630.9c-0.67,0.36-1.35,0.71-2,1.06l0.15,0.15l2-1.06L434.4,630.9z"/>
	<path class="st3" d="M432.48,633l-1.77-0.42l1.79-0.45l-0.15-0.15v1.16L432.48,633z"/>
	<path class="st3" d="M434.52,631.07l0.92-0.85l0.3,0.49l-1.34,0.19L434.52,631.07z"/>
	<path class="st3" d="M428.18,631.09v-1.19C429.14,630.25,429.17,630.67,428.18,631.09z"/>
	<path class="st3" d="M428.33,634.06l-0.61-0.43c0.12,0,0.29,0,0.34,0.1c0.07,0.14,0.12,0.3,0.14,0.46L428.33,634.06z"/>
	<path class="st3" d="M440.63,308.09l1.22-1.24L440.63,308.09z"/>
</g>
</svg>
