<?xml version="1.0" encoding="utf-8"?>
<!-- Generator: Adobe Illustrator 25.2.1, SVG Export Plug-In . SVG Version: 6.00 Build 0)  -->
<svg version="1.1" id="Capa_1" xmlns="http://www.w3.org/2000/svg" xmlns:xlink="http://www.w3.org/1999/xlink" x="0px" y="0px"
	 viewBox="0 0 30 30" style="enable-background:new 0 0 30 30;" xml:space="preserve">
<style type="text/css">
	.st0{fill:#8DCCF1;enable-background:new    ;}
</style>
<path d="M24.2,8.9H6.9c-0.9,0-1.7,0.8-1.7,1.7v2.1c0,0.9,0.8,1.7,1.7,1.7h14.2l0.9,1.8c0.1,0.2,0.5,0.2,0.6,0l0.9-1.8h0.6
	c0.9,0,1.7-0.8,1.7-1.7v-2.1C25.9,9.7,25.2,8.9,24.2,8.9z"/>
<path class="st0" d="M23.7,8.1H6.4c-0.9,0-1.7,0.8-1.7,1.7v2.1c0,0.9,0.8,1.7,1.7,1.7h14.2l0.9,1.8c0.1,0.2,0.5,0.2,0.6,0l0.9-1.8
	h0.6c0.9,0,1.7-0.8,1.7-1.7V9.8C25.4,8.9,24.6,8.1,23.7,8.1z"/>
</svg>
