<?xml version="1.0" encoding="utf-8"?>
<!-- Generator: Adobe Illustrator 25.2.1, SVG Export Plug-In . SVG Version: 6.00 Build 0)  -->
<svg version="1.1" id="Capa_1" xmlns="http://www.w3.org/2000/svg" xmlns:xlink="http://www.w3.org/1999/xlink" x="0px" y="0px"
	 viewBox="0 0 30 30" style="enable-background:new 0 0 30 30;" xml:space="preserve">
<style type="text/css">
	.st0{fill:#FFC567;enable-background:new    ;}
	.st1{fill:#8DCCF1;enable-background:new    ;}
</style>
<g>
	<path d="M15.4,5.6H4c-1,0-1.7,0.8-1.7,1.7v2c0,1,0.8,1.7,1.7,1.7h0.1l0.7,1.4c0.1,0.3,0.5,0.3,0.7,0l0.7-1.4h9.2
		c1,0,1.7-0.8,1.7-1.7v-2C17.2,6.4,16.4,5.6,15.4,5.6z"/>
	<path class="st0" d="M15.8,5.2H4.4c-1,0-1.7,0.8-1.7,1.7v2c0,1,0.8,1.7,1.7,1.7h0.1l0.7,1.4c0.1,0.3,0.5,0.3,0.7,0l0.7-1.4h9.2
		c1,0,1.7-0.8,1.7-1.7v-2C17.6,5.9,16.8,5.2,15.8,5.2z"/>
	<path d="M26.8,12.3H9.4c-0.9,0-1.7,0.8-1.7,1.7v2.1c0,0.9,0.8,1.7,1.7,1.7h14.2l0.9,1.8c0.1,0.2,0.5,0.2,0.6,0l0.9-1.8h0.6
		c0.9,0,1.7-0.8,1.7-1.7V14C28.5,13,27.7,12.3,26.8,12.3z"/>
	<path class="st1" d="M26.2,11.5H8.9c-0.9,0-1.7,0.8-1.7,1.7v2.1C7.2,16.3,8,17,8.9,17h14.2l0.9,1.8c0.1,0.2,0.5,0.2,0.6,0l0.9-1.8
		h0.6c0.9,0,1.7-0.8,1.7-1.7v-2.1C27.9,12.3,27.2,11.5,26.2,11.5z"/>
</g>
</svg>
