<?xml version="1.0" encoding="utf-8"?>
<!-- Generator: Adobe Illustrator 25.2.1, SVG Export Plug-In . SVG Version: 6.00 Build 0)  -->
<svg version="1.1" id="Capa_1" xmlns="http://www.w3.org/2000/svg" xmlns:xlink="http://www.w3.org/1999/xlink" x="0px" y="0px"
	 viewBox="0 0 1920 1080" style="enable-background:new 0 0 1920 1080;" xml:space="preserve">
<style type="text/css">
	.st0{fill:#FACA80;}
	.st1{fill:none;stroke:#E96C4A;stroke-width:3;stroke-miterlimit:10;}
</style>
<rect class="st0" width="1920" height="1080"/>
<line class="st1" x1="162.95" y1="0.01" x2="162.95" y2="1080"/>
<line class="st1" x1="326.15" y1="0" x2="326.15" y2="1079.99"/>
<line class="st1" x1="489.35" y1="-0.01" x2="489.35" y2="1079.97"/>
<line class="st1" x1="652.55" y1="-0.03" x2="652.55" y2="1079.96"/>
<line class="st1" x1="815.74" y1="-0.04" x2="815.74" y2="1079.94"/>
<line class="st1" x1="978.94" y1="-0.06" x2="978.94" y2="1079.93"/>
<line class="st1" x1="1142.14" y1="-0.07" x2="1142.14" y2="1079.91"/>
<line class="st1" x1="1305.34" y1="-0.09" x2="1305.34" y2="1079.9"/>
<line class="st1" x1="1468.53" y1="-0.1" x2="1468.53" y2="1079.89"/>
<line class="st1" x1="1631.73" y1="-0.11" x2="1631.73" y2="1079.87"/>
<line class="st1" x1="1794.93" y1="-0.13" x2="1794.93" y2="1079.86"/>
<line class="st1" x1="0.03" y1="163.15" x2="1920" y2="163.15"/>
<line class="st1" x1="0" y1="326.15" x2="1919.97" y2="326.15"/>
<line class="st1" x1="-0.03" y1="489.15" x2="1919.94" y2="489.15"/>
<line class="st1" x1="-0.06" y1="652.15" x2="1919.91" y2="652.15"/>
<line class="st1" x1="-0.09" y1="815.15" x2="1919.87" y2="815.15"/>
<line class="st1" x1="-0.13" y1="978.15" x2="1919.84" y2="978.15"/>
</svg>
