<?xml version="1.0" encoding="utf-8"?>
<!-- Generator: Adobe Illustrator 25.2.1, SVG Export Plug-In . SVG Version: 6.00 Build 0)  -->
<svg version="1.1" id="Capa_1" xmlns="http://www.w3.org/2000/svg" xmlns:xlink="http://www.w3.org/1999/xlink" x="0px" y="0px"
	 viewBox="0 0 317.44 236.35" style="enable-background:new 0 0 317.44 236.35;" xml:space="preserve">
<style type="text/css">
	.st0{fill:#EB5B4B;stroke:#000000;stroke-width:2;stroke-miterlimit:10;}
	.st1{fill:#FCC468;stroke:#000000;stroke-width:2;stroke-miterlimit:10;}
</style>
<g>
	<path class="st0" d="M243.92,46.3H67.76c-17.35,0-31.42,14.07-31.42,31.42v67.17c0,17.35,14.07,31.42,31.42,31.42h9.76l13.99,23.61
		c2.11,3.55,7.21,3.67,9.47,0.22l15.64-23.83h127.3c17.35,0,31.42-14.07,31.42-31.42V77.72C275.34,60.37,261.27,46.3,243.92,46.3z"
		/>
	<path class="st1" d="M248.89,38.28H72.72c-17.35,0-31.42,14.07-31.42,31.42v67.17c0,17.35,14.07,31.42,31.42,31.42h9.76
		l13.99,23.61c2.11,3.55,7.21,3.67,9.47,0.22l15.64-23.83h127.3c17.35,0,31.42-14.07,31.42-31.42V69.7
		C280.3,52.35,266.24,38.28,248.89,38.28z"/>
</g>
<g>
</g>
<g>
</g>
<g>
</g>
<g>
</g>
<g>
</g>
<g>
</g>
</svg>
