<?xml version="1.0" encoding="utf-8"?>
<!-- Generator: Adobe Illustrator 25.2.1, SVG Export Plug-In . SVG Version: 6.00 Build 0)  -->
<svg version="1.1" id="Capa_1" xmlns="http://www.w3.org/2000/svg" xmlns:xlink="http://www.w3.org/1999/xlink" x="0px" y="0px"
	 viewBox="0 0 400 300" style="enable-background:new 0 0 400 300;" xml:space="preserve">
<style type="text/css">
	.st0{fill:#EB5B4B;}
	.st1{fill:#FCC468;}
</style>
<g>
	<path class="st0" d="M369.98,71.46H30.02c-10.74,0-19.45,8.71-19.45,19.45v69.1c0,10.74,8.71,19.45,19.45,19.45h7.06l12.43,29.38
		c1.97,4.66,8.58,4.66,10.55,0l12.43-29.38h297.51c10.74,0,19.45-8.71,19.45-19.45v-69.1C389.43,80.17,380.73,71.46,369.98,71.46z"
		/>
	<path class="st1" d="M375.89,61.52H35.92c-10.74,0-19.45,8.71-19.45,19.45v69.1c0,10.74,8.71,19.45,19.45,19.45h7.06l12.43,29.38
		c1.97,4.66,8.58,4.66,10.55,0l12.43-29.38h297.51c10.74,0,19.45-8.71,19.45-19.45v-69.1C395.33,70.23,386.63,61.52,375.89,61.52z"
		/>
</g>
<g>
	<path d="M66.95,127.69c-1.7-0.72-3-1.74-3.92-3.06c-0.92-1.32-1.37-2.86-1.37-4.64v-1.31c0-0.3,0.15-0.45,0.45-0.45h3.29
		c0.3,0,0.45,0.15,0.45,0.45v1.08c0,1.53,0.66,2.79,1.98,3.78c1.32,0.99,3.13,1.48,5.45,1.48c2.07,0,3.63-0.43,4.68-1.31
		c1.05-0.87,1.58-2.01,1.58-3.42c0-0.93-0.27-1.72-0.81-2.38c-0.54-0.66-1.33-1.27-2.36-1.82c-1.04-0.55-2.54-1.22-4.52-2
		c-2.19-0.84-3.92-1.6-5.2-2.29c-1.28-0.69-2.33-1.6-3.17-2.72c-0.84-1.12-1.26-2.54-1.26-4.25c0-2.58,0.92-4.6,2.77-6.07
		c1.85-1.47,4.34-2.21,7.49-2.21c2.22,0,4.17,0.38,5.85,1.12c1.68,0.75,2.98,1.8,3.89,3.15c0.91,1.35,1.37,2.91,1.37,4.68v0.9
		c0,0.3-0.15,0.45-0.45,0.45h-3.38c-0.3,0-0.45-0.15-0.45-0.45v-0.68c0-1.56-0.62-2.86-1.87-3.89c-1.25-1.04-2.96-1.55-5.15-1.55
		c-1.86,0-3.3,0.38-4.32,1.15c-1.02,0.77-1.53,1.87-1.53,3.31c0,0.99,0.25,1.8,0.77,2.43c0.51,0.63,1.27,1.19,2.27,1.69
		c1,0.5,2.54,1.13,4.61,1.91c2.13,0.84,3.85,1.61,5.17,2.32c1.32,0.71,2.41,1.64,3.29,2.79c0.87,1.16,1.3,2.59,1.3,4.3
		c0,2.64-0.97,4.73-2.9,6.28c-1.94,1.55-4.6,2.32-7.99,2.32C70.65,128.77,68.65,128.41,66.95,127.69z"/>
	<path d="M94.67,127.49c-1.67-0.85-2.96-2.07-3.89-3.65c-0.93-1.58-1.4-3.38-1.4-5.42V97.36c0-0.3,0.15-0.45,0.45-0.45h3.42
		c0.3,0,0.45,0.15,0.45,0.45v21.15c0,1.95,0.62,3.53,1.87,4.73c1.24,1.2,2.87,1.8,4.88,1.8c2.01,0,3.63-0.6,4.86-1.8
		c1.23-1.2,1.84-2.77,1.84-4.73V97.36c0-0.3,0.15-0.45,0.45-0.45h3.42c0.3,0,0.45,0.15,0.45,0.45v21.06c0,2.04-0.46,3.85-1.37,5.42
		c-0.92,1.57-2.21,2.79-3.87,3.65c-1.67,0.85-3.59,1.28-5.78,1.28S96.34,128.34,94.67,127.49z"/>
	<path d="M135.71,98.01c1.4,0.77,2.48,1.84,3.24,3.22c0.76,1.38,1.15,2.97,1.15,4.77c0,1.8-0.39,3.38-1.17,4.73
		c-0.78,1.35-1.88,2.4-3.31,3.15c-1.43,0.75-3.07,1.12-4.93,1.12h-7.92c-0.12,0-0.18,0.06-0.18,0.18v12.78
		c0,0.3-0.15,0.45-0.45,0.45h-3.42c-0.3,0-0.45-0.15-0.45-0.45V97.32c0-0.3,0.15-0.45,0.45-0.45h12.15
		C132.7,96.87,134.32,97.25,135.71,98.01z M134.27,110.01c1-0.99,1.51-2.3,1.51-3.92c0-1.65-0.5-2.98-1.51-3.98
		c-1.01-1-2.33-1.51-3.98-1.51h-7.52c-0.12,0-0.18,0.06-0.18,0.18v10.53c0,0.12,0.06,0.18,0.18,0.18h7.52
		C131.94,111.49,133.27,111,134.27,110.01z"/>
	<path d="M165.7,100.65h-15.98c-0.12,0-0.18,0.06-0.18,0.18v9.67c0,0.12,0.06,0.18,0.18,0.18h10.98c0.3,0,0.45,0.15,0.45,0.45v2.83
		c0,0.3-0.15,0.45-0.45,0.45h-10.98c-0.12,0-0.18,0.06-0.18,0.18v9.9c0,0.12,0.06,0.18,0.18,0.18h15.98c0.3,0,0.45,0.15,0.45,0.45
		v2.83c0,0.3-0.15,0.45-0.45,0.45h-20.02c-0.3,0-0.45-0.15-0.45-0.45v-30.6c0-0.3,0.15-0.45,0.45-0.45h20.02
		c0.3,0,0.45,0.15,0.45,0.45v2.83C166.15,100.5,166,100.65,165.7,100.65z"/>
	<path d="M189.6,128.1l-6.3-13.46c-0.03-0.09-0.09-0.13-0.18-0.13h-6.48c-0.12,0-0.18,0.06-0.18,0.18v13.27
		c0,0.3-0.15,0.45-0.45,0.45h-3.42c-0.3,0-0.45-0.15-0.45-0.45v-30.6c0-0.3,0.15-0.45,0.45-0.45h12.11c1.8,0,3.38,0.38,4.75,1.12
		c1.37,0.75,2.42,1.8,3.17,3.15c0.75,1.35,1.12,2.91,1.12,4.68c0,2.1-0.55,3.88-1.64,5.33c-1.1,1.46-2.62,2.44-4.57,2.95
		c-0.12,0.06-0.15,0.14-0.09,0.23l6.52,13.5c0.03,0.06,0.04,0.14,0.04,0.23c0,0.21-0.12,0.31-0.36,0.31h-3.56
		C189.85,128.41,189.69,128.31,189.6,128.1z M176.46,100.83v10.08c0,0.12,0.06,0.18,0.18,0.18h7.51c1.59,0,2.86-0.47,3.83-1.42
		c0.96-0.94,1.44-2.2,1.44-3.76c0-1.59-0.48-2.86-1.44-3.83c-0.96-0.96-2.24-1.44-3.83-1.44h-7.51
		C176.52,100.65,176.46,100.71,176.46,100.83z"/>
	<path d="M226.68,96.91h3.42c0.3,0,0.45,0.15,0.45,0.45v30.6c0,0.3-0.15,0.45-0.45,0.45h-3.42c-0.3,0-0.45-0.15-0.45-0.45V114.6
		c0-0.12-0.06-0.18-0.18-0.18h-12.82c-0.12,0-0.18,0.06-0.18,0.18v13.36c0,0.3-0.15,0.45-0.45,0.45h-3.42
		c-0.3,0-0.45-0.15-0.45-0.45v-30.6c0-0.3,0.15-0.45,0.45-0.45h3.42c0.3,0,0.45,0.15,0.45,0.45v13.14c0,0.12,0.06,0.18,0.18,0.18
		h12.82c0.12,0,0.18-0.06,0.18-0.18V97.36C226.23,97.06,226.38,96.91,226.68,96.91z"/>
	<path d="M237.75,127.96v-30.6c0-0.3,0.15-0.45,0.45-0.45h3.42c0.3,0,0.45,0.15,0.45,0.45v30.6c0,0.3-0.15,0.45-0.45,0.45h-3.42
		C237.9,128.41,237.75,128.26,237.75,127.96z M251.9,127.56c-1.61-0.81-2.84-1.95-3.71-3.42c-0.87-1.47-1.3-3.17-1.3-5.08v-3.2
		c0-0.3,0.15-0.45,0.45-0.45h3.42c0.3,0,0.45,0.15,0.45,0.45v3.2c0,1.8,0.57,3.25,1.71,4.34c1.14,1.1,2.67,1.64,4.59,1.64
		c1.86,0,3.38-0.55,4.54-1.64c1.17-1.09,1.75-2.54,1.75-4.34V97.36c0-0.3,0.15-0.45,0.45-0.45h3.42c0.3,0,0.45,0.15,0.45,0.45v21.69
		c0,1.92-0.44,3.62-1.33,5.08c-0.88,1.47-2.14,2.61-3.76,3.42c-1.62,0.81-3.47,1.21-5.54,1.21
		C255.37,128.77,253.5,128.37,251.9,127.56z"/>
	<path d="M275.55,127.96v-30.6c0-0.3,0.15-0.45,0.45-0.45h3.42c0.3,0,0.45,0.15,0.45,0.45v30.6c0,0.3-0.15,0.45-0.45,0.45H276
		C275.7,128.41,275.55,128.26,275.55,127.96z"/>
	<path d="M307.72,97.36v2.88c0,0.3-0.15,0.45-0.45,0.45h-8.64c-0.12,0-0.18,0.06-0.18,0.18v27.09c0,0.3-0.15,0.45-0.45,0.45h-3.42
		c-0.3,0-0.45-0.15-0.45-0.45v-27.09c0-0.12-0.06-0.18-0.18-0.18h-8.23c-0.3,0-0.45-0.15-0.45-0.45v-2.88c0-0.3,0.15-0.45,0.45-0.45
		h21.55C307.57,96.91,307.72,97.06,307.72,97.36z"/>
	<path d="M318.05,127.49c-1.67-0.85-2.96-2.07-3.89-3.65c-0.93-1.58-1.39-3.38-1.39-5.42V97.36c0-0.3,0.15-0.45,0.45-0.45h3.42
		c0.3,0,0.45,0.15,0.45,0.45v21.15c0,1.95,0.62,3.53,1.87,4.73c1.24,1.2,2.87,1.8,4.88,1.8c2.01,0,3.63-0.6,4.86-1.8
		c1.23-1.2,1.85-2.77,1.85-4.73V97.36c0-0.3,0.15-0.45,0.45-0.45h3.42c0.3,0,0.45,0.15,0.45,0.45v21.06c0,2.04-0.46,3.85-1.37,5.42
		c-0.92,1.57-2.21,2.79-3.87,3.65c-1.67,0.85-3.59,1.28-5.78,1.28C321.64,128.77,319.71,128.34,318.05,127.49z"/>
	<path d="M345.63,127.69c-1.7-0.72-3-1.74-3.92-3.06c-0.92-1.32-1.37-2.86-1.37-4.64v-1.31c0-0.3,0.15-0.45,0.45-0.45h3.28
		c0.3,0,0.45,0.15,0.45,0.45v1.08c0,1.53,0.66,2.79,1.98,3.78c1.32,0.99,3.13,1.48,5.44,1.48c2.07,0,3.63-0.43,4.68-1.31
		c1.05-0.87,1.58-2.01,1.58-3.42c0-0.93-0.27-1.72-0.81-2.38c-0.54-0.66-1.33-1.27-2.36-1.82c-1.04-0.55-2.54-1.22-4.52-2
		c-2.19-0.84-3.92-1.6-5.2-2.29c-1.28-0.69-2.33-1.6-3.17-2.72s-1.26-2.54-1.26-4.25c0-2.58,0.92-4.6,2.77-6.07
		c1.84-1.47,4.34-2.21,7.49-2.21c2.22,0,4.17,0.38,5.85,1.12c1.68,0.75,2.98,1.8,3.89,3.15s1.37,2.91,1.37,4.68v0.9
		c0,0.3-0.15,0.45-0.45,0.45h-3.38c-0.3,0-0.45-0.15-0.45-0.45v-0.68c0-1.56-0.62-2.86-1.87-3.89c-1.25-1.04-2.96-1.55-5.15-1.55
		c-1.86,0-3.3,0.38-4.32,1.15c-1.02,0.77-1.53,1.87-1.53,3.31c0,0.99,0.25,1.8,0.77,2.43c0.51,0.63,1.27,1.19,2.27,1.69
		c1,0.5,2.54,1.13,4.61,1.91c2.13,0.84,3.85,1.61,5.17,2.32c1.32,0.71,2.42,1.64,3.29,2.79c0.87,1.16,1.3,2.59,1.3,4.3
		c0,2.64-0.97,4.73-2.9,6.28c-1.93,1.55-4.6,2.32-7.99,2.32C349.33,128.77,347.33,128.41,345.63,127.69z"/>
</g>
<g>
</g>
<g>
</g>
<g>
</g>
<g>
</g>
<g>
</g>
<g>
</g>
</svg>
