<?xml version="1.0" encoding="utf-8"?>
<!-- Generator: Adobe Illustrator 25.2.1, SVG Export Plug-In . SVG Version: 6.00 Build 0)  -->
<svg version="1.1" id="Capa_1" xmlns="http://www.w3.org/2000/svg" xmlns:xlink="http://www.w3.org/1999/xlink" x="0px" y="0px"
	 viewBox="0 0 400 300" style="enable-background:new 0 0 400 300;" xml:space="preserve">
<style type="text/css">
	.st0{fill:#EB5B4B;}
	.st1{fill:#FCC468;}
</style>
<path class="st0" d="M330.97,77H69.03C58.52,77,50,85.52,50,96.02v69.95C50,176.48,58.52,185,69.03,185h12.89l12.53,32.83
	c1.64,4.3,7.7,4.37,9.44,0.11L117.33,185h213.65c10.51,0,19.03-8.52,19.03-19.03V96.02C350,85.52,341.48,77,330.97,77z"/>
<path class="st1" d="M333.92,71.46H71.98c-10.51,0-19.03,8.52-19.03,19.03v69.95c0,10.51,8.52,19.03,19.03,19.03h12.89L97.4,212.3
	c1.64,4.3,7.7,4.37,9.44,0.11l13.44-32.94h213.65c10.51,0,19.03-8.52,19.03-19.03V90.49C352.95,79.98,344.43,71.46,333.92,71.46z"/>
<g>
	<path d="M133.06,109.06h3.42c0.3,0,0.45,0.15,0.45,0.45v30.6c0,0.3-0.15,0.45-0.45,0.45h-3.42c-0.3,0-0.45-0.15-0.45-0.45v-23.04
		c0-0.09-0.03-0.15-0.09-0.18c-0.06-0.03-0.11,0-0.14,0.09l-6.44,9.81c-0.12,0.18-0.3,0.27-0.54,0.27h-1.71
		c-0.21,0-0.39-0.09-0.54-0.27l-6.48-9.72c-0.03-0.09-0.08-0.12-0.13-0.09c-0.06,0.03-0.09,0.09-0.09,0.18v22.95
		c0,0.3-0.15,0.45-0.45,0.45h-3.42c-0.3,0-0.45-0.15-0.45-0.45v-30.6c0-0.3,0.15-0.45,0.45-0.45h3.42c0.24,0,0.42,0.09,0.54,0.27
		l7.88,11.79c0.03,0.03,0.07,0.04,0.13,0.04c0.06,0,0.1-0.01,0.14-0.04l7.83-11.79C132.67,109.15,132.85,109.06,133.06,109.06z"/>
	<path d="M162.9,140.2l-1.62-5.27c-0.03-0.09-0.09-0.13-0.18-0.13h-12.65c-0.09,0-0.15,0.04-0.18,0.13l-1.62,5.27
		c-0.09,0.24-0.27,0.36-0.54,0.36h-3.65c-0.33,0-0.45-0.16-0.36-0.5l9.85-30.65c0.09-0.24,0.27-0.36,0.54-0.36h4.5
		c0.27,0,0.45,0.12,0.54,0.36l9.95,30.65l0.04,0.18c0,0.21-0.14,0.31-0.41,0.31h-3.69C163.17,140.56,162.99,140.44,162.9,140.2z
		 M149.42,131.31c0.04,0.04,0.1,0.07,0.16,0.07h10.35c0.06,0,0.11-0.02,0.16-0.07s0.05-0.1,0.02-0.16l-5.22-16.7
		c-0.03-0.06-0.08-0.09-0.14-0.09c-0.06,0-0.11,0.03-0.13,0.09l-5.22,16.7C149.37,131.22,149.38,131.27,149.42,131.31z"/>
	<path d="M193.09,112.8h-15.93c-0.12,0-0.18,0.06-0.18,0.18v9.67c0,0.12,0.06,0.18,0.18,0.18h10.94c0.3,0,0.45,0.15,0.45,0.45v2.83
		c0,0.3-0.15,0.45-0.45,0.45h-10.94c-0.12,0-0.18,0.06-0.18,0.18v13.36c0,0.3-0.15,0.45-0.45,0.45h-3.42c-0.3,0-0.45-0.15-0.45-0.45
		v-30.6c0-0.3,0.15-0.45,0.45-0.45h19.98c0.3,0,0.45,0.15,0.45,0.45v2.83C193.54,112.65,193.39,112.8,193.09,112.8z"/>
	<path d="M213.97,140.2l-1.62-5.27c-0.03-0.09-0.09-0.13-0.18-0.13h-12.64c-0.09,0-0.15,0.04-0.18,0.13l-1.62,5.27
		c-0.09,0.24-0.27,0.36-0.54,0.36h-3.65c-0.33,0-0.45-0.16-0.36-0.5l9.85-30.65c0.09-0.24,0.27-0.36,0.54-0.36h4.5
		c0.27,0,0.45,0.12,0.54,0.36l9.95,30.65l0.04,0.18c0,0.21-0.13,0.31-0.41,0.31h-3.69C214.24,140.56,214.06,140.44,213.97,140.2z
		 M200.5,131.31c0.04,0.04,0.1,0.07,0.16,0.07H211c0.06,0,0.11-0.02,0.16-0.07s0.05-0.1,0.02-0.16l-5.22-16.7
		c-0.03-0.06-0.07-0.09-0.13-0.09s-0.11,0.03-0.13,0.09l-5.22,16.7C200.44,131.22,200.45,131.27,200.5,131.31z"/>
	<path d="M223.74,140.11v-30.6c0-0.3,0.15-0.45,0.45-0.45h3.42c0.3,0,0.45,0.15,0.45,0.45v27.13c0,0.12,0.06,0.18,0.18,0.18h15.52
		c0.3,0,0.45,0.15,0.45,0.45v2.83c0,0.3-0.15,0.45-0.45,0.45h-19.58C223.89,140.56,223.74,140.41,223.74,140.11z"/>
	<path d="M249.39,140.11v-30.6c0-0.3,0.15-0.45,0.45-0.45h10.89c3.12,0,5.61,0.82,7.47,2.45c1.86,1.64,2.79,3.82,2.79,6.55v13.5
		c0,2.73-0.93,4.91-2.79,6.55c-1.86,1.64-4.35,2.45-7.47,2.45h-10.89C249.54,140.56,249.39,140.41,249.39,140.11z M253.89,136.83
		h7.02c1.74,0,3.13-0.53,4.16-1.6c1.04-1.06,1.57-2.5,1.6-4.3v-12.24c0-1.8-0.52-3.23-1.55-4.3c-1.04-1.06-2.44-1.6-4.21-1.6h-7.02
		c-0.12,0-0.18,0.06-0.18,0.18v23.67C253.71,136.77,253.77,136.83,253.89,136.83z"/>
	<path d="M294.48,140.2l-1.62-5.27c-0.03-0.09-0.09-0.13-0.18-0.13h-12.64c-0.09,0-0.15,0.04-0.18,0.13l-1.62,5.27
		c-0.09,0.24-0.27,0.36-0.54,0.36h-3.65c-0.33,0-0.45-0.16-0.36-0.5l9.85-30.65c0.09-0.24,0.27-0.36,0.54-0.36h4.5
		c0.27,0,0.45,0.12,0.54,0.36l9.95,30.65l0.04,0.18c0,0.21-0.13,0.31-0.41,0.31h-3.69C294.75,140.56,294.57,140.44,294.48,140.2z
		 M281,131.31c0.04,0.04,0.1,0.07,0.16,0.07h10.35c0.06,0,0.11-0.02,0.16-0.07s0.05-0.1,0.02-0.16l-5.22-16.7
		c-0.03-0.06-0.08-0.09-0.13-0.09c-0.06,0-0.11,0.03-0.13,0.09l-5.22,16.7C280.95,131.22,280.95,131.27,281,131.31z"/>
</g>
<g>
</g>
<g>
</g>
<g>
</g>
<g>
</g>
<g>
</g>
<g>
</g>
</svg>
