<?xml version="1.0" encoding="utf-8"?>
<!-- Generator: Adobe Illustrator 25.2.1, SVG Export Plug-In . SVG Version: 6.00 Build 0)  -->
<svg version="1.1" id="Capa_1" xmlns="http://www.w3.org/2000/svg" xmlns:xlink="http://www.w3.org/1999/xlink" x="0px" y="0px"
	 viewBox="0 0 400 300" style="enable-background:new 0 0 400 300;" xml:space="preserve">
<style type="text/css">
	.st0{fill:#EB5B4B;}
	.st1{fill:#FCC468;}
</style>
<path class="st0" d="M330.97,77H69.03C58.52,77,50,85.52,50,96.02v69.95C50,176.48,58.52,185,69.03,185h12.89l12.53,32.83
	c1.64,4.3,7.7,4.37,9.44,0.11L117.33,185h213.65c10.51,0,19.03-8.52,19.03-19.03V96.02C350,85.52,341.48,77,330.97,77z"/>
<path class="st1" d="M333.92,71.46H71.98c-10.51,0-19.03,8.52-19.03,19.03v69.95c0,10.51,8.52,19.03,19.03,19.03h12.89L97.4,212.3
	c1.64,4.3,7.7,4.37,9.44,0.11l13.44-32.94h213.65c10.51,0,19.03-8.52,19.03-19.03V90.49C352.95,79.98,344.43,71.46,333.92,71.46z"/>
<g>
	<path d="M97.78,138.95c-1.67-0.85-2.96-2.07-3.87-3.65s-1.37-3.38-1.37-5.42v-11.66c0-2.04,0.46-3.83,1.37-5.38
		c0.92-1.54,2.21-2.75,3.87-3.6s3.58-1.28,5.74-1.28s4.07,0.41,5.71,1.24c1.65,0.83,2.93,1.99,3.85,3.49s1.37,3.24,1.37,5.22v0.04
		c0,0.15-0.04,0.27-0.13,0.36c-0.09,0.09-0.2,0.13-0.32,0.13l-3.42,0.18c-0.3,0-0.45-0.14-0.45-0.41v-0.13c0-1.92-0.6-3.47-1.8-4.64
		c-1.2-1.17-2.81-1.75-4.82-1.75s-3.62,0.58-4.84,1.75s-1.82,2.72-1.82,4.64v11.97c0,1.92,0.61,3.47,1.82,4.64s2.83,1.75,4.84,1.75
		s3.62-0.58,4.82-1.75c1.2-1.17,1.8-2.71,1.8-4.64v-0.09c0-0.27,0.15-0.4,0.45-0.4l3.42,0.18c0.3,0,0.45,0.15,0.45,0.45
		c0,1.98-0.46,3.73-1.37,5.24c-0.92,1.52-2.2,2.69-3.85,3.53c-1.65,0.84-3.55,1.26-5.71,1.26S99.45,139.81,97.78,138.95z"/>
	<path d="M120.71,139.38v-30.6c0-0.3,0.15-0.45,0.45-0.45h3.42c0.3,0,0.45,0.15,0.45,0.45v27.13c0,0.12,0.06,0.18,0.18,0.18h15.52
		c0.3,0,0.45,0.15,0.45,0.45v2.83c0,0.3-0.15,0.45-0.45,0.45h-19.57C120.86,139.83,120.71,139.68,120.71,139.38z"/>
	<path d="M166.83,112.06h-15.97c-0.12,0-0.18,0.06-0.18,0.18v9.67c0,0.12,0.06,0.18,0.18,0.18h10.98c0.3,0,0.45,0.15,0.45,0.45v2.83
		c0,0.3-0.15,0.45-0.45,0.45h-10.98c-0.12,0-0.18,0.06-0.18,0.18v9.9c0,0.12,0.06,0.18,0.18,0.18h15.97c0.3,0,0.45,0.15,0.45,0.45
		v2.83c0,0.3-0.15,0.45-0.45,0.45h-20.02c-0.3,0-0.45-0.15-0.45-0.45v-30.6c0-0.3,0.15-0.45,0.45-0.45h20.02
		c0.3,0,0.45,0.15,0.45,0.45v2.83C167.28,111.91,167.13,112.06,166.83,112.06z"/>
	<path d="M194.19,108.33h3.42c0.3,0,0.45,0.15,0.45,0.45v30.6c0,0.3-0.15,0.45-0.45,0.45h-3.42c-0.3,0-0.45-0.15-0.45-0.45v-23.04
		c0-0.09-0.03-0.15-0.09-0.18c-0.06-0.03-0.11,0-0.13,0.09l-6.44,9.81c-0.12,0.18-0.3,0.27-0.54,0.27h-1.71
		c-0.21,0-0.39-0.09-0.54-0.27l-6.48-9.72c-0.03-0.09-0.08-0.12-0.13-0.09c-0.06,0.03-0.09,0.09-0.09,0.18v22.95
		c0,0.3-0.15,0.45-0.45,0.45h-3.42c-0.3,0-0.45-0.15-0.45-0.45v-30.6c0-0.3,0.15-0.45,0.45-0.45h3.42c0.24,0,0.42,0.09,0.54,0.27
		l7.88,11.79c0.03,0.03,0.07,0.04,0.13,0.04s0.11-0.01,0.13-0.04l7.83-11.79C193.8,108.42,193.98,108.33,194.19,108.33z"/>
	<path d="M225.92,112.06h-15.97c-0.12,0-0.18,0.06-0.18,0.18v9.67c0,0.12,0.06,0.18,0.18,0.18h10.98c0.3,0,0.45,0.15,0.45,0.45v2.83
		c0,0.3-0.15,0.45-0.45,0.45h-10.98c-0.12,0-0.18,0.06-0.18,0.18v9.9c0,0.12,0.06,0.18,0.18,0.18h15.97c0.3,0,0.45,0.15,0.45,0.45
		v2.83c0,0.3-0.15,0.45-0.45,0.45h-20.03c-0.3,0-0.45-0.15-0.45-0.45v-30.6c0-0.3,0.15-0.45,0.45-0.45h20.03
		c0.3,0,0.45,0.15,0.45,0.45v2.83C226.37,111.91,226.22,112.06,225.92,112.06z"/>
	<path d="M251.34,108.33h3.42c0.3,0,0.45,0.15,0.45,0.45v30.6c0,0.3-0.15,0.45-0.45,0.45h-3.28c-0.21,0-0.39-0.1-0.54-0.31
		l-14.08-23c-0.03-0.09-0.08-0.13-0.14-0.11s-0.09,0.07-0.09,0.16l0.04,22.81c0,0.3-0.15,0.45-0.45,0.45h-3.42
		c-0.3,0-0.45-0.15-0.45-0.45v-30.6c0-0.3,0.15-0.45,0.45-0.45h3.33c0.21,0,0.39,0.11,0.54,0.31l14.04,23
		c0.03,0.09,0.08,0.13,0.13,0.11c0.06-0.01,0.09-0.07,0.09-0.16l-0.04-22.81C250.89,108.48,251.04,108.33,251.34,108.33z"/>
	<path d="M283.11,108.78v2.88c0,0.3-0.15,0.45-0.45,0.45h-8.64c-0.12,0-0.18,0.06-0.18,0.18v27.09c0,0.3-0.15,0.45-0.45,0.45h-3.42
		c-0.3,0-0.45-0.15-0.45-0.45v-27.09c0-0.12-0.06-0.18-0.18-0.18h-8.23c-0.3,0-0.45-0.15-0.45-0.45v-2.88c0-0.3,0.15-0.45,0.45-0.45
		h21.55C282.96,108.33,283.11,108.48,283.11,108.78z"/>
	<path d="M308.94,112.06h-15.97c-0.12,0-0.18,0.06-0.18,0.18v9.67c0,0.12,0.06,0.18,0.18,0.18h10.98c0.3,0,0.45,0.15,0.45,0.45v2.83
		c0,0.3-0.15,0.45-0.45,0.45h-10.98c-0.12,0-0.18,0.06-0.18,0.18v9.9c0,0.12,0.06,0.18,0.18,0.18h15.97c0.3,0,0.45,0.15,0.45,0.45
		v2.83c0,0.3-0.15,0.45-0.45,0.45h-20.03c-0.3,0-0.45-0.15-0.45-0.45v-30.6c0-0.3,0.15-0.45,0.45-0.45h20.03
		c0.3,0,0.45,0.15,0.45,0.45v2.83C309.39,111.91,309.24,112.06,308.94,112.06z"/>
</g>
<g>
</g>
<g>
</g>
<g>
</g>
<g>
</g>
<g>
</g>
<g>
</g>
</svg>
