<?xml version="1.0" encoding="utf-8"?>
<!-- Generator: Adobe Illustrator 25.2.1, SVG Export Plug-In . SVG Version: 6.00 Build 0)  -->
<svg version="1.1" id="Capa_1" xmlns="http://www.w3.org/2000/svg" xmlns:xlink="http://www.w3.org/1999/xlink" x="0px" y="0px"
	 viewBox="0 0 400 300" style="enable-background:new 0 0 400 300;" xml:space="preserve">
<style type="text/css">
	.st0{fill:#EB5B4B;}
	.st1{fill:#FCC468;}
</style>
<path class="st0" d="M330.97,77H69.03C58.52,77,50,85.52,50,96.02v69.95C50,176.48,58.52,185,69.03,185h12.89l12.53,32.83
	c1.64,4.3,7.7,4.37,9.44,0.11L117.33,185h213.65c10.51,0,19.03-8.52,19.03-19.03V96.02C350,85.52,341.48,77,330.97,77z"/>
<path class="st1" d="M333.92,71.46H71.98c-10.51,0-19.03,8.52-19.03,19.03v69.95c0,10.51,8.52,19.03,19.03,19.03h12.89L97.4,212.3
	c1.64,4.3,7.7,4.37,9.44,0.11l13.44-32.94h213.65c10.51,0,19.03-8.52,19.03-19.03V90.49C352.95,79.98,344.43,71.46,333.92,71.46z"/>
<g>
	<path d="M119.41,109.79c1.4,0.77,2.48,1.84,3.24,3.22c0.76,1.38,1.15,2.97,1.15,4.77c0,1.8-0.39,3.38-1.17,4.73
		c-0.78,1.35-1.88,2.4-3.31,3.15c-1.43,0.75-3.07,1.12-4.93,1.12h-7.92c-0.12,0-0.18,0.06-0.18,0.18v12.78
		c0,0.3-0.15,0.45-0.45,0.45h-3.42c-0.3,0-0.45-0.15-0.45-0.45v-30.65c0-0.3,0.15-0.45,0.45-0.45h12.15
		C116.41,108.64,118.02,109.03,119.41,109.79z M117.97,121.78c1-0.99,1.51-2.3,1.51-3.92c0-1.65-0.5-2.98-1.51-3.98
		c-1.01-1-2.33-1.51-3.98-1.51h-7.52c-0.12,0-0.18,0.06-0.18,0.18v10.53c0,0.12,0.06,0.18,0.18,0.18h7.52
		C115.64,123.27,116.97,122.77,117.97,121.78z"/>
	<path d="M145.94,139.83l-1.62-5.27c-0.03-0.09-0.09-0.13-0.18-0.13H131.5c-0.09,0-0.15,0.04-0.18,0.13l-1.62,5.27
		c-0.09,0.24-0.27,0.36-0.54,0.36h-3.65c-0.33,0-0.45-0.16-0.36-0.5l9.85-30.65c0.09-0.24,0.27-0.36,0.54-0.36h4.5
		c0.27,0,0.45,0.12,0.54,0.36l9.95,30.65l0.04,0.18c0,0.21-0.14,0.31-0.41,0.31h-3.69C146.21,140.19,146.03,140.07,145.94,139.83z
		 M132.46,130.94c0.04,0.04,0.1,0.07,0.16,0.07h10.35c0.06,0,0.11-0.02,0.16-0.07s0.05-0.1,0.02-0.16l-5.22-16.7
		c-0.03-0.06-0.08-0.09-0.14-0.09c-0.06,0-0.11,0.03-0.13,0.09l-5.22,16.7C132.41,130.84,132.42,130.9,132.46,130.94z"/>
	<path d="M172.94,109.14v2.88c0,0.3-0.15,0.45-0.45,0.45h-8.64c-0.12,0-0.18,0.06-0.18,0.18v27.09c0,0.3-0.15,0.45-0.45,0.45h-3.42
		c-0.3,0-0.45-0.15-0.45-0.45v-27.09c0-0.12-0.06-0.18-0.18-0.18h-8.23c-0.3,0-0.45-0.15-0.45-0.45v-2.88c0-0.3,0.15-0.45,0.45-0.45
		h21.55C172.79,108.69,172.94,108.84,172.94,109.14z"/>
	<path d="M183.27,139.27c-1.67-0.85-2.96-2.07-3.89-3.65c-0.93-1.58-1.4-3.38-1.4-5.42v-21.06c0-0.3,0.15-0.45,0.45-0.45h3.42
		c0.3,0,0.45,0.15,0.45,0.45v21.15c0,1.95,0.62,3.53,1.87,4.73c1.24,1.2,2.87,1.8,4.88,1.8c2.01,0,3.63-0.6,4.86-1.8
		c1.23-1.2,1.85-2.77,1.85-4.73v-21.15c0-0.3,0.15-0.45,0.45-0.45h3.42c0.3,0,0.45,0.15,0.45,0.45v21.06c0,2.04-0.46,3.85-1.37,5.42
		c-0.92,1.57-2.21,2.79-3.87,3.65s-3.59,1.28-5.78,1.28S184.93,140.12,183.27,139.27z"/>
	<path d="M224.6,139.87l-6.3-13.46c-0.03-0.09-0.09-0.13-0.18-0.13h-6.48c-0.12,0-0.18,0.06-0.18,0.18v13.27
		c0,0.3-0.15,0.45-0.45,0.45h-3.42c-0.3,0-0.45-0.15-0.45-0.45v-30.6c0-0.3,0.15-0.45,0.45-0.45h12.11c1.8,0,3.38,0.38,4.75,1.12
		c1.37,0.75,2.42,1.8,3.17,3.15c0.75,1.35,1.12,2.91,1.12,4.68c0,2.1-0.55,3.88-1.64,5.33c-1.1,1.46-2.62,2.44-4.57,2.95
		c-0.12,0.06-0.15,0.14-0.09,0.23l6.52,13.5c0.03,0.06,0.04,0.14,0.04,0.23c0,0.21-0.12,0.31-0.36,0.31h-3.56
		C224.86,140.19,224.69,140.08,224.6,139.87z M211.46,112.6v10.08c0,0.12,0.06,0.18,0.18,0.18h7.51c1.59,0,2.86-0.47,3.83-1.42
		c0.96-0.94,1.44-2.2,1.44-3.76c0-1.59-0.48-2.86-1.44-3.83c-0.96-0.96-2.24-1.44-3.83-1.44h-7.51
		C211.52,112.42,211.46,112.48,211.46,112.6z"/>
	<path d="M239.7,139.27c-1.67-0.85-2.96-2.07-3.89-3.65c-0.93-1.58-1.39-3.38-1.39-5.42v-21.06c0-0.3,0.15-0.45,0.45-0.45h3.42
		c0.3,0,0.45,0.15,0.45,0.45v21.15c0,1.95,0.62,3.53,1.87,4.73c1.24,1.2,2.87,1.8,4.88,1.8c2.01,0,3.63-0.6,4.86-1.8
		c1.23-1.2,1.85-2.77,1.85-4.73v-21.15c0-0.3,0.15-0.45,0.45-0.45h3.42c0.3,0,0.45,0.15,0.45,0.45v21.06c0,2.04-0.46,3.85-1.37,5.42
		c-0.92,1.57-2.21,2.79-3.87,3.65s-3.59,1.28-5.78,1.28C243.29,140.55,241.36,140.12,239.7,139.27z"/>
	<path d="M261.73,139.74v-3.15c0-0.24,0.06-0.43,0.18-0.58l15.75-23.35c0.03-0.03,0.03-0.07,0-0.13c-0.03-0.06-0.08-0.09-0.14-0.09
		h-15.34c-0.3,0-0.45-0.15-0.45-0.45v-2.83c0-0.3,0.15-0.45,0.45-0.45h19.98c0.3,0,0.45,0.15,0.45,0.45v3.15
		c0,0.24-0.06,0.44-0.18,0.58l-15.84,23.35c-0.03,0.03-0.03,0.08,0,0.13c0.03,0.06,0.07,0.09,0.13,0.09h15.44
		c0.3,0,0.45,0.15,0.45,0.45v2.83c0,0.3-0.15,0.45-0.45,0.45h-19.98C261.88,140.19,261.73,140.04,261.73,139.74z"/>
	<path d="M293.34,139.27c-1.67-0.85-2.96-2.07-3.89-3.65c-0.93-1.58-1.39-3.38-1.39-5.42v-21.06c0-0.3,0.15-0.45,0.45-0.45h3.42
		c0.3,0,0.45,0.15,0.45,0.45v21.15c0,1.95,0.62,3.53,1.87,4.73c1.24,1.2,2.87,1.8,4.88,1.8c2.01,0,3.63-0.6,4.86-1.8
		c1.23-1.2,1.85-2.77,1.85-4.73v-21.15c0-0.3,0.15-0.45,0.45-0.45h3.42c0.3,0,0.45,0.15,0.45,0.45v21.06c0,2.04-0.46,3.85-1.37,5.42
		c-0.92,1.57-2.21,2.79-3.87,3.65s-3.59,1.28-5.78,1.28C296.93,140.55,295,140.12,293.34,139.27z M296.85,105.65
		c-0.08-0.1-0.07-0.23,0.02-0.38l2.65-4.86c0.09-0.21,0.27-0.32,0.54-0.32h3.02c0.18,0,0.29,0.05,0.34,0.16
		c0.04,0.11,0.02,0.23-0.07,0.38l-3.19,4.86c-0.15,0.21-0.33,0.31-0.54,0.31h-2.39C297.05,105.81,296.92,105.76,296.85,105.65z"/>
</g>
<g>
</g>
<g>
</g>
<g>
</g>
<g>
</g>
<g>
</g>
<g>
</g>
</svg>
