<?xml version="1.0" encoding="utf-8"?>
<!-- Generator: Adobe Illustrator 25.2.1, SVG Export Plug-In . SVG Version: 6.00 Build 0)  -->
<svg version="1.1" id="Capa_1" xmlns="http://www.w3.org/2000/svg" xmlns:xlink="http://www.w3.org/1999/xlink" x="0px" y="0px"
	 viewBox="0 0 668 300" style="enable-background:new 0 0 668 300;" xml:space="preserve">
<style type="text/css">
	.st0{fill:#EB5B4B;stroke:#000000;stroke-width:2.1982;stroke-miterlimit:10;}
	.st1{fill:#FCC468;stroke:#000000;stroke-width:2;stroke-miterlimit:10;}
</style>
<g>
	<path class="st0" d="M600.5,110.9h-491c-13.5,0-24.5,11-24.5,24.5v59c0,13.5,11,24.5,24.5,24.5h25.4l12.2,32.2
		c2,5.4,9.7,5.4,11.7-0.1l11.6-32.1h430.2c13.5,0,24.5-11,24.5-24.5v-59C625,121.9,614,110.9,600.5,110.9z"/>
	<path class="st1" d="M609.5,94.9h-491c-13.5,0-24.5,11-24.5,24.5v59c0,13.5,11,24.5,24.5,24.5h25.4l12.2,32.2
		c2,5.4,9.7,5.4,11.7-0.1l11.6-32.1h430.2c13.5,0,24.5-11,24.5-24.5v-59C634,105.9,623,94.9,609.5,94.9z"/>
	<g>
		<path d="M146.3,166.6l-1.6-5.3c0-0.1-0.1-0.1-0.2-0.1h-12.6c-0.1,0-0.2,0-0.2,0.1l-1.6,5.3c-0.1,0.2-0.3,0.4-0.5,0.4h-3.6
			c-0.3,0-0.5-0.2-0.4-0.5l9.9-30.6c0.1-0.2,0.3-0.4,0.5-0.4h4.5c0.3,0,0.5,0.1,0.5,0.4l9.9,30.6l0,0.2c0,0.2-0.1,0.3-0.4,0.3h-3.7
			C146.6,167,146.4,166.9,146.3,166.6z M132.8,157.8c0,0,0.1,0.1,0.2,0.1h10.4c0.1,0,0.1,0,0.2-0.1s0.1-0.1,0-0.2l-5.2-16.7
			c0-0.1-0.1-0.1-0.1-0.1c-0.1,0-0.1,0-0.1,0.1l-5.2,16.7C132.8,157.7,132.8,157.7,132.8,157.8z"/>
		<path d="M160.6,166.1c-1.7-0.9-3-2.1-3.9-3.6c-0.9-1.6-1.4-3.4-1.4-5.4V136c0-0.3,0.1-0.5,0.5-0.5h3.4c0.3,0,0.4,0.2,0.4,0.5v21.1
			c0,2,0.6,3.5,1.9,4.7c1.2,1.2,2.9,1.8,4.9,1.8c2,0,3.6-0.6,4.9-1.8c1.2-1.2,1.8-2.8,1.8-4.7V136c0-0.3,0.1-0.5,0.5-0.5h3.4
			c0.3,0,0.5,0.2,0.5,0.5V157c0,2-0.5,3.8-1.4,5.4c-0.9,1.6-2.2,2.8-3.9,3.6c-1.7,0.9-3.6,1.3-5.8,1.3S162.3,166.9,160.6,166.1z"/>
		<path d="M205,136v2.9c0,0.3-0.2,0.4-0.5,0.4h-8.6c-0.1,0-0.2,0.1-0.2,0.2v27.1c0,0.3-0.2,0.5-0.5,0.5h-3.4c-0.3,0-0.4-0.2-0.4-0.5
			v-27.1c0-0.1-0.1-0.2-0.2-0.2H183c-0.3,0-0.5-0.1-0.5-0.4V136c0-0.3,0.1-0.5,0.5-0.5h21.6C204.8,135.5,205,135.7,205,136z"/>
		<path d="M213,166.1c-1.7-0.9-3-2.2-3.9-3.8c-0.9-1.6-1.4-3.5-1.4-5.6v-10.7c0-2.1,0.5-4,1.4-5.6c0.9-1.6,2.2-2.9,3.9-3.8
			c1.7-0.9,3.6-1.4,5.8-1.4c2.2,0,4.2,0.4,5.8,1.4c1.7,0.9,3,2.2,3.9,3.8s1.4,3.5,1.4,5.6v10.7c0,2.1-0.5,4-1.4,5.6
			c-0.9,1.6-2.2,2.9-3.9,3.8c-1.7,0.9-3.6,1.3-5.8,1.3C216.6,167.4,214.6,167,213,166.1z M223.7,161.8c1.3-1.3,1.9-2.9,1.9-5v-10.9
			c0-2.1-0.6-3.8-1.9-5.1c-1.3-1.3-2.9-1.9-5-1.9s-3.7,0.6-4.9,1.9c-1.2,1.3-1.9,3-1.9,5.1v10.9c0,2.1,0.6,3.7,1.9,5
			c1.2,1.3,2.9,1.9,4.9,1.9S222.4,163,223.7,161.8z"/>
		<path d="M253.9,166.7l-6.3-13.5c0-0.1-0.1-0.1-0.2-0.1H241c-0.1,0-0.2,0.1-0.2,0.2v13.3c0,0.3-0.2,0.5-0.5,0.5h-3.4
			c-0.3,0-0.5-0.2-0.5-0.5V136c0-0.3,0.2-0.5,0.5-0.5H249c1.8,0,3.4,0.4,4.7,1.1c1.4,0.8,2.4,1.8,3.2,3.1c0.7,1.4,1.1,2.9,1.1,4.7
			c0,2.1-0.5,3.9-1.6,5.3c-1.1,1.5-2.6,2.4-4.6,2.9c-0.1,0.1-0.2,0.1-0.1,0.2l6.5,13.5c0,0.1,0,0.1,0,0.2c0,0.2-0.1,0.3-0.4,0.3
			h-3.6C254.2,167,254,166.9,253.9,166.7z M240.8,139.4v10.1c0,0.1,0.1,0.2,0.2,0.2h7.5c1.6,0,2.9-0.5,3.8-1.4
			c1-0.9,1.4-2.2,1.4-3.8c0-1.6-0.5-2.9-1.4-3.8c-1-1-2.2-1.4-3.8-1.4H241C240.9,139.2,240.8,139.3,240.8,139.4z"/>
		<path d="M284.5,139.2h-16c-0.1,0-0.2,0.1-0.2,0.2v9.7c0,0.1,0.1,0.2,0.2,0.2h11c0.3,0,0.5,0.2,0.5,0.5v2.8c0,0.3-0.2,0.5-0.5,0.5
			h-11c-0.1,0-0.2,0.1-0.2,0.2v9.9c0,0.1,0.1,0.2,0.2,0.2h16c0.3,0,0.5,0.2,0.5,0.5v2.8c0,0.3-0.2,0.5-0.5,0.5h-20
			c-0.3,0-0.5-0.2-0.5-0.5V136c0-0.3,0.1-0.5,0.5-0.5h20c0.3,0,0.5,0.2,0.5,0.5v2.8C285,139.1,284.8,139.2,284.5,139.2z"/>
		<path d="M294.7,166.3c-1.7-0.7-3-1.7-3.9-3.1c-0.9-1.3-1.4-2.9-1.4-4.6v-1.3c0-0.3,0.1-0.4,0.4-0.4h3.3c0.3,0,0.5,0.2,0.5,0.4v1.1
			c0,1.5,0.7,2.8,2,3.8s3.1,1.5,5.4,1.5c2.1,0,3.6-0.4,4.7-1.3c1-0.9,1.6-2,1.6-3.4c0-0.9-0.3-1.7-0.8-2.4c-0.5-0.7-1.3-1.3-2.4-1.8
			c-1-0.6-2.5-1.2-4.5-2c-2.2-0.8-3.9-1.6-5.2-2.3c-1.3-0.7-2.3-1.6-3.2-2.7c-0.8-1.1-1.3-2.5-1.3-4.3c0-2.6,0.9-4.6,2.8-6.1
			c1.8-1.5,4.3-2.2,7.5-2.2c2.2,0,4.2,0.4,5.8,1.1c1.7,0.8,3,1.8,3.9,3.1s1.4,2.9,1.4,4.7v0.9c0,0.3-0.2,0.4-0.4,0.4h-3.4
			c-0.3,0-0.5-0.1-0.5-0.4v-0.7c0-1.6-0.6-2.9-1.9-3.9c-1.2-1-3-1.6-5.2-1.6c-1.9,0-3.3,0.4-4.3,1.1c-1,0.8-1.5,1.9-1.5,3.3
			c0,1,0.3,1.8,0.8,2.4c0.5,0.6,1.3,1.2,2.3,1.7c1,0.5,2.5,1.1,4.6,1.9c2.1,0.8,3.9,1.6,5.2,2.3c1.3,0.7,2.4,1.6,3.3,2.8
			c0.9,1.2,1.3,2.6,1.3,4.3c0,2.6-1,4.7-2.9,6.3c-1.9,1.5-4.6,2.3-8,2.3C298.4,167.4,296.4,167,294.7,166.3z"/>
		<path d="M343.9,166.7l-6.3-13.5c0-0.1-0.1-0.1-0.2-0.1h-6.5c-0.1,0-0.2,0.1-0.2,0.2v13.3c0,0.3-0.2,0.5-0.5,0.5h-3.4
			c-0.3,0-0.5-0.2-0.5-0.5V136c0-0.3,0.2-0.5,0.5-0.5H339c1.8,0,3.4,0.4,4.7,1.1c1.4,0.8,2.4,1.8,3.2,3.1c0.7,1.4,1.1,2.9,1.1,4.7
			c0,2.1-0.5,3.9-1.6,5.3c-1.1,1.5-2.6,2.4-4.6,2.9c-0.1,0.1-0.2,0.1-0.1,0.2l6.5,13.5c0,0.1,0,0.1,0,0.2c0,0.2-0.1,0.3-0.4,0.3
			h-3.6C344.2,167,344,166.9,343.9,166.7z M330.8,139.4v10.1c0,0.1,0.1,0.2,0.2,0.2h7.5c1.6,0,2.9-0.5,3.8-1.4
			c1-0.9,1.4-2.2,1.4-3.8c0-1.6-0.5-2.9-1.4-3.8c-1-1-2.2-1.4-3.8-1.4h-7.5C330.8,139.2,330.8,139.3,330.8,139.4z"/>
		<path d="M374.5,139.2h-16c-0.1,0-0.2,0.1-0.2,0.2v9.7c0,0.1,0.1,0.2,0.2,0.2h11c0.3,0,0.5,0.2,0.5,0.5v2.8c0,0.3-0.2,0.5-0.5,0.5
			h-11c-0.1,0-0.2,0.1-0.2,0.2v9.9c0,0.1,0.1,0.2,0.2,0.2h16c0.3,0,0.5,0.2,0.5,0.5v2.8c0,0.3-0.2,0.5-0.5,0.5h-20
			c-0.3,0-0.5-0.2-0.5-0.5V136c0-0.3,0.1-0.5,0.5-0.5h20c0.3,0,0.5,0.2,0.5,0.5v2.8C375,139.1,374.8,139.2,374.5,139.2z"/>
		<path d="M385.3,166.1c-1.7-0.9-3-2.1-3.9-3.6s-1.4-3.4-1.4-5.4v-11.7c0-2,0.5-3.8,1.4-5.4c0.9-1.5,2.2-2.7,3.9-3.6
			s3.6-1.3,5.7-1.3s4.1,0.4,5.7,1.2c1.7,0.8,2.9,2,3.8,3.5s1.4,3.2,1.4,5.2v0c0,0.2,0,0.3-0.1,0.4c-0.1,0.1-0.2,0.1-0.3,0.1
			l-3.4,0.2c-0.3,0-0.5-0.1-0.5-0.4v-0.1c0-1.9-0.6-3.5-1.8-4.6c-1.2-1.2-2.8-1.8-4.8-1.8s-3.6,0.6-4.8,1.8s-1.8,2.7-1.8,4.6v12
			c0,1.9,0.6,3.5,1.8,4.6s2.8,1.8,4.8,1.8s3.6-0.6,4.8-1.8c1.2-1.2,1.8-2.7,1.8-4.6v-0.1c0-0.3,0.1-0.4,0.5-0.4l3.4,0.2
			c0.3,0,0.5,0.2,0.5,0.5c0,2-0.5,3.7-1.4,5.2c-0.9,1.5-2.2,2.7-3.8,3.5c-1.6,0.8-3.6,1.3-5.7,1.3S387,167,385.3,166.1z"/>
		<path d="M412.7,166.1c-1.7-0.9-3-2.2-3.9-3.8c-0.9-1.6-1.4-3.5-1.4-5.6v-10.7c0-2.1,0.5-4,1.4-5.6c0.9-1.6,2.2-2.9,3.9-3.8
			c1.7-0.9,3.6-1.4,5.8-1.4c2.2,0,4.2,0.4,5.8,1.4c1.7,0.9,3,2.2,3.9,3.8s1.4,3.5,1.4,5.6v10.7c0,2.1-0.5,4-1.4,5.6
			c-0.9,1.6-2.2,2.9-3.9,3.8c-1.7,0.9-3.6,1.3-5.8,1.3C416.3,167.4,414.4,167,412.7,166.1z M423.5,161.8c1.3-1.3,1.9-2.9,1.9-5
			v-10.9c0-2.1-0.6-3.8-1.9-5.1c-1.3-1.3-2.9-1.9-5-1.9s-3.7,0.6-4.9,1.9c-1.2,1.3-1.9,3-1.9,5.1v10.9c0,2.1,0.6,3.7,1.9,5
			c1.2,1.3,2.9,1.9,4.9,1.9S422.2,163,423.5,161.8z"/>
		<path d="M455.2,135.5h3.4c0.3,0,0.5,0.2,0.5,0.5v30.6c0,0.3-0.2,0.5-0.5,0.5h-3.3c-0.2,0-0.4-0.1-0.5-0.3l-14.1-23
			c0-0.1-0.1-0.1-0.1-0.1c-0.1,0-0.1,0.1-0.1,0.2l0,22.8c0,0.3-0.2,0.5-0.5,0.5h-3.4c-0.3,0-0.5-0.2-0.5-0.5V136
			c0-0.3,0.2-0.5,0.5-0.5h3.3c0.2,0,0.4,0.1,0.5,0.3l14,23c0,0.1,0.1,0.1,0.1,0.1c0.1,0,0.1-0.1,0.1-0.2l0-22.8
			C454.8,135.7,454.9,135.5,455.2,135.5z"/>
		<path d="M471,166.1c-1.7-0.9-3-2.2-3.9-3.8c-0.9-1.6-1.4-3.5-1.4-5.6v-10.7c0-2.1,0.5-4,1.4-5.6s2.2-2.9,3.9-3.8
			c1.7-0.9,3.6-1.4,5.8-1.4c2.2,0,4.2,0.4,5.8,1.4c1.7,0.9,3,2.2,3.9,3.8s1.4,3.5,1.4,5.6v10.7c0,2.1-0.5,4-1.4,5.6
			c-0.9,1.6-2.2,2.9-3.9,3.8c-1.7,0.9-3.6,1.3-5.8,1.3C474.6,167.4,472.7,167,471,166.1z M481.7,161.8c1.3-1.3,1.9-2.9,1.9-5v-10.9
			c0-2.1-0.6-3.8-1.9-5.1c-1.3-1.3-2.9-1.9-4.9-1.9c-2,0-3.7,0.6-4.9,1.9c-1.2,1.3-1.9,3-1.9,5.1v10.9c0,2.1,0.6,3.7,1.9,5
			c1.2,1.3,2.9,1.9,4.9,1.9C478.8,163.7,480.5,163,481.7,161.8z"/>
		<path d="M498.9,166.1c-1.7-0.9-3-2.1-3.9-3.6s-1.4-3.4-1.4-5.4v-11.7c0-2,0.5-3.8,1.4-5.4c0.9-1.5,2.2-2.7,3.9-3.6
			s3.6-1.3,5.7-1.3c2.2,0,4.1,0.4,5.7,1.2c1.6,0.8,2.9,2,3.8,3.5c0.9,1.5,1.4,3.2,1.4,5.2v0c0,0.2,0,0.3-0.1,0.4
			c-0.1,0.1-0.2,0.1-0.3,0.1l-3.4,0.2c-0.3,0-0.5-0.1-0.5-0.4v-0.1c0-1.9-0.6-3.5-1.8-4.6c-1.2-1.2-2.8-1.8-4.8-1.8
			c-2,0-3.6,0.6-4.8,1.8s-1.8,2.7-1.8,4.6v12c0,1.9,0.6,3.5,1.8,4.6s2.8,1.8,4.8,1.8c2,0,3.6-0.6,4.8-1.8c1.2-1.2,1.8-2.7,1.8-4.6
			v-0.1c0-0.3,0.2-0.4,0.5-0.4l3.4,0.2c0.3,0,0.5,0.2,0.5,0.5c0,2-0.5,3.7-1.4,5.2c-0.9,1.5-2.2,2.7-3.8,3.5
			c-1.7,0.8-3.6,1.3-5.7,1.3C502.5,167.4,500.6,167,498.9,166.1z"/>
		<path d="M521.8,166.6V136c0-0.3,0.1-0.5,0.4-0.5h3.4c0.3,0,0.5,0.2,0.5,0.5v30.6c0,0.3-0.2,0.5-0.5,0.5h-3.4
			C522,167,521.8,166.9,521.8,166.6z"/>
		<path d="M533.5,166.6V136c0-0.3,0.1-0.5,0.4-0.5h10.9c3.1,0,5.6,0.8,7.5,2.5c1.9,1.6,2.8,3.8,2.8,6.5V158c0,2.7-0.9,4.9-2.8,6.5
			c-1.9,1.6-4.4,2.5-7.5,2.5H534C533.7,167,533.5,166.9,533.5,166.6z M538,163.3h7c1.7,0,3.1-0.5,4.2-1.6c1-1.1,1.6-2.5,1.6-4.3
			v-12.2c0-1.8-0.5-3.2-1.6-4.3c-1-1.1-2.4-1.6-4.2-1.6h-7c-0.1,0-0.2,0.1-0.2,0.2v23.7C537.8,163.2,537.9,163.3,538,163.3z"/>
		<path d="M565.7,166.1c-1.7-0.9-3-2.2-3.9-3.8c-0.9-1.6-1.4-3.5-1.4-5.6v-10.7c0-2.1,0.5-4,1.4-5.6c0.9-1.6,2.2-2.9,3.9-3.8
			c1.7-0.9,3.6-1.4,5.8-1.4c2.2,0,4.2,0.4,5.8,1.4c1.7,0.9,3,2.2,3.9,3.8s1.4,3.5,1.4,5.6v10.7c0,2.1-0.5,4-1.4,5.6
			c-0.9,1.6-2.2,2.9-3.9,3.8c-1.7,0.9-3.6,1.3-5.8,1.3C569.3,167.4,567.4,167,565.7,166.1z M576.5,161.8c1.3-1.3,1.9-2.9,1.9-5
			v-10.9c0-2.1-0.6-3.8-1.9-5.1c-1.3-1.3-2.9-1.9-5-1.9c-2,0-3.7,0.6-4.9,1.9c-1.2,1.3-1.9,3-1.9,5.1v10.9c0,2.1,0.6,3.7,1.9,5
			c1.2,1.3,2.9,1.9,4.9,1.9C573.5,163.7,575.2,163,576.5,161.8z"/>
		<path d="M593,166.3c-1.7-0.7-3-1.7-3.9-3.1c-0.9-1.3-1.4-2.9-1.4-4.6v-1.3c0-0.3,0.1-0.4,0.5-0.4h3.3c0.3,0,0.5,0.2,0.5,0.4v1.1
			c0,1.5,0.7,2.8,2,3.8c1.3,1,3.1,1.5,5.4,1.5c2.1,0,3.6-0.4,4.7-1.3c1-0.9,1.6-2,1.6-3.4c0-0.9-0.3-1.7-0.8-2.4
			c-0.5-0.7-1.3-1.3-2.4-1.8c-1-0.6-2.5-1.2-4.5-2c-2.2-0.8-3.9-1.6-5.2-2.3c-1.3-0.7-2.3-1.6-3.2-2.7s-1.3-2.5-1.3-4.3
			c0-2.6,0.9-4.6,2.8-6.1c1.8-1.5,4.3-2.2,7.5-2.2c2.2,0,4.2,0.4,5.8,1.1c1.7,0.8,3,1.8,3.9,3.1s1.4,2.9,1.4,4.7v0.9
			c0,0.3-0.2,0.4-0.5,0.4h-3.4c-0.3,0-0.5-0.1-0.5-0.4v-0.7c0-1.6-0.6-2.9-1.9-3.9c-1.2-1-3-1.6-5.2-1.6c-1.9,0-3.3,0.4-4.3,1.1
			c-1,0.8-1.5,1.9-1.5,3.3c0,1,0.3,1.8,0.8,2.4c0.5,0.6,1.3,1.2,2.3,1.7c1,0.5,2.5,1.1,4.6,1.9c2.1,0.8,3.9,1.6,5.2,2.3
			c1.3,0.7,2.4,1.6,3.3,2.8c0.9,1.2,1.3,2.6,1.3,4.3c0,2.6-1,4.7-2.9,6.3c-1.9,1.5-4.6,2.3-8,2.3C596.6,167.4,594.6,167,593,166.3z"
			/>
	</g>
</g>
</svg>
