<?xml version="1.0" encoding="utf-8"?>
<!-- Generator: Adobe Illustrator 25.2.1, SVG Export Plug-In . SVG Version: 6.00 Build 0)  -->
<svg version="1.1" id="Capa_1" xmlns="http://www.w3.org/2000/svg" xmlns:xlink="http://www.w3.org/1999/xlink" x="0px" y="0px"
	 viewBox="0 0 400 300" style="enable-background:new 0 0 400 300;" xml:space="preserve">
<style type="text/css">
	.st0{fill:#EB5B4B;}
	.st1{fill:#FCC468;}
</style>
<path class="st0" d="M330.97,77H69.03C58.52,77,50,85.52,50,96.02v69.95C50,176.48,58.52,185,69.03,185h12.89l12.53,32.83
	c1.64,4.3,7.7,4.37,9.44,0.11L117.33,185h213.65c10.51,0,19.03-8.52,19.03-19.03V96.02C350,85.52,341.48,77,330.97,77z"/>
<path class="st1" d="M333.92,71.46H71.98c-10.51,0-19.03,8.52-19.03,19.03v69.95c0,10.51,8.52,19.03,19.03,19.03h12.89L97.4,212.3
	c1.64,4.3,7.7,4.37,9.44,0.11l13.44-32.94h213.65c10.51,0,19.03-8.52,19.03-19.03V90.49C352.95,79.98,344.43,71.46,333.92,71.46z"/>
<g>
	<path d="M106.65,112.8H90.67c-0.12,0-0.18,0.06-0.18,0.18v9.67c0,0.12,0.06,0.18,0.18,0.18h10.98c0.3,0,0.45,0.15,0.45,0.45v2.83
		c0,0.3-0.15,0.45-0.45,0.45H90.67c-0.12,0-0.18,0.06-0.18,0.18v9.9c0,0.12,0.06,0.18,0.18,0.18h15.98c0.3,0,0.45,0.15,0.45,0.45
		v2.83c0,0.3-0.15,0.45-0.45,0.45H86.62c-0.3,0-0.45-0.15-0.45-0.45v-30.6c0-0.3,0.15-0.45,0.45-0.45h20.02
		c0.3,0,0.45,0.15,0.45,0.45v2.83C107.1,112.65,106.95,112.8,106.65,112.8z"/>
	<path d="M133.56,109.51v2.88c0,0.3-0.15,0.45-0.45,0.45h-8.64c-0.12,0-0.18,0.06-0.18,0.18v27.09c0,0.3-0.15,0.45-0.45,0.45h-3.42
		c-0.3,0-0.45-0.15-0.45-0.45v-27.09c0-0.12-0.06-0.18-0.18-0.18h-8.23c-0.3,0-0.45-0.15-0.45-0.45v-2.88c0-0.3,0.15-0.45,0.45-0.45
		h21.55C133.41,109.06,133.56,109.21,133.56,109.51z"/>
	<path d="M159.39,112.8h-15.98c-0.12,0-0.18,0.06-0.18,0.18v9.67c0,0.12,0.06,0.18,0.18,0.18h10.98c0.3,0,0.45,0.15,0.45,0.45v2.83
		c0,0.3-0.15,0.45-0.45,0.45h-10.98c-0.12,0-0.18,0.06-0.18,0.18v9.9c0,0.12,0.06,0.18,0.18,0.18h15.98c0.3,0,0.45,0.15,0.45,0.45
		v2.83c0,0.3-0.15,0.45-0.45,0.45h-20.02c-0.3,0-0.45-0.15-0.45-0.45v-30.6c0-0.3,0.15-0.45,0.45-0.45h20.02
		c0.3,0,0.45,0.15,0.45,0.45v2.83C159.84,112.65,159.69,112.8,159.39,112.8z"/>
	<path d="M183.28,140.25l-6.3-13.46c-0.03-0.09-0.09-0.13-0.18-0.13h-6.48c-0.12,0-0.18,0.06-0.18,0.18v13.27
		c0,0.3-0.15,0.45-0.45,0.45h-3.42c-0.3,0-0.45-0.15-0.45-0.45v-30.6c0-0.3,0.15-0.45,0.45-0.45h12.1c1.8,0,3.38,0.38,4.75,1.12
		c1.37,0.75,2.42,1.8,3.17,3.15c0.75,1.35,1.12,2.91,1.12,4.68c0,2.1-0.55,3.88-1.64,5.33c-1.1,1.46-2.62,2.44-4.57,2.95
		c-0.12,0.06-0.15,0.14-0.09,0.23l6.52,13.5c0.03,0.06,0.04,0.14,0.04,0.23c0,0.21-0.12,0.31-0.36,0.31h-3.56
		C183.54,140.56,183.37,140.46,183.28,140.25z M170.14,112.98v10.08c0,0.12,0.06,0.18,0.18,0.18h7.52c1.59,0,2.86-0.47,3.83-1.42
		c0.96-0.94,1.44-2.2,1.44-3.76c0-1.59-0.48-2.86-1.44-3.83c-0.96-0.96-2.24-1.44-3.83-1.44h-7.52
		C170.2,112.8,170.14,112.86,170.14,112.98z"/>
	<path d="M212.4,109.06h3.42c0.3,0,0.45,0.15,0.45,0.45v30.6c0,0.3-0.15,0.45-0.45,0.45h-3.28c-0.21,0-0.39-0.1-0.54-0.31l-14.08-23
		c-0.03-0.09-0.08-0.13-0.14-0.11s-0.09,0.07-0.09,0.16l0.04,22.81c0,0.3-0.15,0.45-0.45,0.45h-3.42c-0.3,0-0.45-0.15-0.45-0.45
		v-30.6c0-0.3,0.15-0.45,0.45-0.45h3.33c0.21,0,0.39,0.11,0.54,0.31l14.04,23c0.03,0.09,0.08,0.13,0.13,0.11
		c0.06-0.01,0.09-0.07,0.09-0.16l-0.04-22.81C211.95,109.21,212.1,109.06,212.4,109.06z"/>
	<path d="M242.28,140.2l-1.62-5.27c-0.03-0.09-0.09-0.13-0.18-0.13h-12.64c-0.09,0-0.15,0.04-0.18,0.13l-1.62,5.27
		c-0.09,0.24-0.27,0.36-0.54,0.36h-3.65c-0.33,0-0.45-0.16-0.36-0.5l9.85-30.65c0.09-0.24,0.27-0.36,0.54-0.36h4.5
		c0.27,0,0.45,0.12,0.54,0.36l9.95,30.65l0.04,0.18c0,0.21-0.13,0.31-0.41,0.31h-3.69C242.55,140.56,242.37,140.44,242.28,140.2z
		 M228.8,131.31c0.04,0.04,0.1,0.07,0.16,0.07h10.35c0.06,0,0.11-0.02,0.16-0.07s0.05-0.1,0.02-0.16l-5.22-16.7
		c-0.03-0.06-0.08-0.09-0.13-0.09c-0.06,0-0.11,0.03-0.13,0.09l-5.22,16.7C228.75,131.22,228.75,131.27,228.8,131.31z"/>
	<path d="M256.61,139.64c-1.67-0.85-2.96-2.07-3.89-3.65c-0.93-1.58-1.39-3.38-1.39-5.42v-21.06c0-0.3,0.15-0.45,0.45-0.45h3.42
		c0.3,0,0.45,0.15,0.45,0.45v21.15c0,1.95,0.62,3.53,1.87,4.73c1.24,1.2,2.87,1.8,4.88,1.8c2.01,0,3.63-0.6,4.86-1.8
		c1.23-1.2,1.85-2.77,1.85-4.73v-21.15c0-0.3,0.15-0.45,0.45-0.45h3.42c0.3,0,0.45,0.15,0.45,0.45v21.06c0,2.04-0.46,3.85-1.37,5.42
		c-0.92,1.57-2.21,2.79-3.87,3.65s-3.59,1.28-5.78,1.28C260.2,140.92,258.27,140.49,256.61,139.64z"/>
	<path d="M300.96,109.51v2.88c0,0.3-0.15,0.45-0.45,0.45h-8.64c-0.12,0-0.18,0.06-0.18,0.18v27.09c0,0.3-0.15,0.45-0.45,0.45h-3.42
		c-0.3,0-0.45-0.15-0.45-0.45v-27.09c0-0.12-0.06-0.18-0.18-0.18h-8.23c-0.3,0-0.45-0.15-0.45-0.45v-2.88c0-0.3,0.15-0.45,0.45-0.45
		h21.55C300.81,109.06,300.96,109.21,300.96,109.51z"/>
	<path d="M322.24,140.2l-1.62-5.27c-0.03-0.09-0.09-0.13-0.18-0.13H307.8c-0.09,0-0.15,0.04-0.18,0.13L306,140.2
		c-0.09,0.24-0.27,0.36-0.54,0.36h-3.65c-0.33,0-0.45-0.16-0.36-0.5l9.85-30.65c0.09-0.24,0.27-0.36,0.54-0.36h4.5
		c0.27,0,0.45,0.12,0.54,0.36l9.95,30.65l0.04,0.18c0,0.21-0.13,0.31-0.41,0.31h-3.69C322.51,140.56,322.33,140.44,322.24,140.2z
		 M308.76,131.31c0.04,0.04,0.1,0.07,0.16,0.07h10.35c0.06,0,0.11-0.02,0.16-0.07s0.05-0.1,0.02-0.16l-5.22-16.7
		c-0.03-0.06-0.08-0.09-0.13-0.09c-0.06,0-0.11,0.03-0.13,0.09l-5.22,16.7C308.71,131.22,308.72,131.27,308.76,131.31z"/>
</g>
<g>
</g>
<g>
</g>
<g>
</g>
<g>
</g>
<g>
</g>
<g>
</g>
</svg>
