<?xml version="1.0" encoding="utf-8"?>
<!-- Generator: Adobe Illustrator 25.2.1, SVG Export Plug-In . SVG Version: 6.00 Build 0)  -->
<svg version="1.1" id="Capa_1" xmlns="http://www.w3.org/2000/svg" xmlns:xlink="http://www.w3.org/1999/xlink" x="0px" y="0px"
	 viewBox="0 0 500 300" style="enable-background:new 0 0 500 300;" xml:space="preserve">
<style type="text/css">
	.st0{fill:#EB5B4B;}
	.st1{fill:#FCC468;}
</style>
<g>
	<path class="st0" d="M453,92.21H47.75c-12.03,0-21.79,9.75-21.79,21.79v65.09c0,12.03,9.75,21.79,21.79,21.79H61l12.8,29.48
		c1.66,3.82,7.05,3.89,8.81,0.12l13.8-29.59H453c12.03,0,21.79-9.75,21.79-21.79v-65.09C474.79,101.96,465.03,92.21,453,92.21z"/>
	<path class="st1" d="M457.94,82.77H52.69c-12.03,0-21.79,9.75-21.79,21.79v65.09c0,12.03,9.75,21.79,21.79,21.79h13.25l12.8,29.48
		c1.66,3.82,7.05,3.89,8.81,0.12l13.8-29.59h356.59c12.03,0,21.79-9.75,21.79-21.79v-65.09C479.72,92.52,469.97,82.77,457.94,82.77z
		"/>
</g>
<g>
	<path d="M64.54,152.84v-30.6c0-0.3,0.15-0.45,0.45-0.45h3.42c0.3,0,0.45,0.15,0.45,0.45v30.6c0,0.3-0.15,0.45-0.45,0.45h-3.42
		C64.69,153.29,64.54,153.14,64.54,152.84z"/>
	<path d="M95.23,121.79h3.42c0.3,0,0.45,0.15,0.45,0.45v30.6c0,0.3-0.15,0.45-0.45,0.45h-3.29c-0.21,0-0.39-0.1-0.54-0.31l-14.08-23
		c-0.03-0.09-0.08-0.13-0.13-0.11c-0.06,0.02-0.09,0.07-0.09,0.16l0.04,22.81c0,0.3-0.15,0.45-0.45,0.45h-3.42
		c-0.3,0-0.45-0.15-0.45-0.45v-30.6c0-0.3,0.15-0.45,0.45-0.45h3.33c0.21,0,0.39,0.11,0.54,0.31l14.04,23
		c0.03,0.09,0.07,0.13,0.14,0.11c0.06-0.01,0.09-0.07,0.09-0.16l-0.04-22.81C94.78,121.94,94.93,121.79,95.23,121.79z"/>
	<path d="M110.98,152.35c-1.68-0.9-2.99-2.17-3.92-3.8c-0.93-1.63-1.4-3.52-1.4-5.65v-10.71c0-2.13,0.46-4,1.4-5.62
		c0.93-1.62,2.23-2.88,3.92-3.78c1.68-0.9,3.61-1.35,5.81-1.35c2.22,0,4.17,0.45,5.85,1.35c1.68,0.9,2.98,2.16,3.92,3.78
		c0.93,1.62,1.4,3.5,1.4,5.62v10.71c0,2.13-0.47,4.01-1.4,5.65c-0.93,1.64-2.23,2.9-3.92,3.8c-1.68,0.9-3.63,1.35-5.85,1.35
		C114.6,153.7,112.66,153.25,110.98,152.35z M121.74,148.07c1.26-1.26,1.89-2.92,1.89-4.99v-10.94c0-2.1-0.63-3.79-1.89-5.06
		c-1.26-1.27-2.91-1.91-4.95-1.91c-2.04,0-3.68,0.64-4.93,1.91c-1.25,1.28-1.87,2.96-1.87,5.06v10.94c0,2.07,0.62,3.73,1.87,4.99
		c1.24,1.26,2.89,1.89,4.93,1.89C118.83,149.96,120.48,149.33,121.74,148.07z"/>
	<path d="M134.52,152.84v-30.6c0-0.3,0.15-0.45,0.45-0.45h10.89c3.12,0,5.61,0.82,7.47,2.45c1.86,1.64,2.79,3.82,2.79,6.55v13.5
		c0,2.73-0.93,4.91-2.79,6.55c-1.86,1.64-4.35,2.45-7.47,2.45h-10.89C134.67,153.29,134.52,153.14,134.52,152.84z M139.02,149.56
		h7.02c1.74,0,3.13-0.53,4.16-1.6c1.04-1.06,1.57-2.5,1.6-4.3v-12.24c0-1.8-0.52-3.23-1.55-4.3c-1.04-1.06-2.44-1.6-4.21-1.6h-7.02
		c-0.12,0-0.18,0.06-0.18,0.18v23.67C138.84,149.5,138.9,149.56,139.02,149.56z"/>
	<path d="M166.69,152.35c-1.68-0.9-2.99-2.17-3.91-3.8c-0.93-1.63-1.4-3.52-1.4-5.65v-10.71c0-2.13,0.46-4,1.4-5.62
		c0.93-1.62,2.23-2.88,3.91-3.78c1.68-0.9,3.62-1.35,5.81-1.35c2.22,0,4.17,0.45,5.85,1.35c1.68,0.9,2.99,2.16,3.92,3.78
		c0.93,1.62,1.4,3.5,1.4,5.62v10.71c0,2.13-0.47,4.01-1.4,5.65c-0.93,1.64-2.24,2.9-3.92,3.8c-1.68,0.9-3.63,1.35-5.85,1.35
		C170.31,153.7,168.37,153.25,166.69,152.35z M177.45,148.07c1.26-1.26,1.89-2.92,1.89-4.99v-10.94c0-2.1-0.63-3.79-1.89-5.06
		c-1.26-1.27-2.91-1.91-4.95-1.91c-2.04,0-3.68,0.64-4.93,1.91c-1.25,1.28-1.87,2.96-1.87,5.06v10.94c0,2.07,0.62,3.73,1.87,4.99
		c1.24,1.26,2.89,1.89,4.93,1.89C174.54,149.96,176.19,149.33,177.45,148.07z"/>
	<path d="M207.69,152.98l-6.3-13.46c-0.03-0.09-0.09-0.13-0.18-0.13h-6.48c-0.12,0-0.18,0.06-0.18,0.18v13.27
		c0,0.3-0.15,0.45-0.45,0.45h-3.42c-0.3,0-0.45-0.15-0.45-0.45v-30.6c0-0.3,0.15-0.45,0.45-0.45h12.11c1.8,0,3.38,0.38,4.75,1.12
		c1.37,0.75,2.42,1.8,3.17,3.15c0.75,1.35,1.12,2.91,1.12,4.68c0,2.1-0.55,3.88-1.64,5.33c-1.1,1.46-2.62,2.44-4.57,2.95
		c-0.12,0.06-0.15,0.14-0.09,0.23l6.52,13.5c0.03,0.06,0.04,0.14,0.04,0.23c0,0.21-0.12,0.31-0.36,0.31h-3.56
		C207.94,153.29,207.78,153.19,207.69,152.98z M194.55,125.71v10.08c0,0.12,0.06,0.18,0.18,0.18h7.51c1.59,0,2.86-0.47,3.83-1.42
		c0.96-0.94,1.44-2.2,1.44-3.76c0-1.59-0.48-2.86-1.44-3.83c-0.96-0.96-2.24-1.44-3.83-1.44h-7.51
		C194.61,125.53,194.55,125.59,194.55,125.71z"/>
	<path d="M222.27,152.35c-1.68-0.9-2.99-2.17-3.91-3.8c-0.93-1.63-1.4-3.52-1.4-5.65v-10.71c0-2.13,0.46-4,1.4-5.62
		c0.93-1.62,2.23-2.88,3.91-3.78c1.68-0.9,3.62-1.35,5.81-1.35c2.22,0,4.17,0.45,5.85,1.35c1.68,0.9,2.99,2.16,3.92,3.78
		c0.93,1.62,1.4,3.5,1.4,5.62v10.71c0,2.13-0.47,4.01-1.4,5.65c-0.93,1.64-2.24,2.9-3.92,3.8c-1.68,0.9-3.63,1.35-5.85,1.35
		C225.88,153.7,223.95,153.25,222.27,152.35z M233.02,148.07c1.26-1.26,1.89-2.92,1.89-4.99v-10.94c0-2.1-0.63-3.79-1.89-5.06
		c-1.26-1.27-2.91-1.91-4.95-1.91c-2.04,0-3.68,0.64-4.93,1.91c-1.25,1.28-1.87,2.96-1.87,5.06v10.94c0,2.07,0.62,3.73,1.87,4.99
		c1.24,1.26,2.89,1.89,4.93,1.89C230.11,149.96,231.76,149.33,233.02,148.07z"/>
	<path d="M271.97,122.89c1.4,0.77,2.47,1.84,3.24,3.22c0.76,1.38,1.15,2.97,1.15,4.77c0,1.8-0.39,3.38-1.17,4.73
		c-0.78,1.35-1.88,2.4-3.31,3.15c-1.43,0.75-3.07,1.12-4.93,1.12h-7.92c-0.12,0-0.18,0.06-0.18,0.18v12.78
		c0,0.3-0.15,0.45-0.45,0.45h-3.42c-0.3,0-0.45-0.15-0.45-0.45V122.2c0-0.3,0.15-0.45,0.45-0.45h12.15
		C268.96,121.75,270.57,122.13,271.97,122.89z M270.53,134.89c1-0.99,1.51-2.3,1.51-3.92c0-1.65-0.5-2.98-1.51-3.98
		c-1.01-1-2.33-1.51-3.98-1.51h-7.51c-0.12,0-0.18,0.06-0.18,0.18v10.53c0,0.12,0.06,0.18,0.18,0.18h7.51
		C268.2,136.37,269.52,135.88,270.53,134.89z"/>
	<path d="M301.96,125.53h-15.97c-0.12,0-0.18,0.06-0.18,0.18v9.67c0,0.12,0.06,0.18,0.18,0.18h10.98c0.3,0,0.45,0.15,0.45,0.45v2.83
		c0,0.3-0.15,0.45-0.45,0.45h-10.98c-0.12,0-0.18,0.06-0.18,0.18v9.9c0,0.12,0.06,0.18,0.18,0.18h15.97c0.3,0,0.45,0.15,0.45,0.45
		v2.83c0,0.3-0.15,0.45-0.45,0.45h-20.03c-0.3,0-0.45-0.15-0.45-0.45v-30.6c0-0.3,0.15-0.45,0.45-0.45h20.03
		c0.3,0,0.45,0.15,0.45,0.45v2.83C302.41,125.38,302.26,125.53,301.96,125.53z"/>
	<path d="M325.86,152.98l-6.3-13.46c-0.03-0.09-0.09-0.13-0.18-0.13h-6.48c-0.12,0-0.18,0.06-0.18,0.18v13.27
		c0,0.3-0.15,0.45-0.45,0.45h-3.42c-0.3,0-0.45-0.15-0.45-0.45v-30.6c0-0.3,0.15-0.45,0.45-0.45h12.11c1.8,0,3.38,0.38,4.75,1.12
		c1.37,0.75,2.42,1.8,3.17,3.15c0.75,1.35,1.12,2.91,1.12,4.68c0,2.1-0.55,3.88-1.64,5.33c-1.1,1.46-2.62,2.44-4.57,2.95
		c-0.12,0.06-0.15,0.14-0.09,0.23l6.52,13.5c0.03,0.06,0.04,0.14,0.04,0.23c0,0.21-0.12,0.31-0.36,0.31h-3.56
		C326.11,153.29,325.95,153.19,325.86,152.98z M312.72,125.71v10.08c0,0.12,0.06,0.18,0.18,0.18h7.51c1.59,0,2.86-0.47,3.83-1.42
		c0.96-0.94,1.44-2.2,1.44-3.76c0-1.59-0.48-2.86-1.44-3.83c-0.96-0.96-2.24-1.44-3.83-1.44h-7.51
		C312.78,125.53,312.72,125.59,312.72,125.71z"/>
	<path d="M356.46,125.53h-15.97c-0.12,0-0.18,0.06-0.18,0.18v9.67c0,0.12,0.06,0.18,0.18,0.18h10.98c0.3,0,0.45,0.15,0.45,0.45v2.83
		c0,0.3-0.15,0.45-0.45,0.45h-10.98c-0.12,0-0.18,0.06-0.18,0.18v9.9c0,0.12,0.06,0.18,0.18,0.18h15.97c0.3,0,0.45,0.15,0.45,0.45
		v2.83c0,0.3-0.15,0.45-0.45,0.45h-20.03c-0.3,0-0.45-0.15-0.45-0.45v-30.6c0-0.3,0.15-0.45,0.45-0.45h20.03
		c0.3,0,0.45,0.15,0.45,0.45v2.83C356.91,125.38,356.76,125.53,356.46,125.53z"/>
	<path d="M370.18,152.8v-12.64c0-0.12-0.02-0.19-0.05-0.23l-9.36-17.59c-0.03-0.06-0.04-0.14-0.04-0.23c0-0.21,0.12-0.31,0.36-0.31
		h3.69c0.27,0,0.45,0.11,0.54,0.31l6.88,13.19c0.03,0.06,0.07,0.09,0.13,0.09s0.11-0.03,0.14-0.09l6.88-13.19
		c0.09-0.21,0.27-0.31,0.54-0.31h3.73c0.15,0,0.26,0.05,0.34,0.16c0.07,0.11,0.07,0.23-0.02,0.38l-9.41,17.59
		c-0.03,0.03-0.04,0.11-0.04,0.23v12.64c0,0.3-0.15,0.45-0.45,0.45h-3.42C370.33,153.25,370.18,153.1,370.18,152.8z"/>
	<path d="M406.68,152.98l-6.3-13.46c-0.03-0.09-0.09-0.13-0.18-0.13h-6.48c-0.12,0-0.18,0.06-0.18,0.18v13.27
		c0,0.3-0.15,0.45-0.45,0.45h-3.42c-0.3,0-0.45-0.15-0.45-0.45v-30.6c0-0.3,0.15-0.45,0.45-0.45h12.11c1.8,0,3.38,0.38,4.75,1.12
		c1.37,0.75,2.42,1.8,3.17,3.15c0.75,1.35,1.12,2.91,1.12,4.68c0,2.1-0.55,3.88-1.64,5.33c-1.1,1.46-2.62,2.44-4.57,2.95
		c-0.12,0.06-0.15,0.14-0.09,0.23l6.52,13.5c0.03,0.06,0.04,0.14,0.04,0.23c0,0.21-0.12,0.31-0.36,0.31h-3.56
		C406.93,153.29,406.77,153.19,406.68,152.98z M393.53,125.71v10.08c0,0.12,0.06,0.18,0.18,0.18h7.51c1.59,0,2.86-0.47,3.83-1.42
		c0.96-0.94,1.44-2.2,1.44-3.76c0-1.59-0.48-2.86-1.44-3.83c-0.96-0.96-2.24-1.44-3.83-1.44h-7.51
		C393.59,125.53,393.53,125.59,393.53,125.71z"/>
	<path d="M436.69,152.93l-1.62-5.27c-0.03-0.09-0.09-0.13-0.18-0.13h-12.64c-0.09,0-0.15,0.04-0.18,0.13l-1.62,5.27
		c-0.09,0.24-0.27,0.36-0.54,0.36h-3.65c-0.33,0-0.45-0.16-0.36-0.5l9.85-30.64c0.09-0.24,0.27-0.36,0.54-0.36h4.5
		c0.27,0,0.45,0.12,0.54,0.36l9.95,30.64l0.04,0.18c0,0.21-0.13,0.31-0.41,0.31h-3.69C436.96,153.29,436.78,153.17,436.69,152.93z
		 M423.21,144.04c0.04,0.04,0.1,0.07,0.16,0.07h10.35c0.06,0,0.11-0.02,0.16-0.07s0.05-0.1,0.02-0.16l-5.22-16.7
		c-0.03-0.06-0.08-0.09-0.13-0.09c-0.06,0-0.11,0.03-0.13,0.09l-5.22,16.7C423.16,143.95,423.17,144,423.21,144.04z"/>
</g>
<g>
</g>
<g>
</g>
<g>
</g>
<g>
</g>
<g>
</g>
<g>
</g>
</svg>
