<?xml version="1.0" encoding="utf-8"?>
<!-- Generator: Adobe Illustrator 25.2.1, SVG Export Plug-In . SVG Version: 6.00 Build 0)  -->
<svg version="1.1" id="Capa_1" xmlns="http://www.w3.org/2000/svg" xmlns:xlink="http://www.w3.org/1999/xlink" x="0px" y="0px"
	 viewBox="0 0 668 561.9" style="enable-background:new 0 0 668 561.9;" xml:space="preserve">
<style type="text/css">
	.st0{fill:#6D48C6;stroke:#000000;stroke-width:2.1982;stroke-miterlimit:10;}
	.st1{fill:#8CCCF1;stroke:#000000;stroke-width:2;stroke-miterlimit:10;}
	.st2{fill:#EB5B4B;stroke:#000000;stroke-width:2.1982;stroke-miterlimit:10;}
	.st3{fill:#FCC468;stroke:#000000;stroke-width:2;stroke-miterlimit:10;}
</style>
<g>
	<path class="st0" d="M450.1,112.2H83.9c-14,0-25.4,11.4-25.4,25.4v57.3c0,14,11.4,25.4,25.4,25.4h22.6l22.7,34.9
		c1.9,2.9,6.3,2.6,7.8-0.5l16.6-34.4h296.6c14,0,25.4-11.4,25.4-25.4v-57.3C475.5,123.6,464.1,112.2,450.1,112.2z"/>
	<path class="st1" d="M455.1,99.2H88.9c-14,0-25.4,11.4-25.4,25.4v57.3c0,14,11.4,25.4,25.4,25.4h22.6l22.7,34.9
		c1.9,2.9,6.3,2.6,7.8-0.5l16.6-34.4h296.6c14,0,25.4-11.4,25.4-25.4v-57.3C480.5,110.6,469.1,99.2,455.1,99.2z"/>
</g>
<g>
	<path class="st2" d="M236.9,263.3h366.3c14,0,25.4,11.4,25.4,25.4v57.3c0,14-11.4,25.4-25.4,25.4h-22.6l-22.7,34.9
		c-1.9,2.9-6.3,2.6-7.8-0.5l-16.6-34.4H236.9c-14,0-25.4-11.4-25.4-25.4v-57.3C211.5,274.6,222.9,263.3,236.9,263.3z"/>
	<path class="st3" d="M231.9,250.3h366.3c14,0,25.4,11.4,25.4,25.4v57.3c0,14-11.4,25.4-25.4,25.4h-22.6l-22.7,34.9
		c-1.9,2.9-6.3,2.6-7.8-0.5l-16.6-34.4H231.9c-14,0-25.4-11.4-25.4-25.4v-57.3C206.5,261.6,217.9,250.3,231.9,250.3z"/>
</g>
<g>
	<path d="M178.7,140.6v2.9c0,0.3-0.2,0.4-0.5,0.4h-8.6c-0.1,0-0.2,0.1-0.2,0.2v27.1c0,0.3-0.2,0.5-0.5,0.5h-3.4
		c-0.3,0-0.4-0.2-0.4-0.5v-27.1c0-0.1-0.1-0.2-0.2-0.2h-8.2c-0.3,0-0.5-0.1-0.5-0.4v-2.9c0-0.3,0.1-0.5,0.5-0.5h21.6
		C178.5,140.2,178.7,140.3,178.7,140.6z"/>
	<path d="M189,170.7c-1.7-0.9-3-2.1-3.9-3.6c-0.9-1.6-1.4-3.4-1.4-5.4v-21.1c0-0.3,0.1-0.5,0.5-0.5h3.4c0.3,0,0.4,0.2,0.4,0.5v21.1
		c0,2,0.6,3.5,1.9,4.7c1.2,1.2,2.9,1.8,4.9,1.8c2,0,3.6-0.6,4.9-1.8c1.2-1.2,1.8-2.8,1.8-4.7v-21.1c0-0.3,0.2-0.5,0.5-0.5h3.4
		c0.3,0,0.5,0.2,0.5,0.5v21.1c0,2-0.5,3.8-1.4,5.4c-0.9,1.6-2.2,2.8-3.9,3.6c-1.7,0.9-3.6,1.3-5.8,1.3S190.6,171.6,189,170.7z"/>
	<path d="M226.3,170.7c-1.7-0.9-3-2.2-3.9-3.8c-0.9-1.6-1.4-3.5-1.4-5.6v-10.7c0-2.1,0.5-4,1.4-5.6c0.9-1.6,2.2-2.9,3.9-3.8
		c1.7-0.9,3.6-1.4,5.8-1.4c2.2,0,4.2,0.4,5.8,1.4c1.7,0.9,3,2.2,3.9,3.8s1.4,3.5,1.4,5.6v10.7c0,2.1-0.5,4-1.4,5.6
		c-0.9,1.6-2.2,2.9-3.9,3.8c-1.7,0.9-3.6,1.3-5.8,1.3C229.9,172.1,228,171.6,226.3,170.7z M237.1,166.4c1.3-1.3,1.9-2.9,1.9-5v-10.9
		c0-2.1-0.6-3.8-1.9-5.1c-1.3-1.3-2.9-1.9-5-1.9s-3.7,0.6-4.9,1.9c-1.2,1.3-1.9,3-1.9,5.1v10.9c0,2.1,0.6,3.7,1.9,5
		c1.2,1.3,2.9,1.9,4.9,1.9S235.8,167.7,237.1,166.4z"/>
	<path d="M267,141.3c1.4,0.8,2.5,1.8,3.2,3.2c0.8,1.4,1.1,3,1.1,4.8s-0.4,3.4-1.2,4.7c-0.8,1.4-1.9,2.4-3.3,3.2
		c-1.4,0.8-3.1,1.1-4.9,1.1h-7.9c-0.1,0-0.2,0.1-0.2,0.2v12.8c0,0.3-0.2,0.5-0.5,0.5H250c-0.3,0-0.5-0.2-0.5-0.5v-30.6
		c0-0.3,0.1-0.4,0.5-0.4h12.1C264,140.1,265.6,140.5,267,141.3z M265.6,153.3c1-1,1.5-2.3,1.5-3.9c0-1.6-0.5-3-1.5-4
		c-1-1-2.3-1.5-4-1.5h-7.5c-0.1,0-0.2,0.1-0.2,0.2v10.5c0,0.1,0.1,0.2,0.2,0.2h7.5C263.2,154.7,264.6,154.3,265.6,153.3z"/>
	<path d="M276.5,171.2v-30.6c0-0.3,0.2-0.5,0.5-0.5h3.4c0.3,0,0.5,0.2,0.5,0.5v30.6c0,0.3-0.2,0.5-0.5,0.5H277
		C276.7,171.7,276.5,171.5,276.5,171.2z"/>
	<path d="M307.2,140.2h3.4c0.3,0,0.4,0.2,0.4,0.5v30.6c0,0.3-0.2,0.5-0.4,0.5h-3.3c-0.2,0-0.4-0.1-0.5-0.3l-14.1-23
		c0-0.1-0.1-0.1-0.1-0.1c-0.1,0-0.1,0.1-0.1,0.2l0,22.8c0,0.3-0.2,0.5-0.4,0.5h-3.4c-0.3,0-0.5-0.2-0.5-0.5v-30.6
		c0-0.3,0.1-0.5,0.5-0.5h3.3c0.2,0,0.4,0.1,0.5,0.3l14,23c0,0.1,0.1,0.1,0.1,0.1c0.1,0,0.1-0.1,0.1-0.2l0-22.8
		C306.8,140.3,306.9,140.2,307.2,140.2z"/>
	<path d="M318.5,171.2v-30.6c0-0.3,0.2-0.5,0.5-0.5h3.4c0.3,0,0.5,0.2,0.5,0.5v30.6c0,0.3-0.2,0.5-0.5,0.5H319
		C318.7,171.7,318.5,171.5,318.5,171.2z"/>
	<path d="M334.7,170.7c-1.7-0.9-3-2.2-3.9-3.8c-0.9-1.6-1.4-3.5-1.4-5.6v-10.7c0-2.1,0.5-4,1.4-5.6c0.9-1.6,2.2-2.9,3.9-3.8
		c1.7-0.9,3.6-1.4,5.8-1.4c2.2,0,4.2,0.4,5.8,1.4c1.7,0.9,3,2.2,3.9,3.8s1.4,3.5,1.4,5.6v10.7c0,2.1-0.5,4-1.4,5.6
		c-0.9,1.6-2.2,2.9-3.9,3.8c-1.7,0.9-3.6,1.3-5.8,1.3C338.3,172.1,336.3,171.6,334.7,170.7z M345.4,166.4c1.3-1.3,1.9-2.9,1.9-5
		v-10.9c0-2.1-0.6-3.8-1.9-5.1c-1.3-1.3-2.9-1.9-5-1.9s-3.7,0.6-4.9,1.9c-1.2,1.3-1.9,3-1.9,5.1v10.9c0,2.1,0.6,3.7,1.9,5
		c1.2,1.3,2.9,1.9,4.9,1.9S344.2,167.7,345.4,166.4z M338.2,137.1c-0.1-0.1-0.1-0.2,0-0.4l2.7-4.9c0.1-0.2,0.3-0.3,0.5-0.3h3
		c0.2,0,0.3,0.1,0.3,0.2c0,0.1,0,0.2-0.1,0.4l-3.2,4.9c-0.2,0.2-0.3,0.3-0.5,0.3h-2.4C338.4,137.3,338.3,137.2,338.2,137.1z"/>
	<path d="M377.2,140.2h3.4c0.3,0,0.5,0.2,0.5,0.5v30.6c0,0.3-0.2,0.5-0.5,0.5h-3.3c-0.2,0-0.4-0.1-0.5-0.3l-14.1-23
		c0-0.1-0.1-0.1-0.1-0.1c-0.1,0-0.1,0.1-0.1,0.2l0,22.8c0,0.3-0.2,0.5-0.5,0.5h-3.4c-0.3,0-0.5-0.2-0.5-0.5v-30.6
		c0-0.3,0.2-0.5,0.5-0.5h3.3c0.2,0,0.4,0.1,0.5,0.3l14,23c0,0.1,0.1,0.1,0.1,0.1c0.1,0,0.1-0.1,0.1-0.2l0-22.8
		C376.7,140.3,376.9,140.2,377.2,140.2z"/>
</g>
<g>
	<path d="M308.4,291.2h2.3c0.3,0,0.5,0.2,0.5,0.5v30.6c0,0.3-0.2,0.5-0.5,0.5h-2.2c-0.2,0-0.4-0.1-0.5-0.3l-15.3-25
		c0-0.1-0.1-0.1-0.1-0.1c-0.1,0-0.1,0.1-0.1,0.2l0,24.8c0,0.3-0.2,0.5-0.4,0.5h-2.3c-0.3,0-0.5-0.1-0.5-0.5v-30.6
		c0-0.3,0.1-0.5,0.5-0.5h2.2c0.2,0,0.4,0.1,0.5,0.3l15.3,25c0,0.1,0.1,0.1,0.1,0.1c0.1,0,0.1-0.1,0.1-0.2l0-24.8
		C308,291.4,308.1,291.2,308.4,291.2z"/>
	<path d="M323.7,321.8c-1.6-0.9-2.9-2.1-3.8-3.7s-1.3-3.4-1.3-5.5v-11.3c0-2.1,0.4-3.9,1.3-5.5c0.9-1.6,2.1-2.8,3.8-3.7
		s3.5-1.3,5.6-1.3c2.1,0,4,0.4,5.6,1.3c1.6,0.9,2.9,2.1,3.8,3.7c0.9,1.6,1.3,3.4,1.3,5.5v11.3c0,2.1-0.4,3.9-1.3,5.5
		c-0.9,1.6-2.1,2.8-3.8,3.7c-1.6,0.9-3.5,1.3-5.6,1.3C327.2,323.1,325.3,322.7,323.7,321.8z M334.8,318.3c1.4-1.4,2.1-3.2,2.1-5.5
		v-11.5c0-2.3-0.7-4.1-2.1-5.5c-1.4-1.4-3.2-2.1-5.5-2.1c-2.2,0-4.1,0.7-5.4,2.1c-1.4,1.4-2.1,3.2-2.1,5.5v11.5
		c0,2.3,0.7,4.1,2.1,5.5c1.4,1.4,3.2,2.1,5.4,2.1C331.6,320.3,333.4,319.7,334.8,318.3z"/>
	<path d="M348.7,320.8c-2-1.5-2.9-3.6-2.9-6.1v-1.4c0-0.3,0.1-0.4,0.5-0.4h2.2c0.3,0,0.4,0.2,0.4,0.4v1.2c0,1.7,0.7,3.1,2.2,4.2
		c1.4,1.1,3.4,1.6,6,1.6c2.3,0,4.1-0.5,5.3-1.5c1.2-1,1.8-2.3,1.8-3.9c0-1-0.3-1.9-0.8-2.7c-0.6-0.8-1.4-1.5-2.6-2.1
		s-2.8-1.4-4.9-2.3c-2.2-0.9-4-1.7-5.2-2.4c-1.2-0.7-2.2-1.5-3-2.6c-0.8-1.1-1.1-2.4-1.1-4c0-2.5,0.9-4.5,2.6-5.9
		c1.8-1.4,4.2-2.1,7.2-2.1c3.3,0,6,0.8,7.9,2.3c1.9,1.6,2.9,3.6,2.9,6.2v1c0,0.3-0.2,0.4-0.5,0.4h-2.2c-0.3,0-0.5-0.1-0.5-0.4v-0.8
		c0-1.7-0.7-3.2-2-4.3c-1.4-1.1-3.3-1.7-5.7-1.7c-2.1,0-3.8,0.4-4.9,1.3c-1.1,0.9-1.7,2.1-1.7,3.8c0,1.1,0.3,2,0.8,2.7
		c0.6,0.7,1.3,1.3,2.4,1.8s2.6,1.2,4.8,2c2.2,0.9,4,1.7,5.3,2.5s2.4,1.7,3.2,2.9s1.2,2.5,1.2,4.1c0,2.5-0.9,4.5-2.8,6
		s-4.4,2.2-7.7,2.2C353.3,323.1,350.6,322.3,348.7,320.8z"/>
	<path d="M382.9,322.3v-30.6c0-0.3,0.1-0.5,0.5-0.5h2.3c0.3,0,0.4,0.2,0.4,0.5v30.6c0,0.3-0.2,0.5-0.4,0.5h-2.3
		C383,322.7,382.9,322.6,382.9,322.3z"/>
	<path d="M415.5,291.2h2.3c0.3,0,0.5,0.2,0.5,0.5v30.6c0,0.3-0.2,0.5-0.5,0.5h-2.3c-0.3,0-0.5-0.1-0.5-0.5v-25c0-0.1,0-0.1-0.1-0.2
		c-0.1,0-0.1,0-0.1,0.1l-7.3,11.2c-0.2,0.2-0.3,0.3-0.5,0.3h-1.2c-0.2,0-0.4-0.1-0.5-0.3l-7.3-11.2c0-0.1-0.1-0.1-0.1-0.1
		c-0.1,0-0.1,0.1-0.1,0.2v24.9c0,0.3-0.2,0.5-0.4,0.5H395c-0.3,0-0.5-0.1-0.5-0.5v-30.6c0-0.3,0.1-0.5,0.5-0.5h2.3
		c0.2,0,0.4,0.1,0.5,0.3l8.5,12.8c0,0,0.1,0,0.1,0c0.1,0,0.1,0,0.1,0l8.4-12.8C415.1,291.3,415.3,291.2,415.5,291.2z"/>
	<path d="M445,293.6c1.6,1.6,2.4,3.8,2.4,6.4c0,2.6-0.8,4.7-2.5,6.3c-1.6,1.6-3.8,2.4-6.5,2.4h-8.8c-0.1,0-0.2,0.1-0.2,0.2v13.4
		c0,0.3-0.2,0.5-0.5,0.5h-2.3c-0.3,0-0.5-0.1-0.5-0.5v-30.6c0-0.3,0.2-0.5,0.5-0.5h11.8C441.3,291.2,443.4,292,445,293.6z
		 M442.6,304.4c1.1-1.1,1.7-2.5,1.7-4.3c0-1.8-0.6-3.3-1.7-4.4c-1.1-1.1-2.5-1.7-4.3-1.7h-8.5c-0.1,0-0.2,0.1-0.2,0.2v11.7
		c0,0.1,0.1,0.2,0.2,0.2h8.5C440.1,306,441.5,305.5,442.6,304.4z"/>
	<path d="M457.4,321.8c-1.6-0.9-2.9-2.1-3.8-3.7s-1.3-3.4-1.3-5.5v-11.3c0-2.1,0.4-3.9,1.3-5.5c0.9-1.6,2.1-2.8,3.8-3.7
		s3.5-1.3,5.6-1.3c2.1,0,4,0.4,5.6,1.3c1.6,0.9,2.9,2.1,3.8,3.7c0.9,1.6,1.3,3.4,1.3,5.5v11.3c0,2.1-0.4,3.9-1.3,5.5
		c-0.9,1.6-2.1,2.8-3.8,3.7c-1.6,0.9-3.5,1.3-5.6,1.3C460.9,323.1,459.1,322.7,457.4,321.8z M468.6,318.3c1.4-1.4,2.1-3.2,2.1-5.5
		v-11.5c0-2.3-0.7-4.1-2.1-5.5c-1.4-1.4-3.2-2.1-5.5-2.1c-2.2,0-4.1,0.7-5.4,2.1c-1.4,1.4-2.1,3.2-2.1,5.5v11.5
		c0,2.3,0.7,4.1,2.1,5.5c1.4,1.4,3.2,2.1,5.4,2.1C465.3,320.3,467.2,319.7,468.6,318.3z"/>
	<path d="M499.2,322.4l-6.6-14c0-0.1-0.1-0.1-0.2-0.1h-7.7c-0.1,0-0.2,0.1-0.2,0.2v13.8c0,0.3-0.2,0.5-0.5,0.5h-2.3
		c-0.3,0-0.5-0.1-0.5-0.5v-30.6c0-0.3,0.2-0.5,0.5-0.5h11.7c2.6,0,4.7,0.8,6.3,2.4c1.6,1.6,2.4,3.7,2.4,6.3c0,2.1-0.6,3.9-1.7,5.4
		c-1.1,1.5-2.7,2.4-4.6,2.8c-0.1,0.1-0.2,0.1-0.1,0.2l6.8,13.9c0,0.1,0,0.1,0,0.2c0,0.2-0.1,0.3-0.4,0.3h-2.4
		C499.4,322.7,499.2,322.6,499.2,322.4z M484.5,294.2v11.4c0,0.1,0.1,0.2,0.2,0.2h8.4c1.7,0,3.2-0.5,4.2-1.6s1.6-2.5,1.6-4.2
		s-0.5-3.2-1.6-4.3c-1.1-1.1-2.5-1.6-4.2-1.6h-8.4C484.6,294,484.5,294.1,484.5,294.2z"/>
	<path d="M528.3,291.7v1.9c0,0.3-0.2,0.5-0.4,0.5H519c-0.1,0-0.2,0.1-0.2,0.2v28c0,0.3-0.2,0.5-0.5,0.5h-2.3c-0.3,0-0.5-0.1-0.5-0.5
		v-28c0-0.1-0.1-0.2-0.2-0.2H507c-0.3,0-0.4-0.1-0.4-0.5v-1.9c0-0.3,0.1-0.5,0.4-0.5h20.8C528.1,291.2,528.3,291.4,528.3,291.7z"/>
	<path d="M550,322.4l-1.8-5.7c0-0.1-0.1-0.1-0.2-0.1h-13.5c-0.1,0-0.2,0-0.2,0.1l-1.8,5.7c-0.1,0.2-0.3,0.4-0.5,0.4h-2.4
		c-0.3,0-0.5-0.2-0.4-0.5l9.9-30.6c0.1-0.2,0.3-0.4,0.5-0.4h3.1c0.3,0,0.5,0.1,0.5,0.4l10,30.6l0,0.2c0,0.2-0.1,0.3-0.4,0.3h-2.4
		C550.3,322.7,550.1,322.6,550,322.4z M535.4,313.9c0,0,0.1,0.1,0.2,0.1h11.6c0.1,0,0.1,0,0.2-0.1c0,0,0.1-0.1,0-0.2l-5.9-18.4
		c0-0.1-0.1-0.1-0.1-0.1c-0.1,0-0.1,0-0.1,0.1l-5.9,18.4C535.3,313.8,535.3,313.8,535.4,313.9z"/>
</g>
</svg>
