<?xml version="1.0" encoding="utf-8"?>
<!-- Generator: Adobe Illustrator 25.2.1, SVG Export Plug-In . SVG Version: 6.00 Build 0)  -->
<svg version="1.1" id="Capa_1" xmlns="http://www.w3.org/2000/svg" xmlns:xlink="http://www.w3.org/1999/xlink" x="0px" y="0px"
	 viewBox="0 0 400 300" style="enable-background:new 0 0 400 300;" xml:space="preserve">
<style type="text/css">
	.st0{fill:#EB5B4B;}
	.st1{fill:#FCC468;}
</style>
<path class="st0" d="M330.97,77H69.03C58.52,77,50,85.52,50,96.02v69.95C50,176.48,58.52,185,69.03,185h12.89l12.53,32.83
	c1.64,4.3,7.7,4.37,9.44,0.11L117.33,185h213.65c10.51,0,19.03-8.52,19.03-19.03V96.02C350,85.52,341.48,77,330.97,77z"/>
<path class="st1" d="M333.92,71.46H71.98c-10.51,0-19.03,8.52-19.03,19.03v69.95c0,10.51,8.52,19.03,19.03,19.03h12.89L97.4,212.3
	c1.64,4.3,7.7,4.37,9.44,0.11l13.44-32.94h213.65c10.51,0,19.03-8.52,19.03-19.03V90.49C352.95,79.98,344.43,71.46,333.92,71.46z"/>
<g>
	<path d="M130.72,140.2l-1.62-5.27c-0.03-0.09-0.09-0.13-0.18-0.13h-12.65c-0.09,0-0.15,0.04-0.18,0.13l-1.62,5.27
		c-0.09,0.24-0.27,0.36-0.54,0.36h-3.65c-0.33,0-0.45-0.16-0.36-0.5l9.85-30.65c0.09-0.24,0.27-0.36,0.54-0.36h4.5
		c0.27,0,0.45,0.12,0.54,0.36l9.95,30.65l0.04,0.18c0,0.21-0.14,0.31-0.41,0.31h-3.69C130.99,140.56,130.81,140.44,130.72,140.2z
		 M117.25,131.31c0.04,0.04,0.1,0.07,0.16,0.07h10.35c0.06,0,0.11-0.02,0.16-0.07s0.05-0.1,0.02-0.16l-5.22-16.7
		c-0.03-0.06-0.08-0.09-0.14-0.09c-0.06,0-0.11,0.03-0.13,0.09l-5.22,16.7C117.19,131.22,117.2,131.27,117.25,131.31z"/>
	<path d="M145.06,139.64c-1.67-0.85-2.96-2.07-3.89-3.65c-0.93-1.58-1.4-3.38-1.4-5.42v-21.06c0-0.3,0.15-0.45,0.45-0.45h3.42
		c0.3,0,0.45,0.15,0.45,0.45v21.15c0,1.95,0.62,3.53,1.87,4.73c1.24,1.2,2.87,1.8,4.88,1.8c2.01,0,3.63-0.6,4.86-1.8
		c1.23-1.2,1.84-2.77,1.84-4.73v-21.15c0-0.3,0.15-0.45,0.45-0.45h3.42c0.3,0,0.45,0.15,0.45,0.45v21.06c0,2.04-0.46,3.85-1.37,5.42
		c-0.92,1.57-2.21,2.79-3.87,3.65s-3.59,1.28-5.78,1.28S146.72,140.49,145.06,139.64z"/>
	<path d="M189.4,109.51v2.88c0,0.3-0.15,0.45-0.45,0.45h-8.64c-0.12,0-0.18,0.06-0.18,0.18v27.09c0,0.3-0.15,0.45-0.45,0.45h-3.42
		c-0.3,0-0.45-0.15-0.45-0.45v-27.09c0-0.12-0.06-0.18-0.18-0.18h-8.23c-0.3,0-0.45-0.15-0.45-0.45v-2.88c0-0.3,0.15-0.45,0.45-0.45
		h21.55C189.25,109.06,189.4,109.21,189.4,109.51z"/>
	<path d="M197.37,139.62c-1.68-0.9-2.99-2.17-3.92-3.8c-0.93-1.63-1.4-3.52-1.4-5.65v-10.71c0-2.13,0.46-4,1.4-5.62
		c0.93-1.62,2.23-2.88,3.92-3.78c1.68-0.9,3.61-1.35,5.8-1.35c2.22,0,4.17,0.45,5.85,1.35c1.68,0.9,2.99,2.16,3.92,3.78
		s1.4,3.5,1.4,5.62v10.71c0,2.13-0.47,4.01-1.4,5.65c-0.93,1.64-2.24,2.9-3.92,3.8c-1.68,0.9-3.63,1.35-5.85,1.35
		C200.98,140.97,199.05,140.52,197.37,139.62z M208.12,135.34c1.26-1.26,1.89-2.92,1.89-4.99v-10.94c0-2.1-0.63-3.79-1.89-5.06
		c-1.26-1.27-2.91-1.91-4.95-1.91s-3.68,0.64-4.93,1.91c-1.25,1.28-1.87,2.96-1.87,5.06v10.94c0,2.07,0.62,3.73,1.87,4.99
		c1.24,1.26,2.89,1.89,4.93,1.89S206.86,136.6,208.12,135.34z"/>
	<path d="M238.36,140.25l-6.3-13.46c-0.03-0.09-0.09-0.13-0.18-0.13h-6.48c-0.12,0-0.18,0.06-0.18,0.18v13.27
		c0,0.3-0.15,0.45-0.45,0.45h-3.42c-0.3,0-0.45-0.15-0.45-0.45v-30.6c0-0.3,0.15-0.45,0.45-0.45h12.11c1.8,0,3.38,0.38,4.75,1.12
		c1.37,0.75,2.42,1.8,3.17,3.15c0.75,1.35,1.12,2.91,1.12,4.68c0,2.1-0.55,3.88-1.64,5.33c-1.1,1.46-2.62,2.44-4.57,2.95
		c-0.12,0.06-0.15,0.14-0.09,0.23l6.52,13.5c0.03,0.06,0.04,0.14,0.04,0.23c0,0.21-0.12,0.31-0.36,0.31h-3.56
		C238.62,140.56,238.45,140.46,238.36,140.25z M225.22,112.98v10.08c0,0.12,0.06,0.18,0.18,0.18h7.51c1.59,0,2.86-0.47,3.83-1.42
		c0.96-0.94,1.44-2.2,1.44-3.76c0-1.59-0.48-2.86-1.44-3.83c-0.96-0.96-2.24-1.44-3.83-1.44h-7.51
		C225.28,112.8,225.22,112.86,225.22,112.98z"/>
	<path d="M268.96,112.8h-15.97c-0.12,0-0.18,0.06-0.18,0.18v9.67c0,0.12,0.06,0.18,0.18,0.18h10.98c0.3,0,0.45,0.15,0.45,0.45v2.83
		c0,0.3-0.15,0.45-0.45,0.45h-10.98c-0.12,0-0.18,0.06-0.18,0.18v9.9c0,0.12,0.06,0.18,0.18,0.18h15.97c0.3,0,0.45,0.15,0.45,0.45
		v2.83c0,0.3-0.15,0.45-0.45,0.45h-20.03c-0.3,0-0.45-0.15-0.45-0.45v-30.6c0-0.3,0.15-0.45,0.45-0.45h20.03
		c0.3,0,0.45,0.15,0.45,0.45v2.83C269.41,112.65,269.26,112.8,268.96,112.8z"/>
	<path d="M279.11,139.84c-1.7-0.72-3-1.74-3.92-3.06c-0.92-1.32-1.37-2.86-1.37-4.64v-1.31c0-0.3,0.15-0.45,0.45-0.45h3.28
		c0.3,0,0.45,0.15,0.45,0.45v1.08c0,1.53,0.66,2.79,1.98,3.78c1.32,0.99,3.13,1.48,5.44,1.48c2.07,0,3.63-0.43,4.68-1.31
		c1.05-0.87,1.58-2.01,1.58-3.42c0-0.93-0.27-1.72-0.81-2.38c-0.54-0.66-1.33-1.27-2.36-1.82c-1.04-0.55-2.54-1.22-4.52-2
		c-2.19-0.84-3.92-1.6-5.2-2.29c-1.28-0.69-2.33-1.6-3.17-2.72s-1.26-2.54-1.26-4.25c0-2.58,0.92-4.6,2.77-6.07
		c1.84-1.47,4.34-2.21,7.49-2.21c2.22,0,4.17,0.38,5.85,1.12c1.68,0.75,2.98,1.8,3.89,3.15s1.37,2.91,1.37,4.68v0.9
		c0,0.3-0.15,0.45-0.45,0.45h-3.38c-0.3,0-0.45-0.15-0.45-0.45v-0.68c0-1.56-0.62-2.86-1.87-3.89c-1.25-1.04-2.96-1.55-5.15-1.55
		c-1.86,0-3.3,0.38-4.32,1.15c-1.02,0.77-1.53,1.87-1.53,3.31c0,0.99,0.25,1.8,0.77,2.43c0.51,0.63,1.27,1.19,2.27,1.69
		c1,0.5,2.54,1.13,4.61,1.91c2.13,0.84,3.85,1.61,5.17,2.32c1.32,0.71,2.42,1.64,3.29,2.79c0.87,1.16,1.3,2.59,1.3,4.3
		c0,2.64-0.97,4.73-2.9,6.28c-1.93,1.55-4.6,2.32-7.99,2.32C282.81,140.92,280.8,140.56,279.11,139.84z"/>
</g>
<g>
</g>
<g>
</g>
<g>
</g>
<g>
</g>
<g>
</g>
<g>
</g>
</svg>
