<?xml version="1.0" encoding="utf-8"?>
<!-- Generator: Adobe Illustrator 25.2.1, SVG Export Plug-In . SVG Version: 6.00 Build 0)  -->
<svg version="1.1" id="Capa_1" xmlns="http://www.w3.org/2000/svg" xmlns:xlink="http://www.w3.org/1999/xlink" x="0px" y="0px"
	 viewBox="0 0 848.69 1080" style="enable-background:new 0 0 848.69 1080;" xml:space="preserve">
<style type="text/css">
	.st0{fill:#56ADDF;stroke:#000000;stroke-width:3;stroke-miterlimit:10;}
	.st1{fill:#8DCCF1;stroke:#000000;stroke-width:3;stroke-miterlimit:10;}
	.st2{fill:#FFFFFF;}
	.st3{fill:#020203;}
	.st4{fill:none;stroke:#020203;stroke-width:2.91;stroke-miterlimit:10;}
</style>
<g>
	<path class="st0" d="M648.35,846.72H214.96c-34.96,0-63.31-28.34-63.31-63.31V263.03c0-34.96,28.34-63.31,63.31-63.31h433.38
		c34.96,0,63.31,28.34,63.31,63.31v520.38C711.66,818.38,683.31,846.72,648.35,846.72z"/>
	<path class="st1" d="M614.61,812.98H181.22c-34.96,0-63.31-28.34-63.31-63.31V229.29c0-34.96,28.34-63.31,63.31-63.31h433.38
		c34.96,0,63.31,28.34,63.31,63.31v520.38C677.91,784.64,649.57,812.98,614.61,812.98z"/>
</g>
<g>
	<path class="st2" d="M386.28,708.45c0,0-40.94-6.73-22.12,18.36c0,0,25.48,39,47.56-2.41c0,0,35.13-53.18,26.08-103.71
		c0,0,43.34-3.94,40.76,49.27l0.44,5.71c0,0,33.57-46.62,20.57-74c0,0-9.55-18.88-44.92-29c0,0-22.57-18.29-34.3-40.23
		c0,0,76.42,24.59,102.31-48.46c0,0,48-72.9-38.82-140.36c0,0-86.62-60.38-117.13-52.41c0,0-91.2,20.56-110.79,106.6
		c0,0,4.56,23.69,12,36.42c0,0-49.83,23.81-44.12,52.41c0,0,11.27,0.55,17.69,9.77c0,0,11.82,16.32,20.9-7.54
		c0,0,22.11-3.34,20.52-19.35c0,0,19.18,6.62,18.43,14.46c0,0-14.27-1.82-10.71,21.89c0,0-8.09,13.68-7.17,17.29
		c0,0-18.38,16-14.45,33.44c3.93,17.44,8.46,24.59,8.46,24.59s4-29.13,9.08-40.13c0,0,14.07,5.05,28.79,31.59
		c0,0-45.87-4.15-14.81,46.35c0,0-27.28,18.6,8.31,48.91c0,0,55.46,36.47,36.12-31.07c0,0,21,0.76,36.31,23.89
		C386.47,676.06,388.18,692.36,386.28,708.45z"/>
	<path class="st3" d="M271.19,539.12c1-1.86,10.66-16.71,12-19.2c-0.26-6.45,1.36-12.83,4.65-18.38c1.7-3,0.12-5.28-0.51-7.74
		c-1.18-4.68,0.51-8.75,5-10.4c1.82-0.68,3.77-1,6-1.57c-3-6.11-8.25-9.35-15.36-12.29c1.33,3.69,1.54,6.33,0.35,9.09
		c-2.16,5-5.23,8.41-11,9.17c-3.5,0.46-6.6,1.32-8.11,5.75c-1.36,4.23-4.84,7.45-9.16,8.48c-5.46,1.35-12-0.5-15.29-5.05
		c-0.63-0.87-1.14-1.83-1.8-2.68c-0.89-1.15-1.87-2.23-2.58-3.06c-6.87-0.69-12.25-2.73-14.29-9.6v-6.2c4.63-10.44,11.9-19,21-26.13
		c1.57-1.43,3.07-2.94,4.49-4.53c5.61-5.38,12.54-9.18,20.1-11c-2-4.64-3.86-9.09-5.81-13.5c-3.78-8.64-5.44-18.05-4.86-27.46
		c0.33-6.51,2.32-12.72,4.85-18.65c3.39-8,7.18-15.76,12.42-22.72c5.81-7.88,12.56-15.03,20.1-21.27c3.37-2.73,6.59-5.65,9.89-8.48
		c10.45-8.91,21.63-16.92,33.42-23.94c6.27-3.75,13.51-5.55,20.84-6.91c8.52-1.58,17-1.2,25.5-0.77s16.55,3,24.4,6.23
		c4.65,1.9,9.35,3.67,14.13,5.54l37.49-15l28.53,18.49c0.44,11.35-1.65,23.32-2.22,35.57c2.53,2.11,5.05,4.13,7.5,6.26
		c8.55,7.44,15.19,16.55,21.84,25.58c5.06,6.8,9.68,13.92,13.81,21.32c4.02,7.04,6.84,14.7,8.33,22.66
		c1.16,6.39,1.18,12.93,0.08,19.33c-0.64,3.7-0.48,7.5-1.15,11.28c-1.97,12.05-5.31,23.83-9.95,35.12c-3.74,9-8.44,17.57-14,25.57
		c-9.49,13.41-21.73,23.09-37.81,27.26c-4.2,1.04-8.51,1.54-12.84,1.47c-10.51-0.07-21-0.6-31.52-0.93c-1.77,0-3.54,0-6.26,0
		c2.11,3.65,3.4,6.85,5.52,9.37c6.51,7.73,12.8,15.74,21.74,21c2.41,1.57,4.95,2.94,7.58,4.1c12.9,4.9,24.3,12.37,35.23,20.55
		c3.11,2.33,5.28,5.89,8,9c0.43,3.42,1.09,7,1.27,10.53c0.57,11.1-1.85,21.68-5.32,32.18c-4.23,13.1-10.37,25.52-18.21,36.84
		c-0.79-17.81-3.6-34.3-12.43-49.1c-5.2-2.53-10.25-4.55-16-5.09c-3.29-0.31-6.44-2.08-9.65-3.21c-1-0.34-1.94-0.72-3.35-1.25
		c0.93,5.13,1.93,9.78,2.57,14.48c0.3,2.53,0.3,5.1,0,7.63c-0.51,5-1.47,9.95-1.91,14.95c-1.27,13.05-4.24,25.88-8.81,38.17
		c-3.19,8.84-6.5,17.65-12.05,25.3c-4.54,6.26-9,12.72-14.89,17.81c-4.92,4.25-10.57,6.67-17.36,4.65
		c-1.87-0.56-4.05-0.16-5.84-0.86c-5.66-2.2-11.46-4.32-14.77-10c-0.25-0.49-0.67-0.88-1.17-1.11c-3.74-1.36-4.29-5.1-6.06-7.93
		c-1.58-2.53-1-5.26-1-8.22c1.41-1.59,2.91-3.1,4.5-4.51c2.58-2.28,5.87-3.59,9.31-3.71c5.37-0.06,10.74-0.53,16-0.82
		c1.37-8.14-1.42-32.75-5-45.76c-7.44-6.37-14.84-12.75-22.32-19c-1.14-0.88-2.41-1.56-3.78-2c-2.51-0.91-5.09-1.62-8.32-2.63
		l2.35,22.93l1.63,2.29c0.19,9.56-5.37,15.14-14.79,15.59c-8.46,0.32-16.88-1.45-24.5-5.14c-6.36-2.93-10.91-8.19-15.24-13.59
		c-6.6-8.21-7.18-17.89-6.34-27.64c0.52-6,3.89-10.74,10.57-12.48c-2-3.11-3.9-5.85-5.53-8.73c-4-7.15-6.68-14.61-6.53-23.08
		c0.13-7.52,6.93-14.46,14.87-15.3c1.94-0.2,3.91-0.16,5.92-0.23c-2.36-11.29-13.87-26.64-22.27-27.07
		c-1.61,5.69-3.5,11.42-4.82,17.27c-1.48,6.55-1.22,13.28-1.23,20c0,1.73,0.63,3.74-1.42,5c-3.36-1.79-4.57-5.12-6.19-8.3
		c-2.44-4.62-4.31-9.52-5.59-14.59C265.58,555.22,267.04,547.04,271.19,539.12c1.24-2.36,2.25-4.85,3.62-7.12
		c0.88-1.13,1.88-2.16,3-3.06c-0.08,1.63,0.64,0.46-0.29,1.95c-4.42,7.04-8.51,17.23-8.51,25.71c0.11,7.18,1.97,14.22,5.42,20.52
		c0.9,1.43,1.91,2.8,3,4.1c0.91-6.3,1.75-11.7,2.47-17.12c0.99-7.96,3.22-15.72,6.61-23c1.44-3,2.84-6.09,4.06-8.7l-7.15-9.2
		C282.36,524.06,272.44,538.12,271.19,539.12z M420.01,530.43c8,0.65,16.23,1.67,24.46,1.89c7.23,0.35,14.48,0.12,21.67-0.68
		c4.81-0.52,9.57-1.39,14.25-2.59c5.37-1.52,10.66-3.69,14-8.55c3.47-4.82,6.58-9.88,9.31-15.15c4.22-8.64,7.92-17.54,11.65-26.41
		c3.77-8.71,6.14-17.97,7-27.42c0.85-8.64,0.11-17.37-2.18-25.75c-0.71-2.23-1.75-4.33-3.1-6.24c-3.65-5.42-8.64-9.64-13.76-13.5
		c-10.28-7.86-21.12-14.97-32.42-21.27c-11.67-6.43-23.44-12.52-36.06-16.87c-12.09-4.18-24.26-7.74-37.32-7
		c-5.93,0.37-11.71,2.05-16.91,4.92c-5.8,3.28-11.2,7.23-16.09,11.76c-8.93,7.99-17,16.89-24.08,26.55
		c-7.34,10-14,20.37-18.94,31.87c-4.56,10.74-4.72,21.21,0.34,31.78c3.52,7.12,8.18,13.63,13.8,19.25c4.79,4.94,10,9.44,15.12,14.08
		c6.43,5.87,13.9,10.13,21.23,14.08l11.68-3.94c-0.81-0.78-1.57-1.6-2.28-2.46c-2.4-3.23-4-7-3.71-10.88
		c0.42-6.38,3.43-12.3,8.34-16.4c3.44-2.9,6.87-5.81,11.09-9.39l-7.68,1.06l-1.14-1.3c2.14-3.09,6-0.75,8.07-2.87
		c4.42,2.45,10.41-0.45,13.77,4.9l-6.53-0.49c-2.03,3.32-2.87,7.24-2.36,11.1c0.64,1.55,1.38,3.05,2.22,4.5
		c2.84,4.25,6.67,6.93,12,6.81c3.25-0.07,6.49-0.34,9.73-0.47c0.27,0,0.55,0.33,1,0.63l-2.79,2.66c-1,0-1.87,0-2.77,0
		c-6.02-0.15-11.82,2.31-15.9,6.74c-2,2.05-4.27,3.84-6.65,5.95C408.35,514.12,414.78,521.19,420.01,530.43z M481.45,669.96
		c1.51-3.26,2.55-5.48,3.56-7.72c1.93-4.24,3.9-8.47,5.73-12.75c1.41-3.29,2.46-6.73,4-10c2.67-5.85,4.26-12.14,4.7-18.56
		c0.52-6.31,0.12-12.7,0.12-19.33c-2.37-2.64-4.54-5.59-7.22-8c-8.18-7.21-17.84-12.17-27.82-16.22
		c-9.37-3.69-17.9-9.22-25.09-16.26c-5.39-5.56-10.3-11.57-14.68-17.95c-5.62-7.86-10.77-15.94-18.07-22.56
		c-3.59-3.45-8.14-5.74-13.05-6.57c-7.19-1.15-14.56,0.16-20.91,3.72c-1.47,0.82-2.93,1.67-4.83,2.75c1.05,0.59,1.46,1,1.9,1
		c3.58,0.26,7.14,0.57,10.72,1c8.81,1,16.18,4.33,22.13,10.87c5.21,5.71,10.39,11.38,14.21,18.27c3.54,6.4,7.81,12.42,11.9,18.51
		c2.79,4.17,5.78,8.21,8.76,12.25c3.3,4.48,6.83,8.79,10,13.34c4.74,6.75,9.41,13.55,13.85,20.5c7.57,11.85,13.52,24.42,16.38,38.32
		c1,4.79,2.27,9.55,3.74,15.39H481.45z M348.8,662.67c-2.39-5.23-5.77-9.95-9.95-13.9c-1.46-1.37-2.84-2.83-4.13-4.36
		c-5.9-7.53-12.88-14.15-20.71-19.65c-2.36-1.61-5.14-2.47-8-2.49c-4.1,0-8.34,1-10.69,5.07c-2.17,3.55-3.34,7.62-3.38,11.78
		c0,5.96,1.74,11.79,5,16.78c5.19,8.11,13.09,14.1,22.3,16.91c4.72,1.47,9.76,1.94,14.65,2.83c0.54,0.09,1.1,0.09,1.64,0
		c1.93-0.31,3.84-0.73,5.78-1c4.09-0.54,7.24-3.88,7.52-8c0.08-1.3,0-2.58,0-3.97H348.8z M244.23,496.58
		c10.29,5.35,20.59-1.79,17.7-12c-1.25,1.19-2.37,2.38-3.63,3.39c-0.54,0.43-1.39,0.49-2.9,1c2.25-4.93,5.93-6.78,9.61-8.57
		c1.79-0.87,3.62-2.3,6.11-0.58l-2.9,1.72c-0.92,0.54-1.89,1-2.76,1.64c-0.38,0.28-0.55,0.86-1,1.55c0.8,0.73,1.55,1.4,2.22,2
		c5.82-1.48,10.92-3.51,14.24-8.63v-3.82c-1.32-1.65-2.33-3.84-4.05-4.9c-4.43-2.74-8.06-6.59-10.53-11.17
		c-4.07-7.43-10.61-9.72-18.36-9.69c-10.91,7.62-19.07,17.11-22.59,29.53c0.44,2.24,0.54,4.09,1.21,5.69c0.43,1,0.53,2.95,2.69,2.73
		c-0.7-2.24-1.32-4.24-2-6.34l2.11-3.41l1.19-0.11c0,5.12,0.21,10.1,5.42,13.06c0.53-4.54-0.82-9.16,3.19-13.92
		c0.44,5.27,0,9.4,0.34,13.9L244.23,496.58z M304.23,532.44c1.46-4.33,2.56-8.49,4.27-12.39c1.78-4.06,5-7,8.92-9.19
		c3.08-1.72,6.8-1.86,10-0.37c0.64-2.86,0.82-5.45,1.8-7.69c1.82-4.13,0.74-7.32-2.33-10.2l-2.61-2.48
		c-5.46-0.32-5.46-0.32-8.29,2.33c-0.59,2.25,4,3.31,1.08,6.43c-5.12-4.44-9.52-9.92-16.75-12.21h-6.72l-2.65,2.89
		c-0.56,5.9,1.09,11.8,4.62,16.56c0.83,1.13,1.21,2.19-0.33,3.52l-4.62-3.76c-2.83,4.9-3.17,9.81-3.07,14.85
		c0.03,2.95,1.53,5.69,4,7.3C295.39,530.84,299.92,531.57,304.23,532.44z M408.79,725.12l-7.63-0.45c-2.63-1.79-5.89-4-9.14-6.24
		c-3.48-2.4-3.53-6.91-5.74-10c-5,0.37-9.72,0.8-14.43,1c-6.22,0.3-8.63,2-10.54,7.68c-0.16,0.5-0.34,1-0.46,1.33
		c3.11,14.74,17.71,23.78,34.64,21.5c2.46-1.62,6-3.1,8.26-5.7C405.88,731.84,408.83,729.31,408.79,725.12z M463.45,624.42
		c-3.89-6-7.26-11.49-10.95-16.77c-4.59-6.59-9.46-13-14.2-19.47c-2.2-3-4.5-6-6.53-9.08c-2.45-3.74-4.61-7.66-7-11.44
		c-0.76-0.93-1.62-1.77-2.56-2.52c-0.14,0.86-0.19,1.72-0.16,2.59c0.23,1.4,0.7,2.76,0.94,4.16c2.23,13.97,6.27,27.59,12.02,40.51
		c0.61,1.47,1.53,2.79,2.69,3.87C445.01,622.37,453.86,623.4,463.45,624.42z M322.67,553.75c-1.91-1.64-3.89-3.21-5.74-4.93
		c-2.79-2.59-5.79-5-8.14-8c-2.05-2.6-3.84-5.36-7.25-6c-3.09-0.63-6.27-0.81-9.51-1.2l-3.12,6.05c11.52,7,14,7.92,26.42,33
		c1.63,0.47,3.37,0.9,5.06,1.48s3.21,1.75,5.11,0.51C321.92,568.12,322.33,561.03,322.67,553.75z M408.67,498.94
		c-3-3.27-5.89-6.36-8.67-9.56c-3.11-3.58-1.43-8.25-2.39-12.95l-10.6,8.49c-0.29,5.62,2.41,9.11,5.72,12.36
		c3.14,3.07,6.37,5.83,10.92,5.71L408.67,498.94z M361.02,587.94c-3.11-3.62-7.16-6.32-11.71-7.78c-3-0.95-5-0.55-7.13,1.29
		c2.55,4.9,6.66,7.36,11.29,8.74c2.73,1,5.79,0.1,7.54-2.22L361.02,587.94z M337.9,506.62l-4.89-4.21c-0.76,4.09-3.26,7-2.54,11.14
		l6,2.1C336.92,512.53,337.36,509.89,337.9,506.62z M363.75,584.37c1.46-4.16-1.39-7.47-2.47-11.53l-5.72-1.15v5.33L363.75,584.37z
		 M341.62,575.93c-1.25-3.81-2.4-7.31-3.63-11.08l-3.07-1.39c-0.49,6.26,0.24,8.81,3.94,13.79L341.62,575.93z"/>
	<path class="st3" d="M488.22,301.56c-4.24-0.22-4.88-0.6-26.8-15.6c8.43-3.78,16.44-8.07,25.11-10.44c3.91,2.73,3.22,6.53,3.08,10
		c-0.18,4.84-0.66,9.67-1,14.51C488.53,300.55,488.4,301.06,488.22,301.56z"/>
	<path class="st3" d="M426.18,431.59c1.78,9.4-7.78,22.41-16,26.09s-22,0.65-24.8-9.23c-0.14-0.35-0.31-0.68-0.51-1
		c-1-8.68,3.41-14.94,9.55-20.08c3.59-3.03,7.78-5.25,12.29-6.53c6.73-2.06,13.98,0.8,17.5,6.89
		C424.94,429.03,425.55,430.34,426.18,431.59z M394.01,442.75c3.77-6.69,3.78-7,0.34-9.79c-1.67,0.3-3.07,1.43-3.72,3v6.83
		L394.01,442.75z"/>
	<path class="st3" d="M479.83,449.17c4.36,3.37,7.49,6.6,8.28,11.34c0.37,2.27,0.74,4.76,0.17,6.9c-1.1,3.77-2.5,7.45-4.19,11
		c-2.78,6.14-8.19,9-14.38,10.27c-7.19,1.45-14.82-5.2-15.05-12.65c-0.37-12.2,6.87-22.45,18.5-25.9
		C475.36,449.63,477.59,449.31,479.83,449.17z M460.09,472.86l3.2-1.83v-6.83c-2.28-1.13-3.29,0-4.13,1.58
		C458.01,467.96,457.24,470.12,460.09,472.86L460.09,472.86z"/>
	<path class="st3" d="M449.25,475.75c-0.53,1-1.23,2.4-2.1,3.73c-1.1,1.75-2.51,3.27-4.17,4.5c-0.06-0.88,0.04-1.76,0.28-2.61
		c0.89-1.72,2-3.31,3.06-4.91l-2.45-5.12c-3.52-3.74-7.93-4.28-12-5.29c-3.69-0.91-7.41,0.67-11.05,1.51
		c-1.94,0.61-4.03,0.52-5.9-0.26c1.16-1,1.87-2.16,2.82-2.45c7.09-2.11,14.23-3,21.53-0.8
		C444.91,465.76,448.49,469.17,449.25,475.75z"/>
	<path class="st3" d="M407.9,401.91c8.61-10,19.86-10.45,31.93-9.18c1.67,1.14,3.08,2.6,4.16,4.31c-1.47,1.49-2.79,1.16-4.2,0.76
		c-4-1.11-8-2.33-12.16-1.79c-6.59,0.86-13.24,1.72-18.09,7.39L407.9,401.91z"/>
	<path class="st3" d="M491.36,417.77c4.17-0.08,6.32,3.3,7.87,6.11c4.07,7.34,4.8,15.17,0.88,23.56c-1.07-2.7-0.55-5-0.46-7.23
		c0.25-7.05-1.83-13.11-7.05-18C491.42,421.12,490.08,420.02,491.36,417.77z"/>
	<path class="st3" d="M364.95,447.46l2.22,2.3v6l-4.84,2.84l-5.48-3.56c-1-3.41,0.37-5.44,2-7.6L364.95,447.46z"/>
	<path class="st3" d="M460.66,507.42l3.41-2l3.64,2.21v5.38l-4,1.12C460.93,512.45,459.45,510.66,460.66,507.42z"/>
	<ellipse transform="matrix(0.5 -0.866 0.866 0.5 0.4453 558.4363)" class="st4" cx="483.84" cy="278.83" rx="21.86" ry="80.14"/>
</g>
</svg>
