<?xml version="1.0" encoding="utf-8"?>
<!-- Generator: Adobe Illustrator 25.2.1, SVG Export Plug-In . SVG Version: 6.00 Build 0)  -->
<svg version="1.1" id="Capa_1" xmlns="http://www.w3.org/2000/svg" xmlns:xlink="http://www.w3.org/1999/xlink" x="0px" y="0px"
	 viewBox="0 0 300 300" style="enable-background:new 0 0 300 300;" xml:space="preserve">
<style type="text/css">
	.st0{fill:#FFC567;}
	.st1{fill:#8CCCF1;}
	.st2{font-family:'Cocogoose';}
	.st3{font-size:20px;}
</style>
<path d="M132.08,74.9H33.92C27.89,74.9,23,79.79,23,85.82v26.16c0,6.03,4.89,10.92,10.92,10.92h8.34l6.85,15.41
	c0.43,0.96,1.79,0.92,2.17-0.05l5.97-15.36h74.82c6.03,0,10.92-4.89,10.92-10.92V85.82C143,79.79,138.11,74.9,132.08,74.9z"/>
<path class="st0" d="M134.45,71.65H36.29c-6.03,0-10.92,4.89-10.92,10.92v26.16c0,6.03,4.89,10.92,10.92,10.92h8.34l6.85,15.41
	c0.43,0.96,1.79,0.92,2.17-0.05l5.97-15.36h74.82c6.03,0,10.92-4.89,10.92-10.92V82.57C145.37,76.54,140.48,71.65,134.45,71.65z"/>
<path d="M263.36,140.9H110.64c-7.53,0-13.64,6.11-13.64,13.64v37.72c0,7.53,6.11,13.64,13.64,13.64h127.45l5.59,12.58
	c0.89,2.01,3.77,1.94,4.56-0.11l4.85-12.47h10.26c7.53,0,13.64-6.11,13.64-13.64v-37.72C277,147.01,270.89,140.9,263.36,140.9z"/>
<path class="st1" d="M260.2,135.77H107.48c-7.53,0-13.64,6.11-13.64,13.64v37.72c0,7.53,6.11,13.64,13.64,13.64h127.45l5.59,12.58
	c0.89,2.01,3.77,1.94,4.56-0.11l4.85-12.47h10.26c7.53,0,13.64-6.11,13.64-13.64v-37.72C273.84,141.87,267.73,135.77,260.2,135.77z"
	/>
<text transform="matrix(1 0 0 1 54.7956 102.2088)" class="st2 st3">Todo</text>
<text transform="matrix(1 0 0 1 124.117 175.2887)" class="st2 st3">Historietas</text>
</svg>
