<?xml version="1.0" encoding="utf-8"?>
<!-- Generator: Adobe Illustrator 25.2.1, SVG Export Plug-In . SVG Version: 6.00 Build 0)  -->
<svg version="1.1" id="Capa_1" xmlns="http://www.w3.org/2000/svg" xmlns:xlink="http://www.w3.org/1999/xlink" x="0px" y="0px"
	 viewBox="0 0 848.69 1080" style="enable-background:new 0 0 848.69 1080;" xml:space="preserve">
<style type="text/css">
	.st0{fill:#56ADDF;stroke:#000000;stroke-width:3;stroke-miterlimit:10;}
	.st1{fill:#8DCCF1;stroke:#000000;stroke-width:3;stroke-miterlimit:10;}
	.st2{fill:#FFFFFF;}
	.st3{fill:#020203;}
</style>
<g>
	<path class="st0" d="M648.35,846.72H214.96c-34.96,0-63.31-28.34-63.31-63.31V263.03c0-34.96,28.34-63.31,63.31-63.31h433.38
		c34.96,0,63.31,28.34,63.31,63.31v520.38C711.66,818.38,683.31,846.72,648.35,846.72z"/>
	<path class="st1" d="M614.61,812.98H181.22c-34.96,0-63.31-28.34-63.31-63.31V229.29c0-34.96,28.34-63.31,63.31-63.31h433.38
		c34.96,0,63.31,28.34,63.31,63.31v520.38C677.91,784.64,649.57,812.98,614.61,812.98z"/>
</g>
<g>
	<path class="st2" d="M316.44,328.87l-22-8l-6.81-8.8l6.48-33.52l-30.32-23.58c0,0,41.3-38.2,110.72-13.22l16.86-15.21
		c0,0,22.74,6.65,26.06,12.36c3.32,5.71,24.47,0.9,24.47,0.9s103.44-20.81,120.15,15.17l-36.94,27.32c0,0,2.8,10.75,1.92,29.29
		l-20.26,33c0,0-22.32,29.15-22.43,44.73c-0.11,15.58,11.25,26.89,8.39,24.78c-2.86-2.11,39.68-18.88,41.61,46.94
		c1.93,65.82-65.55,71.92-65.55,71.92s42.18,14.81,47.47,15.75c5.29,0.94,19.4,4.28,25.5,24.5c6.1,20.22-7.46,44.05-7.46,44.05
		l19.33,22c-44,14.36-61.57,23.13-61.57,23.13c0.78,28,8.57,21.08,8.57,21.08c-9.62,9.05,0.59,15.15,0.59,15.15
		c10.28,2.66,11.58,26.09,11.58,26.09c-15.78,11.34-128.39,0-128.39,0c-17.89,17.14-120.62,8.92-120.62,8.92
		c-23.21-19.75,13.13-40.19,13.13-40.19s-6.73,5.17-5.78-11.74c0.95-16.91,4-11.23,4-11.23l12.19-2.25l7.91-29l-63.45-18.71
		l20.81-7.11c-15.24-24.05-7.58-31.72-7.58-31.72c14.87-40.07,85.38-59.47,85.38-59.47l-8.77-7.23c-41.19-33-31.54-37.32-40.9-65
		s54.12-60.15,49.17-64.38c-4.95-4.23-12.74-51.48-12.74-51.48"/>
	<path class="st3" d="M258.44,749.67h-9.74l-4.75-2.4l0.53-1.91h18.12c-0.5-1.29-1.41-2.38-2.6-3.08c-3.88-2.15-5.36-5.45-4.67-9.71
		c0.42-2.07,0.94-4.11,1.57-6.12c1.15-4.21,0.28-5.73-4-6.49c-2.79-0.36-5.15-2.25-6.11-4.89c-1.57-4,0.33-10.76,4.16-14
		s8-5.44,13.32-2.74c1.69,0.85,5.51,1,5.9,0.19c0.95-2.17,1.12-4.61,0.48-6.89c-0.44-1.57-2.41-2.92-4-3.91c-2-1.28-3-2.8-0.91-4.32
		c3.25-2.33,3.2-5.88,3.57-9c0.69-5.71,0.36-5.75,5.84-4c4.63,1.45,8-0.24,8.78-4.65c1.07-5.89,2.18-11.79,2.77-17.73
		c0.16-1.7-1-4.64-2.33-5.19c-5.37-2.25-10.92-4.06-16.58-5.4c-6.28-1.5-12.74-2.19-19.1-3.38c-8-1.49-15.69-6.33-24.28-2.22
		c-0.71,0.34-2.09-0.71-3.16-1.11c0.53-1.18,0.72-2.78,1.62-3.48c6.63-5.12,13.35-10.14,20.14-15.05c2.28-1.67,3.34-3.16,1.91-6.2
		c-1.76-3.56-3-7.35-3.69-11.26c-2.14-14.45,2.43-26.6,13.1-36.62c3.67-3.39,7.02-7.11,10-11.11c3-4.17,6.9-5.78,11.78-6
		c1.7-0.09,3.36-0.51,4.9-1.24c2.65-1.31,5.13-3,7.69-4.46l5.47-3.17c-10.38-6.46-22.08-4.2-32-9c0.34,1.49,1.23,2.8,2.51,3.64
		c3.29,1.76,6.81,3.08,10.08,4.85c0.76,0.42,0.9,2,1.33,3c-1.06,0.33-2.22,1.09-3.17,0.89c-1.54-0.33-2.9-1.4-4.41-1.95
		c-3.67-1.33-6.71-5.18-11.35-2.86c-0.59,0.05-1.17-0.2-1.53-0.68c-2.2-5.67-7.76-6-12.34-7.91c-11.25-4.77-21.79-11.04-31.35-18.65
		c-3.37-2.66-6.8-5.26-10.38-7.62c-1.84-1.05-3.79-1.88-5.82-2.5c-3.19-1.22-5.1-3.23-5.29-6.88c-0.26-2.61-0.72-5.19-1.36-7.73
		c-0.4-2-1.44-2.41-3.22-1.33c-3.56,2.15-4.06,2-5.08-2c-0.42-1.57-0.65-3.18-0.69-4.8c-0.22-13.46-0.37-26.92-0.56-40.39
		c0-0.89-0.19-1.79-0.29-2.68c-2.82,7.71-5.49,15.3-3.64,23.58c0.41,2.21,0.57,4.46,0.48,6.71c0,3.82-1.86,5.7-6.57,6.59
		c-0.24-1.42-0.32-2.86-0.23-4.3c1.41-7.84,2.88-15.66,4.48-23.45c1.2-5.86,2.72-11.65,3.87-17.51c0.38-2,0.06-4,0.06-6.07h-1
		c-0.82,3-1.66,5.92-2.44,8.9c-1.8,6.85-3.41,13.77-5.45,20.55c-0.5,1.63-2.37,2.85-3.61,4.27l-1.61-1
		c3.65-12.25,5-25.07,11.07-36.76c5.88-11.4,11-23.2,16.46-34.85c-0.3,0.12-0.76,0.16-1,0.41c-5.42,7.21-11.19,14.2-16.07,21.76
		c-3.26,5.18-5.26,11.18-8.09,16.71c-0.38,0.74-2.07,0.81-3.15,1.19c-0.29-0.83-1.06-1.9-0.79-2.47c1.73-3.65,3.68-7.2,5.58-10.77
		c0.46-0.86,1.1-1.62,1.53-2.49c1.15-2.31,1.9-4.9,3.4-7c5.8-7.95,11.74-15.8,17.82-23.55c5.94-7.52,12.18-14.81,18.21-22.27
		c0.69-1.1,1.25-2.28,1.66-3.52c-1.56-0.11-3.11,0.32-4.38,1.22c-6.54,5.37-13.14,10.67-19.44,16.31
		c-5.61,5.09-11.11,10.43-14.16,17.66c-0.27,0.67-0.79,1.57-1.36,1.71c-1.48,0.27-2.98,0.43-4.49,0.48c0.19-1.12,0-2.55,0.62-3.31
		c5.08-6.28,10.31-12.43,15.49-18.62c0.81-1,1.58-1.94,2.18-2.68c-1.52-0.87-3.12-1.27-3.5-2.18c-0.3-0.73,0.64-2.36,1.47-3.09
		c2.46-2.26,5.1-4.32,7.9-6.14c14.81-9.13,29.9-17.84,44.5-27.3c5.57-3.61,11-7.22,17.23-9.5c2.34-0.85,4.4-2.48,6.59-3.76
		c-7.47,0-13,6.29-20.83,4.18c1.79-1.56,3.85-2.77,6.08-3.6c11.38-4.34,22.8-8.55,34.16-12.91c1-0.4,1.81-1.53,3.35-2.9
		c-0.82-0.14-1.64-0.21-2.47-0.23c-14.57,2-27.65,8-40.43,14.84c-1.56,0.82-2.4,2.93-3.71,4.31c-1.06,1.12-2.19,2.51-3.55,3
		c-2.99,0.86-6.04,1.51-9.12,1.94c-0.82,0.14-1.74-0.24-3.35-0.5c0.66-0.85,1.41-1.62,2.24-2.31c14.26-8.14,28.15-17,44.4-21
		c6.5-1.6,12.77-4.12,19.24-5.86c2.36-0.63,4.87-0.51,5.23-3.64c0.36-3.13-1.7-5.14-4.92-6c-3.06-0.94-6.06-2.04-9-3.31
		c-3.1-1.22-6.08-3-9.29-3.64c-3.21-0.64-6.25-1.46-7.47-4.68s0.44-6.09,2.85-8.32c1.24-1.2,2.65-2.21,4.19-3
		c2.32-1.14,4.83-1.86,7.22-2.87c3.63-1.53,7.18-3.29,10.86-4.7c2.66-1,5.79-1.09,8.16-2.5c10.77-6.4,23.06-5.53,34.69-7.71
		c9.08-1.69,17.43,1.7,26,3.93c6.63,1.73,13.93,1.12,19.64,6.16c0.76,0.66,3.81-0.1,4.84-1.14c3.21-3.28,5.86-7.09,8.93-10.51
		c1.28-1.43,3.21-3.51,4.62-3.35c5.13,0.58,10.78,0.92,15,3.42c3.54,2.08,6.31,2.85,9.92,1.78c9.2-2.72,16.26,0.24,21.5,8.07
		c1.39,2.08,2.7,0.85,4.09,0c1.39-0.85,2.86-2.17,4.45-2.47c8.92-1.71,17.83-3.84,26.85-4.56c13.63-1.08,27.34-1.15,41-1.52
		c1.37,0,2.77,0.89,4.17,1.33c2.59,0.99,5.24,1.79,7.94,2.39c4.26,0.7,9,0,12.81,1.57c10.16,4.25,20,9.35,29.81,14.34
		c0.88,0.45,1.51,2.75,1.21,3.91c-1.29,4.86-4.78,7.86-9.09,10.32c-8.64,4.82-17.1,10-25.56,15.21c-0.88,0.55-1.93,2.08-1.72,2.82
		c0.21,0.74,1.71,1.57,2.79,1.93c6.56,2.19,13.21,4.14,19.74,6.41c5.5,1.92,10.89,4.14,16.31,6.27c2.61,1,5.22,2.06,7.76,3.26
		c2.78,1.28,5.5,2.71,8.13,4.27c0.93,0.55,1.47,1.77,2.19,2.68c-1,0.62-2.29,2-3,1.75c-4.11-1.34-9.08-2.07-11.92-4.86
		c-6.68-6.57-15.11-8.38-23.42-10.8c-1.66-0.48-3.58-0.07-5.37-0.07l-0.33,1.57c3.43,1.88,6.73,4,10.31,5.58
		c5.73,2.44,12.54,2.48,16.94,7.87c0.48,0.6,1.59,0.65,2.33,1.09c2.92,1.75,6.12,3.2,8.62,5.42c4,3.54,7.08,8.11,12.47,9.89
		c0.7,0.3,1.29,0.8,1.7,1.43c3.82,5.36,8.54,8.5,15.52,7.07c2.11-0.44,3.6,1.1,3,3.11c-0.4,1.32-2,2.53-3.3,3.21
		c-0.72,0.37-2.27-0.22-3.1-0.84c-4.5-3.31-11.05-3.53-13.94-9.32c-0.38-0.77-1.64-1.07-2.44-1.66c-4.69-3.49-7.79-8.95-13.65-11
		c-0.47-0.17-0.64-1.05-1.05-1.51c-3.08-3.48-7.3-4.29-11.63-5c1.09,1.52,2.37,2.89,3.8,4.09c10.08,9.28,20.09,18.65,30.25,27.84
		c6.16,5.57,12.56,10.88,18.85,16.31c0.57,0.49,1.44,0.85,1.67,1.45c0.39,1.28,0.68,2.59,0.87,3.92c-1.44,0-3.18,0.54-4.26-0.07
		c-1.67-1-2.88-2.7-4.33-4.07c-0.72-0.69-1.53-1.3-2.29-1.95l-0.89,0.55c0.18,1.39,0.54,2.76,1.06,4.06
		c3,5.32,6.15,10.51,9.12,15.83c1.6,2.8,2.97,5.72,4.1,8.73c0.36,1-0.56,2.45-0.89,3.7c-1.17-0.51-2.28-1.13-3.33-1.86
		c-0.69-0.77-1.26-1.64-1.7-2.57l-1,0.3c0.5,2.7,0.84,5.44,1.53,8.09c1.58,6.14,2.41,12.71,5.28,18.2c2.66,4.75,4.1,10.08,4.2,15.52
		c0.07,8.2,0.2,16.41,0,24.6c0,1.81-1.27,3.58-2,5.37l-1.32-0.36c-3.38-9.65-0.32-20.09-3.08-30.55c-3.33,4.19-2.38,8.32-2.18,12.32
		c0.41,8.43,1.59,16.82-0.44,25.29c-1.05,4.35-0.52,9.07-1.27,13.52c-0.22,1.31-2.37,2.28-3.64,3.41c-0.74-0.86-2.15-1.77-2.1-2.58
		c0.27-2.56,0.75-5.08,1.44-7.56c0.57-2.38,1.86-4.7,1.91-7.06c0.21-10.84,0.11-21.68,0.06-32.52c-0.1-1.29-0.3-2.58-0.61-3.84
		c-0.93,0.74-1.5,1.86-1.54,3.05c-0.15,9.82-0.22,19.65-0.33,29.48c0,1.87,0.4,3.9-0.2,5.57c-2.28,6.42-3.07,13.45-5.38,19.52
		c-3.22,8.48-4,18.38-11.16,25.24c-0.67,0.64-0.8,1.81-1.31,2.65c-3.72,6.21-7.46,12.4-11.21,18.59c-0.13,0.21-0.32,0.49-0.51,0.53
		c-1.72,0.33-3.44,0.62-5.16,0.92c0.16-1.5,0.41-3,0.76-4.47c0.23-0.78,1.06-1.36,1.55-2.08c4.14-6.06,8.28-12.12,12.34-18.22
		c0.38-0.83,0.64-1.71,0.77-2.61c-10.61,12.46-21,24.65-34.35,34.17c-2.11-5.45-2.12-5.48-7.09-3.63
		c-5.81,2.17-11.56,4.53-17.41,6.58c-4.29,1.5-4.84,1-4.61-4.44l-12.92,2.41l-0.07,1.57c6.92,0.49,9.3,8.61,16.26,9.05
		c0.37,0.1,0.67,0.37,0.82,0.72c1.76,4.2,3.68,8.27,7.89,10.67c0.29,0.25,0.49,0.58,0.57,0.95c0.9,3,2,5.91,2.62,8.94
		c1.88,8.91,0.35,17.57-2.47,26.05c-1.74,5.24-1.84,11.08-5.83,15.57c-0.61,0.69-0.15,3,0.57,4.08c4.28,6.14,8.67,12.17,16.63,14.15
		c1.31,0.33,3.37,2.44,3.16,3.19c-0.51,1.83-1.82,4.28-3.39,4.83c-7.2,2.52-15.19,2.74-21.67,7.5c-0.62,0.46-1.7,0.25-2.54,0.45
		c-3.73,0.85-7.53,1.53-11.18,2.67c-6.28,2-12.38,4.6-18.74,6.24c-6.51,1.67-7.34,2-8.24,8.67c-0.2,1.48-0.31,2.97-0.32,4.47
		c-0.08,5.65,1.4,7.22,6.94,7.38c2.74,0.07,5.52-0.24,8.22,0.12c1.94,0.25,3.78,1.33,5.66,2c-1.35,1.43-2.5,3.19-4.1,4.23
		c-2.5,1.62-5.41,2.58-7.94,4.14c-1.26,0.78-2.07,2.29-3.08,3.46l0.81,0.8c5.75-1.69,11.48-2.68,15.87,2.63
		c4.68,5.66,1.16,10.64-2.64,16.11c2.55,0.42,4.31,1,6,0.93c5.6-0.26,11.19-0.85,16.79-1.14c1.94,0.03,3.88,0.19,5.8,0.48
		c0,0.4-0.07,0.81-0.1,1.21c-1.04,0.16-2.09,0.26-3.15,0.3c-5.24-0.08-10.47-0.32-15.71-0.26c-1.15,0-2.28,1-3.43,1.56
		c0.46,1.05,1.01,2.05,1.65,3c3,3.82,7.18,3.8,11.57,3.38c3.18-0.31,6.41-0.06,9.62-0.06v1.1h-4.35
		c-5.11-0.06-10.22-0.21-15.33-0.13c-0.9,0-1.78,1-2.67,1.51c0.71,0.89,1.55,1.67,2.48,2.32c1.13,0.39,2.31,0.62,3.5,0.68
		c-3.99,1.38-8.12,2.29-12.31,2.73c-3.21,0.39-6.34,0.58-4.38,5.93c-13.34,0.73-26,1.39-38.61,2.18c-1.51,0.26-2.97,0.7-4.38,1.3
		l0.18,1.29l16.81,2.23l-0.11,1.28c-1.28,0-2.56,0.06-3.83,0c-5.09-0.24-10.19-0.52-15.28-0.8s-10.5-0.28-15.67-1
		c-2.51-0.34-4.85-2-7.27-3c-2.69-0.73-5.83-0.3-8.81-0.82c-6.85-1.2-13.83-2-20.23-5.14c-0.6-0.18-1.23-0.23-1.85-0.14
		c-10.94,0.24-21.89,0.39-32.83,0.81c-2.29,0.08-5,0.56-6.74,1.87c-4.61,3.49-9.72,4.84-15.31,5.18c-3,0.19-5.23,1.37-4.15,5.48
		c-2.11,0-3.84,0-5.56,0c-25.32-0.23-50.64-0.51-76-0.66C265.79,746.63,261.66,746.66,258.44,749.67z M469.33,251.67l-9.24-2.53
		l-0.23,1.64l9.57,0.77c0.65,0.82,1.41,1.54,2.26,2.16c1.83,0.99,3.73,1.84,5.7,2.52c4.72,1.6,9.48,3.07,14.23,4.59l0.48-1.53
		C484.53,256.7,477.72,252.07,469.33,251.67L469.33,251.67z M357.54,327.25l-0.78-1.37c-3.44,0.73-6.89,1.41-10.31,2.2
		c-7.76,1.85-15.07,5.26-21.49,10c-4,2.85-4.37,5.48-2.27,10.13c1.85,4.07,4.14,8,5.59,12.19c2.08,6.07,3.75,12.29,5.26,18.53
		c0.86,3.57,2.11,7.56,1.3,10.91c-1.49,7.08-6.23,13.04-12.79,16.1c-2.92,1.37-5.61,3.17-8,5.34c-5,4.64-9.85,9.48-14.46,14.52
		c-16.35,17.86-17.5,40.07-5.24,60.17c5.05,8.26,12.66,14,19.38,20.62c10.22,10.09,22.88,13.52,36.69,14.13
		c3.01-0.02,6.02,0.17,9,0.55c11.46,2.11,22.63,6,34.52,5.37c0.37,0.02,0.74,0.09,1.1,0.2c4.79,0.94,9.51,1.69,14.34-0.19
		c1.76-0.69,4.26-1,5.85-0.28c4.85,2.26,9.43,1,14.23,0.15c2.43-0.43,5.93-0.58,7.42,0.8c2.07,2,4.98,2.88,7.81,2.38
		c6.14-0.77,12.27-1.7,18.32-3c7-1.48,13.63-4.39,21.07-4.5c4.12-0.19,8.1-1.56,11.46-3.95c7.75-5.57,14.93-11.93,22.33-18
		c0.45-0.43,0.85-0.91,1.2-1.43c6.27-7.9,7.86-17.44,8.55-27c0.79-10.89-1.39-21.57-5.31-31.75c-3.56-9.27-9.23-16.84-19.11-20.21
		c-8.87-3-15.05-9-19.14-17.23c-4.83-9.7-6.19-19.35,0.47-28.95c1.23-1.78,1.8-4,2.6-6.09c0.76-2.44,1.66-4.84,2.68-7.18
		c2.21-4.31,5-8.34,7-12.7c1.85-3.91,0.67-6.56-3.09-8.78c-2.68-1.58-5.33-3.22-8.08-4.67c-1.69-0.9-3.53-1.51-5.3-2.25
		c0.19,1.99,0.24,4,0.13,6c-0.22,1.9-0.87,5.31-1.5,5.35c-2.89,0.17-2.77-2.43-2.88-4.56c-0.34-6.26-5.18-10.18-7.95-15.17
		c-0.29-0.51-1.3-0.62-2-0.93c-3.6-1.66-7.32-3.12-10.79-5c-6.22-3.42-12.89-5.71-19.86-5.67c-13.18,0.08-26.36,1-39.55,1.5
		c-7.53,0.27-14.85,1.14-21.32,5.54c-1.22,0.89-2.7,1.38-4.21,1.4c-5.72-0.41-7.89,3.41-9.46,7.75c-0.77,2.58-1.35,5.22-1.75,7.88
		c-0.2,1-0.06,2.17-0.6,2.86c-0.84,0.79-1.8,1.45-2.85,1.93c-0.55-0.87-1.58-1.76-1.55-2.61c0.1-2.08,0.47-4.13,1.09-6.12
		C355.92,330.47,356.67,328.83,357.54,327.25z M375.54,570.78c-3,1.94-5.87,3.93-8.86,5.65c-10.27,5.91-20.57,11.93-33.2,7.9
		c-8.61-2.75-16.16-6.78-18.69-16.48c-0.07-0.28-0.52-0.46-1.48-1.26c-3.43,4.26-6.75,8.52-10.23,12.66
		c-2.11,2.51-4.08,5.4-6.76,7.13c-10.12,6.56-20.51,12.71-30.8,19c-5.61,3.45-11.18,7-16.84,10.32c-2.24,1.32-4.76,2.16-7,3.48
		c-1.78,1.05-2,2.89-0.12,3.85c4.66,2.35,9.35,5.64,14.28,6.14c5.68,0.57,10.86,2.16,16.2,3.67s10.93,2.38,16.19,4.16
		c12.16,4.13,24.52,6.93,37.41,7.18c2.24-0.03,4.47,0.3,6.6,1c6.56,2.43,13.11,4.44,20.25,4.36c3.63-0.05,7.27,0.89,10.91,1.4
		c0.74,0.1,1.46,0.3,2.2,0.45c8.43,1.74,16.88,3.45,25.31,5.24c3.34,0.63,6.75,0.84,10.14,0.62c8.15-0.31,16.36,0.48,24.52,1
		c6.41,0.44,12.79,1.26,19.19,1.8c1.85,0.13,3.71,0.08,5.56-0.13c5.3-0.54,10.57-1.33,15.88-1.75c8.53-0.68,17.08-1.12,25.61-1.68
		c0.62-0.03,1.24-0.15,1.83-0.36c6.45-2.47,12.55-6.27,19.94-5.22c0.54,0.08,1.16-0.39,1.75-0.58c5.57-1.71,11.24-3.11,16.67-5.19
		c5.43-2.08,10.71-4.87,16.64-7.61c-2.45-2.19-4.75-3.33-5.59-5.14c-4.23-9.14-13.13-14-19.22-21.45
		c-3.49-4.27-8.44-7.32-12.51-11.14c-5.53-5.2-10.86-10.61-16.25-16c-1.75-1.74-2.83-1.48-3.88,0.79c-0.59,1.24-1.66,2.76-2.83,3.12
		c-5.63,1.75-11,4.85-17.26,3.84c-4.63-0.74-9.29-1.29-14-1.81c-9.89-1.11-18.52-5.45-26.94-10.35c-0.9-0.53-1.84-1-3.14-1.64
		c-0.32,1.11-0.57,2.23-0.74,3.37c-0.57,8.3-1.19,16.6-1.58,24.91c-0.28,6.12-1.26,7-7.28,7.31c-13.22,0.61-26.3-0.68-39.39-2.16
		c-5.84-0.65-7.61-2.32-7.28-8.08c0.26-4.65,1.32-9.25,2-13.87c0.98-5.87,1.86-11.85,2.83-18.45H375.54z M407.42,551.59
		c3.28,3,5.89,5,8,7.43c4.94,5.84,9.16,11.95,16.84,15.24c6.69,2.87,12.65,7.42,19.53,10.37c8.47,3.63,17,3,25.64,2.52
		c2.06-0.1,4.21-1.49,6-2.72c6.73-4.52,6-11.46,4.75-17.92c-1.81-9.68-5.81-18.67-10.79-27.17c-1.92-3.27-3.6-7.09-8.59-6.39
		c-0.53,0.08-1.11-0.55-1.7-0.64c-2.24-0.35-4.79-1.43-6.68-0.74c-3.88,1.41-7.38,3.85-11.1,5.74c-4.37,2.21-8.64,4.86-13.27,6.27
		c-6.14,1.87-12.63,2.52-18.88,4.08c-3.11,0.78-6.03,2.41-9.71,3.93H407.42z M311.59,693.42l-0.11-0.94c-4.26,0.65-8.58,1-12.75,2
		c-4.4,1.13-8.74,2.49-13,4.09c-2.18,0.86-4.3,1.87-6.35,3c-2.36,1.06-4.64,2.29-6.81,3.69c-1.33,0.95-3,2.57-3.05,4
		c-0.24,3.28-1.28,5.58-4.06,7.47c-2.55,1.73-2.14,4.33,0.76,5.37c2.58,0.89,5.24,1.56,7.94,2c6.35,1.12,12.68,2.46,19.08,3
		c6.57,0.65,13.17,0.77,19.76,0.36c6.39-0.47,12.68-2.77,19.05-3c10.14-0.35,20.14-1.18,29.87-4c5.24-1.51,10.34-3.5,15.44-5.43
		c1.91-0.73,3.11-2.59,1.08-4c-4.94-3.47-10.14-6.55-15.56-9.2c-5.13-2.37-11-3.17-16.09-5.62c-5.25-2.6-11.06-3.86-16.91-3.67
		C323.79,692.8,317.68,693.14,311.59,693.42z M245.37,588.15c-1,6.33,0.62,11.76,5.33,16c1,0.93,3,1.8,4.12,1.44
		c2.55-0.94,4.98-2.19,7.22-3.73c4.4-2.77,8.82-5.53,13-8.61c7.37-5.45,16.42-8.59,22.3-16.1c2.82-3.59,5.47-7.33,8.52-10.72
		c3.92-4.37,6.86-9.19,8-15c0.76-3.76,0.91-7.66,1.87-11.36c1.5-5.75,0.93-6.57-5.14-5.79c-0.86,0.14-1.71,0.34-2.54,0.59
		c-5.37,1.48-10.79,2.82-16.09,4.51c-6.22,2-12.93,3.35-18.37,6.69c-10.13,6.23-18.52,14.54-23.74,25.62
		C247.37,577,243.86,581.92,245.37,588.15z M477.44,677.53v1c-9,0.68-18.06,1.49-27.1,2c-15.27,0.85-30.66-1.39-45.86,1.73
		c-4.85,1-10,1.22-13.48,5.44c-2.32,2.92-2.23,7.09,0.22,9.91c3.74,4.29,5.2,4.52,8.79,2.77c5-2.42,10-5,15.32-6.43
		c13.22-3.58,26.67-6.35,40.46-5.91c7.18,0.16,14.34,0.94,21.39,2.32c4.78,1,9.22,3.63,13.78,5.61c2.72,1.18,3.75-0.13,4.64-2.52
		c0.73-1.91,1.81-3.67,3.19-5.18c1.36-1.5,3.58-2.93,1.93-4.84c-0.83-1-3.5-0.41-5.33-0.37c-1.3,0-2.82,0.9-3.85,0.46
		c-3.12-1.31-6.05-3.07-8.72-4.48c-0.53,0.36-0.35,0.16-0.14,0.11c0.48-0.13,0.97-0.23,1.47-0.29c4.64-0.6,5.13-1.43,4.35-6
		c-0.49-2.87-0.26-5.87-0.83-8.72c-0.25-1.23-1.65-3.09-2.62-3.15c-2.96-0.1-5.93,0.13-8.84,0.7c-3.8,0.62-7.53,2.13-11.32,2.24
		c-14.45,0.44-28.91,0.48-43.37,0.64c-0.62,0.02-1.25-0.1-1.82-0.35c-8.35-3.63-17.17-3.7-26-3.19c-1.55,0.18-2.95,1.03-3.81,2.34
		c-2.09,4.1-2.4,8.3,0.54,12.34c2.94,4.04,6.76,5.45,11.74,4.58c7.12-1.23,14.22-3.75,21.58-1.14c0.87,0.1,1.74,0.06,2.6-0.11
		c2.98-0.07,5.96-0.13,8.94-0.17c5.85-0.09,12,0.94,17.48-0.49C461.12,676.25,469.22,677.71,477.44,677.53L477.44,677.53z
		 M524.44,316.53l1.24,0.1c0.59-1.64,1.04-3.34,1.33-5.06c0.21-2.6-0.09-5.24,0.05-7.85c0.22-4.1-0.34-7.84-2.94-11.28
		c-1.86-2.46-1.41-7.88,1-10.16c3.44-3.38,7.16-6.47,11.13-9.21c7.53-5,15.51-9.36,23-14.47c4.21-2.88,3.63-4.07-1.17-6.32
		c-3.67-1.72-7.65-3.44-10.46-6.2c-2.37-2.55-5.52-4.24-8.95-4.8c-3.93-0.57-7.94-0.57-11.91-1c-9-0.88-18-2.27-27-2.67
		c-10.31-0.46-20.68-0.46-31,0.08c-5.78,0.3-11.49,2.08-17.24,3.19c0,0.45,0.07,0.9,0.11,1.35c3.66,0.86,7.3,1.82,11,2.54
		c4.49,0.88,9.14,1.12,13.49,2.39c8.69,2.54,17.22,5.61,25.83,8.44c2.28,0.74,2.66,2.37,1.46,4.05c-1,1.37-2.59,2.29-4.07,3.54
		c4.54,3,9.27,5.9,13.6,9.27c1.12,0.87,1.32,3.33,1.32,5.06c0,0.88-1.4,2.54-2.08,2.5c-1.62-0.12-3.17-0.72-4.44-1.74
		c-1.28-1.09-1.88-2.93-3-4.26c-5.92-7.1-13.84-9.3-22.79-9.13c1.44,2.01,3.29,3.69,5.42,4.93c9.76,4.8,19,10.08,26.45,18.43
		c4.09,4.59,6.69,9.19,6,15.36c-0.51,5.12,1.76,9.14,4.64,12.93L524.44,316.53z M438.11,724.67c10.15-1,20.33-1.69,30.43-3
		c10.34-1.33,20.6-3.18,30.89-4.88c2.07-0.37,4.11-0.9,6.11-1.57c2.52-0.81,3.09-2.67,1.54-4.62c-1.53-1.76-3.25-3.35-5.12-4.75
		c-2.27-1.87-4.65-3.63-7-5.39c-1.05-0.86-2.18-1.6-3.38-2.22c-10.72-4.92-22.3-6.19-33.79-6.53c-11.18-0.25-22.32,1.31-33,4.61
		c-10.07,3-19.23,7.32-26.59,15c-3.19,3.34-3.19,4.29,0.92,6.07C411.51,722.81,424.61,724.51,438.11,724.67z M386.31,668.82
		c0-0.63,0-1.25,0-1.87c-0.08-6.43-0.65-7.25-7.1-8.08c-5.91-0.75-11.88-1-17.79-1.69c-4.81-0.57-9.83-0.82-14.29-2.46
		c-11.73-4.31-23.89-5.46-36.16-6.51c-4.18-0.39-8.31-1.27-12.28-2.63c-5.51-1.88-8.33-0.65-9.24,5.24
		c-0.91,5.89-1.28,11.61-2.11,17.39c-0.54,3.76,1.27,4.78,4.59,5.06c3.44,0.36,6.86,0.9,10.24,1.62c6.81,1.32,13.56,3.66,20.39,3.9
		c10.53,0.37,21.11-0.8,31.67-1.09c7.71-0.21,15.43,0,23.14-0.07C386.36,677.59,386.36,677.58,386.31,668.82L386.31,668.82z
		 M319.51,556.27c0.31,17.84,10.05,24.53,22.38,25.2c6.67,0.35,13.37-2,19.27-6c10.32-6.85,19.08-16,30.87-20.73
		c2.15-0.86,2.46-3.13-0.05-4.17c-3.29-1.36-6.83-2.12-10.23-3.26c-6.31-2.12-13-3.61-18.8-6.68c-7.1-3.74-13.52-8.77-20.16-13.37
		c-3.23-2.24-6.15-1.87-8.7,0.78c-1.45,1.69-2.72,3.52-3.79,5.47c-1.37,2.21-2.18,4.95-4,6.68
		C321.27,545.07,319.99,551.23,319.51,556.27z M324.19,277.74l-0.82-0.62c-2.61,2-6.33,3.57-7.57,6.25c-2.1,4.52-6.61,5.89-9.51,9.2
		c-1.13,0.76-2.58,0.87-3.81,0.29c-0.85-0.68-1.15-2.61-1-3.87c0.38-1.19,1.15-2.22,2.19-2.91c3.24-2.51,6.66-4.78,9.86-7.33
		c0.77-0.61,1.62-2.38,1.3-2.89c-2.64-4.14-0.29-6.73,2.74-8.78c9.56-6.35,20.12-11.04,31.24-13.87
		c-6.27,0.42-12.49,1.56-18.76,1.92c-8.07,0.5-15.95,2.66-23.15,6.35c-1.78,0.9-4,2-5.21-0.46c-1.21-2.46,0.49-4.46,2.68-5.34
		c3.89-1.59,7.88-2.92,11.94-4c3.62-0.86,7.3-1.49,11-1.88c9.34-1.15,18.7-2.23,28.06-3.18c2.84-0.29,5.74,0,8.6-0.15
		c1-0.15,1.98-0.41,2.92-0.78l0.25-1.22c-2.06-1.18-4-3-6.22-3.43c-7.65-1.44-15.4-2.4-23.11-3.53c-2.84-0.41-5.66-0.89-8.51-1.18
		c-3.31-0.49-6.66-0.7-10-0.62c-4.21,0.31-8.39,1.01-12.48,2.07c-3.15,0.88-6.18,2.13-9.03,3.74c-2.5,1.35-4.46,4-7.06,4.84
		c-5.54,1.79-10.82,3.55-14.24,8.75c-0.68,1-2.25,1.45-3.3,2.3c-1.05,0.85-2.46,1.93-2.29,2.49c0.43,1.25,1.38,2.25,2.59,2.77
		c3.87,1.32,7.86,2.28,11.8,3.38c6.13,1.71,11.17,4,8.83,12.46c-1.11,4-0.33,8.54-0.65,12.82c-0.36,4.69,0,9.79-1.77,13.92
		c-2.76,6.38,1.43,10.37,2.71,15.61c0.94-0.44,1.37-0.51,1.57-0.76c3.95-5,7.93-9.95,11.73-15c1.01-1.43,1.72-3.05,2.07-4.76
		c1.03-4.64,3.27-8.92,6.49-12.41C319.14,284.72,321.56,281.14,324.19,277.74z M541.29,592.74c0-2.52,0.14-4.1,0-5.65
		c-0.35-3.07-1.34-6.14-1.23-9.19c0.18-5-1.57-9.14-3.86-13.39c-2.62-4.89-7.29-7.32-11.31-10.55c-4.02-3.23-8.13-6.15-13.85-6.18
		c-3.35,0-6.67-1.71-10-2.55c-5.25-1.3-10.52-2.51-16.65-4c0.88,2.45,1.51,4.13,2.1,5.83c2.21,6.42,4.23,12.92,6.65,19.26
		c1.8,4.71,3.3,9.88,6.36,13.69c5.53,6.94,12.77,12.34,21,15.65c2.65,1.07,4.9,1.3,7.43-0.12c3.94-2.22,7.65-5.47,13.36-2.82V592.74
		z M383.43,691.23c0.87-2,2.53-4,2.41-5.94c-0.33-5.11-2.61-6.09-8-4.4c-1.85,0.58-4,1.37-5.73,1c-13-2.74-26-1.31-39.06-0.45
		c-5.44,0.41-10.91,0.21-16.31-0.57c-8.19-1.3-16.2-3.75-24.39-5.08c-5.67-0.8-11.4-1.14-17.12-1c-3.52,0-4.86,2.74-4.1,6.88
		c0.56,3,2.46,3.93,5.74,3.47c2.57-0.24,5.16-0.21,7.72,0.08c1.85,0.12,3.67,0.75,5.51,0.81c22.28,0.76,44.57,1.26,66.83,2.31
		c5.77,0.28,11.47,2.25,17.2,3.44l-0.16,1c-6.11,0.4-12.19-4-19.38-0.55c2.05,1.21,3.23,2.44,4.53,2.58c5.31,0.58,8.88,4.18,13,6.93
		c3.4,2.29,6.9,4.43,10.37,6.6c1.86,1.16,4.23,2.45,5.63,0.17c1.23-2,2.3-5.16,1.56-7.09C388.15,697.61,385.37,694.29,383.43,691.23
		z M445.55,534.88c-5.32-1.73-9.24-3.06-13.2-4.26c-0.85-0.1-1.71-0.06-2.55,0.11c-3.58,0.21-7.33,1.18-10.71,0.46
		c-6-1.28-11.79-0.79-17.74-0.13c-10.76,1.2-21.32-0.23-31.81-2.73c-4.75-0.98-9.55-1.69-14.38-2.11c-1.05,0.02-2.03,0.5-2.7,1.3
		c-0.27,0.33,0.39,1.95,1,2.41c4.27,3,8.37,6.54,13.07,8.73c6.77,3.16,14.86,3.12,20.92,8.34c0.8,0.69,2.38,0.51,3.61,0.65
		c16.19,1.85,31.14-3.91,46.36-7.81C440.19,539.14,442.52,536.79,445.55,534.88z M382.79,566.53c-0.54,0.57-0.93,0.79-1,1.08
		c-2.37,10.35-4.76,20.71-7,31.09c-0.69,3.18,0.12,5.68,3.8,6.44c4.35,0.9,8.65,2.43,13,2.67c8.07,0.43,16.19,0.2,24.27,0
		c1.12,0,3-1.37,3.17-2.32c1.07-5.8,1.74-11.67,2-17.57c0.1-4.72-0.81-9.5-1.64-14.18c-0.34-1.9-1.66-3.61-2.54-5.41
		c-1.27,1.03-2.46,2.16-3.54,3.39c-5,6.92-14.16,9.38-21.95,5.89C386.62,575.51,383.91,571.77,382.79,566.53z M388.25,238.64h19.73
		c-7.07-6.77-17.19-6.91-19.75,0L388.25,238.64z M287.63,688.75c-3.33-2-10-1.74-12.11,0.24c-0.77,0.72-1.18,1.74-1.11,2.79
		c0.52,0.91,1.44,1.52,2.48,1.65C281.16,693.89,284.35,691.72,287.63,688.75z M302.09,523.26c3.55,3.46,11.36,4.41,15.06,1.84
		C313.79,522.23,305.79,521.25,302.09,523.26z M534.34,539.66c6.91,0.64,13.45-1.29,14.92-4.39
		C543.84,534.52,539.65,537.22,534.34,539.66z M184.89,459.13c-3.32,4.4-2.15,10.61,2,11.59L184.89,459.13z M188.02,353.13l10-7.55
		l-0.76-1C192.79,345.68,189.26,347.98,188.02,353.13L188.02,353.13z M540.02,600.7c-4.18,1.43-6.41,5.98-4.97,10.16
		c0.01,0.02,0.02,0.05,0.02,0.07L540.02,600.7z M417.43,238.9h9.84C424.04,235.31,420.79,236.32,417.43,238.9z M199.5,486.9
		c-0.86,1.33-1.73,2.31-1.59,2.5c1.14,1.47,2.48,2.78,3.76,4.15c0.52-0.51,1.57-1.33,1.49-1.46c-0.98-1.56-2.13-3.02-3.66-5.15
		L199.5,486.9z M320.5,525.48c1.67,3,6.7,3.19,9.42,0.8L320.5,525.48z M560.22,531.14c-0.12-0.4-0.24-0.8-0.35-1.2
		c-2.7-1.1-4.78-0.54-6.17,1.88l0.52,1.44L560.22,531.14z M566.22,530.45l1.06,1.35l5.65-4.54l-1-1.31L566.22,530.45z"/>
	<path class="st3" d="M411.51,488.89c-6.22-0.38-14.84-0.83-23.5-3.67c-10.78-3.53-20.24-8.95-29.79-14.78
		c-8.11-5-17-8.82-25.8-12.44c-8.5-3.48-10.81-10.37-11.88-18.32c-0.14-1,0.09-2.01,0.65-2.85c1.16-1.31,2.41-2.53,3.75-3.66
		c0.62,1.45,1.72,2.9,1.75,4.37c0.09,4.22,0.5,8.25,3.56,11.47c0.88,1.04,1.95,1.9,3.14,2.55c13.7,6.5,28.18,8.29,43.23,7.77
		c14.33-0.5,28.68-0.19,43-0.13c15.34,0.07,30.68,0.51,46,0.31c7.6-0.09,13.91-3.87,18.57-9.83c1.43-1.83,1.81-4.52,2.5-6.87
		c0.38-1.29,0.12-2.81,0.64-4c0.42-1,1.56-1.64,2.38-2.45c0.76,0.85,1.91,1.59,2.22,2.58c2.18,7-0.3,13.57-7.39,17.83
		c-16,9.63-32.09,19.07-48.28,28.34C429.49,488.97,421.79,489.07,411.51,488.89z"/>
	<path class="st3" d="M409.26,424.33c-7.79,0.45-13.39-3.65-18.33-8.49c-1.82-2.01-2.75-4.67-2.58-7.37c0.68-4.78,1.86-9.47,3.52-14
		c0.46-1.38,2.28-2.37,3.59-3.39c0.87-0.67,2.17-0.87,2.9-1.63c4.05-4.21,9.15-4.07,14.28-3.54c1.59,0.23,3.12,0.78,4.49,1.61
		c3.38,1.94,6.66,4.07,10,6.14c0.42,0.28,0.8,0.61,1.13,1c8.63,9.52,5.13,23.2-7.07,27C417.29,422.89,413.23,423.46,409.26,424.33z
		 M410.26,420.04l0.34,1c4.08-1.62,8.41-2.82,12.19-5c4.84-2.74,6.38-9.69,4.05-14.52c-3.05-6.45-16.68-11-22.05-9.45
		c-6.24,1.86-10.74,7.3-11.41,13.78c-0.55,5.72,0.25,6.92,5.67,9c0.93,0.35,1.75,0.95,2.36,1.73c2.22,3.1,5.3,3.88,8.9,3.49
		L410.26,420.04z"/>
	<path class="st3" d="M384.45,375.12c0.63-4,1-7.81,1.94-11.53c0.28-1.17,1.79-2.78,2.82-2.84c1.52,0.05,2.93,0.78,3.84,2
		c2.92,5.1,2.95,10.68,1.79,16.29c-0.4,2.31-1.03,4.57-1.9,6.74c-0.57,1.32-2.09,3.3-2.93,3.18c-1.59-0.38-2.91-1.49-3.54-3
		C385.6,382.38,384.93,378.76,384.45,375.12z"/>
	<path class="st3" d="M440.7,376.07c-0.5,4.7-1.79,8.76-5.23,11.88c-2.79,2.53-5.68,1.56-6.06-2.19c-0.71-6.85-0.52-13.7,2.1-20.19
		c0.64-1.41,1.86-2.48,3.35-2.92c0.82-0.15,2.53,1.55,2.94,2.74C439.01,368.84,439.79,372.48,440.7,376.07z"/>
	<path class="st3" d="M385.6,592.43c-0.32-4.06-0.58-8.37,4-10.25c4.89-2,10.07-3,15-0.24c1.4,0.79,2.47,2.06,3,3.58
		c2.38,9.47-0.94,17.7-10.65,21.42c-5,1.92-10.51-2.68-11.44-9.28C385.43,595.91,385.46,594.17,385.6,592.43z"/>
</g>
</svg>
