<?xml version="1.0" encoding="utf-8"?>
<!-- Generator: Adobe Illustrator 25.2.1, SVG Export Plug-In . SVG Version: 6.00 Build 0)  -->
<svg version="1.1" id="Capa_1" xmlns="http://www.w3.org/2000/svg" xmlns:xlink="http://www.w3.org/1999/xlink" x="0px" y="0px"
	 viewBox="0 0 848.69 1080" style="enable-background:new 0 0 848.69 1080;" xml:space="preserve">
<style type="text/css">
	.st0{fill:#56ADDF;stroke:#000000;stroke-width:3;stroke-miterlimit:10;}
	.st1{fill:#8DCCF1;stroke:#000000;stroke-width:3;stroke-miterlimit:10;}
	.st2{fill:#FFFFFF;}
	.st3{fill:#020203;}
</style>
<g>
	<path class="st0" d="M648.35,846.72H214.96c-34.96,0-63.31-28.34-63.31-63.31V263.03c0-34.96,28.34-63.31,63.31-63.31h433.38
		c34.96,0,63.31,28.34,63.31,63.31v520.38C711.66,818.38,683.31,846.72,648.35,846.72z"/>
	<path class="st1" d="M614.61,812.98H181.22c-34.96,0-63.31-28.34-63.31-63.31V229.29c0-34.96,28.34-63.31,63.31-63.31h433.38
		c34.96,0,63.31,28.34,63.31,63.31v520.38C677.91,784.64,649.57,812.98,614.61,812.98z"/>
</g>
<g>
	<path class="st2" d="M345.74,698.71c0,0-46.28,8.75-42.47,50.44c0,0,88.06,39.44,82.36-24.57c0,0,90.89,15.48,89.32-19.13
		c0,0-2-7.25-10.8-9.31c0,0-2.61-8.73-6.6-10.56c0,0,2.29-6.17,0.91-7c0,0-7.16,0.29-6.73,5.6c0,0-6,0.6-11.36,7l-31.5-1.26
		l3.43-15.2c0,0,16.71-3.26,13.07-23.19c0,0,10.28-13.28,0-24l7.93-34.11c0,0,22.28-21.52,21.43-48.31c0,0,15-7.73,10.79-17.06
		c-1.55-0.81-3.19-1.46-4.89-1.91c0,0,4.34-2.67-2.93-18.74c0,0,26.17-24.79,28.95-45.18c0,0,14.7-6,5.7-9.53l-6.21-0.36
		c0,0-1.41-5.78-5.27-7.39c0,0,3.64-14.47-10.72-14.26l-6.52-3.5c0,0-27.33-36-39.76-43l-11.08-15c0,0,27.29,10,8.9-45.58
		c0,0-10.16-36.92-20.91-37.13l-3-1.5c0,0,11.1-81.16-2.19-77.54c-13.29,3.62-24.5,18.61-22.32,38.11c0,0-1.12,23.25,8.89,35
		s3.1,7.66,3.1,7.66s-28,12.15-26.1,38.43c0,0-11.61-2.43-6.77,11.72c0,0,14.7,6.85,17.7,4.93l1.72,38.78c0,0-11.92,8.89-15.65,8.79
		c0,0-27.21,48.87-31.71,54.11s-13.61,9.29-13.93,12.74c-0.32,3.45-2.18,8.49-1.92,10.77c0.26,2.28-8.21,3.95-5.2,9.16
		s5.73,7,5.73,7s6.32,62.24,31,85.81l1.52,1.5c0,0-28,19.19-29.41,18.86c-1.41-0.33-1.46-2.82-6.82-1.74
		c-5.36,1.08-3.54,19.21,5.36,10.07l4.5-5.67l30.21-18.74l6.43,6.86c0,0-6.33,15.44-9,16.5s-8.93,0.43-6.41,6.86
		s13.16,6.85,10.2-2.79l10.61-17.57l5.91,4.48c0,0-6.85,42.88-7.92,43.74s-10.45,0.87-12.81,7.6c0,0-6,7.61-0.89,14.47
		c0,0-21.56,5.06,7.5,28.5l2.77,0.9C351.88,684.27,349.46,696.79,345.74,698.71z"/>
	<path class="st3" d="M346.94,638.48c-7.1,3.25-6.52,2.05-5.78,1.08c2.26-3.12,5.39-5.5,9-6.85c0.65-0.21,1.32-0.36,2-0.44
		c1.19-0.18,2.14-1.08,2.39-2.26c0.38-1.55,0.47-3.16,0.77-4.74c0.14-0.76,0.57-1.47,0.68-2.23c0.3-1.93,0.54-3.88,0.72-5.83
		c0.07-0.72,0.56-1.37,0.61-1.88c0.18-1.61,1.07-3,0.94-4.73c-0.09-1.84,0.17-3.68,0.75-5.43c0.8-2.38,1.26-4.86,1.37-7.37
		c0.14-1.12,0.36-2.23,0.68-3.31c0.19-1-0.09-1.95,0.59-3c0.62-1.24,0.13-2.75-1.11-3.37c-0.78-0.47-1.5-1-2.26-1.52
		c-1.18-0.8-2.34-0.64-2.94,0.6c-0.72,1.51-0.8,3.32-2.21,4.49c0.11,2.29-1.61,3.73-2.73,5.35c-1.58,2.12-2.41,4.71-2.37,7.35
		c0.08,4.24,1.09,8.4,0.83,12.68c-0.09,3.3-1.1,6.51-2.92,9.27c-2.68,3.94-3.58,5.1-7.34,6.63c-3.46,1.55-7.33,1.88-11,0.94
		c-3.85-0.73-7.34-2.76-9.89-5.74c-1.88-2.13-3.13-4.74-3.6-7.54c-0.41-1.67-0.61-3.4-0.59-5.12c0.06-2.07,0.4-4.11,1-6.09
		c0.86-2.43,2.16-4.69,3.82-6.67c3.13-3.45,7.08-5.8,12-5.77c1.86-0.16,3.73,0.04,5.51,0.58c2.33,0.88,4.77-0.41,6.88-1.43
		c1.17-0.77,2.05-1.9,2.53-3.21c1.53-3.5,3.42-6.83,5.63-9.94c0.21-0.61,0.13-1.28-0.22-1.82c-1.65-0.44-2.29-2-3.5-2.9
		c-1.21-0.9-2.18-1.61-3.21-2.37c-3.88,2.81-7.53,5.56-11.22,8.24c-3.23,2.34-6.68,4.35-10,6.63c-2.2,1.5-4.59,2.71-7.11,3.6
		c-0.93,0.37-1.63,1.16-1.89,2.12c-0.5,1.39-0.81,2.83-0.93,4.3c-0.28,1.89-0.76,3.74-1.43,5.53c-1.09,3.11-2.79,5.96-5,8.4
		c-2,2.11-6.25,5.09-9,5.25c-1.31,0.08-2.48,0.77-3.66,0.73c-4.63-0.17-9.07-1.14-12.51-4.54c-1.19-1.15-2.29-2.4-3.28-3.73
		c-3.15-4.23-2.69-9-2.73-13.68c1.29-1.4,1-3.41,2-5c1-1.59,1.49-3.32,2.63-4.65c1.87-2.17,4.5-3.37,7.11-4.52
		c2.12-0.93,4.35-0.58,6.55-0.72c4.05-0.44,8.1,0.71,11.31,3.22c0.49,0.28,1.05,0.41,1.62,0.38c1.2,0.06,2.4,0,3.78,0l2.32,2.31
		c4.63-3.09,9.79-4.89,13.58-8.8c5-2.16,8.54-6.38,13.38-8.77c-0.26-1.41-0.96-2.69-2-3.67c-3.13-3.62-5.87-7.56-8.18-11.75
		c-0.92-1.66-2-3.23-3-4.88c-1-1.65-0.88-3.85-2.64-5.05c-1.1-4.33-3.65-8.11-4.59-12.55c-0.48-1.94-1.15-3.84-2-5.65
		c-0.7-1.77-1.19-3.62-1.47-5.51c-0.17-0.9-0.53-1.78-0.66-2.59c-0.62-3.82-1.81-7.49-2.42-11.32c-0.54-3.43-0.33-7.08-2-10.32
		c-0.15-0.28,0-0.71,0-1.07c0.08-1.74-0.13-3.48-0.64-5.14c-0.53-1.45,0.16-3.17-0.72-4.76c-0.46-0.83-0.08-2.12-0.08-3.48
		c-0.82-0.54-1.73-1.23-2.73-1.77c-3-1.61-4.92-3.8-4.5-7.46c0.05-0.72,0.05-1.44,0-2.16c1.43-1,2.25-2.73,4.07-3.34
		c1.06-0.35,1.05-1.45,1-2.44c-0.21-3.12,0.28-6.24,1.43-9.15c0.89-2.64,2.72-4.86,5.14-6.24c2-1.1,4-2.47,6.34-3
		c0.63-0.22,1.16-0.68,1.48-1.27c0.9-1.66,1.64-3.41,2.48-5.1c3.02-5.78,6.45-11.35,10.26-16.65c3.26-4.76,6.21-9.71,9.28-14.58
		c1.14-1.65,1.97-3.49,2.44-5.44c0.34-1.82,1.71-3.08,1.88-5.06c0.15-1.73,1.6-3.38,2.56-5s1.91-3.05,2.86-4.57
		c-2.11-2-4.25-4-6.34-6c-1.94-1.68-3.06-4.11-3.07-6.68c0-0.6-0.56-1.2-0.88-1.86c-1.71,0.91-3.51,1.64-5.37,2.19
		c-1.84,0.37-3.8,0.09-6.28,0.09c2.36-2.61,5.11-4,7.41-5.91c2.41-1.9,4.67-3.97,6.76-6.21c2-2.24,3.76-4.7,6-7.55
		c-3.06,0.56-3.6,3.54-5.93,3.93c-1.23,2-3.58,2.43-5.32,3.75c-1.55,1.29-3.41,2.14-5.4,2.47c-2.12,0.18-3.72,2.76-6.29,1.12
		c1.14-1.57,3-1.8,4.53-2.29c1.56-0.61,3.07-1.33,4.53-2.16c1.61-0.77,3.18-1.62,4.7-2.57c1.52-1.04,2.98-2.15,4.38-3.35
		c1.38-1.09,2.7-2.27,3.94-3.52c1.21-1.28,2.24-2.74,3.42-4.22c-0.51-0.1-0.82-0.26-0.94-0.17c-1.38,0.83-2.66,1.82-3.81,2.95
		c-2.29,2.75-5.79,3.74-8.32,6.08c-3.1,0.55-5.71,2.8-9.07,2.52c-1.79-0.14-3.61,0.05-5.4-0.06c-0.85-0.11-1.62-0.57-2.1-1.28
		c0.91,0,1.82-0.12,2.73-0.12c5.58-0.02,11.06-1.51,15.88-4.33c0.18-0.1,0.48,0,0.65-0.16c1.19-0.91,2.41-1.8,3.52-2.8
		c2.93-2.65,6.35-4.79,8.41-8.34c0.53-0.9,1.59-1.48,2.23-2.34c0.32-0.63,0.53-1.3,0.64-2c-4.46-0.78-6.59-3.62-7.33-7.64
		c-0.26-1.37-1.67-2.7-0.35-4.21c-0.13-2.74,2-4.08,3.72-5.89l3.81,0.91c-0.35-1.63,0.73-3.23-0.67-4.74
		c-0.3-0.33-0.05-1.16-0.05-1.76c0-2.64,0-5.29,0-7.93c0-2.64,1.54-10.86,2.93-13.2c2.53-4.22,4.92-8.76,9.54-11.08
		c2.45-1.22,5.07-2.46,8-2.44c1.54,0,3.08,0,4.61,0c0.82-2.82-2.67-3.22-2.45-5.69c1.07-3.16,3.95-5.45,6.18-8.2
		c1.83-2.25,3.07-4.28,1.51-7.12c-0.15-0.27,0-0.69,0-1.3h-7.14c0.46-1.65,1.68-1.59,2.78-1.5c-0.13-1-2.28-0.47-1.15-2.07l3.82,0.9
		c-0.97-1.36-2-2.68-3.1-3.94c-3.2-3.26-6.27-6.68-10.35-8.94c-0.73-0.41-0.75-1.11-0.74-1.86c-0.12-2.28-0.09-4.56,0.09-6.84
		c0.18-2.02,0.61-4.02,1.28-5.94c0.49-1.19-0.31-3,0.85-3.94s-0.07-2.92,1.39-3.78c-0.6-1.86,2.07-2.58,1.53-4.41
		c1.86-1.91,2.5-4.78,4.85-6.28c1.37-0.87,1.93-2.42,3.19-3.43c2.51-2,5.7-2.95,8.9-2.66c1.19,0.08,2.38,0,3.5,0
		c1.5,1.57,3.35,2.77,3.64,5.08c0.28,2.15,1.26,4.22,1,6.42s0.85,4.27-0.67,6.21c-0.18,0.22,0,0.71,0,1.06
		c-0.23,2.07-0.38,4.15-0.74,6.19c-0.31,2-0.81,3.97-1.49,5.87c-0.41,1-0.11,1.79,0.2,3.14l-1.46-0.8c-1.71,0.39-2,2.09-2.93,3.19
		s-1.89,2.4-3,3.44c-1.11,1.04-2.92,0.75-3.58,2.87c0.18,2,0.15,4.01-0.09,6c-0.41,2,1.31,2.89,1.63,4.43
		c0,0.13,0.48,0.33,0.57,0.27c1.27-0.93,2.12,0.28,3.16,0.49s2.08-0.45,3.28-0.76v-2.6l-2.57,0.75l-0.26-0.51l5.12-3.74
		c-0.3,1.78-0.49,2.91-0.69,4s-0.46,2.42-0.73,3.78c-1.47,0.1-2.93,0.1-4.4,0c-1.27-0.17-2.47-0.65-3.53,0.47
		c-0.24,0.76,1.33,1.52,0,2.29l1.31,1.46l-1.36,1l2.31,3.85c-1.32,0.91-1.61-0.28-2.23-0.67c-1-0.67-1.24-0.54-2.22,0.69
		c-1.3,1.65-2.72,3.2-4,4.82c-0.64,0.65-1.14,1.42-1.48,2.26c-0.29,0.86-0.22,1.8,0.21,2.6c1.73,1.75,3.58,3.38,5.53,4.88
		c0.88,0.7,2.18,0,3.26,0.87s2.47,0.9,4,1.4c1.66-0.6,2.17-2.1,1.94-4.08c-0.05-1-0.05-2,0-3c1.28,0.9,0.37,2,0.74,2.83
		c0.37,0.83,0.14,2.08,1.77,1c1.1-0.55,2.43-0.23,3.17,0.75c1.34,1.44,3.1,2.48,4.48,3.89c3.1,3.03,5.41,6.78,6.73,10.91
		c0.24,0.76,0.37,1.55,0.4,2.34c0.06,1.44,0,2.88,0,4.32c-0.24-0.2-0.57-0.34-0.71-0.58c-0.9-1.66-1.76-3.34-2.63-5
		c1.46-0.76,1.46-0.76,0.45-2.35c-0.38-2.49-2.18-4.38-2.91-6.73c-0.07-0.22-0.58-0.27-0.78-0.49c-2.15-2.31-5.38-0.67-7.79-2.12
		c-0.44-0.26-1.48-0.29-1.73,0c-1.1,1.32-2.16-1-3,0s-1.73,0.7-2.63,0.64c-3-0.19-5.5,1.08-8.15,2.12c-5.5,2.16-10.33,5.74-14,10.37
		c-2.28,2.79-4.04,5.97-5.2,9.38c-0.11,0.55-0.34,1.06-0.69,1.5c-0.64,0.55-0.93,1.41-0.75,2.24c0.05,0.81-0.18,1.61-0.65,2.27
		c-0.53,1-0.79,2.13-0.76,3.26c-0.09,3.84-0.08,7.69,0,11.53c0.19,0.88,0.49,1.74,0.91,2.54c1-1.88,2.34-3.29,2.54-4.84
		c0.28-2.16,1.56-3.73,2.35-5.55c1.48-3.26,3.23-6.39,5.22-9.37c1.77-2.78,4.06-5.19,6.75-7.1v3.54c-1.65-1-1.65,0.79-2.37,1.11
		c-1.39,0.63-2.79,1.65-3,2.72c-0.4,1.89-2.64,2.75-2.31,4.84c-1.82,1.29-1.16,3.61-2.17,5.23c-0.87,1.39-0.55,2.91-0.74,4.39
		c-0.32,2.43,1.95,4.15,1.65,6.54c1.31,1-0.19,2.14,0.16,2.94c0.76,1.77,0.14,3.52,0.38,5.25c0.24,1.73,0.52,3.4,0.71,5.11
		c0.28,2.42,0.13,5,0.82,7.25c1.19,4,1.94,8.09,2.8,12.16c1.29,1.18,0.23,3,1.07,4.24c0.92,1.35,1.31,2.98,1.11,4.6
		c0,0.14,0.24,0.3,0.45,0.55l0.52-2.24c0.37,0,0.58,0,0.6,0c1.33,2.56,3.73,3.81,6.15,5.05c2.42,1.24,5.09,0.66,7.63,0.63
		c1.13-0.12,2.18-0.62,3-1.4c2.34-2,4.25-4.35,4-7.67c-0.14-1.72,0.91-2.2,2.24-2.72c-0.07-0.77,0.16-1.86-0.28-2.33
		c-1.81-1.94-2.29-4.58-4-7c-0.36,0.77-0.62,1.57-0.79,2.4c-0.09,2.16-0.1,4.33,0,6.48c0.13,3.2-0.54,6-3.36,7.95h-6.42
		c-0.7-0.7-1.4-1.35-2.05-2.06c-1.73-1.87-3.69-3.6-3.38-6.55c0-0.35-0.57-0.73-0.65-1.15c-0.38-1.07-0.65-2.17-0.81-3.29
		c-0.12-3.75,0.73-7.57-0.66-11.24c0.44-3-1.12-5.47-1.78-8.17c-1.65,0.31-1.65,0.31-3.81,3.15c-0.39-0.71-0.67-1.48-0.85-2.27
		c0-0.67,0.23-1.33,0.64-1.86c1-1.4,2.19-2.7,3.28-4.06c0.71-0.88,1.52-1,2.65-0.3c-0.28,0.93-0.57,1.88-0.85,2.83
		c1.24,0.84,2.73,1.23,4.22,1.11c1.39-0.08,2.79,0.1,4-0.74c2.19,0.63,3.42-1.74,5.4-1.75c1.37-1.76,3.23-3,4.47-5
		c1.53-2.45,3.1-5.12,6.13-6.08c2.69,1,3.29,3.56,4.61,5.6c1.48,2.27,1.87,5.07,1.08,7.66c-0.51-0.64-0.93-1-1.07-1.37
		c-1.14-3.28-1.51-7-4.78-9.1c-1.63,1.69-1.46,1.76-2.51,4.31c-0.79,1.93-0.75,4-1.37,5.92c-0.39,1.06-0.62,2.17-0.7,3.3
		c-0.06,3-0.28,6.1,0.67,9.08c0.89,2.75,1.4,5.57,2.81,8.22c2.3,4.35,8.19,4.73,11,2.47c3.07-2.45,4-6.23,5.64-9.55
		c-0.26-3.27,0.39-6.54-0.66-9.82c-0.98-3.54-2.49-6.92-4.49-10c-1.71-2.41-3.37-4.84-5-7.31c-0.81-0.94-1.48-1.99-2-3.12
		c-0.9-3-2.82-5.8-2.22-9.18c-1.35-2.81-0.49-5.81-0.71-8.71c-0.09-1.8,0.86-3.48,2.45-4.33c1.38-0.84,2.83,0.21,4.11,1
		c0.58,0.35,1.19,0.65,1.74,1s0.91,1.17,1.79,1.34v-1.36h1.08c0,1.45,1.6,2.52,0.91,4.16c-0.3,0.73-0.2,0.77,0.51,1.6l0.77-1.58
		c0.14,0.44,0.4,0.8,0.31,1c-1,2.38,0,4.45,0.63,6.73c0.75,2.52,0.7,5.27,1,8l1.26,0.72c-0.23,0.32-0.38,0.83-0.69,1
		c-2.39,0.9-4.82,1.72-7.49,2.66c1.7,2.79,3.58,5.47,5,8.36c1.42,2.89,3,5.77,3.37,9.13h1.69c1.63-5.36,0.81-10.83,0.95-16.23
		c0.05-1.84-1.15-3.55-0.73-5.48c0.05-0.22-0.32-0.61-0.58-0.81c-1.15-0.9-0.86-2.05-0.62-3.87c0.59,1.1,0.89,1.72,1.24,2.32
		c1.39,2.42,1.5,5.39,3.3,7.66c0.34,0.7,0.61,1.43,0.8,2.18c2.26,4.91,5.29,9.37,8.15,13.94c2.52,3.92,4.72,8.04,6.59,12.32
		c1.14,2.54,2.12,5.15,2.94,7.81c0.92,2.76,1.35,5.67,1.26,8.58c-0.89-0.91-2-1.5-2-2.15c-0.05-1-0.8-1.74-0.78-2.58
		c0.09-3.3-1.71-6.06-2.48-9.1c-0.79-3.15-2.14-6.13-4-8.79c-0.32-0.71-0.58-1.44-0.78-2.19c-0.15-0.32-0.58-0.51-0.88-0.75
		c-0.18,0.37-0.59,0.82-0.5,1.11c0.53,1.57,1.12,3.14,1.79,4.66c1.4,3.18,1.53,6.77,3.22,9.85c-0.24,2.12,0.5,4.13,0.66,6.19
		c0.25,3.23,0,6.49,0.1,9.73c0,1.26-0.77,2.07-1.23,3.07c0,0.07-0.44,0-0.66-0.05c-0.22-0.05-0.26-0.18-0.25-0.26
		c0.23-5.09-1.26-10.08-0.79-15.19c0.16-1.74-1.18-3.29-0.75-5.09c-1.28-1-0.36-2.47-0.78-3.68c-0.73-0.39-1.64-0.38-1.28,0.64
		c0.75,2.47,0.94,5.08,0.56,7.64c-0.12,1.16,1.61,1.81,0.43,3.19c-0.55,0.65-0.35,2-0.31,3.08c0.04,1.08-0.67,2.32-0.63,3.3
		c0.01,2.54-0.85,5.01-2.43,7l-2-0.85c0-1.55,0.26-3.36-1.32-4.83l-3.62,1.74c-0.58,1.65,0.63,2.57,1.65,3.19
		c2.47,1.51,4.75,3.32,6.77,5.4c3.46,3.5,7,6.93,10.43,10.47c3.13,3.24,6.33,6.44,9.12,9.95c1.7,2.14,3.61,4,5.42,6
		c1,1.11,1.88,2.34,2.82,3.51c0.94,1.17,2.16,2,2.89,3.49c0.73,1.49,2.4,2.23,3.52,3.5c0.73,0.84,2.35,0.33,3.51,1
		c0.93,0.54,2.18,0.49,3.24,0.86c2.98,1.07,5.59,2.97,7.54,5.46c-0.32,2.18,0.57,4.59-0.71,6.82c-0.13,0.44-0.02,0.92,0.29,1.26
		c2.58,1.94,3.41,5.27,5.83,7.3c1.11,0,2.2-0.06,3.28,0c2.52,0.13,4.45,2.27,4.32,4.79c-0.03,0.57-0.17,1.13-0.4,1.65
		c-1.1,2.42-2.81,4.23-5.68,4.35c-0.97-0.05-1.82,0.67-1.91,1.64c-0.47,2.2-1.5,4.29-1.44,6.61c0,0.24,0.1,0.6,0,0.7
		c-1.91,1.71-1.64,4.41-2.9,6.38s-2.15,3.95-3.3,5.87c-2.18,3.68-5,6.84-7.44,10.26c-2,2.73-4.48,4.86-6.69,7.31
		c-1.72,1.92-3.35,3.93-5.13,5.79c-0.55,0.48-0.72,1.26-0.42,1.93c0.44,0.63,0.39,1.42,0.71,1.87c1.71,2.41,1.38,5.09,1.38,7.74
		c0,1.44,0.07,2.89,0,4.33c-0.07,1.12-0.33,2.22-0.53,3.44c0.45,0.37,0.96,0.67,1.5,0.89c1.21,0.31,2.67,0.17,2.66,2
		c0,1.14,1.7,2.21,0.14,3.43c-0.14,0.11,0,0.46-0.15,0.65c-0.41,0.86,0.91,2.27-0.75,2.69c-1.46,0.36-0.06,2-1.33,2.59
		c-0.81,0.39-1.1,1.73-1.85,2.39c-1.67,1.47-2.77,3.6-5,4.41c-0.7,1.49-1.31,3.03-1.81,4.61c-0.29,1.13,0.37,2.65-0.16,3.54
		c-0.77,1.28-0.34,2.52-0.66,3.71s-1.27,2-1.32,3c-0.04,1.49-0.34,2.96-0.9,4.34c-0.63,1.18-1.06,2.46-1.27,3.78
		c-0.1,1.79-1.94,2.92-1.55,4.79c-1.55,4-6.9,12.51-9.69,15.46c-1.71,1.83-2.64,4.44-5.31,5.31c-0.52,1.47-1.13,2.92-1.54,4.41
		c-0.81,2.57-1.43,5.19-1.87,7.84c-0.38,3-1.86,5.61-1.87,8.69c0,2.29-1,4.58-1.6,6.87c-0.39,1.52-0.85,3-1.13,4.57
		c0.01,0.57,0.22,1.11,0.6,1.53c1,1.29,2.13,2.46,3,3.81c2.19,3.34,2.45,7.08,1.92,10.93c-1.24,0.86,0.24,2.69-1.24,3.45
		c-0.39,2.26-2.17,3.5-3.64,5c0.28,2-0.5,4.19,0.73,6.17c0.25,0.41-1,5.06-1.27,5.94c-1.32,4.88-5.3,7.44-8.93,10.29
		c-0.66,0.43-1.41,0.69-2.19,0.77c-1.84,0.29-2.35,1.86-2.66,3.17c-0.54,2.3-0.86,4.59-2,6.74c-0.67,1.21-0.52,2.87-0.76,4.46
		c0.47,0.42,0.79,1.57,2.07,0.67c0.62-0.3,1.31-0.43,2-0.36c2.76,0,5.59-0.4,8.27,0.08c3.64,0.65,7.33,0.17,10.88,0.77
		c2.36,0.33,4.74,0.52,7.13,0.58c1.88-1.58,3.6-3.14,5.45-4.53c0.88-0.72,1.95-1.17,3.08-1.3c1.39-0.11,2.86-0.31,2.9-2.46
		c0-0.85,1-1.73,1.71-2.49c0.36-0.43,0.89-0.69,1.46-0.71c1.06,0.2,1.75-0.72,2.6-0.71c0.98,0.19,1.93,0.52,2.81,1
		c-0.27,1.9,0.56,4.13-0.89,6.43c1.31,0.59,1.78,2,2.85,3c1.25,1.29,2.05,2.95,2.3,4.73c0.09,1.03,0.81,1.89,1.81,2.16
		c1.63,0.76,3.17,1.71,4.59,2.83c2.47,1.82,4.01,4.64,4.22,7.7c0.14,1.32,0.81,2.51,0.24,4.15s-0.57,3.56-2,5
		c-0.24,0.38-0.35,0.84-0.32,1.29c-0.09,1.08-0.09,2.17,0,3.25c0.06,1.27-0.4,2.51-1.27,3.44c-3.1,3.85-7.31,5.67-12.12,6.42
		c-1.91,0.19-3.8,0.59-5.62,1.21c-0.8,0.21-1.62,0.27-2.44,0.18c-2.77,0-5.64-0.48-8.28,0.11c-4.65,0.94-9.43,1.1-14.13,0.46
		c-6.78-0.76-13.52-0.25-20.27-0.6c-1.59-0.08-3.07-0.85-4.76-0.73s-3.29,0.43-4.75-0.67c-0.08,0-0.23,0-0.35,0
		c-2.45,0.07-4.9-0.14-7.3-0.63c-2.43-0.65-3,0.22-3.16,2.8c-0.33,3.27-0.96,6.49-1.86,9.65c-0.68,2.61-1.52,5.17-2.51,7.67
		c-0.93,2.37-2.64,4.43-4,6.64c-1.68,2.76-4.09,4.88-6.4,7.07c-1.75,1.66-4.13,2.17-6.36,2.88c-1.2,0.36-2.43,0.6-3.67,0.72
		c-1.19,0.12-2.4,0-3.6,0c-3.49,0-7-0.2-10.45,0.05c-4.29,0.31-8.49-0.44-12.68-0.91c-2.72-0.19-5.42-0.62-8.07-1.29
		c-2.57-0.77-5.21-1.34-7.75-2.2c-6.73-2.09-12.71-6.05-17.26-11.43c-2.18-2.66-3.33-9.12-1.78-12.63c0.62-1.38,0.1-3,1.33-4.14
		c-0.33-2.56,1.51-4.45,2.05-6.72s2-3.58,3.21-5.13c2.82-3.72,5.68-7.49,9.79-10c1.27-0.78,2.27-2,3.48-2.87
		c4.96-3.71,10.33-6.83,16-9.31c1.71-0.77,3.54-1.38,5.27-2.07c1.4-0.56,3.74-0.19,4.1-2.22c0.29-1.6,1.52-2.7,1.62-4.43
		c0.31-2.26,0.8-4.5,1.47-6.68c-3.03-1-5.88-2.48-8.44-4.39c-1.46-0.96-2.75-2.15-3.83-3.52c-0.76-1.06-2-1.76-2.37-3.27
		c-0.33-1.35-1.15-2.61-1.58-4c-1.01-3.56-0.46-7.38,1.51-10.51c1-1.52,2.64-2.4,3.8-3.82c-0.24-2,0.17-4.08-0.64-6.2
		c-0.6-1.59-0.07-3.53,8.17-9.51c4.91-4.56,2.27-3.78,1-2.91c-1,0.74-2,1.6-3,2.27c-1.53,1-2.41,2.43-3.51,3.81
		c-1.39,1.74-1.33,3.49-1.33,5.4c0,0.6,0,1.2,0,1.8c-0.02,1.04,0.3,2.06,0.92,2.89c0.79,1.15,0.85,2.8,1.16,4c-0.86,0-1.6-0.29-2,0
		c-0.74,0.62-1.43,1.29-2.08,2c-1.68,1.32-2.56,3.41-2.34,5.53c0.13,1.33,0.13,2.67,0,4c-0.07,0.92,0.21,1.84,0.78,2.57
		c0.81,1.38,1.75,2.67,2.8,3.88c3.73,4,4.8,4.56,11.15,7c0.22,0.09,0.4,0.24,0.53,0.44c0.6,0.92,1.68,0.71,2.44,1.08
		c1.53,0.76,3.31,0.13,4.62,1c1.7,1.13,3.49,1.08,5.34,1.08c3.84,0,7.69-0.09,11.53,0c1.61,0.01,3.21-0.25,4.74-0.77
		c3.95-1.16,7.95-2.09,11.59-4.23c1.62-0.95,2.83-2.27,4.3-3.32c0.7-0.59,1.22-1.36,1.49-2.24c0.55-1.49,0.9-3.05,1.05-4.64
		c-0.05-1.74-0.22-3.47-0.53-5.18c-2,2.15-4,3.7-6.89,3.52c2.47-1.44,4.71-3.25,6.63-5.37c2.16-2.12,4.13-4.41,5-7.29
		c0.82-2.65,2.36-5.11,2.26-8c1.18,3.07-0.43,6-0.29,9l-5,7.49c-0.39,3.15,0.65,6.62-0.73,9.94c1.42,0.34,2.83,0.71,4.26,1
		c2.61,0.58,5-0.94,7.63-0.76c0.89-0.07,1.77-0.3,2.58-0.68c3.65-1.08,6.89-3.24,9.29-6.2c1.51-1.68,2.5-3.77,2.85-6
		c0.21-2.6,0.05-5.23,0.05-7.73c-2.08-1.17-3.85,1.47-5.73,0.11c1-0.62,1.89-1.26,2.86-1.82c2.64-1.51,3.91-4.28,6-6.33
		c0.84-0.83,0.11-1.93,0.55-2.65c1.35-2.25,0.89-4.74,0.52-6.91c-0.37-2.17-0.88-4.8-3.54-5.78c-0.97,0.26-1.56,1.25-1.34,2.23
		c0.21,1.15-0.11,2.34-0.88,3.22c-2.27,2.69-4.84,5.05-8.83,4.7c-1.67-0.08-3.33-0.08-5,0c-0.81,0.04-1.61-0.19-2.27-0.66
		c-1.33-0.94-3.04-1.14-4.55-0.53l-0.25,3.34c-1.61-0.88-1.41-3.11-3.44-3.35c0,0.72,0.26,1.57,0,2.11
		c-1.09,2.04-1.59,4.34-1.45,6.64c-0.08,0.68-0.44,1.3-1,1.71c-1.68,1.23-10.06,4.37-12.2,4.4c-4.84,0.06-9.72,0.48-14.47-0.73
		c-1.92-0.49-3.78-1.3-5.67-1.95c-1.19-0.28-2.34-0.72-3.41-1.31c-2.75-1.92-5.75-3.57-7.94-6.64c0-2.31,0-4.94,0-7.57
		C353.15,634.6,353.55,634.28,346.94,638.48z M357.33,575.48c-1.06,1.56-2.26,2.74-2.73,4.15c-1.17,3.44-3.48,6.23-5,9.45
		c-1.52,3.22-3.92,5.82-5.71,8.83c-0.67,1.13-1.63,2.57-0.36,4.12c1.88-0.65,2.45-2.29,3.1-3.87c0.17-0.53,0.38-1.04,0.64-1.53
		c1.33-2.1,3.06-4,3.95-6.3c0.72-1.8,2.21-3.17,2.59-5.05c0.48-1.61,1.23-3.12,2.21-4.48c0.92-1.57,1.6-3,1.16-4.51
		c0.8-0.4,1.55-0.54,1.66-0.88c0.83-2.63,1.96-5.16,3.38-7.52c0.47-1.06,0.81-2.18,1-3.32c-2.4,3.39-4.37,7.06-5.86,10.94
		L357.33,575.48z M375.45,399.9v-3.17c0-1.09,0.07-2.17,0-3.25c-0.07-1.08,0.44-2.31-0.7-3.32c-0.58-0.53-0.75-1.53-1.45-3.07
		c0,2.63,0.54,4.66-0.14,6.13s0.28,3.62-1.79,4.5c-2-3.63-0.31-7.65-1.14-11.34c-3.52,1.2-5.81,4.28-9.28,5.53
		c-0.77,0.46-1.64,0.75-2.53,0.86c-0.95,0-1.9,0-2.78,0c-0.74,1.24-1.17,3-2.17,3.42c-1.57,0.7-0.12,3.11-2.19,3.1
		c-0.51,1.23-1,2.46-1.53,3.69c-0.43,0.78-0.74,1.62-0.93,2.49c-0.17,2.59-1.74,4.64-2.78,6.79c-1.27,2.86-2.78,5.61-4.51,8.22
		c-1,1.39-1.32,3.35-3.21,4c-0.5,2.83-3.19,4.35-4.11,6.95c-0.36,0.84-0.87,1.6-1.51,2.25c-2.91,3.47-5.15,7.45-6.61,11.74
		c-0.08,0.19-0.18,0.38-0.3,0.55c1.7,0.65,2.74-0.75,4.07-1.13c4.76-1.39,9.06-3.7,13.48-5.8c0.58-0.11,1.18-0.11,1.76,0v2.11
		c-0.56,0-1.35-0.24-1.66,0c-1,0.95-2.13,1.95-3.47,2.05s-1.55,2.37-3.24,1.67c-0.9,1.04-2.13,1.75-3.49,2
		c-1.25,0.21-2.38,0.84-3.22,1.79c-0.87,0.93-3.06-0.54-3.18,1.75c-1.88-0.7-2.88,1.24-4.43,1.48c-2.25,0.33-4,2.07-6.32,2.17
		c-1.12,1.56-3.75,1.56-4.09,3.94c-2.27,2.27-2.22,5.35-2.88,8.18c-0.17,0.72-0.35,1.43-0.53,2.18c2.35,0.69,2.81-1.65,4.14-2.35
		c0-0.58,0-0.94,0-1.3c0-3.3,0.16-3.4,3.73-4.21c0.37-0.08,0.59-0.82,1-1.39c3.1,0,6.33,0,9.56,0c0.55,0,1.32,0.06,1.6,0.41
		c0.78,1,1.76,1,2.85,1c0.56-0.04,1.12,0.13,1.56,0.49c0.68,0.9,1.58,0.82,2.49,1c0.98,0.25,1.9,0.67,2.72,1.25
		c2.43,1.67,5.19,2.84,7.32,5c1.41,1.44,3.34,2.36,5,3.63s3.37,2.9,5.08,4.31c0.7,0.57,1.06,1.67,2.24,1.54c0,1.3,1.28,1.39,2,2
		c2.31,1.91,4.67,3.76,7,5.63c-0.17,2,1.78,0.68,2.58,1.66c2.86,3.52,7.2,5,11,7.27c1.25,0.72,2.6,1.26,4,1.61
		c2.24,0.56,4.22,2.08,6.66,2.15c1,1.7,2.63,1.28,4.13,1.36c0.44,0.07,0.87,0.21,1.26,0.43c3.16,1.47,6.86,1.24,9.88,3.14
		c0.17,0.11,0.48,0,0.71,0c2.25,0.3,4.55,0.38,6.36,2.12c0.29,0.28,1.08,0,2,0c-0.35-0.75-0.52-1.14-0.71-1.51
		c-1.57-2.58-2.98-5.25-4.23-8c-0.52-1.28-1.53-2.3-1.77-3.58s-2.1-1.91-1.86-3.51c-1.43-0.78-0.88-2.54-1.8-3.59
		c-0.84-1.18-1.52-2.48-2-3.85c-0.29-0.6-0.15-1.53-0.57-1.9c-1.56-1.4-0.75-3.88-2.49-5.13c0.34-1.75-0.95-3-1.44-4.45
		c-0.39-1.51-0.89-2.99-1.49-4.43c-0.84-1.48-1.32-3.13-1.42-4.83c-0.01-0.56-0.2-1.11-0.54-1.56c-1.56-1.81-0.53-4.56-2.3-6.28
		c-0.07-0.07,0.1-0.41,0.19-0.62c0.29-0.74,0.58-1.49,0.9-2.29l0.37,0.37c1.32,1.07,0.34,2.84,1.33,4.16c0.84,1.09,1.69,2.84,1.37,4
		c-0.53,2,1.88,2.15,1.63,3.72c-0.05,0.56,0.12,1.12,0.49,1.55c1.13,1.14,1.14,2.68,1.62,4c0.15,0.42-0.08,1.17,0.17,1.34
		c1.77,1.24,1.82,3.37,2.66,5.06s1.52,3.22,2.19,4.86c1.84,4.54,4.48,8.7,6.08,13.35c2,1.39,0.93,4.59,3.34,5.76
		c1.09,4,3.23,7.56,5.11,11.14c-0.56,0.47-1.48,0.94-1.43,1.24c0.34,2.09-1.25,3.46-2,5c-1.42,2.51-3.19,4.81-5.25,6.83
		c-1.88,2-3.5,4.27-5.78,5.86c-0.1,0.08-0.18,0.16-0.26,0.26c-0.7,0.8-0.59,2.27-2.24,2.31c-1.26,0-0.58,2.39-2.26,2.19
		c-0.16,1.52-2.09,1.4-2.54,2.86c-0.31,1.23-1.07,2.3-2.13,3c-1.52,0.7-1.14,2.27-2.11,3.12c-0.85,0.63-1.42,1.57-1.58,2.62
		c-0.1,0.79-1.67,1.23-1.36,2.61c0.08,0.33-0.29,0.9-0.62,1.14c-0.66,0.53-0.96,1.39-0.78,2.22c0,0.72,0,1.44,0,2.16
		c-0.1,2.16-0.08,4.33,0.06,6.49c0.34,1.64,0.8,3.25,1.37,4.82c0.18,0.66,0.24,1.94,0.32,1.94c1.4,0,1,1,1.18,1.71
		c0.31,1.06,0.77,2.07,1.36,3c0.74,1.16,1.74,2.15,2.49,3.31c0.42,0.63,0.44,2,0.81,2.09c1.59,0.28,1.35,2,2.46,2.66
		c1.05,0.81,2,1.73,2.84,2.75c0.93,0.93,1.82,1.92,2.81,2.79s2.55,1.36,2.88,2.35c0.59,1.72,2.13,1.44,3.14,2.15
		c0.69,0.48,1.29,1.07,1.78,1.74c0.45,0.57,2.12-0.47,2.4,0.64c0.49,1.91,1.92,0.28,2.6,0.92c2.17,2,4.84,1.34,7.35,1.39
		c3.95,0.08,5.3-0.41,8.48-2.87c3.84-3,5.77-7.37,8.33-11.31c-0.13-1.85,1.77-2.87,1.88-4.63c2.16-1.18,0.75-4.44,3.17-5.47
		c-0.49-2.57,1.32-4.51,1.86-6.8c0.27-1.11,0.06-2.43,0.6-3.35c0.81-1.36,0.87-2.78,1.26-4.19c0.36-1.45,0.57-2.93,0.63-4.42
		c0.09-0.67,0.3-1.31,0.6-1.91c0.65-1.35,0.94-2.85,0.85-4.35c-0.1-1.36-0.31-2.8,0.68-4c0.57-0.87,0.83-1.9,0.76-2.94
		c0.15-3.27-0.61-6.61,0.69-9.79c-0.27-5,0.33-9.91,0.7-14.85c0.15-2-0.16-4.11,0.09-6.12c0.16-1.19-1.05-2.25-0.13-3.4
		c-1.28-0.75-0.16-2.35-1-3.31c-1.81,1.65-0.53,4.08-2.09,5.85c-1.18,1.33-0.62,3.7-1.87,5.32s-1.19,3.82-3.19,4.83
		c-1.25-1.71-0.1-3.05,0.53-4.27c0.63-1.22,0.72-2.77,1.55-3.65c1.17-1.25,0.64-2.73,1.18-3.87c0.45-1.19,0.67-2.45,0.63-3.72
		c0-0.43,0.13-1,0.42-1.24c1.07-0.74,1-1.77,1-2.85c0.06-1.59-0.58-3.39,1.23-4.55c0.19-0.13,0.17-0.64,0.19-1
		c0.24-4.35,0.58-8.69,0.7-13.05c0.12-4.56-0.12-9.13,0.06-13.69c0.2-5-1.3-9.86-0.78-14.85c0.05-0.45-0.1-0.91-0.41-1.24
		c-1.23-0.83-0.93-2.05-1-3.21c-0.09-0.9,0.51-2-0.49-2.66c-1.16-0.74-0.91-1.82-0.93-2.87c0.11-0.83,0.07-1.67-0.12-2.48
		c-1.1-2.56-1.65-5.31-2.68-7.9c-0.33-0.83-0.75-1.68-1-2.46c-0.48-1.65-1.94-2.77-2.08-4.6c-0.05-0.65-0.55-1.4-0.7-2.21
		c-0.11-0.61-0.88-1.1-1.31-1.59l1-1c0.13,0.18,0.26,0.35,0.38,0.53l2.68,3.93c0.89,1.3,1.06,2.89,1.93,4.28
		c1.04,1.58,1.84,3.3,2.37,5.11c0.4,1.53,1,3,1.4,4.45c0.43,1.78,1.28,3.35,1.71,5.09c0.4,1.18,0.62,2.41,0.68,3.66
		c-0.08,1.41,0.45,2.78,1.46,3.76c0.24,0.26,0,0.93,0,1.41v2.26h2.9v-10.2c0.88-0.56,1.81-0.16,2.66-1c1.4-1.39,2.35-1,3.83,0.83
		c-1.14,2-2.34,3.93-0.8,6.33c0.27,0.43-0.26,1.38-0.45,2.21c2.42,0.25,4.3-2.57,7.11-1.05c-0.18,2.07-0.71,4.1-1.55,6
		c-0.14,0.28-0.26,0.7-0.49,0.79c-1.68,0.59-3.38,1.12-5.1,1.68c-0.63,2.58-0.96,5.22-1,7.88c0.02,1.24-0.39,2.45-1.14,3.43
		c-0.63,0.77-1.95,1-2.94,1.47c-0.34,0.17-0.84,0.48-0.86,0.75c-0.09,1.38-1,2.54-0.82,4c0.14,2.04,0.14,4.09,0,6.13
		c-0.06,0.67-0.16,1.34-0.31,2c-0.11,0.71-0.24,1.42-0.49,2.93c1.11-1.42,2.23-2.21,2.15-2.87c-0.17-1.44,1.47-1.43,1.45-1.87
		c-0.06-1.31,0.69-1.93,1.4-2.72c0.35-0.44,0.64-0.93,0.86-1.44c0.8-1.95,1.73-3.86,2.78-5.69c1-1.52,1.12-3.62,3-4.54
		c-0.32-1.88,2-2.7,1.94-4.2c0-1.82,1.1-2.95,1.68-4.4c0.77-2,2.15-3.69,2.24-5.92c1.86-1.73,1.74-4.11,2.09-6.35
		c0.06-0.43,0.18-1,0.48-1.21c1.14-0.74,0.94-1.83,0.94-2.88c0-1.8,0-3.59,0-5.48c-0.36-0.08-0.88,0-1-0.23
		c-1.26-2.23-3.75-2.47-5.7-3.56c-0.31-0.17-0.84,0.09-1.22,0.14l0.81,1.6c-0.81,0.66-2,0.54-2.66-0.26
		c-0.01-0.01-0.01-0.02-0.02-0.03c-0.47-0.46-0.16-1.17-1.06-1.59c-1.09-0.5-1.65-2.26-2.74-2.67c-1.63-0.61-2.17-2.15-3.27-3.12
		c-1.48-1.26-2.8-2.7-3.93-4.28c-1.31-1.9-3.18-3.39-4.57-5.32c-1.39-1.93-3.42-3.36-4.92-5.2c-1.31-1.62-2.82-3-4.14-4.62
		s-3-3.09-4.56-4.62c-1.39-1.64-2.9-3.17-4.52-4.58c-1.17-1.03-2.29-2.12-3.35-3.27c-1.29-0.95-2.49-2.01-3.6-3.16
		c-0.92-1.2-2.21-1.85-3.24-2.88c-2.88-2.87-4.93-3.35-8.12-2.42l-0.53-1.36c-1.86,0-3.77,0-5.68,0s-3.72-0.07-5.5,0
		c0.91,2.44,3.87,2.1,4.75,4.28c3.65,2.1,6.87,4.86,9.5,8.15c1.35,1.58,3.06,2.89,3,5.24c2.31,1.54,1.16,3.9,1.37,5.92
		c0.06,1.15,0.06,2.3,0,3.45c-0.57,0.23-1.11,0.53-1.61,0.88c-1.19,1.08-2.77,1.63-4.38,1.52c-3-0.22-6.06-0.71-8.62-2.62
		c-0.37-0.28-0.71-0.85-1.07-0.86c-1.64,0-2.65-1.36-3.94-1.8c-1.37-0.57-2.63-1.39-3.72-2.4c-0.94-0.6-1.92-1.14-2.92-1.62
		c-1.06-0.67-2.07-1.42-3.07-2.16c-0.98-0.57-1.86-1.28-2.63-2.11c-0.74-1-1.87-1.54-2.74-2.34c-2.34-1.97-4.79-3.8-7.35-5.47
		c-0.08-0.06-0.33,0.12-0.73,0.27l1.57,2.17l-1.85,2.37c-0.32-2.16-0.42-3.69-1.31-5.14c-0.89-1.45-0.92-3.07-3.32-3.66
		c1.05,1.36-0.06,2.27,0.05,3.4c0.14,1.43,0,2.88,0,4.33v3.95L375.45,399.9z M376.89,550.9c-0.12,0.79-0.12,1.58,0,2.37
		c0.22,0.62,1.1,1,0.85,2.05l-2.43-2v-4.6c-3.14-2.42-5.78-5.38-9.6-6.71c-0.59,0.98-1.1,2-1.52,3.06
		c-0.31,0.85-0.33,1.78-0.06,2.64c2.48,5.7,6.34,10.12,13.24,11c0.75,0.2,1.48,0.48,2.16,0.85c0.49,0.26,1.02,0.44,1.57,0.54
		c1.9,0.06,3.79,0,5.84,0v-6.27c0-1.32-0.43-2.86,0.1-3.91c0.82-1.63,0.43-3.21,0.63-4.8c0.2-1.59,0.55-3.15,0.69-4.75
		c0.14-1.6-0.09-3,0.71-4.4c0.62-1.09,0.57-2.43,0.85-3.63c0.5-2.19,0.59-4.52,1.52-6.55c0.39-0.7,0.57-1.5,0.53-2.3
		c-0.22-2.26,0.83-4.2,1.47-6.11c-0.78-1.64-2.39-1.8-3.69-2.49c-1.15-0.54-2.18-1.33-3-2.3c-0.84-1.09-3-0.17-3-2.2
		c-1.74-0.74-3.45-1.54-5.22-2.2c-1.57-0.6-3.06-1.28-4.88-0.19c-1.04,0.66-2.43,0.35-3.09-0.69c-0.07-0.12-0.14-0.24-0.19-0.37
		c-1.82-4.19-5.21-7.35-7.29-11.39c-1.04-2.19-2.49-4.16-4.27-5.8c-2.29-5.17-6.2-9.24-9.52-13.7c-0.44-0.58-1.24-1-1.72-1.76
		c-0.59-0.91-1.36-1.69-2.26-2.3c-2.8-2-5.29-4.37-8.25-6.16s-6.3-2.2-9.23-3.83c-3.08,0.54-6-1.06-9.52-0.65l-6.8,9.31
		c-0.83,0-1.79,0-2.74,0c-2.01-0.1-3.89,1.02-4.76,2.84c-0.43,0.66-0.67,1.42-0.7,2.2c0.19,2.5,2.69,5.49,5.17,5.69
		c1.45,0.09,2.76,0.88,3.52,2.11c-0.66,2,0.41,3.69,1.35,5.45c2.72,5.11,7.31,8.56,11.15,12.68c1.82,0.26,2.33,2.29,3.84,2.91
		c1.91,0.78,3.44,2.13,5.18,3.17s3.78,1.51,5.35,2.68c2,1.52,4.5,1.92,6.6,3.34c1.94,1.33,4.61,1.53,6.9,2.4
		c1.66,0.63,3.27,1.42,4.78,2.35c0.81,0.62,1.73,1.07,2.72,1.33c2.05,0.42,2.4,1.29,2.3,3.62l-2.26-0.92
		c-0.6,0.7-1.67,1.36-1.74,2.12c-0.32,3.37-0.32,6.79,2.38,9.41c1.07,1,2.51,1.73,3.47,2.85c2.77,3.23,6.85,4.6,10,7.32
		c2.28,1.87,4.36,3.98,6.19,6.3L376.89,550.9z M397.57,674.81c-0.78,1.29-1.18,2.69-2.1,3.32c-2.17,1.57-4.54,2.85-7.05,3.79
		c-1.22,0.32-2.25,1.13-2.85,2.24c-0.61,1.06-1.09,2.19-1.43,3.36c-0.32,1.23-0.92,1.8-2.17,1.74c-0.6-0.04-1.2-0.04-1.8,0
		c-1.71,0.12-3.07,1.46-3.23,3.16c-0.07,0.78-0.32,1.53-0.75,2.19c-1.59,1.75-1.51,3.79-1.32,5.88c0.5,0.26,1.14,0.4,1.46,0.79
		c2.49,3.09,5.22,6,6.87,9.7c0.14,0.53,0.39,1.02,0.74,1.44c2,1.67,3,4,4.07,6.26c0.31,0.8,0.9,1.46,1.67,1.85
		c1,0.48,2.21,0.72,2.64,0.34c1.11-1,2.26-0.58,3.38-0.62c3.52-0.1,6.94,1.18,10.49,0.79c0.21,0,0.47,0.38,0.71,0.58
		c0.56-0.56,1.34-1,1.54-1.6c1.05-3.28,2.32-6.49,3.8-9.6c0.78-2.08,1.67-4.11,2.65-6.1c2.6-4.57,5.63-8.89,9.05-12.9
		c-1.69,0-3-0.12-4.3,0c-2.61,0.28-5.11-0.37-7.62-0.81c-0.71-0.13-1.49-1-2.2-0.59s-1.1,1.34-1.63,2c-1.3-2.18-1.43-4.88-0.33-7.17
		c0.62-1.43,0.78-3.05,1.35-4.49c0.71-1.79,1.18-3.67,1.4-5.59c-0.45,0-1-0.18-1.34,0c-1.74,1.07-3.88,1.27-5.79,0.53
		c-2.13-0.7-4.11-0.13-5.88-0.5L397.57,674.81z M377.26,685.65h-2.49c-4.68,0-9.37,0-14.05,0c-1.03,0.04-2.06-0.16-3-0.58
		c-1.54-0.73-3.48-0.64-5-0.86c-0.26,1.34-0.64,2.65-1.15,3.92c-0.39,0.56-0.62,1.21-0.67,1.89c0.08,2.6-1.31,4.74-2.36,6.94
		c-0.54,1.08-1.63,1.76-2.84,1.78c-1.67,0.17-3.3,0.64-4.8,1.39c-2.83,1.3-5.56,2.82-8.33,4.24c-0.42,0.15-0.82,0.32-1.22,0.52
		c-3.36,2.36-6.74,4.68-10,7.17c-0.91,0.7-2.17,1.43-2.18,3c3.75-0.68,6.84-3.35,10.76-2.7c0.12,0,0.3,0.06,0.35,0
		c1.16-1.35,2.69-0.61,4-0.67s2.53-0.89,4-0.84c5,0.19,10.08,0.07,15.13,0.07c0.71,0,1.71-0.28,2.1,0.08c1.28,1.2,2.9,0.09,4,0.71
		c1.48,0.82,2.94,0.58,4.43,0.65c1.06,0,2.13,0,3,0l1.19,1.84c1.27,2,3.74,2.1,5.36,3.73c2.16,2.18,4.21,3.79,5.43,6
		c1.34,2.41,1.78,2.9,3.56,4c0.01-0.11,0.01-0.23,0-0.34c-0.35-4.74,1-9.63-1.4-14.19c-0.46-0.88-2.53-6-3.14-6.63
		c-1.48-1.5-3-3-4.52-4.53c-0.49,0.6-1.11,1.08-1.82,1.39c0.27-1.38-0.09-2.61,0.69-4c0.89-1.62,1.1-3.62,1.52-5.48s2-3.4,1.5-5.54
		c-0.07-0.3,0.47-0.73,0.71-1.12c0.24-0.39,0.75-0.99,1.27-1.85L377.26,685.65z M346.02,755.98c-0.86-1.81-2-3.25-2.23-4.83
		c-0.49-2.86-1.2-5.75-0.79-8.7c0.3-1.32,0.53-2.65,0.68-4c0.1-4.61,2.15-8.45,4.52-12.2c0.28-0.52,0.54-1.06,0.75-1.62
		c-5.31,0-10.22,0-15.13,0c-1.49,0.01-2.98,0.18-4.43,0.51c-1.54,0.44-3.11,0.76-4.7,0.94c-1.83,0.11-3.65,0.43-5.47,0.71
		c-0.34,0.06-0.64,0.23-0.87,0.48c-0.53,0.64-1.31,1.01-2.14,1c-0.9,0.01-1.78,0.29-2.51,0.81c-2.48,2.06-5.63,3.32-7.5,6.15
		c0,1.77,0,3.58,0,5.38c0.03,0.79,0.2,1.58,0.5,2.31c1.43,3.88,4.42,5.61,8.14,6.82c0.1-1.75,0.1-3.5,0-5.25
		c-0.33-2.73,1-4.91,2.28-7c0.99-1.89,2.6-3.38,4.55-4.24c0.55-0.21,1.07-0.51,1.61-0.77c0.16,0.63,0,1.29-0.42,1.78
		c-1.48,1.61-3.34,2.93-3.81,5.28c-1.63,0.76-0.92,2.52-1.56,3.67c-0.72,1.38-0.84,3-0.34,4.47c0.84,2.51,1.36,5.65,5.08,5.77
		c2.17,1.49,4.57,0.33,7.2,0.86c-0.36-1.61,0.27-2.92-0.79-4.25c-0.59-0.84-0.84-1.87-0.71-2.89c0.29-2.23,0.84-4.41,1.65-6.51
		c0.68-1.61,1.18-3.59,3.4-4.46c-0.01,0.64-0.09,1.27-0.25,1.89c-0.58,1.33-1.8,2.68-1.84,3.88c-0.11,2.94-0.66,5.91,1.06,8.88
		c2,3.44,2.72,4.25,6.31,5.57c2.54,1,5.38,0.83,7.79-0.45L346.02,755.98z M365.7,720.98c-3.64-0.07-7.21,0.97-10.24,3
		c-4.03,2.51-7.14,6.26-8.87,10.68c-0.82,2-1.66,4-1.46,6.25c0.13,1.43,0.13,2.88,0,4.31c-0.09,2.18,0.41,4.34,1.44,6.26
		c1.81,4,5.35,5.69,9.17,6.15c5.69,0.7,10.18-0.22,15.42-4.2c2.4-1.62,4.27-3.92,5.36-6.6c0.58-1.3,0.31-3,0.36-4.53
		c0-1.29,0-2.59,0-3.88l-0.78,0.57l-1.05-2.15c0.47,3.51-2.23,6.11-1.9,9.53c-1.45-0.94-1.89-2.86-1-4.34
		c0.66-1.26,0.76-2.74,0.26-4.07c-0.4-0.95-0.59-1.97-0.54-3c-0.08-3.98-1.37-7.83-3.7-11.06c-0.71-1.06-1.53-2.04-2.44-2.93
		L365.7,720.98z M434.98,715.98c1.22,1.33,2.51,2.61,3.86,3.81c2.21,1.77,4.56,3.35,7.58,3.38c4.26,0.1,8.26-2.05,10.52-5.66
		c1.82-2.42,3.22-5.12,4.15-8c0.59-1.72,0.93-3.51,1-5.33c0-2.16-0.11-4.33,0-6.48c0.21-3.65-1.48-6.64-3.53-9.31
		c-1.46-1.88-3.82-3.29-6.34-2.68c-2.89,0.71-5.84,1.6-8.12,3.8c-2.11,1.96-3.78,4.34-4.9,7c-1,2.49-2,4.85-1.67,7.59
		c-0.02,0.34-0.08,0.68-0.18,1c-1.73,0-3-0.16-3.57,2.28c-0.77,3.29-3.13,6.13-3.5,9.67c-1.61,0.93-1.35,2.8-2.17,4.06
		c0.48,1.03,1.63,1.57,2.73,1.29c2.23-0.32,4.71,0.85,6.65-0.94c-0.86-1.67-3.47-2.14-2.48-5.5L434.98,715.98z M458.4,503.98
		c2.25-0.45,4.21-1.84,5.37-3.83c1.16-1.86,2.8-3.14,4.18-4.73c0.55-0.64,1.41-1.1,1.73-1.81c1-2.2,2.83-3.78,4-5.91
		s2.75-4.12,4.09-6.22c1.77-2.78,2.8-5.85,4.35-8.69s1.95-5.91,3-8.83c0.46-1.24,0.13-3,1.45-3.64c0.8-0.37,2.05,0.22,3.12,0.38
		l2.58-2.8c0-1.65,0.29-3.53-1-5.24c-0.76,0-1.59-0.07-2.41,0c-2,0.38-3.99-0.71-4.75-2.6c-0.75-1.43-1.43-3.54-3.83-4
		c-0.37,1.62-0.86,3.22-1.45,4.77c-1.15,3.26-2.7,6.38-3.71,9.64c-1.48,4.77-4.23,8.84-6.43,13.2c-2.54,5-5.95,9.58-9.14,14.23
		c-1.4,2.25-2.05,4.89-1.84,7.54c1.26,1.29,0.59,2.91,0.7,4.39c0.1,1.29,0.02,2.59,0.02,4.15H458.4z M380.86,388.42
		c0.27-0.02,0.54,0.03,0.78,0.15c4.38,3.38,8.86,6.63,13.05,10.24c2.37,2,4.91,3.87,7.35,5.81c1.98,1.51,4.1,2.83,6.33,3.92
		c2.54,1.16,5.23,1.94,8,2.3c1.5,0.24,3.09,0.24,4.13-1.34c0.17-0.26,0.76-0.24,1-0.3c0.43-3.15,0.12-5.84-2-8
		c-0.06-0.06,0-0.24,0-0.34c-1.33-2.69-3.64-4.66-5.28-7.13c-3.66-1.8-6.12-5.18-9.62-7.23c-0.51,0.81,0.12,2.36-1.54,2.65
		c-0.42-0.78-0.69-1.63-0.81-2.51c0.04-2.15-0.36-4.29-1.17-6.28c-1.78,3.15-4.75,4.13-7.71,5.14c-2.96,1.01-5.34-0.82-8-1.32
		s-4.18-2.54-6.5-4.86C379.63,382.75,380.22,385.48,380.86,388.42z M374.79,494.72c0.83,2.88,2.55,5.43,4.92,7.27
		c1.15,1,2.32,2.15,2.2,3.72c-0.07,1.34,0.68,2.59,1.9,3.15c1.43,0.92,2.82,1.89,4.24,2.78c1.85,1.16,3.46,2.92,5.92,3
		c0.33-2.13,0.3-4.4,1.08-6.36s0.43-3.82,0.67-5.85c-1.02-0.6-2.11-1.06-3.25-1.39c-3.26-0.45-6.21-1.78-9.2-3
		c-1.46-0.57-3.16-0.77-4.37-1.53C377.61,495.75,376.23,495.15,374.79,494.72z M389.45,365.83c-0.41-0.78-0.73-1.61-0.95-2.47
		c-0.14-1.19-0.14-2.39,0-3.58c0.1-0.96-0.36-1.89-1.18-2.39c-1.06-0.88-2.15-1.73-4-1.17c-0.2,1.2-0.41,2.52-0.64,3.85
		c-0.58,3.42,0.9,6.57,1.58,9.78c0.42,2.17,1.7,4.09,3.55,5.31c2.05,1.26,4.23,1.65,6.44,0.31c0.49-0.29,1.18-0.6,1.32-1
		c0.4-1.29,1.05-2.81,0.69-3.94c-0.37-1.3-0.58-2.65-0.62-4c-0.05-0.44-0.23-0.86-0.51-1.21c-1.08-1.44-2.2-2.84-3.59-4.61
		C390.79,362.5,390.21,363.93,389.45,365.83L389.45,365.83z M419.11,325.6c-1.39-1-2.13-2.15-1.8-3.71
		c0.12-0.92-0.13-1.85-0.69-2.59c-0.34-0.7-0.58-1.44-0.74-2.2c-1.11-4-3-7.43-6.51-9.78c-1.37-0.92-2.79-0.16-2.86,1.55
		c-0.07,1.71,0,3.58,0,5.37c0,1.79-0.41,3.79,2.49,3.57c0.24,0,0.49,0.47,0.77,0.69c3.1,2.42,3.32,6.33,1.65,9.71
		c-0.63,1.27,0.24,1.26,0.48,1.76c0.76-0.46,1.58-1.37,2.29-1.29C416.51,328.94,417.51,327.32,419.11,325.6z M387.66,249.6
		c-1.9-1.2-3.78-2.41-5.69-3.58c-1.14-0.7-1.15-2.51-2.74-2.76c-0.88-1.92-2.58-3.4-3-5.56c-0.13-0.54-0.3-1.07-0.51-1.58
		c-0.15-0.42-0.33-0.82-0.55-1.34c-1.65,3.02-2.25,6.5-1.7,9.89c0.95,1.07,1.98,2.08,3.08,3c3.85,2.81,7.17,6.27,9.81,10.24
		c0.22,0.34,0.72,0.5,1.34,0.91L387.66,249.6z M359.94,340.09c2-1.34,2.44-3,1.15-5.07c-0.11-0.17,0-0.49,0-0.7
		c-1.07-3.36-2.64-6.33-6.2-7.76l-2.44,1.5c0,2,0,3.93,0,5.84c-0.06,1.39,0.46,2.74,1.44,3.73
		C355.51,339.42,357.41,340.6,359.94,340.09z M354.94,561.65c-0.41,0.63-0.64,1.42-1.16,1.72c-5,2.88-8.8,7.3-13.74,10.22
		c-1.18,0.7-2,1.89-3.2,2.65c-1.22,0.76-2.32,1.7-3.27,2.78c-0.82,0.95-2.24,1.36-3.28,2.15c-3,2.27-6.61,3.58-9.25,6.34
		c-2.52,0.24-4,2.5-6.22,3.19c-1.62,0.51-2.72,2.19-4.62,1.92c-0.1,0-0.25,0.34-0.5,0.74l1.08,1.27c1.08-0.45,2-0.8,2.92-1.23
		c0.92-0.43,2-1.55,2.94-1.41c1.55,0.23,0.76-2.2,2.23-1.59l10.69-7.19c3-2,6-4,9-6c1.14-0.78,2.17-1.71,3.28-2.52s1.56-1.93,3-2.39
		c1.24-0.4,2.22-1.59,3.3-2.45c1.08-0.86,2.36-1.4,2.73-2.4c0.58-1.61,2.23-1.5,3.09-2.6c0.97-0.98,2.04-1.85,3.2-2.59
		c0.1-0.09,0.1-0.32,0.17-0.58L354.94,561.65z M457.54,720.56l0.54,0.52c0.58-0.27,1.16-0.58,1.76-0.81
		c3.73-1.42,5.44-4.75,7.45-7.79c1-1.55,0.3-3.23,0.48-4.84c0.12-1,0-1.92,0-2.88c0.25-2.26-0.57-4.51-2.21-6.09
		c0.3,4.23-1.14,8-2.31,11.76S459.53,717.2,457.54,720.56L457.54,720.56z M397.77,340.5c-3.74,4.45-9.05,4.62-13.63,6.55
		c4.42,2.06,8.37,5.15,13.63,4.55V340.5z M465.52,531.03c-0.49-0.9-1.04-1.75-1.67-2.56c-0.55-0.58-1.24-1.01-2-1.25
		c-0.5-0.08-1.01,0.1-1.35,0.48c-1,1.64-2.84,2.83-2.86,5.12c-0.06,2.39-0.52,4.76-1.36,7c-0.11,0.87-0.08,1.76,0.1,2.62
		c0.93-0.34,1.84-0.39,2.13-0.84c1.28-2,3.06-3.63,4.44-5.58C464.13,534.35,464.12,532.26,465.52,531.03z M308.24,600.29l3.95-3.08
		c-0.55-0.39-1.14-0.72-1.75-1c-2.29-0.73-2.8-2.28-1.28-4l1.62-1.81c-3.61-2.09-4.32-2-7.33,1.12
		C302.94,595.53,303.42,598.96,308.24,600.29z M341.72,599.12c-1.25,0.09-2.26-0.46-3.18,0.47c-1.12,0.98-1.84,2.34-2,3.82
		c-0.08,1.49,0.48,2.94,1.53,4c1.26,0.93,2.74,1.53,4.29,1.75c1.15,0.02,2.25-0.46,3-1.33c1.21-1.1,1.64-2.82,1.11-4.36
		c-1.09,0.28-2.19,0.48-3.31,0.6c-1.79,0.07-2.52-0.81-2.25-2.62C341.12,600.65,341.39,599.87,341.72,599.12L341.72,599.12z
		 M467.06,717.47c1.4-0.7,2.61-1.73,3.53-3c0.78-1.11,0.86-2.33,1.44-3.42c1.96-3.75,0.84-8.36-2.61-10.8c-0.52,1,0,1.74,0.54,2.52
		c0.98,1.36,1.21,3.11,0.62,4.68c-1.25,2.86-1.29,6.17-3.33,8.71C467.08,716.42,467.15,716.79,467.06,717.47z M458.43,511.47
		c0,2.6,0,4.84,0,7.07c-0.06,2.52,0.44,5.09-0.82,7.6c1.23-0.24,2.19-0.62,2.26-0.94c0.32-1.32,0.55-2.65,0.7-4
		c0.13-1.55-0.06-3.12,0.06-4.67c0.12-1.95-0.57-3.44-2.2-5.11V511.47z M361.84,719.42h4c0.57-1.2,1.08-2.25,1.51-3.13
		c-0.2-0.34-0.37-0.69-0.52-1.06c-0.33-1.28-1.25-1.49-2.4-1.48s-1.46,0.68-2,1.54C361.6,716.63,361.8,717.93,361.84,719.42z
		 M375.59,373.35l-0.83,0.09c0,3-0.18,5.93,0.06,8.86c0.15,1.93,1.44,3.58,3.28,4.2c0.89-2.56-1.21-4.46-1.11-6.59
		C377.11,377.48,374.68,375.88,375.59,373.35z M452.46,682.82c1.65,1.43,1.65,1.43,3.57,1.37s2.33-0.52,2.42-2.52
		c0.21-0.94-0.19-1.91-1-2.43c-1.12-0.39-2.37-0.05-3.14,0.85C453.65,680.97,453.03,681.88,452.46,682.82z M409.34,381.07
		l-4.87-5.65v7.63L409.34,381.07z"/>
	<path class="st3" d="M381.94,265.42c-2,0.3-3.95,0.16-5,2.41l2.69,0.26c-1.09,1.33-1.09,1.33-3.48,1.14c0.33-1.46-0.79-3.52,1.52-4
		C379.01,264.91,380.63,263.42,381.94,265.42z"/>
	<path class="st3" d="M364.68,465.87c-3.48-0.78-7.04-1.1-10.6-0.93c-1.58-2.26-2.89-4.43-2.36-7.14c0.13-0.68,0.09-2,1.75-1
		c1,0.59,2.57,0.06,3.86,0.2c1.35,0.21,2.68,0.5,4,0.85c-0.29-0.86-0.62-1.71-1-2.54c-0.95-1.56-1.44-3.35-1.44-5.17
		c0-0.48,0.22-1.17,0-1.42c-2-2,0.25-2.81,0.93-3.84c1.65,0.45,3.14,0.93,4.66,1.26c1.95,0.42,1.71,0.46,2.46,2.57
		c0.53,1.48,0,3.34,0.83,4.28c1.27,1.49,1.25,3.42,2.42,4.83c0.25,0.41,0.43,0.86,0.56,1.32h5.69c1.13,0.07,2.25,0.26,3.34,0.59
		c1.56,0.4,2.36,0.85,2.22,2.48c-0.17,1.43,0.38,2.85,1.46,3.8c-1.7,1.8-4.34,2.35-6.62,1.38c-1.13-0.27-2.3-0.4-3.46-0.38
		c1.22,2.93,1.87,5.73,3.33,8.25c0.58,1,0.22,2.53,0.3,4.17c-2.33-0.29-4.48-0.5-6.6-0.86c-0.56-0.14-1.04-0.5-1.34-1
		c-0.82-1.45-2-2.62-2.47-4.4c-0.37-1.39-0.09-3.29-1.83-4.35C364.32,468.54,364.68,466.99,364.68,465.87z"/>
	<path class="st3" d="M406.4,573.32l10.11-1.9c0.34-1.82-0.17-3.7-1.38-5.1c-1.31-1.75-2.3-3.72-2.91-5.82
		c1.29-0.55,2.57-1.19,3.91-1.65c1.55-0.54,2.37-0.15,3.34,1.43c1.34,2.19,3.36,4,3.71,6.76c0.13,1,2.58,1.5,4.09,0.8
		c1.55-0.9,3.2-1.6,4.92-2.09c0.46-0.09,0.39-1.73,1.54-1.22c0.82,0.36,2,1,2.09,1.65c0.21,1.16,1.32,1,1.71,1.78
		c0.39,0.78,0.86,1.35,1.4,2.18c-1.75,1.12-3.6,2.09-5.51,2.9c-0.86,0.27-1.68,0.65-2.44,1.13c-0.89,0.37-1.83,0.58-2.79,0.64
		c1.09,2.21,2.55,4.22,4.31,5.95c0.44,0.41,1.05,0.78,1.23,1.29s0.76,1.57-0.57,1.95c-0.51,0.14-0.87,0.84-1.39,1
		c-1.38,0.34-1.49,1.43-1.66,2.69c-2.65-0.6-3.78-2.81-5.26-4.5s-2.92-3.79-4.36-5.69c-2.48,0.34-4.4,2.44-7.05,2.17
		c-0.94,0.97-2.41,1.21-3.61,0.59c-1.15-0.77-2.04-1.87-2.56-3.15C406.84,575.89,406.54,574.61,406.4,573.32z"/>
	<path class="st3" d="M401.09,330.76c-3.49,0-3.49,0-5.24,1.44c-3.12-1.39-6.49-2.14-9.9-2.22c-1.82-0.12-3.62-0.4-5.39-0.83
		c1-2.35,1.11-2.47,3.56-1.59c0.47,0.28,1.07,0.26,1.52-0.07c1-0.65,0.09-1.06-0.05-1.61c-0.56-1.89-0.82-3.85-0.76-5.82
		c0.16-1.66,0.16-3.34,0-5c-0.39-3.05,1.2-5.5,2.25-8.09c0.83-2,3-2.56,5.19-2.38c3.4,0.29,4.8,2.7,6.53,5.07
		c1.73,2.37,1.68,5.55,3.32,8c0.39,0.58,0.09,1.64,0.05,2.48C402.02,323.61,402.73,327.17,401.09,330.76z M391.35,328.49
		c2.07,0.52,4.11,1.08,6.18,1.53c1.06,0.31,2.17-0.31,2.48-1.37c0,0,0-0.01,0-0.01c0.48-0.77,0.74-1.67,0.74-2.58
		c-0.33-2.53-0.16-5.18-0.87-7.58c-0.38-1.74-0.91-3.44-1.6-5.08c-1.31-2.44-3.06-4.62-5.16-6.43h-2.91
		c-0.82,0.87-2.14,1.62-2.35,2.61c-0.29,1.4-1.19,2.45-1.49,3.71c-0.19,1.54-0.21,3.1-0.07,4.64c1.03-0.52,2.28-0.13,2.83,0.88
		c1.15,1.69,2.34,3.35,2.23,5.56C391.3,325.68,391.35,326.99,391.35,328.49L391.35,328.49z"/>
	<path class="st3" d="M393.62,297.5h-5.43c-2.77,2.48-4.42,5.52-6,8.65c-0.36-3.24,1-5.9,2.84-8.33c0.68-0.9,0.66-2.68,2.51-2.41
		c2.22-1.52,3.84-0.35,5.36,1.21C393.11,296.83,393.27,297.07,393.62,297.5z"/>
	<path class="st3" d="M411.94,299.04l-1.55,1.54l-2.66-3.16c-2.56,1.62-2.56,1.62-3,4.58c-0.73-1.08-1.98-1.7-3.29-1.61
		c-1.28-0.07-2.51-0.5-3.56-1.23c1,0,1.93-0.1,2.89-0.12c0.96-0.02,2.14,0,3.21,0c0.67-1.51,0.62-3.39,2.31-4.33
		c1.85,0.23,3.34,1.61,3.73,3.43C410.32,299.26,410.94,298.97,411.94,299.04z"/>
	<path class="st3" d="M393.03,701.06c-0.32,0.5-0.53,1.12-0.75,1.12c-2.62,0.23-5.27,0.23-7.89,0c-1.86-0.34-3.61-1.15-5.07-2.35
		c-1.12-0.91-1.27-2.71-0.92-4.22c0.15-1.16,0.78-2.21,1.74-2.88c2.26-1.75,5.03-2.71,7.89-2.73c1.18,0,1.59,0.72,2,1.84
		c-1.81,0.36-3.53,0.82-5.27,1c-2.65,0.32-2.73,0.32-2.8,2.89c0,0.36,0,0.72,0,1.07C384.64,700.31,388.69,700.26,393.03,701.06z"/>
</g>
</svg>
