<?xml version="1.0" encoding="utf-8"?>
<!-- Generator: Adobe Illustrator 25.2.1, SVG Export Plug-In . SVG Version: 6.00 Build 0)  -->
<svg version="1.1" id="Capa_1" xmlns="http://www.w3.org/2000/svg" xmlns:xlink="http://www.w3.org/1999/xlink" x="0px" y="0px"
	 viewBox="0 0 848.69 1080" style="enable-background:new 0 0 848.69 1080;" xml:space="preserve">
<style type="text/css">
	.st0{fill:#56ADDF;stroke:#000000;stroke-width:3;stroke-miterlimit:10;}
	.st1{fill:#8DCCF1;stroke:#000000;stroke-width:3;stroke-miterlimit:10;}
	.st2{fill:#FFFFFF;}
	.st3{fill:#020203;}
</style>
<g>
	<path class="st0" d="M648.35,846.72H214.96c-34.96,0-63.31-28.34-63.31-63.31V263.03c0-34.96,28.34-63.31,63.31-63.31h433.38
		c34.96,0,63.31,28.34,63.31,63.31v520.38C711.66,818.38,683.31,846.72,648.35,846.72z"/>
	<path class="st1" d="M614.61,812.98H181.22c-34.96,0-63.31-28.34-63.31-63.31V229.29c0-34.96,28.34-63.31,63.31-63.31h433.38
		c34.96,0,63.31,28.34,63.31,63.31v520.38C677.91,784.64,649.57,812.98,614.61,812.98z"/>
</g>
<g>
	<path class="st2" d="M484.16,762.72l35.31-1.22l-2-45.14l11.48-0.21c0,0,3.5-11.85,3.4-18c-0.1-6.15,1.15-17.94,1.15-17.94
		s3.77,24.52,8.69,10c4.92-14.52,3.87-25.72,3.87-25.72l16.69,15.54l-4.18-17.62l4.51-22.22l65.74-39.5c0,0,7.85-42.13-30.23-40.16
		l-37.38,19.23c0,0-39.68-10.12-38,20.31c0,0-11.76,15.44-19.85,18s-21.18,28.9,5.53,28.59c0,0,17.71,5.8,17.4,18.24
		s-35.33,30.72-35.33,30.72l-0.7,6.66l7.37,0.63c0,0-21.66-1.58-18.54,11S464.64,744.5,484.16,762.72z"/>
	<path class="st2" d="M269.13,756.07c0,0-19.15-47.09-17.75-55c2.22-12.44,9.55-23.38,20.2-30.17l3.46-21.88l1.55-39.55
		c0,0-5.45-23.12,33.38-55.26c4.1-3.39,21.26-1.15,21.26-1.15l-3.22-9.59l-10.76-2.92c0,0-3-10.92,2.05-13.45
		c2.15-1.07,8.28-4.87,8.28-4.87l-0.76-9.52l-14.78,0.22l-31.76,16.51c0,0,2,9.73,3,12.9c5.47,18.35,12.16,20.5,12.16,20.5
		l-11,12.91c0,0-12.11-2-22.8-31.76c-2.17-6.05-3-0.9-3-0.9s2.54-19.17,27.9-33.57c0,0,26.89-13.44,28.67-17.76
		s-2.23-16.37-2.19-17.36c0.04-0.99,5.3-9.67,5.3-9.67l-23.1-22.6l13.55-3.47l22.55,22.48l10.43,1l19.63,1l12.32,6.15l10.42,4.84
		l8.9-0.87c0,0,3.37-8.93,8.87-10.22s16.17-1.85,16.17-1.85l8.93,5.81l4.19,4.53c0,0-0.54,5.1,3.05,5.4s4,5.5,3.94,7.36
		s2.41,9.83,2.41,9.83c5.82,4,5.7,6.22,7.56,8.85s-6,12.52-9.78,15.09s3.36,11.77-1.48,15.24c-4.84,3.47,1.88,8.09,4.72,11.78
		s11.66,9.94,5.68,19.55s-5.61,7.42-13.3,7.92s-10-5.25-9.31,2.06s6.35,0.14,3.71,13s-7.48,16.07-5.37,29.3s-2.13,26.49-2.13,37.75
		s0.18,2.87,4.29,12.7s5.35,28.51-1,30.38s-15.07-1.48-12.78,0.74s-1.5,31.41-0.24,36.87s0.43,1.94,10.59-0.83s9.91-6,14.46,2.53
		s0.57-0.67,8.73,3.8s7,0.36,11.55,7.45s12,5.6,0,9.87s-11.76-3.51-17.33-2c-5.22,1.39-23.86,11.5-29.06,0.37
		c-1.56-3.33-9.66-4.33-18.29-2.75s-20.47-14-20.47-14s-10.18-2.45-10.22,6.66s7.09,12,7.09,12s-27,1-52.52-5.44
		c0,0,4,10.05-6.24,5.16c-10.24-4.89-15.4-7.07-15.4-7.07s-3.71,7.36-6.83,7.34S269.13,756.07,269.13,756.07z"/>
	<path class="st2" d="M361.57,291.47c77.43,1.25,84,47.12,84,47.12c16.84,46.17-57.51,60.25-57.51,60.25
		c-38.41,19.27-7,35.39-94.74,44.54c-6.72,0.71-4.25-46-12.22-50.85c-105.53-64.36-3.49-82-3.49-82
		c15-28.46,13.21-42.21,13.21-42.21c-2.85-15.33,30-2.19,30-2.19l28.76,25.12L361.57,291.47z"/>
	<path class="st3" d="M495.88,699.4c0.88,0.93,1.92,2.38,1.75,3.42s-1.71,1.94-2.85,2.43c-2.89,1.23-6,1.93-8.83,3.32
		c-4.27,2.12-4.22,2.44-1.89,6.56c2.77,4.89,2.39,7.71-1.85,11.36c-0.86,0.73-2.37,0.69-3.57,1l1.11-3.5
		c0.49-1.52,1.48-3.1,1.34-4.56c-0.19-1.9-1.26-3.73-2-5.57c-1-2.58,0.16-4.2,2.23-5.57c2.9-1.92,5.76-3.92,8.94-6.1
		c-1-0.81-1.52-1.26-2.07-1.63c-4.54-3-4.63-6.12,0.25-8.47c6.07-2.93,12.49-5.14,18.63-7.94c2.74-1.17,5.25-2.81,7.44-4.83
		c2-2,3.27-4.79,4.8-7.27c2.58-4.15,2.65-11.5,0.27-14.33c-5.2-6.19-12.94-8.18-19.87-11c-6.37-2.62-10.37-7.18-8.43-13.88
		c1.17-4.13,2.47-8.25,4-12.26c0.44-1.17,1.75-2.1,2.83-2.9c4.2-3.13,8.42-6.23,12.74-9.2c0.85-0.58,2.14-0.54,3.22-0.79
		c-0.27,1.13-0.23,2.51-0.88,3.35c-2.7,3.49-3.15,5.07-0.28,8.31c4.07,4.45,6.96,9.84,8.43,15.68c0.91,3.75,2.9,7.24,4.5,10.8
		c1.94,4.3,4,8.56,6,12.83c0.15,0.32,0.42,0.57,0.75,0.7c0.74,0.21,1.69,0.61,2.2,0.32c0.55-0.51,0.82-1.26,0.71-2
		c-1.02-4.23-2.29-8.41-3.78-12.5c-2-5-4.61-9.8-6.88-14.72c-1.41-3.05-2.8-6.12-4-9.27c-0.33-0.88,0.12-2.06,0.22-3.11
		c1,0.49,2.32,0.75,3.06,1.53c0.74,0.78,0.95,2.1,1.42,3.17c1.42,3.16,2.9,6.3,4.26,9.49c2,4.65,4.09,9.27,5.78,14
		c1.91,5.37,3.33,10.91,5.14,16.31c1.16,3.48,2.1,3.49,5.35,1.84c6.4-3.25,10-9.12,14.16-14.48c0.41-0.52,0.37-1.39,0.78-3.06
		c-1.46,1.1-2.13,1.64-2.83,2.14c-3.47,2.53-6.89,5.16-10.49,7.5c-0.8,0.51-2.26,0-3.42,0c0.32-1.02,0.7-2.02,1.14-3
		c0.33-0.49,0.76-0.9,1.27-1.2c5.46-4.07,10.85-8.24,16.41-12.17c5.36-3.78,10.84-7.4,16.39-10.9c1.81-1.14,4.23-1.34,6-2.53
		c10.19-6.8,20.37-13.63,30.33-20.76c4.06-2.91,8.43-5.41,11.25-10.1c3.68-6.1,3.73-11.51-1.29-16.4c-1.82-1.78-3.79-3.42-5.68-5.13
		c-3.56-3.22-4.9-3.39-9.3-1.09c-0.83,0.43-1.59,1.21-2.44,1.3c-0.88,0.02-1.74-0.31-2.39-0.91c-0.26-0.25,0-1.56,0.46-2
		c1.12-1.15,2.53-2,3.67-3.13c0.69-0.69,1.57-1.73,1.48-2.52s-1.24-1.5-2.09-1.93c-0.87-0.33-1.79-0.52-2.72-0.55
		c-4.89-0.57-8.87,1.52-13.18,3.6c-9,4.35-18.07,8.56-26.63,13.87c-4.16,2.57-6.55,5.41-7.32,10.22c-0.75,4.62-8.23,9.8-13.47,9.76
		c-0.3-1.95,0.28-3.06,2.26-4c2.16-1,4.53-2.31,5.85-4.16c1.43-2,2.74-5,2.3-7.24c-0.55-2.82-3.44-4.18-6.63-4.83
		c-5.81-1.18-11.08,0-16.29,2.32c-3,1.35-5.23,0.61-6.45-2.3c-0.15-0.85-0.13-1.71,0.06-2.55c0.76-0.04,1.52,0,2.27,0.14
		c1,0.28,2,1.29,2.76,1.12c3.06-0.65,6-1.66,9.06-2.5c5.69-1.58,10.9-0.49,15.89,2.59c1.24,0.64,2.71,0.7,4,0.16
		c7.24-3.94,14.26-8.3,21.55-12.13c5.11-2.69,10.55-4.74,15.83-7.1c5.75-2.55,12.48-1.14,16.72,3.5c2.45,2.66,5.28,5,7.83,7.52
		c2.77,2.78,6,5.35,8,8.63c1.59,2.63,4.18,5.49,2.87,9.2c-0.68,1.95-1.52,3.86-2.35,5.75s-1.31,4.3-2.75,5.54
		c-4.63,3.99-9.5,7.7-14.58,11.1c-6,3.95-12.71,6.57-18,11.78c-3.3,3.25-7.88,5.22-12,7.63c-2.57,1.51-5.4,2.61-7.92,4.2
		c-2.05,1.29-3.62,3.37-5.72,4.51c-2.53,1.37-5.3,2.1-3.77,6c0.11,0.82-0.1,1.64-0.6,2.3c-2.33,3.61-4.83,7.11-7.08,10.77
		c-0.66,1.03-0.87,2.28-0.6,3.47c1.35,3.3,3,6.48,4.66,9.63c1.76,3.36,1.71,6.51-0.48,8c-3.29,2.22-5.23-0.49-7.07-2.38
		c-1.84-1.89-3.41-4.43-5.18-6.59c-1.63-2-3.22-1.8-3.88,0.66c-0.2,1.34-0.03,2.71,0.5,3.95c1.06,3.06,2.49,6,3.48,9.07
		c0.95,2.81-0.33,5.89-3,7.19c-1.21,0.63-3.75-0.78-5.44-1.72c-1.85-1-3.52-3.72-5.08-3.57c-1.56,0.15-2.8,2.94-4.19,4.56
		c-0.23,0.27-0.67,0.52-0.68,0.78c-0.06,2.09-0.83,4.69,0.11,6.2c3.71,6,2.63,14.57-3.4,18c-3.27,1.88-2.58,3.93-1.93,6.41
		c0.32,1.23,1.21,2.37,1.31,3.59c0.84,10.81,1.61,21.62,2.22,32.44c0.05,0.9-1.18,1.86-1.82,2.8c-0.99-0.68-1.87-1.49-2.63-2.41
		c-0.42-0.7-0.12-1.83-0.15-2.76c-0.28-7.92-0.46-15.85-0.88-23.76c-0.23-3.36-0.68-6.7-1.34-10c-0.58-3.17-3.08-4.53-6.26-6.15
		c-0.06,0.98-0.06,1.96,0,2.94c0.71,4.35,1.73,8.66,2.17,13c0.77,7.64,1.37,15.3,1.67,23c0.09,2.11-0.48,5.18-1.9,6.2
		c-2,1.42-5,1.76-7.63,1.77c-9.23,0-18.46-0.22-27.68-0.55c-1.3,0-3.33-0.83-3.7-1.79c-1.68-4.3-3.44-8.7-4.09-13.22
		c-0.74-5.24-0.49-10.64-0.3-16c0-0.8,2.07-1.52,3.18-2.27c0.1,1.21,0.1,2.44,0,3.65c-0.38,2.23-1.63,4.5-1.36,6.6
		c0.6,4.49,1.62,8.91,3.07,13.2c0.65,1.93,2.49,4.54,4.15,4.85c4.66,0.87,9.51,0.73,14.29,0.93c4.54,0.19,9.12,0,13.62,0.55
		c2.75,0.28,5.2-1.73,5.47-4.48c0.03-0.35,0.03-0.7,0-1.04c-1-7.14-1.64-14.34-2.68-21.48c-0.64-4.46-1.86-8.83-2.57-13.27
		c-0.18-1.12,0.28-3.11,1-3.47c2.88-1.52,5.96-2.62,9.15-3.26c4.68-0.72,6.94-2.73,6.52-7.63c-0.25-2.95-2.1-6-1.58-8.73
		c1.09-5.44,2.83-10.72,5.17-15.75c1-2.12,1.62-3.71,0.79-5.78c-1.76-4.41-3.53-8.81-5.41-13.17c-0.75-1.23-1.6-2.39-2.55-3.47
		c0,3.18,0.3,5.24-0.06,7.17c-1.38,7.49-6.81,12.83-10.53,19.08c-0.99,1.32-2.36,2.3-3.92,2.81c-4.43,1.74-9,3.09-13.44,4.84
		c-2.55,1.2-5.04,2.53-7.44,4C492.68,696.71,494.33,698,495.88,699.4z M523.43,648.1c-2.7-6.61-5.43-13.23-8.61-19.62
		c-1.93-3.67-4.28-7.1-7-10.23c-0.69-0.83-3.51-1-4.46-0.27c-2.45,1.83-4.57,4.06-6.27,6.59c-1.43,2.19-1.92,5-2.87,7.48
		c-1.19,3.11,0.37,7.73,3.45,9.3c3.67,1.87,7.49,3.47,11.22,5.22c4.7,2.2,9.62,4,13.27,8c0.75,0.69,1.56,1.32,2.42,1.87l1-0.4
		C525.04,653.35,524.32,650.7,523.43,648.1z M536.23,665.84c-0.46,7,4.4,18.21,8.93,20.11
		C546.24,680.76,540.64,668.38,536.23,665.84z"/>
	<path class="st3" d="M533.19,605.84c1.82-0.21,3.62-0.57,5.38-1.09c1.2-0.46,2.14-1.62,3.2-2.46c-1.31-0.42-2.65-0.75-4-1
		c-2.94-0.34-5.92-0.38-8.86-0.8c-2.94-0.42-3.54-2.61-3.41-5.19c0.16-0.91,0.13-1.83-0.07-2.73c-0.4-0.68-1.04-1.18-1.8-1.4
		c-0.34-0.13-1.36,0.45-1.35,0.66c0.18,2.74-0.31,5.95,1,8.1C525.24,603.42,528.2,606.63,533.19,605.84z"/>
	<path class="st3" d="M547.57,590.56c1.25-1.42,2.55-2.3,2.43-2.87c-0.63-2.83-3.06-3.15-5.41-3c-0.83,0.05-1.61,1-2.41,1.51
		L547.57,590.56z"/>
	<path class="st3" d="M370.44,413.55c0.15,4.3,0.13,4.15-4,3.5c-1.11-0.17-2.83,1-3.67,2.06c-1.29,1.61-1.85,3.78-3.06,5.47
		c-6.88,9.57-17.52,13-28,16.39c-4,1.28-8.53,0.73-12.81,1.12c-0.96,0.22-1.9,0.55-2.78,1c0.28,0.97,0.64,1.91,1.08,2.81
		c0.43,0.55,0.95,1.02,1.54,1.4c5.18,4.31,10.46,8.51,15.5,13c1.93,1.91,4.75,2.63,7.36,1.86c1.91-0.46,3.88-0.66,5.84-0.58
		c3.48,0.13,7,0.53,10.41,0.88c1.16,0.05,2.3,0.29,3.38,0.73c0.69,0.47,1.14,1.23,1.2,2.06c0,0.38-1.16,1.18-1.77,1.16
		c-3.72-0.13-7.68,0.3-11.08-0.88c-4.57-1.58-8.66,0.3-12.93,0.46c-5.12,0.11-10.2,0.82-15.16,2.1c-3.12,0.88-5.75,3.5-8.57,5.39
		c-0.17,0.11-0.2,0.75,0,1c2.66,4,2.4,9.9,7.94,12.1c2.2,0.88,2.55,2.57,0.33,3.83c-3.59,2-7.43,3.6-11,5.66
		c-4.4,2.54-8.77,5.19-12.9,8.14c-2.76,2-4.91,4.79-7.65,6.81c-4.72,3.49-9.77,6.54-14.52,10c-1.85,1.35-3.25,3.3-4.85,5
		c-4.85,5.09-6.94,11.53-8.69,18.08c-0.26,1.4-0.02,2.84,0.7,4.07c2.46,4.2,5.17,8.25,7.83,12.34c0.57,1.15,1.36,2.17,2.34,3
		c1,0.61,3.15,1.07,3.46,0.64c2.12-3.02,4.05-6.17,5.77-9.43c0.18-0.84-0.09-1.71-0.72-2.29c-0.87-0.21-1.79,0-2.48,0.58
		c-1.25,1.21-2.13,2.78-3.33,4c-0.45,0.49-1.36,0.56-2.06,0.82c-0.1-0.82-0.61-1.94-0.25-2.41c1.72-2.5,3.7-4.81,5.9-6.9
		c3.73-3.22,3.89-3.12,1.52-7.25c-3.74-6.53-3.71-7.71,0-11.77c6.48-7.07,14.81-11.49,23-16c5.79-3.15,12.1-5.38,17.77-8.71
		c3.47-2,6-2,8.64,0.69c0.57,0.66,1.08,1.37,1.54,2.11c-0.8,0.54-1.6,1.52-2.42,1.54c-3,0.07-3.07,1.57-2,3.65
		c0.66,1.36,1.48,2.63,2.42,3.81c2.13,2.6,1.39,4.46-1.66,5.71c-3,1.18-5.79,2.82-8.28,4.87c-2.38,2-3.8,5.5-2.15,8.2
		c0.95,1.57,4.34,1.66,6.64,2.39c0.2,0.07,0.46,0,0.69-0.06c3.13-0.24,6.59-1.11,7,3.75c0,0.28,0.39,0.61,0.68,0.76
		c3.09,1.6,3.16,3.68,0.45,6.37c1.5,0.65,3.08,1.84,3.63,1.48c1.55-1.25,2.97-2.67,4.21-4.23c2,3.23,0.5,5.53-2,8.05
		c-3.69,3.64-7.58,4.48-12.29,3.82c-2.89-0.4-4.86-4-3.53-6.32c1.72,0.93,3.52,1.72,5.37,2.36c1,0.27,2.17-0.38,3.26-0.61
		c-0.34-1.15-0.32-2.82-1.1-3.36c-2.36-1.66-2.34-3.88-2.12-6.23c0.22-2.35-0.6-2.64-2.85-2.39c-2.65,0.26-5.32,0.08-7.91-0.53
		c-3.54-0.82-5.81-4.75-4.35-7.77c2.29-4.71,2.94-10.77,9.5-12.46c1-0.25,2.33-2.91,2-3.76c-2.18-4.9-7.52-6.3-12.32-3.63
		c-1.47,0.95-3.03,1.75-4.66,2.39c-7.84,2.5-14.21,7.2-20.46,12.42c-4.34,3.62-7.35,6.79-4,12.5c0.25,0.66,0.36,1.37,0.32,2.07
		c0.75,8.8,6.67,14.57,12.18,20.52c0.92,0.81,2.18,1.13,3.37,0.84c3.29-1.4,6.32-3.47,9.65-4.77c2.23-0.87,4.17-3.47,7.62-1.85
		c-1,1.12-1.55,2.27-2.47,2.76c-3.39,1.79-6.88,3.39-10.36,5c-5,2.34-10,4.6-12.23,10.26c-0.56,1.16-1.38,2.16-2.4,2.94
		c-3.81,3.23-7.08,6.8-8.19,11.87c-1.25,5.71-2.51,11.41-3.72,17.13c-0.15,0.8-0.19,1.62-0.12,2.44c0.56,10.55,1.26,21.1,1.67,31.66
		c0.16,4.05-0.36,8.13-0.51,12.19c-0.08,2.2,0.2,4.42-0.07,6.59c-0.57,4.56-0.1,5.44,4.32,6.81c2.13,0.67,4.23,1.41,3.93,4.84
		c-3.21-0.73-6.44-0.93-9.13-2.24s-3.87-0.15-5.22,1.58c-2,2.54-3.59,5.49-6,7.59c-5.32,4.72-9.85,9.65-11.61,16.93
		c-0.93,3.85-1.61,7.22-0.23,11.13c1.52,4.33,2.21,9,3.26,13.44l-1.48,0.5c-0.69-1.09-1.8-2.12-2-3.3c-1-6.32-2.29-12.68-2.34-19
		c0-4.72,0.85-9.65,4.5-13.53c4.46-4.73,8.69-9.68,12.94-14.61c3.8-4.42,6.64-9.29,6.51-15.39c0-1.87-0.16-3.74-0.16-5.61
		c0-14.46-0.34-28.92,0-43.37c0.15-5.93,1.76-11.82,2.72-17.73c0.07-0.22,0.19-0.43,0.33-0.61c1.61-3.08,3.15-6.19,4.84-9.22
		c1.1-2,0.72-3.31-1.31-4.21c-5.79-2.49-10.7-6.67-14.07-12c-2.14-3.39-5.08-6.32-6.91-9.84c-1.38-2.67-2.67-6.17-2.12-8.93
		c2.75-13.95,11-24,23.32-31c3.61-2,7.66-3.9,10.33-6.9c4.44-5,9.32-9,15.55-11.34c7.08-2.63,8-4.67,4.88-11.62
		c-2.8-6.3-2.1-10.56,2.44-15.11c1.55-1.56,1.77-3-0.57-4.1c-0.63-0.3-1.21-0.7-1.72-1.18c-6.51-6.14-13-12.27-19.46-18.48
		c-0.77-0.85-1.38-1.84-1.79-2.92c-1.38-3.07-2.68-6.18-4.13-9.55l2.67-1.9c-0.4-0.63-0.87-1.22-1.4-1.75
		c-3.64-2.76-3.66-3.23-0.09-5.86c2.22-1.65,2.17-3-0.18-4.48c-3.36-2.17-5.49-1.16-6.92,2.81c-0.39,1.07-2,1.7-3.07,2.52
		c-0.46-1.4-1.36-2.83-1.26-4.19c0.11-1.63,1.07-3.2,1.67-4.79c-1.71,0.49-3.38,1.1-5,1.81c-3.57,1.85-5.36,1-5.34-3
		c0.14-2.16,0.62-4.29,1.42-6.31c0.53-1.65,1.69-3.09,2.17-4.74c0.38-1.17,0.29-2.44-0.25-3.55c-0.44-0.69-2-0.91-3.08-0.89
		c-2.2,0-4.39,0.37-6.59,0.57c-3,0.27-6.1,0.28-9.07,0.84c-7.74,1.44-15.41,3.29-23.16,4.62c-4.16,0.66-8.37,0.95-12.58,0.89
		c-4.3,0-6.17-3.08-4.8-7.15c0.38-1.1,0.57-2.28,1-3.35c2.4-5.94,2.33-12.85,7.39-17.78c1.76-1.72,0.67-3.45-1.76-4.38
		c-4.74-1.82-10.16,0.68-14.66-2.42c-0.15-0.1-0.46,0-0.69,0c-9.91-0.09-19.83-0.15-29.75-0.27c-2.82-0.23-5.59,0.82-7.55,2.87
		c-1.74,1.64-3.8,2.91-6.05,3.73c-2.83,1.14-4.28-0.08-4-3c0.09-2.45,0.47-4.89,1.11-7.26c2.45-7.25,5.14-14.41,7.86-21.56
		c0.42-1.09,1.26-1.96,2.33-2.41c6.51-1.73,13.07-3.3,19.64-4.79c4.32-1,8.71-1.64,13-2.65c2.19-0.51,3.43-4.17,1.67-5.31
		c-3.29-2.06-6.8-3.74-10.47-5c-2.33-0.83-5-0.54-7.48-1.09c-3.46-0.77-6.83-2-10.29-2.76c-3.19-0.72-5.42-2.91-5.21-5.57
		c0.33-4.15,1.33-5,5.87-5c10.59,0.1,21.2,0,31.77,0.51c3.42,0.17,6.76,2,10.13,3c1.07,0.34,2.3,1.28,3.15,1
		c3.84-1.27,7.62-2.76,11.32-4.4c1.39-0.62,3-2.32,0.73-3.31c-2.61-1.25-5.5-1.81-8.39-1.61c-5.92,0.74-6.52,1-9-4.31
		c-0.7-2.05-0.52-4.3,0.5-6.21c1.18-2.13,3.57-2.89,6.39-2.5c8.84,1.21,17.7,2.28,26.58,3c5.1,0.44,10.29,0,15.41,0.29
		c8.63,0.57,13.6,4.72,15.72,13c0.2,1.34-0.22,2.7-1.14,3.69c-2.23,1.86-4.57,3.58-7,5.17c-3.77,2.68-8.65,4.59-11.08,8.17
		c-5.13,7.57-9.11,15.93-13.31,24.1c-2.43,4.72,1,11.33,6.2,11.86c4.75,0.57,9.55,0.73,14.33,0.49c12.63-0.85,25.14-1,37.13,3.87
		c1.1,0.45,1.89,1.67,2.83,2.53c-1.08,0.7-2.15,1.42-3.25,2.09c-1.59,1-4,1.58-4.59,3c-0.5,1.14,0.82,3.36,1.77,4.82
		c2.23,3.45,5.75,6.22,5.14,11c-0.06,0.47,0.83,1.56,1.14,1.51c2.57-0.42,6.25-0.17,7.44-1.75c3.46-4.57,7.24-8.52,12.22-11.34
		c0.29-0.17,0.45-0.56,0.74-0.74c3.51-2.31,5.62-6.88,10.67-6.7c0.84,0.09,1.68,0.25,2.5,0.47c-0.54,0.77-0.91,1.82-1.64,2.25
		c-1.8,1.05-4,1.53-5.61,2.76c-3.88,2.89-7.58,6-11.24,9.18c-0.85,0.74-1.91,2.09-1.73,2.92c0.49,1.11,1.47,1.93,2.66,2.19
		c2.52,0.41,5.12,0.24,7.68,0.45c5.14,0.42,10.41-1,15.38,1.92c2.74,1.6,6.07,2.19,9.11,3.27c2.71,1,5.34,2.54,8.11,2.86
		c4.3,0.64,8.7,0.17,12.77-1.38c5-2,10.89-1.9,16.41-2c9.06-0.15,16.81-3.39,24-8.57c2.82-2,5.88-3.72,8.7-5.76
		c3.9-2.83,8.13-5.41,11.36-8.89c2.81-3,4.35-7.21,6.6-10.8c4.12-6.59,2.71-13.85,2.54-20.93c0.06-2.23-0.47-4.44-1.52-6.41
		c-4.7-7.37-7.5-15.74-14.55-21.89c-6.02-5.26-13.22-8.98-21-10.83c-7.84-1.85-15.25-4.52-22.83-7c-4.74-1.47-9.64-2.36-14.6-2.65
		c-3.11-0.21-6.31,1.12-9.49,1.62c-0.85-0.02-1.69-0.18-2.48-0.49c0.36-0.9,0.5-2,1.14-2.61c0.85-0.57,1.83-0.92,2.85-1
		c3.61-0.67,7.23-1.28,10.85-1.84c0.79-0.13,1.6-0.06,2.36,0.2c4.83,1.83,9.56,4,14.46,5.58c9.46,3.08,19.52,4.26,28.49,8.95
		c1.46,0.91,3.03,1.61,4.67,2.11c4.93,1.05,8,4.79,10.94,8.13c4.7,5.1,8.32,11.09,10.64,17.63c2,5.93,4,11.66,3.43,18
		c-0.28,3.24,0.3,6.73-0.72,9.69c-2.47,7.04-6.29,13.53-11.25,19.1c-1.55,1.77-3.76,3-5.77,4.34c-3.28,2.18-6.91,3.9-9.91,6.4
		c-7.37,6.14-16.37,8.58-25.08,11.64c-1.6,0.57-3.67-0.35-5.48-0.16c-1.11,0.13-2.09,0.77-2.65,1.74c-0.22,0.72,0.79,2,1.49,2.76
		c1.8,2.09,3.85,4,5.53,6.13c0.39,0.95,0.29,2.03-0.28,2.88c-2.5,2.95-5.58,2-8.69,1.05c-2.32-0.68-4.75-1-7.13-1.51l-0.77,1.23
		c1.2,1.74,2.27,3.56,3.22,5.44c0.44,1,0.1,2.32,0.1,3.5c-1-0.51-2.18-0.8-2.83-1.58c-2.2-2.63-3.74-5.95-8-6.89
		C370.58,412.42,370.49,412.98,370.44,413.55z M341.04,415.07c-0.37,0.81-1.02,1.46-1.83,1.83c-0.66,0-1.27-0.34-1.62-0.9
		c-0.88-3.71-1.61-7.45-2.51-11.84c-2.89,2.09-6.23,3.68-8.36,6.27c-2.13,2.59-3,6.16-4.78,9.92c-0.7-1.31-1.23-2.7-1.58-4.14
		c-0.41-3.19-1.92-5.25-5.13-5.71c-3.21-0.46-5.7,1.21-6.83,4.63c-0.18,0.56-0.14,1.25-0.47,1.68c-0.61,0.72-1.28,1.39-2,2
		c-0.56-0.76-1.68-1.62-1.57-2.27c0.62-3.74-1.92-3.69-4.28-3.75c-4.46-0.11-7.22,2.37-7.11,6.69c0.24,2.81,0.63,5.6,1.17,8.36
		c0.2,1.5,0.67,3.08,0.39,4.5c-0.67,3.14,0.37,6.41,2.73,8.59c4,4.12,8.02,8.24,12.05,12.35c2.93,3,6,5.83,8.82,8.93
		c2.66,2.94,5.81,2.19,8.7,1.2c2.16-0.74,1.38-2.71,0.14-4c-3.51-3.65-7-7.34-10.77-10.75c-1.4-1.27-3.52-1.71-5.25-2.65
		c-2.49-1.33-5-2.72-7.35-4.21c-0.49-0.3-0.64-1.13-1.32-2.4c2.42-0.29,4.41-0.68,6.4-0.75c6.37-0.25,12.93,0.54,19-0.79
		c7.35-1.69,14.45-4.29,21.15-7.76c4-2,7.61-5.69,8.31-10.66c0.33-2.4-0.67-5-0.88-7.46c-0.15-1.78,0.1-3.58,0-5.37
		c-0.12-0.83-0.34-1.65-0.64-2.43c-0.72,0.21-1.4,0.55-2,1c-0.67,0.66-1.09,1.52-1.2,2.45c0.14,3.85-3.06,5.67-5.06,8
		c-1.65,1.93-3-0.14-3.75-1.81c-0.35-0.98-0.63-1.98-0.82-3l-1.25,0.21C341.51,412.39,341.35,413.74,341.04,415.07L341.04,415.07z
		 M282.16,567.69c1.49-2.35,3-4.72,4.2-7.2c0.3-0.62-0.22-1.65-0.37-2.5c-0.89,0.27-2.2,0.26-2.62,0.86
		c-1.67,2.38-3.16,4.88-4.46,7.48c-0.35,0.71,0.27,1.89,0.56,3.56C280.97,568.69,281.76,568.31,282.16,567.69z M288.16,567.4
		l-1-0.51c-1.41,1.46-4.38,2.14-1.68,5.67L288.16,567.4z"/>
	<path class="st3" d="M419.8,536.93c2.19-0.51,5.41-0.31,6.34-1.67c1.9-2.8,4.33-3.52,7.16-4.37c1.21-0.36,2.84-1.76,3-2.83
		c0.29-2.54,0.82-5.39-1.8-7.42c-1.65-1.28-1.13-2.85,0.32-3.78c3.17-2,6.69-3.55,9.67-5.79c1.39-1.27,2.22-3.04,2.29-4.92
		c0-1-1.92-2.56-3.23-2.91c-4.83-1.29-9.73-2.33-14.67-3.1c-4.44-0.58-8.51,2.55-9.09,7c-0.1,0.74-0.09,1.49,0.02,2.22
		c0.15,1,1.17,1.92,1.94,2.72c0.46,0.47,1.47,0.46,1.82,1c0.53,0.93,0.96,1.9,1.28,2.92c-1,0.19-2,0.43-3,0.54
		c-0.35-0.04-0.68-0.2-0.93-0.45c-3.9-3-7.83-5.93-11.63-9c-0.45-0.37-0.4-1.73-0.16-2.5c1.22-3.86,4.57-5.17,8-5.79
		c7.46-1.34,15-2.13,22.53-0.27c0.77,0.19,1.9-1.08,2.86-1.67c-0.65-0.91-1.09-2.19-2-2.65c-2.64-1.4-5.38-2.6-8.2-3.61
		c-2.68-1.12-5.5-1.87-8.38-2.23c-2.62-0.17-5.34,0.62-6.23,3.93c-1.18,4.34-3.39,5.19-7.4,3.18c-1.03-0.37-2.1-0.61-3.19-0.71
		c-0.11,1-0.21,2.07-0.33,3.11c-0.1,0.76,0,1.94-0.38,2.18c-0.78,0.45-1.72,0.52-2.55,0.17c-1-0.81-2.39-2.2-2.25-3.16
		c0.5-3.71-1.43-4.37-4.44-4.64c-4-0.37-5.65-2.49-5.35-6.48c0.25-3.24-0.28-6.18-3.39-7.85c-2.61-1.41-5.4-2.48-8.06-3.79
		c-0.6-0.41-1.15-0.9-1.61-1.46c0.76-0.36,1.54-1.07,2.26-1c2.09,0.19,4.14,0.94,6.22,1c1.18,0,3.19-0.68,3.45-1.5
		c1.75-5.47,7.18-6.59,11.14-8.2c4.84-2,10.72-1.42,16.17-1.85c4.4-0.34,7.33,1.72,8.93,5.81c1.13,2.89,3,4.87,6.31,5.41
		c1.29,0.4,2.41,1.21,3.19,2.31c2.25,2.65,2.89,6.31,1.68,9.57c-0.88,2.76-0.57,4.6,2.71,6c2.95,1.29,6.51,3.09,5.52,7.79
		c-0.17,0.84,0.79,2.12,1.52,2.92c2.38,2.59,3.42,5.38,1.19,8.44c-1.72,2.31-3.62,4.46-5.7,6.45c-1.87,1.82-3.78,3.39-3.49,6.44
		c0.25,2.76,0.09,5.56,0.18,8.35c0.19,6.31,0.62,12.45,4.34,18.06c3.12,4.72,3.27,10.25,2.84,15.87c-0.16,4.04-2.44,7.69-6,9.6
		c-1.37,0.68-2.92,0.89-4.42,0.59c-2.6-0.49-5.09-1.59-7.68-2.21c-0.88-0.21-1.94,0.28-2.91,0.45c0.04,1.02,0.23,2.03,0.57,3
		c3.8,7.21,4.23,14.33-0.2,21.46c-0.56,0.88-0.87,1.89-0.92,2.93c-0.09,4.2,0.07,8.4,0,12.6c-0.18,6.77-0.24,13.56-0.83,20.29
		c-0.39,4.46-1.62,8.85-2.48,13.27c-0.65,2.66-1.16,5.35-1.52,8.06c-0.19,2.1-0.49,4.75,0.55,6.29c4.46,6.56,7.26,13.75,9.45,21.28
		c1.83,6.25-3.71,15.86-10.06,17.11c-2.44,0.48-5.86-0.07-7.14,1.36c-1.48,1.65-1.08,5-1.5,7.58c-0.05,0.22-0.09,0.45-0.12,0.68
		c0,8.16-0.06,16.32,0,24.48c0,2.46,1.4,3.84,3.88,3.1c2.93-0.79,5.77-1.87,8.47-3.24c6.21-3.36,8.69-2.73,11.8,3.75
		c1.4,2.93,3.12,4.79,6.77,3.84c3.09-0.82,5.51,0.17,7.64,2.85c1.12,1.42,3.51,1.84,5.34,2.68c0.93,0.42,2.21,0.5,2.78,1.18
		c1.83,2.22,3.95,4.42,2.32,7.79s-5.86,6.73-8.59,6.29c-1-0.16-1.86-1.13-2.83-1.77c2.71-1.47,5.1-2.38,7-3.9
		c1.72-1.4,2-3.55-0.09-5.07s-5.64-0.44-7.15,1.9c-1.16,1.75-2.5,3.37-4,4.83c-0.48,0.48-1.59,0.33-2.41,0.47
		c0.11-0.8,0.32-1.59,0.64-2.33c1.35-2.29,3-4.42,4.17-6.8c0.42-0.86-0.11-3.2-0.5-3.27c-2.15-0.46-4.37-0.52-6.55-0.19
		c-0.87,0.16-1.86,1.9-2.05,3c-0.61,3.7-1.08,4.07-4.37,2.43c-0.63-0.31-1.31-0.91-1.89-0.83c-1,0.16-2.51,0.48-2.87,1.2
		s0.34,2.21,1.05,2.83c1.12,0.83,2.37,1.45,3.7,1.85c1.77,0.69,2,1.62,1,3.21c-1.61,2.69-4.68,4.16-7.79,3.73
		c-4.57-0.44-9.12-1.13-13.65-1.88c-1.03-0.23-1.96-0.81-2.62-1.63c-0.54-0.93-0.93-1.95-1.15-3c1,0,2.35-0.36,3.06,0.13
		c4.5,3.13,9.33,4,15.36,2.44c-1.29-1.2-2.51-2.47-3.66-3.8c-0.9-1.17-2.22-2.68-2.05-3.86c0.36-1.61,1.39-2.99,2.83-3.79
		c1.9-1,4.29-0.9,6.35-1.61c1.15-0.39,3-1.67,2.91-2.2c-0.66-3.12-0.84-7.05-4.32-8.21c-1.89-0.62-4.54,0.56-6.69,1.35
		c-3,1.13-5.83,2.95-8.9,3.93c-3.86,1.22-6.07-0.83-5.86-4.84c0.16-3,0.32-6,0.34-9c0-7.32,0-14.63,0-21.95c0-3.49-5-9.1-8.51-8.68
		c-2.94,0.36-3.25-1-2.53-2.9c1.69-4.37,3.66-8.62,5.65-12.86c1.77-3.79,3.8-7.46,5.54-11.27c0.32-0.92,0.22-1.93-0.26-2.78
		c-0.23-0.36-1.89-0.27-2.49,0.16c-1.56,1.13-3.44,2.31-4.23,3.94c-3,6.16-5.61,12.54-8.5,18.77c-0.78,1.26-1.71,2.42-2.77,3.45
		l-1-0.62c-0.53-3.15,1.44-5.69,2.62-8.4c1.18-2.71,2.66-5.37,3.71-8.16c0.32-0.82-0.39-2-0.62-3.07c-0.87,0.44-2,0.65-2.54,1.35
		c-2.1,2.63-3.96,5.45-5.54,8.43c-1.33,2.78-3.41,5.66-1,9.15c1.14,1.66,0.34,3.3-1.3,4.86c-3.42,3.28-6.52,6.91-9.67,10.47
		c-2.53,2.85-5,5.78-7.39,8.73c-1.82,2.2-3.95,4.29-5.19,6.79c-1,2.08-1.16,4.68-1.25,7.07c0,0.78,1.33,1.62,2,2.43
		c0.76-0.59,1.46-1.26,2.09-2c0.59-0.85,0.72-2,1.35-2.82c5.86-7.24,11.74-14.45,17.71-21.6c1.49-1.76,3.17-3.36,5-4.76
		c0.74-0.56,2.09-0.32,3.16-0.44c-0.43,1.07-0.59,2.4-1.34,3.15c-3.18,3.18-6.9,5.89-9.75,9.33c-4.89,5.9-9.45,12.09-13.8,18.4
		c-1.75,2.54-2.57,5.71-3.81,8.6l1.08,0.75c0.8-0.52,1.59-1,2.4-1.55c4.53-2.82,6.17-2.61,9.26,1.82s6.32,8.33,12,10
		c3.46,1,5.58,0.5,7.72-1.87c0.62-0.69,1-1.75,1.68-2.2c0.97-0.42,2.01-0.71,3.06-0.84c-0.13,1.15,0.08,2.5-0.47,3.4
		c-1.06,1.61-2.31,3.1-3.71,4.43c-0.59,0.56-1.35,0.89-2.16,0.95c-2.19,0.14-4.39,0.08-6.57-0.17c-2.46-0.37-3.91,0-3.82,2.87
		c0,1.93-0.55,4-2.75,3.62c-3.86-0.57-7.62-1.71-11.15-3.38c-2.84-1.46-2-5.24,1-6.53c1.34-0.4,2.65-0.9,3.92-1.48
		c0.71-0.42,1.59-1.67,1.41-2.23c-0.86-2.66-2.51-5-5.48-5.29c-2.7-0.28-4.4,1.42-5.68,3.84c-0.9,1.69-2.49,3-4.27,5.07
		c1.63,2,3.87,4.61,5.91,7.36c0.5,0.97,0.84,2.01,1,3.08c-1.15,0.34-2.5,1.25-3.41,0.92c-7.57-2.73-15.43-1.22-23.14-1.69
		c-7.71-0.47-15.65,0.78-22.72-3.84c-0.92-0.6-2.82-0.41-4,0.11c-7.58,3.56-11,2.74-16.78-3.75c-1.4-1.32-3.23-2.1-5.15-2.18
		c-0.72,0-2,2.35-2.27,3.79c-0.56,2.67-1.74,3.81-4.56,3.55c-2.32-0.09-4.64-0.04-6.95,0.13c-1.77,0-3.61,0.38-5.28,0
		c-2.02-0.57-3.96-1.4-5.76-2.47c-0.81-0.62-1.52-1.35-2.1-2.19c0.17-0.44,0.34-0.88,0.5-1.33c5.76,3.58,11.85,2.77,17.95,2.42
		c3.22-0.19,4.6-1.22,4.92-4.42c0.29-2.78,0.41-5.7,1.41-8.25c1.23-3.15,0.8-5.86-0.37-8.78c-1.81-4.52-3.52-9.09-5.17-13.67
		c-0.14-0.88-0.14-1.77,0-2.65l1.58-0.44c1.1,2.27,2.79,4.45,3.21,6.85c1.65,9.35,5.66,17.8,10,26c3.85,7.39,7.22,7.73,14.61,3.36
		c1-0.57,2.79-0.17,4,0.29c3.34,1.24,6.42,3.56,10.75,2.32c-0.52-0.63-1-1.3-1.44-2c-0.69-1.38-1.31-2.79-2-4.19
		c1.39-0.75,2.85-1.36,4.36-1.82c3.83-0.89,7.71-1.56,11.62-2c5.93-0.61,12.31-3.1,17.08,3.08c0.1,0.14,0.63,0,1.17-0.09
		c-0.02-0.7-0.08-1.39-0.18-2.08c-0.62-2.93-1.48-5.82-1.86-8.78s-0.18-6.29-0.55-9.4c-0.48-4-1.77-8.06-1.79-12.1
		s-1.73-5.67-5.28-6.48c-3-0.73-6.16,0.08-8.45,2.15c-1.39,1.18-3.03,2.03-4.79,2.48c-1.16,0.24-2.58-0.74-3.88-1.17
		c1-0.89,2-1.84,3.07-2.65c0.44-0.33,1.27-0.2,1.62-0.57c0.78-0.92,1.5-1.88,2.16-2.89c-0.84-0.66-1.75-1.22-2.73-1.65
		c-2.78-0.86-5.69-1.31-8.38-2.36c-0.88-0.34-1.24-2-1.83-3.08c1-0.11,2-0.11,3,0c1.12,0.3,2.22,0.67,3.29,1.11
		c6.88,2.18,13.91,4,20.61,6.63c5.28,2.08,11.92-1,12.54-6.77c0.64-5.41-1.13-10.83-4.85-14.82c-3.25-3.7-2.1-6.08,2.62-7.58
		s9.07-3.33,13.62-5c1.08-0.4,2.23-0.61,3.35-0.91c3.48-0.91,7.11-1.47,10.4-2.83c4.28-1.76,8.24-4.27,12.43-6.25
		c7.34-3.47,14.48-7,13.53-17c0.1-0.93,0.3-1.84,0.6-2.73c1.31-8.94,4.26-17.63,3.48-26.89c-0.32-5.02-0.38-10.05-0.19-15.07
		c0.16-1.48,0.49-2.94,1-4.34c1.36-5.1,4-10,1.5-15.57c-0.92-2.06-2.12-2.54-3.74-1.27c-2.42,1.79-4.66,3.8-6.71,6
		c-5.34,6.13-10.44,12.48-15.74,18.66c-0.53,0.62-1.75,0.66-2.65,1c-0.16-1-0.81-2.38-0.39-3.08c1.21-1.97,2.63-3.81,4.24-5.48
		c6.47-6.84,13-13.58,19.49-20.44c0.61-0.65,0.6-1.89,0.87-2.85l-1-0.67c-10.07,8-17.75,18.94-29.46,25.14
		c1.17-2.17,2.63-4.16,4.36-5.92c4.71-4.64,9.55-9.14,14.33-13.7l-0.47-1.31c-2.45,0-5.56-1-7.2,0.19
		c-4.14,2.89-7.69,6.67-11.33,10.23c-2.73,2.67-5.2,5.6-7.89,8.3c-0.44,0.44-1.46,0.31-2.22,0.44l-0.68-1.14
		c5.28-5.44,10.6-10.84,15.8-16.35c0.72-0.83,1.07-1.91,1-3c-0.07-0.45-1.91-1.19-2.63-0.92c-1.97,0.6-3.8,1.61-5.37,2.95
		c-4.35,4.34-8.41,9-12.62,13.45c-0.65,0.57-1.37,1.06-2.13,1.47c0.14-8,9.41-10,10.8-17.77c-9.78,0.4-13,9.84-19.9,14.07
		c-1.37-2.4-0.15-3.67,1.17-5.12c2.47-2.74,5.55-5.32,6.85-8.58c1.11-2.81,2.51-4,5-4.39c2.19-0.32,4.43-0.2,6.62-0.48
		c0.64-0.08,1.18-0.83,1.77-1.28c-0.33-0.41-0.64-1.16-1-1.18c-3.3-0.22-6.69-0.81-9.89-0.29c-2.94,0.47-3.32,0-2.77-2.73
		c0.59-2.92-0.64-4.23-3.46-3.26c-2.42,0.83-4.44,2.77-6.68,4.15c-1.1,0.67-2.3,1.19-3.46,1.78c0-1.22,0-2.43,0-3.65
		c0-1.22,0.35-2.59-0.22-3.21s-2.17-0.41-3.11,0c-1.13,0.57-2.14,1.34-3,2.27c-1,1-2,2.08-2.93,3.12l-1-0.34v-12.25l-2.58-1.7
		l0.22-1.38c1.81-0.1,3.69-0.57,5.41-0.23c3.83,0.77,7.57,1.44,11.33-0.75c-1.43-0.85-3.06-1.32-4.72-1.38
		c-2.34,0.08-4.68,0.31-7,0.66c-2.32,0.29-2.87-1.09-2.1-2.74c1.27-2.99,2.88-5.82,4.8-8.44c1.67-2.14,4.12-3.68,6.22-5.48l1,0.84
		c-0.31,1-0.76,1.95-1.33,2.82c-1.71,1.9-3.65,3.6-5.4,5.47c-0.43,0.63-0.77,1.33-1,2.06c0.65,0.38,1.36,0.62,2.1,0.73
		c1.23-0.09,2.81-0.13,3.58-0.88c2.7-2.53,5.19-5.29,7.42-8.25c1.77-2.42,4.63-4.26,6.86-2.62c3.19,2.35,6.76,2.8,10.31,3.71
		c2.24,0.58,4.42,1.4,6.65,2c3.29,1,6.63,1.83,10,2.48c0.83,0.13,2.09-1.16,2.87-2c4-4.5,7.82-9.13,11.88-13.55
		c0.63-0.69,2.17-0.53,3.29-0.77l0.48,1.18c-3.79,3.87-7.71,7.62-11.29,11.66c-1.13,1.4-1.72,3.15-1.67,4.95
		c0.13,1.87,1.85,2.71,3.66,1.53c3.73-2.45,7.37-5,11.05-7.54L419.8,536.93z M427.8,682.43c-2-4.11-3.46-8.5-5.19-12.76
		c-0.47-1.31-1.06-2.57-1.77-3.76c-1.88-2.9-3.4-2.79-5.12,0.26c-4.3,7.58-8.63,15.14-12.88,22.75c-2,3.59-1.57,4.83,2.49,5.49
		c4.8,0.78,9.7,0.95,14.55,1.38c5.01,0.17,10.08-8.86,7.87-13.36H427.8z M404.34,490.98c0.37-0.19,0.73-0.41,1.06-0.66
		c1.7-1.33,3.08-1.87,4.59,0.47c0.5,0.76,2.28,0.69,3.48,1c-0.49-0.87-1-1.71-1.45-2.61s-1-1.74-0.84-2.4s1.38-1.17,2.13-1.17
		c6.23,0,12.48-1.78,18.75,0.35c0.9,0.31,3.16-1.32,3.71-2.54c1-2.27,1.08-5.06-1.58-6.47c-4.49-2.37-9.18-4.24-14.22-1.28
		c-0.39,0.26-0.84,0.42-1.31,0.47c-4.82,0.17-7.44,2.37-8.17,7.38c-0.48,3.3-4.87,4.29-8.3,2.15c-2.18-1.36-4-1.87-5.46,0.92
		L404.34,490.98z M417.52,472.69c1.72-0.24,3.4-0.7,5-1.36c1-0.48,2.2-1.83,2.14-2.69c-0.31-1.21-1.17-2.2-2.32-2.69
		c-3.64-1.26-7.21-3-11.34-1c-1.88,0.9-4.33,0.64-6.53,0.84s-3.24,1.2-3.14,3.61c0.12,3.19,0,6.45-4.37,7
		c-0.44,0.06-1.2,1.42-1,1.75c0.47,0.73,1.18,1.29,2,1.59c1.34,0.58,2.78,0.92,4.17,1.39c1.23,0.41,2.45,0.87,3.67,1.32
		c-0.22-1.24-0.39-2.48-0.67-3.69c-0.2-0.49-0.48-0.94-0.82-1.34c3.82-3.19,8.55-3.77,13.16-4.73H417.52z M370.9,708.84
		c2.84-3.65,5.38-7.54,8.33-11.08c2.62-3.15,3.65-6.18,1-9.47c-1.79,2.38-3.85,4.77-5.49,7.42c-1.5,2.41-2.19,5.36-3.86,7.62
		c-1.98,2.88-4.42,5.41-7.23,7.49c-3.24,2.24-4.09,4-1.34,8.44C365.41,715.49,368.24,712.2,370.9,708.84z M406.06,564.34
		c1.98-1.23,3.88-2.56,5.71-4c3.67-2.65,7.39-5.23,10.92-8c0.81-0.64,0.94-2.11,1.39-3.2c-1-0.15-2.37-0.79-3.05-0.37
		c-6.29,3.88-13.55,6.54-17.45,13.5c-0.22,0.4-0.38,0.83-1,2.16C404.1,564.41,405.34,564.77,406.06,564.34z M430.48,552.78
		c-2.44,1.78-5,3.36-7.57,5c-0.39,0.26-1.07,0.41-1.16,0.73c-1.38,5-5.8,7.88-8.39,12c-0.23,0.79-0.36,1.61-0.39,2.43
		c9.63-7.36,17.72-14.79,23.82-24.2l-0.64-0.73C434.27,549.64,432.46,551.33,430.48,552.78z M426.27,565.36l0.29,1.22
		c1.34,0,3.18,0.57,3.94-0.09c3.57-3.12,6.95-6.45,10.15-9.95c0.78-0.84,0.6-2.56,0.86-3.88l-1.09-0.8
		C435.22,555.84,432.23,562.23,426.27,565.36L426.27,565.36z M360.98,755.57c-2.5-2.55-5.18-4.93-8-7.13c-0.54-0.43-2.3,0.13-3,0.76
		c-0.39,0.35,0,1.95,0.4,2.77c1.86,3.58,5.16,5.15,9.82,6.19C360.48,757.32,361.34,755.89,360.98,755.57z M366.34,546.19
		c2.69-1.92,5.24-4.04,7.62-6.34c0.38-0.36,0.11-1.84-0.32-2.5c-0.57-0.51-1.37-0.69-2.1-0.47c-2.74,2.12-5.35,4.4-8,6.67
		c-0.21,0.19-0.18,0.65-0.48,1.83C364.18,545.69,365.71,546.61,366.34,546.19z M411.13,547.33c-0.11,0.54,0.02,1.11,0.37,1.54
		c0.46,0.32,1.05,0.39,1.57,0.19c4-2.39,7.9-4.87,12-7.45c-4.61-2.11-12.99,1.51-13.97,5.72H411.13z M370.74,689.5
		c-0.09,0.77,0.23,1.52,0.84,2c0.75,0.17,1.54,0,2.16-0.46c3.18-2.15,3.32-5.24,2.55-9.14C372.58,683.57,371.54,686.49,370.74,689.5
		z M380.93,544.16c0.27-0.15,0-2.31-0.54-2.56c-1-0.46-2.72-0.72-3.34-0.17c-1.38,1.25-2.27,3.05-3.36,4.62
		c0.26,0.42,0.53,0.83,0.79,1.24C376.65,546.28,378.87,545.36,380.93,544.16z M368.27,555.52c0.34,0.44,0.88,0.68,1.43,0.65
		c0.78-0.34,1.9-0.91,2-1.55c0.47-2.28,0.57-4.62,0.85-7.28C370.2,548.37,367.41,554.3,368.27,555.52z M385,560.39
		c1.54-0.91,2.92-2.06,4.1-3.4c0.46-0.55,0-1.87,0-2.84c-0.9,0.19-1.76,0.52-2.54,1c-1.36,1.17-2.51,2.59-4.23,4.42
		C383.56,559.96,384.57,560.65,385,560.39z M397,552.99c1,0,1.91-1.61,2.86-2.5c-1.21-0.69-2.37-1.81-3.64-1.93
		c-1-0.11-2.2,1-3.3,1.54v1.15c1.42,0.64,2.76,1.78,4.09,1.74H397z M398.13,563.69c-1.29-1.14-2.69-2.15-4.18-3
		c-0.23-0.12-1.74,1.51-1.69,1.57c1.05,1.33,2.23,2.55,3.85,4.28C396.84,565.62,397.51,564.67,398.13,563.69L398.13,563.69z
		 M381.65,686.36c2-2.9,3.58-5.3,5.2-7.69l-1.1-0.77C382.78,678.72,380.99,681.95,381.65,686.36z M336.43,751.57
		c-0.63-0.34-1.69,0.12-2.56,0.22c0.13,0.83,0,1.85,0.42,2.45c1.56,2.18,3.22,2.44,6.48,0.51
		C339.4,753.58,337.95,752.52,336.43,751.57z M346.43,756.13c0.37-4-1.64-5.95-5.81-5.73L346.43,756.13z M439.34,563.55
		c-1.3,1.34-2.55,2.73-3.82,4.1c0.39,0.33,1.08,1,1.11,1c1.5-1.44,2.94-2.94,4.39-4.43l-0.74-0.72
		C439.96,563.49,439.51,563.38,439.34,563.55z"/>
	<path class="st3" d="M289,248.98c-8.27-0.49-16.54-1.11-24.82-1.41c-4.9-0.18-4.91,0.05-3.4,4.9c0.69,2.25-0.48,3.49-3,3.13
		c-1.26-0.18-2.65-0.84-3.72-0.49c-1.24,0.41-2.18,1.7-3.25,2.61c1,0.89,2,2.35,3.15,2.57c3.4,0.65,6.92,0.7,10.36,1.18
		c4.26,0.59,8.51,1.27,12.73,2.13c1.5,0.29,2.9,0.96,4.06,1.95c2.61,2.41,6.21,3.45,9.71,2.8c6.07-0.79,12.1-1.85,18.17-2.57
		c1.53-0.18,3.16,0.48,4.74,0.78c6,1.15,11.16-1.39,16.27-3.94c3.11-1.56,6.38-3,9.05-5.15c1.53-1.47,2.41-3.5,2.42-5.63
		c0-1.34-2-2.9-3.41-3.86c-0.95-0.64-2.5-0.31-3.76-0.54c-3.84-0.69-7-1.77-9.3-5.76c-2.35-4.15-5.65-8.14-11.4-8.12
		c-2.45,0-3.7,0.74-3.36,3.53c0.48,4-0.28,5-4.16,4s-7.38-3.1-10.89-5c-3.06-1.66-5.72-4.14-8.89-5.45
		c-1.99-0.61-4.15-0.27-5.85,0.92c-2.11,1.88-0.25,3.76,1.54,5.11c3.7,2.78,7.47,5.49,11.12,8.35c0.71,0.77,1.3,1.65,1.76,2.59
		c-0.84,0.62-1.76,1.11-2.74,1.47c-1.04,0.1-2.1,0.06-3.13-0.12L289,248.98z"/>
	<path class="st3" d="M329.71,272.27c0.86,0,1.87-0.29,2.55,0c3.14,1.43,6.15,3.13,9,5.08c2.29,1.72,3.69,4.64,6,6.27
		c3,2.13,3.53,5.22,2.31,7.61c-1.39,2.73-4.17,6.29-6.72,6.62c-10.29,1.25-20.64,1.98-31,2.18c-6.29,0.19-12.24-1.49-16.79-6.36
		c-1.74-1.86-3.51-3.69-5.25-5.54c-0.61-0.65-1.19-1.32-1.78-2c0.66-0.73,1.42-1.36,2.27-1.86c1.08-0.44,2.24-0.66,3.4-0.65
		c9.77-0.13,19.54-0.22,29.31-0.26c4.4,0,8.8,0.26,13.2,0.22c1.87-0.13,3.73-0.39,5.56-0.78c-1.23-1.68-2.62-3.24-4.13-4.67
		c-1.31-1.06-3.18-1.41-4.69-2.27c-1.25-0.78-2.46-1.63-3.61-2.55L329.71,272.27z M339.14,288.51c-4.59,0.93-8.76,0.12-13.31-0.9
		c-5.47-1.22-11.06-3.66-17.08-1.82c-3,0.9-6.24,0.69-9.34,1.19c-1,0.16-2.5,0.75-2.79,1.51c-0.18,1.12,0.17,2.25,0.95,3.07
		c2.48,2.64,5.83,4.3,9.43,4.69c5.82,0.61,11.54,2.13,17.46,1.34c1.69-0.22,3.4-0.34,5.09-0.61c0.8-0.12,1.54-0.6,2.34-0.72
		c4.17-0.6,8.36-1.13,12.51-1.69C346.34,289.33,344.51,287.43,339.14,288.51L339.14,288.51z"/>
	<path class="st3" d="M370.5,469.84c-2.75,0.26-4.56,0.7-6.32,0.55c-3.95-0.34-4.41-0.28-7.23,3c3.22,3.22,7.57,5.08,12.13,5.18
		c0.93,0,2.5-0.38,2.69-0.94c0.91-2.72,2.23-5.68,1.84-8.32c-0.25-1.72-3.18-3-4.91-4.55c-0.29,0.71-0.94,1.54-0.76,2.12
		C368.16,467.64,369.03,468.22,370.5,469.84z"/>
	<path class="st3" d="M297.6,609.25c-1-1.26-1.7-2.71-2.85-3.53c-2.5-1.75-3.18-3.49-1.13-6c2.75-3.43,5.42-6.93,8-10.5
		c0.57-0.79,0.55-2,0.81-3c-1,0.24-2.55,0.14-3,0.79c-3.66,5.19-7.22,10.46-10.52,15.88c-0.45,0.73,0.31,2.94,1.17,3.58
		c2.65,2,3.22,4.28,2.38,7.33c-0.25,0.92,0.36,2.08,0.58,3.12c0.77-0.68,1.8-1.23,2.27-2.09
		C296.18,613.01,296.94,611.15,297.6,609.25z"/>
	<path class="st3" d="M384.58,655.21c-2.44,1.06-4.49,1.64-6.22,2.74c-5.14,3.27-10.14,6.76-15.23,10.11
		c-1.91,1.26-4,2.26-5.86,3.59c-0.71,0.72-1.29,1.56-1.73,2.47c1.06,0.22,2.31,0.92,3.13,0.58c1.87-0.93,3.66-2,5.38-3.19
		c6.36-3.83,12.74-7.62,19.07-11.51c0.98-0.58,1.77-1.43,2.28-2.44C385.65,657,384.89,656,384.58,655.21z"/>
	<path class="st3" d="M376.78,732.47c5.4-5.07,10.51-9.9,15.66-14.68c1-1,2.35-1.6,3.2-2.66c0.53-0.65,0.42-1.82,0.6-2.76
		c-0.94,0-2.11-0.34-2.77,0.09c-1.62,1.13-3.13,2.4-4.54,3.78c-3.33,3.09-6.7,6.13-9.86,9.37
		C377.34,727.44,375.22,729.44,376.78,732.47z"/>
	<path class="st3" d="M366,298.03c-2.1-0.09-4.2-0.06-6.29,0.07c-0.95,0.11-1.82,1-2.72,1.47c1,0.62,1.83,1.6,2.86,1.77
		c1.45,0.26,3-0.19,4.51-0.14c3.32,0.11,6.64,0.32,10,0.52c2.42,0.15,4.85,0.5,7.27,0.43c0.81,0,1.6-1,2.4-1.6
		c-0.77-0.53-1.51-1.46-2.33-1.55c-5.2-0.55-10.41-0.92-15.62-1.35L366,298.03z"/>
	<path class="st3" d="M412.42,341.84l3.74,2.19c2.25,1.31,4.49,2.65,6.76,3.93c2.3,1.19,3.96,3.33,4.56,5.85
		c0.27,1.06,2.09,1.73,3.21,2.57c0.13-1.45,0.9-3.34,0.27-4.29c-2.69-4-5.54-8-10.56-9.66c-1-0.3-1.72-1.28-2.68-1.53
		c-1.63-0.34-3.28-0.58-4.94-0.72L412.42,341.84z"/>
	<path class="st3" d="M262.63,339.01c-3.8,0.18-5.24,2.34-6.14,5.18s0.72,4.45,3,5.35c2.77,1.1,5.63,1.99,8.54,2.65
		c0.74,0.16,1.79-1.07,2.71-1.66c-0.75-0.71-1.57-1.35-2.43-1.92c-0.56-0.32-1.37-0.18-2-0.35c-6.13-1.53-6.24-1.76-4-7.5
		C262.47,340.18,262.57,339.6,262.63,339.01z"/>
	<path class="st3" d="M396.82,537.96c1.14-0.45,2.62-0.6,3.36-1.41c3.31-3.66,6.51-7.45,9.53-11.35c0.75-1,0.69-2.54,1-3.84
		c-1.33,0.49-3.16,0.59-3.93,1.54c-3.67,4.53-7.06,9.29-10.54,14L396.82,537.96z"/>
	<path class="st3" d="M391.24,534.02c3.36-3.86,6.79-7.66,10-11.65c0.44-0.55-0.22-2-0.37-3c-0.86,0.38-2,0.54-2.53,1.17
		c-2.67,3-5.29,6-7.73,9.19c-0.69,0.9-0.71,2.31-1,3.49L391.24,534.02z"/>
	<path class="st3" d="M365.04,574.62c-0.59,0.26-1.15,0.57-1.68,0.94c-2.56,2.85-5.15,5.67-7.62,8.6c-0.4,0.48-0.23,1.44-0.32,2.18
		c0.74,0,1.77,0.22,2.17-0.17c2.73-2.67,5.43-5.39,7.9-8.29C365.92,577.37,365.25,575.91,365.04,574.62z"/>
	<path class="st3" d="M256.34,722.84c-1.57,5.91,5.05,19.77,8.45,19C262.02,735.75,259.34,729.65,256.34,722.84z"/>
	<path class="st3" d="M421.59,589.53c-3.26,0.72-10.51,8.68-10.47,11.49C415.21,600.84,422.41,592.98,421.59,589.53z"/>
	<path class="st3" d="M397.5,622.6c-3.52,2.68-6.47,4.83-9.27,7.17c-0.49,0.4-0.29,1.62-0.41,2.47c0.8,0,1.6-0.12,2.37-0.37
		c1.85-0.95,3.6-2.09,5.4-3.13C397.66,627.53,398.34,625.84,397.5,622.6z"/>
	<path class="st3" d="M396.91,651.9c2.89,0.34,11.09-3.33,11.95-5.18c0.26-0.49,0.3-1.07,0.11-1.59c-0.35-0.42-0.9-0.64-1.44-0.56
		C403.84,646.55,399.34,647.39,396.91,651.9z"/>
	<path class="st3" d="M399.59,642.75c4-0.66,9.76-5.12,10.09-7.83C405.89,634.54,400.03,639.09,399.59,642.75z"/>
	<path class="st3" d="M395.48,723.84c-3.25-0.87-5.35,1.44-7.38,3.4c-0.72,0.69-0.6,2.25-0.87,3.42l1,0.3l7.92-5.89L395.48,723.84z"
		/>
	<path class="st3" d="M381.56,527.08c3-2.55,5.54-4.88,5.28-9c-3.79,0.77-6.24,4.46-5.48,8.25
		C381.42,526.58,381.48,526.83,381.56,527.08z"/>
	<path class="st3" d="M395.47,640.59c-4.5-1.71-8.35,0.92-9.19,6.17L395.47,640.59z"/>
	<path class="st3" d="M419.8,536.93c0.9-1.13,1.85-2.23,2.68-3.41c0.55-0.89,1.06-1.81,1.52-2.75c-1.11,0.06-2.22,0.05-3.32,0.2
		c-0.45,0.13-0.85,0.39-1.16,0.74c-0.94,0.93-1.83,1.91-2.74,2.88l3.12,2.25L419.8,536.93z"/>
	<path class="st3" d="M285.2,352.13c1.21-1,1.89-1.59,2.57-2.17c-1.49-0.87-3.04-1.62-4.64-2.26c-0.49-0.17-1.34,0.77-2,1.2
		L285.2,352.13z"/>
	<path class="st3" d="M402.98,629.41c2.81,1,6.09-0.67,6.28-2.76c0.05-0.65-0.22-1.29-0.73-1.7c-0.63-0.2-1.33-0.09-1.86,0.31
		C405.43,626.44,404.34,627.84,402.98,629.41z"/>
	<path class="st3" d="M345.84,582.02c1.46-1.44,3-2.83,4.34-4.37c0.27-0.3,0-1.64-0.26-1.73c-0.62-0.22-1.77-0.23-2.07,0.16
		c-1.11,1.59-2.13,3.24-3.07,4.93L345.84,582.02z"/>
	<path class="st3" d="M287.56,638.89c0.7-1.64,1.29-3.33,1.78-5.05c0.12-0.52-0.74-1.26-1.15-1.9c-0.56,0.44-1.51,0.81-1.6,1.33
		c-0.3,1.81-0.31,3.67-0.43,5.52L287.56,638.89z"/>
	<path class="st3" d="M425.34,356.77c-0.17,2.27-0.34,4.54-0.56,7.32C427.74,362.29,427.9,360.5,425.34,356.77z"/>
	<path class="st3" d="M431.09,524.91l-6.3,2.86C429.16,529.89,429.96,529.53,431.09,524.91z"/>
	<path class="st3" d="M346.97,533.31l2.63-3.45c-0.45-0.35-0.93-0.66-1.44-0.93c-0.95,1-1.79,2.17-2.65,3.28L346.97,533.31z"/>
	<path class="st2" d="M411.43,686.84c0.24,0.37,1.47,0.62,1.66,0.41c1.66-1.79,3.18-3.7,4.56-5.71c0.33-0.49-0.31-1.61-0.47-2.28
		C414.77,679.19,410.51,685.41,411.43,686.84z"/>
	<path class="st3" d="M417.18,679.25c-2.41-0.06-6.67,6.16-5.75,7.58c0.24,0.37,1.47,0.62,1.66,0.41c1.66-1.79,3.18-3.7,4.56-5.71
		C417.98,681.04,417.34,679.92,417.18,679.25z"/>
</g>
</svg>
