<?xml version="1.0" encoding="utf-8"?>
<!-- Generator: Adobe Illustrator 25.2.1, SVG Export Plug-In . SVG Version: 6.00 Build 0)  -->
<svg version="1.1" id="Capa_1" xmlns="http://www.w3.org/2000/svg" xmlns:xlink="http://www.w3.org/1999/xlink" x="0px" y="0px"
	 viewBox="0 0 600.5 600.5" style="enable-background:new 0 0 600.5 600.5;" xml:space="preserve">
<style type="text/css">
	.st0{fill:#8CCCF1;}
	.st1{fill:#6D48C6;}
</style>
<path class="st0" d="M600.5,309.94c0,206.2-94.07,290.56-300.24,290.56S0,516.14,0,309.94S94.07,0,300.26,0
	S600.5,103.75,600.5,309.94"/>
<path class="st1" d="M300.25,141.07c51.84,0,58,0.2,78.46,1.14c18.93,0.86,29.21,4,36.05,6.68c16.94,6.54,30.32,19.92,36.86,36.86
	c2.65,6.84,5.81,17.12,6.68,36c0.93,20.48,1.13,26.62,1.13,78.47s-0.2,58-1.13,78.45c-0.87,18.93-4,29.21-6.68,36.06
	c-6.54,16.93-19.93,30.31-36.86,36.84c-6.84,2.67-17.12,5.83-36.05,6.69c-20.47,0.93-26.62,1.13-78.46,1.13s-58-0.2-78.46-1.13
	c-18.93-0.86-29.21-4-36-6.69c-16.94-6.52-30.35-19.89-36.9-36.82c-2.66-6.85-5.82-17.13-6.69-36.06
	c-0.93-20.47-1.13-26.61-1.13-78.45s0.2-58,1.13-78.47c0.87-18.93,4-29.21,6.69-36c6.54-16.93,19.92-30.31,36.85-36.85
	c6.84-2.66,17.12-5.82,36-6.68c20.48-0.94,26.61-1.14,78.46-1.14 M300.2,106.1c-52.73,0-59.34,0.22-80.05,1.17s-34.79,4.22-47.13,9
	c-26.09,10.08-46.71,30.7-56.79,56.78c-4.8,12.35-8.08,26.46-9,47.13s-1.18,27.32-1.18,80.06s0.23,59.34,1.18,80.05
	s4.22,34.78,9,47.12c10.09,26.08,30.71,46.71,56.79,56.8c12.34,4.79,26.46,8.08,47.13,9s27.32,1.17,80.05,1.17
	s59.34-0.23,80.06-1.17s34.77-4.23,47.12-9c26.08-10.09,46.7-30.72,56.79-56.8c4.8-12.34,8.08-26.46,9-47.12s1.18-27.33,1.18-80.05
	s-0.23-59.35-1.18-80.06s-4.22-34.78-9-47.13c-10.08-26.08-30.7-46.7-56.79-56.78c-12.35-4.81-26.46-8.09-47.12-9
	S352.93,106.1,300.2,106.1"/>
<path class="st1" d="M300.25,200.55c-55.07,0.02-99.69,44.68-99.67,99.75c0.02,55.07,44.68,99.69,99.75,99.67
	c55.06-0.02,99.68-44.66,99.67-99.72c-0.01-55.06-44.65-99.7-99.71-99.7 M300.29,364.97c-35.74,0.01-64.72-28.97-64.73-64.71
	s28.97-64.72,64.71-64.73s64.72,28.97,64.73,64.71c0,0,0,0.01,0,0.01c-0.01,35.74-28.98,64.71-64.72,64.72"/>
<path class="st1" d="M427.19,196.61c0,12.87-10.43,23.3-23.3,23.3c-12.87,0-23.3-10.43-23.3-23.3c0-12.87,10.43-23.3,23.3-23.3l0,0
	C416.76,173.31,427.19,183.74,427.19,196.61"/>
</svg>
