<?xml version="1.0" encoding="utf-8"?>
<!-- Generator: Adobe Illustrator 25.2.1, SVG Export Plug-In . SVG Version: 6.00 Build 0)  -->
<svg version="1.1" id="Capa_1" xmlns="http://www.w3.org/2000/svg" xmlns:xlink="http://www.w3.org/1999/xlink" x="0px" y="0px"
	 viewBox="0 0 600 600" style="enable-background:new 0 0 600 600;" xml:space="preserve">
<style type="text/css">
	.st0{fill:#8CCCF1;}
	.st1{fill-rule:evenodd;clip-rule:evenodd;fill:#6D48C6;}
</style>
<path class="st0" d="M600,309.68C600,515.7,506,600,300,600S0,515.7,0,309.68S94,0,300,0S600,103.67,600,309.68"/>
<path class="st1" d="M432.44,167.65c-35.04-35.26-82.73-55.03-132.44-54.89c-103.19,0-187.18,84-187.22,187.15
	c-0.04,32.85,8.59,65.13,25,93.58l-26.56,97l99.25-26c27.46,14.95,58.22,22.79,89.48,22.79H300c103.18,0,187.18-84,187.22-187.18
	c0.15-49.68-19.58-97.36-54.79-132.41 M300,455.63h-0.07c-27.86,0.02-55.22-7.45-79.2-21.63l-5.68-3.39L156.15,446l15.72-57.42
	l-3.69-5.87c-15.59-24.8-23.84-53.51-23.8-82.81c0-85.76,69.85-155.55,155.68-155.55c85.94,0.02,155.58,69.7,155.56,155.64
	c0,0.02,0,0.04,0,0.06c0,85.79-69.84,155.58-155.61,155.58"/>
<path class="st1" d="M385.36,339.11c-4.68-2.34-27.67-13.65-32-15.22s-7.41-2.33-10.53,2.36s-12.08,15.21-14.82,18.33
	s-5.45,3.51-10.13,1.16s-19.75-7.27-37.62-23.2c-13.9-12.41-23.29-27.72-26-32.41s-0.3-7.21,2-9.54c2.11-2.09,4.69-5.46,7-8.2
	s3.12-4.68,4.67-7.8s0.78-5.85-0.39-8.2c-1.17-2.35-10.43-25.39-14.33-34.72c-3.8-9.12-7.66-7.88-10.53-8
	c-2.72-0.14-5.85-0.16-9-0.16c-4.79,0.12-9.32,2.24-12.48,5.85c-4.29,4.68-16.38,16-16.38,39s16.77,45.26,19.11,48.38
	s33,50.37,79.92,70.61c8.71,3.76,17.61,7.06,26.67,9.87c9.55,2.9,19.64,3.52,29.48,1.83c9-1.34,27.68-11.31,31.58-22.24
	s3.9-20.28,2.73-22.23s-4.28-3.12-9-5.47"/>
</svg>
