<?xml version="1.0" encoding="utf-8"?>
<!-- Generator: Adobe Illustrator 25.2.1, SVG Export Plug-In . SVG Version: 6.00 Build 0)  -->
<svg version="1.1" id="Capa_1" xmlns="http://www.w3.org/2000/svg" xmlns:xlink="http://www.w3.org/1999/xlink" x="0px" y="0px"
	 viewBox="0 0 600 600" style="enable-background:new 0 0 600 600;" xml:space="preserve">
<style type="text/css">
	.st0{fill:#8CCCF1;}
	.st1{fill:#6D48C6;}
</style>
<path class="st0" d="M600,309.68C600,515.7,506,600,300,600S0,515.7,0,309.68S94,0,300,0S600,103.68,600,309.68"/>
<path class="st1" d="M474,229c0,0-3.47-24.47-14.11-35.25c-13.51-14.14-28.64-14.21-35.58-15c-49.7-3.59-124.24-3.59-124.24-3.59
	h-0.15c0,0-74.55,0-124.25,3.59c-6.94,0.83-22.07,0.9-35.58,15C129.46,204.53,126,229,126,229c-2.22,19.08-3.4,38.26-3.56,57.47
	v26.95c0.16,19.21,1.34,38.39,3.56,57.47c0,0,3.46,24.47,14.1,35.25c13.51,14.13,31.26,13.69,39.16,15.17
	C207.68,424,300,424.88,300,424.88s74.62-0.11,124.32-3.7c6.94-0.83,22.07-0.91,35.58-15c10.64-10.82,14.1-35.29,14.1-35.29
	c2.21-19.08,3.39-38.26,3.55-57.47v-26.95C477.4,267.26,476.21,248.08,474,229"/>
<polygon class="st0" points="263.32,346.06 359.27,296.35 263.32,246.28 "/>
</svg>
