<svg id="Capa_1" data-name="Capa 1" xmlns="http://www.w3.org/2000/svg" viewBox="0 0 600.5 600.5"><defs><style>.cls-1{fill:#3d3d3b;}.cls-2{fill:#eb5d2e;}</style></defs><title>redes Instagram</title><path class="cls-1" d="M600.5,310.19c0,206.2-94.07,290.56-300.24,290.56S0,516.39,0,310.19,94.07.25,300.26.25,600.5,104,600.5,310.19" transform="translate(0 -0.25)"/><path class="cls-2" d="M300.25,141.32c51.84,0,58,.2,78.46,1.14,18.93.86,29.21,4,36.05,6.68A64.36,64.36,0,0,1,451.62,186c2.65,6.84,5.81,17.12,6.68,36,.93,20.48,1.13,26.62,1.13,78.47s-.2,58-1.13,78.45c-.87,18.93-4,29.21-6.68,36.06a64.31,64.31,0,0,1-36.86,36.84c-6.84,2.67-17.12,5.83-36.05,6.69-20.47.93-26.62,1.13-78.46,1.13s-58-.2-78.46-1.13c-18.93-.86-29.21-4-36-6.69A64.33,64.33,0,0,1,148.89,415c-2.66-6.85-5.82-17.13-6.69-36.06-.93-20.47-1.13-26.61-1.13-78.45s.2-58,1.13-78.47c.87-18.93,4-29.21,6.69-36a64.38,64.38,0,0,1,36.85-36.85c6.84-2.66,17.12-5.82,36-6.68,20.48-.94,26.61-1.14,78.46-1.14m0-35c-52.73,0-59.34.22-80.05,1.17s-34.79,4.22-47.13,9a99.21,99.21,0,0,0-56.79,56.78c-4.8,12.35-8.08,26.46-9,47.13s-1.18,27.32-1.18,80.06.23,59.34,1.18,80.05,4.22,34.78,9,47.12a99.32,99.32,0,0,0,56.79,56.8c12.34,4.79,26.46,8.08,47.13,9s27.32,1.17,80.05,1.17,59.34-.23,80.06-1.17,34.77-4.23,47.12-9a99.32,99.32,0,0,0,56.79-56.8c4.8-12.34,8.08-26.46,9-47.12s1.18-27.33,1.18-80.05-.23-59.35-1.18-80.06-4.22-34.78-9-47.13a99.21,99.21,0,0,0-56.79-56.78c-12.35-4.81-26.46-8.09-47.12-9s-27.33-1.17-80.06-1.17" transform="translate(0 -0.25)"/><path class="cls-2" d="M300.25,200.8A99.71,99.71,0,1,0,400,300.5a99.71,99.71,0,0,0-99.71-99.7m0,164.42A64.72,64.72,0,1,1,365,300.5a64.73,64.73,0,0,1-64.72,64.72" transform="translate(0 -0.25)"/><path class="cls-2" d="M427.19,196.86a23.3,23.3,0,1,1-23.3-23.3,23.3,23.3,0,0,1,23.3,23.3" transform="translate(0 -0.25)"/></svg>