<svg id="Capa_1" data-name="Capa 1" xmlns="http://www.w3.org/2000/svg" viewBox="0 0 600 600"><defs><style>.cls-1{fill:#3d3d3b;}.cls-2{fill:#eb5d2e;}</style></defs><title>redes youtube</title><path class="cls-1" d="M600,310.68C600,516.7,506,601,300,601S0,516.7,0,310.68,94,1,300,1,600,104.68,600,310.68" transform="translate(0 -1)"/><path class="cls-2" d="M474,230s-3.47-24.47-14.11-35.25c-13.51-14.14-28.64-14.21-35.58-15-49.7-3.59-124.24-3.59-124.24-3.59h-.15s-74.55,0-124.25,3.59c-6.94.83-22.07.9-35.58,15C129.46,205.53,126,230,126,230a535.57,535.57,0,0,0-3.56,57.47v26.95A535.82,535.82,0,0,0,126,371.89s3.46,24.47,14.1,35.25c13.51,14.13,31.26,13.69,39.16,15.17C207.68,425,300,425.88,300,425.88s74.62-.11,124.32-3.7c6.94-.83,22.07-.91,35.58-15C470.54,396.36,474,371.89,474,371.89a537.31,537.31,0,0,0,3.55-57.47V287.47A537.06,537.06,0,0,0,474,230" transform="translate(0 -1)"/><polygon class="cls-1" points="263.32 346.06 359.27 296.35 263.32 246.28 263.32 346.06"/></svg>