<svg id="Capa_1" data-name="Capa 1" xmlns="http://www.w3.org/2000/svg" viewBox="0 0 600 600"><defs><style>.cls-1{fill:#3d3d3b;}.cls-2{fill:#eb5d2e;fill-rule:evenodd;}</style></defs><title>redes whatsapp</title><path class="cls-1" d="M600,310.68C600,516.7,506,601,300,601S0,516.7,0,310.68,94,1,300,1,600,104.67,600,310.68" transform="translate(0 -1)"/><path class="cls-2" d="M432.44,168.65A186,186,0,0,0,300,113.76c-103.19,0-187.18,84-187.22,187.15a186.85,186.85,0,0,0,25,93.58l-26.56,97,99.25-26a187.15,187.15,0,0,0,89.48,22.79H300c103.18,0,187.18-84,187.22-187.18a186,186,0,0,0-54.79-132.41M300,456.63h-.07A155.47,155.47,0,0,1,220.73,435l-5.68-3.39L156.15,447l15.72-57.42-3.69-5.87a155.22,155.22,0,0,1-23.8-82.81c0-85.76,69.85-155.55,155.68-155.55A155.6,155.6,0,0,1,455.62,301.05c0,85.79-69.84,155.58-155.61,155.58" transform="translate(0 -1)"/><path class="cls-2" d="M385.36,340.11c-4.68-2.34-27.67-13.65-32-15.22s-7.41-2.33-10.53,2.36-12.08,15.21-14.82,18.33-5.45,3.51-10.13,1.16-19.75-7.27-37.62-23.2c-13.9-12.41-23.29-27.72-26-32.41s-.3-7.21,2-9.54c2.11-2.09,4.69-5.46,7-8.2s3.12-4.68,4.67-7.8.78-5.85-.39-8.2S257.11,232,253.21,222.67c-3.8-9.12-7.66-7.88-10.53-8-2.72-.14-5.85-.16-9-.16a17.16,17.16,0,0,0-12.48,5.85c-4.29,4.68-16.38,16-16.38,39s16.77,45.26,19.11,48.38,33,50.37,79.92,70.61a266.59,266.59,0,0,0,26.67,9.87A64.14,64.14,0,0,0,360,390.05c9-1.34,27.68-11.31,31.58-22.24s3.9-20.28,2.73-22.23-4.28-3.12-9-5.47" transform="translate(0 -1)"/></svg>